<svg width="25" height="24" viewBox="0 0 25 24" fill="none" xmlns="http://www.w3.org/2000/svg">
<g clip-path="url(#clip0_222_1167)">
<path d="M5.09912 1.93444e-06H20.5991C21.1574 -0.000537727 21.7103 0.111842 22.2261 0.33071C22.742 0.549578 23.2107 0.870637 23.6055 1.27551C24.0003 1.68039 24.3133 2.16113 24.5267 2.69023C24.7401 3.21933 24.8496 3.7864 24.8491 4.35898V19.641C24.8496 20.2136 24.7401 20.7807 24.5267 21.3098C24.3133 21.8389 24.0003 22.3196 23.6055 22.7245C23.2107 23.1294 22.742 23.4504 22.2261 23.6693C21.7103 23.8882 21.1574 24.0005 20.5991 24H5.09912C4.54086 24.0005 3.98797 23.8882 3.4721 23.6693C2.95622 23.4504 2.4875 23.1294 2.09275 22.7245C1.69799 22.3196 1.38496 21.8389 1.17156 21.3098C0.958167 20.7807 0.848597 20.2136 0.849123 19.641V4.35898C0.848597 3.7864 0.958167 3.21933 1.17156 2.69023C1.38496 2.16113 1.69799 1.68039 2.09275 1.27551C2.4875 0.870637 2.95622 0.549578 3.4721 0.33071C3.98797 0.111842 4.54086 -0.000537727 5.09912 1.93444e-06Z" fill="#330000"/>
<path d="M12.4791 14.4H8.75906L7.99906 16.8102C7.99057 16.8542 7.96637 16.8932 7.93121 16.9198C7.89606 16.9464 7.85249 16.9585 7.80906 16.9538H5.92906C5.81906 16.9538 5.78906 16.8923 5.81906 16.7692L9.03906 7.2615C9.06906 7.15894 9.09906 7.04612 9.13906 6.92304C9.17931 6.70323 9.19939 6.48003 9.19906 6.25638C9.19606 6.23069 9.20264 6.20479 9.21748 6.18387C9.23231 6.16294 9.25431 6.14855 9.27906 6.14355H11.8691C11.9491 6.14355 11.9891 6.17432 11.9991 6.22561L15.6491 16.7897C15.6791 16.9025 15.6491 16.9538 15.5491 16.9538H13.4591C13.4237 16.9573 13.3883 16.9479 13.359 16.9273C13.3298 16.9066 13.3085 16.8761 13.2991 16.841L12.4791 14.4ZM9.33906 12.3179H11.8791C11.8191 12.1025 11.7391 11.8461 11.6491 11.5795C11.5591 11.3128 11.4691 11.0051 11.3791 10.6974C11.2891 10.3897 11.1891 10.0718 11.0891 9.75381C10.9891 9.43586 10.8991 9.13843 10.8191 8.84099C10.7391 8.54355 10.6691 8.28714 10.5991 8.04099H10.5791C10.4892 8.48801 10.3757 8.92969 10.2391 9.36407C10.0891 9.85638 9.93906 10.3692 9.77906 10.882C9.63906 11.4051 9.48906 11.8871 9.33906 12.3179Z" fill="#FF9A00"/>
<path d="M17.8289 7.89764C17.6647 7.90133 17.5015 7.87148 17.3487 7.80986C17.1959 7.74823 17.0566 7.65604 16.9389 7.53867C16.7098 7.28173 16.5878 6.94307 16.5989 6.59508C16.593 6.42552 16.622 6.25659 16.684 6.09931C16.7461 5.94203 16.8397 5.79992 16.9589 5.68226C17.1993 5.44925 17.5182 5.32062 17.8489 5.32328C18.2389 5.32328 18.5389 5.44636 18.7589 5.68226C18.9804 5.93095 19.0988 6.25837 19.0889 6.59508C19.095 6.76837 19.0672 6.94115 19.007 7.10322C18.9469 7.26529 18.8558 7.41336 18.7389 7.53867C18.6211 7.66177 18.4789 7.75751 18.3219 7.81944C18.1649 7.88136 17.9968 7.90803 17.8289 7.89764ZM16.7089 16.8002V8.90277C16.7089 8.80021 16.7489 8.75918 16.8389 8.75918H18.8189C18.9089 8.75918 18.9489 8.81046 18.9489 8.90277V16.8002C18.9489 16.913 18.9089 16.9643 18.8189 16.9643H16.8589C16.8379 16.9661 16.8167 16.963 16.7971 16.9552C16.7774 16.9474 16.7597 16.9352 16.7453 16.9194C16.7308 16.9036 16.7201 16.8847 16.7138 16.8641C16.7075 16.8434 16.7058 16.8216 16.7089 16.8002Z" fill="#FF9A00"/>
</g>
<defs>
<clipPath id="clip0_222_1167">
<rect width="24" height="24" fill="white" transform="translate(0.849121)"/>
</clipPath>
</defs>
</svg>
