<svg width="25" height="24" viewBox="0 0 25 24" fill="none" xmlns="http://www.w3.org/2000/svg">
<g clip-path="url(#clip0_222_1170)">
<path d="M5.09912 1.93444e-06H20.5991C21.1574 -0.000537727 21.7103 0.111842 22.2261 0.33071C22.742 0.549578 23.2107 0.870637 23.6055 1.27551C24.0003 1.68039 24.3133 2.16113 24.5267 2.69023C24.7401 3.21933 24.8496 3.7864 24.8491 4.35898V19.641C24.8496 20.2136 24.7401 20.7807 24.5267 21.3098C24.3133 21.8389 24.0003 22.3196 23.6055 22.7245C23.2107 23.1294 22.742 23.4504 22.2261 23.6693C21.7103 23.8882 21.1574 24.0005 20.5991 24H5.09912C4.54086 24.0005 3.98797 23.8882 3.4721 23.6693C2.95622 23.4504 2.4875 23.1294 2.09275 22.7245C1.69799 22.3196 1.38496 21.8389 1.17156 21.3098C0.958167 20.7807 0.848597 20.2136 0.849123 19.641V4.35898C0.848597 3.7864 0.958167 3.21933 1.17156 2.69023C1.38496 2.16113 1.69799 1.68039 2.09275 1.27551C2.4875 0.870637 2.95622 0.549578 3.4721 0.33071C3.98797 0.111842 4.54086 -0.000537727 5.09912 1.93444e-06Z" fill="#470137"/>
<path d="M13.469 6.30779L10.469 11.3847L13.669 16.7693C13.6901 16.8065 13.6972 16.8502 13.689 16.8924C13.679 16.9334 13.639 16.9027 13.579 16.9129H11.289C11.129 16.9129 11.019 16.9027 10.949 16.8001C10.739 16.3693 10.519 15.9488 10.309 15.518C10.099 15.0873 9.869 14.6668 9.629 14.2257C9.389 13.7847 9.149 13.3437 8.909 12.8924H8.889C8.679 13.3334 8.449 13.7745 8.219 14.2155C7.989 14.6565 7.759 15.0975 7.539 15.5283C7.319 15.9591 7.079 16.4001 6.849 16.8206C6.809 16.9232 6.729 16.9334 6.619 16.9334H4.419C4.379 16.9334 4.349 16.9539 4.349 16.9027C4.34454 16.8835 4.34401 16.8635 4.34746 16.8441C4.3509 16.8247 4.35824 16.8062 4.369 16.7898L7.479 11.5591L4.449 6.29753C4.419 6.25651 4.409 6.21548 4.429 6.19497C4.4412 6.18035 4.45666 6.16898 4.47408 6.16183C4.4915 6.15468 4.51034 6.15198 4.529 6.15394H6.799C6.8463 6.155 6.89331 6.16188 6.939 6.17445C6.97906 6.19657 7.01336 6.22822 7.039 6.26676C7.229 6.70779 7.449 7.14881 7.679 7.58984C7.909 8.03086 8.149 8.46163 8.399 8.8924C8.649 9.32317 8.859 9.75394 9.069 10.195H9.089C9.299 9.74369 9.519 9.30266 9.739 8.87189C9.959 8.44112 10.189 8.01035 10.419 7.57958C10.649 7.14881 10.869 6.70779 11.089 6.28728C11.0966 6.2469 11.1178 6.21057 11.149 6.18471C11.1886 6.1623 11.2347 6.15503 11.279 6.1642H13.389C13.4008 6.16148 13.4131 6.16118 13.425 6.16332C13.4369 6.16545 13.4483 6.16999 13.4585 6.17666C13.4688 6.18333 13.4776 6.19201 13.4845 6.20219C13.4915 6.21237 13.4964 6.22386 13.499 6.23599C13.509 6.24625 13.489 6.28728 13.469 6.30779Z" fill="#FF61F6"/>
<path d="M18.0888 17.1282C17.3475 17.1407 16.613 16.983 15.9388 16.6667C15.3116 16.3659 14.7859 15.8803 14.4288 15.2718C14.0588 14.6462 13.8788 13.8667 13.8788 12.9334C13.8687 12.1744 14.0587 11.4266 14.4288 10.7693C14.8083 10.1012 15.3579 9.5516 16.0188 9.17952C16.7188 8.77952 17.5588 8.58465 18.5488 8.58465C18.6189 8.58384 18.6891 8.58726 18.7588 8.59491C18.8488 8.60517 18.9488 8.60517 19.0688 8.61542V5.3744C19.0688 5.3026 19.0988 5.26158 19.1688 5.26158H21.1988C21.2212 5.25847 21.244 5.26413 21.2625 5.27743C21.281 5.29073 21.294 5.31071 21.2988 5.33337V15.118C21.2988 15.3026 21.3088 15.5077 21.3188 15.7334C21.3288 15.959 21.3488 16.1539 21.3588 16.3282C21.3609 16.3629 21.3524 16.3973 21.3345 16.4268C21.3166 16.4562 21.2901 16.4791 21.2588 16.4923C20.735 16.7181 20.1883 16.8832 19.6288 16.9847C19.1206 17.0787 18.6052 17.1267 18.0888 17.1282ZM19.0688 15.077V10.5641C18.9798 10.5421 18.8896 10.525 18.7988 10.5129C18.6888 10.5026 18.5788 10.4923 18.4688 10.4923C18.0768 10.4878 17.6894 10.5792 17.3388 10.759C16.9971 10.9336 16.7045 11.1949 16.4888 11.518C16.2688 11.8462 16.1588 12.2872 16.1588 12.8205C16.1501 13.1805 16.2078 13.5389 16.3288 13.877C16.4255 14.1503 16.5791 14.3988 16.7788 14.6052C16.9716 14.7939 17.2043 14.9343 17.4588 15.0154C17.7267 15.1054 18.0069 15.1504 18.2888 15.1488C18.4388 15.1488 18.5788 15.1385 18.7088 15.1282C18.831 15.1372 18.9536 15.1197 19.0688 15.077Z" fill="#FF61F6"/>
</g>
<defs>
<clipPath id="clip0_222_1170">
<rect width="24" height="24" fill="white" transform="translate(0.849121)"/>
</clipPath>
</defs>
</svg>
