<svg width="633" height="401" viewBox="0 0 633 401" fill="none" xmlns="http://www.w3.org/2000/svg">
<rect width="633" height="401" rx="18" fill="#F2F1F6"/>
<circle cx="316.5" cy="237.5" r="141" stroke="black" stroke-width="13"/>
<path d="M306.636 36.024V38.712H313.212V36.024H306.636ZM305.34 20.688V40.464H308.124V23.4H311.628V40.128H314.556V20.688H305.34ZM297.852 22.944V27.528C297.852 31.056 297.42 35.76 293.028 38.928C293.604 39.336 294.708 40.488 295.068 41.088C299.892 37.584 300.756 31.656 300.756 27.576V22.944H297.852ZM295.884 21.672V24.336H304.116V21.672H295.884ZM293.388 28.128V30.864H304.716V28.128H293.388ZM300.036 31.512L298.284 33.144C299.508 34.56 301.86 37.536 302.988 39.312L304.932 36.888C304.188 36 301.02 32.376 300.036 31.512ZM295.62 18.624C295.14 21.384 294.228 24.144 292.932 25.872C293.556 26.256 294.732 27.072 295.236 27.528C296.604 25.512 297.756 22.344 298.38 19.176L295.62 18.624ZM321.78 20.736L321.876 23.856C322.428 23.76 323.172 23.712 323.82 23.664C325.116 23.568 328.428 23.448 329.652 23.4C328.476 24.456 325.956 26.472 324.612 27.576C323.22 28.752 320.316 31.2 318.612 32.544L320.796 34.8C323.364 31.896 325.74 29.928 329.436 29.928C332.244 29.928 334.404 31.392 334.404 33.576C334.404 36.144 332.34 37.68 328.284 37.68C326.82 37.68 325.836 37.08 325.836 36.192C325.836 35.568 326.436 35.016 327.324 35.016C328.74 35.016 329.652 36.216 329.7 37.944L332.508 37.584C332.436 34.944 330.612 32.736 327.324 32.736C324.78 32.736 323.004 34.512 323.004 36.456C323.004 38.88 325.524 40.392 328.86 40.392C334.668 40.392 337.548 37.392 337.548 33.6C337.548 30.12 334.452 27.576 330.372 27.576C329.628 27.576 328.908 27.624 328.092 27.84C329.628 26.64 332.148 24.528 333.444 23.616C333.972 23.208 334.548 22.872 335.1 22.512L333.564 20.352C333.276 20.448 332.724 20.544 331.716 20.616C330.348 20.736 325.236 20.856 323.94 20.856C323.268 20.856 322.452 20.808 321.78 20.736Z" fill="black"/>
<circle cx="316.5" cy="101.5" r="48.5" fill="#F0C65A"/>
<path d="M293.76 91.988V101.84H295.272V93.452H301.668V101.828H303.252V91.988H293.76ZM294.48 99.38V100.868H302.652V99.38H294.48ZM306.372 92.48V94.16C306.708 94.136 307.356 94.112 307.86 94.112H313.26V100.04C313.26 100.484 313.248 100.916 313.236 101.276H314.976C314.952 100.904 314.916 100.28 314.916 99.86V93.644C314.916 93.284 314.94 92.816 314.952 92.528C314.748 92.54 314.256 92.564 313.908 92.564H307.86C307.44 92.564 306.828 92.528 306.372 92.48ZM306.228 98.996V100.724C306.624 100.676 307.296 100.652 307.764 100.652H314.208V99.068H307.716C307.176 99.068 306.636 99.032 306.228 98.996ZM319.908 91.604L319.356 93.032C321.048 93.248 324.444 94.004 325.848 94.52L326.46 93.032C324.948 92.504 321.492 91.796 319.908 91.604ZM319.368 94.832L318.804 96.284C320.592 96.572 323.676 97.268 325.044 97.796L325.632 96.296C324.132 95.78 321.084 95.12 319.368 94.832ZM318.744 98.276L318.144 99.776C320.064 100.076 323.868 100.904 325.488 101.564L326.148 100.064C324.492 99.452 320.808 98.588 318.744 98.276ZM334.812 93.368L335.94 92.552C335.52 92.108 334.62 91.34 334.2 91.004L333.096 91.772C333.564 92.132 334.392 92.936 334.812 93.368ZM331.548 92.084L329.988 92.696C330.228 92.996 330.516 93.452 330.696 93.74C331.188 94.604 331.632 95.696 332.112 96.812C332.724 98.252 333.348 100.28 333.72 101.792L335.376 101.372C334.98 100.016 334.044 97.46 333.48 96.152C333.048 95.144 332.508 93.956 332.016 93.032C331.884 92.804 331.644 92.312 331.548 92.084ZM328.956 95.6L329.652 97.136C331.14 96.464 334.74 94.316 336.684 94.316C337.584 94.316 338.112 94.82 338.112 95.42C338.112 96.284 337.452 96.776 336.552 96.776C336.036 96.776 335.436 96.608 334.896 96.38L334.848 97.88C335.304 98.048 336.048 98.216 336.708 98.216C338.544 98.216 339.696 97.16 339.696 95.48C339.696 94.088 338.568 92.96 336.72 92.96C334.788 92.96 332.328 94.364 330.144 95.216C329.94 95.3 329.424 95.492 328.956 95.6ZM286.524 112.736L287.532 113.564C287.652 113.48 287.796 113.348 288.048 113.216C289.404 112.532 291.12 111.236 292.116 109.94L291.204 108.608C290.388 109.772 289.212 110.72 288.228 111.14C288.228 110.408 288.228 105.836 288.228 104.876C288.228 104.336 288.312 103.856 288.312 103.832H286.536C286.536 103.856 286.62 104.324 286.62 104.864C286.62 105.836 286.62 111.224 286.62 111.86C286.62 112.184 286.584 112.508 286.524 112.736ZM280.968 112.568L282.432 113.54C283.464 112.628 284.208 111.44 284.58 110.096C284.892 108.884 284.928 106.352 284.928 104.924C284.928 104.432 285.012 103.892 285.012 103.844H283.248C283.32 104.144 283.368 104.456 283.368 104.948C283.368 106.388 283.356 108.668 283.008 109.688C282.684 110.72 282.036 111.824 280.968 112.568ZM293.592 107.444V109.34C294.048 109.304 294.852 109.268 295.524 109.268C296.94 109.268 300.888 109.268 301.98 109.268C302.484 109.268 303.096 109.328 303.384 109.34V107.444C303.06 107.468 302.532 107.528 301.968 107.528C300.9 107.528 296.94 107.528 295.524 107.528C294.9 107.528 294.036 107.48 293.592 107.444ZM310.524 112.736L311.532 113.564C311.652 113.48 311.796 113.348 312.048 113.216C313.404 112.532 315.12 111.236 316.116 109.94L315.204 108.608C314.388 109.772 313.212 110.72 312.228 111.14C312.228 110.408 312.228 105.836 312.228 104.876C312.228 104.336 312.312 103.856 312.312 103.832H310.536C310.536 103.856 310.62 104.324 310.62 104.864C310.62 105.836 310.62 111.224 310.62 111.86C310.62 112.184 310.584 112.508 310.524 112.736ZM304.968 112.568L306.432 113.54C307.464 112.628 308.208 111.44 308.58 110.096C308.892 108.884 308.928 106.352 308.928 104.924C308.928 104.432 309.012 103.892 309.012 103.844H307.248C307.32 104.144 307.368 104.456 307.368 104.948C307.368 106.388 307.356 108.668 307.008 109.688C306.684 110.72 306.036 111.824 304.968 112.568ZM322.332 103.376L320.748 103.244C320.712 103.856 320.556 104.588 320.316 105.236C319.812 106.556 318.888 107.852 317.352 109.268L318.636 110.228C319.044 109.7 319.38 109.268 319.74 108.908C320.196 108.476 320.952 108.08 321.612 108.08C322.116 108.08 322.596 108.332 322.596 109.1C322.608 109.748 322.584 110.768 322.536 111.332H323.976C323.964 110.576 323.928 109.268 323.928 108.62C323.928 107.504 323.172 106.916 322.176 106.916C321.768 106.916 321.132 107 320.808 107.144C321.144 106.664 321.492 105.98 321.744 105.392C322.08 104.528 322.236 103.82 322.332 103.376ZM317.808 104.492V105.884C318.468 105.944 319.344 105.968 319.836 105.968C321.3 105.968 323.712 105.86 325.404 105.62L325.416 104.228C323.676 104.54 321.504 104.624 319.92 104.624C319.308 104.624 318.42 104.576 317.808 104.492ZM327.312 107.9L326.724 106.496C326.268 106.724 325.848 106.916 325.38 107.12C324.66 107.456 323.904 107.744 322.8 108.32C321.36 109.04 319.644 110.024 319.644 111.692C319.644 113.24 321.048 113.708 322.92 113.708C324.06 113.708 325.524 113.6 326.328 113.492L326.376 111.944C325.32 112.16 323.976 112.292 322.956 112.292C321.792 112.292 321.216 112.112 321.216 111.452C321.216 110.792 321.804 110.276 322.896 109.712C324.024 109.136 325.104 108.704 325.884 108.404C326.292 108.248 326.94 108.008 327.312 107.9ZM335.568 111.512V112.856H338.856V111.512H335.568ZM334.92 103.844V113.732H336.312V105.2H338.064V113.564H339.528V103.844H334.92ZM331.176 104.972V107.264C331.176 109.028 330.96 111.38 328.764 112.964C329.052 113.168 329.604 113.744 329.784 114.044C332.196 112.292 332.628 109.328 332.628 107.288V104.972H331.176ZM330.192 104.336V105.668H334.308V104.336H330.192ZM328.944 107.564V108.932H334.608V107.564H328.944ZM332.268 109.256L331.392 110.072C332.004 110.78 333.18 112.268 333.744 113.156L334.716 111.944C334.344 111.5 332.76 109.688 332.268 109.256ZM330.06 102.812C329.82 104.192 329.364 105.572 328.716 106.436C329.028 106.628 329.616 107.036 329.868 107.264C330.552 106.256 331.128 104.672 331.44 103.088L330.06 102.812ZM343.14 103.868L343.188 105.428C343.464 105.38 343.836 105.356 344.16 105.332C344.808 105.284 346.464 105.224 347.076 105.2C346.488 105.728 345.228 106.736 344.556 107.288C343.86 107.876 342.408 109.1 341.556 109.772L342.648 110.9C343.932 109.448 345.12 108.464 346.968 108.464C348.372 108.464 349.452 109.196 349.452 110.288C349.452 111.572 348.42 112.34 346.392 112.34C345.66 112.34 345.168 112.04 345.168 111.596C345.168 111.284 345.468 111.008 345.912 111.008C346.62 111.008 347.076 111.608 347.1 112.472L348.504 112.292C348.468 110.972 347.556 109.868 345.912 109.868C344.64 109.868 343.752 110.756 343.752 111.728C343.752 112.94 345.012 113.696 346.68 113.696C349.584 113.696 351.024 112.196 351.024 110.3C351.024 108.56 349.476 107.288 347.436 107.288C347.064 107.288 346.704 107.312 346.296 107.42C347.064 106.82 348.324 105.764 348.972 105.308C349.236 105.104 349.524 104.936 349.8 104.756L349.032 103.676C348.888 103.724 348.612 103.772 348.108 103.808C347.424 103.868 344.868 103.928 344.22 103.928C343.884 103.928 343.476 103.904 343.14 103.868Z" fill="black"/>
<circle cx="440.5" cy="286.5" r="48.5" fill="#F0C65A"/>
<path d="M424.144 277.468V279.052H432.856V277.468H424.144ZM423.148 284.428V286.084H433.864V284.428H423.148ZM436.288 279.352V280.492H439.72V279.352H436.288ZM435.616 277.228V285.388L436.948 285.22V277.228H435.616ZM437.404 275.92V278.092H438.784V275.92H437.404ZM434.848 285.076L435.184 286.564C436.444 286.264 438.088 285.88 439.612 285.496L439.48 284.128C437.8 284.488 436.024 284.872 434.848 285.076ZM438.028 283.252C438.688 284.284 439.408 285.664 439.672 286.54L440.968 285.892C440.656 285.004 439.888 283.684 439.204 282.688L438.028 283.252ZM436.252 277.228V278.56H439.156V281.296H436.252V282.628H440.476V277.228H436.252ZM441.208 276.544V287.092H442.6V277.9H444.868V276.544H441.208ZM444.52 276.544V277.072C444.22 277.924 443.608 279.76 443.092 280.9C444.148 281.824 444.46 282.688 444.46 283.336C444.46 283.744 444.376 283.996 444.148 284.116C443.992 284.2 443.812 284.224 443.632 284.236C443.428 284.236 443.164 284.236 442.864 284.212C443.092 284.632 443.236 285.268 443.26 285.664C443.62 285.688 444.004 285.688 444.304 285.64C444.652 285.592 444.952 285.496 445.192 285.328C445.684 285.004 445.912 284.416 445.912 283.516C445.912 282.724 445.696 281.776 444.58 280.708C445.096 279.688 445.672 278.356 446.14 277.18L445.036 276.496L444.808 276.544H444.52ZM446.944 282.436L448.396 283.924C448.612 283.612 448.888 283.18 449.164 282.796C449.68 282.112 450.52 280.924 451 280.312C451.348 279.88 451.576 279.82 452.008 280.276C452.56 280.912 453.46 282.064 454.204 282.94C454.972 283.84 455.992 284.992 456.844 285.808L458.092 284.368C456.952 283.348 455.92 282.28 455.152 281.44C454.444 280.66 453.496 279.424 452.668 278.632C451.792 277.78 451.024 277.864 450.184 278.824C449.428 279.688 448.516 280.924 447.952 281.5C447.592 281.872 447.304 282.148 446.944 282.436ZM412.242 287.836V290.452H413.718V287.836H412.242ZM414.486 292.636V292.876C414.39 296.056 414.258 297.28 414.018 297.556C413.898 297.7 413.79 297.724 413.586 297.724C413.346 297.724 412.842 297.712 412.314 297.676C412.542 298.048 412.71 298.636 412.734 299.044C413.346 299.056 413.946 299.068 414.294 299.008C414.702 298.948 414.99 298.828 415.278 298.48C415.65 298.012 415.782 296.668 415.914 293.224C415.926 293.044 415.926 292.636 415.926 292.636H414.486ZM411.39 290.788C411.306 293.404 411.222 296.308 409.158 297.988C409.554 298.252 409.998 298.72 410.238 299.092C412.506 297.124 412.77 293.848 412.878 290.788H411.39ZM409.794 289.828V291.196H416.358V289.828H409.794ZM412.134 292.636V293.968H415.074V292.636H412.134ZM405.618 291.496V292.576H409.326V291.496H405.618ZM405.654 288.184V289.276H409.302V288.184H405.654ZM405.618 293.128V294.22H409.326V293.128H405.618ZM405.03 289.804V290.944H409.614V289.804H405.03ZM406.278 294.796V295.936H408.078V297.304H406.278V298.444H409.314V294.796H406.278ZM405.582 294.796V298.924H406.794V294.796H405.582ZM428.382 297.376L428.178 295.696C427.638 296.236 427.074 296.548 426.63 296.548C426.33 296.548 426.162 296.332 426.162 296.02C426.162 294.772 426.558 293.008 426.558 291.772C426.558 290.764 425.97 289.996 424.674 289.996C423.09 289.996 421.086 291.796 420.354 292.564L420.366 294.412C421.326 293.188 423.114 291.424 424.23 291.424C424.746 291.424 425.046 291.712 425.046 292.3C425.046 293.404 424.614 295.156 424.614 296.464C424.614 297.628 425.214 298.276 426.114 298.276C427.098 298.276 427.818 297.892 428.382 297.376ZM420.09 291.664L419.994 291.88L419.97 292.192C419.37 293.14 417.93 295.036 417.174 295.972L418.11 297.292C418.746 296.416 419.814 294.808 420.342 294.04L421.038 291.784C421.242 291.472 421.614 290.884 421.818 290.608L421.338 289.984C420.798 290.164 419.262 290.392 418.506 290.428C418.074 290.452 417.798 290.452 417.462 290.44L417.618 291.988C418.41 291.868 419.55 291.724 420.09 291.664ZM419.946 289.348C419.946 289.828 419.682 293.188 419.646 294.256C419.61 295.756 419.598 296.56 419.586 297.724C419.586 297.916 419.574 298.336 419.55 298.612H421.194C421.17 298.348 421.122 297.904 421.11 297.688C421.038 296.572 421.038 295.552 421.038 294.58C421.038 292.432 421.434 289.288 421.638 288.328L419.886 288.28C419.958 288.652 419.946 289.012 419.946 289.348ZM429.17 289.756L429.326 291.4C430.718 291.088 433.166 290.836 434.294 290.716C433.478 291.328 432.506 292.684 432.506 294.412C432.506 297.016 434.882 298.372 437.402 298.528L437.954 296.884C435.926 296.776 434.078 296.068 434.078 294.088C434.078 292.672 435.17 291.112 436.61 290.728C437.258 290.584 438.29 290.572 438.938 290.572L438.926 289.024C438.074 289.06 436.766 289.132 435.53 289.24C433.322 289.432 431.354 289.6 430.346 289.696C430.118 289.72 429.638 289.744 429.17 289.756ZM446.27 289.036C447.362 290.272 449.426 291.604 451.154 292.348C451.406 291.928 451.73 291.424 452.066 291.064C450.194 290.464 448.274 289.276 446.93 287.776H445.466C444.518 289.012 442.574 290.428 440.594 291.196C440.882 291.496 441.254 292.036 441.422 292.372C443.33 291.556 445.238 290.236 446.27 289.036ZM443.618 292.852V293.884H448.91V292.852H443.618ZM445.538 290.188V291.808H447.026V290.188H445.538ZM441.482 297.64L441.674 298.972C443.054 298.84 444.95 298.672 446.726 298.492L446.714 297.208C444.83 297.388 442.826 297.544 441.482 297.64ZM446.69 295.228L445.466 295.564C446.534 297.532 448.298 298.648 450.962 299.092C451.154 298.708 451.526 298.132 451.838 297.832C449.33 297.544 447.542 296.692 446.69 295.228ZM450.23 294.988C449.51 295.552 448.322 296.284 447.434 296.704L448.298 297.484C449.186 297.1 450.338 296.464 451.274 295.852L450.23 294.988ZM443.618 291.112V292.228H448.418V294.544H443.618V295.66H449.87V291.112H443.618ZM442.73 291.112V297.964L444.158 297.808V291.112H442.73ZM452.666 294.64L454.106 296.14C454.322 295.816 454.598 295.336 454.862 294.952C455.39 294.268 456.254 293.08 456.734 292.492C457.082 292.048 457.322 291.976 457.73 292.456C458.294 293.08 459.194 294.22 459.938 295.096C460.706 295.996 461.702 297.196 462.554 298.012L463.814 296.596C462.674 295.564 461.642 294.484 460.874 293.644C460.178 292.888 459.218 291.652 458.402 290.848C457.526 289.996 456.746 290.08 455.906 291.028C455.162 291.892 454.238 293.14 453.674 293.704C453.314 294.1 453.026 294.364 452.666 294.64ZM460.826 289.732L459.782 290.176C460.226 290.8 460.526 291.376 460.874 292.132L461.954 291.664C461.69 291.112 461.162 290.248 460.826 289.732ZM462.434 289.084L461.402 289.552C461.846 290.152 462.17 290.704 462.554 291.46L463.598 290.956C463.334 290.416 462.782 289.564 462.434 289.084ZM466.958 288.868L467.006 290.428C467.282 290.38 467.654 290.356 467.978 290.332C468.626 290.284 470.282 290.224 470.894 290.2C470.306 290.728 469.046 291.736 468.374 292.288C467.678 292.876 466.226 294.1 465.374 294.772L466.466 295.9C467.75 294.448 468.938 293.464 470.786 293.464C472.19 293.464 473.27 294.196 473.27 295.288C473.27 296.572 472.238 297.34 470.21 297.34C469.478 297.34 468.986 297.04 468.986 296.596C468.986 296.284 469.286 296.008 469.73 296.008C470.438 296.008 470.894 296.608 470.918 297.472L472.322 297.292C472.286 295.972 471.374 294.868 469.73 294.868C468.458 294.868 467.57 295.756 467.57 296.728C467.57 297.94 468.83 298.696 470.498 298.696C473.402 298.696 474.842 297.196 474.842 295.3C474.842 293.56 473.294 292.288 471.254 292.288C470.882 292.288 470.522 292.312 470.114 292.42C470.882 291.82 472.142 290.764 472.79 290.308C473.054 290.104 473.342 289.936 473.618 289.756L472.85 288.676C472.706 288.724 472.43 288.772 471.926 288.808C471.242 288.868 468.686 288.928 468.038 288.928C467.702 288.928 467.294 288.904 466.958 288.868Z" fill="black"/>
<path d="M502.304 274.72C501.2 278.128 499.328 281.536 497.312 283.744C497.816 284.44 498.608 286.048 498.872 286.72C501.32 283.96 503.6 279.616 505.016 275.536L502.304 274.72ZM500.36 281.344V297.136H503.096V278.632L503.072 278.608L500.36 281.344ZM510.584 274.744V296.992H513.392V274.744H510.584ZM504.488 278.896V281.632H520.04V278.896H504.488ZM507.416 290.536V293.104H516.608V290.536H507.416ZM514.4 280.432L512.36 281.032C513.68 285.76 515.912 290.68 518.552 293.56C519.056 292.792 520.016 291.808 520.688 291.304C518.096 288.856 515.672 284.512 514.4 280.432ZM509.696 280.216C508.424 284.488 505.952 289 503.216 291.448C503.84 291.928 504.8 292.936 505.256 293.632C508.112 290.704 510.392 285.76 511.76 280.792L509.696 280.216ZM534.968 286.12H541.088V288.352H534.968V286.12ZM532.616 284.056V290.416H543.56V284.056H532.616ZM537.848 277.144C539.024 279.064 541.16 281.32 543.2 282.568C543.56 281.776 544.16 280.744 544.664 280.072C542.528 279.064 540.416 276.856 539 274.624H536.504C535.496 276.688 533.312 279.256 531.08 280.528C531.536 281.128 532.112 282.136 532.4 282.832C534.656 281.44 536.744 279.064 537.848 277.144ZM536.72 281.536V286.192C536.72 289.312 536.12 292.888 531.08 295.192C531.656 295.672 532.472 296.608 532.832 297.208C538.544 294.448 539.264 290.08 539.264 286.216V281.536H536.72ZM539.504 289.168L537.32 289.72C538.304 292.984 540.032 295.72 542.72 297.136C543.104 296.44 543.944 295.384 544.544 294.88C542.096 293.848 540.344 291.688 539.504 289.168ZM534.272 280.552V282.76H541.664V280.552H534.272ZM524.216 279.16V281.32H531.248V279.16H524.216ZM524.216 282.784V284.968H531.248V282.784H524.216ZM522.872 286.432V288.664H531.08V286.432H522.872ZM526.856 276.856V287.68H529.136V276.856H526.856ZM527.672 289.768C528.128 290.728 528.584 292.024 528.728 292.888L529.928 292.432C529.736 291.616 529.28 290.344 528.776 289.384L527.672 289.768ZM526.112 290.08C526.472 291.328 526.784 292.96 526.832 294.016L528.128 293.728C528.056 292.696 527.72 291.112 527.336 289.864L526.112 290.08ZM524.456 290.224C524.648 291.664 524.72 293.464 524.648 294.688L525.944 294.52C526.016 293.344 525.92 291.496 525.68 290.08L524.456 290.224ZM522.68 289.72C522.584 291.76 522.296 293.8 521.456 295.024L522.896 295.816C523.88 294.472 524.144 292.24 524.264 290.008L522.68 289.72ZM522.872 275.512V287.968H525.224V277.84H531.728V275.512H522.872ZM529.832 286.432V286.84C529.64 292.288 529.424 294.208 529.088 294.688C528.896 294.904 528.728 294.976 528.44 294.976C528.152 294.976 527.624 294.976 526.976 294.904C527.312 295.504 527.528 296.44 527.576 297.136C528.416 297.16 529.208 297.136 529.712 297.04C530.288 296.968 530.72 296.752 531.128 296.224C531.704 295.48 531.944 293.224 532.184 287.392C532.208 287.08 532.208 286.432 532.208 286.432H529.832ZM560.672 275.656H557.192C557.24 275.968 557.336 276.784 557.408 277.744C557.504 279.016 557.504 283.624 557.504 285.112L560.504 286.12C560.48 284.2 560.432 279.304 560.504 277.72C560.528 277.336 560.6 276.064 560.672 275.656ZM547.088 278.656L547.16 281.536C550.784 281.344 555.56 281.152 559.928 281.152C563.456 281.152 565.904 281.224 567.392 281.296L567.44 278.464C566.096 278.44 562.448 278.464 560 278.464C557 278.464 550.664 278.656 547.088 278.656ZM560.096 285.76L557.84 285.136C558.608 287.992 557.624 288.952 556.496 288.952C555.512 288.952 554.624 288.256 554.624 287.176C554.624 285.904 555.56 285.256 556.496 285.256C557.552 285.256 558.392 286 558.392 287.56C558.392 291.76 555.2 293.368 551.12 294.256L553.664 296.8C559.52 295.144 561.368 291.184 561.368 288.04C561.368 285.064 559.712 282.736 556.544 282.736C553.952 282.736 551.744 284.512 551.744 287.224C551.744 290.152 554.048 291.616 555.896 291.616C558.656 291.616 560.096 289.672 560.096 285.76ZM574.28 276.736L574.376 279.856C574.928 279.76 575.672 279.712 576.32 279.664C577.616 279.568 580.928 279.448 582.152 279.4C580.976 280.456 578.456 282.472 577.112 283.576C575.72 284.752 572.816 287.2 571.112 288.544L573.296 290.8C575.864 287.896 578.24 285.928 581.936 285.928C584.744 285.928 586.904 287.392 586.904 289.576C586.904 292.144 584.84 293.68 580.784 293.68C579.32 293.68 578.336 293.08 578.336 292.192C578.336 291.568 578.936 291.016 579.824 291.016C581.24 291.016 582.152 292.216 582.2 293.944L585.008 293.584C584.936 290.944 583.112 288.736 579.824 288.736C577.28 288.736 575.504 290.512 575.504 292.456C575.504 294.88 578.024 296.392 581.36 296.392C587.168 296.392 590.048 293.392 590.048 289.6C590.048 286.12 586.952 283.576 582.872 283.576C582.128 283.576 581.408 283.624 580.592 283.84C582.128 282.64 584.648 280.528 585.944 279.616C586.472 279.208 587.048 278.872 587.6 278.512L586.064 276.352C585.776 276.448 585.224 276.544 584.216 276.616C582.848 276.736 577.736 276.856 576.44 276.856C575.768 276.856 574.952 276.808 574.28 276.736Z" fill="black"/>
<path d="M46.216 274.792V288.544H49.216V274.792H46.216ZM54.736 274.792V288.544H57.76V274.792H54.736ZM41.056 286.648V289.456H63.016V286.648H41.056ZM41.872 279.256V282.016H62.272V279.256H41.872ZM53.656 291.712C55.792 293.368 58.648 295.72 59.992 297.16L62.848 295.48C61.312 294.016 58.336 291.784 56.296 290.272L53.656 291.712ZM47.272 290.368C46.024 291.976 43.456 293.968 41.2 295.144C41.872 295.648 42.952 296.56 43.552 297.16C45.88 295.816 48.52 293.632 50.32 291.544L47.272 290.368ZM65.296 277.528V280.216H86.704V277.528H65.296ZM71.776 286.168V288.568H82.216V286.168H71.776ZM69.64 282.112V297.136H72.496V284.632H81.784V282.112H69.64ZM81.208 282.112V293.992C81.208 294.328 81.064 294.448 80.68 294.448C80.272 294.448 78.856 294.472 77.608 294.4C77.992 295.144 78.376 296.368 78.496 297.16C80.44 297.16 81.808 297.136 82.768 296.704C83.752 296.248 84.016 295.456 84.016 294.04V282.112H81.208ZM72.736 274.6C71.536 279.28 68.848 284.44 64.576 287.248C65.152 287.8 66.064 288.832 66.472 289.48C71.152 286.216 74.032 280.696 75.712 275.272L72.736 274.6ZM71.776 290.128V292.528H82.216V290.128H71.776ZM103.672 275.656H100.192C100.24 275.968 100.336 276.784 100.408 277.744C100.504 279.016 100.504 283.624 100.504 285.112L103.504 286.12C103.48 284.2 103.432 279.304 103.504 277.72C103.528 277.336 103.6 276.064 103.672 275.656ZM90.088 278.656L90.16 281.536C93.784 281.344 98.56 281.152 102.928 281.152C106.456 281.152 108.904 281.224 110.392 281.296L110.44 278.464C109.096 278.44 105.448 278.464 103 278.464C100 278.464 93.664 278.656 90.088 278.656ZM103.096 285.76L100.84 285.136C101.608 287.992 100.624 288.952 99.496 288.952C98.512 288.952 97.624 288.256 97.624 287.176C97.624 285.904 98.56 285.256 99.496 285.256C100.552 285.256 101.392 286 101.392 287.56C101.392 291.76 98.2 293.368 94.12 294.256L96.664 296.8C102.52 295.144 104.368 291.184 104.368 288.04C104.368 285.064 102.712 282.736 99.544 282.736C96.952 282.736 94.744 284.512 94.744 287.224C94.744 290.152 97.048 291.616 98.896 291.616C101.656 291.616 103.096 289.672 103.096 285.76ZM117.28 276.736L117.376 279.856C117.928 279.76 118.672 279.712 119.32 279.664C120.616 279.568 123.928 279.448 125.152 279.4C123.976 280.456 121.456 282.472 120.112 283.576C118.72 284.752 115.816 287.2 114.112 288.544L116.296 290.8C118.864 287.896 121.24 285.928 124.936 285.928C127.744 285.928 129.904 287.392 129.904 289.576C129.904 292.144 127.84 293.68 123.784 293.68C122.32 293.68 121.336 293.08 121.336 292.192C121.336 291.568 121.936 291.016 122.824 291.016C124.24 291.016 125.152 292.216 125.2 293.944L128.008 293.584C127.936 290.944 126.112 288.736 122.824 288.736C120.28 288.736 118.504 290.512 118.504 292.456C118.504 294.88 121.024 296.392 124.36 296.392C130.168 296.392 133.048 293.392 133.048 289.6C133.048 286.12 129.952 283.576 125.872 283.576C125.128 283.576 124.408 283.624 123.592 283.84C125.128 282.64 127.648 280.528 128.944 279.616C129.472 279.208 130.048 278.872 130.6 278.512L129.064 276.352C128.776 276.448 128.224 276.544 127.216 276.616C125.848 276.736 120.736 276.856 119.44 276.856C118.768 276.856 117.952 276.808 117.28 276.736Z" fill="black"/>
<circle cx="192.5" cy="286.5" r="48.5" fill="#F0C65A"/>
<path d="M170.144 277.468V279.052H178.856V277.468H170.144ZM169.148 284.428V286.084H179.864V284.428H169.148ZM182.288 279.352V280.492H185.72V279.352H182.288ZM181.616 277.228V285.388L182.948 285.22V277.228H181.616ZM183.404 275.92V278.092H184.784V275.92H183.404ZM180.848 285.076L181.184 286.564C182.444 286.264 184.088 285.88 185.612 285.496L185.48 284.128C183.8 284.488 182.024 284.872 180.848 285.076ZM184.028 283.252C184.688 284.284 185.408 285.664 185.672 286.54L186.968 285.892C186.656 285.004 185.888 283.684 185.204 282.688L184.028 283.252ZM182.252 277.228V278.56H185.156V281.296H182.252V282.628H186.476V277.228H182.252ZM187.208 276.544V287.092H188.6V277.9H190.868V276.544H187.208ZM190.52 276.544V277.072C190.22 277.924 189.608 279.76 189.092 280.9C190.148 281.824 190.46 282.688 190.46 283.336C190.46 283.744 190.376 283.996 190.148 284.116C189.992 284.2 189.812 284.224 189.632 284.236C189.428 284.236 189.164 284.236 188.864 284.212C189.092 284.632 189.236 285.268 189.26 285.664C189.62 285.688 190.004 285.688 190.304 285.64C190.652 285.592 190.952 285.496 191.192 285.328C191.684 285.004 191.912 284.416 191.912 283.516C191.912 282.724 191.696 281.776 190.58 280.708C191.096 279.688 191.672 278.356 192.14 277.18L191.036 276.496L190.808 276.544H190.52ZM193.328 277.78L193.484 279.424C194.864 279.124 197.324 278.86 198.44 278.74C197.636 279.352 196.664 280.72 196.664 282.436C196.664 285.04 199.04 286.396 201.548 286.552L202.112 284.908C200.084 284.812 198.236 284.092 198.236 282.124C198.236 280.696 199.328 279.136 200.768 278.752C201.416 278.608 202.448 278.596 203.096 278.596L203.084 277.048C202.232 277.084 200.924 277.168 199.676 277.264C197.48 277.456 195.5 277.624 194.504 277.72C194.276 277.744 193.796 277.768 193.328 277.78ZM201.38 279.772L200.492 280.144C200.864 280.672 201.116 281.152 201.428 281.8L202.328 281.404C202.1 280.924 201.668 280.192 201.38 279.772ZM202.712 279.22L201.848 279.616C202.232 280.144 202.508 280.6 202.832 281.248L203.732 280.816C203.48 280.348 203.024 279.64 202.712 279.22ZM211.592 277.78L209.948 277.732C209.828 278.992 209.564 280.372 209.216 281.5C208.712 283.12 208.256 283.888 207.74 283.888C207.284 283.888 206.804 283.3 206.804 282.088C206.804 280.576 208.196 278.5 210.74 278.5C212.816 278.5 213.992 279.844 213.992 281.728C213.992 283.492 212.792 284.584 211.268 284.956C210.944 285.028 210.608 285.088 210.14 285.148L211.052 286.564C214.076 286.096 215.624 284.308 215.624 281.788C215.624 279.16 213.74 277.096 210.776 277.096C207.668 277.096 205.256 279.472 205.256 282.232C205.256 284.26 206.36 285.736 207.704 285.736C209.012 285.736 210.044 284.248 210.764 281.824C211.184 280.408 211.424 279.004 211.592 277.78ZM153.152 287.86C152.6 289.564 151.664 291.268 150.656 292.372C150.908 292.72 151.304 293.524 151.436 293.86C152.66 292.48 153.8 290.308 154.508 288.268L153.152 287.86ZM152.18 291.172V299.068H153.548V289.816L153.536 289.804L152.18 291.172ZM157.292 287.872V298.996H158.696V287.872H157.292ZM154.244 289.948V291.316H162.02V289.948H154.244ZM155.708 295.768V297.052H160.304V295.768H155.708ZM159.2 290.716L158.18 291.016C158.84 293.38 159.956 295.84 161.276 297.28C161.528 296.896 162.008 296.404 162.344 296.152C161.048 294.928 159.836 292.756 159.2 290.716ZM156.848 290.608C156.212 292.744 154.976 295 153.608 296.224C153.92 296.464 154.4 296.968 154.628 297.316C156.056 295.852 157.196 293.38 157.88 290.896L156.848 290.608ZM169.484 293.56H172.544V294.676H169.484V293.56ZM168.308 292.528V295.708H173.78V292.528H168.308ZM170.924 289.072C171.512 290.032 172.58 291.16 173.6 291.784C173.78 291.388 174.08 290.872 174.332 290.536C173.264 290.032 172.208 288.928 171.5 287.812H170.252C169.748 288.844 168.656 290.128 167.54 290.764C167.768 291.064 168.056 291.568 168.2 291.916C169.328 291.22 170.372 290.032 170.924 289.072ZM170.36 291.268V293.596C170.36 295.156 170.06 296.944 167.54 298.096C167.828 298.336 168.236 298.804 168.416 299.104C171.272 297.724 171.632 295.54 171.632 293.608V291.268H170.36ZM171.752 295.084L170.66 295.36C171.152 296.992 172.016 298.36 173.36 299.068C173.552 298.72 173.972 298.192 174.272 297.94C173.048 297.424 172.172 296.344 171.752 295.084ZM169.136 290.776V291.88H172.832V290.776H169.136ZM164.108 290.08V291.16H167.624V290.08H164.108ZM164.108 291.892V292.984H167.624V291.892H164.108ZM163.436 293.716V294.832H167.54V293.716H163.436ZM165.428 288.928V294.34H166.568V288.928H165.428ZM165.836 295.384C166.064 295.864 166.292 296.512 166.364 296.944L166.964 296.716C166.868 296.308 166.64 295.672 166.388 295.192L165.836 295.384ZM165.056 295.54C165.236 296.164 165.392 296.98 165.416 297.508L166.064 297.364C166.028 296.848 165.86 296.056 165.668 295.432L165.056 295.54ZM164.228 295.612C164.324 296.332 164.36 297.232 164.324 297.844L164.972 297.76C165.008 297.172 164.96 296.248 164.84 295.54L164.228 295.612ZM163.34 295.36C163.292 296.38 163.148 297.4 162.728 298.012L163.448 298.408C163.94 297.736 164.072 296.62 164.132 295.504L163.34 295.36ZM163.436 288.256V294.484H164.612V289.42H167.864V288.256H163.436ZM166.916 293.716V293.92C166.82 296.644 166.712 297.604 166.544 297.844C166.448 297.952 166.364 297.988 166.22 297.988C166.076 297.988 165.812 297.988 165.488 297.952C165.656 298.252 165.764 298.72 165.788 299.068C166.208 299.08 166.604 299.068 166.856 299.02C167.144 298.984 167.36 298.876 167.564 298.612C167.852 298.24 167.972 297.112 168.092 294.196C168.104 294.04 168.104 293.716 168.104 293.716H166.916ZM180.332 288.376L178.748 288.244C178.712 288.856 178.556 289.588 178.316 290.236C177.812 291.556 176.888 292.852 175.352 294.268L176.636 295.228C177.044 294.7 177.38 294.268 177.74 293.908C178.196 293.476 178.952 293.08 179.612 293.08C180.116 293.08 180.596 293.332 180.596 294.1C180.608 294.748 180.584 295.768 180.536 296.332H181.976C181.964 295.576 181.928 294.268 181.928 293.62C181.928 292.504 181.172 291.916 180.176 291.916C179.768 291.916 179.132 292 178.808 292.144C179.144 291.664 179.492 290.98 179.744 290.392C180.08 289.528 180.236 288.82 180.332 288.376ZM175.808 289.492V290.884C176.468 290.944 177.344 290.968 177.836 290.968C179.3 290.968 181.712 290.86 183.404 290.62L183.416 289.228C181.676 289.54 179.504 289.624 177.92 289.624C177.308 289.624 176.42 289.576 175.808 289.492ZM185.312 292.9L184.724 291.496C184.268 291.724 183.848 291.916 183.38 292.12C182.66 292.456 181.904 292.744 180.8 293.32C179.36 294.04 177.644 295.024 177.644 296.692C177.644 298.24 179.048 298.708 180.92 298.708C182.06 298.708 183.524 298.6 184.328 298.492L184.376 296.944C183.32 297.16 181.976 297.292 180.956 297.292C179.792 297.292 179.216 297.112 179.216 296.452C179.216 295.792 179.804 295.276 180.896 294.712C182.024 294.136 183.104 293.704 183.884 293.404C184.292 293.248 184.94 293.008 185.312 292.9ZM189.608 287.896V294.772H191.108V287.896H189.608ZM193.868 287.896V294.772H195.38V287.896H193.868ZM187.028 293.824V295.228H198.008V293.824H187.028ZM187.436 290.128V291.508H197.636V290.128H187.436ZM193.328 296.356C194.396 297.184 195.824 298.36 196.496 299.08L197.924 298.24C197.156 297.508 195.668 296.392 194.648 295.636L193.328 296.356ZM190.136 295.684C189.512 296.488 188.228 297.484 187.1 298.072C187.436 298.324 187.976 298.78 188.276 299.08C189.44 298.408 190.76 297.316 191.66 296.272L190.136 295.684ZM199.148 289.264V290.608H209.852V289.264H199.148ZM202.388 293.584V294.784H207.608V293.584H202.388ZM201.32 291.556V299.068H202.748V292.816H207.392V291.556H201.32ZM207.104 291.556V297.496C207.104 297.664 207.032 297.724 206.84 297.724C206.636 297.724 205.928 297.736 205.304 297.7C205.496 298.072 205.688 298.684 205.748 299.08C206.72 299.08 207.404 299.068 207.884 298.852C208.376 298.624 208.508 298.228 208.508 297.52V291.556H207.104ZM202.868 287.8C202.268 290.14 200.924 292.72 198.788 294.124C199.076 294.4 199.532 294.916 199.736 295.24C202.076 293.608 203.516 290.848 204.356 288.136L202.868 287.8ZM202.388 295.564V296.764H207.608V295.564H202.388ZM218.336 288.328H216.596C216.62 288.484 216.668 288.892 216.704 289.372C216.752 290.008 216.752 292.312 216.752 293.056L218.252 293.56C218.24 292.6 218.216 290.152 218.252 289.36C218.264 289.168 218.3 288.532 218.336 288.328ZM211.544 289.828L211.58 291.268C213.392 291.172 215.78 291.076 217.964 291.076C219.728 291.076 220.952 291.112 221.696 291.148L221.72 289.732C221.048 289.72 219.224 289.732 218 289.732C216.5 289.732 213.332 289.828 211.544 289.828ZM218.048 293.38L216.92 293.068C217.304 294.496 216.812 294.976 216.248 294.976C215.756 294.976 215.312 294.628 215.312 294.088C215.312 293.452 215.78 293.128 216.248 293.128C216.776 293.128 217.196 293.5 217.196 294.28C217.196 296.38 215.6 297.184 213.56 297.628L214.832 298.9C217.76 298.072 218.684 296.092 218.684 294.52C218.684 293.032 217.856 291.868 216.272 291.868C214.976 291.868 213.872 292.756 213.872 294.112C213.872 295.576 215.024 296.308 215.948 296.308C217.328 296.308 218.048 295.336 218.048 293.38ZM225.14 288.868L225.188 290.428C225.464 290.38 225.836 290.356 226.16 290.332C226.808 290.284 228.464 290.224 229.076 290.2C228.488 290.728 227.228 291.736 226.556 292.288C225.86 292.876 224.408 294.1 223.556 294.772L224.648 295.9C225.932 294.448 227.12 293.464 228.968 293.464C230.372 293.464 231.452 294.196 231.452 295.288C231.452 296.572 230.42 297.34 228.392 297.34C227.66 297.34 227.168 297.04 227.168 296.596C227.168 296.284 227.468 296.008 227.912 296.008C228.62 296.008 229.076 296.608 229.1 297.472L230.504 297.292C230.468 295.972 229.556 294.868 227.912 294.868C226.64 294.868 225.752 295.756 225.752 296.728C225.752 297.94 227.012 298.696 228.68 298.696C231.584 298.696 233.024 297.196 233.024 295.3C233.024 293.56 231.476 292.288 229.436 292.288C229.064 292.288 228.704 292.312 228.296 292.42C229.064 291.82 230.324 290.764 230.972 290.308C231.236 290.104 231.524 289.936 231.8 289.756L231.032 288.676C230.888 288.724 230.612 288.772 230.108 288.808C229.424 288.868 226.868 288.928 226.22 288.928C225.884 288.928 225.476 288.904 225.14 288.868Z" fill="black"/>
</svg>
