<svg width="383" height="240" viewBox="0 0 383 240" fill="none" xmlns="http://www.w3.org/2000/svg">
<rect width="383" height="240" rx="18" fill="#F2F1F6"/>
<path d="M30.896 19.2L30.096 18.432C29.872 18.496 29.296 18.544 28.992 18.544C28.032 18.544 20.56 18.544 19.792 18.544C19.2 18.544 18.544 18.48 17.984 18.4V19.84C18.608 19.792 19.2 19.76 19.792 19.76C20.56 19.76 27.792 19.76 28.912 19.76C28.4 20.752 26.896 22.48 25.408 23.328L26.48 24.176C28.304 22.912 29.824 20.848 30.464 19.76C30.576 19.584 30.768 19.344 30.896 19.2ZM24.496 21.296H23.056C23.12 21.728 23.12 22.08 23.12 22.464C23.12 25.136 22.768 27.408 20.304 28.928C19.856 29.232 19.296 29.504 18.864 29.648L20.032 30.608C24.112 28.56 24.496 25.632 24.496 21.296ZM34.9914 18.288L34.0634 19.264C35.2634 20.048 37.2474 21.776 38.0634 22.608L39.0554 21.584C38.1754 20.704 36.1114 19.04 34.9914 18.288ZM33.6154 29.008L34.4474 30.32C37.1194 29.824 39.1354 28.832 40.7514 27.824C43.1674 26.304 45.0234 24.128 46.1114 22.144L45.3434 20.768C44.4154 22.752 42.4794 25.12 39.9994 26.672C38.4794 27.616 36.3994 28.592 33.6154 29.008ZM53.9514 17.632L52.3994 17.344C52.3674 17.76 52.2874 18.208 52.1594 18.608C51.9834 19.232 51.6954 20.048 51.2634 20.848C50.7034 21.824 49.5674 23.472 48.4154 24.288L49.6794 25.056C50.6714 24.208 51.8554 22.592 52.4794 21.344C52.9274 20.464 53.2954 19.488 53.5354 18.768C53.6634 18.432 53.8074 18 53.9514 17.632ZM51.9354 20.384L51.7754 21.632C52.9434 21.632 59.6794 21.632 60.4954 21.632C60.8634 21.632 61.4874 21.632 61.9834 21.664V20.288C61.5194 20.368 60.8794 20.384 60.4954 20.384C59.6954 20.384 52.9434 20.384 51.9354 20.384ZM57.8074 21.056H56.4634C56.3674 25.488 54.5594 27.728 52.9114 28.96C52.5594 29.248 52.0794 29.536 51.6154 29.712L52.9754 30.624C55.8394 28.816 57.6634 25.984 57.8074 21.056ZM64.9754 23.072V24.64C65.4874 24.608 66.3354 24.576 67.2154 24.576C68.3994 24.576 74.7834 24.576 75.9994 24.576C76.7034 24.576 77.3754 24.624 77.7114 24.64V23.072C77.3434 23.104 76.7834 23.168 75.9834 23.168C74.7994 23.168 68.3834 23.168 67.2154 23.168C66.3034 23.168 65.4714 23.12 64.9754 23.072ZM84.7354 28.592C84.7354 29.184 84.7194 29.984 84.6394 30.496H86.1914C86.1274 29.968 86.0954 29.104 86.0954 28.592C86.0954 27.84 86.0794 21.776 86.0794 19.296C86.0794 18.8 86.1274 18.112 86.1914 17.616H84.6234C84.7034 18.128 84.7354 18.832 84.7354 19.296C84.7354 20.624 84.7354 27.696 84.7354 28.592ZM85.7914 21.824V23.232C87.5354 23.776 90.5274 24.912 92.3514 25.888L92.9114 24.528C91.1354 23.664 87.9034 22.432 85.7914 21.824ZM103.359 22.224C102.415 22.224 101.647 22.992 101.647 23.92C101.647 24.864 102.415 25.632 103.359 25.632C104.287 25.632 105.055 24.864 105.055 23.92C105.055 22.992 104.287 22.224 103.359 22.224ZM112.735 24.224L113.359 25.472C115.935 24.672 118.479 23.504 120.239 22.416C122.111 21.248 123.791 19.904 125.167 18.48L124.095 17.472C122.991 18.816 121.391 20.192 119.711 21.248C117.935 22.352 115.503 23.488 112.735 24.224ZM119.455 21.904V28.8C119.455 29.392 119.407 30.192 119.359 30.496H120.943C120.863 30.192 120.831 29.392 120.831 28.8V21.488L119.455 21.904ZM130.991 18.288L130.063 19.264C131.263 20.048 133.247 21.776 134.063 22.608L135.055 21.584C134.175 20.704 132.111 19.04 130.991 18.288ZM129.615 29.008L130.447 30.32C133.119 29.824 135.135 28.832 136.751 27.824C139.167 26.304 141.023 24.128 142.111 22.144L141.343 20.768C140.415 22.752 138.479 25.12 135.999 26.672C134.479 27.616 132.399 28.592 129.615 29.008ZM149.999 22.672L149.119 23.568C151.103 24.8 153.839 26.768 155.311 28.112L156.255 26.992C154.671 25.712 152.047 23.872 149.999 22.672ZM157.311 19.76L156.255 19.12C155.999 19.216 155.647 19.264 155.215 19.264H150.127L149.615 20.416H155.535C155.167 21.904 154.159 23.936 152.927 25.408C151.487 27.12 149.311 28.816 146.335 29.712L147.471 30.72C150.511 29.6 152.591 27.888 154.047 26.096C155.455 24.368 156.463 22.24 156.943 20.608C157.023 20.352 157.183 19.984 157.311 19.76ZM151.919 17.44L150.463 16.976C150.367 17.392 150.111 17.968 149.951 18.24C149.215 19.712 147.567 22.112 144.831 23.824L145.887 24.64C148.447 22.88 150.255 20.464 151.199 18.704C151.359 18.4 151.647 17.856 151.919 17.44ZM171.007 17.472L170.159 17.84C170.591 18.448 171.119 19.408 171.439 20.048L172.303 19.664C171.983 19.008 171.407 18.048 171.007 17.472ZM172.751 16.832L171.919 17.2C172.367 17.792 172.895 18.704 173.231 19.392L174.095 19.008C173.791 18.416 173.183 17.424 172.751 16.832ZM163.823 18H162.335C162.399 18.384 162.431 18.912 162.431 19.296C162.431 20.16 162.431 26.56 162.431 28.096C162.431 29.408 163.119 29.968 164.335 30.192C165.007 30.304 165.951 30.336 166.911 30.336C168.655 30.336 171.055 30.224 172.447 30.016V28.544C171.103 28.896 168.655 29.056 166.959 29.056C166.175 29.056 165.359 29.024 164.847 28.928C164.079 28.784 163.727 28.576 163.727 27.744C163.727 26.592 163.727 20.16 163.727 19.296C163.727 18.848 163.775 18.384 163.823 18ZM163.135 23.056L163.151 24.384C165.119 23.888 168.287 22.96 170.271 22.16C170.751 21.968 171.327 21.712 171.791 21.52L171.231 20.24C170.767 20.528 170.303 20.752 169.823 20.976C167.967 21.76 165.071 22.64 163.135 23.056ZM187.135 22.4L186.159 21.92C186.031 22 185.631 22.032 185.375 22.032C184.479 22.032 181.119 22.032 180.511 22.032C180.111 22.032 179.615 22 179.231 21.952V23.296C179.631 23.264 180.063 23.248 180.527 23.248C180.959 23.248 184.607 23.248 185.599 23.248C185.551 24.272 184.959 28.192 184.783 29.056H186.127C186.319 27.936 186.895 24.096 187.039 22.896C187.039 22.752 187.087 22.544 187.135 22.4ZM177.727 28.544V29.872C178.207 29.856 178.575 29.84 179.055 29.84C179.855 29.84 186.927 29.84 187.823 29.84C188.175 29.84 188.751 29.84 189.055 29.856V28.56C188.719 28.592 188.143 28.624 187.791 28.624C186.943 28.624 179.919 28.624 179.055 28.624C178.575 28.624 178.111 28.592 177.727 28.544ZM192.975 23.072V24.64C193.487 24.608 194.335 24.576 195.215 24.576C196.399 24.576 202.783 24.576 203.999 24.576C204.703 24.576 205.375 24.624 205.711 24.64V23.072C205.343 23.104 204.783 23.168 203.983 23.168C202.799 23.168 196.383 23.168 195.215 23.168C194.303 23.168 193.471 23.12 192.975 23.072ZM214.719 17.36L213.407 17.248C213.359 18 213.135 18.96 212.783 19.84C212.239 21.2 211.167 23.056 208.863 25.264L209.967 26.08C210.495 25.424 210.943 24.848 211.407 24.4C212.143 23.744 213.151 23.232 214.175 23.232C215.007 23.232 215.647 23.664 215.663 24.592C215.679 25.424 215.663 27.072 215.599 27.92H216.831C216.815 26.928 216.783 25.088 216.783 24.256C216.783 22.96 215.823 22.224 214.591 22.224C213.887 22.224 212.975 22.448 212.351 22.816C212.991 21.984 213.583 20.912 213.983 19.936C214.399 18.864 214.575 17.984 214.719 17.36ZM209.231 19.088V20.288C210.127 20.352 211.183 20.384 211.871 20.384C213.903 20.384 216.879 20.24 219.119 19.904V18.72C216.863 19.12 214.095 19.248 211.935 19.248C211.199 19.248 210.095 19.2 209.231 19.088ZM221.455 22.944L220.943 21.76C220.495 21.984 220.095 22.16 219.615 22.384C218.559 22.88 217.263 23.376 215.743 24.16C213.839 25.136 211.855 26.336 211.855 28.288C211.855 30.224 213.695 30.72 215.967 30.72C217.359 30.72 219.135 30.592 220.351 30.448L220.399 29.152C218.991 29.408 217.263 29.552 216.015 29.552C214.367 29.552 213.135 29.36 213.135 28.112C213.135 27.008 214.255 26.144 215.839 25.312C217.391 24.512 218.911 23.904 220.047 23.456C220.479 23.296 221.055 23.072 221.455 22.944ZM227.487 22.88H224.015V24H226.351V28.544H227.487V22.88ZM227.487 28.064H226.447C225.599 28.752 224.607 29.472 223.807 29.968L224.399 31.152C225.311 30.464 226.175 29.76 226.991 29.072C227.983 30.336 229.439 30.896 231.535 30.976C233.327 31.056 236.751 31.024 238.527 30.944C238.591 30.592 238.767 30.032 238.911 29.76C236.991 29.888 233.295 29.936 231.535 29.856C229.647 29.792 228.271 29.248 227.487 28.064ZM224.287 17.68C225.295 18.432 226.463 19.568 226.959 20.352L227.871 19.52C227.343 18.736 226.143 17.648 225.119 16.928L224.287 17.68ZM230.687 19.248C232.239 19.84 234.223 20.752 235.231 21.376L236.047 20.624C234.975 19.984 232.959 19.104 231.455 18.576L230.687 19.248ZM229.167 20.592V28.88H230.303V21.52H237.439V20.592H229.167ZM236.863 20.592V27.664C236.863 27.872 236.815 27.936 236.607 27.936C236.399 27.936 235.727 27.952 234.975 27.92C235.119 28.192 235.263 28.608 235.311 28.912C236.383 28.912 237.055 28.912 237.471 28.72C237.903 28.544 238.015 28.272 238.015 27.68V20.592H236.863ZM229.167 17.232V18.192H237.151V17.232H229.167ZM229.791 22.928V23.824H237.327V22.928H229.791ZM229.791 25.28V26.208H237.327V25.28H229.791ZM232.991 20.976V28.816H234.079V20.976H232.991ZM236.751 17.232V17.456C236.031 18.208 234.543 19.136 233.231 19.648C233.407 19.824 233.711 20.144 233.871 20.352C235.327 19.744 236.943 18.752 238.015 17.744L237.279 17.168L237.023 17.232H236.751ZM244.799 17.536H243.167C243.263 18 243.311 18.56 243.311 19.152C243.311 20.832 243.151 24.88 243.151 27.248C243.151 29.872 244.735 30.816 247.039 30.816C250.543 30.816 252.623 28.816 253.711 27.296L252.815 26.208C251.663 27.872 249.999 29.504 247.071 29.504C245.551 29.504 244.447 28.896 244.447 27.136C244.447 24.752 244.575 20.96 244.639 19.152C244.671 18.624 244.719 18.064 244.799 17.536ZM256.219 19.376L256.363 20.784C258.107 20.416 262.171 20.016 263.899 19.84C262.427 20.704 260.907 22.736 260.907 25.232C260.907 28.816 264.267 30.384 267.243 30.496L267.691 29.184C265.099 29.072 262.171 28.08 262.171 24.96C262.171 23.072 263.563 20.624 265.851 19.888C266.667 19.664 268.059 19.632 268.987 19.648L268.971 18.368C267.899 18.4 266.411 18.496 264.667 18.64C261.707 18.896 258.699 19.184 257.659 19.296C257.339 19.328 256.827 19.36 256.219 19.376ZM278.571 20.128H283.867V21.44H278.571V20.128ZM278.571 17.968H283.867V19.264H278.571V17.968ZM277.419 17.056V22.352H285.067V17.056H277.419ZM276.427 23.456V24.464H285.835V23.456H276.427ZM276.059 25.84V26.896H286.123V25.84H276.059ZM282.523 24.336V29.936C282.523 30.144 282.459 30.208 282.203 30.224C281.963 30.24 281.163 30.24 280.251 30.208C280.411 30.528 280.603 30.976 280.651 31.296C281.851 31.296 282.619 31.296 283.099 31.104C283.579 30.928 283.723 30.608 283.723 29.968V24.336H282.523ZM277.451 27.712C278.171 28.416 279.035 29.408 279.419 30.048L280.331 29.376C279.915 28.752 279.035 27.808 278.299 27.136L277.451 27.712ZM275.179 20.128C274.219 21.792 272.667 23.44 271.211 24.496C271.419 24.768 271.755 25.408 271.851 25.648C273.435 24.4 275.147 22.464 276.235 20.56L275.179 20.128ZM274.875 16.608C274.187 17.744 272.747 19.072 271.467 19.904C271.675 20.144 271.979 20.608 272.107 20.88C273.531 19.936 275.067 18.432 276.027 17.056L274.875 16.608ZM273.739 22.96V31.28H274.907V21.856L274.859 21.824L273.739 22.96ZM292.219 17.456L291.899 18.688C293.131 19.008 296.587 19.712 298.123 19.92L298.427 18.704C297.003 18.56 293.595 17.904 292.219 17.456ZM291.867 20.384L290.523 20.208C290.427 21.872 290.027 25.232 289.707 26.688L290.907 26.976C291.003 26.72 291.147 26.464 291.387 26.192C292.507 24.832 294.235 24.048 296.331 24.048C297.963 24.048 299.163 24.96 299.163 26.224C299.163 28.416 296.699 29.872 291.643 29.264L292.027 30.56C297.963 31.056 300.507 29.12 300.507 26.272C300.507 24.384 298.875 22.912 296.427 22.912C294.507 22.912 292.747 23.536 291.211 24.88C291.371 23.84 291.659 21.472 291.867 20.384ZM318.459 28.784L318.251 27.424C317.435 28.272 316.587 28.736 315.835 28.736C315.259 28.736 314.987 28.304 314.987 27.76C314.987 26.144 315.595 23.392 315.595 21.792C315.595 20.496 314.859 19.648 313.355 19.648C311.387 19.648 308.731 21.952 307.739 23.04L307.723 24.624C309.227 22.8 311.547 20.816 313.051 20.816C313.867 20.816 314.331 21.216 314.331 22.144C314.331 23.696 313.739 26.32 313.739 28.112C313.739 29.424 314.443 30.128 315.515 30.128C316.603 30.128 317.595 29.648 318.459 28.784ZM307.707 21.136L307.579 21.568L307.515 22.4C306.891 23.456 304.731 26.384 303.739 27.632L304.539 28.72C305.547 27.328 307.035 25.168 307.771 24.032L308.251 21.84C308.523 21.392 308.955 20.704 309.227 20.288L308.763 19.744C308.027 19.984 306.027 20.224 305.179 20.272C304.779 20.304 304.475 20.304 304.123 20.288L304.267 21.616C305.451 21.424 307.179 21.216 307.707 21.136ZM307.547 18.496C307.547 19.088 307.163 24.16 307.131 25.568C307.115 27.328 307.099 28.128 307.099 29.68C307.099 29.936 307.083 30.32 307.051 30.624H308.427C308.411 30.32 308.363 29.92 308.347 29.648C308.283 28.224 308.283 27.248 308.283 25.792C308.283 22.976 308.763 18.4 308.987 17.36L307.483 17.312C307.563 17.712 307.547 18.128 307.547 18.496ZM325.947 17.424L324.427 17.296C324.459 17.632 324.427 18.176 324.363 18.624C324.251 19.456 323.835 21.472 323.451 22.944C322.843 25.2 321.723 28.448 320.763 30.112L322.155 30.576C323.003 28.832 324.075 25.52 324.651 23.248C325.099 21.648 325.435 19.84 325.675 18.688C325.739 18.384 325.851 17.776 325.947 17.424ZM322.411 20.096C321.819 20.096 321.243 20.064 320.491 19.968L320.523 21.216C321.115 21.264 321.675 21.28 322.379 21.28C324.107 21.28 326.523 21.008 328.507 20.56V19.312C326.523 19.808 324.171 20.096 322.411 20.096ZM327.467 22.288V23.488C328.443 23.376 329.435 23.312 330.427 23.312C331.371 23.312 332.299 23.408 333.131 23.504L333.163 22.288C332.299 22.192 331.323 22.16 330.395 22.16C329.371 22.16 328.299 22.208 327.467 22.288ZM327.787 26.176L326.603 26.064C326.459 26.736 326.363 27.344 326.363 27.952C326.363 29.536 327.739 30.304 330.251 30.304C331.419 30.304 332.491 30.208 333.355 30.08L333.403 28.8C332.411 28.992 331.323 29.104 330.267 29.104C327.995 29.104 327.563 28.368 327.563 27.616C327.563 27.2 327.659 26.704 327.787 26.176ZM341.371 24.816V25.904H350.011V24.816H341.371ZM346.635 25.44L345.755 25.776C346.635 27.52 348.203 29.44 349.563 30.464C349.755 30.16 350.139 29.76 350.411 29.536C349.035 28.704 347.467 26.992 346.635 25.44ZM343.051 20.832H348.395V22.496H343.051V20.832ZM343.051 18.224H348.395V19.856H343.051V18.224ZM341.963 17.232V23.488H349.531V17.232H341.963ZM344.811 25.36C343.995 27.072 342.395 28.816 340.843 29.648C341.099 29.872 341.467 30.288 341.643 30.56C343.227 29.584 344.843 27.648 345.723 25.696L344.811 25.36ZM345.163 17.744V23.008H345.115V31.28H346.283V23.008H346.219V17.744H345.163ZM336.203 21.408V22.368H340.747V21.408H336.203ZM336.267 17.136V18.096H340.683V17.136H336.267ZM336.203 23.552V24.512H340.747V23.552H336.203ZM335.483 19.232V20.224H341.163V19.232H335.483ZM336.731 25.712V26.704H339.707V29.376H336.731V30.384H340.747V25.712H336.731ZM336.187 25.712V31.12H337.211V25.712H336.187ZM353.627 20.16H356.747V21.376H353.627V20.16ZM353.627 18.112H356.747V19.312H353.627V18.112ZM352.555 17.248V22.272H357.867V17.248H352.555ZM351.595 23.456V24.384H358.811V23.456H351.595ZM358.715 17.36V18.256H366.011V17.36H358.715ZM354.795 23.744V29.2L355.819 29.84V23.744H354.795ZM355.339 26.112V27.024H358.539V26.112H355.339ZM361.883 17.584C361.739 18.272 361.467 19.264 361.211 19.92L362.107 20.128C362.395 19.536 362.715 18.624 363.019 17.808L361.883 17.584ZM360.427 22.432H364.251V23.632H360.427V22.432ZM360.427 24.464H364.251V25.696H360.427V24.464ZM360.427 20.384H364.251V21.568H360.427V20.384ZM359.339 19.504V26.576H365.371V19.504H359.339ZM360.667 26.864C360.059 27.6 359.019 28.32 358.027 28.784C358.251 28.96 358.651 29.344 358.827 29.52C359.819 28.976 360.987 28.064 361.691 27.168L360.667 26.864ZM352.715 25.264C352.635 27.232 352.379 29.392 351.403 30.56C351.659 30.736 352.011 31.088 352.171 31.328C353.307 29.968 353.627 27.568 353.723 25.264H352.715ZM353.467 26.832L352.715 27.104C354.043 30.416 356.619 30.944 360.699 30.944H365.899C365.963 30.624 366.155 30.16 366.331 29.904C365.387 29.936 361.419 29.936 360.699 29.936C357.099 29.936 354.603 29.584 353.467 26.832ZM362.907 27.296C363.771 27.888 364.843 28.816 365.355 29.456L366.235 28.896C365.707 28.288 364.651 27.392 363.723 26.832L362.907 27.296Z" fill="black"/>
<path d="M149.776 180.748L150.412 181.276C150.508 181.216 150.628 181.108 150.832 181.012C152.224 180.316 153.88 179.092 154.924 177.688L154.348 176.86C153.436 178.216 151.96 179.308 150.844 179.812C150.844 179.452 150.844 173.644 150.844 172.9C150.844 172.444 150.892 172.096 150.904 172H149.8C149.8 172.096 149.86 172.432 149.86 172.888C149.86 173.644 149.86 179.524 149.86 180.076C149.86 180.316 149.824 180.568 149.776 180.748ZM144.28 180.7L145.192 181.3C146.2 180.46 146.968 179.296 147.328 178.012C147.652 176.812 147.688 174.232 147.688 172.9C147.688 172.552 147.736 172.18 147.748 172.048H146.644C146.704 172.3 146.728 172.564 146.728 172.912C146.728 174.256 146.728 176.644 146.368 177.748C146.008 178.912 145.3 179.98 144.28 180.7ZM156.712 175.804V176.98C157.096 176.956 157.732 176.932 158.392 176.932C159.28 176.932 164.068 176.932 164.98 176.932C165.508 176.932 166.012 176.968 166.264 176.98V175.804C165.988 175.828 165.568 175.876 164.968 175.876C164.08 175.876 159.268 175.876 158.392 175.876C157.708 175.876 157.084 175.84 156.712 175.804ZM173.776 180.748L174.412 181.276C174.508 181.216 174.628 181.108 174.832 181.012C176.224 180.316 177.88 179.092 178.924 177.688L178.348 176.86C177.436 178.216 175.96 179.308 174.844 179.812C174.844 179.452 174.844 173.644 174.844 172.9C174.844 172.444 174.892 172.096 174.904 172H173.8C173.8 172.096 173.86 172.432 173.86 172.888C173.86 173.644 173.86 179.524 173.86 180.076C173.86 180.316 173.824 180.568 173.776 180.748ZM168.28 180.7L169.192 181.3C170.2 180.46 170.968 179.296 171.328 178.012C171.652 176.812 171.688 174.232 171.688 172.9C171.688 172.552 171.736 172.18 171.748 172.048H170.644C170.704 172.3 170.728 172.564 170.728 172.912C170.728 174.256 170.728 176.644 170.368 177.748C170.008 178.912 169.3 179.98 168.28 180.7ZM185.02 171.52L184.036 171.436C184 172 183.832 172.72 183.568 173.38C183.16 174.4 182.356 175.792 180.628 177.448L181.456 178.06C181.852 177.568 182.188 177.136 182.536 176.8C183.088 176.308 183.844 175.924 184.612 175.924C185.236 175.924 185.716 176.248 185.728 176.944C185.74 177.568 185.728 178.804 185.68 179.44H186.604C186.592 178.696 186.568 177.316 186.568 176.692C186.568 175.72 185.848 175.168 184.924 175.168C184.396 175.168 183.712 175.336 183.244 175.612C183.724 174.988 184.168 174.184 184.468 173.452C184.78 172.648 184.912 171.988 185.02 171.52ZM180.904 172.816V173.716C181.576 173.764 182.368 173.788 182.884 173.788C184.408 173.788 186.64 173.68 188.32 173.428V172.54C186.628 172.84 184.552 172.936 182.932 172.936C182.38 172.936 181.552 172.9 180.904 172.816ZM190.072 175.708L189.688 174.82C189.352 174.988 189.052 175.12 188.692 175.288C187.9 175.66 186.928 176.032 185.788 176.62C184.36 177.352 182.872 178.252 182.872 179.716C182.872 181.168 184.252 181.54 185.956 181.54C187 181.54 188.332 181.444 189.244 181.336L189.28 180.364C188.224 180.556 186.928 180.664 185.992 180.664C184.756 180.664 183.832 180.52 183.832 179.584C183.832 178.756 184.672 178.108 185.86 177.484C187.024 176.884 188.164 176.428 189.016 176.092C189.34 175.972 189.772 175.804 190.072 175.708ZM192.196 175.528V176.404H202.804V175.528H192.196ZM198.796 173.8V180.808C198.796 181.012 198.712 181.084 198.472 181.096C198.232 181.096 197.392 181.108 196.516 181.072C196.648 181.336 196.804 181.72 196.84 181.972C197.992 181.972 198.712 181.972 199.132 181.816C199.564 181.684 199.72 181.408 199.72 180.808V173.8H198.796ZM193.66 177.472C194.428 178.252 195.256 179.32 195.616 180.04L196.372 179.512C196.012 178.804 195.148 177.76 194.368 177.028L193.66 177.472ZM196.996 170.92V172.864H197.944V170.92H196.996ZM192.472 172.276V174.808H193.384V173.14H201.532V174.808H202.492V172.276H192.472ZM207.508 171.592L207.268 172.516C208.192 172.756 210.784 173.284 211.936 173.44L212.164 172.528C211.096 172.42 208.54 171.928 207.508 171.592ZM207.244 173.788L206.236 173.656C206.164 174.904 205.864 177.424 205.624 178.516L206.524 178.732C206.596 178.54 206.704 178.348 206.884 178.144C207.724 177.124 209.02 176.536 210.592 176.536C211.816 176.536 212.716 177.22 212.716 178.168C212.716 179.812 210.868 180.904 207.076 180.448L207.364 181.42C211.816 181.792 213.724 180.34 213.724 178.204C213.724 176.788 212.5 175.684 210.664 175.684C209.224 175.684 207.904 176.152 206.752 177.16C206.872 176.38 207.088 174.604 207.244 173.788ZM216.652 173.44L216.724 174.34C217.168 174.352 217.684 174.364 218.128 174.364C219.592 174.376 221.164 174.112 222.34 173.788L222.316 172.9C220.936 173.356 219.424 173.512 218.128 173.512C217.612 173.512 217.096 173.488 216.652 173.44ZM220.912 171.484L219.856 171.376C219.82 172.216 219.556 173.272 219.292 174.028C218.8 175.444 217.684 177.58 216.616 178.828L217.54 179.308C218.536 177.964 219.64 175.78 220.216 174.052C220.504 173.2 220.756 172.072 220.912 171.484ZM223.744 175.192H222.796C222.844 176.512 222.976 178.66 222.976 179.572C222.976 180.22 222.64 180.748 221.644 180.748C220.708 180.748 220.24 180.364 220.24 179.812C220.24 179.26 220.84 178.852 221.728 178.852C223.492 178.852 224.872 179.92 225.796 180.76L226.3 179.944C225.316 179.092 223.768 178.084 221.752 178.084C220.408 178.084 219.364 178.78 219.364 179.884C219.364 181.084 220.432 181.612 221.752 181.612C223.24 181.612 223.852 180.832 223.852 179.872C223.852 179.08 223.744 177.256 223.72 176.476C223.708 176.044 223.708 175.684 223.744 175.192ZM226.144 175.504L226.684 174.712C226.108 174.28 224.752 173.5 223.876 173.128L223.396 173.848C224.188 174.22 225.496 174.952 226.144 175.504ZM230.176 172.636L229.012 172.612C229.084 172.888 229.084 173.404 229.084 173.68C229.084 174.376 229.108 175.84 229.216 176.872C229.552 179.98 230.632 181.108 231.772 181.108C232.588 181.108 233.308 180.412 234.04 178.384L233.284 177.532C232.972 178.732 232.408 179.968 231.796 179.968C230.932 179.968 230.356 178.636 230.152 176.632C230.068 175.648 230.056 174.544 230.068 173.8C230.08 173.488 230.116 172.912 230.176 172.636ZM236.416 172.96L235.492 173.284C236.632 174.688 237.364 177.16 237.568 179.32L238.54 178.936C238.36 176.908 237.496 174.352 236.416 172.96ZM154.42 186.424H153.364C153.4 186.616 153.424 187.036 153.424 187.264C153.424 187.756 153.376 189.712 153.376 191.092C153.376 192.424 153.436 194.092 153.436 194.788C153.436 195.184 153.28 195.376 153.004 195.376C152.536 195.376 151.696 194.896 151.696 194.356C151.696 193.744 152.62 192.94 153.796 192.484C154.816 192.076 155.8 191.848 156.88 191.848C158.008 191.848 158.932 192.388 158.932 193.408C158.932 194.524 157.972 195.088 156.928 195.292C156.472 195.388 155.968 195.376 155.512 195.376L155.848 196.336C156.268 196.312 156.808 196.288 157.336 196.168C158.992 195.784 159.904 194.86 159.904 193.408C159.904 191.968 158.644 191.02 156.88 191.02C155.932 191.02 154.732 191.236 153.664 191.656C152.176 192.22 150.748 193.336 150.748 194.392C150.748 195.472 152.308 196.384 153.244 196.384C153.904 196.384 154.312 196.024 154.312 194.92C154.312 194.164 154.252 192.292 154.252 191.044C154.252 189.796 154.312 187.96 154.348 187.252C154.36 186.964 154.384 186.64 154.42 186.424ZM158.152 187.756L157.708 188.476C158.476 188.884 159.82 189.712 160.408 190.264L160.888 189.496C160.312 189.016 159.004 188.2 158.152 187.756ZM150.952 188.572L150.976 189.496C151.372 189.532 151.828 189.556 152.5 189.556C153.58 189.556 155.548 189.292 156.784 188.992L156.76 188.056C155.572 188.416 153.664 188.668 152.476 188.668C152.044 188.668 151.612 188.656 150.952 188.572ZM166.012 188.044C165.4 188.98 164.236 190.024 162.568 190.768C162.772 190.9 163.048 191.2 163.18 191.416C164.944 190.54 166.156 189.4 166.984 188.236L166.012 188.044ZM165.88 188.944L165.232 189.664H170.056V188.944H165.88ZM169.804 188.944V189.088C168.436 191.2 165.004 192.652 161.92 193.216C162.088 193.42 162.28 193.78 162.364 194.008C165.592 193.324 169.132 191.8 170.74 189.28L170.14 188.908L169.972 188.944H169.804ZM165.532 189.508L164.74 189.868C166.348 191.944 169.252 193.228 172.48 193.732C172.612 193.468 172.852 193.084 173.056 192.88C169.84 192.472 166.936 191.308 165.532 189.508ZM164.188 193.264V196.948H165.076V194.032H169.936V196.936H170.86V193.264H164.188ZM164.632 195.784V196.552H170.392V195.784H164.632ZM167.008 185.932V187.492H167.932V185.932H167.008ZM162.412 187.012V189.28H163.3V187.84H171.652V189.28H172.564V187.012H162.412ZM179.776 187.504C179.908 187.876 180.076 188.428 180.34 189.112C180.736 190.204 181.396 191.392 181.9 192.16C181.468 192.112 180.58 192.04 179.908 191.98L179.836 192.772C180.7 192.832 182.164 192.964 182.74 193.108L183.22 192.424C183.04 192.232 182.86 192.028 182.704 191.788C182.188 191.092 181.576 189.976 181.204 188.944C180.928 188.164 180.616 187.132 180.508 186.436L179.476 186.556C179.596 186.88 179.704 187.24 179.776 187.504ZM175.384 188.44L175.408 189.388C177.532 189.568 179.44 189.556 180.964 189.376C181.84 189.268 182.98 189.076 183.832 188.836L183.724 187.888C182.788 188.212 181.6 188.428 180.652 188.536C179.284 188.68 177.388 188.668 175.384 188.44ZM177.244 192.256L176.308 192.04C175.96 192.748 175.72 193.372 175.72 194.044C175.72 195.676 177.16 196.492 179.44 196.504C180.784 196.516 181.792 196.384 182.548 196.252L182.584 195.292C181.756 195.472 180.712 195.592 179.5 195.592C177.712 195.568 176.668 195.076 176.668 193.924C176.668 193.36 176.884 192.844 177.244 192.256ZM192.064 187.096L190.996 186.664C190.852 187.024 190.696 187.312 190.564 187.6C189.904 188.752 187.276 193.672 186.4 196.096L187.432 196.456C187.6 195.868 188.104 194.44 188.476 193.732C188.932 192.784 189.844 191.8 190.804 191.8C191.344 191.8 191.656 192.124 191.68 192.64C191.716 193.3 191.704 194.224 191.74 194.932C191.776 195.64 192.196 196.444 193.48 196.444C195.22 196.444 196.228 195.1 196.864 193.168L196.06 192.52C195.76 193.804 194.968 195.46 193.624 195.46C193.108 195.46 192.7 195.196 192.664 194.596C192.616 194.008 192.64 193.096 192.616 192.388C192.58 191.44 192.004 190.924 191.2 190.924C190.624 190.924 190 191.152 189.424 191.668C190.036 190.504 191.14 188.512 191.68 187.684C191.812 187.456 191.956 187.24 192.064 187.096ZM202.588 186.688L201.472 186.568C201.472 187.492 201.316 188.572 201.088 189.532C200.764 190.996 199.804 194.2 198.436 196.036L199.42 196.42C200.776 194.236 201.628 191.248 202.036 189.556C202.204 188.812 202.36 187.828 202.444 187.396C202.492 187.168 202.54 186.904 202.588 186.688ZM206.716 188.068L205.84 188.464C206.68 189.46 207.628 191.548 207.976 192.772L208.912 192.328C208.504 191.224 207.46 189.04 206.716 188.068ZM198.268 189.316L198.364 190.36C198.676 190.312 199.168 190.252 199.444 190.216C200.176 190.144 202.432 189.868 203.236 189.868C204.004 189.868 204.508 190.072 204.508 191.176C204.508 192.472 204.316 194.032 203.932 194.848C203.692 195.364 203.332 195.46 202.888 195.46C202.552 195.46 201.916 195.376 201.412 195.22L201.58 196.216C201.952 196.312 202.528 196.396 202.984 196.396C203.764 196.396 204.364 196.192 204.736 195.388C205.24 194.392 205.432 192.484 205.432 191.056C205.432 189.436 204.556 189.028 203.488 189.028C202.672 189.028 200.236 189.292 199.336 189.316C198.952 189.328 198.64 189.34 198.268 189.316ZM206.848 186.328L206.2 186.604C206.536 187.06 206.944 187.78 207.184 188.272L207.832 187.984C207.58 187.492 207.148 186.76 206.848 186.328ZM208.168 185.848L207.532 186.124C207.88 186.568 208.276 187.252 208.528 187.78L209.188 187.492C208.948 187.048 208.492 186.292 208.168 185.848ZM212.176 187.636L211.012 187.612C211.084 187.888 211.084 188.404 211.084 188.68C211.084 189.376 211.108 190.84 211.216 191.872C211.552 194.98 212.632 196.108 213.772 196.108C214.588 196.108 215.308 195.412 216.04 193.384L215.284 192.532C214.972 193.732 214.408 194.968 213.796 194.968C212.932 194.968 212.356 193.636 212.152 191.632C212.068 190.648 212.056 189.544 212.068 188.8C212.08 188.488 212.116 187.912 212.176 187.636ZM218.416 187.96L217.492 188.284C218.632 189.688 219.364 192.16 219.568 194.32L220.54 193.936C220.36 191.908 219.496 189.352 218.416 187.96ZM224.356 187.168L224.38 188.152C224.644 188.116 224.908 188.104 225.184 188.08C225.808 188.044 228.208 187.948 228.844 187.912C228.244 188.452 226.732 189.712 226.06 190.264C225.376 190.852 223.828 192.148 222.832 192.964L223.528 193.66C225.04 192.112 226.12 191.272 228.112 191.272C229.684 191.272 230.812 192.148 230.812 193.336C230.812 194.836 229.528 195.676 227.488 195.676C226.54 195.676 225.88 195.328 225.88 194.74C225.88 194.32 226.3 193.984 226.852 193.984C227.812 193.984 228.4 194.716 228.472 195.736L229.336 195.592C229.252 194.38 228.448 193.252 226.852 193.252C225.748 193.252 225.004 193.996 225.004 194.812C225.004 195.82 226 196.528 227.632 196.528C230.176 196.528 231.772 195.268 231.772 193.336C231.772 191.716 230.344 190.528 228.352 190.528C227.812 190.528 227.236 190.588 226.684 190.768C227.62 190 229.252 188.596 229.84 188.14C230.068 187.96 230.308 187.804 230.524 187.66L229.972 186.952C229.84 187 229.672 187.024 229.312 187.06C228.676 187.12 225.832 187.204 225.196 187.204C224.956 187.204 224.62 187.192 224.356 187.168Z" fill="black"/>
<circle cx="191.5" cy="112.5" r="48.5" fill="#F0C65A"/>
<path d="M163.69 92.38C165.176 92.38 166.38 91.1756 166.38 89.69C166.38 88.2044 165.176 87 163.69 87C162.204 87 161 88.2044 161 89.69C161 91.1756 162.204 92.38 163.69 92.38Z" fill="#FE0E0E"/>
<path d="M165.18 93.13H162.03C161.566 93.13 161.19 93.5061 161.19 93.97V106.22C161.19 106.684 161.566 107.06 162.03 107.06H165.18C165.644 107.06 166.02 106.684 166.02 106.22V93.97C166.02 93.5061 165.644 93.13 165.18 93.13Z" fill="#FE0E0E"/>
<path d="M166.89 89.29H166.12C165.96 89.29 165.83 89.4198 165.83 89.58V89.68C165.83 89.8401 165.96 89.97 166.12 89.97H166.89C167.05 89.97 167.18 89.8401 167.18 89.68V89.58C167.18 89.4198 167.05 89.29 166.89 89.29Z" fill="#FE0E0E"/>
<path d="M204.4 107.09C206.924 107.09 208.97 105.044 208.97 102.52C208.97 99.9961 206.924 97.95 204.4 97.95C201.876 97.95 199.83 99.9961 199.83 102.52C199.83 105.044 201.876 107.09 204.4 107.09Z" fill="#231815"/>
<path d="M206.91 108.36H201.57C200.78 108.36 200.14 109 200.14 109.79V130.58C200.14 131.37 200.78 132.01 201.57 132.01H206.91C207.7 132.01 208.34 131.37 208.34 130.58V109.79C208.34 109 207.7 108.36 206.91 108.36Z" fill="#231815"/>
<path d="M200.55 101.84H199.23C198.959 101.84 198.74 102.059 198.74 102.33V102.5C198.74 102.771 198.959 102.99 199.23 102.99H200.55C200.821 102.99 201.04 102.771 201.04 102.5V102.33C201.04 102.059 200.821 101.84 200.55 101.84Z" fill="#231815"/>
<path d="M194.71 100.56C196.996 100.56 198.85 98.7065 198.85 96.42C198.85 94.1336 196.996 92.28 194.71 92.28C192.424 92.28 190.57 94.1336 190.57 96.42C190.57 98.7065 192.424 100.56 194.71 100.56Z" fill="#FE0E0E"/>
<path d="M196.99 101.7H192.15C191.438 101.7 190.86 102.278 190.86 102.99V121.8C190.86 122.512 191.438 123.09 192.15 123.09H196.99C197.702 123.09 198.28 122.512 198.28 121.8V102.99C198.28 102.278 197.702 101.7 196.99 101.7Z" fill="#FE0E0E"/>
<path d="M191.22 95.81H190.04C189.791 95.81 189.59 96.0115 189.59 96.26V96.4C189.59 96.6485 189.791 96.85 190.04 96.85H191.22C191.469 96.85 191.67 96.6485 191.67 96.4V96.26C191.67 96.0115 191.469 95.81 191.22 95.81Z" fill="#FE0E0E"/>
<path d="M215.11 112.76C217.778 112.76 219.94 110.598 219.94 107.93C219.94 105.262 217.778 103.1 215.11 103.1C212.442 103.1 210.28 105.262 210.28 107.93C210.28 110.598 212.442 112.76 215.11 112.76Z" fill="#231815"/>
<path d="M217.77 114.1H212.12C211.286 114.1 210.61 114.776 210.61 115.61V137.59C210.61 138.424 211.286 139.1 212.12 139.1H217.77C218.604 139.1 219.28 138.424 219.28 137.59V115.61C219.28 114.776 218.604 114.1 217.77 114.1Z" fill="#231815"/>
<path d="M211.04 107.21H209.65C209.363 107.21 209.13 107.443 209.13 107.73V107.9C209.13 108.187 209.363 108.42 209.65 108.42H211.04C211.327 108.42 211.56 108.187 211.56 107.9V107.73C211.56 107.443 211.327 107.21 211.04 107.21Z" fill="#231815"/>
<path d="M186.05 94.1327L184.224 94.9493L188.308 104.078L190.133 103.261L186.05 94.1327Z" fill="#FE0E0E"/>
<path d="M170.238 89.5825L169.342 89.1387L167.123 93.6192L168.019 94.063L170.238 89.5825Z" fill="#FE0E0E"/>
<path d="M223.528 99.111V100.639C223.528 100.813 223.493 100.985 223.426 101.145C223.358 101.305 223.26 101.45 223.136 101.572C223.011 101.694 222.864 101.789 222.702 101.853C222.541 101.917 222.368 101.948 222.194 101.944H220.667" stroke="#E60012" stroke-miterlimit="10"/>
<path d="M226.139 99.111V100.639C226.146 100.988 226.29 101.32 226.539 101.564C226.788 101.808 227.123 101.944 227.472 101.944H229" stroke="#E60012" stroke-miterlimit="10"/>
<path d="M223.528 107V105.444C223.528 105.271 223.493 105.099 223.426 104.938C223.358 104.778 223.26 104.633 223.136 104.511C223.011 104.39 222.864 104.294 222.702 104.23C222.541 104.166 222.368 104.135 222.194 104.139H220.667" stroke="#E60012" stroke-miterlimit="10"/>
<path d="M228.954 104.139L227.399 104.139C227.225 104.139 227.053 104.173 226.893 104.241C226.733 104.308 226.587 104.407 226.466 104.531C226.344 104.655 226.249 104.802 226.185 104.964C226.121 105.126 226.09 105.298 226.093 105.472L226.093 107" stroke="#E60012" stroke-miterlimit="10"/>
<path d="M206.861 88V89.5278C206.861 89.7016 206.826 89.8737 206.759 90.0339C206.692 90.1941 206.593 90.3393 206.469 90.4609C206.345 90.5825 206.198 90.6781 206.036 90.742C205.874 90.806 205.702 90.837 205.528 90.8333H204" stroke="#E60012" stroke-miterlimit="10"/>
<path d="M209.891 88V89.5278C209.899 89.8766 210.042 90.2086 210.292 90.4527C210.541 90.6967 210.876 90.8334 211.225 90.8333H212.753" stroke="#E60012" stroke-miterlimit="10"/>
<path d="M206.861 95.889V94.3334C206.861 94.1596 206.826 93.9876 206.759 93.8273C206.692 93.6671 206.593 93.5219 206.469 93.4003C206.345 93.2787 206.198 93.1831 206.036 93.1192C205.874 93.0552 205.702 93.0242 205.528 93.0279H204" stroke="#E60012" stroke-miterlimit="10"/>
<path d="M212.753 93.0277L211.197 93.0277C211.024 93.0277 210.851 93.0623 210.691 93.1297C210.531 93.197 210.386 93.2957 210.264 93.4198C210.143 93.544 210.047 93.6913 209.983 93.8529C209.919 94.0145 209.888 94.1873 209.892 94.361L209.892 95.8888" stroke="#E60012" stroke-miterlimit="10"/>
</svg>
