<svg width="383" height="240" viewBox="0 0 383 240" fill="none" xmlns="http://www.w3.org/2000/svg">
<rect width="383" height="240" rx="18" fill="#F2F1F6"/>
<path d="M30.896 19.2L30.096 18.432C29.872 18.496 29.296 18.544 28.992 18.544C28.032 18.544 20.56 18.544 19.792 18.544C19.2 18.544 18.544 18.48 17.984 18.4V19.84C18.608 19.792 19.2 19.76 19.792 19.76C20.56 19.76 27.792 19.76 28.912 19.76C28.4 20.752 26.896 22.48 25.408 23.328L26.48 24.176C28.304 22.912 29.824 20.848 30.464 19.76C30.576 19.584 30.768 19.344 30.896 19.2ZM24.496 21.296H23.056C23.12 21.728 23.12 22.08 23.12 22.464C23.12 25.136 22.768 27.408 20.304 28.928C19.856 29.232 19.296 29.504 18.864 29.648L20.032 30.608C24.112 28.56 24.496 25.632 24.496 21.296ZM34.9914 18.288L34.0634 19.264C35.2634 20.048 37.2474 21.776 38.0634 22.608L39.0554 21.584C38.1754 20.704 36.1114 19.04 34.9914 18.288ZM33.6154 29.008L34.4474 30.32C37.1194 29.824 39.1354 28.832 40.7514 27.824C43.1674 26.304 45.0234 24.128 46.1114 22.144L45.3434 20.768C44.4154 22.752 42.4794 25.12 39.9994 26.672C38.4794 27.616 36.3994 28.592 33.6154 29.008ZM53.9514 17.632L52.3994 17.344C52.3674 17.76 52.2874 18.208 52.1594 18.608C51.9834 19.232 51.6954 20.048 51.2634 20.848C50.7034 21.824 49.5674 23.472 48.4154 24.288L49.6794 25.056C50.6714 24.208 51.8554 22.592 52.4794 21.344C52.9274 20.464 53.2954 19.488 53.5354 18.768C53.6634 18.432 53.8074 18 53.9514 17.632ZM51.9354 20.384L51.7754 21.632C52.9434 21.632 59.6794 21.632 60.4954 21.632C60.8634 21.632 61.4874 21.632 61.9834 21.664V20.288C61.5194 20.368 60.8794 20.384 60.4954 20.384C59.6954 20.384 52.9434 20.384 51.9354 20.384ZM57.8074 21.056H56.4634C56.3674 25.488 54.5594 27.728 52.9114 28.96C52.5594 29.248 52.0794 29.536 51.6154 29.712L52.9754 30.624C55.8394 28.816 57.6634 25.984 57.8074 21.056ZM64.9754 23.072V24.64C65.4874 24.608 66.3354 24.576 67.2154 24.576C68.3994 24.576 74.7834 24.576 75.9994 24.576C76.7034 24.576 77.3754 24.624 77.7114 24.64V23.072C77.3434 23.104 76.7834 23.168 75.9834 23.168C74.7994 23.168 68.3834 23.168 67.2154 23.168C66.3034 23.168 65.4714 23.12 64.9754 23.072ZM84.7354 28.592C84.7354 29.184 84.7194 29.984 84.6394 30.496H86.1914C86.1274 29.968 86.0954 29.104 86.0954 28.592C86.0954 27.84 86.0794 21.776 86.0794 19.296C86.0794 18.8 86.1274 18.112 86.1914 17.616H84.6234C84.7034 18.128 84.7354 18.832 84.7354 19.296C84.7354 20.624 84.7354 27.696 84.7354 28.592ZM85.7914 21.824V23.232C87.5354 23.776 90.5274 24.912 92.3514 25.888L92.9114 24.528C91.1354 23.664 87.9034 22.432 85.7914 21.824ZM103.359 22.224C102.415 22.224 101.647 22.992 101.647 23.92C101.647 24.864 102.415 25.632 103.359 25.632C104.287 25.632 105.055 24.864 105.055 23.92C105.055 22.992 104.287 22.224 103.359 22.224ZM112.735 24.224L113.359 25.472C115.935 24.672 118.479 23.504 120.239 22.416C122.111 21.248 123.791 19.904 125.167 18.48L124.095 17.472C122.991 18.816 121.391 20.192 119.711 21.248C117.935 22.352 115.503 23.488 112.735 24.224ZM119.455 21.904V28.8C119.455 29.392 119.407 30.192 119.359 30.496H120.943C120.863 30.192 120.831 29.392 120.831 28.8V21.488L119.455 21.904ZM130.991 18.288L130.063 19.264C131.263 20.048 133.247 21.776 134.063 22.608L135.055 21.584C134.175 20.704 132.111 19.04 130.991 18.288ZM129.615 29.008L130.447 30.32C133.119 29.824 135.135 28.832 136.751 27.824C139.167 26.304 141.023 24.128 142.111 22.144L141.343 20.768C140.415 22.752 138.479 25.12 135.999 26.672C134.479 27.616 132.399 28.592 129.615 29.008ZM149.999 22.672L149.119 23.568C151.103 24.8 153.839 26.768 155.311 28.112L156.255 26.992C154.671 25.712 152.047 23.872 149.999 22.672ZM157.311 19.76L156.255 19.12C155.999 19.216 155.647 19.264 155.215 19.264H150.127L149.615 20.416H155.535C155.167 21.904 154.159 23.936 152.927 25.408C151.487 27.12 149.311 28.816 146.335 29.712L147.471 30.72C150.511 29.6 152.591 27.888 154.047 26.096C155.455 24.368 156.463 22.24 156.943 20.608C157.023 20.352 157.183 19.984 157.311 19.76ZM151.919 17.44L150.463 16.976C150.367 17.392 150.111 17.968 149.951 18.24C149.215 19.712 147.567 22.112 144.831 23.824L145.887 24.64C148.447 22.88 150.255 20.464 151.199 18.704C151.359 18.4 151.647 17.856 151.919 17.44ZM171.007 17.472L170.159 17.84C170.591 18.448 171.119 19.408 171.439 20.048L172.303 19.664C171.983 19.008 171.407 18.048 171.007 17.472ZM172.751 16.832L171.919 17.2C172.367 17.792 172.895 18.704 173.231 19.392L174.095 19.008C173.791 18.416 173.183 17.424 172.751 16.832ZM163.823 18H162.335C162.399 18.384 162.431 18.912 162.431 19.296C162.431 20.16 162.431 26.56 162.431 28.096C162.431 29.408 163.119 29.968 164.335 30.192C165.007 30.304 165.951 30.336 166.911 30.336C168.655 30.336 171.055 30.224 172.447 30.016V28.544C171.103 28.896 168.655 29.056 166.959 29.056C166.175 29.056 165.359 29.024 164.847 28.928C164.079 28.784 163.727 28.576 163.727 27.744C163.727 26.592 163.727 20.16 163.727 19.296C163.727 18.848 163.775 18.384 163.823 18ZM163.135 23.056L163.151 24.384C165.119 23.888 168.287 22.96 170.271 22.16C170.751 21.968 171.327 21.712 171.791 21.52L171.231 20.24C170.767 20.528 170.303 20.752 169.823 20.976C167.967 21.76 165.071 22.64 163.135 23.056ZM187.135 22.4L186.159 21.92C186.031 22 185.631 22.032 185.375 22.032C184.479 22.032 181.119 22.032 180.511 22.032C180.111 22.032 179.615 22 179.231 21.952V23.296C179.631 23.264 180.063 23.248 180.527 23.248C180.959 23.248 184.607 23.248 185.599 23.248C185.551 24.272 184.959 28.192 184.783 29.056H186.127C186.319 27.936 186.895 24.096 187.039 22.896C187.039 22.752 187.087 22.544 187.135 22.4ZM177.727 28.544V29.872C178.207 29.856 178.575 29.84 179.055 29.84C179.855 29.84 186.927 29.84 187.823 29.84C188.175 29.84 188.751 29.84 189.055 29.856V28.56C188.719 28.592 188.143 28.624 187.791 28.624C186.943 28.624 179.919 28.624 179.055 28.624C178.575 28.624 178.111 28.592 177.727 28.544ZM192.975 23.072V24.64C193.487 24.608 194.335 24.576 195.215 24.576C196.399 24.576 202.783 24.576 203.999 24.576C204.703 24.576 205.375 24.624 205.711 24.64V23.072C205.343 23.104 204.783 23.168 203.983 23.168C202.799 23.168 196.383 23.168 195.215 23.168C194.303 23.168 193.471 23.12 192.975 23.072ZM214.719 17.36L213.407 17.248C213.359 18 213.135 18.96 212.783 19.84C212.239 21.2 211.167 23.056 208.863 25.264L209.967 26.08C210.495 25.424 210.943 24.848 211.407 24.4C212.143 23.744 213.151 23.232 214.175 23.232C215.007 23.232 215.647 23.664 215.663 24.592C215.679 25.424 215.663 27.072 215.599 27.92H216.831C216.815 26.928 216.783 25.088 216.783 24.256C216.783 22.96 215.823 22.224 214.591 22.224C213.887 22.224 212.975 22.448 212.351 22.816C212.991 21.984 213.583 20.912 213.983 19.936C214.399 18.864 214.575 17.984 214.719 17.36ZM209.231 19.088V20.288C210.127 20.352 211.183 20.384 211.871 20.384C213.903 20.384 216.879 20.24 219.119 19.904V18.72C216.863 19.12 214.095 19.248 211.935 19.248C211.199 19.248 210.095 19.2 209.231 19.088ZM221.455 22.944L220.943 21.76C220.495 21.984 220.095 22.16 219.615 22.384C218.559 22.88 217.263 23.376 215.743 24.16C213.839 25.136 211.855 26.336 211.855 28.288C211.855 30.224 213.695 30.72 215.967 30.72C217.359 30.72 219.135 30.592 220.351 30.448L220.399 29.152C218.991 29.408 217.263 29.552 216.015 29.552C214.367 29.552 213.135 29.36 213.135 28.112C213.135 27.008 214.255 26.144 215.839 25.312C217.391 24.512 218.911 23.904 220.047 23.456C220.479 23.296 221.055 23.072 221.455 22.944ZM227.487 22.88H224.015V24H226.351V28.544H227.487V22.88ZM227.487 28.064H226.447C225.599 28.752 224.607 29.472 223.807 29.968L224.399 31.152C225.311 30.464 226.175 29.76 226.991 29.072C227.983 30.336 229.439 30.896 231.535 30.976C233.327 31.056 236.751 31.024 238.527 30.944C238.591 30.592 238.767 30.032 238.911 29.76C236.991 29.888 233.295 29.936 231.535 29.856C229.647 29.792 228.271 29.248 227.487 28.064ZM224.287 17.68C225.295 18.432 226.463 19.568 226.959 20.352L227.871 19.52C227.343 18.736 226.143 17.648 225.119 16.928L224.287 17.68ZM230.687 19.248C232.239 19.84 234.223 20.752 235.231 21.376L236.047 20.624C234.975 19.984 232.959 19.104 231.455 18.576L230.687 19.248ZM229.167 20.592V28.88H230.303V21.52H237.439V20.592H229.167ZM236.863 20.592V27.664C236.863 27.872 236.815 27.936 236.607 27.936C236.399 27.936 235.727 27.952 234.975 27.92C235.119 28.192 235.263 28.608 235.311 28.912C236.383 28.912 237.055 28.912 237.471 28.72C237.903 28.544 238.015 28.272 238.015 27.68V20.592H236.863ZM229.167 17.232V18.192H237.151V17.232H229.167ZM229.791 22.928V23.824H237.327V22.928H229.791ZM229.791 25.28V26.208H237.327V25.28H229.791ZM232.991 20.976V28.816H234.079V20.976H232.991ZM236.751 17.232V17.456C236.031 18.208 234.543 19.136 233.231 19.648C233.407 19.824 233.711 20.144 233.871 20.352C235.327 19.744 236.943 18.752 238.015 17.744L237.279 17.168L237.023 17.232H236.751ZM244.799 17.536H243.167C243.263 18 243.311 18.56 243.311 19.152C243.311 20.832 243.151 24.88 243.151 27.248C243.151 29.872 244.735 30.816 247.039 30.816C250.543 30.816 252.623 28.816 253.711 27.296L252.815 26.208C251.663 27.872 249.999 29.504 247.071 29.504C245.551 29.504 244.447 28.896 244.447 27.136C244.447 24.752 244.575 20.96 244.639 19.152C244.671 18.624 244.719 18.064 244.799 17.536ZM256.219 19.376L256.363 20.784C258.107 20.416 262.171 20.016 263.899 19.84C262.427 20.704 260.907 22.736 260.907 25.232C260.907 28.816 264.267 30.384 267.243 30.496L267.691 29.184C265.099 29.072 262.171 28.08 262.171 24.96C262.171 23.072 263.563 20.624 265.851 19.888C266.667 19.664 268.059 19.632 268.987 19.648L268.971 18.368C267.899 18.4 266.411 18.496 264.667 18.64C261.707 18.896 258.699 19.184 257.659 19.296C257.339 19.328 256.827 19.36 256.219 19.376ZM278.571 20.128H283.867V21.44H278.571V20.128ZM278.571 17.968H283.867V19.264H278.571V17.968ZM277.419 17.056V22.352H285.067V17.056H277.419ZM276.427 23.456V24.464H285.835V23.456H276.427ZM276.059 25.84V26.896H286.123V25.84H276.059ZM282.523 24.336V29.936C282.523 30.144 282.459 30.208 282.203 30.224C281.963 30.24 281.163 30.24 280.251 30.208C280.411 30.528 280.603 30.976 280.651 31.296C281.851 31.296 282.619 31.296 283.099 31.104C283.579 30.928 283.723 30.608 283.723 29.968V24.336H282.523ZM277.451 27.712C278.171 28.416 279.035 29.408 279.419 30.048L280.331 29.376C279.915 28.752 279.035 27.808 278.299 27.136L277.451 27.712ZM275.179 20.128C274.219 21.792 272.667 23.44 271.211 24.496C271.419 24.768 271.755 25.408 271.851 25.648C273.435 24.4 275.147 22.464 276.235 20.56L275.179 20.128ZM274.875 16.608C274.187 17.744 272.747 19.072 271.467 19.904C271.675 20.144 271.979 20.608 272.107 20.88C273.531 19.936 275.067 18.432 276.027 17.056L274.875 16.608ZM273.739 22.96V31.28H274.907V21.856L274.859 21.824L273.739 22.96ZM292.219 17.456L291.899 18.688C293.131 19.008 296.587 19.712 298.123 19.92L298.427 18.704C297.003 18.56 293.595 17.904 292.219 17.456ZM291.867 20.384L290.523 20.208C290.427 21.872 290.027 25.232 289.707 26.688L290.907 26.976C291.003 26.72 291.147 26.464 291.387 26.192C292.507 24.832 294.235 24.048 296.331 24.048C297.963 24.048 299.163 24.96 299.163 26.224C299.163 28.416 296.699 29.872 291.643 29.264L292.027 30.56C297.963 31.056 300.507 29.12 300.507 26.272C300.507 24.384 298.875 22.912 296.427 22.912C294.507 22.912 292.747 23.536 291.211 24.88C291.371 23.84 291.659 21.472 291.867 20.384ZM318.459 28.784L318.251 27.424C317.435 28.272 316.587 28.736 315.835 28.736C315.259 28.736 314.987 28.304 314.987 27.76C314.987 26.144 315.595 23.392 315.595 21.792C315.595 20.496 314.859 19.648 313.355 19.648C311.387 19.648 308.731 21.952 307.739 23.04L307.723 24.624C309.227 22.8 311.547 20.816 313.051 20.816C313.867 20.816 314.331 21.216 314.331 22.144C314.331 23.696 313.739 26.32 313.739 28.112C313.739 29.424 314.443 30.128 315.515 30.128C316.603 30.128 317.595 29.648 318.459 28.784ZM307.707 21.136L307.579 21.568L307.515 22.4C306.891 23.456 304.731 26.384 303.739 27.632L304.539 28.72C305.547 27.328 307.035 25.168 307.771 24.032L308.251 21.84C308.523 21.392 308.955 20.704 309.227 20.288L308.763 19.744C308.027 19.984 306.027 20.224 305.179 20.272C304.779 20.304 304.475 20.304 304.123 20.288L304.267 21.616C305.451 21.424 307.179 21.216 307.707 21.136ZM307.547 18.496C307.547 19.088 307.163 24.16 307.131 25.568C307.115 27.328 307.099 28.128 307.099 29.68C307.099 29.936 307.083 30.32 307.051 30.624H308.427C308.411 30.32 308.363 29.92 308.347 29.648C308.283 28.224 308.283 27.248 308.283 25.792C308.283 22.976 308.763 18.4 308.987 17.36L307.483 17.312C307.563 17.712 307.547 18.128 307.547 18.496ZM325.947 17.424L324.427 17.296C324.459 17.632 324.427 18.176 324.363 18.624C324.251 19.456 323.835 21.472 323.451 22.944C322.843 25.2 321.723 28.448 320.763 30.112L322.155 30.576C323.003 28.832 324.075 25.52 324.651 23.248C325.099 21.648 325.435 19.84 325.675 18.688C325.739 18.384 325.851 17.776 325.947 17.424ZM322.411 20.096C321.819 20.096 321.243 20.064 320.491 19.968L320.523 21.216C321.115 21.264 321.675 21.28 322.379 21.28C324.107 21.28 326.523 21.008 328.507 20.56V19.312C326.523 19.808 324.171 20.096 322.411 20.096ZM327.467 22.288V23.488C328.443 23.376 329.435 23.312 330.427 23.312C331.371 23.312 332.299 23.408 333.131 23.504L333.163 22.288C332.299 22.192 331.323 22.16 330.395 22.16C329.371 22.16 328.299 22.208 327.467 22.288ZM327.787 26.176L326.603 26.064C326.459 26.736 326.363 27.344 326.363 27.952C326.363 29.536 327.739 30.304 330.251 30.304C331.419 30.304 332.491 30.208 333.355 30.08L333.403 28.8C332.411 28.992 331.323 29.104 330.267 29.104C327.995 29.104 327.563 28.368 327.563 27.616C327.563 27.2 327.659 26.704 327.787 26.176ZM341.371 24.816V25.904H350.011V24.816H341.371ZM346.635 25.44L345.755 25.776C346.635 27.52 348.203 29.44 349.563 30.464C349.755 30.16 350.139 29.76 350.411 29.536C349.035 28.704 347.467 26.992 346.635 25.44ZM343.051 20.832H348.395V22.496H343.051V20.832ZM343.051 18.224H348.395V19.856H343.051V18.224ZM341.963 17.232V23.488H349.531V17.232H341.963ZM344.811 25.36C343.995 27.072 342.395 28.816 340.843 29.648C341.099 29.872 341.467 30.288 341.643 30.56C343.227 29.584 344.843 27.648 345.723 25.696L344.811 25.36ZM345.163 17.744V23.008H345.115V31.28H346.283V23.008H346.219V17.744H345.163ZM336.203 21.408V22.368H340.747V21.408H336.203ZM336.267 17.136V18.096H340.683V17.136H336.267ZM336.203 23.552V24.512H340.747V23.552H336.203ZM335.483 19.232V20.224H341.163V19.232H335.483ZM336.731 25.712V26.704H339.707V29.376H336.731V30.384H340.747V25.712H336.731ZM336.187 25.712V31.12H337.211V25.712H336.187ZM353.627 20.16H356.747V21.376H353.627V20.16ZM353.627 18.112H356.747V19.312H353.627V18.112ZM352.555 17.248V22.272H357.867V17.248H352.555ZM351.595 23.456V24.384H358.811V23.456H351.595ZM358.715 17.36V18.256H366.011V17.36H358.715ZM354.795 23.744V29.2L355.819 29.84V23.744H354.795ZM355.339 26.112V27.024H358.539V26.112H355.339ZM361.883 17.584C361.739 18.272 361.467 19.264 361.211 19.92L362.107 20.128C362.395 19.536 362.715 18.624 363.019 17.808L361.883 17.584ZM360.427 22.432H364.251V23.632H360.427V22.432ZM360.427 24.464H364.251V25.696H360.427V24.464ZM360.427 20.384H364.251V21.568H360.427V20.384ZM359.339 19.504V26.576H365.371V19.504H359.339ZM360.667 26.864C360.059 27.6 359.019 28.32 358.027 28.784C358.251 28.96 358.651 29.344 358.827 29.52C359.819 28.976 360.987 28.064 361.691 27.168L360.667 26.864ZM352.715 25.264C352.635 27.232 352.379 29.392 351.403 30.56C351.659 30.736 352.011 31.088 352.171 31.328C353.307 29.968 353.627 27.568 353.723 25.264H352.715ZM353.467 26.832L352.715 27.104C354.043 30.416 356.619 30.944 360.699 30.944H365.899C365.963 30.624 366.155 30.16 366.331 29.904C365.387 29.936 361.419 29.936 360.699 29.936C357.099 29.936 354.603 29.584 353.467 26.832ZM362.907 27.296C363.771 27.888 364.843 28.816 365.355 29.456L366.235 28.896C365.707 28.288 364.651 27.392 363.723 26.832L362.907 27.296Z" fill="black"/>
<path d="M87.776 180.748L88.412 181.276C88.508 181.216 88.628 181.108 88.832 181.012C90.224 180.316 91.88 179.092 92.924 177.688L92.348 176.86C91.436 178.216 89.96 179.308 88.844 179.812C88.844 179.452 88.844 173.644 88.844 172.9C88.844 172.444 88.892 172.096 88.904 172H87.8C87.8 172.096 87.86 172.432 87.86 172.888C87.86 173.644 87.86 179.524 87.86 180.076C87.86 180.316 87.824 180.568 87.776 180.748ZM82.28 180.7L83.192 181.3C84.2 180.46 84.968 179.296 85.328 178.012C85.652 176.812 85.688 174.232 85.688 172.9C85.688 172.552 85.736 172.18 85.748 172.048H84.644C84.704 172.3 84.728 172.564 84.728 172.912C84.728 174.256 84.728 176.644 84.368 177.748C84.008 178.912 83.3 179.98 82.28 180.7ZM94.712 175.804V176.98C95.096 176.956 95.732 176.932 96.392 176.932C97.28 176.932 102.068 176.932 102.98 176.932C103.508 176.932 104.012 176.968 104.264 176.98V175.804C103.988 175.828 103.568 175.876 102.968 175.876C102.08 175.876 97.268 175.876 96.392 175.876C95.708 175.876 95.084 175.84 94.712 175.804ZM111.776 180.748L112.412 181.276C112.508 181.216 112.628 181.108 112.832 181.012C114.224 180.316 115.88 179.092 116.924 177.688L116.348 176.86C115.436 178.216 113.96 179.308 112.844 179.812C112.844 179.452 112.844 173.644 112.844 172.9C112.844 172.444 112.892 172.096 112.904 172H111.8C111.8 172.096 111.86 172.432 111.86 172.888C111.86 173.644 111.86 179.524 111.86 180.076C111.86 180.316 111.824 180.568 111.776 180.748ZM106.28 180.7L107.192 181.3C108.2 180.46 108.968 179.296 109.328 178.012C109.652 176.812 109.688 174.232 109.688 172.9C109.688 172.552 109.736 172.18 109.748 172.048H108.644C108.704 172.3 108.728 172.564 108.728 172.912C108.728 174.256 108.728 176.644 108.368 177.748C108.008 178.912 107.3 179.98 106.28 180.7ZM122.588 171.688L121.472 171.568C121.472 172.492 121.316 173.572 121.088 174.532C120.764 175.996 119.804 179.2 118.436 181.036L119.42 181.42C120.776 179.236 121.628 176.248 122.036 174.556C122.204 173.812 122.36 172.828 122.444 172.396C122.492 172.168 122.54 171.904 122.588 171.688ZM126.716 173.068L125.84 173.464C126.68 174.46 127.628 176.548 127.976 177.772L128.912 177.328C128.504 176.224 127.46 174.04 126.716 173.068ZM118.268 174.316L118.364 175.36C118.676 175.312 119.168 175.252 119.444 175.216C120.176 175.144 122.432 174.868 123.236 174.868C124.004 174.868 124.508 175.072 124.508 176.176C124.508 177.472 124.316 179.032 123.932 179.848C123.692 180.364 123.332 180.46 122.888 180.46C122.552 180.46 121.916 180.376 121.412 180.22L121.58 181.216C121.952 181.312 122.528 181.396 122.984 181.396C123.764 181.396 124.364 181.192 124.736 180.388C125.24 179.392 125.432 177.484 125.432 176.056C125.432 174.436 124.556 174.028 123.488 174.028C122.672 174.028 120.236 174.292 119.336 174.316C118.952 174.328 118.64 174.34 118.268 174.316ZM126.848 171.328L126.2 171.604C126.536 172.06 126.944 172.78 127.184 173.272L127.832 172.984C127.58 172.492 127.148 171.76 126.848 171.328ZM128.168 170.848L127.532 171.124C127.88 171.568 128.276 172.252 128.528 172.78L129.188 172.492C128.948 172.048 128.492 171.292 128.168 170.848ZM136.124 177.868L135.632 178.564H139.58V177.868H136.124ZM139.304 177.868V178.012C138.428 179.86 136.172 180.796 133.628 181.204C133.784 181.384 134.012 181.768 134.096 181.984C136.736 181.468 139.136 180.376 140.204 178.144L139.676 177.832L139.496 177.868H139.304ZM136.04 178.348L135.284 178.588C136.304 180.364 138.236 181.504 140.624 181.972C140.744 181.732 140.984 181.372 141.188 181.18C138.86 180.832 136.928 179.836 136.04 178.348ZM135.86 175.672H139.364V176.488H135.86V175.672ZM135.86 174.292H139.364V175.084H135.86V174.292ZM135.032 173.668V177.1H140.216V173.668H135.032ZM135.38 172.132V172.9H140.948V172.132H135.38ZM135.656 170.92C135.332 171.856 134.708 173.056 133.796 173.968C134 174.064 134.288 174.304 134.444 174.484C135.428 173.452 136.064 172.18 136.52 171.064L135.656 170.92ZM136.58 176.836C136.052 177.676 135.068 178.66 133.688 179.38C133.88 179.512 134.156 179.776 134.288 179.968C135.752 179.128 136.784 178.06 137.468 177.004L136.58 176.836ZM131.66 176.812V181.972H132.476V175.828L131.66 176.812ZM130.136 173.212V174.004H133.4V173.212H130.136ZM131.624 170.992V173.644H132.44V170.992H131.624ZM132.368 175.888L131.912 176.272C132.284 176.728 133.232 178.024 133.544 178.588L134.072 177.976C133.82 177.628 132.68 176.224 132.368 175.888ZM133.088 173.212V173.392C132.5 175.228 131.144 177.172 129.848 178.216C129.992 178.372 130.22 178.768 130.316 178.984C131.696 177.784 133.16 175.66 133.88 173.464L133.412 173.164L133.256 173.212H133.088ZM133.772 175.396C133.556 175.84 133.148 176.512 132.86 176.92L133.28 177.244C133.592 176.872 133.976 176.296 134.3 175.78L133.772 175.396ZM142.172 172.252V173.056H145.88V172.252H142.172ZM142.124 177.076V177.868H147.2V177.076H142.124ZM144.32 175.792V181.948H145.148V175.792H144.32ZM145.064 178.192L144.596 178.624C145.088 179.02 146.288 180.076 146.696 180.544L147.224 179.848C146.888 179.56 145.472 178.456 145.064 178.192ZM144.356 177.376C143.84 178.6 142.772 179.944 141.812 180.604C141.992 180.784 142.208 181.12 142.316 181.348C143.324 180.52 144.416 179.056 145.004 177.76L144.356 177.376ZM143.744 170.92V171.784C143.744 173.008 143.576 174.616 141.824 175.84C142.016 175.96 142.316 176.212 142.436 176.392C144.32 175.024 144.512 173.224 144.512 171.796V170.92H143.744ZM148.064 175.36V176.14H152.78V175.36H148.064ZM148.064 177.844V178.624H152.816V177.844H148.064ZM148.088 180.556V181.384H153.044V180.556H148.088ZM148.628 170.884C148.208 172.18 147.488 173.452 146.648 174.292C146.852 174.4 147.212 174.64 147.368 174.784C148.184 173.884 148.964 172.504 149.444 171.088L148.628 170.884ZM151.052 170.956C150.86 171.628 150.476 172.576 150.164 173.164L150.908 173.38C151.232 172.828 151.628 171.952 151.94 171.184L151.052 170.956ZM148.592 172.876H148.112L147.764 173.26V181.948H148.592V173.704H152.888V172.876H148.592ZM150.248 173.236V180.832H151.088V173.236H150.248ZM145.472 172.252V174.952C145.472 175.552 145.52 175.732 145.664 175.876C145.808 175.996 146.024 176.056 146.24 176.056C146.348 176.056 146.6 176.056 146.72 176.056C146.864 176.056 147.056 176.032 147.164 175.972C147.284 175.924 147.38 175.84 147.44 175.72C147.5 175.588 147.536 175.264 147.56 174.988C147.368 174.928 147.152 174.82 147.02 174.7C147.008 174.952 146.984 175.144 146.96 175.228C146.936 175.312 146.888 175.348 146.864 175.372C146.816 175.384 146.744 175.396 146.672 175.396C146.6 175.396 146.48 175.396 146.42 175.396C146.36 175.396 146.312 175.384 146.288 175.348C146.252 175.312 146.24 175.192 146.24 175.012V172.252H145.472ZM154.436 173.104L154.544 174.16C155.84 173.884 158.9 173.584 160.184 173.452C159.092 174.1 157.952 175.636 157.952 177.496C157.952 180.184 160.472 181.36 162.692 181.444L163.04 180.46C161.096 180.388 158.9 179.632 158.9 177.292C158.9 175.876 159.944 174.04 161.66 173.488C162.272 173.32 163.316 173.296 164.012 173.308L164 172.348C163.196 172.372 162.08 172.444 160.76 172.552C158.552 172.744 156.284 172.96 155.516 173.044C155.276 173.068 154.892 173.092 154.436 173.104ZM162.272 174.772L161.672 175.036C162.032 175.54 162.368 176.152 162.644 176.728L163.268 176.452C163.004 175.912 162.548 175.168 162.272 174.772ZM163.58 174.268L162.992 174.544C163.364 175.048 163.724 175.648 164.012 176.224L164.624 175.924C164.348 175.396 163.88 174.664 163.58 174.268ZM96.224 186.652V187.564H99.62V186.652H96.224ZM99.164 186.652C99.164 188.908 99.56 194.02 104.36 196.924C104.528 196.708 104.888 196.324 105.092 196.168C100.352 193.36 100.088 188.8 100.088 186.652H99.164ZM98.828 189.004C98.096 192.4 96.596 194.824 93.932 196.216C94.172 196.384 94.58 196.756 94.748 196.948C97.4 195.388 98.984 192.856 99.848 189.196L98.828 189.004ZM112.232 190.036V190.84H116.756V190.036H112.232ZM109.412 195.7V196.504H115.46V195.7H109.412ZM111.8 188.608V193H112.712V188.608H111.8ZM108.932 192.568V196.984H109.808V193.384H115.028V196.96H115.952V192.568H108.932ZM111.38 185.932V187.972H112.304V185.932H111.38ZM107.384 187.48V188.344H116.924V187.48H107.384ZM106.94 187.48V190.588C106.94 192.316 106.856 194.74 105.872 196.468C106.088 196.564 106.484 196.816 106.64 196.972C107.672 195.148 107.84 192.436 107.84 190.588V187.48H106.94ZM124.364 186.484H123.344C123.38 186.64 123.392 187 123.392 187.204C123.392 188.044 123.392 189.304 123.392 190.384C123.392 191.44 123.512 193.744 123.512 194.668C123.512 195.508 122.924 195.712 122.228 195.712C121.04 195.712 120.572 195.304 120.572 194.74C120.572 194.188 121.184 193.744 122.336 193.744C124.472 193.744 126.248 194.944 127.328 195.94L127.88 195.088C126.956 194.332 124.976 192.964 122.444 192.964C120.716 192.964 119.672 193.696 119.672 194.788C119.672 195.952 120.62 196.564 122.348 196.564C123.908 196.564 124.46 195.712 124.46 194.872C124.46 194.068 124.28 191.968 124.28 190.384C124.28 189.376 124.28 187.768 124.304 187.288C124.316 186.928 124.34 186.688 124.364 186.484ZM119.78 187.78L119.792 188.668C120.548 188.764 122.024 188.872 122.852 188.872C124.46 188.872 126.176 188.716 127.532 188.56V187.684C125.972 187.936 124.364 188.044 122.84 188.044C122.048 188.044 120.548 187.924 119.78 187.78ZM119.72 190.336L119.732 191.236C120.584 191.332 121.904 191.392 122.732 191.392C124.532 191.392 125.996 191.308 127.628 191.104V190.204C126.068 190.432 124.472 190.552 122.732 190.552C121.94 190.552 120.572 190.468 119.72 190.336ZM130.436 188.104L130.544 189.16C131.84 188.884 134.9 188.584 136.184 188.452C135.092 189.1 133.952 190.636 133.952 192.496C133.952 195.184 136.472 196.36 138.692 196.444L139.04 195.46C137.096 195.388 134.9 194.632 134.9 192.292C134.9 190.876 135.944 189.04 137.66 188.488C138.272 188.32 139.316 188.296 140.012 188.308L140 187.348C139.196 187.372 138.08 187.444 136.76 187.552C134.552 187.744 132.284 187.96 131.516 188.044C131.276 188.068 130.892 188.092 130.436 188.104ZM138.272 189.772L137.672 190.036C138.032 190.54 138.368 191.152 138.644 191.728L139.268 191.452C139.004 190.912 138.548 190.168 138.272 189.772ZM139.58 189.268L138.992 189.544C139.364 190.048 139.724 190.648 140.012 191.224L140.624 190.924C140.348 190.396 139.88 189.664 139.58 189.268ZM148.256 187.816L147.26 187.792C147.14 189.04 146.888 190.396 146.54 191.536C145.928 193.564 145.28 194.38 144.716 194.38C144.176 194.38 143.492 193.708 143.492 192.196C143.492 190.432 145.136 188.26 147.776 188.26C150.08 188.26 151.412 189.844 151.412 191.764C151.412 193.84 149.9 194.992 148.364 195.34C148.076 195.4 147.716 195.448 147.332 195.484L147.884 196.372C150.74 196 152.396 194.32 152.396 191.812C152.396 189.376 150.608 187.396 147.8 187.396C144.86 187.396 142.544 189.664 142.544 192.268C142.544 194.26 143.612 195.484 144.692 195.484C145.796 195.484 146.756 194.212 147.488 191.752C147.86 190.468 148.1 189.064 148.256 187.816ZM84.248 207.208C83.828 208.204 83.156 209.464 82.4 210.46L83.42 210.892C84.092 209.932 84.752 208.696 85.184 207.604C85.688 206.368 86.12 204.592 86.276 203.848C86.336 203.584 86.42 203.236 86.492 202.972L85.424 202.756C85.268 204.136 84.764 205.96 84.248 207.208ZM90.152 206.74C90.656 208.024 91.208 209.644 91.52 210.868L92.576 210.532C92.264 209.44 91.628 207.604 91.136 206.416C90.632 205.144 89.864 203.488 89.384 202.624L88.412 202.948C88.94 203.836 89.672 205.504 90.152 206.74ZM94.712 205.804V206.98C95.096 206.956 95.732 206.932 96.392 206.932C97.28 206.932 102.068 206.932 102.98 206.932C103.508 206.932 104.012 206.968 104.264 206.98V205.804C103.988 205.828 103.568 205.876 102.968 205.876C102.08 205.876 97.268 205.876 96.392 205.876C95.708 205.876 95.084 205.84 94.712 205.804ZM113.372 202.372L112.7 202.66C113.096 203.2 113.48 203.86 113.78 204.496L114.464 204.184C114.188 203.608 113.672 202.804 113.372 202.372ZM114.812 201.772L114.164 202.084C114.56 202.612 114.956 203.248 115.268 203.884L115.94 203.548C115.664 202.984 115.136 202.192 114.812 201.772ZM109.16 210.1C109.16 210.556 109.136 211.144 109.076 211.528H110.24C110.192 211.132 110.168 210.484 110.168 210.1C110.168 209.536 110.156 205 110.156 203.128C110.156 202.768 110.204 202.24 110.24 201.88H109.064C109.124 202.252 109.16 202.78 109.16 203.128C109.16 204.136 109.16 209.44 109.16 210.1ZM109.94 205.024V206.08C111.248 206.488 113.492 207.34 114.86 208.072L115.28 207.064C113.948 206.404 111.536 205.48 109.94 205.024ZM123.776 210.748L124.412 211.276C124.508 211.216 124.628 211.108 124.832 211.012C126.224 210.316 127.88 209.092 128.924 207.688L128.348 206.86C127.436 208.216 125.96 209.308 124.844 209.812C124.844 209.452 124.844 203.644 124.844 202.9C124.844 202.444 124.892 202.096 124.904 202H123.8C123.8 202.096 123.86 202.432 123.86 202.888C123.86 203.644 123.86 209.524 123.86 210.076C123.86 210.316 123.824 210.568 123.776 210.748ZM118.28 210.7L119.192 211.3C120.2 210.46 120.968 209.296 121.328 208.012C121.652 206.812 121.688 204.232 121.688 202.9C121.688 202.552 121.736 202.18 121.748 202.048H120.644C120.704 202.3 120.728 202.564 120.728 202.912C120.728 204.256 120.728 206.644 120.368 207.748C120.008 208.912 119.3 209.98 118.28 210.7ZM134.588 201.688L133.472 201.568C133.472 202.492 133.316 203.572 133.088 204.532C132.764 205.996 131.804 209.2 130.436 211.036L131.42 211.42C132.776 209.236 133.628 206.248 134.036 204.556C134.204 203.812 134.36 202.828 134.444 202.396C134.492 202.168 134.54 201.904 134.588 201.688ZM138.716 203.068L137.84 203.464C138.68 204.46 139.628 206.548 139.976 207.772L140.912 207.328C140.504 206.224 139.46 204.04 138.716 203.068ZM130.268 204.316L130.364 205.36C130.676 205.312 131.168 205.252 131.444 205.216C132.176 205.144 134.432 204.868 135.236 204.868C136.004 204.868 136.508 205.072 136.508 206.176C136.508 207.472 136.316 209.032 135.932 209.848C135.692 210.364 135.332 210.46 134.888 210.46C134.552 210.46 133.916 210.376 133.412 210.22L133.58 211.216C133.952 211.312 134.528 211.396 134.984 211.396C135.764 211.396 136.364 211.192 136.736 210.388C137.24 209.392 137.432 207.484 137.432 206.056C137.432 204.436 136.556 204.028 135.488 204.028C134.672 204.028 132.236 204.292 131.336 204.316C130.952 204.328 130.64 204.34 130.268 204.316ZM138.848 201.328L138.2 201.604C138.536 202.06 138.944 202.78 139.184 203.272L139.832 202.984C139.58 202.492 139.148 201.76 138.848 201.328ZM140.168 200.848L139.532 201.124C139.88 201.568 140.276 202.252 140.528 202.78L141.188 202.492C140.948 202.048 140.492 201.292 140.168 200.848ZM142.28 202.072V202.852H152.708V202.072H142.28ZM146.972 200.92V202.444H147.896V200.92H146.972ZM142.808 206.764V211.972H143.684V207.532H151.724V206.764H142.808ZM151.352 206.764V210.868C151.352 211.036 151.304 211.096 151.1 211.096C150.896 211.12 150.224 211.12 149.432 211.096C149.564 211.336 149.696 211.696 149.732 211.948C150.728 211.948 151.376 211.936 151.76 211.804C152.144 211.648 152.252 211.384 152.252 210.892V206.764H151.352ZM145.208 208.312V211.456H146.012V208.312H145.208ZM145.64 208.312V208.96H148.976V210.196H145.64V210.844H149.792V208.312H145.64ZM145.136 204.184H149.828V205.348H145.136V204.184ZM144.272 203.524V206.008H150.74V203.524H144.272ZM156.176 202.636L155.012 202.612C155.084 202.888 155.084 203.404 155.084 203.68C155.084 204.376 155.108 205.84 155.216 206.872C155.552 209.98 156.632 211.108 157.772 211.108C158.588 211.108 159.308 210.412 160.04 208.384L159.284 207.532C158.972 208.732 158.408 209.968 157.796 209.968C156.932 209.968 156.356 208.636 156.152 206.632C156.068 205.648 156.056 204.544 156.068 203.8C156.08 203.488 156.116 202.912 156.176 202.636ZM162.416 202.96L161.492 203.284C162.632 204.688 163.364 207.16 163.568 209.32L164.54 208.936C164.36 206.908 163.496 204.352 162.416 202.96Z" fill="black"/>
<circle cx="123.5" cy="112.5" r="48.5" fill="#F0C65A"/>
<path d="M106.254 84.7627L106.241 84.6184C106.198 84.1231 106.206 83.7244 106.264 83.4224C106.325 83.1202 106.43 82.8709 106.581 82.6746C106.731 82.4782 106.917 82.2958 107.138 82.1272C107.303 81.998 107.45 81.8662 107.577 81.7319C107.705 81.5975 107.803 81.4531 107.871 81.2984C107.939 81.141 107.965 80.9703 107.948 80.7864C107.931 80.5912 107.868 80.4243 107.761 80.2858C107.655 80.1472 107.518 80.0455 107.353 79.9808C107.19 79.9158 107.014 79.892 106.824 79.9093C106.64 79.9262 106.47 79.9831 106.313 80.0802C106.157 80.1744 106.033 80.3055 105.943 80.4735C105.852 80.6387 105.814 80.8377 105.826 81.0704L104.095 81.2288C104.057 80.6617 104.15 80.1825 104.374 79.7911C104.598 79.397 104.913 79.0899 105.321 78.8701C105.729 78.6473 106.188 78.5126 106.701 78.4657C107.264 78.4142 107.77 78.462 108.22 78.6092C108.67 78.7535 109.034 78.9898 109.312 79.3181C109.59 79.6464 109.752 80.058 109.797 80.5531C109.827 80.8841 109.799 81.1834 109.712 81.451C109.628 81.7154 109.497 81.9556 109.32 82.1715C109.143 82.3845 108.929 82.5824 108.677 82.7652C108.466 82.9186 108.295 83.0741 108.164 83.2315C108.035 83.3888 107.944 83.5654 107.891 83.7614C107.84 83.9572 107.826 84.1938 107.849 84.4713L107.862 84.6156L106.254 84.7627ZM107.343 87.4018C107.06 87.4277 106.809 87.3508 106.59 87.1711C106.373 86.9884 106.254 86.7568 106.231 86.4765C106.203 86.1995 106.279 85.9529 106.458 85.7368C106.641 85.5204 106.874 85.3992 107.157 85.3733C107.426 85.3487 107.671 85.4262 107.893 85.6056C108.115 85.785 108.24 86.0132 108.268 86.2902C108.282 86.4771 108.248 86.6528 108.166 86.8172C108.087 86.9785 107.975 87.1129 107.831 87.2202C107.686 87.3247 107.524 87.3852 107.343 87.4018Z" fill="black"/>
<path d="M121.409 77.3835V77.2386C121.412 76.7415 121.456 76.3452 121.541 76.0497C121.629 75.7543 121.757 75.5156 121.925 75.3338C122.092 75.152 122.294 74.9872 122.53 74.8395C122.706 74.7259 122.864 74.608 123.003 74.4858C123.142 74.3636 123.253 74.2287 123.335 74.081C123.418 73.9304 123.459 73.7628 123.459 73.5781C123.459 73.3821 123.412 73.2102 123.318 73.0625C123.224 72.9148 123.098 72.8011 122.939 72.7216C122.783 72.642 122.609 72.6023 122.419 72.6023C122.234 72.6023 122.06 72.6435 121.895 72.7259C121.73 72.8054 121.595 72.9247 121.49 73.0838C121.385 73.2401 121.328 73.4347 121.32 73.6676H119.581C119.595 73.0994 119.732 72.6307 119.99 72.2614C120.249 71.8892 120.591 71.6122 121.017 71.4304C121.443 71.2457 121.913 71.1534 122.428 71.1534C122.993 71.1534 123.493 71.2472 123.928 71.4347C124.362 71.6193 124.703 71.8878 124.95 72.2401C125.197 72.5923 125.321 73.017 125.321 73.5142C125.321 73.8466 125.266 74.142 125.155 74.4006C125.047 74.6562 124.895 74.8835 124.699 75.0824C124.503 75.2784 124.271 75.456 124.004 75.6151C123.78 75.7486 123.595 75.8878 123.45 76.0327C123.308 76.1776 123.202 76.3452 123.131 76.5355C123.063 76.7259 123.027 76.9602 123.024 77.2386V77.3835H121.409ZM122.253 80.1108C121.969 80.1108 121.726 80.0114 121.524 79.8125C121.325 79.6108 121.227 79.3693 121.23 79.0881C121.227 78.8097 121.325 78.571 121.524 78.3722C121.726 78.1733 121.969 78.0739 122.253 78.0739C122.523 78.0739 122.76 78.1733 122.964 78.3722C123.169 78.571 123.273 78.8097 123.276 79.0881C123.273 79.2756 123.223 79.4474 123.126 79.6037C123.033 79.7571 122.909 79.8807 122.756 79.9744C122.602 80.0653 122.435 80.1108 122.253 80.1108Z" fill="black"/>
<path d="M137.069 84.14L137.097 83.9978C137.194 83.5103 137.314 83.1298 137.454 82.8561C137.597 82.583 137.768 82.3732 137.967 82.2268C138.166 82.0804 138.396 81.9573 138.656 81.8574C138.85 81.7796 139.028 81.694 139.188 81.6008C139.348 81.5075 139.482 81.3963 139.591 81.267C139.701 81.135 139.774 80.9784 139.809 80.7971C139.846 80.6047 139.833 80.427 139.769 80.2641C139.706 80.1012 139.603 79.9654 139.462 79.8569C139.324 79.749 139.162 79.6768 138.975 79.6403C138.794 79.605 138.614 79.612 138.437 79.6613C138.26 79.7079 138.105 79.7992 137.971 79.9352C137.838 80.0685 137.745 80.2486 137.692 80.4756L135.986 80.1429C136.108 79.588 136.332 79.154 136.656 78.8409C136.981 78.5251 137.37 78.3188 137.823 78.2218C138.277 78.1221 138.756 78.1215 139.261 78.2199C139.816 78.3281 140.288 78.5157 140.679 78.783C141.07 79.0474 141.354 79.3761 141.529 79.7692C141.704 80.1622 141.744 80.6027 141.649 81.0907C141.585 81.417 141.474 81.6964 141.316 81.9289C141.161 82.1592 140.969 82.3532 140.738 82.5109C140.508 82.6658 140.247 82.7957 139.954 82.9008C139.709 82.9889 139.501 83.0902 139.331 83.2047C139.164 83.3197 139.027 83.4638 138.921 83.6371C138.818 83.8108 138.738 84.0341 138.682 84.3068L138.654 84.449L137.069 84.14ZM137.375 86.9783C137.096 86.924 136.877 86.7799 136.717 86.5461C136.56 86.3101 136.51 86.0543 136.567 85.7788C136.618 85.505 136.759 85.2895 136.993 85.1324C137.229 84.9758 137.486 84.9247 137.765 84.979C138.03 85.0307 138.244 85.1736 138.406 85.408C138.569 85.6423 138.625 85.8964 138.575 86.1702C138.536 86.3537 138.454 86.5129 138.33 86.6477C138.208 86.7804 138.063 86.878 137.895 86.9407C137.727 87.0006 137.554 87.0131 137.375 86.9783Z" fill="black"/>
<path d="M122.541 98.8469C126.705 98.8469 130.081 95.2994 130.081 90.9234C130.081 86.5474 126.705 83 122.541 83C118.376 83 115 86.5474 115 90.9234C115 95.2994 118.376 98.8469 122.541 98.8469Z" fill="#231815"/>
<path d="M126.698 101.031H117.872C116.578 101.031 115.529 102.134 115.529 103.494V139.556C115.529 140.916 116.578 142.019 117.872 142.019H126.698C127.993 142.019 129.042 140.916 129.042 139.556V103.494C129.042 102.134 127.993 101.031 126.698 101.031Z" fill="#231815"/>
<path d="M131.244 106.918C133.006 109.64 138.802 109.695 139.824 107.492C141.445 104.03 131.332 92.6821 131.015 94.9962C130.662 97.8102 134.856 102.401 134.82 103.753C134.785 105.104 131.455 103.364 130.856 104.623C130.433 105.215 130.856 106.363 131.244 106.918Z" fill="#231815"/>
<path d="M225.436 179.812V180.664H228.988V179.812H225.436ZM225.064 171.964V181.624H225.928V172.816H228.484V181.492H229.384V171.964H225.064ZM221.512 172.948V175.348C221.512 177.208 221.236 179.596 218.896 181.264C219.088 181.396 219.412 181.744 219.532 181.936C222.016 180.16 222.424 177.4 222.424 175.36V172.948H221.512ZM220.276 172.54V173.38H224.32V172.54H220.276ZM219.028 175.768V176.632H224.68V175.768H219.028ZM222.136 177.352L221.584 177.868C222.136 178.456 223.516 180.1 224.02 180.832L224.632 180.076C224.248 179.62 222.604 177.772 222.136 177.352ZM220.384 170.92C220.096 172.384 219.604 173.824 218.884 174.748C219.088 174.868 219.472 175.12 219.628 175.264C220.336 174.244 220.912 172.696 221.26 171.088L220.384 170.92ZM234.556 171.532L233.512 171.496C233.488 171.832 233.464 172.168 233.416 172.528C233.272 173.512 233.044 175.276 233.044 176.416C233.044 177.196 233.104 177.868 233.164 178.324L234.1 178.252C234.016 177.652 234.016 177.232 234.076 176.776C234.22 175.204 235.612 173.02 237.112 173.02C238.372 173.02 239.008 174.388 239.008 176.284C239.008 179.296 236.98 180.352 234.364 180.748L234.94 181.612C237.904 181.072 240.004 179.596 240.004 176.272C240.004 173.752 238.852 172.144 237.268 172.144C235.744 172.144 234.496 173.644 234.004 174.88C234.076 174.04 234.304 172.42 234.556 171.532ZM247.804 171.568L246.664 171.472C246.688 171.724 246.664 172.132 246.616 172.468C246.532 173.092 246.22 174.604 245.932 175.708C245.476 177.4 244.636 179.836 243.916 181.084L244.96 181.432C245.596 180.124 246.4 177.64 246.832 175.936C247.168 174.736 247.42 173.38 247.6 172.516C247.648 172.288 247.732 171.832 247.804 171.568ZM245.152 173.572C244.708 173.572 244.276 173.548 243.712 173.476L243.736 174.412C244.18 174.448 244.6 174.46 245.128 174.46C246.424 174.46 248.236 174.256 249.724 173.92V172.984C248.236 173.356 246.472 173.572 245.152 173.572ZM248.944 175.216V176.116C249.676 176.032 250.42 175.984 251.164 175.984C251.872 175.984 252.568 176.056 253.192 176.128L253.216 175.216C252.568 175.144 251.836 175.12 251.14 175.12C250.372 175.12 249.568 175.156 248.944 175.216ZM249.184 178.132L248.296 178.048C248.188 178.552 248.116 179.008 248.116 179.464C248.116 180.652 249.148 181.228 251.032 181.228C251.908 181.228 252.712 181.156 253.36 181.06L253.396 180.1C252.652 180.244 251.836 180.328 251.044 180.328C249.34 180.328 249.016 179.776 249.016 179.212C249.016 178.9 249.088 178.528 249.184 178.132ZM257.176 172.636L256.012 172.612C256.084 172.888 256.084 173.404 256.084 173.68C256.084 174.376 256.108 175.84 256.216 176.872C256.552 179.98 257.632 181.108 258.772 181.108C259.588 181.108 260.308 180.412 261.04 178.384L260.284 177.532C259.972 178.732 259.408 179.968 258.796 179.968C257.932 179.968 257.356 178.636 257.152 176.632C257.068 175.648 257.056 174.544 257.068 173.8C257.08 173.488 257.116 172.912 257.176 172.636ZM263.416 172.96L262.492 173.284C263.632 174.688 264.364 177.16 264.568 179.32L265.54 178.936C265.36 176.908 264.496 174.352 263.416 172.96ZM271.624 177.796V178.492H276.4V177.796H271.624ZM270.508 171.868V172.552H277.636V171.868H270.508ZM270.796 173.32V173.98H277.336V173.32H270.796ZM270.136 174.82V175.504H277.984V174.82H270.136ZM271.624 179.404V180.076H276.436V179.404H271.624ZM271.012 176.212V181.948H271.852V176.908H276.4V176.212H271.012ZM276.184 176.212V180.94C276.184 181.096 276.136 181.144 275.968 181.144C275.8 181.156 275.224 181.156 274.624 181.132C274.732 181.36 274.852 181.696 274.888 181.912C275.74 181.924 276.28 181.912 276.616 181.78C276.952 181.648 277.048 181.408 277.048 180.952V176.212H276.184ZM273.58 170.92V175.036H274.468V170.92H273.58ZM268.312 170.92V181.948H269.14V170.92H268.312ZM267.364 173.236C267.292 174.184 267.1 175.504 266.824 176.332L267.52 176.56C267.796 175.66 268 174.268 268.036 173.332L267.364 173.236ZM269.248 172.924C269.488 173.488 269.764 174.232 269.884 174.688L270.508 174.388C270.4 173.944 270.112 173.236 269.848 172.684L269.248 172.924ZM285.172 175.564V176.308H289.096V175.564H285.172ZM284.716 171.484V181.972H285.544V172.288H289.012V171.484H284.716ZM288.58 171.484V173.788C288.58 173.92 288.532 173.968 288.34 173.98C288.148 173.992 287.524 173.992 286.78 173.968C286.9 174.196 287.02 174.52 287.056 174.76C287.98 174.76 288.58 174.748 288.952 174.616C289.324 174.484 289.42 174.244 289.42 173.8V171.484H288.58ZM286.348 176.056L285.64 176.236C286.348 178.732 287.68 180.916 289.528 181.96C289.672 181.732 289.948 181.408 290.152 181.228C288.352 180.352 286.996 178.3 286.348 176.056ZM288.82 175.564V175.756C288.448 177.952 287.32 180.196 285.52 181.372C285.724 181.528 285.988 181.78 286.12 181.984C288.04 180.688 289.228 178.324 289.696 175.72L289.144 175.516L288.988 175.564H288.82ZM279.424 172.156V172.936H283.876V172.156H279.424ZM279.28 178.72V179.5H284.032V178.72H279.28ZM278.992 174.136V174.916H284.332V174.136H278.992ZM279.16 176.632V177.412H284.188V176.632H279.16ZM281.272 170.944V174.412H282.112V170.944H281.272ZM281.272 176.956V181.936H282.112V176.956H281.272ZM282.892 174.868C282.76 175.336 282.496 176.044 282.292 176.488L282.964 176.692C283.192 176.272 283.42 175.648 283.66 175.072L282.892 174.868ZM279.832 175.06C280.072 175.588 280.3 176.272 280.36 176.704L281.08 176.5C281.02 176.08 280.78 175.396 280.516 174.892L279.832 175.06ZM291.16 177.712L292.048 178.624C292.24 178.372 292.516 178.012 292.756 177.688C293.368 176.944 294.352 175.624 294.916 174.928C295.324 174.424 295.552 174.328 296.068 174.892C296.62 175.504 297.544 176.668 298.324 177.544C299.14 178.48 300.232 179.704 301.144 180.568L301.912 179.692C300.832 178.732 299.632 177.472 298.912 176.68C298.144 175.852 297.22 174.664 296.5 173.932C295.708 173.116 295.084 173.236 294.388 174.064C293.668 174.904 292.672 176.272 292.024 176.92C291.712 177.244 291.46 177.484 291.16 177.712ZM229.264 193.408V194.26H234.88V193.408H229.264ZM228.82 188.068V194.944H229.672V188.068H228.82ZM231.556 186.04V193.876H232.432V186.04H231.556ZM234.436 188.068V194.896H235.312V188.068H234.436ZM227.464 191.512H225.016V192.34H226.6V195.016H227.464V191.512ZM227.464 194.572H226.684C226.108 195.088 225.436 195.616 224.908 196L225.364 196.876C225.976 196.348 226.54 195.844 227.08 195.316C227.86 196.264 228.952 196.684 230.536 196.744C231.868 196.792 234.424 196.768 235.756 196.72C235.804 196.456 235.936 196.048 236.044 195.844C234.604 195.94 231.856 195.964 230.524 195.916C229.108 195.856 228.052 195.448 227.464 194.572ZM225.532 186.628C226.24 187.036 227.08 187.672 227.464 188.128L228.088 187.54C227.692 187.072 226.84 186.472 226.12 186.088L225.532 186.628ZM225.088 189.088C225.832 189.46 226.72 190.072 227.128 190.528L227.74 189.904C227.308 189.448 226.408 188.872 225.664 188.512L225.088 189.088ZM240.556 186.532L239.512 186.496C239.488 186.832 239.464 187.168 239.416 187.528C239.272 188.512 239.044 190.276 239.044 191.416C239.044 192.196 239.104 192.868 239.164 193.324L240.1 193.252C240.016 192.652 240.016 192.232 240.076 191.776C240.22 190.204 241.612 188.02 243.112 188.02C244.372 188.02 245.008 189.388 245.008 191.284C245.008 194.296 242.98 195.352 240.364 195.748L240.94 196.612C243.904 196.072 246.004 194.596 246.004 191.272C246.004 188.752 244.852 187.144 243.268 187.144C241.744 187.144 240.496 188.644 240.004 189.88C240.076 189.04 240.304 187.42 240.556 186.532ZM249.844 187.216V187.96H259.18V187.216H249.844ZM250.372 188.788V189.484H258.628V188.788H250.372ZM252.196 193.192V193.768H258.04V193.192H252.196ZM252.196 194.5V195.076H258.04V194.5H252.196ZM252.184 195.82V196.504H258.112V195.82H252.184ZM249.28 190.324V191.068H259.696V190.324H249.28ZM254.02 187.72V190.912H254.944V187.72H254.02ZM251.344 186.196C251.68 186.592 252.04 187.132 252.196 187.492L253.012 187.168C252.856 186.796 252.496 186.292 252.136 185.92L251.344 186.196ZM256.744 185.896C256.552 186.268 256.192 186.82 255.916 187.168L256.66 187.444C256.96 187.12 257.344 186.652 257.692 186.184L256.744 185.896ZM251.968 190.648C251.368 192.376 250.264 193.864 248.896 194.812C249.088 194.956 249.436 195.292 249.58 195.472C250.96 194.416 252.148 192.784 252.856 190.864L251.968 190.648ZM251.716 191.788V196.948H252.616V192.472H257.656V196.924H258.58V191.788H251.716ZM269.632 186.652H268.504C268.552 186.832 268.6 187.096 268.624 187.36C268.66 187.864 268.708 189.724 268.708 190.492C268.708 192.796 268.648 194.164 267.364 195.28C267.064 195.58 266.572 195.88 266.2 196.036L267.076 196.708C269.62 195.22 269.62 193.252 269.62 190.504C269.62 189.832 269.572 187.804 269.584 187.36C269.584 187.084 269.596 186.844 269.632 186.652ZM265.24 189.136V190.084C265.768 190.132 266.608 190.168 267.196 190.168C268.72 190.168 270.4 190.06 271.564 189.868V188.896C270.364 189.172 268.66 189.268 267.184 189.268C266.524 189.268 265.768 189.22 265.24 189.136ZM263.56 186.832L262.444 186.712C262.432 186.928 262.42 187.252 262.384 187.516C262.24 188.524 261.928 190.36 261.928 192.316C261.928 193.816 262.312 195.376 262.552 196.12L263.38 196.024C263.368 195.892 263.344 195.736 263.344 195.616C263.332 195.472 263.356 195.244 263.392 195.076C263.524 194.476 263.884 193.252 264.172 192.424L263.656 192.112C263.44 192.7 263.176 193.432 263.02 193.948C262.552 191.98 262.972 189.352 263.356 187.612C263.404 187.384 263.488 187.048 263.56 186.832ZM273.652 188.44L273.724 189.34C274.168 189.352 274.684 189.364 275.128 189.364C276.592 189.376 278.164 189.112 279.34 188.788L279.316 187.9C277.936 188.356 276.424 188.512 275.128 188.512C274.612 188.512 274.096 188.488 273.652 188.44ZM277.912 186.484L276.856 186.376C276.82 187.216 276.556 188.272 276.292 189.028C275.8 190.444 274.684 192.58 273.616 193.828L274.54 194.308C275.536 192.964 276.64 190.78 277.216 189.052C277.504 188.2 277.756 187.072 277.912 186.484ZM280.744 190.192H279.796C279.844 191.512 279.976 193.66 279.976 194.572C279.976 195.22 279.64 195.748 278.644 195.748C277.708 195.748 277.24 195.364 277.24 194.812C277.24 194.26 277.84 193.852 278.728 193.852C280.492 193.852 281.872 194.92 282.796 195.76L283.3 194.944C282.316 194.092 280.768 193.084 278.752 193.084C277.408 193.084 276.364 193.78 276.364 194.884C276.364 196.084 277.432 196.612 278.752 196.612C280.24 196.612 280.852 195.832 280.852 194.872C280.852 194.08 280.744 192.256 280.72 191.476C280.708 191.044 280.708 190.684 280.744 190.192ZM283.144 190.504L283.684 189.712C283.108 189.28 281.752 188.5 280.876 188.128L280.396 188.848C281.188 189.22 282.496 189.952 283.144 190.504ZM287.176 187.636L286.012 187.612C286.084 187.888 286.084 188.404 286.084 188.68C286.084 189.376 286.108 190.84 286.216 191.872C286.552 194.98 287.632 196.108 288.772 196.108C289.588 196.108 290.308 195.412 291.04 193.384L290.284 192.532C289.972 193.732 289.408 194.968 288.796 194.968C287.932 194.968 287.356 193.636 287.152 191.632C287.068 190.648 287.056 189.544 287.068 188.8C287.08 188.488 287.116 187.912 287.176 187.636ZM293.416 187.96L292.492 188.284C293.632 189.688 294.364 192.16 294.568 194.32L295.54 193.936C295.36 191.908 294.496 189.352 293.416 187.96Z" fill="black"/>
<circle cx="260.5" cy="112.5" r="48.5" fill="#F0C65A"/>
<path d="M283 81H239V142.032H283V81Z" fill="white" stroke="#231815" stroke-width="3" stroke-miterlimit="10"/>
<path d="M244.247 98.0323H277.838" stroke="#231815" stroke-width="3" stroke-miterlimit="10"/>
<path d="M244.483 106.548H278.075" stroke="#231815" stroke-width="3" stroke-miterlimit="10"/>
<path d="M244.483 115.065H278.075" stroke="#231815" stroke-width="3" stroke-miterlimit="10"/>
<path d="M244.483 123.581H278.075" stroke="#231815" stroke-width="3" stroke-miterlimit="10"/>
<path d="M244.483 132.097H278.075" stroke="#231815" stroke-width="3" stroke-miterlimit="10"/>
<path d="M246.69 86.29V87.47H255.31V86.29H246.69ZM246.48 92.29V93.53H255.52V92.29H246.48ZM249.32 87.17V92.92H250.51V87.17H249.32ZM251.46 87.17V92.9H252.67V87.17H251.46ZM253.76 88.14C253.57 89.14 253.18 90.45 252.82 91.28L253.91 91.57C254.28 90.78 254.71 89.56 255.06 88.44L253.76 88.14ZM252.94 84.5C252.74 85.06 252.34 85.82 252.01 86.32L253.11 86.66C253.46 86.21 253.9 85.53 254.28 84.85L252.94 84.5ZM247.08 88.49C247.48 89.46 247.82 90.75 247.89 91.58L249.05 91.28C248.95 90.43 248.6 89.19 248.16 88.22L247.08 88.49ZM247.99 84.94C248.34 85.44 248.7 86.15 248.83 86.6L249.96 86.13C249.81 85.68 249.44 85.02 249.07 84.53L247.99 84.94ZM263.23 85.52L261.98 85.87C262.67 88.04 263.47 89.71 264.56 90.92L265.37 89.77C263.85 88.36 263.43 86.77 263.23 85.52ZM256.65 86.02L256.74 87.32C256.97 87.27 257.13 87.25 257.34 87.22C257.63 87.19 258.27 87.11 258.65 87.08C257.72 88.27 257.05 89.48 257.05 91.11C257.05 92.92 258.41 93.8 260.02 93.8C263.35 93.8 263.83 90.75 263.27 88.05L262.1 86.14C262.99 89.96 262.32 92.45 260.05 92.45C259.09 92.45 258.33 91.99 258.33 90.82C258.33 88.9 259.68 87.36 260.36 86.84C260.51 86.76 260.72 86.68 260.86 86.63L260.48 85.52C259.83 85.76 258.16 85.97 257.22 86.02C257.03 86.03 256.83 86.03 256.65 86.02ZM264.13 84.96L263.39 85.2C263.61 85.62 263.8 86.18 263.97 86.66L264.71 86.41C264.58 86 264.32 85.38 264.13 84.96ZM265.2 84.58L264.48 84.83C264.7 85.25 264.92 85.82 265.07 86.28L265.82 86.03C265.67 85.62 265.42 85 265.2 84.58ZM266.46 86.11V87.26H275.53V86.11H266.46ZM269.8 88.56V89.7H273.63V88.56H269.8ZM273.19 88.56L273.18 88.75C273.04 91.22 272.85 92.36 272.55 92.62C272.42 92.73 272.28 92.74 272.06 92.74C271.77 92.74 271.06 92.74 270.37 92.68C270.6 93.01 270.78 93.51 270.8 93.86C271.47 93.88 272.14 93.89 272.52 93.86C272.98 93.81 273.3 93.71 273.6 93.39C274 92.95 274.21 91.82 274.39 89.08C274.42 88.92 274.43 88.56 274.43 88.56H273.19ZM269.35 86.79C269.25 89.07 269.19 91.61 266.28 92.96C266.6 93.21 266.96 93.65 267.14 93.97C270.28 92.39 270.55 89.47 270.7 86.79H269.35ZM270.32 84.46V86.56H271.56V84.46H270.32Z" fill="black"/>
</svg>
