<svg width="384" height="240" viewBox="0 0 384 240" fill="none" xmlns="http://www.w3.org/2000/svg">
<rect width="384" height="240" rx="18" fill="#F2F1F6"/>
<rect x="40" y="44" width="285" height="38" rx="5" fill="white"/>
<path d="M68.708 52.264L67.616 51.892C67.556 52.144 67.448 52.54 67.364 52.78C66.956 53.956 66.356 55.288 65.372 56.56C64.136 58.132 62.6 59.56 60.368 60.628L61.184 61.372C63.452 60.196 65.012 58.612 66.164 57.148C67.148 55.9 67.868 54.34 68.324 53.152C68.42 52.9 68.588 52.492 68.708 52.264ZM62.372 53.68L61.736 54.436C63.056 55.24 64.616 56.428 65.48 57.148C66.68 58.156 67.724 59.104 68.72 60.256L69.476 59.428C68.528 58.396 67.34 57.352 66.14 56.368C65.228 55.636 63.56 54.436 62.372 53.68ZM73.136 53.188V54.268C73.496 54.256 73.904 54.244 74.312 54.244C74.9 54.244 78.86 54.244 79.46 54.244C79.856 54.244 80.312 54.256 80.636 54.268V53.188C80.312 53.224 79.892 53.248 79.46 53.248C78.848 53.248 75.068 53.248 74.312 53.248C73.916 53.248 73.52 53.224 73.136 53.188ZM72.104 59.14V60.292C72.5 60.256 72.92 60.232 73.364 60.232C74.048 60.232 79.856 60.232 80.552 60.232C80.864 60.232 81.284 60.256 81.644 60.292V59.14C81.296 59.176 80.9 59.2 80.552 59.2C79.856 59.2 74.048 59.2 73.364 59.2C72.92 59.2 72.512 59.164 72.104 59.14ZM91.832 55.3L91.1 54.94C91.004 55 90.704 55.024 90.512 55.024C89.84 55.024 87.32 55.024 86.864 55.024C86.564 55.024 86.192 55 85.904 54.964V55.972C86.204 55.948 86.528 55.936 86.876 55.936C87.2 55.936 89.936 55.936 90.68 55.936C90.644 56.704 90.2 59.644 90.068 60.292H91.076C91.22 59.452 91.652 56.572 91.76 55.672C91.76 55.564 91.796 55.408 91.832 55.3ZM84.776 59.908V60.904C85.136 60.892 85.412 60.88 85.772 60.88C86.372 60.88 91.676 60.88 92.348 60.88C92.612 60.88 93.044 60.88 93.272 60.892V59.92C93.02 59.944 92.588 59.968 92.324 59.968C91.688 59.968 86.42 59.968 85.772 59.968C85.412 59.968 85.064 59.944 84.776 59.908ZM96.212 55.804V56.98C96.596 56.956 97.232 56.932 97.892 56.932C98.78 56.932 103.568 56.932 104.48 56.932C105.008 56.932 105.512 56.968 105.764 56.98V55.804C105.488 55.828 105.068 55.876 104.468 55.876C103.58 55.876 98.768 55.876 97.892 55.876C97.208 55.876 96.584 55.84 96.212 55.804ZM112.244 51.64L111.14 51.532C111.14 52.456 110.972 53.536 110.756 54.484C110.432 55.96 109.472 59.164 108.104 60.988L109.076 61.384C110.432 59.188 111.296 56.2 111.704 54.52C111.86 53.776 112.028 52.792 112.1 52.36C112.148 52.12 112.196 51.868 112.244 51.64ZM116.384 52.924L115.508 53.32C116.348 54.304 117.284 56.428 117.644 57.664L118.568 57.22C118.172 56.104 117.128 53.896 116.384 52.924ZM107.924 54.28L108.032 55.312C108.332 55.264 108.836 55.204 109.112 55.168C109.844 55.096 112.088 54.832 112.892 54.832C113.66 54.832 114.164 55.036 114.164 56.128C114.164 57.424 113.984 58.996 113.6 59.8C113.348 60.328 112.988 60.424 112.544 60.424C112.208 60.424 111.584 60.328 111.08 60.172L111.236 61.18C111.62 61.264 112.184 61.348 112.652 61.348C113.42 61.348 114.02 61.156 114.404 60.352C114.896 59.356 115.088 57.448 115.088 56.02C115.088 54.388 114.212 53.98 113.144 53.98C112.328 53.98 109.892 54.256 109.004 54.28C108.62 54.292 108.308 54.292 107.924 54.28ZM123.008 51.592L122.768 52.516C123.692 52.756 126.284 53.284 127.436 53.44L127.664 52.528C126.596 52.42 124.04 51.928 123.008 51.592ZM122.744 53.788L121.736 53.656C121.664 54.904 121.364 57.424 121.124 58.516L122.024 58.732C122.096 58.54 122.204 58.348 122.384 58.144C123.224 57.124 124.52 56.536 126.092 56.536C127.316 56.536 128.216 57.22 128.216 58.168C128.216 59.812 126.368 60.904 122.576 60.448L122.864 61.42C127.316 61.792 129.224 60.34 129.224 58.204C129.224 56.788 128 55.684 126.164 55.684C124.724 55.684 123.404 56.152 122.252 57.16C122.372 56.38 122.588 54.604 122.744 53.788ZM137.276 60.748L137.912 61.276C138.008 61.216 138.128 61.108 138.332 61.012C139.724 60.316 141.38 59.092 142.424 57.688L141.848 56.86C140.936 58.216 139.46 59.308 138.344 59.812C138.344 59.452 138.344 53.644 138.344 52.9C138.344 52.444 138.392 52.096 138.404 52H137.3C137.3 52.096 137.36 52.432 137.36 52.888C137.36 53.644 137.36 59.524 137.36 60.076C137.36 60.316 137.324 60.568 137.276 60.748ZM131.78 60.7L132.692 61.3C133.7 60.46 134.468 59.296 134.828 58.012C135.152 56.812 135.188 54.232 135.188 52.9C135.188 52.552 135.236 52.18 135.248 52.048H134.144C134.204 52.3 134.228 52.564 134.228 52.912C134.228 54.256 134.228 56.644 133.868 57.748C133.508 58.912 132.8 59.98 131.78 60.7ZM144.212 55.804V56.98C144.596 56.956 145.232 56.932 145.892 56.932C146.78 56.932 151.568 56.932 152.48 56.932C153.008 56.932 153.512 56.968 153.764 56.98V55.804C153.488 55.828 153.068 55.876 152.468 55.876C151.58 55.876 146.768 55.876 145.892 55.876C145.208 55.876 144.584 55.84 144.212 55.804ZM161.276 60.748L161.912 61.276C162.008 61.216 162.128 61.108 162.332 61.012C163.724 60.316 165.38 59.092 166.424 57.688L165.848 56.86C164.936 58.216 163.46 59.308 162.344 59.812C162.344 59.452 162.344 53.644 162.344 52.9C162.344 52.444 162.392 52.096 162.404 52H161.3C161.3 52.096 161.36 52.432 161.36 52.888C161.36 53.644 161.36 59.524 161.36 60.076C161.36 60.316 161.324 60.568 161.276 60.748ZM155.78 60.7L156.692 61.3C157.7 60.46 158.468 59.296 158.828 58.012C159.152 56.812 159.188 54.232 159.188 52.9C159.188 52.552 159.236 52.18 159.248 52.048H158.144C158.204 52.3 158.228 52.564 158.228 52.912C158.228 54.256 158.228 56.644 157.868 57.748C157.508 58.912 156.8 59.98 155.78 60.7ZM168.152 53.44L168.224 54.34C168.668 54.352 169.184 54.364 169.628 54.364C171.092 54.376 172.664 54.112 173.84 53.788L173.816 52.9C172.436 53.356 170.924 53.512 169.628 53.512C169.112 53.512 168.596 53.488 168.152 53.44ZM172.412 51.484L171.356 51.376C171.32 52.216 171.056 53.272 170.792 54.028C170.3 55.444 169.184 57.58 168.116 58.828L169.04 59.308C170.036 57.964 171.14 55.78 171.716 54.052C172.004 53.2 172.256 52.072 172.412 51.484ZM175.244 55.192H174.296C174.344 56.512 174.476 58.66 174.476 59.572C174.476 60.22 174.14 60.748 173.144 60.748C172.208 60.748 171.74 60.364 171.74 59.812C171.74 59.26 172.34 58.852 173.228 58.852C174.992 58.852 176.372 59.92 177.296 60.76L177.8 59.944C176.816 59.092 175.268 58.084 173.252 58.084C171.908 58.084 170.864 58.78 170.864 59.884C170.864 61.084 171.932 61.612 173.252 61.612C174.74 61.612 175.352 60.832 175.352 59.872C175.352 59.08 175.244 57.256 175.22 56.476C175.208 56.044 175.208 55.684 175.244 55.192ZM177.644 55.504L178.184 54.712C177.608 54.28 176.252 53.5 175.376 53.128L174.896 53.848C175.688 54.22 176.996 54.952 177.644 55.504ZM188.12 54.16L187.64 53.284C187.388 53.5 187.124 53.656 186.776 53.86C185.996 54.292 184.592 54.952 183.368 55.768C181.964 56.704 181.088 57.724 181.088 59.02C181.088 60.82 182.72 61.492 184.976 61.492C186.476 61.492 187.868 61.36 188.768 61.204L188.78 60.124C187.844 60.364 186.236 60.532 184.928 60.532C183.032 60.532 182.084 59.908 182.084 58.912C182.084 58.012 182.756 57.22 183.872 56.488C185.048 55.708 186.38 55.084 187.196 54.664C187.544 54.484 187.844 54.328 188.12 54.16ZM182.372 51.82L181.424 52.228C182.072 53.716 182.792 55.336 183.392 56.32L184.22 55.816C183.656 54.856 182.924 53.356 182.372 51.82ZM188.324 51.7L187.676 51.976C188.012 52.432 188.408 53.164 188.648 53.656L189.296 53.356C189.056 52.864 188.624 52.144 188.324 51.7ZM189.644 51.22L189.008 51.496C189.356 51.94 189.74 52.636 190.004 53.152L190.652 52.864C190.424 52.42 189.956 51.664 189.644 51.22ZM197.756 52.816L196.76 52.792C196.64 54.04 196.388 55.396 196.04 56.536C195.428 58.564 194.78 59.38 194.216 59.38C193.676 59.38 192.992 58.708 192.992 57.196C192.992 55.432 194.636 53.26 197.276 53.26C199.58 53.26 200.912 54.844 200.912 56.764C200.912 58.84 199.4 59.992 197.864 60.34C197.576 60.4 197.216 60.448 196.832 60.484L197.384 61.372C200.24 61 201.896 59.32 201.896 56.812C201.896 54.376 200.108 52.396 197.3 52.396C194.36 52.396 192.044 54.664 192.044 57.268C192.044 59.26 193.112 60.484 194.192 60.484C195.296 60.484 196.256 59.212 196.988 56.752C197.36 55.468 197.6 54.064 197.756 52.816ZM204.692 52.648V53.608H213.308V52.648H204.692ZM203.672 59.764V60.772H214.328V59.764H203.672ZM216.704 54.556V55.3H220.388V54.556H216.704ZM216.272 52.42V60.64L217.112 60.496V52.42H216.272ZM218.156 50.968V52.984H219.02V50.968H218.156ZM215.444 60.508L215.684 61.432C216.908 61.108 218.576 60.64 220.148 60.196L220.052 59.32C218.348 59.764 216.584 60.244 215.444 60.508ZM218.66 58.216C219.392 59.2 220.196 60.544 220.52 61.384L221.324 60.964C220.964 60.124 220.136 58.816 219.38 57.856L218.66 58.216ZM216.668 52.42V53.26H220.04V56.608H216.668V57.448H220.868V52.42H216.668ZM221.84 51.688V62.008H222.716V52.54H225.68V51.688H221.84ZM225.452 51.688V51.988C225.032 52.948 224.324 54.592 223.652 55.804C224.984 56.848 225.392 57.736 225.392 58.492C225.392 58.924 225.296 59.26 225.02 59.416C224.852 59.512 224.648 59.548 224.444 59.56C224.168 59.572 223.796 59.572 223.412 59.536C223.568 59.8 223.664 60.196 223.676 60.448C224.048 60.472 224.48 60.472 224.816 60.436C225.152 60.4 225.428 60.304 225.656 60.172C226.112 59.872 226.304 59.32 226.292 58.576C226.292 57.724 225.968 56.776 224.636 55.672C225.236 54.592 225.92 53.236 226.448 52.084L225.776 51.652L225.632 51.688H225.452ZM232.46 52.9L232.472 53.872C233.78 54.016 236.108 54.016 237.392 53.872V52.9C236.204 53.08 233.768 53.128 232.46 52.9ZM232.928 57.796L232.064 57.712C231.932 58.288 231.872 58.72 231.872 59.116C231.872 60.244 232.772 60.916 234.776 60.916C236.024 60.916 237.032 60.82 237.776 60.664L237.752 59.656C236.792 59.884 235.856 59.98 234.788 59.98C233.144 59.98 232.76 59.44 232.76 58.888C232.76 58.564 232.82 58.228 232.928 57.796ZM230.18 51.976L229.112 51.892C229.1 52.156 229.064 52.456 229.028 52.732C228.884 53.728 228.488 55.78 228.488 57.544C228.488 59.176 228.692 60.556 228.932 61.408L229.784 61.348C229.772 61.216 229.76 61.048 229.748 60.928C229.748 60.784 229.772 60.556 229.808 60.388C229.916 59.812 230.36 58.552 230.66 57.7L230.156 57.304C229.952 57.796 229.676 58.516 229.472 59.056C229.4 58.468 229.364 57.964 229.364 57.388C229.364 56.032 229.736 53.896 229.964 52.78C230.012 52.564 230.108 52.18 230.18 51.976ZM242.048 56.704V57.376H247.928V56.704H242.048ZM241.856 58.324V59.02H248.12V58.324H241.856ZM244.472 57.028V58.204C244.472 58.984 244.22 60.124 241.748 60.808C241.916 60.952 242.156 61.228 242.276 61.408C244.952 60.568 245.3 59.272 245.3 58.216V57.028H244.472ZM245.288 58.612L244.592 58.768C245.084 60.076 246.116 60.976 247.616 61.372C247.724 61.168 247.94 60.868 248.12 60.712C246.704 60.424 245.72 59.68 245.288 58.612ZM242.804 55.72C243.08 56.092 243.332 56.596 243.428 56.956L244.172 56.704C244.076 56.368 243.8 55.864 243.512 55.492L242.804 55.72ZM246.308 55.468C246.176 55.84 245.9 56.404 245.684 56.776L246.284 57.016C246.536 56.68 246.836 56.2 247.124 55.732L246.308 55.468ZM240.524 53.056V53.668H243.896V53.056H240.524ZM246.032 53.056V53.668H249.44V53.056H246.032ZM249.104 51.436V60.88C249.104 61.048 249.044 61.108 248.9 61.108C248.744 61.12 248.24 61.12 247.712 61.096C247.832 61.336 247.952 61.732 247.976 61.96C248.744 61.96 249.26 61.948 249.56 61.804C249.884 61.648 249.992 61.384 249.992 60.892V51.436H249.104ZM240.596 51.436V52.108H243.596V54.664H240.596V55.336H244.448V51.436H240.596ZM249.536 51.436H245.504V55.348H249.536V54.676H246.368V52.108H249.536V51.436ZM240.056 51.436V61.972H240.944V51.436H240.056ZM258.524 51.496H257.42C257.444 51.604 257.48 51.94 257.504 52.264C257.54 52.924 257.552 55.312 257.552 55.84L258.464 56.308C258.452 55.348 258.428 53.032 258.464 52.252C258.464 52.108 258.5 51.64 258.524 51.496ZM252.14 53.176L252.164 54.1C253.976 53.968 256.544 53.884 258.608 53.884C260.372 53.884 261.452 53.908 262.124 53.944L262.136 53.056C261.572 53.044 260.084 53.044 258.62 53.044C256.772 53.044 253.772 53.152 252.14 53.176ZM258.44 56.656L257.78 56.32C257.972 57.604 257.492 58.228 256.748 58.228C256.088 58.228 255.524 57.796 255.524 57.04C255.524 56.26 256.112 55.768 256.748 55.768C257.396 55.768 257.924 56.224 257.924 57.304C257.924 59.284 256.652 60.352 254.468 60.868L255.272 61.648C258.056 60.82 258.848 59.02 258.848 57.388C258.848 56.008 258.14 54.976 256.748 54.976C255.608 54.976 254.624 55.864 254.624 57.052C254.624 58.36 255.596 59.068 256.604 59.068C257.696 59.068 258.44 58.264 258.44 56.656ZM265.856 52.168L265.88 53.152C266.144 53.116 266.408 53.104 266.684 53.08C267.308 53.044 269.708 52.948 270.344 52.912C269.744 53.452 268.232 54.712 267.56 55.264C266.876 55.852 265.328 57.148 264.332 57.964L265.028 58.66C266.54 57.112 267.62 56.272 269.612 56.272C271.184 56.272 272.312 57.148 272.312 58.336C272.312 59.836 271.028 60.676 268.988 60.676C268.04 60.676 267.38 60.328 267.38 59.74C267.38 59.32 267.8 58.984 268.352 58.984C269.312 58.984 269.9 59.716 269.972 60.736L270.836 60.592C270.752 59.38 269.948 58.252 268.352 58.252C267.248 58.252 266.504 58.996 266.504 59.812C266.504 60.82 267.5 61.528 269.132 61.528C271.676 61.528 273.272 60.268 273.272 58.336C273.272 56.716 271.844 55.528 269.852 55.528C269.312 55.528 268.736 55.588 268.184 55.768C269.12 55 270.752 53.596 271.34 53.14C271.568 52.96 271.808 52.804 272.024 52.66L271.472 51.952C271.34 52 271.172 52.024 270.812 52.06C270.176 52.12 267.332 52.204 266.696 52.204C266.456 52.204 266.12 52.192 265.856 52.168ZM280.124 57.796V58.492H284.9V57.796H280.124ZM279.008 51.868V52.552H286.136V51.868H279.008ZM279.296 53.32V53.98H285.836V53.32H279.296ZM278.636 54.82V55.504H286.484V54.82H278.636ZM280.124 59.404V60.076H284.936V59.404H280.124ZM279.512 56.212V61.948H280.352V56.908H284.9V56.212H279.512ZM284.684 56.212V60.94C284.684 61.096 284.636 61.144 284.468 61.144C284.3 61.156 283.724 61.156 283.124 61.132C283.232 61.36 283.352 61.696 283.388 61.912C284.24 61.924 284.78 61.912 285.116 61.78C285.452 61.648 285.548 61.408 285.548 60.952V56.212H284.684ZM282.08 50.92V55.036H282.968V50.92H282.08ZM276.812 50.92V61.948H277.64V50.92H276.812ZM275.864 53.236C275.792 54.184 275.6 55.504 275.324 56.332L276.02 56.56C276.296 55.66 276.5 54.268 276.536 53.332L275.864 53.236ZM277.748 52.924C277.988 53.488 278.264 54.232 278.384 54.688L279.008 54.388C278.9 53.944 278.612 53.236 278.348 52.684L277.748 52.924ZM293.672 55.564V56.308H297.596V55.564H293.672ZM293.216 51.484V61.972H294.044V52.288H297.512V51.484H293.216ZM297.08 51.484V53.788C297.08 53.92 297.032 53.968 296.84 53.98C296.648 53.992 296.024 53.992 295.28 53.968C295.4 54.196 295.52 54.52 295.556 54.76C296.48 54.76 297.08 54.748 297.452 54.616C297.824 54.484 297.92 54.244 297.92 53.8V51.484H297.08ZM294.848 56.056L294.14 56.236C294.848 58.732 296.18 60.916 298.028 61.96C298.172 61.732 298.448 61.408 298.652 61.228C296.852 60.352 295.496 58.3 294.848 56.056ZM297.32 55.564V55.756C296.948 57.952 295.82 60.196 294.02 61.372C294.224 61.528 294.488 61.78 294.62 61.984C296.54 60.688 297.728 58.324 298.196 55.72L297.644 55.516L297.488 55.564H297.32ZM287.924 52.156V52.936H292.376V52.156H287.924ZM287.78 58.72V59.5H292.532V58.72H287.78ZM287.492 54.136V54.916H292.832V54.136H287.492ZM287.66 56.632V57.412H292.688V56.632H287.66ZM289.772 50.944V54.412H290.612V50.944H289.772ZM289.772 56.956V61.936H290.612V56.956H289.772ZM291.392 54.868C291.26 55.336 290.996 56.044 290.792 56.488L291.464 56.692C291.692 56.272 291.92 55.648 292.16 55.072L291.392 54.868ZM288.332 55.06C288.572 55.588 288.8 56.272 288.86 56.704L289.58 56.5C289.52 56.08 289.28 55.396 289.016 54.892L288.332 55.06ZM304.088 51.688L302.972 51.568C302.972 52.492 302.816 53.572 302.588 54.532C302.264 55.996 301.304 59.2 299.936 61.036L300.92 61.42C302.276 59.236 303.128 56.248 303.536 54.556C303.704 53.812 303.86 52.828 303.944 52.396C303.992 52.168 304.04 51.904 304.088 51.688ZM308.216 53.068L307.34 53.464C308.18 54.46 309.128 56.548 309.476 57.772L310.412 57.328C310.004 56.224 308.96 54.04 308.216 53.068ZM299.768 54.316L299.864 55.36C300.176 55.312 300.668 55.252 300.944 55.216C301.676 55.144 303.932 54.868 304.736 54.868C305.504 54.868 306.008 55.072 306.008 56.176C306.008 57.472 305.816 59.032 305.432 59.848C305.192 60.364 304.832 60.46 304.388 60.46C304.052 60.46 303.416 60.376 302.912 60.22L303.08 61.216C303.452 61.312 304.028 61.396 304.484 61.396C305.264 61.396 305.864 61.192 306.236 60.388C306.74 59.392 306.932 57.484 306.932 56.056C306.932 54.436 306.056 54.028 304.988 54.028C304.172 54.028 301.736 54.292 300.836 54.316C300.452 54.328 300.14 54.34 299.768 54.316ZM308.348 51.328L307.7 51.604C308.036 52.06 308.444 52.78 308.684 53.272L309.332 52.984C309.08 52.492 308.648 51.76 308.348 51.328ZM309.668 50.848L309.032 51.124C309.38 51.568 309.776 52.252 310.028 52.78L310.688 52.492C310.448 52.048 309.992 51.292 309.668 50.848ZM65.864 63.484H64.844C64.88 63.64 64.892 64 64.892 64.204C64.892 65.044 64.892 66.304 64.892 67.384C64.892 68.44 65.012 70.744 65.012 71.668C65.012 72.508 64.424 72.712 63.728 72.712C62.54 72.712 62.072 72.304 62.072 71.74C62.072 71.188 62.684 70.744 63.836 70.744C65.972 70.744 67.748 71.944 68.828 72.94L69.38 72.088C68.456 71.332 66.476 69.964 63.944 69.964C62.216 69.964 61.172 70.696 61.172 71.788C61.172 72.952 62.12 73.564 63.848 73.564C65.408 73.564 65.96 72.712 65.96 71.872C65.96 71.068 65.78 68.968 65.78 67.384C65.78 66.376 65.78 64.768 65.804 64.288C65.816 63.928 65.84 63.688 65.864 63.484ZM61.28 64.78L61.292 65.668C62.048 65.764 63.524 65.872 64.352 65.872C65.96 65.872 67.676 65.716 69.032 65.56V64.684C67.472 64.936 65.864 65.044 64.34 65.044C63.548 65.044 62.048 64.924 61.28 64.78ZM61.22 67.336L61.232 68.236C62.084 68.332 63.404 68.392 64.232 68.392C66.032 68.392 67.496 68.308 69.128 68.104V67.204C67.568 67.432 65.972 67.552 64.232 67.552C63.44 67.552 62.072 67.468 61.22 67.336ZM80.756 65.848L80.24 64.984C79.988 65.188 79.724 65.344 79.376 65.548C78.596 65.992 76.916 66.796 75.692 67.612C74.276 68.548 73.4 69.568 73.4 70.864C73.4 72.664 75.032 73.336 77.288 73.336C78.788 73.336 80.18 73.204 81.08 73.048L81.092 71.968C80.156 72.208 78.548 72.376 77.252 72.376C75.356 72.376 74.396 71.752 74.396 70.756C74.396 69.856 75.068 69.064 76.184 68.332C77.36 67.564 79.028 66.772 79.832 66.352C80.192 66.172 80.492 66.004 80.756 65.848ZM74.684 63.664L73.736 64.072C74.384 65.56 75.104 67.18 75.716 68.164L76.532 67.672C75.98 66.7 75.236 65.2 74.684 63.664ZM91.028 63.712L89.984 63.616C89.996 63.892 89.96 64.288 89.912 64.528C89.612 66.28 88.808 68.476 88.016 69.7C87.404 70.672 86.564 71.692 85.784 71.692C85.244 71.692 84.896 71.212 84.896 70.42C84.896 69.34 85.544 68.056 86.564 67.324C87.5 66.628 88.544 66.232 89.708 66.232C91.64 66.232 92.912 67.528 92.912 69.292C92.912 71.152 91.532 72.46 89.024 72.688L89.576 73.54C92.156 73.18 93.872 71.728 93.872 69.328C93.872 66.988 92.168 65.404 89.816 65.404C88.58 65.404 87.404 65.716 86.216 66.52C84.944 67.372 84.02 68.968 84.02 70.48C84.02 71.884 84.788 72.64 85.7 72.64C86.792 72.64 87.668 71.74 88.58 70.468C89.54 69.148 90.38 66.64 90.812 64.66C90.872 64.432 90.944 64.012 91.028 63.712ZM86.108 64.264L85.112 64.576C85.268 64.888 85.4 65.284 85.52 65.668C85.976 67.168 86.672 69.004 87.26 69.94C87.716 70.72 88.16 71.308 88.64 71.836L89.396 71.224C88.82 70.672 88.256 69.88 87.848 69.184C87.344 68.344 86.672 66.496 86.36 65.32C86.264 64.984 86.168 64.588 86.108 64.264ZM99.008 63.592L98.768 64.516C99.692 64.756 102.284 65.284 103.436 65.44L103.664 64.528C102.596 64.42 100.04 63.928 99.008 63.592ZM98.744 65.788L97.736 65.656C97.664 66.904 97.364 69.424 97.124 70.516L98.024 70.732C98.096 70.54 98.204 70.348 98.384 70.144C99.224 69.124 100.52 68.536 102.092 68.536C103.316 68.536 104.216 69.22 104.216 70.168C104.216 71.812 102.368 72.904 98.576 72.448L98.864 73.42C103.316 73.792 105.224 72.34 105.224 70.204C105.224 68.788 104 67.684 102.164 67.684C100.724 67.684 99.404 68.152 98.252 69.16C98.372 68.38 98.588 66.604 98.744 65.788ZM118.688 72.088L118.532 71.068C117.92 71.704 117.284 72.052 116.72 72.052C116.288 72.052 116.084 71.728 116.084 71.32C116.084 70.108 116.54 68.044 116.54 66.844C116.54 65.872 115.988 65.236 114.86 65.236C113.384 65.236 111.392 66.964 110.648 67.78L110.636 68.968C111.764 67.6 113.504 66.112 114.632 66.112C115.244 66.112 115.592 66.412 115.592 67.108C115.592 68.272 115.148 70.24 115.148 71.584C115.148 72.568 115.676 73.096 116.48 73.096C117.296 73.096 118.04 72.736 118.688 72.088ZM110.624 66.352L110.528 66.676L110.48 67.3C110.012 68.092 108.392 70.288 107.648 71.224L108.248 72.04C109.004 70.996 110.12 69.376 110.672 68.524L111.032 66.88C111.236 66.544 111.56 66.028 111.764 65.716L111.416 65.308C110.864 65.488 109.364 65.668 108.728 65.704C108.428 65.728 108.2 65.728 107.936 65.716L108.044 66.712C108.932 66.568 110.228 66.412 110.624 66.352ZM110.504 64.372C110.504 64.816 110.216 68.62 110.192 69.676C110.18 70.996 110.168 71.596 110.168 72.76C110.168 72.952 110.156 73.24 110.132 73.468H111.164C111.152 73.24 111.116 72.94 111.104 72.736C111.056 71.668 111.056 70.936 111.056 69.844C111.056 67.732 111.416 64.3 111.584 63.52L110.456 63.484C110.516 63.784 110.504 64.096 110.504 64.372ZM119.645 65.032L119.753 66.088C121.061 65.812 124.109 65.512 125.405 65.38C124.301 66.028 123.161 67.552 123.161 69.424C123.161 72.112 125.681 73.288 127.913 73.372L128.249 72.388C126.305 72.304 124.109 71.56 124.109 69.22C124.109 67.804 125.153 65.968 126.869 65.416C127.481 65.248 128.525 65.224 129.221 65.236L129.209 64.276C128.405 64.3 127.289 64.372 125.981 64.48C123.761 64.672 121.505 64.888 120.725 64.972C120.485 64.996 120.101 65.02 119.645 65.032ZM133.313 64.636L132.149 64.612C132.221 64.888 132.221 65.404 132.221 65.68C132.221 66.376 132.245 67.84 132.353 68.872C132.689 71.98 133.769 73.108 134.909 73.108C135.725 73.108 136.445 72.412 137.177 70.384L136.421 69.532C136.109 70.732 135.545 71.968 134.933 71.968C134.069 71.968 133.493 70.636 133.289 68.632C133.205 67.648 133.193 66.544 133.205 65.8C133.217 65.488 133.253 64.912 133.313 64.636ZM139.553 64.96L138.629 65.284C139.769 66.688 140.501 69.16 140.705 71.32L141.677 70.936C141.497 68.908 140.633 66.352 139.553 64.96ZM145.493 64.168L145.517 65.152C145.781 65.116 146.045 65.104 146.321 65.08C146.945 65.044 149.345 64.948 149.981 64.912C149.381 65.452 147.869 66.712 147.197 67.264C146.513 67.852 144.965 69.148 143.969 69.964L144.665 70.66C146.177 69.112 147.257 68.272 149.249 68.272C150.821 68.272 151.949 69.148 151.949 70.336C151.949 71.836 150.665 72.676 148.625 72.676C147.677 72.676 147.017 72.328 147.017 71.74C147.017 71.32 147.437 70.984 147.989 70.984C148.949 70.984 149.537 71.716 149.609 72.736L150.473 72.592C150.389 71.38 149.585 70.252 147.989 70.252C146.885 70.252 146.141 70.996 146.141 71.812C146.141 72.82 147.137 73.528 148.769 73.528C151.313 73.528 152.909 72.268 152.909 70.336C152.909 68.716 151.481 67.528 149.489 67.528C148.949 67.528 148.373 67.588 147.821 67.768C148.757 67 150.389 65.596 150.977 65.14C151.205 64.96 151.445 64.804 151.661 64.66L151.109 63.952C150.977 64 150.809 64.024 150.449 64.06C149.813 64.12 146.969 64.204 146.333 64.204C146.093 64.204 145.757 64.192 145.493 64.168ZM157.073 64.24V65.236C157.385 65.212 157.769 65.188 158.177 65.188C158.849 65.188 161.645 65.188 162.317 65.188C162.653 65.188 163.073 65.212 163.433 65.236V64.24C163.085 64.276 162.653 64.3 162.317 64.3C161.645 64.3 158.849 64.3 158.153 64.3C157.769 64.3 157.409 64.276 157.073 64.24ZM155.645 67.252V68.248C155.969 68.224 156.329 68.212 156.689 68.212C157.385 68.212 163.901 68.212 164.537 68.212C164.837 68.212 165.221 68.224 165.485 68.248V67.252C165.185 67.288 164.789 67.312 164.537 67.312C163.901 67.312 157.385 67.312 156.689 67.312C156.317 67.312 155.969 67.288 155.645 67.252ZM161.297 67.732L160.289 67.744C160.277 69.064 160.193 70.24 159.593 71.188C159.113 71.956 158.249 72.64 157.325 73.036L158.213 73.684C159.233 73.168 160.133 72.304 160.577 71.5C161.105 70.492 161.297 69.244 161.297 67.732ZM164.057 63.256L163.421 63.532C163.745 63.988 164.153 64.708 164.381 65.188L165.029 64.9C164.789 64.42 164.357 63.688 164.057 63.256ZM165.365 62.776L164.741 63.052C165.077 63.496 165.473 64.18 165.737 64.696L166.373 64.408C166.145 63.964 165.689 63.22 165.365 62.776ZM167.849 67.804V68.98C168.233 68.956 168.869 68.932 169.529 68.932C170.417 68.932 175.205 68.932 176.117 68.932C176.645 68.932 177.149 68.968 177.401 68.98V67.804C177.125 67.828 176.705 67.876 176.105 67.876C175.217 67.876 170.405 67.876 169.529 67.876C168.845 67.876 168.221 67.84 167.849 67.804ZM183.617 67.504L182.957 68.176C184.445 69.1 186.497 70.576 187.601 71.584L188.309 70.744C187.121 69.784 185.153 68.404 183.617 67.504ZM189.101 65.32L188.309 64.84C188.117 64.912 187.853 64.948 187.529 64.948H183.713L183.329 65.812H187.769C187.493 66.928 186.737 68.452 185.813 69.556C184.733 70.84 183.101 72.112 180.869 72.784L181.721 73.54C184.001 72.7 185.561 71.416 186.653 70.072C187.709 68.776 188.465 67.18 188.825 65.956C188.885 65.764 189.005 65.488 189.101 65.32ZM185.057 63.58L183.965 63.232C183.893 63.544 183.701 63.976 183.581 64.18C183.029 65.284 181.793 67.084 179.741 68.368L180.533 68.98C182.453 67.66 183.809 65.848 184.517 64.528C184.637 64.3 184.853 63.892 185.057 63.58ZM198.917 64.864L198.233 65.164C198.629 65.704 199.061 66.46 199.349 67.084L200.057 66.772C199.781 66.196 199.229 65.308 198.917 64.864ZM200.465 64.252L199.793 64.576C200.189 65.104 200.621 65.836 200.945 66.46L201.641 66.124C201.353 65.572 200.777 64.672 200.465 64.252ZM191.273 69.844L192.161 70.756C192.353 70.516 192.605 70.144 192.857 69.832C193.397 69.172 194.405 67.852 194.981 67.156C195.389 66.652 195.617 66.616 196.085 67.06C196.589 67.564 197.693 68.752 198.389 69.532C199.169 70.408 200.225 71.644 201.077 72.676L201.905 71.8C200.981 70.804 199.781 69.508 198.965 68.644C198.269 67.9 197.237 66.82 196.505 66.136C195.689 65.356 195.125 65.488 194.489 66.244C193.733 67.144 192.689 68.476 192.113 69.052C191.801 69.364 191.573 69.58 191.273 69.844ZM203.849 67.804V68.98C204.233 68.956 204.869 68.932 205.529 68.932C206.417 68.932 211.205 68.932 212.117 68.932C212.645 68.932 213.149 68.968 213.401 68.98V67.804C213.125 67.828 212.705 67.876 212.105 67.876C211.217 67.876 206.405 67.876 205.529 67.876C204.845 67.876 204.221 67.84 203.849 67.804ZM223.627 64.984L223.027 64.516C222.835 64.576 222.511 64.612 222.127 64.612C221.671 64.612 217.963 64.612 217.495 64.612C217.123 64.612 216.439 64.564 216.283 64.54V65.62C216.415 65.608 217.063 65.56 217.495 65.56C217.903 65.56 221.743 65.56 222.175 65.56C221.863 66.556 220.987 67.984 220.171 68.908C218.935 70.276 217.171 71.716 215.227 72.46L215.995 73.264C217.891 72.4 219.607 70.972 220.951 69.472C221.947 68.368 222.859 66.688 223.339 65.5C223.399 65.344 223.555 65.08 223.627 64.984ZM221.107 68.848L220.423 69.52C221.719 70.66 223.123 72.196 223.987 73.336L224.815 72.604C223.999 71.608 222.403 69.928 221.107 68.848ZM234.679 67.492V64.648C234.679 64.18 234.727 63.796 234.739 63.676H233.647C233.671 63.784 233.707 64.18 233.707 64.648V67.564C233.707 70.936 232.627 71.968 230.443 72.796L231.247 73.564C233.983 72.328 234.679 70.684 234.679 67.492ZM230.347 63.748H229.279C229.315 64.024 229.339 64.36 229.339 64.612V69.016C229.339 69.472 229.291 69.988 229.279 70.096H230.347C230.335 69.988 230.299 69.46 230.299 69.016V64.612C230.299 64.204 230.335 63.856 230.347 63.748ZM226.843 66.076V67.108C226.975 67.108 227.515 67.072 228.043 67.072H235.999C236.527 67.072 236.959 67.096 237.091 67.108V66.088C236.923 66.112 236.527 66.16 235.987 66.16H228.043C227.539 66.16 226.951 66.088 226.843 66.076ZM239.251 67.804V68.98C239.635 68.956 240.271 68.932 240.931 68.932C241.819 68.932 246.607 68.932 247.519 68.932C248.047 68.932 248.551 68.968 248.803 68.98V67.804C248.527 67.828 248.107 67.876 247.507 67.876C246.619 67.876 241.807 67.876 240.931 67.876C240.247 67.876 239.623 67.84 239.251 67.804ZM258.775 63.604L258.139 63.88C258.463 64.336 258.859 65.056 259.099 65.536L259.747 65.248C259.507 64.756 259.075 64.036 258.775 63.604ZM260.083 63.124L259.459 63.4C259.795 63.844 260.191 64.528 260.443 65.044L261.091 64.756C260.863 64.312 260.407 63.568 260.083 63.124ZM253.387 64H252.271C252.319 64.288 252.343 64.684 252.343 64.972C252.343 65.62 252.343 70.42 252.343 71.572C252.343 72.556 252.859 72.976 253.771 73.144C254.275 73.228 254.983 73.252 255.703 73.252C257.011 73.252 258.811 73.168 259.855 73.012V71.908C258.847 72.172 257.011 72.292 255.739 72.292C255.151 72.292 254.539 72.268 254.155 72.196C253.579 72.088 253.315 71.932 253.315 71.308C253.315 70.444 253.315 65.62 253.315 64.972C253.315 64.636 253.351 64.288 253.387 64ZM252.871 67.792L252.883 68.788C254.359 68.416 256.735 67.72 258.223 67.12C258.583 66.976 259.015 66.784 259.363 66.64L258.943 65.68C258.595 65.896 258.247 66.064 257.887 66.232C256.495 66.82 254.323 67.48 252.871 67.792ZM271.627 64.984L271.027 64.516C270.835 64.576 270.511 64.612 270.127 64.612C269.671 64.612 265.963 64.612 265.495 64.612C265.123 64.612 264.439 64.564 264.283 64.54V65.62C264.415 65.608 265.063 65.56 265.495 65.56C265.903 65.56 269.743 65.56 270.175 65.56C269.863 66.556 268.987 67.984 268.171 68.908C266.935 70.276 265.171 71.716 263.227 72.46L263.995 73.264C265.891 72.4 267.607 70.972 268.951 69.472C269.947 68.368 270.859 66.688 271.339 65.5C271.399 65.344 271.555 65.08 271.627 64.984ZM269.107 68.848L268.423 69.52C269.719 70.66 271.123 72.196 271.987 73.336L272.815 72.604C271.999 71.608 270.403 69.928 269.107 68.848Z" fill="black"/>
<path d="M19.42 21.3V23.08C19.9 23.04 20.88 23 21.62 23H31.22V33.42C31.22 34.14 31.18 34.88 31.18 35.18H32.98C32.96 34.88 32.9 33.98 32.9 33.26V22.92C32.9 22.46 32.92 21.82 32.94 21.38C32.54 21.4 31.96 21.42 31.46 21.42H21.62C20.96 21.42 20.1 21.36 19.42 21.3ZM19.18 32.34V34.16C19.72 34.1 20.62 34.08 21.44 34.08H32.12V32.44H21.38C20.56 32.44 19.68 32.38 19.18 32.34ZM40.54 20.36L39.38 21.58C40.88 22.56 43.36 24.72 44.38 25.76L45.62 24.48C44.52 23.38 41.94 21.3 40.54 20.36ZM38.82 33.76L39.86 35.4C43.2 34.78 45.72 33.54 47.74 32.28C50.76 30.38 53.08 27.66 54.44 25.18L53.48 23.46C52.32 25.94 49.9 28.9 46.8 30.84C44.9 32.02 42.3 33.24 38.82 33.76ZM62.1 32.44C62.1 34.4 62.8 35.38 66.52 35.38C69.02 35.38 71.02 35.22 72.8 34.96L72.86 33.24C70.88 33.64 68.94 33.84 66.62 33.84C64.24 33.84 63.72 33.4 63.72 32.02C63.72 30.04 63.72 23.5 63.72 21.4C63.72 20.82 63.78 20.14 63.86 19.56H61.98C62.08 20.14 62.1 20.8 62.1 21.4C62.1 23.52 62.1 30.6 62.1 32.44ZM73.72 23.5L72.54 22.58C72.3 22.72 71.9 22.84 71.48 22.94C69.96 23.3 59.74 25.36 57.18 25.66L57.5 27.34C59.9 26.82 70.68 24.66 71.3 24.54C70.7 25.72 69.24 27.92 67.74 29.3L69.12 30.12C70.74 28.48 72.3 25.96 73.22 24.3C73.36 24.06 73.56 23.72 73.72 23.5ZM92.1 20.64C92.1 19.92 92.68 19.32 93.42 19.32C94.14 19.32 94.74 19.92 94.74 20.64C94.74 21.38 94.14 21.96 93.42 21.96C92.68 21.96 92.1 21.38 92.1 20.64ZM91.18 20.64C91.18 21.88 92.18 22.88 93.42 22.88C94.66 22.88 95.66 21.88 95.66 20.64C95.66 19.4 94.66 18.4 93.42 18.4C92.18 18.4 91.18 19.4 91.18 20.64ZM92.92 21.98L91.7 21.2C91.32 21.3 90.94 21.32 90.62 21.32C89.72 21.32 81.74 21.32 80.6 21.32C79.94 21.32 79.14 21.24 78.6 21.18V22.96C79.1 22.92 79.78 22.88 80.58 22.88C81.74 22.88 89.66 22.88 90.82 22.88C90.54 24.8 89.62 27.6 88.2 29.4C86.52 31.54 84.28 33.24 80.4 34.22L81.76 35.72C85.42 34.56 87.8 32.72 89.62 30.36C91.22 28.32 92.18 25.08 92.62 22.98C92.7 22.6 92.78 22.26 92.92 21.98ZM102.72 33.24C102.72 33.98 102.7 34.98 102.6 35.62H104.54C104.46 34.96 104.42 33.88 104.42 33.24C104.42 32.3 104.4 24.72 104.4 21.62C104.4 21 104.46 20.14 104.54 19.52H102.58C102.68 20.16 102.72 21.04 102.72 21.62C102.72 23.28 102.72 32.12 102.72 33.24ZM104.04 24.78V26.54C106.22 27.22 109.96 28.64 112.24 29.86L112.94 28.16C110.72 27.08 106.68 25.54 104.04 24.78Z" fill="black"/>
<path d="M75.276 215.748L75.912 216.276C76.008 216.216 76.128 216.108 76.332 216.012C77.724 215.316 79.38 214.092 80.424 212.688L79.848 211.86C78.936 213.216 77.46 214.308 76.344 214.812C76.344 214.452 76.344 208.644 76.344 207.9C76.344 207.444 76.392 207.096 76.404 207H75.3C75.3 207.096 75.36 207.432 75.36 207.888C75.36 208.644 75.36 214.524 75.36 215.076C75.36 215.316 75.324 215.568 75.276 215.748ZM69.78 215.7L70.692 216.3C71.7 215.46 72.468 214.296 72.828 213.012C73.152 211.812 73.188 209.232 73.188 207.9C73.188 207.552 73.236 207.18 73.248 207.048H72.144C72.204 207.3 72.228 207.564 72.228 207.912C72.228 209.256 72.228 211.644 71.868 212.748C71.508 213.912 70.8 214.98 69.78 215.7ZM82.212 210.804V211.98C82.596 211.956 83.232 211.932 83.892 211.932C84.78 211.932 89.568 211.932 90.48 211.932C91.008 211.932 91.512 211.968 91.764 211.98V210.804C91.488 210.828 91.068 210.876 90.468 210.876C89.58 210.876 84.768 210.876 83.892 210.876C83.208 210.876 82.584 210.84 82.212 210.804ZM99.276 215.748L99.912 216.276C100.008 216.216 100.128 216.108 100.332 216.012C101.724 215.316 103.38 214.092 104.424 212.688L103.848 211.86C102.936 213.216 101.46 214.308 100.344 214.812C100.344 214.452 100.344 208.644 100.344 207.9C100.344 207.444 100.392 207.096 100.404 207H99.3C99.3 207.096 99.36 207.432 99.36 207.888C99.36 208.644 99.36 214.524 99.36 215.076C99.36 215.316 99.324 215.568 99.276 215.748ZM93.78 215.7L94.692 216.3C95.7 215.46 96.468 214.296 96.828 213.012C97.152 211.812 97.188 209.232 97.188 207.9C97.188 207.552 97.236 207.18 97.248 207.048H96.144C96.204 207.3 96.228 207.564 96.228 207.912C96.228 209.256 96.228 211.644 95.868 212.748C95.508 213.912 94.8 214.98 93.78 215.7ZM111.648 208.392L112.332 207.852C111.888 207.384 110.976 206.628 110.58 206.316L109.896 206.808C110.4 207.192 111.192 207.924 111.648 208.392ZM107.832 207.348L106.86 207.744C107.052 207.984 107.292 208.368 107.436 208.608C107.844 209.292 108.384 210.456 108.948 211.716C109.632 213.288 110.208 215.208 110.58 216.636L111.612 216.36C111.204 215.028 110.436 212.808 109.788 211.308C109.296 210.216 108.72 209.004 108.252 208.164C108.132 207.936 107.928 207.552 107.832 207.348ZM105.708 210.852L106.176 211.836C107.688 211.176 111.24 209.1 113.244 209.1C114.42 209.1 114.984 209.76 114.984 210.468C114.984 211.32 114.444 212.052 113.124 212.052C112.488 212.052 111.888 211.872 111.42 211.656L111.396 212.604C111.84 212.772 112.524 212.94 113.196 212.94C115.068 212.94 115.944 211.896 115.944 210.504C115.944 209.196 114.936 208.26 113.268 208.26C111.276 208.26 108.36 209.892 106.692 210.528C106.476 210.624 106.056 210.768 105.708 210.852ZM117.768 207.924V208.728H122.04V207.924H117.768ZM117.516 210.696V211.524H122.28V210.696H117.516ZM119.496 206.052V210.204C119.496 212.064 119.412 214.704 117.444 216.168C117.648 216.336 117.936 216.636 118.056 216.828C120.168 215.124 120.36 212.316 120.36 210.192V206.052H119.496ZM120.156 212.136L119.604 212.568C120.084 213.084 121.284 214.548 121.704 215.172L122.316 214.5C121.992 214.116 120.564 212.508 120.156 212.136ZM123.564 209.136H126.996V210.324H123.564V209.136ZM123.564 211.068H126.996V212.268H123.564V211.068ZM123.564 207.204H126.996V208.38H123.564V207.204ZM122.712 206.4V213.084H127.86V206.4H122.712ZM125.592 212.724V215.64C125.592 216.492 125.784 216.756 126.6 216.756C126.768 216.756 127.416 216.756 127.584 216.756C128.304 216.756 128.52 216.348 128.592 214.704C128.364 214.644 128.004 214.512 127.836 214.356C127.8 215.772 127.752 215.952 127.5 215.952C127.356 215.952 126.84 215.952 126.732 215.952C126.468 215.952 126.444 215.916 126.444 215.628V212.724H125.592ZM123.696 212.892C123.528 214.476 123.06 215.652 121.14 216.276C121.32 216.432 121.56 216.756 121.656 216.948C123.768 216.192 124.344 214.812 124.56 212.892H123.696ZM136.14 207.372V214.02H137.004V207.372H136.14ZM139.08 206.148V215.772C139.08 216 138.984 216.072 138.756 216.072C138.528 216.084 137.772 216.096 136.92 216.06C137.064 216.324 137.208 216.732 137.256 216.972C138.36 216.984 139.032 216.96 139.428 216.804C139.8 216.66 139.968 216.384 139.968 215.772V206.148H139.08ZM130.992 214.32C130.656 215.112 130.056 215.904 129.408 216.432C129.636 216.564 129.996 216.828 130.164 216.984C130.812 216.396 131.484 215.484 131.88 214.56L130.992 214.32ZM133.08 214.668C133.608 215.316 134.172 216.216 134.412 216.792L135.24 216.384C134.964 215.808 134.4 214.956 133.848 214.332L133.08 214.668ZM131.004 209.424H133.932V210.912H131.004V209.424ZM131.004 211.656H133.932V213.168H131.004V211.656ZM131.004 207.204H133.932V208.68H131.004V207.204ZM130.152 206.388V213.972H134.82V206.388H130.152ZM146.52 206.52L145.536 206.436C145.5 207 145.332 207.72 145.068 208.38C144.66 209.4 143.856 210.792 142.128 212.448L142.956 213.06C143.352 212.568 143.688 212.136 144.036 211.8C144.588 211.308 145.344 210.924 146.112 210.924C146.736 210.924 147.216 211.248 147.228 211.944C147.24 212.568 147.228 213.804 147.18 214.44H148.104C148.092 213.696 148.068 212.316 148.068 211.692C148.068 210.72 147.348 210.168 146.424 210.168C145.896 210.168 145.212 210.336 144.744 210.612C145.224 209.988 145.668 209.184 145.968 208.452C146.28 207.648 146.412 206.988 146.52 206.52ZM142.404 207.816V208.716C143.076 208.764 143.868 208.788 144.384 208.788C145.908 208.788 148.14 208.68 149.82 208.428V207.54C148.128 207.84 146.052 207.936 144.432 207.936C143.88 207.936 143.052 207.9 142.404 207.816ZM151.572 210.708L151.188 209.82C150.852 209.988 150.552 210.12 150.192 210.288C149.4 210.66 148.428 211.032 147.288 211.62C145.86 212.352 144.372 213.252 144.372 214.716C144.372 216.168 145.752 216.54 147.456 216.54C148.5 216.54 149.832 216.444 150.744 216.336L150.78 215.364C149.724 215.556 148.428 215.664 147.492 215.664C146.256 215.664 145.332 215.52 145.332 214.584C145.332 213.756 146.172 213.108 147.36 212.484C148.524 211.884 149.664 211.428 150.516 211.092C150.84 210.972 151.272 210.804 151.572 210.708ZM101.952 222.048V230.652C101.952 230.904 101.868 230.988 101.604 231C101.316 231.012 100.344 231.024 99.372 230.976C99.516 231.24 99.696 231.684 99.756 231.948C100.944 231.948 101.784 231.936 102.264 231.78C102.732 231.636 102.888 231.324 102.888 230.676V222.048H101.952ZM94.896 224.448V229.884H95.772V224.448H94.896ZM95.268 224.448V225.3H98.916V228.06H95.268V228.924H99.816V224.448H95.268ZM93.66 221.772V222.684H104.364V221.772H93.66ZM113.46 228.036V230.772C113.46 231.624 113.652 231.876 114.492 231.876C114.66 231.876 115.44 231.876 115.62 231.876C116.304 231.876 116.532 231.504 116.616 229.992C116.388 229.932 116.04 229.812 115.872 229.668C115.836 230.94 115.788 231.108 115.512 231.108C115.356 231.108 114.732 231.108 114.612 231.108C114.336 231.108 114.288 231.06 114.288 230.772V228.036H113.46ZM111.504 224.256H114.84V225.528H111.504V224.256ZM111.504 226.236H114.84V227.52H111.504V226.236ZM111.504 222.288H114.84V223.536H111.504V222.288ZM110.664 221.544V228.264H115.704V221.544H110.664ZM111.648 228.012C111.48 229.548 111.036 230.676 109.248 231.276C109.428 231.444 109.68 231.768 109.776 231.972C111.768 231.216 112.32 229.884 112.524 228.012H111.648ZM105.66 223.176V224.004H109.404V223.176H105.66ZM107.412 226.764V231.96H108.288V225.708L107.412 226.764ZM107.412 220.932V223.584H108.288V220.932H107.412ZM108.288 225.828L107.76 226.308C108.24 226.74 109.332 227.892 109.74 228.432L110.292 227.676C109.98 227.364 108.672 226.14 108.288 225.828ZM109.104 223.176V223.368C108.408 225.192 106.776 227.016 105.228 227.976C105.372 228.132 105.6 228.552 105.684 228.78C107.328 227.676 109.092 225.672 109.944 223.476L109.44 223.14L109.284 223.176H109.104ZM122.832 221.22V230.112C122.832 231.432 123.216 231.792 124.476 231.792C124.752 231.792 126.636 231.792 126.948 231.792C128.196 231.792 128.46 231.108 128.604 229.14C128.34 229.08 127.968 228.912 127.74 228.744C127.656 230.496 127.56 230.94 126.9 230.94C126.492 230.94 124.86 230.94 124.536 230.94C123.864 230.94 123.744 230.796 123.744 230.124V221.22H122.832ZM127.332 223.212C126.312 224.148 124.596 225.264 123.06 226.068C123.192 226.26 123.372 226.572 123.432 226.776C125.016 225.948 126.78 224.976 127.992 223.98L127.332 223.212ZM120.744 221.112C119.952 223.008 118.632 224.832 117.24 225.996C117.42 226.212 117.696 226.68 117.792 226.896C119.28 225.564 120.72 223.512 121.62 221.4L120.744 221.112ZM119.376 224.244V231.948H120.264V223.38L120.252 223.368L119.376 224.244Z" fill="black"/>
<circle cx="111" cy="143" r="53" fill="#F0C65A"/>
<path d="M138.842 108H90.502C88.2479 108.002 86.0868 108.901 84.4929 110.499C82.899 112.096 82.0024 114.262 82 116.522V174.803C82.0012 175.915 82.4421 176.981 83.226 177.768C84.0099 178.555 85.0729 178.998 86.1822 179H128.825C129.4 178.999 129.952 178.769 130.358 178.361C130.764 177.953 130.992 177.4 130.992 176.824V119.007C130.992 118.469 130.793 117.95 130.432 117.552C130.071 117.154 129.575 116.905 129.041 116.853H90.6122C90.3856 116.854 90.1609 116.811 89.9513 116.724C89.7416 116.638 89.551 116.511 89.3906 116.351C89.2301 116.19 89.1029 116 89.0163 115.79C88.9297 115.58 88.8855 115.355 88.8861 115.128C88.8872 114.668 89.0672 114.227 89.388 113.899C89.7087 113.57 90.1447 113.381 90.603 113.37H135.018C135.036 113.37 135.054 113.374 135.071 113.381C135.087 113.388 135.102 113.398 135.115 113.411C135.138 113.436 135.151 113.469 135.151 113.503V171.04C135.151 171.617 135.38 172.17 135.787 172.579C136.195 172.987 136.747 173.216 137.323 173.216H138.833C139.408 173.215 139.959 172.985 140.366 172.577C140.772 172.169 141 171.616 141 171.04V110.172C140.999 109.598 140.771 109.047 140.367 108.641C139.963 108.234 139.415 108.004 138.842 108Z" fill="black"/>
<path d="M100.096 131.312V132.368H105.904V131.312H100.096ZM99.432 135.952V137.056H106.576V135.952H99.432ZM108.192 132.568V133.328H110.48V132.568H108.192ZM107.744 131.152V136.592L108.632 136.48V131.152H107.744ZM108.936 130.28V131.728H109.856V130.28H108.936ZM107.232 136.384L107.456 137.376C108.296 137.176 109.392 136.92 110.408 136.664L110.32 135.752C109.2 135.992 108.016 136.248 107.232 136.384ZM109.352 135.168C109.792 135.856 110.272 136.776 110.448 137.36L111.312 136.928C111.104 136.336 110.592 135.456 110.136 134.792L109.352 135.168ZM108.168 131.152V132.04H110.104V133.864H108.168V134.752H110.984V131.152H108.168ZM111.472 130.696V137.728H112.4V131.6H113.912V130.696H111.472ZM113.68 130.696V131.048C113.48 131.616 113.072 132.84 112.728 133.6C113.432 134.216 113.64 134.792 113.64 135.224C113.64 135.496 113.584 135.664 113.432 135.744C113.328 135.8 113.208 135.816 113.088 135.824C112.952 135.824 112.776 135.824 112.576 135.808C112.728 136.088 112.824 136.512 112.84 136.776C113.08 136.792 113.336 136.792 113.536 136.76C113.768 136.728 113.968 136.664 114.128 136.552C114.456 136.336 114.608 135.944 114.608 135.344C114.608 134.816 114.464 134.184 113.72 133.472C114.064 132.792 114.448 131.904 114.76 131.12L114.024 130.664L113.872 130.696H113.68ZM93.144 140.6L92.512 140.856C92.728 141.168 92.976 141.64 93.144 141.968L93.784 141.696C93.632 141.4 93.344 140.896 93.144 140.6ZM94.096 140.24L93.464 140.496C93.68 140.8 93.936 141.264 94.104 141.6L94.736 141.328C94.6 141.048 94.304 140.536 94.096 140.24ZM91.096 140.672H89.912C89.944 140.864 89.976 141.224 89.976 141.408C89.968 143.512 89.6 144.872 88.552 145.912C88.232 146.24 87.832 146.512 87.496 146.696L88.432 147.448C90.2 146.184 90.952 144.568 91.04 141.384C91.048 141.192 91.072 140.856 91.096 140.672ZM93.808 142.384L93.12 142.048C92.928 142.08 92.72 142.104 92.512 142.104H88.808C88.504 142.104 88.096 142.08 87.76 142.048V143.096C88.096 143.064 88.544 143.064 88.816 143.064H92.72C92.72 143.928 92.608 145.528 92.376 146.032C92.296 146.224 92.184 146.312 91.928 146.312C91.608 146.312 91.2 146.272 90.8 146.2L90.928 147.272C91.32 147.304 91.792 147.336 92.256 147.336C92.8 147.336 93.112 147.128 93.28 146.72C93.624 145.904 93.728 143.672 93.76 142.808C93.76 142.72 93.784 142.512 93.808 142.384ZM93.896 143.896L94.392 144.904C95.656 144.528 96.952 143.928 97.856 143.392C98.8 142.824 99.776 142.072 100.504 141.336L99.64 140.52C99.12 141.152 98.208 141.952 97.392 142.456C96.496 143.008 95.328 143.528 93.896 143.896ZM97.224 142.976V146.312C97.224 146.664 97.192 147.168 97.16 147.36H98.432C98.376 147.16 98.36 146.664 98.36 146.312V142.704L97.224 142.976ZM105.248 141.048L104.576 141.336C104.872 141.744 105.048 142.064 105.288 142.568L105.976 142.264C105.8 141.896 105.472 141.384 105.248 141.048ZM106.296 140.616L105.632 140.928C105.928 141.32 106.12 141.616 106.376 142.128L107.048 141.792C106.872 141.432 106.536 140.936 106.296 140.616ZM102.064 146.352C102.064 146.672 102.032 147.152 101.984 147.464H103.232C103.2 147.144 103.16 146.584 103.16 146.352C103.16 145.76 103.16 142.64 103.16 141.752C103.16 141.424 103.2 141.072 103.232 140.792H101.976C102.032 141.072 102.064 141.464 102.064 141.752C102.064 142.432 102.064 145.744 102.064 146.352ZM102.92 142.856V144.008C103.792 144.296 105.144 144.808 106.048 145.28L106.504 144.176C105.712 143.784 103.992 143.152 102.92 142.856ZM107.984 140.864V141.904C108.216 141.88 108.552 141.872 108.816 141.872C109.288 141.872 111.432 141.872 111.872 141.872C112.168 141.872 112.544 141.888 112.752 141.904V140.864C112.536 140.896 112.144 140.912 111.888 140.912C111.424 140.912 109.32 140.912 108.816 140.912C108.544 140.912 108.2 140.896 107.984 140.864ZM113.432 143.192L112.72 142.744C112.608 142.8 112.392 142.832 112.128 142.832C111.584 142.832 108.72 142.832 108.176 142.832C107.92 142.832 107.584 142.808 107.24 142.776V143.816C107.576 143.792 107.976 143.784 108.176 143.784C108.888 143.784 111.632 143.784 112.032 143.784C111.896 144.224 111.64 144.728 111.216 145.16C110.6 145.792 109.648 146.312 108.44 146.568L109.24 147.472C110.264 147.176 111.288 146.64 112.096 145.736C112.688 145.08 113.032 144.296 113.28 143.52C113.304 143.44 113.376 143.296 113.432 143.192ZM113.096 143.896L113.592 144.904C114.856 144.528 116.152 143.928 117.056 143.392C118 142.824 118.976 142.072 119.704 141.336L118.84 140.52C118.32 141.152 117.408 141.952 116.592 142.456C115.696 143.008 114.528 143.528 113.096 143.896ZM116.424 142.976V146.312C116.424 146.664 116.392 147.168 116.36 147.36H117.632C117.576 147.16 117.56 146.664 117.56 146.312V142.704L116.424 142.976ZM120.928 140.92L120.168 141.728C120.752 142.128 121.76 143 122.176 143.448L122.992 142.616C122.52 142.128 121.48 141.296 120.928 140.92ZM119.92 146.248L120.6 147.304C121.72 147.112 122.752 146.672 123.568 146.184C124.856 145.408 125.92 144.304 126.52 143.216L125.904 142.096C125.392 143.176 124.352 144.392 122.984 145.208C122.208 145.664 121.176 146.072 119.92 146.248Z" fill="white"/>
<path d="M220.916 207.24V208.236C221.228 208.212 221.612 208.188 222.02 208.188C222.692 208.188 225.488 208.188 226.16 208.188C226.496 208.188 226.916 208.212 227.276 208.236V207.24C226.928 207.276 226.496 207.3 226.16 207.3C225.488 207.3 222.692 207.3 221.996 207.3C221.612 207.3 221.252 207.276 220.916 207.24ZM219.488 210.252V211.248C219.812 211.224 220.172 211.212 220.532 211.212C221.228 211.212 227.744 211.212 228.38 211.212C228.68 211.212 229.064 211.224 229.328 211.248V210.252C229.028 210.288 228.632 210.312 228.38 210.312C227.744 210.312 221.228 210.312 220.532 210.312C220.16 210.312 219.812 210.288 219.488 210.252ZM225.14 210.732L224.132 210.744C224.12 212.064 224.036 213.24 223.436 214.188C222.956 214.956 222.092 215.64 221.168 216.036L222.056 216.684C223.076 216.168 223.976 215.304 224.42 214.5C224.948 213.492 225.14 212.244 225.14 210.732ZM227.9 206.256L227.264 206.532C227.588 206.988 227.996 207.708 228.224 208.188L228.872 207.9C228.632 207.42 228.2 206.688 227.9 206.256ZM229.208 205.776L228.584 206.052C228.92 206.496 229.316 207.18 229.58 207.696L230.216 207.408C229.988 206.964 229.532 206.22 229.208 205.776ZM231.692 210.804V211.98C232.076 211.956 232.712 211.932 233.372 211.932C234.26 211.932 239.048 211.932 239.96 211.932C240.488 211.932 240.992 211.968 241.244 211.98V210.804C240.968 210.828 240.548 210.876 239.948 210.876C239.06 210.876 234.248 210.876 233.372 210.876C232.688 210.876 232.064 210.84 231.692 210.804ZM247.46 210.504L246.8 211.176C248.288 212.1 250.34 213.576 251.444 214.584L252.152 213.744C250.964 212.784 248.996 211.404 247.46 210.504ZM252.944 208.32L252.152 207.84C251.96 207.912 251.696 207.948 251.372 207.948H247.556L247.172 208.812H251.612C251.336 209.928 250.58 211.452 249.656 212.556C248.576 213.84 246.944 215.112 244.712 215.784L245.564 216.54C247.844 215.7 249.404 214.416 250.496 213.072C251.552 211.776 252.308 210.18 252.668 208.956C252.728 208.764 252.848 208.488 252.944 208.32ZM248.9 206.58L247.808 206.232C247.736 206.544 247.544 206.976 247.424 207.18C246.872 208.284 245.636 210.084 243.584 211.368L244.376 211.98C246.296 210.66 247.652 208.848 248.36 207.528C248.48 207.3 248.696 206.892 248.9 206.58ZM262.76 207.864L262.076 208.164C262.472 208.704 262.904 209.46 263.192 210.084L263.9 209.772C263.624 209.196 263.072 208.308 262.76 207.864ZM264.308 207.252L263.636 207.576C264.032 208.104 264.464 208.836 264.788 209.46L265.484 209.124C265.196 208.572 264.62 207.672 264.308 207.252ZM255.116 212.844L256.004 213.756C256.196 213.516 256.448 213.144 256.7 212.832C257.24 212.172 258.248 210.852 258.824 210.156C259.232 209.652 259.46 209.616 259.928 210.06C260.432 210.564 261.536 211.752 262.232 212.532C263.012 213.408 264.068 214.644 264.92 215.676L265.748 214.8C264.824 213.804 263.624 212.508 262.808 211.644C262.112 210.9 261.08 209.82 260.348 209.136C259.532 208.356 258.968 208.488 258.332 209.244C257.576 210.144 256.532 211.476 255.956 212.052C255.644 212.364 255.416 212.58 255.116 212.844ZM267.692 210.804V211.98C268.076 211.956 268.712 211.932 269.372 211.932C270.26 211.932 275.048 211.932 275.96 211.932C276.488 211.932 276.992 211.968 277.244 211.98V210.804C276.968 210.828 276.548 210.876 275.948 210.876C275.06 210.876 270.248 210.876 269.372 210.876C268.688 210.876 268.064 210.84 267.692 210.804ZM287.471 207.984L286.871 207.516C286.679 207.576 286.355 207.612 285.971 207.612C285.515 207.612 281.807 207.612 281.339 207.612C280.967 207.612 280.283 207.564 280.127 207.54V208.62C280.259 208.608 280.907 208.56 281.339 208.56C281.747 208.56 285.587 208.56 286.019 208.56C285.707 209.556 284.831 210.984 284.015 211.908C282.779 213.276 281.015 214.716 279.071 215.46L279.839 216.264C281.735 215.4 283.451 213.972 284.795 212.472C285.791 211.368 286.703 209.688 287.183 208.5C287.243 208.344 287.399 208.08 287.471 207.984ZM284.951 211.848L284.267 212.52C285.563 213.66 286.967 215.196 287.831 216.336L288.659 215.604C287.843 214.608 286.247 212.928 284.951 211.848ZM295.343 207.9L295.355 208.872C296.663 209.016 298.991 209.016 300.275 208.872V207.9C299.087 208.08 296.651 208.128 295.343 207.9ZM295.811 212.796L294.947 212.712C294.815 213.288 294.755 213.72 294.755 214.116C294.755 215.244 295.655 215.916 297.659 215.916C298.907 215.916 299.915 215.82 300.659 215.664L300.635 214.656C299.675 214.884 298.739 214.98 297.671 214.98C296.027 214.98 295.643 214.44 295.643 213.888C295.643 213.564 295.703 213.228 295.811 212.796ZM293.063 206.976L291.995 206.892C291.983 207.156 291.947 207.456 291.911 207.732C291.767 208.728 291.371 210.78 291.371 212.544C291.371 214.176 291.575 215.556 291.815 216.408L292.667 216.348C292.655 216.216 292.643 216.048 292.631 215.928C292.631 215.784 292.655 215.556 292.691 215.388C292.799 214.812 293.243 213.552 293.543 212.7L293.039 212.304C292.835 212.796 292.559 213.516 292.355 214.056C292.283 213.468 292.247 212.964 292.247 212.388C292.247 211.032 292.619 208.896 292.847 207.78C292.895 207.564 292.991 207.18 293.063 206.976ZM308.375 206.58H307.235C307.283 206.808 307.319 207.336 307.331 207.78C307.331 208.296 307.343 209.28 307.343 209.976C307.343 211.2 307.487 213.528 307.487 214.416C307.487 215.244 307.055 215.664 306.179 215.664C305.015 215.664 304.343 215.292 304.343 214.632C304.343 213.96 305.051 213.54 306.299 213.54C308.399 213.54 310.367 214.716 311.567 215.916L312.143 215.016C310.919 213.9 308.783 212.7 306.407 212.7C304.331 212.7 303.395 213.576 303.395 214.668C303.395 216.036 304.607 216.552 306.275 216.552C307.871 216.552 308.471 215.712 308.471 214.74C308.471 213.684 308.279 211.284 308.279 209.976C308.279 209.148 308.279 208.32 308.279 207.78C308.291 207.42 308.327 206.844 308.375 206.58ZM307.751 209.004V209.892C308.615 209.892 310.571 209.808 311.867 209.688L311.831 208.788C310.535 208.944 308.579 209.004 307.751 209.004ZM316.376 207.168L316.4 208.152C316.664 208.116 316.928 208.104 317.204 208.08C317.828 208.044 320.228 207.948 320.864 207.912C320.264 208.452 318.752 209.712 318.08 210.264C317.396 210.852 315.848 212.148 314.852 212.964L315.548 213.66C317.06 212.112 318.14 211.272 320.132 211.272C321.704 211.272 322.832 212.148 322.832 213.336C322.832 214.836 321.548 215.676 319.508 215.676C318.56 215.676 317.9 215.328 317.9 214.74C317.9 214.32 318.32 213.984 318.872 213.984C319.832 213.984 320.42 214.716 320.492 215.736L321.356 215.592C321.272 214.38 320.468 213.252 318.872 213.252C317.768 213.252 317.024 213.996 317.024 214.812C317.024 215.82 318.02 216.528 319.652 216.528C322.196 216.528 323.792 215.268 323.792 213.336C323.792 211.716 322.364 210.528 320.372 210.528C319.832 210.528 319.256 210.588 318.704 210.768C319.64 210 321.272 208.596 321.86 208.14C322.088 207.96 322.328 207.804 322.544 207.66L321.992 206.952C321.86 207 321.692 207.024 321.332 207.06C320.696 207.12 317.852 207.204 317.216 207.204C316.976 207.204 316.64 207.192 316.376 207.168ZM248.936 229.812V230.664H252.488V229.812H248.936ZM248.564 221.964V231.624H249.428V222.816H251.984V231.492H252.884V221.964H248.564ZM245.012 222.948V225.348C245.012 227.208 244.736 229.596 242.396 231.264C242.588 231.396 242.912 231.744 243.032 231.936C245.516 230.16 245.924 227.4 245.924 225.36V222.948H245.012ZM243.776 222.54V223.38H247.82V222.54H243.776ZM242.528 225.768V226.632H248.18V225.768H242.528ZM245.636 227.352L245.084 227.868C245.636 228.456 247.016 230.1 247.52 230.832L248.132 230.076C247.748 229.62 246.104 227.772 245.636 227.352ZM243.884 220.92C243.596 222.384 243.104 223.824 242.384 224.748C242.588 224.868 242.972 225.12 243.128 225.264C243.836 224.244 244.412 222.696 244.76 221.088L243.884 220.92ZM258.956 228.168V228.816H261.5V228.168H258.956ZM258.308 222.24V222.96H262.244V222.24H258.308ZM257.996 225.012V225.756H265.4V225.012H257.996ZM258.932 226.512V227.184H261.176V229.848H258.932V230.52H261.932V226.512H258.932ZM258.632 226.512V231.168H259.352V226.512H258.632ZM259.892 220.932V222.588H260.72V220.932H259.892ZM258.8 223.212C258.992 223.776 259.124 224.484 259.136 224.952L259.832 224.796C259.82 224.328 259.664 223.608 259.448 223.068L258.8 223.212ZM263.576 221.772C264.092 222.42 264.584 223.32 264.764 223.932L265.508 223.608C265.304 223.008 264.788 222.132 264.26 221.496L263.576 221.772ZM261.056 223.008C260.972 223.536 260.78 224.328 260.636 224.832L261.272 224.976C261.44 224.52 261.632 223.788 261.824 223.164L261.056 223.008ZM262.532 220.944C262.58 227.544 262.724 231.9 264.644 232.008C265.064 232.02 265.46 231.552 265.688 229.884C265.544 229.812 265.232 229.596 265.1 229.416C265.028 230.412 264.872 231.036 264.668 231.024C263.54 230.928 263.276 226.884 263.324 220.944H262.532ZM264.38 226.296C263.732 228.648 262.328 230.412 260.672 231.408C260.84 231.54 261.08 231.768 261.188 231.924C262.892 230.856 264.344 229.056 265.088 226.656L264.38 226.296ZM254.936 224.556V225.276H257.864V224.556H254.936ZM254.996 221.352V222.072H257.84V221.352H254.996ZM254.936 226.164V226.884H257.864V226.164H254.936ZM254.456 222.924V223.668H258.152V222.924H254.456ZM255.332 227.784V228.528H257.132V230.532H255.332V231.276H257.876V227.784H255.332ZM254.912 227.784V231.84H255.644V227.784H254.912ZM272.756 222.816L271.76 222.792C271.64 224.04 271.388 225.396 271.04 226.536C270.428 228.564 269.78 229.38 269.216 229.38C268.676 229.38 267.992 228.708 267.992 227.196C267.992 225.432 269.636 223.26 272.276 223.26C274.58 223.26 275.912 224.844 275.912 226.764C275.912 228.84 274.4 229.992 272.864 230.34C272.576 230.4 272.216 230.448 271.832 230.484L272.384 231.372C275.24 231 276.896 229.32 276.896 226.812C276.896 224.376 275.108 222.396 272.3 222.396C269.36 222.396 267.044 224.664 267.044 227.268C267.044 229.26 268.112 230.484 269.192 230.484C270.296 230.484 271.256 229.212 271.988 226.752C272.36 225.468 272.6 224.064 272.756 222.816ZM281.36 221.028V227.748H282.284V221.028H281.36ZM285.704 221.028V227.748H286.64V221.028H285.704ZM278.576 227.184V228.06H289.472V227.184H278.576ZM279.056 223.464V224.328H289.04V223.464H279.056ZM285.044 229.2C286.184 230.052 287.636 231.24 288.356 231.96L289.208 231.408C288.44 230.688 286.94 229.536 285.824 228.744L285.044 229.2ZM281.936 228.756C281.264 229.656 279.92 230.7 278.732 231.336C278.948 231.504 279.26 231.78 279.44 231.972C280.652 231.276 282.02 230.172 282.872 229.116L281.936 228.756ZM290.756 222.48V223.332H301.268V222.48H290.756ZM293.684 226.764V227.544H299.324V226.764H293.684ZM293.048 224.724V231.96H293.936V225.528H299.18V224.724H293.048ZM298.976 224.724V230.832C298.976 231.012 298.904 231.072 298.7 231.084C298.484 231.084 297.752 231.096 296.948 231.06C297.08 231.312 297.212 231.684 297.248 231.936C298.28 231.936 298.952 231.936 299.336 231.792C299.744 231.648 299.852 231.372 299.852 230.844V224.724H298.976ZM294.68 220.92C294.032 223.332 292.616 225.876 290.468 227.352C290.648 227.532 290.924 227.844 291.044 228.048C293.336 226.44 294.776 223.776 295.592 221.136L294.68 220.92ZM293.684 228.792V229.572H299.324V228.792H293.684Z" fill="black"/>
<circle cx="272" cy="143" r="53" fill="#F0C65A"/>
<path d="M273.986 118.036C280.447 118.036 285.684 116.297 285.684 114.151C285.684 112.004 280.447 110.265 273.986 110.265C267.526 110.265 262.289 112.004 262.289 114.151C262.289 116.297 267.526 118.036 273.986 118.036Z" stroke="#231815" stroke-width="3" stroke-miterlimit="10"/>
<path d="M262.292 120.252C262.292 122.397 267.527 124.152 273.986 124.152C280.446 124.152 285.684 122.412 285.684 120.252" stroke="#231815" stroke-width="3" stroke-miterlimit="10"/>
<path d="M262.292 126.173C262.292 128.301 267.527 130.073 273.986 130.073C280.446 130.073 285.684 128.336 285.684 126.173" stroke="#231815" stroke-width="3" stroke-miterlimit="10"/>
<path d="M262.292 129.687V132.091C262.292 134.218 267.527 135.991 273.986 135.991C280.446 135.991 285.684 134.25 285.684 132.091V128.946" stroke="#231815" stroke-width="3" stroke-miterlimit="10"/>
<path d="M262.292 114.151V132.183" stroke="#231815" stroke-width="3" stroke-miterlimit="10"/>
<path d="M285.684 114.243V131.999" stroke="#231815" stroke-width="3" stroke-miterlimit="10"/>
<path d="M273.986 135.977V143.724" stroke="#231815" stroke-width="3" stroke-miterlimit="10"/>
<path d="M284.994 133.498V162.518" stroke="#231815" stroke-width="3" stroke-miterlimit="10"/>
<path d="M262.292 130.768H253.495V135.534L249.666 135.604" stroke="#231815" stroke-width="3" stroke-miterlimit="10"/>
<path d="M285.684 125.517H304.527V133.821" stroke="#231815" stroke-width="3" stroke-miterlimit="10"/>
<path d="M265.812 134.867V137.934H258.517L258.577 155.86" stroke="#231815" stroke-width="3" stroke-miterlimit="10"/>
<path d="M296.079 162.611H273.986V174.265H296.079V162.611Z" stroke="#231815" stroke-width="3" stroke-miterlimit="10"/>
<path d="M269.531 156.137H247.438V167.791H269.531V156.137Z" stroke="#231815" stroke-width="3" stroke-miterlimit="10"/>
<path d="M249.666 129.687H227.573V141.341H249.666V129.687Z" stroke="#231815" stroke-width="3" stroke-miterlimit="10"/>
<path d="M282.136 143.745H266.004V152.254H282.136V143.745Z" stroke="#231815" stroke-width="3" stroke-miterlimit="10"/>
<path d="M315.573 133.942H293.481V145.596H315.573V133.942Z" stroke="#231815" stroke-width="3" stroke-miterlimit="10"/>
</svg>
