<svg width="384" height="240" viewBox="0 0 384 240" fill="none" xmlns="http://www.w3.org/2000/svg">
<rect width="384" height="240" rx="18" fill="#F2F1F6"/>
<path d="M63 49C63 44.0294 67.0294 40 72 40H313C317.971 40 322 44.0294 322 49V66C322 70.9706 317.971 75 313 75H72C67.0294 75 63 70.9706 63 66V49Z" fill="white"/>
<path d="M83.49 46.12V46.82H86.93V46.12H83.49ZM83.61 48.95V49.65H86.83V48.95H83.61ZM83.3 52.51L83.5 53.24C84.48 52.94 85.82 52.55 87.08 52.17L86.98 51.5C85.63 51.89 84.23 52.28 83.3 52.51ZM88.09 48.28H91.37V49.29H88.09V48.28ZM88.09 49.9H91.37V50.91H88.09V49.9ZM88.09 46.68H91.37V47.68H88.09V46.68ZM87.39 46.04V51.56H92.1V46.04H87.39ZM90.01 51.25V53.8C90.01 54.52 90.18 54.74 90.91 54.74C91.05 54.74 91.73 54.74 91.88 54.74C92.49 54.74 92.68 54.42 92.74 53.18C92.55 53.14 92.25 53.02 92.1 52.9C92.07 53.93 92.03 54.08 91.8 54.08C91.65 54.08 91.13 54.08 91.02 54.08C90.78 54.08 90.73 54.04 90.73 53.79V51.25H90.01ZM88.31 51.4C88.15 52.79 87.74 53.75 85.9 54.25C86.05 54.39 86.25 54.68 86.33 54.87C88.35 54.24 88.86 53.09 89.04 51.4H88.31ZM84.88 46.4V52.41L85.6 52.29V46.4H84.88ZM96.55 48.55V49.3H102.51V48.55H96.55ZM99.65 48.88L99.02 49.02C99.52 51.63 100.46 53.72 102.17 54.79C102.29 54.59 102.54 54.31 102.72 54.16C101.06 53.26 100.1 51.25 99.65 48.88ZM100.4 46.27C100.85 46.82 101.36 47.58 101.59 48.05L102.2 47.67C101.95 47.21 101.42 46.48 100.97 45.94L100.4 46.27ZM98.89 45.62V47.95C98.89 49.86 98.64 52.37 96.27 54.31C96.47 54.44 96.73 54.63 96.87 54.78C99.32 52.77 99.63 50.11 99.63 47.95V45.62H98.89ZM95.47 45.59V54.78H96.21V45.59H95.47ZM93.48 47.27C93.96 47.85 94.51 48.64 94.75 49.14L95.37 48.73C95.11 48.24 94.54 47.47 94.06 46.91L93.48 47.27ZM93.32 52.07L93.75 52.7C94.4 52.13 95.19 51.38 95.9 50.67L95.59 50.07C94.77 50.83 93.89 51.61 93.32 52.07ZM107.92 45.59C107.58 46.86 106.98 48.07 106.2 48.85C106.38 48.96 106.68 49.2 106.8 49.32C107.57 48.46 108.24 47.14 108.64 45.75L107.92 45.59ZM111.54 46.91V47.06C111.45 50.22 111.35 51.3 111.15 51.55C111.07 51.66 111 51.69 110.84 51.68C110.68 51.68 110.31 51.68 109.9 51.64C110 51.84 110.08 52.14 110.09 52.35C110.52 52.36 110.94 52.37 111.19 52.34C111.45 52.31 111.62 52.24 111.79 52.01C112.06 51.66 112.15 50.53 112.25 47.25C112.25 47.16 112.26 46.91 112.26 46.91H111.54ZM107.4 50.73V51.4H110.26V48.59H107.24V49.25H109.56V50.73H107.4ZM107.08 50.73V53.66C107.08 54.56 107.43 54.77 108.61 54.77C108.88 54.77 110.87 54.77 111.15 54.77C112.24 54.77 112.48 54.4 112.6 52.93C112.39 52.89 112.08 52.78 111.91 52.65C111.85 53.9 111.75 54.1 111.11 54.1C110.66 54.1 108.98 54.1 108.64 54.1C107.94 54.1 107.8 54.02 107.8 53.66V50.73H107.08ZM107.75 46.91V47.59H111.81V46.91H107.75ZM103.27 50.92L103.44 51.66C104.33 51.39 105.48 51.03 106.57 50.69L106.48 50.02C105.3 50.36 104.08 50.72 103.27 50.92ZM103.44 47.62V48.32H106.49V47.62H103.44ZM104.8 45.61V53.89C104.8 54.04 104.74 54.08 104.61 54.08C104.49 54.09 104.07 54.09 103.62 54.07C103.72 54.28 103.82 54.61 103.85 54.8C104.5 54.8 104.91 54.78 105.17 54.65C105.43 54.53 105.52 54.32 105.52 53.89V45.61H104.8ZM116.12 46.12L115.99 46.85C117.21 47.07 118.96 47.29 119.96 47.38L120.07 46.64C119.11 46.59 117.2 46.36 116.12 46.12ZM120.27 48.98L119.79 48.43C119.69 48.47 119.48 48.52 119.31 48.54C118.55 48.64 116.23 48.79 115.65 48.81C115.33 48.81 115.04 48.81 114.81 48.79L114.88 49.66C115.09 49.63 115.35 49.59 115.68 49.57C116.29 49.52 117.97 49.37 118.76 49.33C117.78 50.31 115.06 53.04 114.65 53.44C114.46 53.63 114.28 53.79 114.15 53.89L114.91 54.42C115.48 53.7 116.57 52.55 116.94 52.2C117.17 51.97 117.41 51.83 117.68 51.83C117.96 51.83 118.18 52.02 118.29 52.37C118.39 52.65 118.53 53.24 118.63 53.54C118.85 54.2 119.34 54.39 120.15 54.39C120.68 54.39 121.6 54.32 122.02 54.24L122.08 53.4C121.6 53.52 120.84 53.61 120.19 53.61C119.67 53.61 119.44 53.44 119.32 53.06C119.22 52.74 119.08 52.23 118.98 51.94C118.84 51.53 118.61 51.27 118.23 51.23C118.12 51.2 117.94 51.2 117.83 51.21C118.21 50.82 119.33 49.77 119.71 49.42C119.83 49.32 120.08 49.11 120.27 48.98ZM123.342 47.36L123.432 48.24C124.522 48.01 127.062 47.76 128.142 47.65C127.222 48.19 126.272 49.46 126.272 51.02C126.272 53.26 128.372 54.24 130.232 54.31L130.512 53.49C128.892 53.42 127.062 52.8 127.062 50.85C127.062 49.67 127.932 48.14 129.362 47.68C129.872 47.54 130.742 47.52 131.322 47.53L131.312 46.73C130.642 46.75 129.712 46.81 128.622 46.9C126.772 47.06 124.892 47.24 124.242 47.31C124.042 47.33 123.722 47.35 123.342 47.36ZM134.732 47.03L133.762 47.01C133.822 47.24 133.822 47.67 133.822 47.9C133.822 48.48 133.842 49.7 133.932 50.56C134.212 53.15 135.112 54.09 136.062 54.09C136.742 54.09 137.342 53.51 137.952 51.82L137.322 51.11C137.062 52.11 136.592 53.14 136.082 53.14C135.362 53.14 134.882 52.03 134.712 50.36C134.642 49.54 134.632 48.62 134.642 48C134.652 47.74 134.682 47.26 134.732 47.03ZM139.932 47.3L139.162 47.57C140.112 48.74 140.722 50.8 140.892 52.6L141.702 52.28C141.552 50.59 140.832 48.46 139.932 47.3ZM144.882 46.64L144.902 47.46C145.122 47.43 145.342 47.42 145.572 47.4C146.092 47.37 148.092 47.29 148.622 47.26C148.122 47.71 146.862 48.76 146.302 49.22C145.732 49.71 144.442 50.79 143.612 51.47L144.192 52.05C145.452 50.76 146.352 50.06 148.012 50.06C149.322 50.06 150.262 50.79 150.262 51.78C150.262 53.03 149.192 53.73 147.492 53.73C146.702 53.73 146.152 53.44 146.152 52.95C146.152 52.6 146.502 52.32 146.962 52.32C147.762 52.32 148.252 52.93 148.312 53.78L149.032 53.66C148.962 52.65 148.292 51.71 146.962 51.71C146.042 51.71 145.422 52.33 145.422 53.01C145.422 53.85 146.252 54.44 147.612 54.44C149.732 54.44 151.062 53.39 151.062 51.78C151.062 50.43 149.872 49.44 148.212 49.44C147.762 49.44 147.282 49.49 146.822 49.64C147.602 49 148.962 47.83 149.452 47.45C149.642 47.3 149.842 47.17 150.022 47.05L149.562 46.46C149.452 46.5 149.312 46.52 149.012 46.55C148.482 46.6 146.112 46.67 145.582 46.67C145.382 46.67 145.102 46.66 144.882 46.64ZM156.562 50.76V51.44H161.962V50.76H156.562ZM159.852 51.15L159.302 51.36C159.852 52.45 160.832 53.65 161.682 54.29C161.802 54.1 162.042 53.85 162.212 53.71C161.352 53.19 160.372 52.12 159.852 51.15ZM157.612 48.27H160.952V49.31H157.612V48.27ZM157.612 46.64H160.952V47.66H157.612V46.64ZM156.932 46.02V49.93H161.662V46.02H156.932ZM158.712 51.1C158.202 52.17 157.202 53.26 156.232 53.78C156.392 53.92 156.622 54.18 156.732 54.35C157.722 53.74 158.732 52.53 159.282 51.31L158.712 51.1ZM158.932 46.34V49.63H158.902V54.8H159.632V49.63H159.592V46.34H158.932ZM153.332 48.63V49.23H156.172V48.63H153.332ZM153.372 45.96V46.56H156.132V45.96H153.372ZM153.332 49.97V50.57H156.172V49.97H153.332ZM152.882 47.27V47.89H156.432V47.27H152.882ZM153.662 51.32V51.94H155.522V53.61H153.662V54.24H156.172V51.32H153.662ZM153.322 51.32V54.7H153.962V51.32H153.322ZM164.222 47.85H166.172V48.61H164.222V47.85ZM164.222 46.57H166.172V47.32H164.222V46.57ZM163.552 46.03V49.17H166.872V46.03H163.552ZM162.952 49.91V50.49H167.462V49.91H162.952ZM167.402 46.1V46.66H171.962V46.1H167.402ZM164.952 50.09V53.5L165.592 53.9V50.09H164.952ZM165.292 51.57V52.14H167.292V51.57H165.292ZM169.382 46.24C169.292 46.67 169.122 47.29 168.962 47.7L169.522 47.83C169.702 47.46 169.902 46.89 170.092 46.38L169.382 46.24ZM168.472 49.27H170.862V50.02H168.472V49.27ZM168.472 50.54H170.862V51.31H168.472V50.54ZM168.472 47.99H170.862V48.73H168.472V47.99ZM167.792 47.44V51.86H171.562V47.44H167.792ZM168.622 52.04C168.242 52.5 167.592 52.95 166.972 53.24C167.112 53.35 167.362 53.59 167.472 53.7C168.092 53.36 168.822 52.79 169.262 52.23L168.622 52.04ZM163.652 51.04C163.602 52.27 163.442 53.62 162.832 54.35C162.992 54.46 163.212 54.68 163.312 54.83C164.022 53.98 164.222 52.48 164.282 51.04H163.652ZM164.122 52.02L163.652 52.19C164.482 54.26 166.092 54.59 168.642 54.59H171.892C171.932 54.39 172.052 54.1 172.162 53.94C171.572 53.96 169.092 53.96 168.642 53.96C166.392 53.96 164.832 53.74 164.122 52.02ZM170.022 52.31C170.562 52.68 171.232 53.26 171.552 53.66L172.102 53.31C171.772 52.93 171.112 52.37 170.532 52.02L170.022 52.31ZM177.502 49.14C176.912 49.14 176.432 49.62 176.432 50.2C176.432 50.79 176.912 51.27 177.502 51.27C178.082 51.27 178.562 50.79 178.562 50.2C178.562 49.62 178.082 49.14 177.502 49.14ZM186.122 46.31C186.522 47.08 186.902 48.1 187.022 48.73L187.702 48.45C187.582 47.82 187.182 46.83 186.762 46.08L186.122 46.31ZM188.182 45.86C188.482 46.64 188.742 47.68 188.802 48.31L189.512 48.08C189.442 47.47 189.152 46.46 188.842 45.68L188.182 45.86ZM187.502 50.25C188.572 50.97 189.822 52.05 190.402 52.79L190.822 52.22C190.232 51.5 188.952 50.47 187.882 49.76L187.502 50.25ZM186.402 49.42V54.74H187.122V49.42H186.402ZM191.062 49.39V54.72H191.792V49.39H191.062ZM186.762 53.41V54.09H191.402V53.41H186.762ZM191.192 45.83C190.842 46.91 190.272 48.06 189.672 48.79C189.872 48.88 190.222 49.04 190.382 49.16C190.962 48.37 191.562 47.17 191.962 46.01L191.192 45.83ZM189.772 49.18C189.272 50.64 188.402 51.98 187.342 52.82C187.502 52.92 187.782 53.14 187.902 53.26C188.962 52.33 189.882 50.92 190.442 49.33L189.772 49.18ZM184.272 45.6V54.79H185.002V45.6H184.272ZM183.282 47.53C183.262 48.41 183.112 49.5 182.762 50.11L183.282 50.35C183.652 49.66 183.822 48.51 183.822 47.61L183.282 47.53ZM185.092 47.44C185.402 48.02 185.712 48.79 185.812 49.27L186.342 49C186.242 48.54 185.912 47.8 185.582 47.23L185.092 47.44ZM194.732 46.67L194.762 47.49C195.002 47.46 195.292 47.43 195.512 47.42C195.962 47.4 197.182 47.34 197.582 47.33C197.242 48.04 196.792 49.07 196.392 49.94C196.012 50.78 195.562 51.94 195.152 52.48C194.942 52.75 194.772 52.83 194.542 52.83C194.232 52.83 193.942 52.6 193.942 52.15C193.942 51.23 194.892 50.3 196.552 50.3C198.612 50.3 200.442 51.41 201.612 52.42L201.982 51.57C200.902 50.8 198.922 49.6 196.672 49.6C194.642 49.6 193.222 50.75 193.222 52.26C193.222 53.09 193.772 53.63 194.512 53.63C195.032 53.63 195.422 53.44 195.772 52.93C196.202 52.31 196.752 50.95 197.152 50.07C197.612 49.04 198.162 47.76 198.482 47.24C198.562 47.11 198.642 47.01 198.742 46.9L198.242 46.5C198.102 46.55 197.932 46.59 197.742 46.6C197.322 46.64 196.012 46.7 195.482 46.7C195.272 46.7 194.982 46.69 194.732 46.67ZM200.982 48.86L200.162 48.77C200.192 49.06 200.182 49.4 200.162 49.7C200.052 51.18 199.622 53.07 197.272 54.06L197.932 54.61C200.262 53.44 200.842 51.71 200.982 48.86ZM208.132 47.18L207.302 47.16C207.202 48.2 206.992 49.33 206.702 50.28C206.192 51.97 205.652 52.65 205.182 52.65C204.732 52.65 204.162 52.09 204.162 50.83C204.162 49.36 205.532 47.55 207.732 47.55C209.652 47.55 210.762 48.87 210.762 50.47C210.762 52.2 209.502 53.16 208.222 53.45C207.982 53.5 207.682 53.54 207.362 53.57L207.822 54.31C210.202 54 211.582 52.6 211.582 50.51C211.582 48.48 210.092 46.83 207.752 46.83C205.302 46.83 203.372 48.72 203.372 50.89C203.372 52.55 204.262 53.57 205.162 53.57C206.082 53.57 206.882 52.51 207.492 50.46C207.802 49.39 208.002 48.22 208.132 47.18ZM216.892 46.69V47.38H221.622V46.69H216.892ZM216.302 48.65V49.35H222.082V48.65H216.302ZM216.472 50.55V51.25H222.022V50.55H216.472ZM218.862 45.6V49.02H219.602V45.6H218.862ZM220.102 49.25V53.87C220.102 54.02 220.062 54.05 219.902 54.06C219.722 54.07 219.172 54.07 218.572 54.05C218.682 54.27 218.782 54.59 218.812 54.8C219.582 54.8 220.112 54.79 220.432 54.67C220.752 54.55 220.852 54.33 220.852 53.88V49.25H220.102ZM216.992 51.88C217.482 52.37 218.022 53.06 218.242 53.53L218.852 53.14C218.602 52.67 218.052 52.01 217.562 51.54L216.992 51.88ZM212.852 51.04L213.052 51.77C214.062 51.45 215.412 51.03 216.682 50.62L216.582 49.97C215.222 50.38 213.792 50.8 212.852 51.04ZM214.722 45.61V54.8H215.422V45.61H214.722ZM213.482 46.14C213.362 47.37 213.162 48.64 212.782 49.49C212.942 49.56 213.232 49.73 213.352 49.82C213.732 48.93 213.982 47.58 214.132 46.25L213.482 46.14ZM213.542 47.63L213.422 48.35H216.452V47.63H213.542ZM224.612 48.66V49.38H230.442V48.66H224.612ZM227.492 51.05V51.76H230.862V51.05H227.492ZM227.092 49.03V53.99L227.872 54.09V49.03H227.092ZM224.722 50.24C224.502 52.05 223.962 53.48 222.842 54.35C223.022 54.46 223.342 54.72 223.462 54.85C224.592 53.87 225.222 52.34 225.502 50.32L224.722 50.24ZM225.192 51.53L224.582 51.76C225.442 54.2 227.072 54.67 229.452 54.67H231.802C231.832 54.45 231.962 54.09 232.082 53.91C231.592 53.92 229.862 53.92 229.492 53.92C227.462 53.92 225.902 53.57 225.192 51.53ZM227.082 45.61V47.23H227.872V45.61H227.082ZM223.322 46.75V48.93H224.062V47.47H230.912V48.93H231.682V46.75H223.322ZM234.442 51.57C233.602 51.57 232.912 52.25 232.912 53.09C232.912 53.93 233.602 54.61 234.442 54.61C235.282 54.61 235.962 53.93 235.962 53.09C235.962 52.25 235.282 51.57 234.442 51.57ZM234.442 54.1C233.882 54.1 233.422 53.65 233.422 53.09C233.422 52.53 233.882 52.08 234.442 52.08C235.002 52.08 235.452 52.53 235.452 53.09C235.452 53.65 235.002 54.1 234.442 54.1Z" fill="black"/>
<path d="M84.76 60.2804V68.6904H85.53V61.0404H90.52V68.6504H91.31V60.2804H84.76ZM85.27 63.7504V64.4904H90.85V63.7504H85.27ZM85.26 67.2904V68.0404H90.87V67.2904H85.26ZM93.93 59.9004V65.8004C93.93 66.7104 94.15 66.9604 94.9 66.9604C95.06 66.9604 95.87 66.9604 96.03 66.9604C96.75 66.9604 96.93 66.4904 97.01 64.9904C96.8 64.9504 96.51 64.8204 96.33 64.6804C96.3 65.9604 96.26 66.2404 95.97 66.2404C95.79 66.2404 95.13 66.2404 95 66.2404C94.71 66.2404 94.66 66.1704 94.66 65.8104V59.9004H93.93ZM96.28 61.5304C95.72 62.0604 94.77 62.7704 94.09 63.1804L94.52 63.6404C95.22 63.2404 96.14 62.6204 96.83 62.0404L96.28 61.5304ZM96.96 60.0704V60.7204H102.53V60.0704H96.96ZM98.19 63.8004H101.49V64.7704H98.19V63.8004ZM98.19 65.3304H101.49V66.3104H98.19V65.3304ZM98.19 62.2804H101.49V63.2404H98.19V62.2804ZM97.49 61.6904V66.8904H102.23V61.6904H97.49ZM99.4 60.3904C99.32 60.8704 99.16 61.5604 99.01 62.0204L99.69 62.1504C99.86 61.7304 100.07 61.0804 100.26 60.5004L99.4 60.3904ZM98.53 67.0604C98.03 67.4904 97 67.9904 96.14 68.2604C96.29 68.4104 96.51 68.6404 96.61 68.7904C97.49 68.5004 98.53 67.9904 99.18 67.4804L98.53 67.0604ZM100.19 67.5104C100.88 67.8804 101.76 68.4404 102.18 68.8104L102.78 68.3604C102.31 67.9804 101.43 67.4404 100.76 67.1004L100.19 67.5104ZM108.63 61.1804L107.8 61.1604C107.7 62.2004 107.49 63.3304 107.2 64.2804C106.69 65.9704 106.15 66.6504 105.68 66.6504C105.23 66.6504 104.66 66.0904 104.66 64.8304C104.66 63.3604 106.03 61.5504 108.23 61.5504C110.15 61.5504 111.26 62.8704 111.26 64.4704C111.26 66.2004 110 67.1604 108.72 67.4504C108.48 67.5004 108.18 67.5404 107.86 67.5704L108.32 68.3104C110.7 68.0004 112.08 66.6004 112.08 64.5104C112.08 62.4804 110.59 60.8304 108.25 60.8304C105.8 60.8304 103.87 62.7204 103.87 64.8904C103.87 66.5504 104.76 67.5704 105.66 67.5704C106.58 67.5704 107.38 66.5104 107.99 64.4604C108.3 63.3904 108.5 62.2204 108.63 61.1804ZM115.31 60.5604V61.3904C115.58 61.3704 115.9 61.3604 116.2 61.3604C116.75 61.3604 119.56 61.3604 120.12 61.3604C120.46 61.3604 120.81 61.3704 121.04 61.3904V60.5604C120.8 60.5904 120.45 60.6104 120.14 60.6104C119.55 60.6104 116.74 60.6104 116.2 60.6104C115.88 60.6104 115.57 60.5904 115.31 60.5604ZM121.78 63.1904L121.21 62.8404C121.1 62.8904 120.88 62.9204 120.65 62.9204C120.14 62.9204 115.88 62.9204 115.39 62.9204C115.11 62.9204 114.77 62.8904 114.41 62.8604V63.7004C114.77 63.6704 115.15 63.6604 115.39 63.6604C115.99 63.6604 120.2 63.6604 120.69 63.6604C120.51 64.3904 120.11 65.2404 119.51 65.8704C118.65 66.7704 117.4 67.4204 115.99 67.7104L116.61 68.4204C117.88 68.0604 119.14 67.4804 120.18 66.3304C120.93 65.5104 121.38 64.4704 121.64 63.4904C121.66 63.4104 121.73 63.2904 121.78 63.1904ZM124.01 63.6704V64.6504C124.33 64.6304 124.86 64.6104 125.41 64.6104C126.15 64.6104 130.14 64.6104 130.9 64.6104C131.34 64.6104 131.76 64.6404 131.97 64.6504V63.6704C131.74 63.6904 131.39 63.7304 130.89 63.7304C130.15 63.7304 126.14 63.7304 125.41 63.7304C124.84 63.7304 124.32 63.7004 124.01 63.6704ZM140.69 60.7204L139.78 60.4104C139.73 60.6204 139.64 60.9504 139.57 61.1504C139.23 62.1304 138.73 63.2404 137.91 64.3004C136.88 65.6104 135.6 66.8004 133.74 67.6904L134.42 68.3104C136.31 67.3304 137.61 66.0104 138.57 64.7904C139.39 63.7504 139.99 62.4504 140.37 61.4604C140.45 61.2504 140.59 60.9104 140.69 60.7204ZM135.41 61.9004L134.88 62.5304C135.98 63.2004 137.28 64.1904 138 64.7904C139 65.6304 139.87 66.4204 140.7 67.3804L141.33 66.6904C140.54 65.8304 139.55 64.9604 138.55 64.1404C137.79 63.5304 136.4 62.5304 135.41 61.9004ZM144.87 60.6804L144.29 61.2904C145.04 61.7804 146.28 62.8604 146.79 63.3804L147.41 62.7404C146.86 62.1904 145.57 61.1504 144.87 60.6804ZM144.01 67.3804L144.53 68.2004C146.2 67.8904 147.46 67.2704 148.47 66.6404C149.98 65.6904 151.14 64.3304 151.82 63.0904L151.34 62.2304C150.76 63.4704 149.55 64.9504 148 65.9204C147.05 66.5104 145.75 67.1204 144.01 67.3804ZM158.23 61.1804L157.4 61.1604C157.3 62.2004 157.09 63.3304 156.8 64.2804C156.29 65.9704 155.75 66.6504 155.28 66.6504C154.83 66.6504 154.26 66.0904 154.26 64.8304C154.26 63.3604 155.63 61.5504 157.83 61.5504C159.75 61.5504 160.86 62.8704 160.86 64.4704C160.86 66.2004 159.6 67.1604 158.32 67.4504C158.08 67.5004 157.78 67.5404 157.46 67.5704L157.92 68.3104C160.3 68.0004 161.68 66.6004 161.68 64.5104C161.68 62.4804 160.19 60.8304 157.85 60.8304C155.4 60.8304 153.47 62.7204 153.47 64.8904C153.47 66.5504 154.36 67.5704 155.26 67.5704C156.18 67.5704 156.98 66.5104 157.59 64.4604C157.9 63.3904 158.1 62.2204 158.23 61.1804ZM167.93 61.7304V62.3204H170.64V61.7304H167.93ZM167.83 63.2804V63.8704H170.78V63.2804H167.83ZM168.96 60.8804V63.6204H169.57V60.8804H168.96ZM167.1 60.0204V60.6804H171.47V60.0204H167.1ZM168.29 64.6304V65.2004H170V66.6404H168.29V67.2204H170.58V64.6304H168.29ZM167.98 64.6304V67.6104H168.55V64.6304H167.98ZM171.19 60.0204V67.8604C171.19 68.0204 171.15 68.0604 171 68.0604C170.83 68.0704 170.31 68.0804 169.76 68.0504C169.87 68.2604 169.96 68.6004 169.99 68.8004C170.74 68.8004 171.24 68.7904 171.52 68.6604C171.8 68.5404 171.89 68.3004 171.89 67.8604V60.0204H171.19ZM166.72 60.0204V63.6104C166.72 65.0904 166.66 67.0604 165.87 68.4504C166.04 68.5304 166.34 68.7404 166.46 68.8704C167.3 67.3904 167.41 65.1804 167.41 63.6104V60.0204H166.72ZM163.39 62.6304V63.2304H165.96V62.6304H163.39ZM163.45 59.9604V60.5604H165.93V59.9604H163.45ZM163.39 63.9704V64.5704H165.96V63.9704H163.39ZM162.98 61.2704V61.8904H166.21V61.2704H162.98ZM163.74 65.3204V65.9404H165.32V67.6104H163.74V68.2304H165.95V65.3204H163.74ZM163.37 65.3204V68.7004H163.99V65.3204H163.37ZM173.06 65.4504L173.8 66.2104C173.95 65.9904 174.18 65.6704 174.38 65.4104C174.9 64.7904 175.72 63.6904 176.19 63.1104C176.54 62.6904 176.73 62.6104 177.15 63.0804C177.62 63.5904 178.38 64.5504 179.03 65.2904C179.72 66.0704 180.62 67.1104 181.37 67.8204L182.02 67.1004C181.12 66.3004 180.12 65.2504 179.52 64.5804C178.88 63.9004 178.11 62.9104 177.51 62.3004C176.85 61.6204 176.33 61.7204 175.75 62.4004C175.15 63.1104 174.32 64.2504 173.78 64.7904C173.52 65.0704 173.31 65.2604 173.06 65.4504ZM179.52 61.2504L178.94 61.5004C179.28 61.9604 179.63 62.5904 179.87 63.1204L180.47 62.8504C180.23 62.3704 179.77 61.6304 179.52 61.2504ZM180.81 60.7504L180.25 61.0104C180.58 61.4504 180.94 62.0704 181.21 62.5904L181.79 62.3104C181.55 61.8504 181.07 61.1004 180.81 60.7504ZM183.12 61.3304V62.0504H192.07V61.3304H183.12ZM186.39 63.7004V64.4204H190.39V63.7004H186.39ZM190.12 63.7004L190.11 63.8304C189.94 66.5704 189.74 67.6904 189.42 67.9804C189.31 68.0804 189.17 68.0904 188.95 68.0904C188.69 68.0904 187.98 68.0904 187.26 68.0204C187.4 68.2304 187.51 68.5404 187.52 68.7604C188.2 68.7904 188.86 68.8104 189.21 68.7904C189.59 68.7604 189.84 68.6904 190.07 68.4504C190.46 68.0504 190.66 66.9404 190.86 64.0604C190.88 63.9504 190.89 63.7004 190.89 63.7004H190.12ZM186.22 61.7304C186.11 64.1204 185.94 66.9104 183.02 68.2304C183.21 68.3804 183.45 68.6504 183.56 68.8404C186.61 67.3804 186.9 64.3804 187.05 61.7304H186.22ZM187.17 59.5804V61.6404H187.94V59.5804H187.17ZM197.6 63.1404C197.01 63.1404 196.53 63.6204 196.53 64.2004C196.53 64.7904 197.01 65.2704 197.6 65.2704C198.18 65.2704 198.66 64.7904 198.66 64.2004C198.66 63.6204 198.18 63.1404 197.6 63.1404ZM206.95 60.2104V60.9304H211.86V60.2104H206.95ZM209.87 63.1904V67.8304C209.87 68.0004 209.81 68.0404 209.61 68.0504C209.43 68.0604 208.76 68.0604 208.05 68.0404C208.16 68.2604 208.26 68.5704 208.29 68.7804C209.27 68.7804 209.84 68.7704 210.18 68.6604C210.52 68.5404 210.63 68.3104 210.63 67.8404V63.1904H209.87ZM206.51 62.9704V63.6804H212.15V62.9704H206.51ZM204.51 63.7404V68.8304H205.26V63.1304L205.17 63.0904L204.51 63.7404ZM205.67 61.7404C204.98 62.8904 203.88 64.0504 202.84 64.7904C203 64.9304 203.26 65.2604 203.37 65.4104C204.42 64.5704 205.6 63.2804 206.38 62.0104L205.67 61.7404ZM205.26 59.6004C204.75 60.3204 203.78 61.2204 202.95 61.7804C203.08 61.9304 203.28 62.2204 203.39 62.3804C204.28 61.7404 205.31 60.7704 205.98 59.8904L205.26 59.6004ZM213.29 66.1404V66.7104H217.85V66.1404H213.29ZM213.02 61.3204V61.9004H218.01V61.3204H213.02ZM215.19 60.4104V67.7704H215.88V60.4104H215.19ZM213.01 67.7904L213.12 68.4404C214.39 68.3104 216.2 68.1004 217.9 67.9004L217.89 67.3104C216.1 67.5004 214.23 67.6804 213.01 67.7904ZM213.94 64.2704H217.18V65.0104H213.94V64.2704ZM213.94 63.0504H217.18V63.7704H213.94V63.0504ZM213.31 62.5304V65.5304H217.82V62.5304H213.31ZM217.46 59.7004C216.43 59.9404 214.61 60.1204 213.12 60.2004C213.2 60.3504 213.27 60.6004 213.3 60.7604C214.8 60.7104 216.66 60.5404 217.84 60.2804L217.46 59.7004ZM217.94 61.9404V62.6404H221.55V61.9404H217.94ZM221.26 61.9404V62.1204C221.15 66.1704 221.04 67.6104 220.79 67.9204C220.7 68.0504 220.6 68.0804 220.44 68.0804C220.24 68.0804 219.8 68.0704 219.31 68.0304C219.43 68.2304 219.51 68.5404 219.53 68.7504C219.99 68.7804 220.47 68.7804 220.75 68.7504C221.05 68.7204 221.25 68.6304 221.43 68.3704C221.76 67.9404 221.86 66.5404 221.97 62.3204C221.97 62.2204 221.98 61.9404 221.98 61.9404H221.26ZM219.15 59.7304C219.14 63.5104 219.19 66.6804 216.9 68.3204C217.08 68.4404 217.34 68.6804 217.46 68.8604C219.85 67.0704 219.86 63.7104 219.87 59.7304H219.15ZM223.56 61.7004L223.62 62.4504C223.99 62.4604 224.42 62.4704 224.79 62.4704C226.01 62.4804 227.32 62.2604 228.3 61.9904L228.28 61.2504C227.13 61.6304 225.87 61.7604 224.79 61.7604C224.36 61.7604 223.93 61.7404 223.56 61.7004ZM227.11 60.0704L226.23 59.9804C226.2 60.6804 225.98 61.5604 225.76 62.1904C225.35 63.3704 224.42 65.1504 223.53 66.1904L224.3 66.5904C225.13 65.4704 226.05 63.6504 226.53 62.2104C226.77 61.5004 226.98 60.5604 227.11 60.0704ZM229.47 63.1604H228.68C228.72 64.2604 228.83 66.0504 228.83 66.8104C228.83 67.3504 228.55 67.7904 227.72 67.7904C226.94 67.7904 226.55 67.4704 226.55 67.0104C226.55 66.5504 227.05 66.2104 227.79 66.2104C229.26 66.2104 230.41 67.1004 231.18 67.8004L231.6 67.1204C230.78 66.4104 229.49 65.5704 227.81 65.5704C226.69 65.5704 225.82 66.1504 225.82 67.0704C225.82 68.0704 226.71 68.5104 227.81 68.5104C229.05 68.5104 229.56 67.8604 229.56 67.0604C229.56 66.4004 229.47 64.8804 229.45 64.2304C229.44 63.8704 229.44 63.5704 229.47 63.1604ZM231.47 63.4204L231.92 62.7604C231.44 62.4004 230.31 61.7504 229.58 61.4404L229.18 62.0404C229.84 62.3504 230.93 62.9604 231.47 63.4204ZM240.2 62.3004L239.8 61.5704C239.59 61.7504 239.37 61.8804 239.08 62.0504C238.43 62.4104 237.26 62.9604 236.24 63.6404C235.07 64.4204 234.34 65.2704 234.34 66.3504C234.34 67.8504 235.7 68.4104 237.58 68.4104C238.83 68.4104 239.99 68.3004 240.74 68.1704L240.75 67.2704C239.97 67.4704 238.63 67.6104 237.54 67.6104C235.96 67.6104 235.17 67.0904 235.17 66.2604C235.17 65.5104 235.73 64.8504 236.66 64.2404C237.64 63.5904 238.75 63.0704 239.43 62.7204C239.72 62.5704 239.97 62.4404 240.2 62.3004ZM235.41 60.3504L234.62 60.6904C235.16 61.9304 235.76 63.2804 236.26 64.1004L236.95 63.6804C236.48 62.8804 235.87 61.6304 235.41 60.3504ZM240.37 60.2504L239.83 60.4804C240.11 60.8604 240.44 61.4704 240.64 61.8804L241.18 61.6304C240.98 61.2204 240.62 60.6204 240.37 60.2504ZM241.47 59.8504L240.94 60.0804C241.23 60.4504 241.55 61.0304 241.77 61.4604L242.31 61.2204C242.12 60.8504 241.73 60.2204 241.47 59.8504ZM248.23 61.1804L247.4 61.1604C247.3 62.2004 247.09 63.3304 246.8 64.2804C246.29 65.9704 245.75 66.6504 245.28 66.6504C244.83 66.6504 244.26 66.0904 244.26 64.8304C244.26 63.3604 245.63 61.5504 247.83 61.5504C249.75 61.5504 250.86 62.8704 250.86 64.4704C250.86 66.2004 249.6 67.1604 248.32 67.4504C248.08 67.5004 247.78 67.5404 247.46 67.5704L247.92 68.3104C250.3 68.0004 251.68 66.6004 251.68 64.5104C251.68 62.4804 250.19 60.8304 247.85 60.8304C245.4 60.8304 243.47 62.7204 243.47 64.8904C243.47 66.5504 244.36 67.5704 245.26 67.5704C246.18 67.5704 246.98 66.5104 247.59 64.4604C247.9 63.3904 248.1 62.2204 248.23 61.1804ZM257.35 62.6104H261.07V63.9004H257.35V62.6104ZM257.35 60.7204H261.07V61.9904H257.35V60.7204ZM256.67 60.0704V64.5504H261.79V60.0704H256.67ZM256.54 65.7204V66.4104H261.93V65.7204H256.54ZM255.77 67.7904V68.4704H262.26V67.7904H255.77ZM253.05 60.2804V60.9904H256.17V60.2804H253.05ZM253.16 63.1704V63.8804H256.03V63.1704H253.16ZM252.95 67.0004L253.13 67.7704C254.02 67.4704 255.16 67.0904 256.25 66.7204L256.12 66.0004C254.96 66.3904 253.76 66.7804 252.95 67.0004ZM254.3 60.5604V66.9004L255.02 66.7604V60.5604H254.3ZM258.88 60.3804V64.2304H258.83V68.1004H259.59V64.2304H259.54V60.3804H258.88ZM263.98 62.1404V62.7304H266.87V62.1404H263.98ZM263.98 63.8404V64.4104H266.87V63.8404H263.98ZM263.98 65.5804V66.1704H266.87V65.5804H263.98ZM268.24 64.3404V64.9904H272.05V64.3404H268.24ZM264.5 60.5004V61.0904H266.16V60.5004H264.5ZM267.6 60.1104V60.7504H271.51V60.1104H267.6ZM267.48 66.2104V66.8804H272.22V66.2104H267.48ZM269.59 63.3104V68.7604H270.31V63.3104H269.59ZM265.22 62.4304V65.8304H265.76V62.4304H265.22ZM271.27 60.1104V60.2104C271.2 61.7804 271.12 62.3604 270.99 62.5104C270.93 62.5904 270.84 62.6104 270.7 62.6004C270.56 62.6004 270.2 62.6004 269.8 62.5604C269.89 62.7304 269.96 62.9904 269.97 63.1904C270.39 63.2104 270.81 63.2104 271.01 63.1904C271.27 63.1704 271.42 63.1104 271.56 62.9404C271.77 62.7104 271.87 62.0604 271.94 60.3904C271.95 60.3004 271.95 60.1104 271.95 60.1104H271.27ZM268.28 63.4004C268.11 64.2504 267.8 65.0904 267.37 65.6504C267.53 65.7304 267.83 65.8804 267.96 65.9704C268.38 65.3704 268.73 64.4604 268.93 63.5304L268.28 63.4004ZM264.48 59.6004C264.18 60.8304 263.62 62.0204 262.91 62.7904C263.07 62.8904 263.36 63.1204 263.48 63.2404C264.19 62.3904 264.8 61.1004 265.17 59.7504L264.48 59.6004ZM263.69 62.1404V64.8004C263.69 65.9304 263.62 67.4204 262.94 68.4804C263.09 68.5504 263.37 68.7204 263.48 68.8204C264.19 67.7104 264.31 66.0204 264.31 64.8004V62.1404H263.69ZM266.67 62.1404V67.9804C266.67 68.1104 266.61 68.1504 266.48 68.1604C266.34 68.1704 265.89 68.1704 265.38 68.1504C265.47 68.3304 265.58 68.6204 265.61 68.7904C266.3 68.7904 266.71 68.7804 266.96 68.6704C267.22 68.5604 267.3 68.3504 267.3 67.9804V62.1404H266.67ZM269.02 60.3204C268.88 61.4504 268.52 62.4404 267.29 62.9604C267.44 63.0704 267.62 63.3104 267.71 63.4704C269.11 62.8404 269.54 61.7004 269.71 60.3204H269.02ZM265.98 60.5004V60.6204C265.83 61.1204 265.55 61.8404 265.3 62.2904C265.44 62.3504 265.66 62.4804 265.78 62.5804C266.08 62.1104 266.46 61.3704 266.67 60.7504L266.23 60.4604L266.13 60.5004H265.98Z" fill="black"/>
<path d="M20.18 22.18V23.6H31.76V22.18H20.18ZM20.18 26.92V28.34H31.76V26.92H20.18ZM20.18 31.68V33.14H31.76V31.68H20.18ZM19.14 17.44V34.5H20.64V18.92H31.16V34.5H32.72V17.44H19.14ZM38.62 19.42V20.76H43.3V31.14H38.62V32.5H44.7V19.42H38.62ZM37.72 19.42V34.1H39.12V19.42H37.72ZM38.52 24.98V26.32H44.04V24.98H38.52ZM40.78 16.16C40.62 17.2 40.24 18.72 39.9 19.68L41.1 19.98C41.5 19.08 42 17.7 42.4 16.46L40.78 16.16ZM47.54 19.36V20.76H53.68V19.36H47.54ZM53.16 19.36V19.68C52.88 28.5 52.56 31.82 51.9 32.54C51.68 32.8 51.44 32.86 51.04 32.86C50.58 32.86 49.38 32.84 48.08 32.74C48.36 33.14 48.54 33.76 48.58 34.2C49.7 34.26 50.88 34.3 51.56 34.22C52.26 34.16 52.72 33.98 53.16 33.4C53.96 32.42 54.24 29.32 54.56 20.14C54.56 19.92 54.56 19.36 54.56 19.36H53.16ZM47.96 16.12C47.32 18.9 46.22 21.66 44.86 23.42C45.22 23.62 45.84 24.04 46.1 24.28C47.48 22.38 48.66 19.44 49.4 16.46L47.96 16.12ZM47.04 24.56C48.14 26.02 49.48 28 50.08 29.22L51.36 28.42C50.72 27.24 49.34 25.3 48.2 23.88L47.04 24.56Z" fill="black"/>
<path d="M30 106C30 101.029 34.0294 97 39 97H154C158.971 97 163 101.029 163 106V215C163 219.971 158.971 224 154 224H39C34.0294 224 30 219.971 30 215V106Z" fill="white"/>
<path d="M63.5102 112.25L63.0102 111.77C62.8702 111.81 62.5102 111.84 62.3202 111.84C61.7202 111.84 57.0502 111.84 56.5702 111.84C56.2002 111.84 55.7902 111.8 55.4402 111.75V112.65C55.8302 112.62 56.2002 112.6 56.5702 112.6C57.0502 112.6 61.5702 112.6 62.2702 112.6C61.9502 113.22 61.0102 114.3 60.0802 114.83L60.7502 115.36C61.8902 114.57 62.8402 113.28 63.2402 112.6C63.3102 112.49 63.4302 112.34 63.5102 112.25ZM59.5102 113.56H58.6102C58.6502 113.83 58.6502 114.05 58.6502 114.29C58.6502 115.96 58.4302 117.38 56.8902 118.33C56.6102 118.52 56.2602 118.69 55.9902 118.78L56.7202 119.38C59.2702 118.1 59.5102 116.27 59.5102 113.56ZM66.0698 111.68L65.4898 112.29C66.2398 112.78 67.4798 113.86 67.9898 114.38L68.6098 113.74C68.0598 113.19 66.7698 112.15 66.0698 111.68ZM65.2098 118.38L65.7298 119.2C67.3998 118.89 68.6598 118.27 69.6698 117.64C71.1798 116.69 72.3398 115.33 73.0198 114.09L72.5398 113.23C71.9598 114.47 70.7498 115.95 69.1998 116.92C68.2498 117.51 66.9498 118.12 65.2098 118.38ZM77.9198 111.27L76.9498 111.09C76.9298 111.35 76.8798 111.63 76.7998 111.88C76.6898 112.27 76.5098 112.78 76.2398 113.28C75.8898 113.89 75.1798 114.92 74.4598 115.43L75.2498 115.91C75.8698 115.38 76.6098 114.37 76.9998 113.59C77.2798 113.04 77.5098 112.43 77.6598 111.98C77.7398 111.77 77.8298 111.5 77.9198 111.27ZM76.6598 112.99L76.5598 113.77C77.2898 113.77 81.4998 113.77 82.0098 113.77C82.2398 113.77 82.6298 113.77 82.9398 113.79V112.93C82.6498 112.98 82.2498 112.99 82.0098 112.99C81.5098 112.99 77.2898 112.99 76.6598 112.99ZM80.3298 113.41H79.4898C79.4298 116.18 78.2998 117.58 77.2698 118.35C77.0498 118.53 76.7498 118.71 76.4598 118.82L77.3098 119.39C79.0998 118.26 80.2398 116.49 80.3298 113.41ZM84.8098 114.67V115.65C85.1298 115.63 85.6598 115.61 86.2098 115.61C86.9498 115.61 90.9398 115.61 91.6998 115.61C92.1398 115.61 92.5598 115.64 92.7698 115.65V114.67C92.5398 114.69 92.1898 114.73 91.6898 114.73C90.9498 114.73 86.9398 114.73 86.2098 114.73C85.6398 114.73 85.1198 114.7 84.8098 114.67ZM97.1598 118.12C97.1598 118.49 97.1498 118.99 97.0998 119.31H98.0698C98.0298 118.98 98.0098 118.44 98.0098 118.12C98.0098 117.65 97.9998 113.86 97.9998 112.31C97.9998 112 98.0298 111.57 98.0698 111.26H97.0898C97.1398 111.58 97.1598 112.02 97.1598 112.31C97.1598 113.14 97.1598 117.56 97.1598 118.12ZM97.8198 113.89V114.77C98.9098 115.11 100.78 115.82 101.92 116.43L102.27 115.58C101.16 115.04 99.1398 114.27 97.8198 113.89ZM109.13 112.73V113.32H111.84V112.73H109.13ZM109.03 114.28V114.87H111.98V114.28H109.03ZM110.16 111.88V114.62H110.77V111.88H110.16ZM108.3 111.02V111.68H112.67V111.02H108.3ZM109.49 115.63V116.2H111.2V117.64H109.49V118.22H111.78V115.63H109.49ZM109.18 115.63V118.61H109.75V115.63H109.18ZM112.39 111.02V118.86C112.39 119.02 112.35 119.06 112.2 119.06C112.03 119.07 111.51 119.08 110.96 119.05C111.07 119.26 111.16 119.6 111.19 119.8C111.94 119.8 112.44 119.79 112.72 119.66C113 119.54 113.09 119.3 113.09 118.86V111.02H112.39ZM107.92 111.02V114.61C107.92 116.09 107.86 118.06 107.07 119.45C107.24 119.53 107.54 119.74 107.66 119.87C108.5 118.39 108.61 116.18 108.61 114.61V111.02H107.92ZM104.59 113.63V114.23H107.16V113.63H104.59ZM104.65 110.96V111.56H107.13V110.96H104.65ZM104.59 114.97V115.57H107.16V114.97H104.59ZM104.18 112.27V112.89H107.41V112.27H104.18ZM104.94 116.32V116.94H106.52V118.61H104.94V119.23H107.15V116.32H104.94ZM104.57 116.32V119.7H105.19V116.32H104.57ZM114.33 118.92V119.59H123.27V118.92H114.33ZM116.38 116.33V116.89H121.22V116.33H116.38ZM116.38 117.62V118.18H121.22V117.62H116.38ZM116.02 114.99V119.32H116.76V115.62H120.83V119.28H121.59V114.99H116.02ZM114.37 111.88V112.54H123.24V111.88H114.37ZM118.39 110.6V114.67H119.14V110.6H118.39ZM117.96 112.08C117.16 113.2 115.58 114.28 114.15 114.77C114.31 114.91 114.52 115.18 114.63 115.35C116.09 114.78 117.68 113.61 118.58 112.33L117.96 112.08ZM119.55 112.09L118.95 112.34C119.85 113.59 121.46 114.74 122.94 115.3C123.05 115.1 123.27 114.82 123.44 114.68C121.96 114.22 120.37 113.18 119.55 112.09ZM43.4629 131.159C43.0581 131.159 42.71 131.107 42.4189 131.003C42.1277 130.901 41.885 130.766 41.6909 130.598C41.4991 130.432 41.3464 130.255 41.2328 130.065L41.9004 129.597C41.9761 129.696 42.072 129.81 42.188 129.938C42.304 130.068 42.4627 130.18 42.6639 130.275C42.8675 130.372 43.1338 130.42 43.4629 130.42C43.9032 130.42 44.2666 130.314 44.5531 130.101C44.8395 129.888 44.9828 129.554 44.9828 129.099V127.991H44.9118C44.8502 128.091 44.7626 128.214 44.649 128.361C44.5377 128.505 44.3767 128.634 44.166 128.748C43.9577 128.859 43.676 128.915 43.3208 128.915C42.8805 128.915 42.4851 128.811 42.1348 128.602C41.7868 128.394 41.5109 128.091 41.3074 127.693C41.1061 127.295 41.0055 126.812 41.0055 126.244C41.0055 125.686 41.1038 125.199 41.3002 124.785C41.4967 124.368 41.7702 124.046 42.1206 123.819C42.4709 123.589 42.8758 123.474 43.335 123.474C43.6902 123.474 43.9719 123.534 44.1802 123.652C44.3909 123.768 44.5519 123.901 44.6632 124.05C44.7768 124.196 44.8644 124.317 44.926 124.412H45.0112V123.545H45.8208V129.156C45.8208 129.625 45.7143 130.006 45.5012 130.3C45.2905 130.596 45.0065 130.812 44.649 130.95C44.2939 131.089 43.8985 131.159 43.4629 131.159ZM43.4345 128.162C43.7707 128.162 44.0547 128.085 44.2868 127.931C44.5188 127.777 44.6951 127.556 44.8159 127.267C44.9366 126.978 44.997 126.633 44.997 126.23C44.997 125.837 44.9378 125.49 44.8194 125.19C44.7011 124.889 44.5259 124.653 44.2939 124.483C44.0618 124.312 43.7754 124.227 43.4345 124.227C43.0794 124.227 42.7834 124.317 42.5467 124.497C42.3123 124.677 42.1359 124.919 42.0176 125.222C41.9016 125.525 41.8436 125.861 41.8436 126.23C41.8436 126.609 41.9028 126.944 42.0211 127.235C42.1419 127.524 42.3194 127.751 42.5538 127.917C42.7905 128.08 43.0841 128.162 43.4345 128.162ZM49.5708 129.114C49.0784 129.114 48.6464 128.996 48.2747 128.762C47.9054 128.528 47.6165 128.2 47.4082 127.778C47.2022 127.357 47.0993 126.865 47.0993 126.301C47.0993 125.733 47.2022 125.237 47.4082 124.813C47.6165 124.389 47.9054 124.06 48.2747 123.826C48.6464 123.592 49.0784 123.474 49.5708 123.474C50.0633 123.474 50.4941 123.592 50.8635 123.826C51.2351 124.06 51.524 124.389 51.7299 124.813C51.9383 125.237 52.0424 125.733 52.0424 126.301C52.0424 126.865 51.9383 127.357 51.7299 127.778C51.524 128.2 51.2351 128.528 50.8635 128.762C50.4941 128.996 50.0633 129.114 49.5708 129.114ZM49.5708 128.361C49.9449 128.361 50.2527 128.265 50.4941 128.073C50.7356 127.881 50.9144 127.629 51.0304 127.317C51.1464 127.004 51.2044 126.666 51.2044 126.301C51.2044 125.937 51.1464 125.597 51.0304 125.282C50.9144 124.967 50.7356 124.713 50.4941 124.518C50.2527 124.324 49.9449 124.227 49.5708 124.227C49.1968 124.227 48.889 124.324 48.6475 124.518C48.4061 124.713 48.2273 124.967 48.1113 125.282C47.9953 125.597 47.9373 125.937 47.9373 126.301C47.9373 126.666 47.9953 127.004 48.1113 127.317C48.2273 127.629 48.4061 127.881 48.6475 128.073C48.889 128.265 49.1968 128.361 49.5708 128.361ZM55.5376 129.114C55.0452 129.114 54.6132 128.996 54.2415 128.762C53.8722 128.528 53.5833 128.2 53.375 127.778C53.169 127.357 53.0661 126.865 53.0661 126.301C53.0661 125.733 53.169 125.237 53.375 124.813C53.5833 124.389 53.8722 124.06 54.2415 123.826C54.6132 123.592 55.0452 123.474 55.5376 123.474C56.0301 123.474 56.4609 123.592 56.8303 123.826C57.2019 124.06 57.4908 124.389 57.6967 124.813C57.9051 125.237 58.0092 125.733 58.0092 126.301C58.0092 126.865 57.9051 127.357 57.6967 127.778C57.4908 128.2 57.2019 128.528 56.8303 128.762C56.4609 128.996 56.0301 129.114 55.5376 129.114ZM55.5376 128.361C55.9117 128.361 56.2195 128.265 56.4609 128.073C56.7024 127.881 56.8812 127.629 56.9972 127.317C57.1132 127.004 57.1712 126.666 57.1712 126.301C57.1712 125.937 57.1132 125.597 56.9972 125.282C56.8812 124.967 56.7024 124.713 56.4609 124.518C56.2195 124.324 55.9117 124.227 55.5376 124.227C55.1636 124.227 54.8558 124.324 54.6143 124.518C54.3729 124.713 54.1941 124.967 54.0781 125.282C53.9621 125.597 53.9041 125.937 53.9041 126.301C53.9041 126.666 53.9621 127.004 54.0781 127.317C54.1941 127.629 54.3729 127.881 54.6143 128.073C54.8558 128.265 55.1636 128.361 55.5376 128.361ZM61.4902 131.159C61.0854 131.159 60.7374 131.107 60.4462 131.003C60.155 130.901 59.9123 130.766 59.7182 130.598C59.5265 130.432 59.3738 130.255 59.2601 130.065L59.9277 129.597C60.0035 129.696 60.0994 129.81 60.2154 129.938C60.3314 130.068 60.49 130.18 60.6912 130.275C60.8948 130.372 61.1612 130.42 61.4902 130.42C61.9306 130.42 62.294 130.314 62.5804 130.101C62.8669 129.888 63.0101 129.554 63.0101 129.099V127.991H62.9391C62.8775 128.091 62.79 128.214 62.6763 128.361C62.565 128.505 62.4041 128.634 62.1934 128.748C61.985 128.859 61.7033 128.915 61.3482 128.915C60.9078 128.915 60.5125 128.811 60.1621 128.602C59.8141 128.394 59.5383 128.091 59.3347 127.693C59.1335 127.295 59.0328 126.812 59.0328 126.244C59.0328 125.686 59.1311 125.199 59.3276 124.785C59.5241 124.368 59.7975 124.046 60.1479 123.819C60.4983 123.589 60.9031 123.474 61.3624 123.474C61.7175 123.474 61.9992 123.534 62.2076 123.652C62.4183 123.768 62.5792 123.901 62.6905 124.05C62.8042 124.196 62.8917 124.317 62.9533 124.412H63.0385V123.545H63.8482V129.156C63.8482 129.625 63.7417 130.006 63.5286 130.3C63.3179 130.596 63.0338 130.812 62.6763 130.95C62.3212 131.089 61.9258 131.159 61.4902 131.159ZM61.4618 128.162C61.798 128.162 62.0821 128.085 62.3141 127.931C62.5461 127.777 62.7225 127.556 62.8432 127.267C62.964 126.978 63.0243 126.633 63.0243 126.23C63.0243 125.837 62.9651 125.49 62.8468 125.19C62.7284 124.889 62.5532 124.653 62.3212 124.483C62.0892 124.312 61.8027 124.227 61.4618 124.227C61.1067 124.227 60.8108 124.317 60.574 124.497C60.3397 124.677 60.1633 124.919 60.0449 125.222C59.9289 125.525 59.8709 125.861 59.8709 126.23C59.8709 126.609 59.9301 126.944 60.0485 127.235C60.1692 127.524 60.3468 127.751 60.5811 127.917C60.8179 128.08 61.1114 128.162 61.4618 128.162ZM66.2203 121.727V129H65.3823V121.727H66.2203ZM70.0423 129.114C69.5167 129.114 69.0633 128.998 68.6822 128.766C68.3034 128.531 68.011 128.205 67.805 127.786C67.6014 127.364 67.4996 126.874 67.4996 126.315C67.4996 125.757 67.6014 125.264 67.805 124.838C68.011 124.41 68.2975 124.076 68.6644 123.837C69.0337 123.595 69.4646 123.474 69.957 123.474C70.2411 123.474 70.5217 123.522 70.7987 123.616C71.0756 123.711 71.3278 123.865 71.555 124.078C71.7823 124.289 71.9634 124.568 72.0984 124.916C72.2333 125.264 72.3008 125.693 72.3008 126.202V126.557H68.0962V125.832H71.4485C71.4485 125.525 71.387 125.25 71.2638 125.009C71.1431 124.767 70.9703 124.576 70.7454 124.437C70.5228 124.297 70.2601 124.227 69.957 124.227C69.6232 124.227 69.3344 124.31 69.0906 124.476C68.8491 124.639 68.6632 124.852 68.533 125.115C68.4028 125.378 68.3377 125.66 68.3377 125.96V126.443C68.3377 126.855 68.4087 127.204 68.5508 127.491C68.6952 127.775 68.8952 127.991 69.1509 128.141C69.4066 128.287 69.7037 128.361 70.0423 128.361C70.2624 128.361 70.4613 128.33 70.6388 128.268C70.8188 128.205 70.9738 128.11 71.104 127.984C71.2343 127.857 71.3349 127.698 71.4059 127.509L72.2156 127.736C72.1303 128.01 71.9871 128.252 71.7859 128.46C71.5846 128.666 71.3361 128.827 71.0401 128.943C70.7442 129.057 70.4116 129.114 70.0423 129.114ZM81.4186 122.36L80.8086 121.97C80.6186 122.01 80.4186 122.02 80.2686 122.02C79.8186 122.02 75.8286 122.02 75.2586 122.02C74.9286 122.02 74.5286 121.99 74.2586 121.95V122.84C74.5086 122.83 74.8486 122.81 75.2486 122.81C75.8286 122.81 79.7886 122.81 80.3686 122.81C80.2286 123.77 79.7686 125.16 79.0586 126.07C78.2186 127.14 77.0986 127.99 75.1586 128.47L75.8386 129.22C77.6686 128.65 78.8586 127.72 79.7686 126.55C80.5686 125.52 81.0486 123.91 81.2686 122.86C81.3086 122.66 81.3486 122.5 81.4186 122.36ZM89.3186 122.89H88.4686C88.5086 123.11 88.5286 123.37 88.5286 123.57C88.5686 124.45 88.6186 127.45 88.6186 128.63C88.6186 128.82 88.5286 128.93 88.3386 128.93C88.0486 128.93 87.5286 128.89 87.1186 128.83L87.1686 129.57C87.5586 129.59 88.2186 129.62 88.6086 129.62C89.0486 129.62 89.3686 129.37 89.3686 128.94C89.3486 127.49 89.2986 124.45 89.2786 123.57C89.2786 123.34 89.2786 123.1 89.3186 122.89ZM84.8086 124.33V125.13C85.0486 125.11 85.3086 125.1 85.5686 125.1C85.9286 125.1 90.3986 125.1 90.7586 125.1C90.9486 125.1 91.2286 125.11 91.3986 125.12V124.33C91.2586 124.36 90.9386 124.38 90.7286 124.38C90.3186 124.38 85.9786 124.38 85.5586 124.38C85.3186 124.38 85.0486 124.37 84.8086 124.33ZM84.5486 128.16L85.0986 128.77C86.6286 127.97 88.2686 126.46 88.7986 125.48L88.7886 124.88L88.3786 124.87C87.7986 125.92 86.1586 127.39 84.5486 128.16ZM93.8186 124.67V125.65C94.1386 125.63 94.6686 125.61 95.2186 125.61C95.9586 125.61 99.9486 125.61 100.709 125.61C101.149 125.61 101.569 125.64 101.779 125.65V124.67C101.549 124.69 101.199 124.73 100.699 124.73C99.9586 124.73 95.9486 124.73 95.2186 124.73C94.6486 124.73 94.1286 124.7 93.8186 124.67ZM107.726 121.55L106.726 121.34C106.696 121.61 106.656 121.84 106.526 122.3C106.226 123.36 105.066 126.98 104.566 128.13L105.466 128.1C105.896 127.09 107.056 123.5 107.376 122.48C107.516 122.05 107.626 121.79 107.726 121.55ZM109.626 124.9L108.866 125.23C109.586 126.18 110.606 128.26 111.006 129.34L111.836 128.97C111.426 127.94 110.326 125.92 109.626 124.9ZM104.176 127.89C103.886 127.91 103.536 127.92 103.236 127.91L103.396 128.83C103.676 128.79 103.976 128.75 104.226 128.73C105.636 128.59 109.316 128.19 110.706 128.01L110.486 127.23C109.196 127.42 105.616 127.82 104.176 127.89ZM117.056 122.25L117.066 123.06C118.156 123.18 120.096 123.18 121.166 123.06V122.25C120.176 122.4 118.146 122.44 117.056 122.25ZM117.446 126.33L116.726 126.26C116.616 126.74 116.566 127.1 116.566 127.43C116.566 128.37 117.316 128.93 118.986 128.93C120.026 128.93 120.866 128.85 121.486 128.72L121.466 127.88C120.666 128.07 119.886 128.15 118.996 128.15C117.626 128.15 117.306 127.7 117.306 127.24C117.306 126.97 117.356 126.69 117.446 126.33ZM115.156 121.48L114.266 121.41C114.256 121.63 114.226 121.88 114.196 122.11C114.076 122.94 113.746 124.65 113.746 126.12C113.746 127.48 113.916 128.63 114.116 129.34L114.826 129.29C114.816 129.18 114.806 129.04 114.796 128.94C114.796 128.82 114.816 128.63 114.846 128.49C114.936 128.01 115.306 126.96 115.556 126.25L115.136 125.92C114.966 126.33 114.736 126.93 114.566 127.38C114.506 126.89 114.476 126.47 114.476 125.99C114.476 124.86 114.786 123.08 114.976 122.15C115.016 121.97 115.096 121.65 115.156 121.48ZM123.346 122.36L123.436 123.24C124.526 123.01 127.066 122.76 128.146 122.65C127.226 123.19 126.276 124.46 126.276 126.02C126.276 128.26 128.376 129.24 130.236 129.31L130.516 128.49C128.896 128.42 127.066 127.8 127.066 125.85C127.066 124.67 127.936 123.14 129.366 122.68C129.876 122.54 130.746 122.52 131.326 122.53L131.316 121.73C130.646 121.75 129.716 121.81 128.626 121.9C126.776 122.06 124.896 122.24 124.246 122.31C124.046 122.33 123.726 122.35 123.346 122.36ZM137.106 120.61V122.07H137.876V120.61H137.106ZM133.276 121.59V123.53H134.016V122.26H140.956V123.53H141.726V121.59H133.276ZM134.116 123.42V124.05H140.956V123.42H134.116ZM133.126 126.53V127.19H141.936V126.53H133.126ZM134.276 124.95V125.58H140.816V124.95H134.276ZM138.016 126.69L137.336 126.85C138.056 128.51 139.476 129.45 141.586 129.83C141.686 129.63 141.886 129.33 142.046 129.17C140.036 128.89 138.636 128.07 138.016 126.69ZM137.096 122.59V125.08C137.096 126.52 136.796 128.15 133.026 129.2C133.186 129.36 133.406 129.64 133.486 129.8C137.366 128.64 137.846 126.79 137.846 125.08V122.59H137.096ZM147.856 122.01V122.7H152.046V122.01H147.856ZM149.286 123.07V128.11H149.936V123.07H149.286ZM148.096 120.6C147.816 121.84 147.306 123.03 146.616 123.8C146.786 123.92 147.076 124.19 147.196 124.32C147.916 123.45 148.496 122.14 148.836 120.75L148.096 120.6ZM146.776 125.85L147.056 126.46L151.446 124.39L151.176 123.78L146.776 125.85ZM147.656 123.86V128.64C147.656 129.53 147.936 129.76 148.936 129.76C149.156 129.76 150.746 129.76 150.976 129.76C151.826 129.76 152.046 129.42 152.136 128.23C151.946 128.18 151.666 128.07 151.496 127.96C151.456 128.93 151.376 129.11 150.936 129.11C150.596 129.11 149.236 129.11 148.986 129.11C148.436 129.11 148.346 129.03 148.346 128.65V123.86H147.656ZM150.996 123.94C150.996 125.45 150.986 126.64 150.956 126.82C150.936 126.98 150.866 127.01 150.746 127.01C150.656 127.01 150.416 127.01 150.226 127C150.306 127.15 150.366 127.4 150.386 127.59C150.616 127.59 150.926 127.58 151.146 127.53C151.396 127.47 151.566 127.3 151.596 126.98C151.636 126.69 151.646 125.43 151.656 124L151.686 123.88L151.216 123.7L151.086 123.79L150.916 123.94H150.996ZM142.936 122.24V122.94H147.166V122.24H142.936ZM144.376 124.32V125.01H146.136V124.32H144.376ZM144.696 120.62V122.49H145.426V120.62H144.696ZM144.036 122.64C144.006 125.22 143.916 127.86 142.826 129.31C143.026 129.42 143.266 129.64 143.396 129.8C144.576 128.2 144.706 125.43 144.746 122.64H144.036ZM145.896 124.32V124.47C145.836 127.67 145.756 128.78 145.586 129.01C145.506 129.13 145.416 129.15 145.276 129.15C145.126 129.15 144.756 129.15 144.346 129.11C144.456 129.3 144.526 129.59 144.536 129.79C144.956 129.81 145.366 129.81 145.606 129.79C145.866 129.76 146.036 129.68 146.196 129.46C146.456 129.12 146.506 127.99 146.576 124.66C146.586 124.56 146.586 124.32 146.586 124.32H145.896Z" fill="black"/>
<path d="M74.51 140.75V141.46H77.71V140.75H74.51ZM75.93 138.6V147.79H76.62V138.6H75.93ZM75.91 141.19C75.63 142.62 74.96 144.36 74.3 145.26C74.42 145.43 74.6 145.71 74.69 145.91C75.4 144.91 76.07 142.94 76.38 141.35L75.91 141.19ZM76.57 142.15L76.25 142.47C76.51 142.86 77.2 144.04 77.43 144.53L77.85 143.94C77.66 143.65 76.81 142.42 76.57 142.15ZM78.7 140.97V141.61H82.51V140.97H78.7ZM80.58 139.28C81.22 140.17 82.36 141.1 83.38 141.63C83.48 141.43 83.64 141.15 83.78 140.98C82.73 140.52 81.61 139.62 80.9 138.62H80.21C79.67 139.53 78.6 140.51 77.48 141.04C77.61 141.2 77.78 141.47 77.86 141.66C78.95 141.07 80.01 140.13 80.58 139.28ZM78.71 143.13H82.47V144.5H78.71V143.13ZM78.05 142.53V145.12H83.16V142.53H78.05ZM80.22 141.35V143.98C80.22 145.23 79.9 146.48 77.36 147.29C77.49 147.41 77.71 147.69 77.77 147.85C80.45 146.97 80.91 145.44 80.91 144V141.35H80.22ZM81.01 144.73L80.37 144.87C80.98 146.61 81.89 147.32 83.28 147.85C83.36 147.63 83.55 147.38 83.72 147.22C82.44 146.79 81.59 146.23 81.01 144.73ZM88.35 139.21V139.93H93.47V139.21H88.35ZM88.02 146.75V147.46H93.63V146.75H88.02ZM91.1 142.69V143.41H93.41V142.69H91.1ZM90.68 139.49V147.15H91.42V139.49H90.68ZM88.77 141.72V147.07H89.48V141.72H88.77ZM84.85 141.69V142.28H87.67V141.69H84.85ZM84.91 138.96V139.56H87.66V138.96H84.91ZM84.85 143.05V143.65H87.67V143.05H84.85ZM84.38 140.3V140.92H88.02V140.3H84.38ZM85.21 144.42V145.05H87.05V146.72H85.21V147.34H87.71V144.42H85.21ZM84.84 144.42V147.8H85.49V144.42H84.84ZM98.48 138.91C98.41 140.24 98.41 145.05 94.33 147.13C94.56 147.3 94.81 147.53 94.94 147.72C99.08 145.47 99.23 140.48 99.31 138.91H98.48ZM99.28 139.11L98.56 139.18C98.63 140.1 98.91 145.69 103.15 147.72C103.27 147.51 103.5 147.26 103.72 147.09C99.6 145.2 99.31 139.89 99.28 139.11ZM104.39 143.94V144.57H109.3V143.94H104.39ZM104.45 140.45V141.06H109.27V140.45H104.45ZM106.25 143.08C105.83 144 105.2 145.23 104.75 145.99L105.41 146.22C105.87 145.43 106.5 144.21 106.95 143.23L106.25 143.08ZM107.75 144.31C107.44 146.01 106.5 146.83 104.41 147.18C104.55 147.33 104.7 147.6 104.75 147.8C107.06 147.31 108.11 146.35 108.45 144.4L107.75 144.31ZM108.38 138.8C108.2 139.19 107.87 139.77 107.62 140.13L108.12 140.38C108.4 140.04 108.73 139.54 109.02 139.08L108.38 138.8ZM106.52 138.6V143.2H107.21V138.6H106.52ZM104.82 139.08C105.1 139.49 105.36 140.04 105.45 140.4L106.04 140.13C105.94 139.77 105.67 139.24 105.39 138.84L104.82 139.08ZM106.53 140.72C106.09 141.49 105.17 142.29 104.34 142.65C104.48 142.8 104.66 143.05 104.75 143.22C105.61 142.75 106.55 141.86 107.04 141.02L106.53 140.72ZM107.13 141.07L106.77 141.39C107.19 141.67 108.23 142.45 108.59 142.79L109 142.24C108.71 142.03 107.49 141.26 107.13 141.07ZM110.03 140.45V141.15H113.59V140.45H110.03ZM110.28 138.6C110 140.37 109.48 142.06 108.63 143.12C108.81 143.24 109.12 143.49 109.24 143.63C110.12 142.46 110.71 140.67 111.04 138.71L110.28 138.6ZM112.25 140.85C111.84 144.02 110.88 146.04 108.5 147.16C108.65 147.32 108.87 147.65 108.95 147.83C111.47 146.53 112.53 144.38 113.01 140.93L112.25 140.85ZM110.43 141.07L109.75 141.18C110.25 144.21 111.2 146.65 113.16 147.8C113.27 147.6 113.51 147.31 113.69 147.16C111.83 146.18 110.87 143.82 110.43 141.07ZM105.35 145.85C106.51 146.32 107.7 146.99 108.39 147.55L108.91 147.01C108.19 146.46 106.95 145.8 105.75 145.34L105.35 145.85Z" fill="black"/>
<path d="M85.5824 157.509V156.784L88.7784 151.727H89.304V152.849H88.9489L86.5341 156.67V156.727H90.8381V157.509H85.5824ZM89.0057 159V157.288V156.951V151.727H89.8438V159H89.0057ZM95.056 158.71V159.4H99.886V158.71H95.056ZM94.716 151.61V152.28H98.386V151.61H94.716ZM95.166 150.57C94.586 151.66 93.436 152.95 91.786 153.85C91.956 153.98 92.206 154.24 92.316 154.43C94.056 153.4 95.256 152.04 96.006 150.74L95.166 150.57ZM98.136 151.61V151.74C97.096 154.37 94.326 156.33 91.736 157.08C91.896 157.24 92.086 157.55 92.176 157.75C94.896 156.87 97.716 154.86 98.916 151.84L98.416 151.57L98.276 151.61H98.136ZM93.466 153.39C94.256 153.95 95.206 154.79 95.626 155.36L96.236 154.82C95.776 154.25 94.816 153.45 94.026 152.91L93.466 153.39ZM99.516 155.55V159.82H100.286V155.55H99.516ZM95.396 155.55H95.246L94.646 156.14V159.8H95.396V156.24H99.896V155.55H95.396Z" fill="black"/>
<ellipse cx="65" cy="172.231" rx="7" ry="7.2313" fill="#F0C65A"/>
<rect x="60.2104" y="185.552" width="9.57895" height="30.4476" fill="#F0C65A"/>
<ellipse cx="84" cy="172.231" rx="7" ry="7.2313" fill="#F0C65A"/>
<rect x="79.2104" y="185.552" width="9.57895" height="30.4476" fill="#F0C65A"/>
<ellipse cx="103" cy="172.231" rx="7" ry="7.2313" fill="#F0C65A"/>
<rect x="98.2104" y="185.552" width="9.57895" height="30.4476" fill="#F0C65A"/>
<ellipse cx="122" cy="172.231" rx="7" ry="7.2313" fill="#F0C65A"/>
<rect x="117.21" y="185.552" width="9.57895" height="30.4476" fill="#F0C65A"/>
<path d="M221 106C221 101.029 225.029 97 230 97H345C349.971 97 354 101.029 354 106V215C354 219.971 349.971 224 345 224H230C225.029 224 221 219.971 221 215V106Z" fill="white"/>
<path d="M266.18 109.31H265.25C265.29 109.51 265.31 109.85 265.31 110.12C265.31 110.66 265.31 114.66 265.31 115.62C265.31 116.44 265.74 116.79 266.51 116.93C266.92 117 267.52 117.02 268.11 117.02C269.2 117.02 270.7 116.95 271.57 116.82V115.9C270.74 116.12 269.21 116.23 268.15 116.23C267.66 116.23 267.14 116.2 266.83 116.14C266.34 116.05 266.13 115.92 266.13 115.4C266.13 114.68 266.13 110.66 266.13 110.12C266.13 109.84 266.15 109.55 266.18 109.31ZM265.76 112.47V113.3C267 112.99 269.09 112.37 270.33 111.86C270.63 111.75 270.99 111.59 271.28 111.47L270.92 110.67C270.64 110.85 270.35 110.99 270.04 111.12C268.89 111.62 266.96 112.21 265.76 112.47ZM282.31 110.25L281.81 109.77C281.67 109.81 281.31 109.84 281.12 109.84C280.52 109.84 275.85 109.84 275.37 109.84C275 109.84 274.59 109.8 274.24 109.75V110.65C274.63 110.62 275 110.6 275.37 110.6C275.85 110.6 280.37 110.6 281.07 110.6C280.75 111.22 279.81 112.3 278.88 112.83L279.55 113.36C280.69 112.57 281.64 111.28 282.04 110.6C282.11 110.49 282.23 110.34 282.31 110.25ZM278.31 111.56H277.41C277.45 111.83 277.45 112.05 277.45 112.29C277.45 113.96 277.23 115.38 275.69 116.33C275.41 116.52 275.06 116.69 274.79 116.78L275.52 117.38C278.07 116.1 278.31 114.27 278.31 111.56ZM290.75 109.42H289.81C289.84 109.66 289.87 109.95 289.87 110.29C289.87 110.64 289.87 111.48 289.87 111.87C289.87 113.75 289.74 114.57 289.03 115.39C288.41 116.1 287.56 116.49 286.64 116.73L287.3 117.42C288.03 117.17 289.03 116.73 289.67 115.95C290.4 115.1 290.72 114.31 290.72 111.9C290.72 111.53 290.72 110.68 290.72 110.29C290.72 109.95 290.73 109.66 290.75 109.42ZM286.11 109.5H285.2C285.23 109.69 285.24 110.04 285.24 110.21C285.24 110.51 285.24 113.12 285.24 113.55C285.24 113.84 285.22 114.16 285.2 114.32H286.11C286.09 114.14 286.08 113.81 286.08 113.55C286.08 113.13 286.08 110.51 286.08 110.21C286.08 109.98 286.09 109.69 286.11 109.5ZM295.27 109.68L294.69 110.29C295.44 110.78 296.68 111.86 297.19 112.38L297.81 111.74C297.26 111.19 295.97 110.15 295.27 109.68ZM294.41 116.38L294.93 117.2C296.6 116.89 297.86 116.27 298.87 115.64C300.38 114.69 301.54 113.33 302.22 112.09L301.74 111.23C301.16 112.47 299.95 113.95 298.4 114.92C297.45 115.51 296.15 116.12 294.41 116.38ZM310.65 109L310.11 109.23C310.38 109.61 310.72 110.21 310.92 110.62L311.46 110.37C311.26 109.97 310.9 109.36 310.65 109ZM311.74 108.6L311.22 108.83C311.5 109.2 311.82 109.77 312.04 110.2L312.58 109.96C312.39 109.59 312.01 108.97 311.74 108.6ZM311.31 110.99L310.65 110.59C310.48 110.66 310.26 110.69 309.99 110.69C309.68 110.69 307.21 110.69 306.8 110.69L306.48 111.41H310.19C309.98 112.32 309.37 113.61 308.59 114.53C307.68 115.59 306.44 116.5 304.6 117.04L305.32 117.69C307.2 117 308.4 116.08 309.31 114.97C310.19 113.89 310.81 112.53 311.08 111.53C311.13 111.37 311.23 111.14 311.31 110.99ZM307.96 109.48L307.04 109.18C306.98 109.43 306.83 109.8 306.73 109.97C306.29 110.87 305.31 112.32 303.58 113.35L304.28 113.87C305.88 112.8 306.93 111.37 307.52 110.27C307.62 110.08 307.8 109.74 307.96 109.48ZM240.54 119.61V120.44C240.8 120.42 241.13 120.4 241.46 120.4C242.03 120.4 244.94 120.4 245.5 120.4C245.78 120.4 246.13 120.42 246.43 120.44V119.61C246.14 119.64 245.78 119.66 245.5 119.66C244.94 119.66 242.03 119.66 241.45 119.66C241.12 119.66 240.83 119.64 240.54 119.61ZM239.35 122.12V122.95C239.62 122.93 239.92 122.92 240.22 122.92C240.8 122.92 246.23 122.92 246.76 122.92C247.01 122.92 247.32 122.93 247.55 122.94V122.12C247.3 122.15 246.97 122.16 246.76 122.16C246.23 122.16 240.8 122.16 240.22 122.16C239.91 122.16 239.62 122.15 239.35 122.12ZM244.06 122.52L243.22 122.53C243.21 123.63 243.13 124.61 242.63 125.4C242.24 126.04 241.52 126.61 240.75 126.94L241.49 127.48C242.33 127.04 243.09 126.33 243.45 125.66C243.9 124.82 244.06 123.78 244.06 122.52ZM252.31 119.93C252.43 120.45 253.5 125.89 253.6 126.52C253.67 126.81 253.7 127.12 253.75 127.46L254.67 127.29C254.57 127 254.49 126.66 254.42 126.38C254.28 125.72 253.18 120.23 253.12 119.79C253.08 119.57 253.04 119.28 253.02 119.1L252.13 119.25C252.2 119.46 252.26 119.68 252.31 119.93ZM249.49 121.38L249.67 122.27C249.96 122.2 250.2 122.15 250.47 122.1C251.35 121.95 254.76 121.41 255.79 121.25C256.06 121.21 256.36 121.16 256.51 121.15L256.35 120.31C256.18 120.36 255.92 120.42 255.63 120.47C254.68 120.66 251.23 121.21 250.33 121.31C250.01 121.34 249.74 121.36 249.49 121.38ZM249.46 124.26L249.64 125.14C249.86 125.08 250.14 125.02 250.53 124.95C251.54 124.77 255.15 124.18 256.48 123.98C256.85 123.92 257.17 123.86 257.38 123.84L257.21 123C257 123.06 256.71 123.13 256.33 123.2C255.13 123.42 251.41 124.03 250.34 124.17C250.08 124.21 249.7 124.25 249.46 124.26ZM266.088 120.32L265.588 119.93C265.428 119.98 265.158 120.01 264.838 120.01C264.458 120.01 261.368 120.01 260.978 120.01C260.668 120.01 260.098 119.97 259.968 119.95V120.85C260.078 120.84 260.618 120.8 260.978 120.8C261.318 120.8 264.518 120.8 264.878 120.8C264.618 121.63 263.888 122.82 263.208 123.59C262.178 124.73 260.708 125.93 259.088 126.55L259.728 127.22C261.308 126.5 262.738 125.31 263.858 124.06C264.688 123.14 265.448 121.74 265.848 120.75C265.898 120.62 266.028 120.4 266.088 120.32ZM263.988 123.54L263.418 124.1C264.498 125.05 265.668 126.33 266.388 127.28L267.078 126.67C266.398 125.84 265.068 124.44 263.988 123.54ZM271.458 126.12C271.458 126.49 271.448 126.99 271.398 127.31H272.368C272.328 126.98 272.308 126.44 272.308 126.12C272.308 125.65 272.298 121.86 272.298 120.31C272.298 120 272.328 119.57 272.368 119.26H271.388C271.438 119.58 271.458 120.02 271.458 120.31C271.458 121.14 271.458 125.56 271.458 126.12ZM272.118 121.89V122.77C273.208 123.11 275.078 123.82 276.218 124.43L276.568 123.58C275.458 123.04 273.438 122.27 272.118 121.89ZM284.998 120.22L284.428 120.47C284.758 120.92 285.118 121.55 285.358 122.07L285.948 121.81C285.718 121.33 285.258 120.59 284.998 120.22ZM286.288 119.71L285.728 119.98C286.058 120.42 286.418 121.03 286.688 121.55L287.268 121.27C287.028 120.81 286.548 120.06 286.288 119.71ZM278.628 124.37L279.368 125.13C279.528 124.93 279.738 124.62 279.948 124.36C280.398 123.81 281.238 122.71 281.718 122.13C282.058 121.71 282.248 121.68 282.638 122.05C283.058 122.47 283.978 123.46 284.558 124.11C285.208 124.84 286.088 125.87 286.798 126.73L287.488 126C286.718 125.17 285.718 124.09 285.038 123.37C284.458 122.75 283.598 121.85 282.988 121.28C282.308 120.63 281.838 120.74 281.308 121.37C280.678 122.12 279.808 123.23 279.328 123.71C279.068 123.97 278.878 124.15 278.628 124.37ZM289.108 122.67V123.65C289.428 123.63 289.958 123.61 290.508 123.61C291.248 123.61 295.238 123.61 295.998 123.61C296.438 123.61 296.858 123.64 297.068 123.65V122.67C296.838 122.69 296.488 122.73 295.988 122.73C295.248 122.73 291.238 122.73 290.508 122.73C289.938 122.73 289.418 122.7 289.108 122.67ZM305.59 120.32L305.09 119.93C304.93 119.98 304.66 120.01 304.34 120.01C303.96 120.01 300.87 120.01 300.48 120.01C300.17 120.01 299.6 119.97 299.47 119.95V120.85C299.58 120.84 300.12 120.8 300.48 120.8C300.82 120.8 304.02 120.8 304.38 120.8C304.12 121.63 303.39 122.82 302.71 123.59C301.68 124.73 300.21 125.93 298.59 126.55L299.23 127.22C300.81 126.5 302.24 125.31 303.36 124.06C304.19 123.14 304.95 121.74 305.35 120.75C305.4 120.62 305.53 120.4 305.59 120.32ZM303.49 123.54L302.92 124.1C304 125.05 305.17 126.33 305.89 127.28L306.58 126.67C305.9 125.84 304.57 124.44 303.49 123.54ZM308.38 120.42L308.47 121.3C309.55 121.07 312.1 120.82 313.17 120.71C312.26 121.25 311.31 122.53 311.31 124.08C311.31 126.32 313.41 127.3 315.26 127.37L315.55 126.55C313.93 126.49 312.1 125.86 312.1 123.91C312.1 122.73 312.97 121.2 314.4 120.74C314.91 120.6 315.78 120.58 316.36 120.59L316.35 119.79C315.68 119.81 314.75 119.87 313.65 119.96C311.81 120.12 309.92 120.3 309.28 120.37C309.08 120.39 308.76 120.41 308.38 120.42ZM314.91 121.81L314.41 122.03C314.71 122.45 314.99 122.96 315.22 123.44L315.74 123.21C315.52 122.76 315.14 122.14 314.91 121.81ZM316 121.39L315.51 121.62C315.82 122.04 316.12 122.54 316.36 123.02L316.87 122.77C316.64 122.33 316.25 121.72 316 121.39ZM322.2 118.61V120.07H322.97V118.61H322.2ZM318.37 119.59V121.53H319.11V120.26H326.05V121.53H326.82V119.59H318.37ZM319.21 121.42V122.05H326.05V121.42H319.21ZM318.22 124.53V125.19H327.03V124.53H318.22ZM319.37 122.95V123.58H325.91V122.95H319.37ZM323.11 124.69L322.43 124.85C323.15 126.51 324.57 127.45 326.68 127.83C326.78 127.63 326.98 127.33 327.14 127.17C325.13 126.89 323.73 126.07 323.11 124.69ZM322.19 120.59V123.08C322.19 124.52 321.89 126.15 318.12 127.2C318.28 127.36 318.5 127.64 318.58 127.8C322.46 126.64 322.94 124.79 322.94 123.08V120.59H322.19ZM332.95 120.01V120.7H337.14V120.01H332.95ZM334.38 121.07V126.11H335.03V121.07H334.38ZM333.19 118.6C332.91 119.84 332.4 121.03 331.71 121.8C331.88 121.92 332.17 122.19 332.29 122.32C333.01 121.45 333.59 120.14 333.93 118.75L333.19 118.6ZM331.87 123.85L332.15 124.46L336.54 122.39L336.27 121.78L331.87 123.85ZM332.75 121.86V126.64C332.75 127.53 333.03 127.76 334.03 127.76C334.25 127.76 335.84 127.76 336.07 127.76C336.92 127.76 337.14 127.42 337.23 126.23C337.04 126.18 336.76 126.07 336.59 125.96C336.55 126.93 336.47 127.11 336.03 127.11C335.69 127.11 334.33 127.11 334.08 127.11C333.53 127.11 333.44 127.03 333.44 126.65V121.86H332.75ZM336.09 121.94C336.09 123.45 336.08 124.64 336.05 124.82C336.03 124.98 335.96 125.01 335.84 125.01C335.75 125.01 335.51 125.01 335.32 125C335.4 125.15 335.46 125.4 335.48 125.59C335.71 125.59 336.02 125.58 336.24 125.53C336.49 125.47 336.66 125.3 336.69 124.98C336.73 124.69 336.74 123.43 336.75 122L336.78 121.88L336.31 121.7L336.18 121.79L336.01 121.94H336.09ZM328.03 120.24V120.94H332.26V120.24H328.03ZM329.47 122.32V123.01H331.23V122.32H329.47ZM329.79 118.62V120.49H330.52V118.62H329.79ZM329.13 120.64C329.1 123.22 329.01 125.86 327.92 127.31C328.12 127.42 328.36 127.64 328.49 127.8C329.67 126.2 329.8 123.43 329.84 120.64H329.13ZM330.99 122.32V122.47C330.93 125.67 330.85 126.78 330.68 127.01C330.6 127.13 330.51 127.15 330.37 127.15C330.22 127.15 329.85 127.15 329.44 127.11C329.55 127.3 329.62 127.59 329.63 127.79C330.05 127.81 330.46 127.81 330.7 127.79C330.96 127.76 331.13 127.68 331.29 127.46C331.55 127.12 331.6 125.99 331.67 122.66C331.68 122.56 331.68 122.32 331.68 122.32H330.99Z" fill="black"/>
<path d="M268.51 140.75V141.46H271.71V140.75H268.51ZM269.93 138.6V147.79H270.62V138.6H269.93ZM269.91 141.19C269.63 142.62 268.96 144.36 268.3 145.26C268.42 145.43 268.6 145.71 268.69 145.91C269.4 144.91 270.07 142.94 270.38 141.35L269.91 141.19ZM270.57 142.15L270.25 142.47C270.51 142.86 271.2 144.04 271.43 144.53L271.85 143.94C271.66 143.65 270.81 142.42 270.57 142.15ZM272.7 140.97V141.61H276.51V140.97H272.7ZM274.58 139.28C275.22 140.17 276.36 141.1 277.38 141.63C277.48 141.43 277.64 141.15 277.78 140.98C276.73 140.52 275.61 139.62 274.9 138.62H274.21C273.67 139.53 272.6 140.51 271.48 141.04C271.61 141.2 271.78 141.47 271.86 141.66C272.95 141.07 274.01 140.13 274.58 139.28ZM272.71 143.13H276.47V144.5H272.71V143.13ZM272.05 142.53V145.12H277.16V142.53H272.05ZM274.22 141.35V143.98C274.22 145.23 273.9 146.48 271.36 147.29C271.49 147.41 271.71 147.69 271.77 147.85C274.45 146.97 274.91 145.44 274.91 144V141.35H274.22ZM275.01 144.73L274.37 144.87C274.98 146.61 275.89 147.32 277.28 147.85C277.36 147.63 277.55 147.38 277.72 147.22C276.44 146.79 275.59 146.23 275.01 144.73ZM282.35 139.21V139.93H287.47V139.21H282.35ZM282.02 146.75V147.46H287.63V146.75H282.02ZM285.1 142.69V143.41H287.41V142.69H285.1ZM284.68 139.49V147.15H285.42V139.49H284.68ZM282.77 141.72V147.07H283.48V141.72H282.77ZM278.85 141.69V142.28H281.67V141.69H278.85ZM278.91 138.96V139.56H281.66V138.96H278.91ZM278.85 143.05V143.65H281.67V143.05H278.85ZM278.38 140.3V140.92H282.02V140.3H278.38ZM279.21 144.42V145.05H281.05V146.72H279.21V147.34H281.71V144.42H279.21ZM278.84 144.42V147.8H279.49V144.42H278.84ZM292.48 138.91C292.41 140.24 292.41 145.05 288.33 147.13C288.56 147.3 288.81 147.53 288.94 147.72C293.08 145.47 293.23 140.48 293.31 138.91H292.48ZM293.28 139.11L292.56 139.18C292.63 140.1 292.91 145.69 297.15 147.72C297.27 147.51 297.5 147.26 297.72 147.09C293.6 145.2 293.31 139.89 293.28 139.11ZM298.39 143.94V144.57H303.3V143.94H298.39ZM298.45 140.45V141.06H303.27V140.45H298.45ZM300.25 143.08C299.83 144 299.2 145.23 298.75 145.99L299.41 146.22C299.87 145.43 300.5 144.21 300.95 143.23L300.25 143.08ZM301.75 144.31C301.44 146.01 300.5 146.83 298.41 147.18C298.55 147.33 298.7 147.6 298.75 147.8C301.06 147.31 302.11 146.35 302.45 144.4L301.75 144.31ZM302.38 138.8C302.2 139.19 301.87 139.77 301.62 140.13L302.12 140.38C302.4 140.04 302.73 139.54 303.02 139.08L302.38 138.8ZM300.52 138.6V143.2H301.21V138.6H300.52ZM298.82 139.08C299.1 139.49 299.36 140.04 299.45 140.4L300.04 140.13C299.94 139.77 299.67 139.24 299.39 138.84L298.82 139.08ZM300.53 140.72C300.09 141.49 299.17 142.29 298.34 142.65C298.48 142.8 298.66 143.05 298.75 143.22C299.61 142.75 300.55 141.86 301.04 141.02L300.53 140.72ZM301.13 141.07L300.77 141.39C301.19 141.67 302.23 142.45 302.59 142.79L303 142.24C302.71 142.03 301.49 141.26 301.13 141.07ZM304.03 140.45V141.15H307.59V140.45H304.03ZM304.28 138.6C304 140.37 303.48 142.06 302.63 143.12C302.81 143.24 303.12 143.49 303.24 143.63C304.12 142.46 304.71 140.67 305.04 138.71L304.28 138.6ZM306.25 140.85C305.84 144.02 304.88 146.04 302.5 147.16C302.65 147.32 302.87 147.65 302.95 147.83C305.47 146.53 306.53 144.38 307.01 140.93L306.25 140.85ZM304.43 141.07L303.75 141.18C304.25 144.21 305.2 146.65 307.16 147.8C307.27 147.6 307.51 147.31 307.69 147.16C305.83 146.18 304.87 143.82 304.43 141.07ZM299.35 145.85C300.51 146.32 301.7 146.99 302.39 147.55L302.91 147.01C302.19 146.46 300.95 145.8 299.75 145.34L299.35 145.85Z" fill="black"/>
<path d="M282.21 159.099C281.741 159.099 281.324 159.019 280.957 158.858C280.592 158.697 280.302 158.473 280.087 158.187C279.874 157.898 279.758 157.563 279.739 157.182H280.634C280.652 157.416 280.733 157.619 280.875 157.789C281.017 157.957 281.203 158.087 281.433 158.18C281.662 158.272 281.917 158.318 282.196 158.318C282.509 158.318 282.786 158.264 283.027 158.155C283.268 158.046 283.458 157.894 283.595 157.7C283.732 157.506 283.801 157.281 283.801 157.026C283.801 156.758 283.735 156.522 283.602 156.319C283.47 156.113 283.276 155.952 283.02 155.836C282.764 155.72 282.452 155.662 282.082 155.662H281.5V154.881H282.082C282.371 154.881 282.625 154.829 282.842 154.724C283.063 154.62 283.234 154.473 283.357 154.284C283.483 154.095 283.545 153.872 283.545 153.616C283.545 153.37 283.491 153.156 283.382 152.974C283.273 152.791 283.119 152.649 282.92 152.548C282.724 152.446 282.492 152.395 282.224 152.395C281.973 152.395 281.737 152.441 281.514 152.533C281.294 152.623 281.114 152.755 280.974 152.928C280.835 153.098 280.759 153.304 280.747 153.545H279.895C279.909 153.164 280.024 152.83 280.239 152.544C280.455 152.255 280.737 152.03 281.085 151.869C281.435 151.708 281.82 151.628 282.239 151.628C282.688 151.628 283.074 151.719 283.396 151.901C283.718 152.081 283.966 152.319 284.138 152.615C284.311 152.911 284.398 153.231 284.398 153.574C284.398 153.983 284.29 154.333 284.075 154.621C283.862 154.91 283.571 155.11 283.205 155.222V155.278C283.664 155.354 284.022 155.549 284.281 155.864C284.539 156.177 284.668 156.564 284.668 157.026C284.668 157.421 284.56 157.776 284.344 158.091C284.131 158.403 283.84 158.65 283.471 158.83C283.102 159.009 282.681 159.099 282.21 159.099ZM289.007 158.71V159.4H293.837V158.71H289.007ZM288.667 151.61V152.28H292.337V151.61H288.667ZM289.117 150.57C288.537 151.66 287.387 152.95 285.737 153.85C285.907 153.98 286.157 154.24 286.267 154.43C288.007 153.4 289.207 152.04 289.957 150.74L289.117 150.57ZM292.087 151.61V151.74C291.047 154.37 288.277 156.33 285.687 157.08C285.847 157.24 286.037 157.55 286.127 157.75C288.847 156.87 291.667 154.86 292.867 151.84L292.367 151.57L292.227 151.61H292.087ZM287.417 153.39C288.207 153.95 289.157 154.79 289.577 155.36L290.187 154.82C289.727 154.25 288.767 153.45 287.977 152.91L287.417 153.39ZM293.467 155.55V159.82H294.237V155.55H293.467ZM289.347 155.55H289.197L288.597 156.14V159.8H289.347V156.24H293.847V155.55H289.347Z" fill="black"/>
<ellipse cx="269" cy="172.231" rx="7" ry="7.2313" fill="#F0C65A"/>
<rect x="264.21" y="185.552" width="9.57895" height="30.4476" fill="#F0C65A"/>
<ellipse cx="288" cy="172.231" rx="7" ry="7.2313" fill="#F0C65A"/>
<rect x="283.21" y="185.552" width="9.57895" height="30.4476" fill="#F0C65A"/>
<ellipse cx="307" cy="172.231" rx="7" ry="7.23134" fill="#F0C65A"/>
<rect x="302.21" y="185.553" width="9.57895" height="30.4478" fill="#F0C65A"/>
</svg>
