<svg width="914" height="245" viewBox="0 0 914 245" fill="none" xmlns="http://www.w3.org/2000/svg">
<rect x="913.001" width="245" height="913.001" rx="30" transform="rotate(90 913.001 0)" fill="#F2F1F6"/>
<circle cx="818.501" cy="122.5" r="70.5001" fill="#F0C65A"/>
<path d="M818.467 84.6381C817.751 84.6267 817.035 84.4903 816.319 84.229C815.603 83.9676 814.949 83.5273 814.359 82.9079C813.768 82.2829 813.293 81.4392 812.935 80.3767C812.577 79.3085 812.398 77.9676 812.398 76.354C812.398 74.8085 812.543 73.4392 812.833 72.246C813.123 71.0471 813.543 70.0386 814.094 69.2204C814.646 68.3966 815.31 67.7716 816.089 67.3454C816.873 66.9193 817.756 66.7062 818.739 66.7062C819.717 66.7062 820.586 66.9023 821.347 67.2943C822.114 67.6807 822.739 68.2204 823.222 68.9136C823.705 69.6068 824.018 70.4051 824.16 71.3085H822.08C821.887 70.5244 821.512 69.8738 820.955 69.3568C820.398 68.8398 819.66 68.5812 818.739 68.5812C817.387 68.5812 816.322 69.1693 815.543 70.3454C814.771 71.5216 814.381 73.1721 814.376 75.2971H814.512C814.83 74.8142 815.208 74.4023 815.646 74.0613C816.089 73.7148 816.577 73.4477 817.111 73.2602C817.646 73.0727 818.211 72.979 818.807 72.979C819.807 72.979 820.722 73.229 821.552 73.729C822.381 74.2233 823.046 74.9079 823.546 75.7829C824.046 76.6523 824.296 77.6494 824.296 78.7744C824.296 79.854 824.055 80.8426 823.572 81.7403C823.089 82.6324 822.41 83.3426 821.535 83.871C820.665 84.3937 819.643 84.6494 818.467 84.6381ZM818.467 82.7631C819.182 82.7631 819.824 82.5841 820.393 82.2261C820.967 81.8682 821.418 81.3881 821.748 80.7858C822.083 80.1835 822.251 79.5131 822.251 78.7744C822.251 78.0528 822.089 77.3966 821.765 76.8057C821.447 76.2091 821.006 75.7346 820.444 75.3824C819.887 75.0301 819.251 74.854 818.535 74.854C817.995 74.854 817.492 74.9619 817.026 75.1778C816.56 75.3881 816.151 75.6778 815.799 76.0471C815.452 76.4165 815.18 76.8398 814.981 77.317C814.782 77.7886 814.682 78.2858 814.682 78.8085C814.682 79.5017 814.844 80.1494 815.168 80.7517C815.498 81.354 815.947 81.8398 816.515 82.2091C817.089 82.5784 817.739 82.7631 818.467 82.7631Z" fill="black"/>
<path d="M786.598 98.8382H789.059V106.395C789.059 107.244 788.856 107.986 788.451 108.622C788.049 109.259 787.487 109.755 786.763 110.111C786.04 110.463 785.197 110.639 784.235 110.639C783.269 110.639 782.424 110.463 781.701 110.111C780.977 109.755 780.415 109.259 780.013 108.622C779.612 107.986 779.411 107.244 779.411 106.395V98.8382H781.871V106.185C781.871 106.628 781.968 107.022 782.161 107.367C782.358 107.711 782.634 107.982 782.99 108.179C783.346 108.376 783.761 108.475 784.235 108.475C784.712 108.475 785.127 108.376 785.479 108.179C785.835 107.982 786.11 107.711 786.303 107.367C786.5 107.022 786.598 106.628 786.598 106.185V98.8382ZM793.543 98.8382V110.475H791.083V98.8382H793.543ZM803.395 110.475H799.27V98.8382H803.429C804.6 98.8382 805.607 99.0712 806.452 99.5371C807.297 99.9992 807.946 100.664 808.401 101.531C808.859 102.399 809.088 103.437 809.088 104.645C809.088 105.857 808.859 106.899 808.401 107.77C807.946 108.641 807.293 109.31 806.441 109.776C805.592 110.242 804.577 110.475 803.395 110.475ZM801.73 108.367H803.293C804.02 108.367 804.632 108.238 805.128 107.98C805.628 107.719 806.003 107.316 806.253 106.77C806.507 106.221 806.634 105.512 806.634 104.645C806.634 103.785 806.507 103.083 806.253 102.537C806.003 101.992 805.63 101.59 805.134 101.333C804.638 101.075 804.026 100.946 803.299 100.946H801.73V108.367ZM810.911 110.475V98.8382H818.752V100.867H813.371V103.639H818.348V105.668H813.371V108.446H818.774V110.475H810.911ZM827.02 102.185C826.975 101.727 826.78 101.37 826.435 101.117C826.09 100.863 825.622 100.736 825.032 100.736C824.63 100.736 824.291 100.793 824.014 100.906C823.738 101.016 823.526 101.17 823.378 101.367C823.234 101.564 823.162 101.787 823.162 102.037C823.155 102.245 823.198 102.427 823.293 102.583C823.391 102.738 823.526 102.872 823.696 102.986C823.867 103.096 824.064 103.192 824.287 103.276C824.511 103.355 824.749 103.423 825.003 103.48L826.049 103.73C826.556 103.844 827.022 103.995 827.446 104.185C827.871 104.374 828.238 104.607 828.549 104.884C828.859 105.16 829.1 105.486 829.27 105.861C829.444 106.236 829.533 106.666 829.537 107.151C829.533 107.863 829.352 108.48 828.992 109.003C828.636 109.522 828.121 109.925 827.446 110.213C826.776 110.497 825.967 110.639 825.02 110.639C824.081 110.639 823.263 110.495 822.566 110.208C821.872 109.92 821.331 109.494 820.941 108.929C820.554 108.361 820.352 107.658 820.333 106.821H822.713C822.74 107.211 822.852 107.537 823.049 107.798C823.249 108.056 823.516 108.251 823.85 108.384C824.187 108.512 824.568 108.577 824.992 108.577C825.408 108.577 825.77 108.516 826.077 108.395C826.388 108.274 826.628 108.105 826.799 107.889C826.969 107.673 827.054 107.425 827.054 107.145C827.054 106.884 826.977 106.664 826.821 106.486C826.67 106.308 826.446 106.156 826.151 106.031C825.859 105.906 825.501 105.793 825.077 105.691L823.81 105.372C822.829 105.134 822.054 104.761 821.486 104.253C820.918 103.745 820.636 103.062 820.639 102.202C820.636 101.497 820.823 100.882 821.202 100.355C821.585 99.8288 822.109 99.4178 822.776 99.1223C823.443 98.8269 824.2 98.6792 825.049 98.6792C825.912 98.6792 826.666 98.8269 827.31 99.1223C827.958 99.4178 828.461 99.8288 828.821 100.355C829.181 100.882 829.367 101.492 829.378 102.185H827.02ZM833.652 98.8382V110.475H831.192V98.8382H833.652ZM843.392 102.6C843.313 102.323 843.201 102.079 843.057 101.867C842.913 101.651 842.737 101.469 842.529 101.321C842.324 101.17 842.089 101.054 841.824 100.975C841.563 100.895 841.273 100.855 840.955 100.855C840.36 100.855 839.837 101.003 839.387 101.298C838.94 101.594 838.591 102.024 838.341 102.588C838.091 103.149 837.966 103.834 837.966 104.645C837.966 105.456 838.089 106.145 838.335 106.713C838.582 107.281 838.93 107.715 839.381 108.014C839.832 108.31 840.364 108.458 840.978 108.458C841.534 108.458 842.01 108.359 842.404 108.162C842.801 107.961 843.104 107.679 843.313 107.316C843.525 106.952 843.631 106.522 843.631 106.026L844.131 106.1H841.131V104.247H846V105.713C846 106.736 845.784 107.615 845.353 108.35C844.921 109.081 844.326 109.645 843.568 110.043C842.811 110.437 841.943 110.634 840.966 110.634C839.875 110.634 838.917 110.393 838.091 109.912C837.265 109.427 836.621 108.74 836.159 107.85C835.701 106.956 835.472 105.895 835.472 104.668C835.472 103.725 835.608 102.884 835.881 102.145C836.157 101.403 836.544 100.774 837.04 100.259C837.536 99.7435 838.114 99.3515 838.773 99.0826C839.432 98.8136 840.146 98.6792 840.915 98.6792C841.574 98.6792 842.188 98.7757 842.756 98.9689C843.324 99.1583 843.828 99.4273 844.267 99.7757C844.71 100.124 845.072 100.539 845.353 101.02C845.633 101.497 845.813 102.024 845.892 102.6H843.392ZM857.581 98.8382V110.475H855.456L850.394 103.151H850.309V110.475H847.848V98.8382H850.007L855.03 106.156H855.132V98.8382H857.581Z" fill="black"/>
<path d="M771.313 146.206H775.563V146.626H771.313V146.206ZM771.313 145.076H775.563V145.486H771.313V145.076ZM770.163 144.306V147.396H776.763V144.306H770.163ZM768.983 147.756V148.716H777.923V147.756H768.983ZM773.563 149.086V150.006H776.833V149.086H773.563ZM770.513 149.116V149.946H772.793V149.116H770.513ZM770.513 150.366V151.196H772.793V150.366H770.513ZM774.793 149.916L773.833 150.186C774.513 151.746 775.703 152.866 777.433 153.366C777.583 153.086 777.893 152.646 778.143 152.436C776.533 152.056 775.353 151.136 774.793 149.916ZM776.483 149.086V149.256C776.043 150.796 774.753 151.946 773.203 152.436C773.423 152.656 773.723 153.086 773.853 153.366C775.633 152.696 777.043 151.416 777.633 149.326L776.893 149.046L776.693 149.086H776.483ZM768.893 151.826L768.973 152.856C770.023 152.766 771.423 152.636 772.763 152.506V151.536C771.363 151.656 769.893 151.766 768.893 151.826ZM772.173 148.066V153.376H773.323V148.066H772.173ZM769.763 148.096V152.176H770.863V148.096H769.763ZM784.053 150.086C784.763 150.366 785.643 150.876 786.113 151.256L786.803 150.426C786.323 150.066 785.453 149.596 784.723 149.326L784.053 150.086ZM782.963 151.866C784.273 152.246 785.863 152.916 786.743 153.466L787.443 152.526C786.513 152.026 784.963 151.376 783.663 151.026L782.963 151.866ZM784.203 143.986C783.833 144.926 783.113 146.036 782.033 146.866C782.283 147.026 782.663 147.396 782.843 147.646C784.053 146.646 784.823 145.416 785.373 144.186L784.203 143.986ZM784.393 144.936L783.883 145.966H786.873V144.936H784.393ZM786.553 144.936V145.146C785.873 146.926 784.173 148.306 782.303 148.986C782.533 149.186 782.893 149.656 783.033 149.936C784.983 149.126 786.823 147.546 787.713 145.306L786.973 144.896L786.773 144.936H786.553ZM784.273 145.726L783.323 146.066C784.233 147.816 785.743 149.266 787.563 149.996C787.733 149.696 788.083 149.246 788.333 149.016C786.573 148.436 785.043 147.166 784.273 145.726ZM780.263 143.996C780.033 144.696 779.603 145.656 779.243 146.246L780.043 146.596C780.433 146.036 780.893 145.146 781.303 144.386L780.263 143.996ZM781.413 145.176C780.893 146.256 779.973 147.726 779.233 148.636L779.923 149.026C780.683 148.156 781.663 146.766 782.383 145.616L781.413 145.176ZM778.723 146.366C779.233 146.846 779.843 147.546 780.083 148.026L780.703 147.096C780.443 146.636 779.823 146.006 779.293 145.546L778.723 146.366ZM781.113 147.566C781.483 148.246 781.833 149.156 781.933 149.726L782.783 149.346C782.673 148.776 782.293 147.906 781.903 147.236L781.113 147.566ZM778.713 148.396L778.813 149.446C779.783 149.376 781.063 149.296 782.293 149.206L782.303 148.256C780.983 148.316 779.633 148.366 778.713 148.396ZM781.333 150.056C781.553 150.646 781.813 151.416 781.913 151.916L782.793 151.606C782.683 151.106 782.423 150.356 782.173 149.786L781.333 150.056ZM779.143 149.866C779.063 150.716 778.903 151.606 778.613 152.196C778.863 152.296 779.313 152.506 779.523 152.636C779.813 151.996 780.033 150.996 780.133 150.036L779.143 149.866ZM780.263 148.926V153.386H781.313V148.926H780.263ZM793.765 145.203H795.082V149.954C795.082 150.475 794.959 150.933 794.713 151.329C794.469 151.724 794.126 152.033 793.683 152.255C793.241 152.476 792.723 152.586 792.131 152.586C791.537 152.586 791.019 152.476 790.576 152.255C790.133 152.033 789.79 151.724 789.546 151.329C789.302 150.933 789.18 150.475 789.18 149.954V145.203H790.498V149.844C790.498 150.147 790.564 150.417 790.697 150.654C790.832 150.891 791.021 151.076 791.265 151.211C791.509 151.344 791.798 151.41 792.131 151.41C792.465 151.41 792.754 151.344 792.998 151.211C793.244 151.076 793.433 150.891 793.566 150.654C793.699 150.417 793.765 150.147 793.765 149.844V145.203ZM797.832 145.203V152.476H796.514V145.203H797.832ZM804.451 145.626L803.081 145.586C802.981 146.636 802.761 147.786 802.471 148.726C802.051 150.076 801.671 150.716 801.241 150.716C800.861 150.716 800.461 150.226 800.461 149.216C800.461 147.956 801.621 146.226 803.741 146.226C805.471 146.226 806.451 147.346 806.451 148.916C806.451 150.386 805.451 151.296 804.181 151.606C803.911 151.666 803.631 151.716 803.241 151.766L804.001 152.946C806.521 152.556 807.811 151.066 807.811 148.966C807.811 146.776 806.241 145.056 803.771 145.056C801.181 145.056 799.171 147.036 799.171 149.336C799.171 151.026 800.091 152.256 801.211 152.256C802.301 152.256 803.161 151.016 803.761 148.996C804.111 147.816 804.311 146.646 804.451 145.626ZM818.081 145.716L817.291 144.976C817.101 145.026 816.551 145.066 816.271 145.066C815.751 145.066 811.511 145.066 810.881 145.066C810.471 145.066 810.051 145.016 809.661 144.956V146.356C810.131 146.306 810.471 146.286 810.881 146.286C811.511 146.286 815.491 146.286 816.101 146.286C815.841 146.776 815.061 147.656 814.251 148.146L815.291 148.976C816.281 148.276 817.231 147.006 817.701 146.226C817.791 146.086 817.981 145.846 818.081 145.716ZM814.011 147.056H812.561C812.611 147.386 812.621 147.646 812.621 147.966C812.621 149.606 812.381 150.656 811.121 151.536C810.751 151.816 810.391 151.986 810.061 152.096L811.231 153.046C813.951 151.576 814.011 149.536 814.011 147.056ZM824.261 144.316H822.721C822.781 144.746 822.791 144.946 822.791 145.236C822.791 145.496 822.791 146.236 822.791 146.676H824.191C824.191 146.296 824.191 145.496 824.191 145.236C824.191 144.946 824.201 144.746 824.261 144.316ZM827.621 146.426L826.761 145.896C826.581 145.956 826.341 145.996 825.931 145.996H820.661C820.281 145.996 819.981 145.986 819.641 145.956C819.681 146.186 819.681 146.586 819.681 146.806C819.681 147.186 819.681 148.216 819.681 148.546C819.681 148.816 819.671 149.136 819.641 149.386H821.021C820.991 149.186 820.981 148.866 820.981 148.646C820.981 148.336 820.981 147.526 820.981 147.176H825.941C825.821 148.066 825.561 149.016 825.061 149.756C824.491 150.556 823.611 151.146 822.791 151.456C822.371 151.626 821.831 151.776 821.371 151.856L822.411 153.056C824.191 152.586 825.701 151.526 826.491 150.056C826.991 149.146 827.251 148.176 827.431 147.216C827.471 147.026 827.551 146.646 827.621 146.426ZM831.671 151.526C831.671 151.916 831.641 152.526 831.571 152.916H833.141C833.091 152.506 833.051 151.806 833.051 151.526C833.051 150.786 833.041 146.876 833.041 145.776C833.041 145.356 833.091 144.926 833.131 144.566H831.571C831.641 144.926 831.671 145.416 831.671 145.776C831.671 146.616 831.671 150.756 831.671 151.526ZM832.751 147.156V148.596C833.841 148.956 835.521 149.596 836.661 150.186L837.221 148.796C836.241 148.316 834.081 147.526 832.751 147.156ZM846.571 145.146C846.571 144.826 846.831 144.566 847.151 144.566C847.471 144.566 847.731 144.826 847.731 145.146C847.731 145.466 847.471 145.726 847.151 145.726C846.831 145.726 846.571 145.466 846.571 145.146ZM845.951 145.146C845.951 145.806 846.491 146.346 847.151 146.346C847.811 146.346 848.351 145.806 848.351 145.146C848.351 144.486 847.811 143.946 847.151 143.946C846.491 143.946 845.951 144.486 845.951 145.146ZM847.171 145.936L846.181 145.306C845.921 145.376 845.601 145.386 845.401 145.386C844.841 145.386 841.521 145.386 840.771 145.386C840.441 145.386 839.881 145.336 839.581 145.296V146.716C839.841 146.696 840.311 146.666 840.771 146.666C841.521 146.666 844.821 146.666 845.431 146.666C845.301 147.526 844.921 148.666 844.251 149.496C843.451 150.506 842.321 151.376 840.331 151.836L841.421 153.036C843.211 152.466 844.541 151.476 845.441 150.276C846.281 149.166 846.721 147.606 846.951 146.626C847.001 146.416 847.071 146.126 847.171 145.936ZM853.581 146.546L852.401 146.936C852.641 147.456 853.081 148.666 853.211 149.146L854.401 148.736C854.261 148.276 853.771 146.966 853.581 146.546ZM857.271 147.266L855.871 146.816C855.761 148.076 855.271 149.406 854.591 150.246C853.771 151.286 852.371 152.046 851.281 152.346L852.331 153.416C853.501 152.966 854.741 152.136 855.671 150.926C856.351 150.056 856.781 149.016 857.041 148.006C857.101 147.806 857.161 147.596 857.271 147.266ZM851.261 147.066L850.061 147.506C850.301 147.936 850.811 149.276 850.971 149.806L852.191 149.356C852.001 148.796 851.511 147.576 851.261 147.066ZM861.671 151.526C861.671 151.916 861.641 152.526 861.571 152.916H863.141C863.091 152.506 863.051 151.806 863.051 151.526C863.051 150.786 863.041 146.876 863.041 145.776C863.041 145.356 863.091 144.926 863.131 144.566H861.571C861.641 144.926 861.671 145.416 861.671 145.776C861.671 146.616 861.671 150.756 861.671 151.526ZM862.751 147.156V148.596C863.841 148.956 865.521 149.596 866.661 150.186L867.221 148.796C866.241 148.316 864.081 147.526 862.751 147.156Z" fill="black"/>
<circle cx="637.501" cy="122.5" r="70.5001" fill="#F0C65A"/>
<path d="M631.261 80.8199V79.0812L638.931 66.9449H640.193V69.6381H639.34L633.545 78.8085V78.9449H643.874V80.8199H631.261ZM639.477 84.3994V80.2915V79.4818V66.9449H641.488V84.3994H639.477Z" fill="black"/>
<path d="M612.179 110.475H608.054V98.8382H612.213C613.384 98.8382 614.391 99.0712 615.236 99.5371C616.081 99.9992 616.73 100.664 617.185 101.531C617.643 102.399 617.873 103.437 617.873 104.645C617.873 105.857 617.643 106.899 617.185 107.77C616.73 108.641 616.077 109.31 615.225 109.776C614.376 110.242 613.361 110.475 612.179 110.475ZM610.515 108.367H612.077C612.804 108.367 613.416 108.238 613.912 107.98C614.412 107.719 614.787 107.316 615.037 106.77C615.291 106.221 615.418 105.512 615.418 104.645C615.418 103.785 615.291 103.083 615.037 102.537C614.787 101.992 614.414 101.59 613.918 101.333C613.422 101.075 612.81 100.946 612.083 100.946H610.515V108.367ZM619.695 110.475V98.8382H627.536V100.867H622.155V103.639H627.132V105.668H622.155V108.446H627.559V110.475H619.695ZM639.759 102.912H637.27C637.225 102.59 637.132 102.304 636.992 102.054C636.852 101.8 636.672 101.584 636.452 101.406C636.232 101.228 635.979 101.092 635.691 100.997C635.407 100.903 635.098 100.855 634.765 100.855C634.162 100.855 633.638 101.005 633.191 101.304C632.744 101.6 632.397 102.031 632.151 102.6C631.905 103.164 631.782 103.85 631.782 104.656C631.782 105.486 631.905 106.183 632.151 106.747C632.401 107.312 632.749 107.738 633.196 108.026C633.643 108.314 634.16 108.458 634.748 108.458C635.077 108.458 635.382 108.414 635.662 108.327C635.946 108.24 636.198 108.113 636.418 107.946C636.638 107.776 636.819 107.569 636.963 107.327C637.111 107.084 637.213 106.808 637.27 106.497L639.759 106.509C639.694 107.043 639.533 107.558 639.276 108.054C639.022 108.547 638.679 108.988 638.248 109.378C637.819 109.764 637.308 110.071 636.713 110.298C636.123 110.522 635.454 110.634 634.708 110.634C633.67 110.634 632.742 110.399 631.924 109.929C631.109 109.459 630.465 108.78 629.992 107.889C629.522 106.999 629.287 105.922 629.287 104.656C629.287 103.387 629.526 102.308 630.003 101.418C630.48 100.528 631.128 99.8496 631.946 99.3837C632.765 98.914 633.685 98.6792 634.708 98.6792C635.382 98.6792 636.007 98.7739 636.583 98.9632C637.162 99.1526 637.676 99.4292 638.123 99.7928C638.569 100.153 638.933 100.594 639.213 101.117C639.498 101.639 639.679 102.238 639.759 102.912ZM643.983 98.8382V110.475H641.523V98.8382H643.983ZM650.132 110.475H646.007V98.8382H650.167C651.337 98.8382 652.345 99.0712 653.189 99.5371C654.034 99.9992 654.684 100.664 655.138 101.531C655.596 102.399 655.826 103.437 655.826 104.645C655.826 105.857 655.596 106.899 655.138 107.77C654.684 108.641 654.03 109.31 653.178 109.776C652.329 110.242 651.314 110.475 650.132 110.475ZM648.468 108.367H650.03C650.757 108.367 651.369 108.238 651.865 107.98C652.365 107.719 652.74 107.316 652.99 106.77C653.244 106.221 653.371 105.512 653.371 104.645C653.371 103.785 653.244 103.083 652.99 102.537C652.74 101.992 652.367 101.59 651.871 101.333C651.375 101.075 650.763 100.946 650.036 100.946H648.468V108.367ZM657.648 110.475V98.8382H665.489V100.867H660.108V103.639H665.086V105.668H660.108V108.446H665.512V110.475H657.648Z" fill="black"/>
<path d="M608.457 147.386V148.466H610.787V147.386H608.457ZM607.807 144.746V145.856H610.337V148.806H611.497V144.746H607.807ZM607.807 147.386V150.466C607.807 151.646 608.117 151.976 609.217 151.976C609.447 151.976 610.277 151.976 610.517 151.976C611.427 151.976 611.747 151.616 611.887 150.256C611.557 150.176 611.057 149.986 610.817 149.796C610.777 150.706 610.717 150.846 610.407 150.846C610.207 150.846 609.547 150.846 609.387 150.846C609.027 150.846 608.967 150.806 608.967 150.446V147.386H607.807ZM612.747 145.736V146.876H616.907V145.736H612.747ZM612.827 143.996C612.517 145.626 611.907 147.186 611.017 148.116C611.317 148.296 611.847 148.676 612.077 148.886C612.977 147.806 613.677 146.066 614.077 144.216L612.827 143.996ZM615.007 146.226C614.617 149.496 613.547 151.386 610.847 152.356C611.077 152.616 611.447 153.146 611.567 153.426C614.467 152.206 615.717 150.046 616.227 146.356L615.007 146.226ZM613.287 146.636L612.187 146.826C612.787 149.926 613.857 152.226 616.227 153.356C616.407 153.026 616.787 152.536 617.057 152.296C614.857 151.386 613.777 149.276 613.287 146.636ZM619.547 152.156V153.076H624.817V152.156H619.547ZM619.007 150.556V153.376H620.187V151.466H624.197V153.346H625.427V150.556H619.007ZM618.257 145.046V145.916H626.157V145.046H618.257ZM617.977 147.536V148.406H626.457V147.536H617.977ZM618.917 146.296V147.136H625.507V146.296H618.917ZM617.657 149.266V150.186H626.767V149.266H617.657ZM621.557 145.466V149.646H622.797V145.466H621.557ZM619.527 144.246C619.737 144.576 619.947 145.036 620.017 145.326L621.157 144.996C621.057 144.696 620.847 144.276 620.617 143.966L619.527 144.246ZM619.067 148.506C619.247 148.796 619.437 149.206 619.487 149.476L620.647 149.186C620.567 148.926 620.377 148.546 620.177 148.266L619.067 148.506ZM623.677 143.956C623.577 144.276 623.357 144.716 623.187 145.036L624.277 145.236C624.467 144.966 624.707 144.596 624.947 144.166L623.677 143.956ZM624.187 148.276C624.087 148.546 623.907 148.926 623.767 149.196L624.887 149.376C625.037 149.146 625.207 148.836 625.417 148.456L624.187 148.276ZM635.537 146.646L634.837 145.496C634.577 145.706 634.297 145.876 633.917 146.096C633.307 146.446 632.047 147.066 631.097 147.696C629.907 148.476 628.977 149.366 628.977 150.636C628.977 152.356 630.487 152.916 632.487 152.916C633.787 152.916 634.837 152.806 635.697 152.666L635.707 151.226C634.817 151.436 633.467 151.596 632.447 151.596C631.057 151.596 630.357 151.206 630.357 150.486C630.357 149.796 630.917 149.216 631.747 148.676C632.667 148.086 633.917 147.496 634.537 147.186C634.907 147.006 635.227 146.826 635.537 146.646ZM630.507 144.506L629.247 145.026C629.797 146.316 630.397 147.626 630.947 148.536L632.087 147.876C631.617 147.036 630.987 145.836 630.507 144.506ZM640.687 149.086V150.016H646.817V149.086H640.687ZM641.497 150.986C641.977 151.306 642.587 151.796 642.867 152.126L643.507 151.316C643.207 151.006 642.577 150.556 642.107 150.266L641.497 150.986ZM644.757 148.716C645.067 148.926 645.447 149.256 645.627 149.476L646.247 148.906C646.057 148.686 645.657 148.386 645.337 148.186L644.757 148.716ZM641.347 149.566C641.277 150.736 641.097 151.886 640.077 152.566C640.327 152.746 640.617 153.116 640.757 153.366C642.007 152.486 642.287 151.096 642.407 149.566H641.347ZM643.067 143.996C643.067 148.956 643.607 153.376 645.807 153.386C646.587 153.386 646.877 153.086 647.057 151.936C646.817 151.826 646.487 151.626 646.277 151.396C646.227 152.196 646.137 152.376 645.887 152.376C644.687 152.376 644.017 148.566 644.107 143.996H643.067ZM645.357 149.996C644.807 151.176 643.717 152.096 642.287 152.596C642.487 152.796 642.787 153.156 642.917 153.366C644.427 152.776 645.657 151.766 646.347 150.366L645.357 149.996ZM643.957 145.866C644.357 146.206 644.857 146.686 645.087 147.016L645.547 146.266C645.317 145.966 644.817 145.516 644.397 145.216L643.957 145.866ZM645.827 147.026C646.047 147.516 646.247 148.166 646.307 148.566L647.027 148.266C646.967 147.876 646.737 147.256 646.497 146.776L645.827 147.026ZM644.137 147.566L644.307 148.426C644.947 148.346 645.657 148.256 646.387 148.156L646.367 147.396C645.527 147.466 644.737 147.526 644.137 147.566ZM645.057 144.046C644.907 144.546 644.617 145.246 644.377 145.696L645.017 145.986C645.297 145.576 645.637 144.946 645.957 144.376L645.057 144.046ZM645.897 145.116C645.527 145.906 644.867 146.996 644.337 147.666L644.957 148.016C645.507 147.376 646.187 146.356 646.727 145.516L645.897 145.116ZM640.457 145.866C640.867 146.206 641.367 146.686 641.587 147.016L642.047 146.266C641.827 145.966 641.317 145.516 640.907 145.216L640.457 145.866ZM642.167 147.146C642.357 147.646 642.527 148.286 642.567 148.696L643.287 148.426C643.247 148.036 643.057 147.406 642.837 146.926L642.167 147.146ZM640.527 147.726L640.687 148.606C641.337 148.536 642.067 148.456 642.807 148.366L642.787 147.556C641.937 147.626 641.137 147.686 640.527 147.726ZM641.567 144.046C641.407 144.546 641.117 145.276 640.887 145.736L641.527 146.016C641.797 145.606 642.127 144.946 642.457 144.386L641.567 144.046ZM642.407 145.116C642.007 145.956 641.317 147.106 640.757 147.806L641.377 148.146C641.957 147.476 642.667 146.406 643.227 145.516L642.407 145.116ZM637.647 146.056V147.156H640.697V146.056H637.647ZM638.717 143.986V153.376H639.787V143.986H638.717ZM638.697 146.816C638.487 148.086 637.987 149.666 637.407 150.526C637.577 150.796 637.817 151.246 637.917 151.546C638.567 150.526 639.077 148.596 639.317 147.026L638.697 146.816ZM639.737 147.486L639.297 147.926C639.547 148.396 640.087 149.566 640.287 150.156L640.857 149.326C640.707 149.036 639.937 147.756 639.737 147.486ZM649.017 143.936C648.807 144.736 648.397 145.796 648.037 146.476L649.077 146.746C649.457 146.106 649.907 145.126 650.267 144.206L649.017 143.936ZM647.507 145.986L647.597 147.126C648.737 147.056 650.277 146.966 651.747 146.856L651.757 145.816C650.207 145.886 648.587 145.956 647.507 145.986ZM648.097 147.596V153.366H649.207V148.586H651.277V147.596H648.097ZM650.707 147.596V152.136C650.707 152.266 650.667 152.296 650.547 152.296C650.417 152.306 650.017 152.306 649.667 152.286C649.817 152.576 649.987 153.036 650.047 153.356C650.657 153.356 651.107 153.336 651.457 153.156C651.797 152.976 651.897 152.676 651.897 152.166V147.596H650.707ZM648.607 149.106V149.996H651.377V149.106H648.607ZM648.607 150.576V151.466H651.377V150.576H648.607ZM652.677 144.026V147.046C652.677 148.156 652.967 148.496 654.147 148.496C654.377 148.496 655.277 148.496 655.527 148.496C656.457 148.496 656.777 148.136 656.907 146.836C656.577 146.766 656.087 146.586 655.837 146.396C655.797 147.276 655.737 147.426 655.407 147.426C655.197 147.426 654.477 147.426 654.317 147.426C653.937 147.426 653.877 147.376 653.877 147.026V144.026H652.677ZM655.677 144.616C655.017 144.996 653.987 145.446 653.057 145.736C653.187 145.966 653.347 146.326 653.397 146.566C654.387 146.296 655.547 145.916 656.437 145.486L655.677 144.616ZM652.677 148.696V151.856C652.677 152.966 652.977 153.306 654.157 153.306C654.397 153.306 655.327 153.306 655.577 153.306C656.537 153.306 656.857 152.906 656.987 151.496C656.657 151.426 656.177 151.236 655.927 151.056C655.877 152.076 655.817 152.256 655.467 152.256C655.247 152.256 654.497 152.256 654.327 152.256C653.937 152.256 653.867 152.216 653.867 151.846V148.696H652.677ZM655.757 149.116C655.077 149.556 654.007 150.046 653.037 150.356C653.157 150.586 653.327 150.966 653.387 151.196C654.417 150.906 655.627 150.486 656.537 149.996L655.757 149.116ZM650.377 145.036C650.857 145.786 651.337 146.786 651.507 147.426L652.597 146.986C652.407 146.326 651.887 145.376 651.397 144.656L650.377 145.036ZM663.117 145.626L661.747 145.586C661.647 146.636 661.427 147.786 661.137 148.726C660.717 150.076 660.337 150.716 659.907 150.716C659.527 150.716 659.127 150.226 659.127 149.216C659.127 147.956 660.287 146.226 662.407 146.226C664.137 146.226 665.117 147.346 665.117 148.916C665.117 150.386 664.117 151.296 662.847 151.606C662.577 151.666 662.297 151.716 661.907 151.766L662.667 152.946C665.187 152.556 666.477 151.066 666.477 148.966C666.477 146.776 664.907 145.056 662.437 145.056C659.847 145.056 657.837 147.036 657.837 149.336C657.837 151.026 658.757 152.256 659.877 152.256C660.967 152.256 661.827 151.016 662.427 148.996C662.777 147.816 662.977 146.646 663.117 145.626ZM632.687 160.846V161.716H636.437V160.846H632.687ZM632.687 162.426V163.306H636.437V162.426H632.687ZM632.667 164.006V164.996H636.897V164.006H632.667ZM631.197 156.916V158.746H632.217V157.926H635.787V158.746H636.847V156.916H631.197ZM634.047 160.006V164.476H635.147V160.006H634.047ZM633.057 159.176H632.947L631.937 160.216V165.386H633.057V160.176H636.657V159.176H633.057ZM633.587 155.976C633.167 157.846 632.277 159.366 630.907 160.266C631.147 160.466 631.557 160.936 631.717 161.166C633.187 160.086 634.187 158.356 634.727 156.186L633.587 155.976ZM634.657 158.166C634.547 158.606 634.317 159.216 634.117 159.626L635.017 159.856C635.237 159.486 635.507 158.946 635.767 158.396L634.657 158.166ZM627.677 156.576V157.666H631.287V156.576H627.677ZM628.807 159.516V160.556H630.117V163.146H628.807V164.176H631.127V159.516H628.807ZM628.707 157.156C628.507 158.986 628.117 160.716 627.337 161.816C627.547 162.086 627.867 162.696 627.977 162.976C628.997 161.616 629.537 159.496 629.837 157.336L628.707 157.156ZM628.337 159.516V164.946H629.307V159.516H628.337ZM639.437 159.006V160.146H644.967V159.006H639.437ZM642.197 161.406V162.526H645.577V161.406H642.197ZM641.567 159.666V164.346L642.827 164.496V159.666H641.567ZM639.177 160.706C639.007 162.426 638.507 163.816 637.427 164.616C637.707 164.796 638.217 165.226 638.417 165.436C639.557 164.456 640.177 162.866 640.437 160.836L639.177 160.706ZM640.147 161.956L639.167 162.286C640.027 164.806 641.587 165.276 643.897 165.276H646.417C646.467 164.916 646.667 164.336 646.837 164.056C646.167 164.076 644.497 164.076 643.967 164.076C642.187 164.076 640.787 163.796 640.147 161.956ZM641.547 155.996V157.826H642.827V155.996H641.547ZM637.907 157.006V159.516H639.087V158.146H645.267V159.516H646.507V157.006H637.907Z" fill="black"/>
<circle cx="456.501" cy="122.5" r="70.5001" fill="#F0C65A"/>
<path d="M458.331 84.6381C457.206 84.6381 456.203 84.4449 455.322 84.0585C454.447 83.6721 453.751 83.1352 453.234 82.4477C452.723 81.7545 452.444 80.9506 452.399 80.0358H454.547C454.592 80.5983 454.785 81.0841 455.126 81.4932C455.467 81.8966 455.913 82.2091 456.464 82.4307C457.015 82.6523 457.626 82.7631 458.297 82.7631C459.047 82.7631 459.711 82.6324 460.291 82.371C460.871 82.1096 461.325 81.746 461.655 81.2801C461.984 80.8142 462.149 80.2744 462.149 79.6608C462.149 79.0187 461.99 78.4534 461.672 77.9648C461.353 77.4704 460.888 77.0841 460.274 76.8057C459.66 76.5273 458.91 76.388 458.024 76.388H456.626V74.513H458.024C458.717 74.513 459.325 74.388 459.848 74.138C460.376 73.888 460.788 73.5358 461.084 73.0812C461.385 72.6267 461.535 72.0926 461.535 71.479C461.535 70.888 461.405 70.3738 461.143 69.9363C460.882 69.4988 460.513 69.1579 460.035 68.9136C459.564 68.6693 459.007 68.5471 458.365 68.5471C457.763 68.5471 457.194 68.6579 456.66 68.8795C456.132 69.0954 455.7 69.4108 455.365 69.8256C455.03 70.2346 454.848 70.729 454.819 71.3085H452.774C452.808 70.3937 453.084 69.5926 453.601 68.9051C454.118 68.2119 454.794 67.6721 455.629 67.2858C456.47 66.8994 457.393 66.7062 458.399 66.7062C459.478 66.7062 460.405 66.925 461.177 67.3625C461.95 67.7943 462.544 68.3653 462.959 69.0756C463.373 69.7858 463.581 70.5528 463.581 71.3767C463.581 72.3596 463.322 73.1977 462.805 73.8909C462.294 74.5841 461.598 75.0642 460.717 75.3312V75.4676C461.819 75.6494 462.68 76.1182 463.3 76.8738C463.919 77.6238 464.228 78.5528 464.228 79.6608C464.228 80.6096 463.97 81.4619 463.453 82.2176C462.942 82.9676 462.243 83.5585 461.356 83.9903C460.47 84.4221 459.461 84.6381 458.331 84.6381Z" fill="black"/>
<path d="M409.012 110.475V98.8382H413.603C414.485 98.8382 415.237 99.0068 415.858 99.3439C416.48 99.6773 416.953 100.141 417.279 100.736C417.608 101.327 417.773 102.009 417.773 102.781C417.773 103.554 417.607 104.236 417.273 104.827C416.94 105.418 416.457 105.878 415.824 106.208C415.196 106.537 414.434 106.702 413.54 106.702H410.614V104.73H413.143C413.616 104.73 414.006 104.649 414.313 104.486C414.624 104.319 414.855 104.09 415.006 103.798C415.161 103.503 415.239 103.164 415.239 102.781C415.239 102.395 415.161 102.058 415.006 101.77C414.855 101.478 414.624 101.253 414.313 101.094C414.002 100.931 413.608 100.85 413.131 100.85H411.472V110.475H409.012ZM419.371 110.475V98.8382H423.962C424.841 98.8382 425.591 98.9954 426.212 99.3098C426.837 99.6204 427.313 100.062 427.638 100.634C427.968 101.202 428.133 101.87 428.133 102.639C428.133 103.412 427.966 104.077 427.633 104.634C427.299 105.187 426.816 105.611 426.184 105.906C425.555 106.202 424.794 106.35 423.9 106.35H420.826V104.372H423.502C423.972 104.372 424.362 104.308 424.672 104.179C424.983 104.05 425.214 103.857 425.366 103.6C425.521 103.342 425.598 103.022 425.598 102.639C425.598 102.253 425.521 101.927 425.366 101.662C425.214 101.397 424.981 101.196 424.667 101.06C424.356 100.92 423.964 100.85 423.491 100.85H421.831V110.475H419.371ZM425.655 105.179L428.547 110.475H425.831L423.002 105.179H425.655ZM440.564 104.656C440.564 105.925 440.324 107.005 439.843 107.895C439.366 108.785 438.714 109.465 437.888 109.935C437.066 110.401 436.142 110.634 435.116 110.634C434.081 110.634 433.153 110.399 432.331 109.929C431.509 109.459 430.86 108.78 430.383 107.889C429.905 106.999 429.667 105.922 429.667 104.656C429.667 103.387 429.905 102.308 430.383 101.418C430.86 100.528 431.509 99.8496 432.331 99.3837C433.153 98.914 434.081 98.6792 435.116 98.6792C436.142 98.6792 437.066 98.914 437.888 99.3837C438.714 99.8496 439.366 100.528 439.843 101.418C440.324 102.308 440.564 103.387 440.564 104.656ZM438.07 104.656C438.07 103.834 437.947 103.141 437.701 102.577C437.458 102.012 437.116 101.584 436.672 101.293C436.229 101.001 435.71 100.855 435.116 100.855C434.521 100.855 434.002 101.001 433.559 101.293C433.116 101.584 432.771 102.012 432.525 102.577C432.282 103.141 432.161 103.834 432.161 104.656C432.161 105.478 432.282 106.172 432.525 106.736C432.771 107.3 433.116 107.728 433.559 108.02C434.002 108.312 434.521 108.458 435.116 108.458C435.71 108.458 436.229 108.312 436.672 108.02C437.116 107.728 437.458 107.3 437.701 106.736C437.947 106.172 438.07 105.478 438.07 104.656ZM441.412 100.867V98.8382H450.969V100.867H447.407V110.475H444.975V100.867H441.412ZM462.705 104.656C462.705 105.925 462.465 107.005 461.983 107.895C461.506 108.785 460.855 109.465 460.029 109.935C459.207 110.401 458.283 110.634 457.256 110.634C456.222 110.634 455.294 110.399 454.472 109.929C453.65 109.459 453 108.78 452.523 107.889C452.046 106.999 451.807 105.922 451.807 104.656C451.807 103.387 452.046 102.308 452.523 101.418C453 100.528 453.65 99.8496 454.472 99.3837C455.294 98.914 456.222 98.6792 457.256 98.6792C458.283 98.6792 459.207 98.914 460.029 99.3837C460.855 99.8496 461.506 100.528 461.983 101.418C462.465 102.308 462.705 103.387 462.705 104.656ZM460.211 104.656C460.211 103.834 460.088 103.141 459.841 102.577C459.599 102.012 459.256 101.584 458.813 101.293C458.37 101.001 457.851 100.855 457.256 100.855C456.661 100.855 456.143 101.001 455.699 101.293C455.256 101.584 454.911 102.012 454.665 102.577C454.423 103.141 454.302 103.834 454.302 104.656C454.302 105.478 454.423 106.172 454.665 106.736C454.911 107.3 455.256 107.728 455.699 108.02C456.143 108.312 456.661 108.458 457.256 108.458C457.851 108.458 458.37 108.312 458.813 108.02C459.256 107.728 459.599 107.3 459.841 106.736C460.088 106.172 460.211 105.478 460.211 104.656ZM463.553 100.867V98.8382H473.11V100.867H469.547V110.475H467.116V100.867H463.553ZM474.002 98.8382H476.758L479.411 103.85H479.525L482.178 98.8382H484.934L480.689 106.361V110.475H478.246V106.361L474.002 98.8382ZM486.277 110.475V98.8382H490.868C491.751 98.8382 492.503 99.0068 493.124 99.3439C493.745 99.6773 494.219 100.141 494.545 100.736C494.874 101.327 495.039 102.009 495.039 102.781C495.039 103.554 494.872 104.236 494.539 104.827C494.206 105.418 493.723 105.878 493.09 106.208C492.461 106.537 491.7 106.702 490.806 106.702H487.88V104.73H490.408C490.882 104.73 491.272 104.649 491.579 104.486C491.889 104.319 492.12 104.09 492.272 103.798C492.427 103.503 492.505 103.164 492.505 102.781C492.505 102.395 492.427 102.058 492.272 101.77C492.12 101.478 491.889 101.253 491.579 101.094C491.268 100.931 490.874 100.85 490.397 100.85H488.738V110.475H486.277ZM496.637 110.475V98.8382H504.478V100.867H499.097V103.639H504.074V105.668H499.097V108.446H504.5V110.475H496.637Z" fill="black"/>
<path d="M416.158 145.51L415.108 144.99C414.938 145.07 414.438 145.12 414.178 145.12C413.578 145.12 411.658 145.12 411.028 145.12C410.688 145.12 410.228 145.09 409.898 145.05V146.46C410.258 146.43 410.628 146.41 411.038 146.41C411.668 146.41 413.708 146.41 414.488 146.41C414.458 147.13 414.028 149.7 413.868 150.6H415.338C415.478 149.69 415.918 146.98 416.048 145.97C416.058 145.89 416.108 145.65 416.158 145.51ZM408.808 150.19V151.65C409.138 151.61 409.488 151.59 409.798 151.59H416.458C416.698 151.59 417.118 151.61 417.398 151.65V150.19C417.138 150.23 416.818 150.27 416.458 150.27H409.798C409.488 150.27 409.128 150.25 408.808 150.19ZM419.008 147.37V148.95C419.388 148.92 420.058 148.89 420.618 148.89C421.798 148.89 425.088 148.89 425.998 148.89C426.418 148.89 426.928 148.94 427.168 148.95V147.37C426.898 147.39 426.458 147.44 425.988 147.44C425.098 147.44 421.798 147.44 420.618 147.44C420.098 147.44 419.378 147.4 419.008 147.37ZM436.073 144.23L435.393 144.44C435.593 144.85 435.763 145.39 435.903 145.82L436.593 145.59C436.483 145.2 436.263 144.62 436.073 144.23ZM437.103 143.91L436.423 144.12C436.623 144.52 436.813 145.05 436.963 145.49L437.643 145.27C437.523 144.89 437.293 144.3 437.103 143.91ZM435.213 147.74V145.13C435.213 144.72 435.253 144.4 435.273 144.2H433.853C433.883 144.39 433.903 144.72 433.903 145.13V147.79C433.903 150.24 433.063 151.11 431.123 151.78L432.203 152.79C434.613 151.73 435.213 150.21 435.213 147.74ZM431.593 144.29H430.173C430.213 144.59 430.233 144.9 430.233 145.19V148.77C430.233 149.22 430.203 149.62 430.183 149.81H431.583C431.563 149.62 431.533 149.21 431.533 148.77V145.19C431.533 144.79 431.573 144.47 431.593 144.29ZM428.303 146.09V147.45C428.533 147.43 428.883 147.41 429.393 147.41H435.953C436.473 147.41 436.833 147.41 437.053 147.44V146.11C436.773 146.16 436.473 146.18 435.943 146.18H429.393C428.893 146.18 428.483 146.12 428.303 146.09ZM439.913 144.34V145.63C440.213 145.61 440.643 145.59 440.983 145.59C441.613 145.59 444.413 145.59 445.003 145.59C445.343 145.59 445.733 145.61 446.073 145.63V144.34C445.733 144.38 445.333 144.41 445.003 144.41C444.413 144.41 441.613 144.41 440.983 144.41C440.643 144.41 440.233 144.38 439.913 144.34ZM438.743 146.89V148.2C439.023 148.18 439.413 148.17 439.703 148.17C440.333 148.17 445.663 148.17 446.253 148.17C446.533 148.17 446.913 148.18 447.173 148.19V146.89C446.903 146.94 446.463 146.95 446.253 146.95C445.663 146.95 440.333 146.95 439.703 146.95C439.393 146.95 439.043 146.93 438.743 146.89ZM443.863 147.59L442.473 147.6C442.473 148.67 442.333 149.61 441.833 150.37C441.443 150.96 440.733 151.53 440.023 151.81L441.203 152.66C442.083 152.2 442.863 151.43 443.203 150.73C443.633 149.9 443.863 148.9 443.863 147.59ZM456.233 145.23L455.423 144.62C455.213 144.69 454.823 144.74 454.383 144.74C453.943 144.74 451.383 144.74 450.853 144.74C450.563 144.74 449.943 144.71 449.673 144.67V146.1C449.893 146.08 450.443 146.03 450.853 146.03C451.283 146.03 453.833 146.03 454.253 146.03C454.023 146.74 453.413 147.73 452.753 148.48C451.813 149.52 450.273 150.74 448.653 151.34L449.693 152.42C451.243 151.69 452.753 150.45 453.873 149.16C454.733 148.16 455.473 146.8 455.883 145.85C455.973 145.64 456.153 145.34 456.233 145.23ZM454.003 148.33L453.063 149.26C454.133 150.23 455.223 151.42 455.963 152.45L457.103 151.46C456.453 150.66 455.033 149.17 454.003 148.33ZM461.033 151.05C461.033 151.44 461.003 152.05 460.933 152.44H462.503C462.453 152.03 462.413 151.33 462.413 151.05C462.413 150.31 462.403 146.4 462.403 145.3C462.403 144.88 462.453 144.45 462.493 144.09H460.933C461.003 144.45 461.033 144.94 461.033 145.3C461.033 146.14 461.033 150.28 461.033 151.05ZM462.113 146.68V148.12C463.203 148.48 464.883 149.12 466.023 149.71L466.583 148.32C465.603 147.84 463.443 147.05 462.113 146.68ZM476.233 146.17L475.533 145.02C475.273 145.23 474.993 145.4 474.613 145.62C474.003 145.97 472.743 146.59 471.793 147.22C470.603 148 469.673 148.89 469.673 150.16C469.673 151.88 471.183 152.44 473.183 152.44C474.483 152.44 475.533 152.33 476.393 152.19L476.403 150.75C475.513 150.96 474.163 151.12 473.143 151.12C471.753 151.12 471.053 150.73 471.053 150.01C471.053 149.32 471.613 148.74 472.443 148.2C473.363 147.61 474.613 147.02 475.233 146.71C475.603 146.53 475.923 146.35 476.233 146.17ZM471.203 144.03L469.943 144.55C470.493 145.84 471.093 147.15 471.643 148.06L472.783 147.4C472.313 146.56 471.683 145.36 471.203 144.03ZM478.313 144.03V145.14H481.833V144.03H478.313ZM478.403 146.89V147.99H481.723V146.89H478.403ZM478.073 150.36L478.373 151.5C479.413 151.19 480.773 150.8 482.033 150.42L481.873 149.37C480.493 149.75 479.043 150.14 478.073 150.36ZM483.333 146.39H485.963V147.01H483.333V146.39ZM483.333 147.93H485.963V148.54H483.333V147.93ZM483.333 144.87H485.963V145.48H483.333V144.87ZM482.223 143.89V149.53H487.133V143.89H482.223ZM484.743 149.09V151.5C484.743 152.51 484.943 152.85 485.873 152.85C486.043 152.85 486.453 152.85 486.633 152.85C487.363 152.85 487.643 152.47 487.743 151.1C487.443 151.03 486.963 150.84 486.733 150.66C486.713 151.66 486.673 151.82 486.503 151.82C486.413 151.82 486.153 151.82 486.083 151.82C485.923 151.82 485.893 151.79 485.893 151.49V149.09H484.743ZM482.973 149.38C482.843 150.65 482.583 151.5 480.683 151.98C480.923 152.21 481.223 152.67 481.343 152.97C483.563 152.3 483.993 151.09 484.143 149.38H482.973ZM479.523 144.47V150.52L480.683 150.35V144.47H479.523ZM491.563 146.29V147.48H497.463V146.29H491.563ZM494.803 146.86L493.813 147.08C494.343 149.59 495.243 151.7 496.873 152.87C497.063 152.55 497.463 152.09 497.743 151.86C496.203 150.92 495.263 148.99 494.803 146.86ZM495.263 144.23C495.663 144.78 496.123 145.54 496.323 146.01L497.303 145.43C497.073 144.96 496.573 144.25 496.173 143.72L495.263 144.23ZM493.613 143.53V146.09C493.613 147.88 493.363 150.25 491.173 152.13C491.493 152.33 491.903 152.64 492.133 152.89C494.453 150.91 494.803 148.24 494.803 146.09V143.53H493.613ZM490.123 143.49V152.88H491.313V143.49H490.123ZM488.233 145.32C488.643 145.94 489.133 146.76 489.323 147.28L490.333 146.66C490.113 146.15 489.593 145.36 489.173 144.78L488.233 145.32ZM488.173 149.77L488.793 150.81C489.433 150.27 490.183 149.59 490.853 148.96L490.373 148C489.573 148.69 488.723 149.38 488.173 149.77ZM503.813 145.15L502.443 145.11C502.343 146.16 502.123 147.31 501.833 148.25C501.413 149.6 501.033 150.24 500.603 150.24C500.223 150.24 499.823 149.75 499.823 148.74C499.823 147.48 500.983 145.75 503.103 145.75C504.833 145.75 505.813 146.87 505.813 148.44C505.813 149.91 504.813 150.82 503.543 151.13C503.273 151.19 502.993 151.24 502.603 151.29L503.363 152.47C505.883 152.08 507.173 150.59 507.173 148.49C507.173 146.3 505.603 144.58 503.133 144.58C500.543 144.58 498.533 146.56 498.533 148.86C498.533 150.55 499.453 151.78 500.573 151.78C501.663 151.78 502.523 150.54 503.123 148.52C503.473 147.34 503.673 146.17 503.813 145.15ZM419.42 158.08V158.96H422.19V158.08H419.42ZM419.42 159.72V160.57H422.19V159.72H419.42ZM419.42 161.39V162.28H422.19V161.39H419.42ZM423.75 160.26V161.27H427.52V160.26H423.75ZM419.91 156.44V157.34H421.49V156.44H419.91ZM423 156.02V157H426.71V156.02H423ZM423 162.17V163.21H427.71V162.17H423ZM424.87 159.36V164.87H426.01V159.36H424.87ZM420.5 158.54V161.72H421.3V158.54H420.5ZM426.39 156.02V156.16C426.35 157.61 426.29 158.15 426.18 158.28C426.11 158.37 426.03 158.39 425.9 158.39C425.77 158.39 425.51 158.38 425.19 158.35C425.34 158.61 425.44 159.01 425.46 159.31C425.86 159.33 426.25 159.32 426.47 159.29C426.73 159.25 426.92 159.17 427.08 158.96C427.3 158.7 427.39 158.01 427.44 156.4C427.45 156.27 427.46 156.02 427.46 156.02H426.39ZM423.55 159.43C423.41 160.23 423.14 161.05 422.75 161.58C422.99 161.69 423.43 161.91 423.63 162.05C424.02 161.46 424.35 160.54 424.53 159.62L423.55 159.43ZM419.67 155.5C419.4 156.69 418.87 157.86 418.19 158.6C418.43 158.76 418.86 159.12 419.04 159.31C419.76 158.46 420.38 157.11 420.74 155.73L419.67 155.5ZM418.98 158.08V160.73C418.98 161.86 418.92 163.35 418.24 164.39C418.47 164.49 418.9 164.76 419.08 164.92C419.81 163.79 419.94 162.01 419.94 160.73V158.08H418.98ZM421.87 158.08V163.73C421.87 163.85 421.82 163.89 421.7 163.89C421.58 163.9 421.18 163.9 420.79 163.88C420.93 164.15 421.09 164.61 421.13 164.89C421.74 164.89 422.15 164.87 422.46 164.7C422.76 164.52 422.85 164.22 422.85 163.75V158.08H421.87ZM424.2 156.35C424.1 157.43 423.89 158.28 422.69 158.77C422.93 158.95 423.2 159.34 423.32 159.59C424.81 158.93 425.15 157.81 425.27 156.35H424.2ZM421.21 156.44V156.62C421.09 157.09 420.84 157.83 420.62 158.29C420.83 158.4 421.16 158.6 421.35 158.74C421.66 158.24 422.05 157.45 422.27 156.82L421.59 156.39L421.44 156.44H421.21ZM431.65 157.05V158.17H435.76V160.47H436.93V157.05H431.65ZM431.15 159.99V161.12H437.69V159.99H431.15ZM433.32 155.51V159C433.32 160.9 433.07 162.8 430.63 164.08C430.94 164.27 431.41 164.68 431.63 164.93C434.24 163.48 434.52 161.19 434.52 159.01V155.51H433.32ZM435.06 160.62L433.95 160.89C434.49 162.75 435.41 164.17 436.95 164.92C437.13 164.59 437.51 164.11 437.79 163.87C436.4 163.3 435.49 162.08 435.06 160.62ZM428.85 156.44C429.48 156.72 430.27 157.18 430.64 157.53L431.33 156.55C430.93 156.21 430.12 155.8 429.5 155.56L428.85 156.44ZM428.27 159.16C428.91 159.43 429.71 159.87 430.09 160.21L430.78 159.21C430.37 158.88 429.54 158.48 428.92 158.26L428.27 159.16ZM428.56 164.01L429.6 164.77C430.16 163.78 430.75 162.62 431.24 161.56L430.32 160.81C429.77 161.98 429.06 163.25 428.56 164.01ZM438.62 158.34V159.37H447.37V158.34H438.62ZM442.46 157.8V164.9H443.75V157.8H442.46ZM439.27 159.86V162.64H440.54V160.87H446.26V159.86H439.27ZM445.63 159.86V161.57C445.63 161.67 445.59 161.7 445.47 161.7C445.36 161.71 444.95 161.71 444.62 161.69C444.75 161.94 444.94 162.31 445.01 162.61C445.59 162.61 446.05 162.61 446.41 162.46C446.77 162.31 446.87 162.07 446.87 161.57V159.86H445.63ZM442.59 161.43C441.76 162.47 440.13 163.28 438.37 163.62C438.63 163.87 438.96 164.33 439.12 164.63C440.92 164.15 442.53 163.15 443.49 161.77L442.59 161.43ZM443.45 161.44L442.81 162C443.56 162.97 445.14 164.1 447 164.56C447.17 164.25 447.52 163.77 447.76 163.51C445.85 163.17 444.18 162.29 443.45 161.44ZM439.73 156.29V157.29H442.86V156.29H439.73ZM443.75 156.29V157.29H447.54V156.29H443.75ZM439.78 155.44C439.46 156.26 438.88 157.1 438.24 157.63C438.52 157.78 439.01 158.1 439.24 158.29C439.87 157.68 440.52 156.71 440.93 155.75L439.78 155.44ZM443.81 155.44C443.53 156.28 442.98 157.11 442.34 157.62C442.63 157.78 443.13 158.11 443.35 158.31C443.99 157.7 444.62 156.73 444.99 155.73L443.81 155.44ZM440.13 157.08C440.39 157.49 440.67 158.05 440.78 158.39L441.81 158C441.69 157.65 441.38 157.12 441.12 156.73L440.13 157.08ZM444.49 157C444.77 157.41 445.08 157.97 445.2 158.33L446.27 157.98C446.13 157.62 445.79 157.08 445.5 156.69L444.49 157ZM453.91 157.15L452.54 157.11C452.44 158.16 452.22 159.31 451.93 160.25C451.51 161.6 451.13 162.24 450.7 162.24C450.32 162.24 449.92 161.75 449.92 160.74C449.92 159.48 451.08 157.75 453.2 157.75C454.93 157.75 455.91 158.87 455.91 160.44C455.91 161.91 454.91 162.82 453.64 163.13C453.37 163.19 453.09 163.24 452.7 163.29L453.46 164.47C455.98 164.08 457.27 162.59 457.27 160.49C457.27 158.3 455.7 156.58 453.23 156.58C450.64 156.58 448.63 158.56 448.63 160.86C448.63 162.55 449.55 163.78 450.67 163.78C451.76 163.78 452.62 162.54 453.22 160.52C453.57 159.34 453.77 158.17 453.91 157.15ZM461.16 156.49V157.57H467.55V156.49H461.16ZM461.26 158.82V164.69H462.36V159.86H466.34V164.63H467.49V158.82H461.26ZM462.88 156.63V159.59H464V156.63H462.88ZM464.66 156.62V159.58H465.8V156.62H464.66ZM461.76 163.08V164.11H467.19V163.08H461.76ZM462.99 159.58V163.88H464V159.58H462.99ZM464.66 159.58V163.87H465.67V159.58H464.66ZM460.29 155.53C459.8 156.92 458.98 158.3 458.11 159.18C458.31 159.47 458.63 160.1 458.73 160.38C459.77 159.27 460.76 157.52 461.37 155.88L460.29 155.53ZM459.34 158.32V164.9H460.46V157.21V157.2L459.34 158.32ZM471.63 156.42V157.45H477.58V156.42H471.63ZM471.94 163.4V164.44H477.63V163.4H471.94ZM474.26 155.52C474.22 156.48 474.12 157.71 474.01 158.49H475.11C475.24 157.73 475.38 156.55 475.46 155.58L474.26 155.52ZM474.22 160.18H476V160.7H474.22V160.18ZM474.22 161.51H476V162.03H474.22V161.51ZM474.22 158.87H476V159.38H474.22V158.87ZM473.1 158.01V162.89H477.16V158.01H473.1ZM471.39 158.59V164.9H472.5V158.59H471.39ZM470.37 155.55C469.86 156.98 468.99 158.4 468.08 159.31C468.29 159.6 468.61 160.26 468.72 160.55C469.81 159.41 470.85 157.61 471.5 155.9L470.37 155.55ZM469.4 158.31V164.89H470.55V157.18L470.54 157.17L469.4 158.31ZM478.44 157.57V158.69H481.7V157.57H478.44ZM479.68 155.51V164.9H480.78V155.51H479.68ZM479.68 158.34C479.43 159.61 478.86 161.18 478.22 162.05C478.4 162.34 478.65 162.8 478.77 163.12C479.48 162.1 480.07 160.16 480.35 158.57L479.68 158.34ZM480.73 159.1L480.26 159.6C480.52 160.07 481.08 161.19 481.3 161.77L481.92 160.84C481.75 160.57 480.95 159.36 480.73 159.1ZM482.82 157.81V158.8H486.47V157.81H482.82ZM484.61 156.55C485.19 157.38 486.29 158.29 487.27 158.77C487.43 158.44 487.66 158.01 487.89 157.72C486.84 157.32 485.81 156.48 485.11 155.52H484.03C483.51 156.36 482.5 157.31 481.43 157.77C481.62 158.03 481.87 158.47 481.99 158.78C483.03 158.25 484.06 157.36 484.61 156.55ZM483.08 160.35H486.2V161.29H483.08V160.35ZM482.04 159.44V162.22H487.28V159.44H482.04ZM484.07 158.44V160.96C484.07 162.14 483.81 163.31 481.38 164.06C481.58 164.25 481.92 164.71 482.02 164.96C484.68 164.1 485.15 162.47 485.15 160.99V158.44H484.07ZM485.22 161.62L484.21 161.83C484.89 163.74 485.83 164.44 487.13 164.94C487.25 164.59 487.55 164.2 487.82 163.95C486.68 163.6 485.85 163.12 485.22 161.62ZM492.34 156.02V157.16H497.53V156.02H492.34ZM492.06 163.43V164.56H497.72V163.43H492.06ZM495.25 159.53V160.67H497.47V159.53H495.25ZM494.56 156.49V164.09H495.74V156.49H494.56ZM492.68 158.67V163.94H493.8V158.67H492.68ZM488.78 158.65V159.55H491.67V158.65H488.78ZM488.84 155.82V156.73H491.68V155.82H488.84ZM488.78 160.05V160.95H491.67V160.05H488.78ZM488.29 157.21V158.15H492.03V157.21H488.29ZM489.33 161.46V162.41H490.71V163.56H489.33V164.5H491.74V161.46H489.33ZM488.75 161.46V164.9H489.76V161.46H488.75Z" fill="black"/>
<circle cx="275.501" cy="122.5" r="70.5001" fill="#F0C65A"/>
<path d="M271.433 84.3994V82.8653L277.194 76.5585C277.87 75.8199 278.427 75.1778 278.865 74.6324C279.302 74.0812 279.626 73.5642 279.836 73.0812C280.052 72.5926 280.16 72.0812 280.16 71.5471C280.16 70.9335 280.012 70.4023 279.717 69.9534C279.427 69.5045 279.029 69.1579 278.524 68.9136C278.018 68.6693 277.45 68.5471 276.819 68.5471C276.149 68.5471 275.563 68.6863 275.063 68.9648C274.569 69.2375 274.186 69.621 273.913 70.1153C273.646 70.6096 273.512 71.1892 273.512 71.854H271.501C271.501 70.8312 271.737 69.9335 272.208 69.1608C272.68 68.388 273.322 67.7858 274.134 67.354C274.953 66.9221 275.87 66.7062 276.887 66.7062C277.91 66.7062 278.816 66.9221 279.606 67.354C280.396 67.7858 281.015 68.3682 281.464 69.1011C281.913 69.8341 282.137 70.6494 282.137 71.5471C282.137 72.1892 282.021 72.817 281.788 73.4307C281.561 74.0386 281.163 74.7176 280.595 75.4676C280.032 76.2119 279.251 77.121 278.251 78.1949L274.331 82.3881V82.5244H282.444V84.3994H271.433Z" fill="black"/>
<path d="M241.511 98.8382V110.475H239.051V98.8382H241.511ZM247.66 110.475H243.535V98.8382H247.694C248.865 98.8382 249.872 99.0712 250.717 99.5371C251.562 99.9992 252.211 100.664 252.666 101.531C253.124 102.399 253.353 103.437 253.353 104.645C253.353 105.857 253.124 106.899 252.666 107.77C252.211 108.641 251.558 109.31 250.706 109.776C249.857 110.242 248.842 110.475 247.66 110.475ZM245.996 108.367H247.558C248.285 108.367 248.897 108.238 249.393 107.98C249.893 107.719 250.268 107.316 250.518 106.77C250.772 106.221 250.899 105.512 250.899 104.645C250.899 103.785 250.772 103.083 250.518 102.537C250.268 101.992 249.895 101.59 249.399 101.333C248.903 101.075 248.291 100.946 247.564 100.946H245.996V108.367ZM255.176 110.475V98.8382H263.017V100.867H257.636V103.639H262.613V105.668H257.636V108.446H263.04V110.475H255.176ZM266.978 110.475H264.342L268.359 98.8382H271.53L275.541 110.475H272.905L269.99 101.497H269.899L266.978 110.475ZM266.814 105.901H273.041V107.821H266.814V105.901ZM275.076 100.867V98.8382H284.633V100.867H281.071V110.475H278.639V100.867H275.076ZM288.667 98.8382V110.475H286.207V98.8382H288.667ZM301.385 104.656C301.385 105.925 301.144 107.005 300.663 107.895C300.186 108.785 299.534 109.465 298.709 109.935C297.887 110.401 296.962 110.634 295.936 110.634C294.902 110.634 293.974 110.399 293.152 109.929C292.33 109.459 291.68 108.78 291.203 107.889C290.726 106.999 290.487 105.922 290.487 104.656C290.487 103.387 290.726 102.308 291.203 101.418C291.68 100.528 292.33 99.8496 293.152 99.3837C293.974 98.914 294.902 98.6792 295.936 98.6792C296.962 98.6792 297.887 98.914 298.709 99.3837C299.534 99.8496 300.186 100.528 300.663 101.418C301.144 102.308 301.385 103.387 301.385 104.656ZM298.89 104.656C298.89 103.834 298.767 103.141 298.521 102.577C298.279 102.012 297.936 101.584 297.493 101.293C297.049 101.001 296.531 100.855 295.936 100.855C295.341 100.855 294.822 101.001 294.379 101.293C293.936 101.584 293.591 102.012 293.345 102.577C293.103 103.141 292.981 103.834 292.981 104.656C292.981 105.478 293.103 106.172 293.345 106.736C293.591 107.3 293.936 107.728 294.379 108.02C294.822 108.312 295.341 108.458 295.936 108.458C296.531 108.458 297.049 108.312 297.493 108.02C297.936 107.728 298.279 107.3 298.521 106.736C298.767 106.172 298.89 105.478 298.89 104.656ZM312.94 98.8382V110.475H310.815L305.753 103.151H305.667V110.475H303.207V98.8382H305.366L310.389 106.156H310.491V98.8382H312.94Z" fill="black"/>
<path d="M220.798 144.506V145.616H224.318V144.506H220.798ZM220.888 147.366V148.466H224.208V147.366H220.888ZM220.558 150.836L220.858 151.976C221.898 151.666 223.258 151.276 224.518 150.896L224.358 149.846C222.978 150.226 221.528 150.616 220.558 150.836ZM225.818 146.866H228.448V147.486H225.818V146.866ZM225.818 148.406H228.448V149.016H225.818V148.406ZM225.818 145.346H228.448V145.956H225.818V145.346ZM224.708 144.366V150.006H229.618V144.366H224.708ZM227.228 149.566V151.976C227.228 152.986 227.428 153.326 228.358 153.326C228.528 153.326 228.938 153.326 229.118 153.326C229.848 153.326 230.128 152.946 230.228 151.576C229.928 151.506 229.448 151.316 229.218 151.136C229.198 152.136 229.158 152.296 228.988 152.296C228.898 152.296 228.638 152.296 228.568 152.296C228.408 152.296 228.378 152.266 228.378 151.966V149.566H227.228ZM225.458 149.856C225.328 151.126 225.068 151.976 223.168 152.456C223.408 152.686 223.708 153.146 223.828 153.446C226.048 152.776 226.478 151.566 226.628 149.856H225.458ZM222.008 144.946V150.996L223.168 150.826V144.946H222.008ZM234.048 146.766V147.956H239.948V146.766H234.048ZM237.288 147.336L236.298 147.556C236.828 150.066 237.728 152.176 239.358 153.346C239.548 153.026 239.948 152.566 240.228 152.336C238.688 151.396 237.748 149.466 237.288 147.336ZM237.748 144.706C238.148 145.256 238.608 146.016 238.808 146.486L239.788 145.906C239.558 145.436 239.058 144.726 238.658 144.196L237.748 144.706ZM236.098 144.006V146.566C236.098 148.356 235.848 150.726 233.658 152.606C233.978 152.806 234.388 153.116 234.618 153.366C236.938 151.386 237.288 148.716 237.288 146.566V144.006H236.098ZM232.608 143.966V153.356H233.798V143.966H232.608ZM230.718 145.796C231.128 146.416 231.618 147.236 231.808 147.756L232.818 147.136C232.598 146.626 232.078 145.836 231.658 145.256L230.718 145.796ZM230.658 150.246L231.278 151.286C231.918 150.746 232.668 150.066 233.338 149.436L232.858 148.476C232.058 149.166 231.208 149.856 230.658 150.246ZM244.448 149.046V150.106H249.908V149.046H244.448ZM247.988 149.676L247.138 149.986C247.658 151.106 248.548 152.286 249.398 152.956C249.578 152.666 249.958 152.256 250.218 152.046C249.378 151.536 248.468 150.566 247.988 149.676ZM245.798 146.866H248.558V147.516H245.798V146.866ZM245.798 145.316H248.558V145.946H245.798V145.316ZM244.738 144.366V148.456H249.668V144.366H244.738ZM246.378 149.596C245.908 150.576 244.978 151.566 244.028 152.076C244.278 152.286 244.648 152.716 244.828 152.996C245.828 152.346 246.748 151.146 247.278 149.906L246.378 149.596ZM246.648 144.836V148.006H246.588V153.366H247.748V148.006H247.678V144.836H246.648ZM241.138 147.056V147.956H244.068V147.056H241.138ZM241.168 144.296V145.206H244.038V144.296H241.168ZM241.138 148.416V149.326H244.068V148.416H241.138ZM240.678 145.646V146.596H244.328V145.646H240.678ZM241.658 149.806V150.756H243.078V151.896H241.658V152.846H244.078V149.806H241.658ZM241.118 149.806V153.246H242.098V149.806H241.118ZM252.338 146.406H253.758V146.886H252.338V146.406ZM252.338 145.176H253.758V145.646H252.338V145.176ZM251.278 144.376V147.696H254.868V144.376H251.278ZM250.808 148.266V149.146H255.318V148.266H250.808ZM255.278 144.406V145.246H259.888V144.406H255.278ZM252.678 148.546V151.986L253.678 152.566V148.546H252.678ZM253.198 149.956V150.816H255.138V149.956H253.198ZM257.208 144.606C257.108 145.076 256.918 145.726 256.738 146.176L257.588 146.396C257.798 146.006 258.058 145.406 258.298 144.846L257.208 144.606ZM256.658 147.826H258.478V148.296H256.658V147.826ZM256.658 149.056H258.478V149.536H256.658V149.056ZM256.658 146.586H258.478V147.056H256.658V146.586ZM255.588 145.776V150.356H259.588V145.776H255.588ZM256.398 150.426C256.058 150.836 255.458 151.246 254.858 151.506C255.078 151.666 255.458 152.016 255.628 152.206C256.248 151.866 256.958 151.296 257.388 150.726L256.398 150.426ZM251.268 149.536C251.238 150.746 251.138 151.926 250.568 152.626C250.808 152.806 251.128 153.186 251.268 153.436C252.028 152.536 252.178 151.066 252.228 149.536H251.268ZM252.068 150.376L251.358 150.586C252.068 152.846 253.438 153.186 255.918 153.186H259.778C259.838 152.886 260.008 152.426 260.168 152.196C259.348 152.236 256.588 152.236 255.918 152.236C253.878 152.226 252.628 152.056 252.068 150.376ZM257.818 150.786C258.318 151.156 258.938 151.736 259.248 152.136L260.108 151.626C259.798 151.246 259.178 150.706 258.638 150.356L257.818 150.786ZM264.858 145.486L264.868 146.766C266.118 146.886 267.938 146.886 269.158 146.766V145.476C268.088 145.606 266.088 145.656 264.858 145.486ZM265.658 149.756L264.518 149.656C264.398 150.166 264.338 150.556 264.338 150.956C264.338 151.976 265.168 152.596 266.888 152.596C268.018 152.596 268.828 152.526 269.478 152.396L269.448 151.046C268.578 151.236 267.838 151.316 266.948 151.316C265.928 151.316 265.538 151.046 265.538 150.596C265.538 150.336 265.578 150.096 265.658 149.756ZM263.318 144.816L261.918 144.706C261.908 145.026 261.858 145.406 261.818 145.676C261.708 146.456 261.408 148.136 261.408 149.646C261.408 151.006 261.598 152.226 261.798 152.906L262.948 152.836C262.938 152.696 262.938 152.526 262.928 152.416C262.928 152.316 262.958 152.096 262.988 151.946C263.088 151.416 263.418 150.336 263.708 149.496L263.088 149.006C262.938 149.346 262.778 149.686 262.628 150.026C262.598 149.826 262.588 149.576 262.588 149.376C262.588 148.376 262.938 146.376 263.078 145.716C263.118 145.536 263.248 145.026 263.318 144.816ZM275.278 146.216V147.366H280.048V146.216H275.278ZM270.848 145.526V146.636H275.608V145.526H270.848ZM277.788 143.986V151.876C277.788 152.046 277.728 152.096 277.558 152.106C277.378 152.106 276.838 152.106 276.278 152.076C276.448 152.446 276.618 153.016 276.658 153.366C277.498 153.366 278.088 153.326 278.468 153.116C278.848 152.906 278.978 152.566 278.978 151.886V143.986H277.788ZM275.168 148.626C275.628 149.306 276.058 150.226 276.208 150.816L277.248 150.286C277.088 149.686 276.608 148.816 276.138 148.156L275.168 148.626ZM271.038 148.046C272.218 149.366 273.588 151.166 274.118 152.366L275.078 151.546C274.498 150.356 273.078 148.636 271.878 147.366L271.038 148.046ZM272.598 143.996V146.206H273.748V143.996H272.598ZM273.688 146.836C273.288 149.396 272.378 151.306 270.568 152.366C270.808 152.576 271.228 153.066 271.378 153.306C273.308 152.016 274.338 149.906 274.848 147.006L273.688 146.836ZM286.918 144.416H285.468C285.488 144.546 285.528 144.886 285.558 145.286C285.598 145.816 285.598 147.736 285.598 148.356L286.848 148.776C286.838 147.976 286.818 145.936 286.848 145.276C286.858 145.116 286.888 144.586 286.918 144.416ZM281.258 145.666L281.288 146.866C282.798 146.786 284.788 146.706 286.608 146.706C288.078 146.706 289.098 146.736 289.718 146.766L289.738 145.586C289.178 145.576 287.658 145.586 286.638 145.586C285.388 145.586 282.748 145.666 281.258 145.666ZM286.678 148.626L285.738 148.366C286.058 149.556 285.648 149.956 285.178 149.956C284.768 149.956 284.398 149.666 284.398 149.216C284.398 148.686 284.788 148.416 285.178 148.416C285.618 148.416 285.968 148.726 285.968 149.376C285.968 151.126 284.638 151.796 282.938 152.166L283.998 153.226C286.438 152.536 287.208 150.886 287.208 149.576C287.208 148.336 286.518 147.366 285.198 147.366C284.118 147.366 283.198 148.106 283.198 149.236C283.198 150.456 284.158 151.066 284.928 151.066C286.078 151.066 286.678 150.256 286.678 148.626ZM292.588 144.866L292.628 146.166C292.858 146.126 293.168 146.106 293.438 146.086C293.978 146.046 295.358 145.996 295.868 145.976C295.378 146.416 294.328 147.256 293.768 147.716C293.188 148.206 291.978 149.226 291.268 149.786L292.178 150.726C293.248 149.516 294.238 148.696 295.778 148.696C296.948 148.696 297.848 149.306 297.848 150.216C297.848 151.286 296.988 151.926 295.298 151.926C294.688 151.926 294.278 151.676 294.278 151.306C294.278 151.046 294.528 150.816 294.898 150.816C295.488 150.816 295.868 151.316 295.888 152.036L297.058 151.886C297.028 150.786 296.268 149.866 294.898 149.866C293.838 149.866 293.098 150.606 293.098 151.416C293.098 152.426 294.148 153.056 295.538 153.056C297.958 153.056 299.158 151.806 299.158 150.226C299.158 148.776 297.868 147.716 296.168 147.716C295.858 147.716 295.558 147.736 295.218 147.826C295.858 147.326 296.908 146.446 297.448 146.066C297.668 145.896 297.908 145.756 298.138 145.606L297.498 144.706C297.378 144.746 297.148 144.786 296.728 144.816C296.158 144.866 294.028 144.916 293.488 144.916C293.208 144.916 292.868 144.896 292.588 144.866ZM301.808 146.556V147.436H304.578V146.556H301.808ZM301.808 148.196V149.046H304.578V148.196H301.808ZM301.808 149.866V150.756H304.578V149.866H301.808ZM306.138 148.736V149.746H309.908V148.736H306.138ZM302.298 144.916V145.816H303.878V144.916H302.298ZM305.388 144.496V145.476H309.098V144.496H305.388ZM305.388 150.646V151.686H310.098V150.646H305.388ZM307.258 147.836V153.346H308.398V147.836H307.258ZM302.888 147.016V150.196H303.688V147.016H302.888ZM308.778 144.496V144.636C308.738 146.086 308.678 146.626 308.568 146.756C308.498 146.846 308.418 146.866 308.288 146.866C308.158 146.866 307.898 146.856 307.578 146.826C307.728 147.086 307.828 147.486 307.848 147.786C308.248 147.806 308.638 147.796 308.858 147.766C309.118 147.726 309.308 147.646 309.468 147.436C309.688 147.176 309.778 146.486 309.828 144.876C309.838 144.746 309.848 144.496 309.848 144.496H308.778ZM305.938 147.906C305.798 148.706 305.528 149.526 305.138 150.056C305.378 150.166 305.818 150.386 306.018 150.526C306.408 149.936 306.738 149.016 306.918 148.096L305.938 147.906ZM302.058 143.976C301.788 145.166 301.258 146.336 300.578 147.076C300.818 147.236 301.248 147.596 301.428 147.786C302.148 146.936 302.768 145.586 303.128 144.206L302.058 143.976ZM301.368 146.556V149.206C301.368 150.336 301.308 151.826 300.628 152.866C300.858 152.966 301.288 153.236 301.468 153.396C302.198 152.266 302.328 150.486 302.328 149.206V146.556H301.368ZM304.258 146.556V152.206C304.258 152.326 304.208 152.366 304.088 152.366C303.968 152.376 303.568 152.376 303.178 152.356C303.318 152.626 303.478 153.086 303.518 153.366C304.128 153.366 304.538 153.346 304.848 153.176C305.148 152.996 305.238 152.696 305.238 152.226V146.556H304.258ZM306.588 144.826C306.488 145.906 306.278 146.756 305.078 147.246C305.318 147.426 305.588 147.816 305.708 148.066C307.198 147.406 307.538 146.286 307.658 144.826H306.588ZM303.598 144.916V145.096C303.478 145.566 303.228 146.306 303.008 146.766C303.218 146.876 303.548 147.076 303.738 147.216C304.048 146.716 304.438 145.926 304.658 145.296L303.978 144.866L303.828 144.916H303.598ZM314.038 145.526V146.646H318.148V148.946H319.318V145.526H314.038ZM313.538 148.466V149.596H320.078V148.466H313.538ZM315.708 143.986V147.476C315.708 149.376 315.458 151.276 313.018 152.556C313.328 152.746 313.798 153.156 314.018 153.406C316.628 151.956 316.908 149.666 316.908 147.486V143.986H315.708ZM317.448 149.096L316.338 149.366C316.878 151.226 317.798 152.646 319.338 153.396C319.518 153.066 319.898 152.586 320.178 152.346C318.788 151.776 317.878 150.556 317.448 149.096ZM311.238 144.916C311.868 145.196 312.658 145.656 313.028 146.006L313.718 145.026C313.318 144.686 312.508 144.276 311.888 144.036L311.238 144.916ZM310.658 147.636C311.298 147.906 312.098 148.346 312.478 148.686L313.168 147.686C312.758 147.356 311.928 146.956 311.308 146.736L310.658 147.636ZM310.948 152.486L311.988 153.246C312.548 152.256 313.138 151.096 313.628 150.036L312.708 149.286C312.158 150.456 311.448 151.726 310.948 152.486ZM321.008 146.816V147.846H329.758V146.816H321.008ZM324.848 146.276V153.376H326.138V146.276H324.848ZM321.658 148.336V151.116H322.928V149.346H328.648V148.336H321.658ZM328.018 148.336V150.046C328.018 150.146 327.978 150.176 327.858 150.176C327.748 150.186 327.338 150.186 327.008 150.166C327.138 150.416 327.328 150.786 327.398 151.086C327.978 151.086 328.438 151.086 328.798 150.936C329.158 150.786 329.258 150.546 329.258 150.046V148.336H328.018ZM324.978 149.906C324.148 150.946 322.518 151.756 320.758 152.096C321.018 152.346 321.348 152.806 321.508 153.106C323.308 152.626 324.918 151.626 325.878 150.246L324.978 149.906ZM325.838 149.916L325.198 150.476C325.948 151.446 327.528 152.576 329.388 153.036C329.558 152.726 329.908 152.246 330.148 151.986C328.238 151.646 326.568 150.766 325.838 149.916ZM322.118 144.766V145.766H325.248V144.766H322.118ZM326.138 144.766V145.766H329.928V144.766H326.138ZM322.168 143.916C321.848 144.736 321.268 145.576 320.628 146.106C320.908 146.256 321.398 146.576 321.628 146.766C322.258 146.156 322.908 145.186 323.318 144.226L322.168 143.916ZM326.198 143.916C325.918 144.756 325.368 145.586 324.728 146.096C325.018 146.256 325.518 146.586 325.738 146.786C326.378 146.176 327.008 145.206 327.378 144.206L326.198 143.916ZM322.518 145.556C322.778 145.966 323.058 146.526 323.168 146.866L324.198 146.476C324.078 146.126 323.768 145.596 323.508 145.206L322.518 145.556ZM326.878 145.476C327.158 145.886 327.468 146.446 327.588 146.806L328.658 146.456C328.518 146.096 328.178 145.556 327.888 145.166L326.878 145.476ZM259.378 156.496V159.416C259.378 160.976 259.298 163.166 258.238 164.646C258.498 164.776 258.998 165.196 259.198 165.416C260.378 163.796 260.568 161.146 260.568 159.416V156.496H259.378ZM260.018 156.496V157.626H264.848V156.496H260.018ZM259.958 159.096V160.206H263.958V159.096H259.958ZM261.248 159.796L260.168 160.046C260.918 162.586 262.188 164.466 264.418 165.396C264.588 165.086 264.958 164.606 265.218 164.366C263.138 163.626 261.848 161.916 261.248 159.796ZM263.608 159.096V159.326C263.168 161.966 261.818 163.626 259.898 164.436C260.148 164.636 260.528 165.126 260.688 165.406C262.708 164.466 264.208 162.486 264.778 159.336L264.048 159.066L263.828 159.096H263.608ZM257.928 156.006C257.388 157.426 256.458 158.836 255.508 159.716C255.708 160.016 256.038 160.676 256.138 160.966C257.268 159.846 258.378 158.066 259.058 156.376L257.928 156.006ZM256.968 158.776V165.356H258.108V157.656L258.098 157.646L256.968 158.776ZM270.918 158.836H273.518V160.296H270.918V158.836ZM269.758 157.806V161.316H274.748V157.806H269.758ZM273.358 155.966C273.238 156.476 272.978 157.186 272.768 157.636L273.798 157.936C274.028 157.526 274.328 156.906 274.598 156.286L273.358 155.966ZM269.888 156.376C270.178 156.886 270.488 157.576 270.598 158.026L271.708 157.626C271.578 157.176 271.268 156.516 270.948 156.036L269.888 156.376ZM272.398 161.086V163.916C272.398 164.946 272.588 165.296 273.478 165.296C273.638 165.296 273.958 165.296 274.138 165.296C274.868 165.296 275.138 164.876 275.238 163.266C274.928 163.186 274.448 162.996 274.228 162.806C274.208 164.056 274.158 164.246 274.008 164.246C273.938 164.246 273.728 164.246 273.678 164.246C273.538 164.246 273.528 164.206 273.528 163.906V161.086H272.398ZM270.688 161.126C270.598 162.496 270.418 163.726 269.048 164.466C269.328 164.676 269.668 165.116 269.818 165.426C271.458 164.466 271.768 162.906 271.888 161.126H270.688ZM266.168 159.126V160.026H269.058V159.126H266.168ZM266.228 156.296V157.206H269.068V156.296H266.228ZM266.168 160.526V161.426H269.058V160.526H266.168ZM265.678 157.686V158.626H269.418V157.686H265.678ZM266.718 161.936V162.886H268.108V164.036H266.718V164.976H269.138V161.936H266.718ZM266.138 161.936V165.376H267.148V161.936H266.138ZM276.168 157.736V158.916H284.648V157.736H276.168ZM275.838 163.786V164.986H284.948V163.786H275.838ZM279.738 155.986V158.396H280.998V155.986H279.738ZM281.998 159.266C281.768 160.746 281.278 162.686 280.808 163.906L281.978 164.166C282.448 162.986 282.988 161.156 283.378 159.506L281.998 159.266ZM277.458 159.596C277.888 160.816 278.248 162.436 278.318 163.476L279.548 163.146C279.448 162.086 279.078 160.536 278.598 159.296L277.458 159.596ZM286.098 157.606L286.228 158.976C287.388 158.716 289.428 158.506 290.368 158.406C289.688 158.916 288.878 160.046 288.878 161.486C288.878 163.656 290.858 164.786 292.958 164.916L293.418 163.546C291.728 163.456 290.188 162.866 290.188 161.216C290.188 160.036 291.098 158.736 292.298 158.416C292.838 158.296 293.698 158.286 294.238 158.286L294.228 156.996C293.518 157.026 292.428 157.086 291.398 157.176C289.558 157.336 287.918 157.476 287.078 157.556C286.888 157.576 286.488 157.596 286.098 157.606Z" fill="black"/>
<circle cx="94.5003" cy="122.5" r="70.5001" fill="#F0C65A"/>
<path d="M96.5687 66.9449V84.3994H94.455V69.1608H94.3528L90.0914 71.9903V69.8426L94.455 66.9449H96.5687Z" fill="black"/>
<path d="M47.1991 98.8382H49.6593V106.395C49.6593 107.244 49.4567 107.986 49.0514 108.622C48.6499 109.259 48.0874 109.755 47.3639 110.111C46.6404 110.463 45.7976 110.639 44.8355 110.639C43.8696 110.639 43.0249 110.463 42.3014 110.111C41.5779 109.755 41.0154 109.259 40.6139 108.622C40.2124 107.986 40.0116 107.244 40.0116 106.395V98.8382H42.4718V106.185C42.4718 106.628 42.5684 107.022 42.7616 107.367C42.9586 107.711 43.2351 107.982 43.5912 108.179C43.9472 108.376 44.362 108.475 44.8355 108.475C45.3127 108.475 45.7275 108.376 46.0798 108.179C46.4359 107.982 46.7105 107.711 46.9037 107.367C47.1006 107.022 47.1991 106.628 47.1991 106.185V98.8382ZM61.4164 98.8382V110.475H59.2914L54.2289 103.151H54.1437V110.475H51.6835V98.8382H53.8426L58.8653 106.156H58.9676V98.8382H61.4164ZM67.5741 110.475H63.4491V98.8382H67.6082C68.7787 98.8382 69.7862 99.0712 70.6309 99.5371C71.4756 99.9992 72.1252 100.664 72.5798 101.531C73.0381 102.399 73.2673 103.437 73.2673 104.645C73.2673 105.857 73.0381 106.899 72.5798 107.77C72.1252 108.641 71.4718 109.31 70.6196 109.776C69.7711 110.242 68.7559 110.475 67.5741 110.475ZM65.9093 108.367H67.4718C68.1991 108.367 68.8109 108.238 69.3071 107.98C69.8071 107.719 70.1821 107.316 70.4321 106.77C70.6859 106.221 70.8127 105.512 70.8127 104.645C70.8127 103.785 70.6859 103.083 70.4321 102.537C70.1821 101.992 69.809 101.59 69.3127 101.333C68.8165 101.075 68.2048 100.946 67.4775 100.946H65.9093V108.367ZM75.0897 110.475V98.8382H82.9306V100.867H77.55V103.639H82.5272V105.668H77.55V108.446H82.9534V110.475H75.0897ZM84.8866 110.475V98.8382H89.4775C90.3563 98.8382 91.1063 98.9954 91.7275 99.3098C92.3525 99.6204 92.8279 100.062 93.1537 100.634C93.4832 101.202 93.648 101.87 93.648 102.639C93.648 103.412 93.4813 104.077 93.148 104.634C92.8146 105.187 92.3317 105.611 91.6991 105.906C91.0703 106.202 90.309 106.35 89.415 106.35H86.3412V104.372H89.0173C89.487 104.372 89.8771 104.308 90.1877 104.179C90.4984 104.05 90.7294 103.857 90.8809 103.6C91.0362 103.342 91.1139 103.022 91.1139 102.639C91.1139 102.253 91.0362 101.927 90.8809 101.662C90.7294 101.397 90.4965 101.196 90.1821 101.06C89.8715 100.92 89.4794 100.85 89.0059 100.85H87.3468V110.475H84.8866ZM91.1707 105.179L94.0627 110.475H91.3468L88.5173 105.179H91.1707ZM101.699 102.185C101.654 101.727 101.459 101.37 101.114 101.117C100.769 100.863 100.301 100.736 99.7105 100.736C99.309 100.736 98.9699 100.793 98.6934 100.906C98.4169 101.016 98.2048 101.17 98.0571 101.367C97.9131 101.564 97.8412 101.787 97.8412 102.037C97.8336 102.245 97.8771 102.427 97.9718 102.583C98.0703 102.738 98.2048 102.872 98.3752 102.986C98.5457 103.096 98.7427 103.192 98.9662 103.276C99.1896 103.355 99.4283 103.423 99.6821 103.48L100.728 103.73C101.235 103.844 101.701 103.995 102.125 104.185C102.549 104.374 102.917 104.607 103.228 104.884C103.538 105.16 103.779 105.486 103.949 105.861C104.123 106.236 104.212 106.666 104.216 107.151C104.212 107.863 104.031 108.48 103.671 109.003C103.315 109.522 102.799 109.925 102.125 110.213C101.455 110.497 100.646 110.639 99.6991 110.639C98.7597 110.639 97.9415 110.495 97.2446 110.208C96.5514 109.92 96.0097 109.494 95.6196 108.929C95.2332 108.361 95.0305 107.658 95.0116 106.821H97.3923C97.4188 107.211 97.5305 107.537 97.7275 107.798C97.9283 108.056 98.1953 108.251 98.5287 108.384C98.8658 108.512 99.2465 108.577 99.6707 108.577C100.087 108.577 100.449 108.516 100.756 108.395C101.067 108.274 101.307 108.105 101.478 107.889C101.648 107.673 101.733 107.425 101.733 107.145C101.733 106.884 101.656 106.664 101.5 106.486C101.349 106.308 101.125 106.156 100.83 106.031C100.538 105.906 100.18 105.793 99.7559 105.691L98.4889 105.372C97.5078 105.134 96.7332 104.761 96.165 104.253C95.5968 103.745 95.3146 103.062 95.3184 102.202C95.3146 101.497 95.5021 100.882 95.8809 100.355C96.2635 99.8288 96.7881 99.4178 97.4548 99.1223C98.1215 98.8269 98.879 98.6792 99.7275 98.6792C100.591 98.6792 101.345 98.8269 101.989 99.1223C102.637 99.4178 103.14 99.8288 103.5 100.355C103.86 100.882 104.046 101.492 104.057 102.185H101.699ZM105.428 100.867V98.8382H114.985V100.867H111.422V110.475H108.99V100.867H105.428ZM117.142 110.475H114.506L118.523 98.8382H121.693L125.705 110.475H123.068L120.154 101.497H120.063L117.142 110.475ZM116.978 105.901H123.205V107.821H116.978V105.901ZM136.838 98.8382V110.475H134.713L129.651 103.151H129.566V110.475H127.105V98.8382H129.264L134.287 106.156H134.389V98.8382H136.838ZM142.996 110.475H138.871V98.8382H143.03C144.201 98.8382 145.208 99.0712 146.053 99.5371C146.897 99.9992 147.547 100.664 148.002 101.531C148.46 102.399 148.689 103.437 148.689 104.645C148.689 105.857 148.46 106.899 148.002 107.77C147.547 108.641 146.894 109.31 146.041 109.776C145.193 110.242 144.178 110.475 142.996 110.475ZM141.331 108.367H142.894C143.621 108.367 144.233 108.238 144.729 107.98C145.229 107.719 145.604 107.316 145.854 106.77C146.108 106.221 146.235 105.512 146.235 104.645C146.235 103.785 146.108 103.083 145.854 102.537C145.604 101.992 145.231 101.59 144.735 101.333C144.238 101.075 143.627 100.946 142.899 100.946H141.331V108.367Z" fill="black"/>
<path d="M54.7977 144.506V145.616H58.3177V144.506H54.7977ZM54.8877 147.366V148.466H58.2077V147.366H54.8877ZM54.5577 150.836L54.8577 151.976C55.8977 151.666 57.2577 151.276 58.5177 150.896L58.3577 149.846C56.9777 150.226 55.5277 150.616 54.5577 150.836ZM59.8177 146.866H62.4477V147.486H59.8177V146.866ZM59.8177 148.406H62.4477V149.016H59.8177V148.406ZM59.8177 145.346H62.4477V145.956H59.8177V145.346ZM58.7077 144.366V150.006H63.6177V144.366H58.7077ZM61.2277 149.566V151.976C61.2277 152.986 61.4277 153.326 62.3577 153.326C62.5277 153.326 62.9377 153.326 63.1177 153.326C63.8477 153.326 64.1277 152.946 64.2277 151.576C63.9277 151.506 63.4477 151.316 63.2177 151.136C63.1977 152.136 63.1577 152.296 62.9877 152.296C62.8977 152.296 62.6377 152.296 62.5677 152.296C62.4077 152.296 62.3777 152.266 62.3777 151.966V149.566H61.2277ZM59.4577 149.856C59.3277 151.126 59.0677 151.976 57.1677 152.456C57.4077 152.686 57.7077 153.146 57.8277 153.446C60.0477 152.776 60.4777 151.566 60.6277 149.856H59.4577ZM56.0077 144.946V150.996L57.1677 150.826V144.946H56.0077ZM68.0477 146.766V147.956H73.9477V146.766H68.0477ZM71.2877 147.336L70.2977 147.556C70.8277 150.066 71.7277 152.176 73.3577 153.346C73.5477 153.026 73.9477 152.566 74.2277 152.336C72.6877 151.396 71.7477 149.466 71.2877 147.336ZM71.7477 144.706C72.1477 145.256 72.6077 146.016 72.8077 146.486L73.7877 145.906C73.5577 145.436 73.0577 144.726 72.6577 144.196L71.7477 144.706ZM70.0977 144.006V146.566C70.0977 148.356 69.8477 150.726 67.6577 152.606C67.9777 152.806 68.3877 153.116 68.6177 153.366C70.9377 151.386 71.2877 148.716 71.2877 146.566V144.006H70.0977ZM66.6077 143.966V153.356H67.7977V143.966H66.6077ZM64.7177 145.796C65.1277 146.416 65.6177 147.236 65.8077 147.756L66.8177 147.136C66.5977 146.626 66.0777 145.836 65.6577 145.256L64.7177 145.796ZM64.6577 150.246L65.2777 151.286C65.9177 150.746 66.6677 150.066 67.3377 149.436L66.8577 148.476C66.0577 149.166 65.2077 149.856 64.6577 150.246ZM80.2977 145.626L78.9277 145.586C78.8277 146.636 78.6077 147.786 78.3177 148.726C77.8977 150.076 77.5177 150.716 77.0877 150.716C76.7077 150.716 76.3077 150.226 76.3077 149.216C76.3077 147.956 77.4677 146.226 79.5877 146.226C81.3177 146.226 82.2977 147.346 82.2977 148.916C82.2977 150.386 81.2977 151.296 80.0277 151.606C79.7577 151.666 79.4777 151.716 79.0877 151.766L79.8477 152.946C82.3677 152.556 83.6577 151.066 83.6577 148.966C83.6577 146.776 82.0877 145.056 79.6177 145.056C77.0277 145.056 75.0177 147.036 75.0177 149.336C75.0177 151.026 75.9377 152.256 77.0577 152.256C78.1477 152.256 79.0077 151.016 79.6077 148.996C79.9577 147.816 80.1577 146.646 80.2977 145.626ZM88.4477 149.046V150.106H93.9077V149.046H88.4477ZM91.9877 149.676L91.1377 149.986C91.6577 151.106 92.5477 152.286 93.3977 152.956C93.5777 152.666 93.9577 152.256 94.2177 152.046C93.3777 151.536 92.4677 150.566 91.9877 149.676ZM89.7977 146.866H92.5577V147.516H89.7977V146.866ZM89.7977 145.316H92.5577V145.946H89.7977V145.316ZM88.7377 144.366V148.456H93.6677V144.366H88.7377ZM90.3777 149.596C89.9077 150.576 88.9777 151.566 88.0277 152.076C88.2777 152.286 88.6477 152.716 88.8277 152.996C89.8277 152.346 90.7477 151.146 91.2777 149.906L90.3777 149.596ZM90.6477 144.836V148.006H90.5877V153.366H91.7477V148.006H91.6777V144.836H90.6477ZM85.1377 147.056V147.956H88.0677V147.056H85.1377ZM85.1677 144.296V145.206H88.0377V144.296H85.1677ZM85.1377 148.416V149.326H88.0677V148.416H85.1377ZM84.6777 145.646V146.596H88.3277V145.646H84.6777ZM85.6577 149.806V150.756H87.0777V151.896H85.6577V152.846H88.0777V149.806H85.6577ZM85.1177 149.806V153.246H86.0977V149.806H85.1177ZM96.3377 146.406H97.7577V146.886H96.3377V146.406ZM96.3377 145.176H97.7577V145.646H96.3377V145.176ZM95.2777 144.376V147.696H98.8677V144.376H95.2777ZM94.8077 148.266V149.146H99.3177V148.266H94.8077ZM99.2777 144.406V145.246H103.888V144.406H99.2777ZM96.6777 148.546V151.986L97.6777 152.566V148.546H96.6777ZM97.1977 149.956V150.816H99.1377V149.956H97.1977ZM101.208 144.606C101.108 145.076 100.918 145.726 100.738 146.176L101.588 146.396C101.798 146.006 102.058 145.406 102.298 144.846L101.208 144.606ZM100.658 147.826H102.478V148.296H100.658V147.826ZM100.658 149.056H102.478V149.536H100.658V149.056ZM100.658 146.586H102.478V147.056H100.658V146.586ZM99.5877 145.776V150.356H103.588V145.776H99.5877ZM100.398 150.426C100.058 150.836 99.4577 151.246 98.8577 151.506C99.0777 151.666 99.4577 152.016 99.6277 152.206C100.248 151.866 100.958 151.296 101.388 150.726L100.398 150.426ZM95.2677 149.536C95.2377 150.746 95.1377 151.926 94.5677 152.626C94.8077 152.806 95.1277 153.186 95.2677 153.436C96.0277 152.536 96.1777 151.066 96.2277 149.536H95.2677ZM96.0677 150.376L95.3577 150.586C96.0677 152.846 97.4377 153.186 99.9177 153.186H103.778C103.838 152.886 104.008 152.426 104.168 152.196C103.348 152.236 100.588 152.236 99.9177 152.236C97.8777 152.226 96.6277 152.056 96.0677 150.376ZM101.818 150.786C102.318 151.156 102.938 151.736 103.248 152.136L104.108 151.626C103.798 151.246 103.178 150.706 102.638 150.356L101.818 150.786ZM110.298 145.626L108.928 145.586C108.828 146.636 108.608 147.786 108.318 148.726C107.898 150.076 107.518 150.716 107.088 150.716C106.708 150.716 106.308 150.226 106.308 149.216C106.308 147.956 107.468 146.226 109.588 146.226C111.318 146.226 112.298 147.346 112.298 148.916C112.298 150.386 111.298 151.296 110.028 151.606C109.758 151.666 109.478 151.716 109.088 151.766L109.848 152.946C112.368 152.556 113.658 151.066 113.658 148.966C113.658 146.776 112.088 145.056 109.618 145.056C107.028 145.056 105.018 147.036 105.018 149.336C105.018 151.026 105.938 152.256 107.058 152.256C108.148 152.256 109.008 151.016 109.608 148.996C109.958 147.816 110.158 146.646 110.298 145.626ZM119.518 147.206H122.548V148.066H119.518V147.206ZM119.518 145.426H122.548V146.266H119.518V145.426ZM118.438 144.406V149.076H123.688V144.406H118.438ZM118.368 149.936V151.016H123.798V149.936H118.368ZM117.668 151.976V153.056H124.128V151.976H117.668ZM114.738 144.556V145.676H118.058V144.556H114.738ZM114.838 147.436V148.546H117.888V147.436H114.838ZM114.628 151.236L114.898 152.456C115.858 152.146 117.058 151.756 118.178 151.376L117.968 150.226C116.768 150.616 115.488 151.016 114.628 151.236ZM115.848 144.996V151.326L116.988 151.146V144.996H115.848ZM120.548 144.836V148.606H120.438V152.486H121.668V148.606H121.558V144.836H120.548ZM125.808 146.556V147.436H128.578V146.556H125.808ZM125.808 148.196V149.046H128.578V148.196H125.808ZM125.808 149.866V150.756H128.578V149.866H125.808ZM130.138 148.736V149.746H133.908V148.736H130.138ZM126.298 144.916V145.816H127.878V144.916H126.298ZM129.388 144.496V145.476H133.098V144.496H129.388ZM129.388 150.646V151.686H134.098V150.646H129.388ZM131.258 147.836V153.346H132.398V147.836H131.258ZM126.888 147.016V150.196H127.688V147.016H126.888ZM132.778 144.496V144.636C132.738 146.086 132.678 146.626 132.568 146.756C132.498 146.846 132.418 146.866 132.288 146.866C132.158 146.866 131.898 146.856 131.578 146.826C131.728 147.086 131.828 147.486 131.848 147.786C132.248 147.806 132.638 147.796 132.858 147.766C133.118 147.726 133.308 147.646 133.468 147.436C133.688 147.176 133.778 146.486 133.828 144.876C133.838 144.746 133.848 144.496 133.848 144.496H132.778ZM129.938 147.906C129.798 148.706 129.528 149.526 129.138 150.056C129.378 150.166 129.818 150.386 130.018 150.526C130.408 149.936 130.738 149.016 130.918 148.096L129.938 147.906ZM126.058 143.976C125.788 145.166 125.258 146.336 124.578 147.076C124.818 147.236 125.248 147.596 125.428 147.786C126.148 146.936 126.768 145.586 127.128 144.206L126.058 143.976ZM125.368 146.556V149.206C125.368 150.336 125.308 151.826 124.628 152.866C124.858 152.966 125.288 153.236 125.468 153.396C126.198 152.266 126.328 150.486 126.328 149.206V146.556H125.368ZM128.258 146.556V152.206C128.258 152.326 128.208 152.366 128.088 152.366C127.968 152.376 127.568 152.376 127.178 152.356C127.318 152.626 127.478 153.086 127.518 153.366C128.128 153.366 128.538 153.346 128.848 153.176C129.148 152.996 129.238 152.696 129.238 152.226V146.556H128.258ZM130.588 144.826C130.488 145.906 130.278 146.756 129.078 147.246C129.318 147.426 129.588 147.816 129.708 148.066C131.198 147.406 131.538 146.286 131.658 144.826H130.588ZM127.598 144.916V145.096C127.478 145.566 127.228 146.306 127.008 146.766C127.218 146.876 127.548 147.076 127.738 147.216C128.048 146.716 128.438 145.926 128.658 145.296L127.978 144.866L127.828 144.916H127.598Z" fill="black"/>
</svg>
