<svg width="384" height="240" viewBox="0 0 384 240" fill="none" xmlns="http://www.w3.org/2000/svg">
<rect width="384" height="240" rx="18" fill="#F2F1F6"/>
<rect x="40" y="40" width="304" height="54" rx="9" fill="white"/>
<path d="M59 61.14C58.41 61.14 57.93 61.62 57.93 62.2C57.93 62.79 58.41 63.27 59 63.27C59.58 63.27 60.06 62.79 60.06 62.2C60.06 61.62 59.58 61.14 59 61.14ZM69.61 61.03V61.7H73.38V61.03H69.61ZM67.26 65.75V66.42H72.3V65.75H67.26ZM69.25 59.84V63.5H70.01V59.84H69.25ZM66.86 63.14V66.82H67.59V63.82H71.94V66.8H72.71V63.14H66.86ZM68.9 57.61V59.31H69.67V57.61H68.9ZM65.57 58.9V59.62H73.52V58.9H65.57ZM65.2 58.9V61.49C65.2 62.93 65.13 64.95 64.31 66.39C64.49 66.47 64.82 66.68 64.95 66.81C65.81 65.29 65.95 63.03 65.95 61.49V58.9H65.2ZM78.52 59V59.66H83.55V59H78.52ZM79.13 62.26V62.89H83.06V62.26H79.13ZM79.13 63.92V64.55H83.06V63.92H79.13ZM80.7 57.6V66.73H81.38V57.6H80.7ZM82.69 60.61V66.01C82.69 66.12 82.65 66.15 82.56 66.15C82.46 66.16 82.15 66.16 81.81 66.15C81.9 66.33 82 66.61 82.02 66.79C82.54 66.79 82.86 66.78 83.08 66.66C83.3 66.56 83.36 66.36 83.36 66.03V60.61H82.69ZM78.8 60.61V66.78H79.47V61.26H83.04V60.61H78.8ZM81.69 57.99C82.15 58.24 82.72 58.62 83 58.91L83.44 58.49C83.16 58.22 82.58 57.85 82.1 57.63L81.69 57.99ZM74.89 63.48V66.73H75.56V64.11H77.55V66.54H78.24V63.48H74.89ZM76.19 59.56V62.42H76.89V59.56H76.19ZM74.94 60.54V61.14H78.2V60.54H74.94ZM74.56 62.17V62.8H78.47V62.17H74.56ZM75.16 65.57V66.2H77.93V65.57H75.16ZM76.08 57.61C75.73 58.38 75.09 59.38 74.22 60.13C74.37 60.23 74.61 60.46 74.72 60.62C75.67 59.75 76.32 58.72 76.72 57.98V57.77H76.49V57.61H76.08ZM76.23 57.61V58.12H76.37C76.97 58.64 77.67 59.5 78.02 60.02L78.49 59.44C78.14 58.93 77.39 58.15 76.78 57.61H76.23ZM89.23 65.79L89.76 66.23C89.84 66.18 89.94 66.09 90.11 66.01C91.27 65.43 92.65 64.41 93.52 63.24L93.04 62.55C92.28 63.68 91.05 64.59 90.12 65.01C90.12 64.71 90.12 59.87 90.12 59.25C90.12 58.87 90.16 58.58 90.17 58.5H89.25C89.25 58.58 89.3 58.86 89.3 59.24C89.3 59.87 89.3 64.77 89.3 65.23C89.3 65.43 89.27 65.64 89.23 65.79ZM84.65 65.75L85.41 66.25C86.25 65.55 86.89 64.58 87.19 63.51C87.46 62.51 87.49 60.36 87.49 59.25C87.49 58.96 87.53 58.65 87.54 58.54H86.62C86.67 58.75 86.69 58.97 86.69 59.26C86.69 60.38 86.69 62.37 86.39 63.29C86.09 64.26 85.5 65.15 84.65 65.75ZM95.01 61.67V62.65C95.33 62.63 95.86 62.61 96.41 62.61C97.15 62.61 101.14 62.61 101.9 62.61C102.34 62.61 102.76 62.64 102.97 62.65V61.67C102.74 61.69 102.39 61.73 101.89 61.73C101.15 61.73 97.14 61.73 96.41 61.73C95.84 61.73 95.32 61.7 95.01 61.67ZM109.23 65.79L109.76 66.23C109.84 66.18 109.94 66.09 110.11 66.01C111.27 65.43 112.65 64.41 113.52 63.24L113.04 62.55C112.28 63.68 111.05 64.59 110.12 65.01C110.12 64.71 110.12 59.87 110.12 59.25C110.12 58.87 110.16 58.58 110.17 58.5H109.25C109.25 58.58 109.3 58.86 109.3 59.24C109.3 59.87 109.3 64.77 109.3 65.23C109.3 65.43 109.27 65.64 109.23 65.79ZM104.65 65.75L105.41 66.25C106.25 65.55 106.89 64.58 107.19 63.51C107.46 62.51 107.49 60.36 107.49 59.25C107.49 58.96 107.53 58.65 107.54 58.54H106.62C106.67 58.75 106.69 58.97 106.69 59.26C106.69 60.38 106.69 62.37 106.39 63.29C106.09 64.26 105.5 65.15 104.65 65.75ZM119.63 59.18L118.8 59.16C118.7 60.2 118.49 61.33 118.2 62.28C117.69 63.97 117.15 64.65 116.68 64.65C116.23 64.65 115.66 64.09 115.66 62.83C115.66 61.36 117.03 59.55 119.23 59.55C121.15 59.55 122.26 60.87 122.26 62.47C122.26 64.2 121 65.16 119.72 65.45C119.48 65.5 119.18 65.54 118.86 65.57L119.32 66.31C121.7 66 123.08 64.6 123.08 62.51C123.08 60.48 121.59 58.83 119.25 58.83C116.8 58.83 114.87 60.72 114.87 62.89C114.87 64.55 115.76 65.57 116.66 65.57C117.58 65.57 118.38 64.51 118.99 62.46C119.3 61.39 119.5 60.22 119.63 59.18ZM126.03 58.7V59.53C126.29 59.51 126.61 59.49 126.95 59.49C127.51 59.49 129.84 59.49 130.4 59.49C130.68 59.49 131.03 59.51 131.33 59.53V58.7C131.04 58.73 130.68 58.75 130.4 58.75C129.84 58.75 127.51 58.75 126.93 58.75C126.61 58.75 126.31 58.73 126.03 58.7ZM124.84 61.21V62.04C125.11 62.02 125.41 62.01 125.71 62.01C126.29 62.01 131.72 62.01 132.25 62.01C132.5 62.01 132.82 62.02 133.04 62.04V61.21C132.79 61.24 132.46 61.26 132.25 61.26C131.72 61.26 126.29 61.26 125.71 61.26C125.4 61.26 125.11 61.24 124.84 61.21ZM129.55 61.61L128.71 61.62C128.7 62.72 128.63 63.7 128.13 64.49C127.73 65.13 127.01 65.7 126.24 66.03L126.98 66.57C127.83 66.14 128.58 65.42 128.95 64.75C129.39 63.91 129.55 62.87 129.55 61.61ZM131.85 57.88L131.32 58.11C131.59 58.49 131.93 59.09 132.12 59.49L132.66 59.25C132.46 58.85 132.1 58.24 131.85 57.88ZM132.94 57.48L132.42 57.71C132.7 58.08 133.03 58.65 133.25 59.08L133.78 58.84C133.59 58.47 133.21 57.85 132.94 57.48ZM141.96 58.38L141.48 58.53C141.68 58.91 141.91 59.51 142.05 59.93L142.55 59.76C142.41 59.36 142.15 58.74 141.96 58.38ZM142.96 58.07L142.47 58.22C142.68 58.6 142.9 59.17 143.06 59.62L143.56 59.45C143.41 59.05 143.15 58.44 142.96 58.07ZM141.01 61.59V59.22C141.01 58.83 141.05 58.5 141.06 58.4H140.16C140.18 58.5 140.21 58.83 140.21 59.22V61.65C140.21 64.45 139.3 65.31 137.48 66.01L138.16 66.64C140.44 65.62 141.01 64.25 141.01 61.59ZM137.41 58.47H136.52C136.55 58.69 136.56 58.98 136.56 59.19V62.86C136.56 63.24 136.53 63.66 136.52 63.76H137.4C137.39 63.66 137.36 63.22 137.36 62.86V59.19C137.36 58.84 137.4 58.56 137.41 58.47ZM134.48 60.41V61.27C134.6 61.26 135.05 61.24 135.49 61.24H142.11C142.55 61.24 142.92 61.25 143.03 61.27V60.42C142.89 60.44 142.55 60.47 142.11 60.47H135.49C135.06 60.47 134.57 60.42 134.48 60.41ZM144.86 62.39L145.25 63.17C146.86 62.67 148.45 61.94 149.55 61.26C150.72 60.53 151.77 59.69 152.63 58.8L151.96 58.17C151.27 59.01 150.27 59.87 149.22 60.53C148.11 61.22 146.59 61.93 144.86 62.39ZM149.06 60.94V65.25C149.06 65.62 149.03 66.12 149 66.31H149.99C149.94 66.12 149.92 65.62 149.92 65.25V60.68L149.06 60.94ZM156.27 58.68L155.69 59.29C156.44 59.78 157.68 60.86 158.19 61.38L158.81 60.74C158.26 60.19 156.97 59.15 156.27 58.68ZM155.41 65.38L155.93 66.2C157.6 65.89 158.86 65.27 159.87 64.64C161.38 63.69 162.54 62.33 163.22 61.09L162.74 60.23C162.16 61.47 160.95 62.95 159.4 63.92C158.45 64.51 157.15 65.12 155.41 65.38ZM164.78 59.42L164.87 60.3C165.95 60.07 168.5 59.82 169.57 59.71C168.66 60.25 167.71 61.53 167.71 63.08C167.71 65.32 169.81 66.3 171.66 66.37L171.95 65.55C170.33 65.49 168.5 64.86 168.5 62.91C168.5 61.73 169.37 60.2 170.8 59.74C171.31 59.6 172.18 59.58 172.76 59.59L172.75 58.79C172.08 58.81 171.15 58.87 170.05 58.96C168.21 59.12 166.32 59.3 165.68 59.37C165.48 59.39 165.16 59.41 164.78 59.42ZM171.31 60.81L170.81 61.03C171.11 61.45 171.39 61.96 171.62 62.44L172.14 62.21C171.92 61.76 171.54 61.14 171.31 60.81ZM172.4 60.39L171.91 60.62C172.22 61.04 172.52 61.54 172.76 62.02L173.27 61.77C173.04 61.33 172.65 60.72 172.4 60.39ZM178.75 60.61H182.47V61.9H178.75V60.61ZM178.75 58.72H182.47V59.99H178.75V58.72ZM178.07 58.07V62.55H183.19V58.07H178.07ZM177.94 63.72V64.41H183.33V63.72H177.94ZM177.17 65.79V66.47H183.66V65.79H177.17ZM174.45 58.28V58.99H177.57V58.28H174.45ZM174.56 61.17V61.88H177.43V61.17H174.56ZM174.35 65L174.53 65.77C175.42 65.47 176.56 65.09 177.65 64.72L177.52 64C176.36 64.39 175.16 64.78 174.35 65ZM175.7 58.56V64.9L176.42 64.76V58.56H175.7ZM180.28 58.38V62.23H180.23V66.1H180.99V62.23H180.94V58.38H180.28ZM185.38 60.14V60.73H188.27V60.14H185.38ZM185.38 61.84V62.41H188.27V61.84H185.38ZM185.38 63.58V64.17H188.27V63.58H185.38ZM189.64 62.34V62.99H193.45V62.34H189.64ZM185.9 58.5V59.09H187.56V58.5H185.9ZM189 58.11V58.75H192.91V58.11H189ZM188.88 64.21V64.88H193.62V64.21H188.88ZM190.99 61.31V66.76H191.71V61.31H190.99ZM186.62 60.43V63.83H187.16V60.43H186.62ZM192.67 58.11V58.21C192.6 59.78 192.52 60.36 192.39 60.51C192.33 60.59 192.24 60.61 192.1 60.6C191.96 60.6 191.6 60.6 191.2 60.56C191.29 60.73 191.36 60.99 191.37 61.19C191.79 61.21 192.21 61.21 192.41 61.19C192.67 61.17 192.82 61.11 192.96 60.94C193.17 60.71 193.27 60.06 193.34 58.39C193.35 58.3 193.35 58.11 193.35 58.11H192.67ZM189.68 61.4C189.51 62.25 189.2 63.09 188.77 63.65C188.93 63.73 189.23 63.88 189.36 63.97C189.78 63.37 190.13 62.46 190.33 61.53L189.68 61.4ZM185.88 57.6C185.58 58.83 185.02 60.02 184.31 60.79C184.47 60.89 184.76 61.12 184.88 61.24C185.59 60.39 186.2 59.1 186.57 57.75L185.88 57.6ZM185.09 60.14V62.8C185.09 63.93 185.02 65.42 184.34 66.48C184.49 66.55 184.77 66.72 184.88 66.82C185.59 65.71 185.71 64.02 185.71 62.8V60.14H185.09ZM188.07 60.14V65.98C188.07 66.11 188.01 66.15 187.88 66.16C187.74 66.17 187.29 66.17 186.78 66.15C186.87 66.33 186.98 66.62 187.01 66.79C187.7 66.79 188.11 66.78 188.36 66.67C188.62 66.56 188.7 66.35 188.7 65.98V60.14H188.07ZM190.42 58.32C190.28 59.45 189.92 60.44 188.69 60.96C188.84 61.07 189.02 61.31 189.11 61.47C190.51 60.84 190.94 59.7 191.11 58.32H190.42ZM187.38 58.5V58.62C187.23 59.12 186.95 59.84 186.7 60.29C186.84 60.35 187.06 60.48 187.18 60.58C187.48 60.11 187.86 59.37 188.07 58.75L187.63 58.46L187.53 58.5H187.38ZM197.4 58.21H196.38C196.44 58.5 196.47 58.85 196.47 59.22C196.47 60.27 196.37 62.8 196.37 64.28C196.37 65.92 197.36 66.51 198.8 66.51C200.99 66.51 202.29 65.26 202.97 64.31L202.41 63.63C201.69 64.67 200.65 65.69 198.82 65.69C197.87 65.69 197.18 65.31 197.18 64.21C197.18 62.72 197.26 60.35 197.3 59.22C197.32 58.89 197.35 58.54 197.4 58.21ZM209.442 59.66L210.012 59.21C209.642 58.82 208.882 58.19 208.552 57.93L207.982 58.34C208.402 58.66 209.062 59.27 209.442 59.66ZM206.262 58.79L205.452 59.12C205.612 59.32 205.812 59.64 205.932 59.84C206.272 60.41 206.722 61.38 207.192 62.43C207.762 63.74 208.242 65.34 208.552 66.53L209.412 66.3C209.072 65.19 208.432 63.34 207.892 62.09C207.482 61.18 207.002 60.17 206.612 59.47C206.512 59.28 206.342 58.96 206.262 58.79ZM204.492 61.71L204.882 62.53C206.142 61.98 209.102 60.25 210.772 60.25C211.752 60.25 212.222 60.8 212.222 61.39C212.222 62.1 211.772 62.71 210.672 62.71C210.142 62.71 209.642 62.56 209.252 62.38L209.232 63.17C209.602 63.31 210.172 63.45 210.732 63.45C212.292 63.45 213.022 62.58 213.022 61.42C213.022 60.33 212.182 59.55 210.792 59.55C209.132 59.55 206.702 60.91 205.312 61.44C205.132 61.52 204.782 61.64 204.492 61.71ZM220.172 58.08H219.252C219.272 58.17 219.302 58.45 219.322 58.72C219.352 59.27 219.362 61.26 219.362 61.7L220.122 62.09C220.112 61.29 220.092 59.36 220.122 58.71C220.122 58.59 220.152 58.2 220.172 58.08ZM214.852 59.48L214.872 60.25C216.382 60.14 218.522 60.07 220.242 60.07C221.712 60.07 222.612 60.09 223.172 60.12L223.182 59.38C222.712 59.37 221.472 59.37 220.252 59.37C218.712 59.37 216.212 59.46 214.852 59.48ZM220.102 62.38L219.552 62.1C219.712 63.17 219.312 63.69 218.692 63.69C218.142 63.69 217.672 63.33 217.672 62.7C217.672 62.05 218.162 61.64 218.692 61.64C219.232 61.64 219.672 62.02 219.672 62.92C219.672 64.57 218.612 65.46 216.792 65.89L217.462 66.54C219.782 65.85 220.442 64.35 220.442 62.99C220.442 61.84 219.852 60.98 218.692 60.98C217.742 60.98 216.922 61.72 216.922 62.71C216.922 63.8 217.732 64.39 218.572 64.39C219.482 64.39 220.102 63.72 220.102 62.38ZM226.132 59.03L225.162 59.01C225.222 59.24 225.222 59.67 225.222 59.9C225.222 60.48 225.242 61.7 225.332 62.56C225.612 65.15 226.512 66.09 227.462 66.09C228.142 66.09 228.742 65.51 229.352 63.82L228.722 63.11C228.462 64.11 227.992 65.14 227.482 65.14C226.762 65.14 226.282 64.03 226.112 62.36C226.042 61.54 226.032 60.62 226.042 60C226.052 59.74 226.082 59.26 226.132 59.03ZM231.332 59.3L230.562 59.57C231.512 60.74 232.122 62.8 232.292 64.6L233.102 64.28C232.952 62.59 232.232 60.46 231.332 59.3ZM238.272 58.2L237.352 58.11C237.352 58.88 237.212 59.78 237.032 60.57C236.762 61.8 235.962 64.47 234.822 65.99L235.632 66.32C236.762 64.49 237.482 62 237.822 60.6C237.952 59.98 238.092 59.16 238.152 58.8C238.192 58.6 238.232 58.39 238.272 58.2ZM241.722 59.27L240.992 59.6C241.692 60.42 242.472 62.19 242.772 63.22L243.542 62.85C243.212 61.92 242.342 60.08 241.722 59.27ZM234.672 60.4L234.762 61.26C235.012 61.22 235.432 61.17 235.662 61.14C236.272 61.08 238.142 60.86 238.812 60.86C239.452 60.86 239.872 61.03 239.872 61.94C239.872 63.02 239.722 64.33 239.402 65C239.192 65.44 238.892 65.52 238.522 65.52C238.242 65.52 237.722 65.44 237.302 65.31L237.432 66.15C237.752 66.22 238.222 66.29 238.612 66.29C239.252 66.29 239.752 66.13 240.072 65.46C240.482 64.63 240.642 63.04 240.642 61.85C240.642 60.49 239.912 60.15 239.022 60.15C238.342 60.15 236.312 60.38 235.572 60.4C235.252 60.41 234.992 60.41 234.672 60.4ZM251.502 60.3L251.102 59.57C250.892 59.75 250.672 59.88 250.382 60.05C249.732 60.41 248.562 60.96 247.542 61.64C246.372 62.42 245.642 63.27 245.642 64.35C245.642 65.85 247.002 66.41 248.882 66.41C250.132 66.41 251.292 66.3 252.042 66.17L252.052 65.27C251.272 65.47 249.932 65.61 248.842 65.61C247.262 65.61 246.472 65.09 246.472 64.26C246.472 63.51 247.032 62.85 247.962 62.24C248.942 61.59 250.052 61.07 250.732 60.72C251.022 60.57 251.272 60.44 251.502 60.3ZM246.712 58.35L245.922 58.69C246.462 59.93 247.062 61.28 247.562 62.1L248.252 61.68C247.782 60.88 247.172 59.63 246.712 58.35ZM251.672 58.25L251.132 58.48C251.412 58.86 251.742 59.47 251.942 59.88L252.482 59.63C252.282 59.22 251.922 58.62 251.672 58.25ZM252.772 57.85L252.242 58.08C252.532 58.45 252.852 59.03 253.072 59.46L253.612 59.22C253.422 58.85 253.032 58.22 252.772 57.85ZM261.092 62.68C261.092 64.47 259.382 65.42 256.952 65.73L257.412 66.49C260.002 66.09 261.942 64.88 261.942 62.71C261.942 61.28 260.892 60.49 259.472 60.49C258.312 60.49 257.182 60.81 256.482 60.97C256.172 61.03 255.842 61.1 255.562 61.12L255.812 62.04C256.052 61.94 256.352 61.83 256.662 61.74C257.242 61.57 258.232 61.24 259.382 61.24C260.412 61.24 261.092 61.83 261.092 62.68ZM256.892 58.17L256.772 58.93C257.902 59.13 259.912 59.33 261.022 59.41L261.142 58.64C260.172 58.63 258.002 58.42 256.892 58.17ZM268.272 58.2L267.352 58.11C267.352 58.88 267.212 59.78 267.032 60.57C266.762 61.8 265.962 64.47 264.822 65.99L265.632 66.32C266.762 64.49 267.482 62 267.822 60.6C267.952 59.98 268.092 59.16 268.152 58.8C268.192 58.6 268.232 58.39 268.272 58.2ZM271.722 59.27L270.992 59.6C271.692 60.42 272.472 62.19 272.772 63.22L273.542 62.85C273.212 61.92 272.342 60.08 271.722 59.27ZM264.672 60.4L264.762 61.26C265.012 61.22 265.432 61.17 265.662 61.14C266.272 61.08 268.142 60.86 268.812 60.86C269.452 60.86 269.872 61.03 269.872 61.94C269.872 63.02 269.722 64.33 269.402 65C269.192 65.44 268.892 65.52 268.522 65.52C268.242 65.52 267.722 65.44 267.302 65.31L267.432 66.15C267.752 66.22 268.222 66.29 268.612 66.29C269.252 66.29 269.752 66.13 270.072 65.46C270.482 64.63 270.642 63.04 270.642 61.85C270.642 60.49 269.912 60.15 269.022 60.15C268.342 60.15 266.312 60.38 265.572 60.4C265.252 60.41 264.992 60.41 264.672 60.4ZM279.532 59.18L278.702 59.16C278.602 60.2 278.392 61.33 278.102 62.28C277.592 63.97 277.052 64.65 276.582 64.65C276.132 64.65 275.562 64.09 275.562 62.83C275.562 61.36 276.932 59.55 279.132 59.55C281.052 59.55 282.162 60.87 282.162 62.47C282.162 64.2 280.902 65.16 279.622 65.45C279.382 65.5 279.082 65.54 278.762 65.57L279.222 66.31C281.602 66 282.982 64.6 282.982 62.51C282.982 60.48 281.492 58.83 279.152 58.83C276.702 58.83 274.772 60.72 274.772 62.89C274.772 64.55 275.662 65.57 276.562 65.57C277.482 65.57 278.282 64.51 278.892 62.46C279.202 61.39 279.402 60.22 279.532 59.18ZM289.112 62.44V63.02H293.022V62.44H289.112ZM289.112 64.08V64.67H293.022V64.08H289.112ZM289.122 65.73V66.37H293.492V65.73H289.122ZM287.982 58.63V60.34H288.632V59.28H292.772V60.34H293.442V58.63H287.982ZM290.742 61.25V66.07H291.442V61.25H290.742ZM289.382 60.77H289.322L288.672 61.45V66.8H289.382V61.42H293.192V60.77H289.382ZM290.322 57.6C289.832 59.44 288.912 60.99 287.592 61.95C287.752 62.08 288.022 62.36 288.132 62.5C289.482 61.43 290.472 59.77 291.042 57.74L290.322 57.6ZM291.362 59.58C291.242 60.02 290.982 60.65 290.772 61.05L291.352 61.22C291.562 60.84 291.832 60.28 292.072 59.76L291.362 59.58ZM284.422 58.28V58.97H287.952V58.28H284.422ZM285.432 61.2V61.87H287.032V64.92H285.432V65.58H287.692V61.2H285.432ZM285.602 58.61C285.362 60.49 284.932 62.26 284.132 63.39C284.272 63.56 284.482 63.93 284.562 64.1C285.492 62.79 286.012 60.82 286.322 58.72L285.602 58.61ZM285.122 61.2V66.36H285.752V61.2H285.122ZM300.102 58.3C299.932 59.67 299.522 61.13 297.892 61.88C298.052 62 298.262 62.25 298.342 62.41C300.092 61.54 300.582 59.92 300.792 58.3H300.102ZM298.262 59.73C299.302 60.08 300.552 60.74 301.222 61.23L301.582 60.64C300.922 60.18 299.672 59.56 298.632 59.21L298.262 59.73ZM302.462 58.03V58.16C302.382 60.42 302.282 61.22 302.102 61.43C302.032 61.51 301.942 61.54 301.782 61.53C301.622 61.53 301.202 61.53 300.742 61.49C300.852 61.67 300.922 61.96 300.932 62.17C301.402 62.19 301.872 62.2 302.112 62.18C302.382 62.15 302.552 62.08 302.712 61.89C302.962 61.6 303.062 60.71 303.162 58.35C303.172 58.25 303.172 58.03 303.172 58.03H302.462ZM299.392 63.36V65.78C299.392 66.52 299.562 66.73 300.322 66.73C300.482 66.73 301.272 66.73 301.432 66.73C302.062 66.73 302.252 66.42 302.332 65.2C302.132 65.14 301.832 65.04 301.692 64.92C301.662 65.92 301.622 66.06 301.352 66.06C301.192 66.06 300.542 66.06 300.412 66.06C300.132 66.06 300.092 66.02 300.092 65.77V63.36H299.392ZM298.442 63.7C298.342 64.53 298.122 65.41 297.642 65.9L298.202 66.27C298.732 65.71 298.942 64.74 299.052 63.85L298.442 63.7ZM299.562 62.44C300.212 62.82 300.972 63.4 301.332 63.82L301.802 63.31C301.432 62.89 300.662 62.35 300.002 62L299.562 62.44ZM301.892 63.77C302.412 64.5 302.852 65.51 302.982 66.19L303.652 65.91C303.502 65.23 303.052 64.25 302.512 63.52L301.892 63.77ZM298.352 58.03V58.68H302.772V58.03H298.352ZM294.732 60.63V61.23H297.572V60.63H294.732ZM294.772 57.96V58.56H297.532V57.96H294.772ZM294.732 61.97V62.57H297.572V61.97H294.732ZM294.282 59.27V59.89H297.852V59.27H294.282ZM295.062 63.32V63.94H296.922V65.61H295.062V66.24H297.572V63.32H295.062ZM294.722 63.32V66.7H295.362V63.32H294.722ZM59 71.14C58.41 71.14 57.93 71.62 57.93 72.2C57.93 72.79 58.41 73.27 59 73.27C59.58 73.27 60.06 72.79 60.06 72.2C60.06 71.62 59.58 71.14 59 71.14ZM64.36 72.92L64.56 73.65C65.34 73.36 66.34 72.97 67.29 72.6L67.17 71.93C66.13 72.31 65.07 72.7 64.36 72.92ZM64.46 69.62V70.32H67.23V69.62H64.46ZM65.58 67.61V75.93C65.58 76.04 65.55 76.08 65.44 76.08C65.35 76.08 65.06 76.08 64.72 76.07C64.81 76.27 64.9 76.57 64.93 76.75C65.45 76.75 65.77 76.73 65.99 76.61C66.21 76.5 66.29 76.3 66.29 75.92V67.61H65.58ZM69.26 68.58H71.57V69.63H69.26V68.58ZM68.6 68.02V70.2H72.26V68.02H68.6ZM68.19 71.2H69.51V72.34H68.19V71.2ZM67.6 70.65V72.9H70.12V70.65H67.6ZM71.3 71.2H72.66V72.34H71.3V71.2ZM70.69 70.65V72.9H73.29V70.65H70.69ZM67.42 73.66V74.3H73.51V73.66H67.42ZM70.05 72.91V76.82H70.77V72.91H70.05ZM69.89 73.93C69.24 74.82 67.97 75.62 66.76 76C66.92 76.13 67.13 76.4 67.24 76.58C68.47 76.13 69.78 75.21 70.48 74.17L69.89 73.93ZM70.99 74.01L70.44 74.23C71.06 75.15 72.17 76.06 73.18 76.49C73.29 76.31 73.51 76.05 73.67 75.92C72.66 75.57 71.55 74.8 70.99 74.01ZM78.87 69.28L78.52 70H83.61V69.28H78.87ZM80.12 71.45V72.14H83.38V71.45H80.12ZM80.11 73.65V74.36H83.52V73.65H80.11ZM79.74 69.51V76.8H80.51V69.51H79.74ZM79.25 67.72C78.76 69.19 77.95 70.65 77.04 71.58C77.21 71.7 77.51 71.97 77.62 72.1C78.54 71.07 79.41 69.5 79.98 67.91L79.25 67.72ZM76.85 67.64C76.28 69.16 75.35 70.66 74.35 71.63C74.49 71.81 74.72 72.21 74.79 72.39C75.88 71.27 76.91 69.56 77.57 67.87L76.85 67.64ZM75.78 70.22V76.79H76.54V69.48L76.52 69.47L75.78 70.22ZM87.55 72.05V72.67H90.29V72.05H87.55ZM87.55 73.79V74.41H90.32V73.79H87.55ZM85.49 75.58V76.28H92.55V75.58H85.49ZM85.03 70.24V76.81H85.76V70.94H92.2V76.81H92.96V70.24H85.03ZM87.2 70.68V75.9H87.88V70.68H87.2ZM90 70.68V75.87H90.69V70.68H90ZM88.5 68.6C88.43 69.18 88.23 70.01 88.07 70.55L88.75 70.74C88.95 70.24 89.16 69.47 89.37 68.8L88.5 68.6ZM84.58 68.27V68.99H93.44V68.27H84.58ZM94.78 69.42L94.87 70.3C95.95 70.07 98.5 69.82 99.57 69.71C98.66 70.25 97.71 71.53 97.71 73.08C97.71 75.32 99.81 76.3 101.66 76.37L101.95 75.55C100.33 75.49 98.5 74.86 98.5 72.91C98.5 71.73 99.37 70.2 100.8 69.74C101.31 69.6 102.18 69.58 102.76 69.59L102.75 68.79C102.08 68.81 101.15 68.87 100.05 68.96C98.21 69.12 96.32 69.3 95.68 69.37C95.48 69.39 95.16 69.41 94.78 69.42ZM101.31 70.81L100.81 71.03C101.11 71.45 101.39 71.96 101.62 72.44L102.14 72.21C101.92 71.76 101.54 71.14 101.31 70.81ZM102.4 70.39L101.91 70.62C102.22 71.04 102.52 71.54 102.76 72.02L103.27 71.77C103.04 71.33 102.65 70.72 102.4 70.39ZM109.63 69.18L108.8 69.16C108.7 70.2 108.49 71.33 108.2 72.28C107.69 73.97 107.15 74.65 106.68 74.65C106.23 74.65 105.66 74.09 105.66 72.83C105.66 71.36 107.03 69.55 109.23 69.55C111.15 69.55 112.26 70.87 112.26 72.47C112.26 74.2 111 75.16 109.72 75.45C109.48 75.5 109.18 75.54 108.86 75.57L109.32 76.31C111.7 76 113.08 74.6 113.08 72.51C113.08 70.48 111.59 68.83 109.25 68.83C106.8 68.83 104.87 70.72 104.87 72.89C104.87 74.55 105.76 75.57 106.66 75.57C107.58 75.57 108.38 74.51 108.99 72.46C109.3 71.39 109.5 70.22 109.63 69.18ZM117.41 72.46V73.09H120.13V74.76H117.41V75.39H120.83V72.46H117.41ZM117.08 72.46V75.99H117.78V72.46H117.08ZM115.27 69.48V70.04H118.05V69.48H115.27ZM119.88 69.48V70.04H122.71V69.48H119.88ZM122.38 68.03V75.79C122.38 75.98 122.32 76.04 122.13 76.04C121.94 76.05 121.28 76.06 120.62 76.03C120.73 76.24 120.86 76.59 120.89 76.8C121.77 76.8 122.35 76.79 122.69 76.67C123.01 76.54 123.13 76.3 123.13 75.8V68.03H122.38ZM115.33 68.03V68.64H117.82V70.95H115.33V71.56H118.53V68.03H115.33ZM122.77 68.03H119.43V71.56H122.77V70.96H120.15V68.63H122.77V68.03ZM114.91 68.03V76.81H115.65V68.03H114.91ZM125.72 69.85H127.67V70.61H125.72V69.85ZM125.72 68.57H127.67V69.32H125.72V68.57ZM125.05 68.03V71.17H128.37V68.03H125.05ZM124.45 71.91V72.49H128.96V71.91H124.45ZM128.9 68.1V68.66H133.46V68.1H128.9ZM126.45 72.09V75.5L127.09 75.9V72.09H126.45ZM126.79 73.57V74.14H128.79V73.57H126.79ZM130.88 68.24C130.79 68.67 130.62 69.29 130.46 69.7L131.02 69.83C131.2 69.46 131.4 68.89 131.59 68.38L130.88 68.24ZM129.97 71.27H132.36V72.02H129.97V71.27ZM129.97 72.54H132.36V73.31H129.97V72.54ZM129.97 69.99H132.36V70.73H129.97V69.99ZM129.29 69.44V73.86H133.06V69.44H129.29ZM130.12 74.04C129.74 74.5 129.09 74.95 128.47 75.24C128.61 75.35 128.86 75.59 128.97 75.7C129.59 75.36 130.32 74.79 130.76 74.23L130.12 74.04ZM125.15 73.04C125.1 74.27 124.94 75.62 124.33 76.35C124.49 76.46 124.71 76.68 124.81 76.83C125.52 75.98 125.72 74.48 125.78 73.04H125.15ZM125.62 74.02L125.15 74.19C125.98 76.26 127.59 76.59 130.14 76.59H133.39C133.43 76.39 133.55 76.1 133.66 75.94C133.07 75.96 130.59 75.96 130.14 75.96C127.89 75.96 126.33 75.74 125.62 74.02ZM131.52 74.31C132.06 74.68 132.73 75.26 133.05 75.66L133.6 75.31C133.27 74.93 132.61 74.37 132.03 74.02L131.52 74.31ZM134.96 69.7L135.02 70.45C135.39 70.46 135.82 70.47 136.19 70.47C137.41 70.48 138.72 70.26 139.7 69.99L139.68 69.25C138.53 69.63 137.27 69.76 136.19 69.76C135.76 69.76 135.33 69.74 134.96 69.7ZM138.51 68.07L137.63 67.98C137.6 68.68 137.38 69.56 137.16 70.19C136.75 71.37 135.82 73.15 134.93 74.19L135.7 74.59C136.53 73.47 137.45 71.65 137.93 70.21C138.17 69.5 138.38 68.56 138.51 68.07ZM140.87 71.16H140.08C140.12 72.26 140.23 74.05 140.23 74.81C140.23 75.35 139.95 75.79 139.12 75.79C138.34 75.79 137.95 75.47 137.95 75.01C137.95 74.55 138.45 74.21 139.19 74.21C140.66 74.21 141.81 75.1 142.58 75.8L143 75.12C142.18 74.41 140.89 73.57 139.21 73.57C138.09 73.57 137.22 74.15 137.22 75.07C137.22 76.07 138.11 76.51 139.21 76.51C140.45 76.51 140.96 75.86 140.96 75.06C140.96 74.4 140.87 72.88 140.85 72.23C140.84 71.87 140.84 71.57 140.87 71.16ZM142.87 71.42L143.32 70.76C142.84 70.4 141.71 69.75 140.98 69.44L140.58 70.04C141.24 70.35 142.33 70.96 142.87 71.42ZM151.6 70.3L151.2 69.57C150.99 69.75 150.77 69.88 150.48 70.05C149.83 70.41 148.66 70.96 147.64 71.64C146.47 72.42 145.74 73.27 145.74 74.35C145.74 75.85 147.1 76.41 148.98 76.41C150.23 76.41 151.39 76.3 152.14 76.17L152.15 75.27C151.37 75.47 150.03 75.61 148.94 75.61C147.36 75.61 146.57 75.09 146.57 74.26C146.57 73.51 147.13 72.85 148.06 72.24C149.04 71.59 150.15 71.07 150.83 70.72C151.12 70.57 151.37 70.44 151.6 70.3ZM146.81 68.35L146.02 68.69C146.56 69.93 147.16 71.28 147.66 72.1L148.35 71.68C147.88 70.88 147.27 69.63 146.81 68.35ZM151.77 68.25L151.23 68.48C151.51 68.86 151.84 69.47 152.04 69.88L152.58 69.63C152.38 69.22 152.02 68.62 151.77 68.25ZM152.87 67.85L152.34 68.08C152.63 68.45 152.95 69.03 153.17 69.46L153.71 69.22C153.52 68.85 153.13 68.22 152.87 67.85ZM159.63 69.18L158.8 69.16C158.7 70.2 158.49 71.33 158.2 72.28C157.69 73.97 157.15 74.65 156.68 74.65C156.23 74.65 155.66 74.09 155.66 72.83C155.66 71.36 157.03 69.55 159.23 69.55C161.15 69.55 162.26 70.87 162.26 72.47C162.26 74.2 161 75.16 159.72 75.45C159.48 75.5 159.18 75.54 158.86 75.57L159.32 76.31C161.7 76 163.08 74.6 163.08 72.51C163.08 70.48 161.59 68.83 159.25 68.83C156.8 68.83 154.87 70.72 154.87 72.89C154.87 74.55 155.76 75.57 156.66 75.57C157.58 75.57 158.38 74.51 158.99 72.46C159.3 71.39 159.5 70.22 159.63 69.18ZM169.21 72.44V73.02H173.12V72.44H169.21ZM169.21 74.08V74.67H173.12V74.08H169.21ZM169.22 75.73V76.37H173.59V75.73H169.22ZM168.08 68.63V70.34H168.73V69.28H172.87V70.34H173.54V68.63H168.08ZM170.84 71.25V76.07H171.54V71.25H170.84ZM169.48 70.77H169.42L168.77 71.45V76.8H169.48V71.42H173.29V70.77H169.48ZM170.42 67.6C169.93 69.44 169.01 70.99 167.69 71.95C167.85 72.08 168.12 72.36 168.23 72.5C169.58 71.43 170.57 69.77 171.14 67.74L170.42 67.6ZM171.46 69.58C171.34 70.02 171.08 70.65 170.87 71.05L171.45 71.22C171.66 70.84 171.93 70.28 172.17 69.76L171.46 69.58ZM164.52 68.28V68.97H168.05V68.28H164.52ZM165.53 71.2V71.87H167.13V74.92H165.53V75.58H167.79V71.2H165.53ZM165.7 68.61C165.46 70.49 165.03 72.26 164.23 73.39C164.37 73.56 164.58 73.93 164.66 74.1C165.59 72.79 166.11 70.82 166.42 68.72L165.7 68.61ZM165.22 71.2V76.36H165.85V71.2H165.22ZM180.2 68.3C180.03 69.67 179.62 71.13 177.99 71.88C178.15 72 178.36 72.25 178.44 72.41C180.19 71.54 180.68 69.92 180.89 68.3H180.2ZM178.36 69.73C179.4 70.08 180.65 70.74 181.32 71.23L181.68 70.64C181.02 70.18 179.77 69.56 178.73 69.21L178.36 69.73ZM182.56 68.03V68.16C182.48 70.42 182.38 71.22 182.2 71.43C182.13 71.51 182.04 71.54 181.88 71.53C181.72 71.53 181.3 71.53 180.84 71.49C180.95 71.67 181.02 71.96 181.03 72.17C181.5 72.19 181.97 72.2 182.21 72.18C182.48 72.15 182.65 72.08 182.81 71.89C183.06 71.6 183.16 70.71 183.26 68.35C183.27 68.25 183.27 68.03 183.27 68.03H182.56ZM179.49 73.36V75.78C179.49 76.52 179.66 76.73 180.42 76.73C180.58 76.73 181.37 76.73 181.53 76.73C182.16 76.73 182.35 76.42 182.43 75.2C182.23 75.14 181.93 75.04 181.79 74.92C181.76 75.92 181.72 76.06 181.45 76.06C181.29 76.06 180.64 76.06 180.51 76.06C180.23 76.06 180.19 76.02 180.19 75.77V73.36H179.49ZM178.54 73.7C178.44 74.53 178.22 75.41 177.74 75.9L178.3 76.27C178.83 75.71 179.04 74.74 179.15 73.85L178.54 73.7ZM179.66 72.44C180.31 72.82 181.07 73.4 181.43 73.82L181.9 73.31C181.53 72.89 180.76 72.35 180.1 72L179.66 72.44ZM181.99 73.77C182.51 74.5 182.95 75.51 183.08 76.19L183.75 75.91C183.6 75.23 183.15 74.25 182.61 73.52L181.99 73.77ZM178.45 68.03V68.68H182.87V68.03H178.45ZM174.83 70.63V71.23H177.67V70.63H174.83ZM174.87 67.96V68.56H177.63V67.96H174.87ZM174.83 71.97V72.57H177.67V71.97H174.83ZM174.38 69.27V69.89H177.95V69.27H174.38ZM175.16 73.32V73.94H177.02V75.61H175.16V76.24H177.67V73.32H175.16ZM174.82 73.32V76.7H175.46V73.32H174.82Z" fill="black"/>
<path d="M20.18 24.18V25.6H31.76V24.18H20.18ZM20.18 28.92V30.34H31.76V28.92H20.18ZM20.18 33.68V35.14H31.76V33.68H20.18ZM19.14 19.44V36.5H20.64V20.92H31.16V36.5H32.72V19.44H19.14ZM38.62 21.42V22.76H43.3V33.14H38.62V34.5H44.7V21.42H38.62ZM37.72 21.42V36.1H39.12V21.42H37.72ZM38.52 26.98V28.32H44.04V26.98H38.52ZM40.78 18.16C40.62 19.2 40.24 20.72 39.9 21.68L41.1 21.98C41.5 21.08 42 19.7 42.4 18.46L40.78 18.16ZM47.54 21.36V22.76H53.68V21.36H47.54ZM53.16 21.36V21.68C52.88 30.5 52.56 33.82 51.9 34.54C51.68 34.8 51.44 34.86 51.04 34.86C50.58 34.86 49.38 34.84 48.08 34.74C48.36 35.14 48.54 35.76 48.58 36.2C49.7 36.26 50.88 36.3 51.56 36.22C52.26 36.16 52.72 35.98 53.16 35.4C53.96 34.42 54.24 31.32 54.56 22.14C54.56 21.92 54.56 21.36 54.56 21.36H53.16ZM47.96 18.12C47.32 20.9 46.22 23.66 44.86 25.42C45.22 25.62 45.84 26.04 46.1 26.28C47.48 24.38 48.66 21.44 49.4 18.46L47.96 18.12ZM47.04 26.56C48.14 28.02 49.48 30 50.08 31.22L51.36 30.42C50.72 29.24 49.34 27.3 48.2 25.88L47.04 26.56Z" fill="black"/>
<path d="M134.816 118V119.136H139.936V118H134.816ZM137.088 114.56V129.264H138.192V114.56H137.088ZM137.056 118.704C136.608 120.992 135.536 123.776 134.48 125.216C134.672 125.488 134.96 125.936 135.104 126.256C136.24 124.656 137.312 121.504 137.808 118.96L137.056 118.704ZM138.112 120.24L137.6 120.752C138.016 121.376 139.12 123.264 139.488 124.048L140.16 123.104C139.856 122.64 138.496 120.672 138.112 120.24ZM141.52 118.352V119.376H147.616V118.352H141.52ZM144.528 115.648C145.552 117.072 147.376 118.56 149.008 119.408C149.168 119.088 149.424 118.64 149.648 118.368C147.968 117.632 146.176 116.192 145.04 114.592H143.936C143.072 116.048 141.36 117.616 139.568 118.464C139.776 118.72 140.048 119.152 140.176 119.456C141.92 118.512 143.616 117.008 144.528 115.648ZM141.536 121.808H147.552V124H141.536V121.808ZM140.48 120.848V124.992H148.656V120.848H140.48ZM143.952 118.96V123.168C143.952 125.168 143.44 127.168 139.376 128.464C139.584 128.656 139.936 129.104 140.032 129.36C144.32 127.952 145.056 125.504 145.056 123.2V118.96H143.952ZM145.216 124.368L144.192 124.592C145.168 127.376 146.624 128.512 148.848 129.36C148.976 129.008 149.28 128.608 149.552 128.352C147.504 127.664 146.144 126.768 145.216 124.368ZM156.96 115.536V116.688H165.152V115.536H156.96ZM156.432 127.6V128.736H165.408V127.6H156.432ZM161.36 121.104V122.256H165.056V121.104H161.36ZM160.688 115.984V128.24H161.872V115.984H160.688ZM157.632 119.552V128.112H158.768V119.552H157.632ZM151.36 119.504V120.448H155.872V119.504H151.36ZM151.456 115.136V116.096H155.856V115.136H151.456ZM151.36 121.68V122.64H155.872V121.68H151.36ZM150.608 117.28V118.272H156.432V117.28H150.608ZM151.936 123.872V124.88H154.88V127.552H151.936V128.544H155.936V123.872H151.936ZM151.344 123.872V129.28H152.384V123.872H151.344ZM172.64 120.672L171.76 121.568C173.744 122.8 176.48 124.768 177.952 126.112L178.896 124.992C177.312 123.712 174.688 121.872 172.64 120.672ZM179.952 117.76L178.896 117.12C178.64 117.216 178.288 117.264 177.856 117.264H172.768L172.256 118.416H178.176C177.808 119.904 176.8 121.936 175.568 123.408C174.128 125.12 171.952 126.816 168.976 127.712L170.112 128.72C173.152 127.6 175.232 125.888 176.688 124.096C178.096 122.368 179.104 120.24 179.584 118.608C179.664 118.352 179.824 117.984 179.952 117.76ZM174.56 115.44L173.104 114.976C173.008 115.392 172.752 115.968 172.592 116.24C171.856 117.712 170.208 120.112 167.472 121.824L168.528 122.64C171.088 120.88 172.896 118.464 173.84 116.704C174 116.4 174.288 115.856 174.56 115.44ZM194.784 117.312L193.984 116.688C193.728 116.768 193.296 116.816 192.784 116.816C192.176 116.816 187.232 116.816 186.608 116.816C186.112 116.816 185.2 116.752 184.992 116.72V118.16C185.168 118.144 186.032 118.08 186.608 118.08C187.152 118.08 192.272 118.08 192.848 118.08C192.432 119.408 191.264 121.312 190.176 122.544C188.528 124.368 186.176 126.288 183.584 127.28L184.608 128.352C187.136 127.2 189.424 125.296 191.216 123.296C192.544 121.824 193.76 119.584 194.4 118C194.48 117.792 194.688 117.44 194.784 117.312ZM191.424 122.464L190.512 123.36C192.24 124.88 194.112 126.928 195.264 128.448L196.368 127.472C195.28 126.144 193.152 123.904 191.424 122.464ZM211.936 118L210.88 117.36C210.624 117.456 210.256 117.504 209.824 117.504C209.328 117.504 205.376 117.504 204.736 117.504L204.224 118.656H210.144C209.824 120.112 208.832 122.192 207.6 123.648C206.128 125.36 204.144 126.8 201.2 127.664L202.368 128.72C205.36 127.6 207.28 126.144 208.736 124.368C210.16 122.624 211.136 120.464 211.568 118.848C211.648 118.592 211.808 118.224 211.936 118ZM206.576 115.584L205.104 115.088C205.008 115.504 204.768 116.08 204.608 116.368C203.904 117.792 202.336 120.128 199.568 121.776L200.688 122.592C203.264 120.896 204.928 118.608 205.872 116.832C206.032 116.544 206.32 116 206.576 115.584ZM221.216 121.056C222.848 122.528 224.896 124.576 225.856 125.84L226.848 125.072C225.824 123.824 223.744 121.824 222.112 120.416L221.216 121.056ZM221.392 114.56V117.696C221.392 119.904 221.184 122.992 217.184 125.152C217.456 125.36 217.872 125.792 218.032 126.048C222.16 123.632 222.624 120.256 222.624 117.696V114.56H221.392ZM215.568 117.296V129.312H216.768V118.48H227.808V117.296H215.568ZM227.264 117.296V127.696C227.264 127.968 227.168 128.064 226.864 128.08C226.544 128.096 225.456 128.096 224.32 128.048C224.48 128.384 224.672 128.944 224.72 129.28C226.16 129.28 227.152 129.264 227.712 129.072C228.256 128.864 228.448 128.48 228.448 127.696V117.296H227.264ZM235.296 117.904C234.384 119.072 232.88 120.192 231.44 120.912C231.696 121.136 232.128 121.616 232.304 121.856C233.76 121.008 235.392 119.68 236.448 118.272L235.296 117.904ZM239.376 118.576C240.864 119.504 242.656 120.864 243.52 121.792L244.416 120.976C243.504 120.064 241.664 118.736 240.192 117.888L239.376 118.576ZM238.016 120.784C239.504 122.592 242.32 124.592 244.704 125.712C244.896 125.376 245.184 124.928 245.456 124.64C242.992 123.632 240.256 121.728 238.544 119.68H237.344C236.08 121.504 233.424 123.632 230.72 124.864C230.96 125.12 231.264 125.568 231.408 125.856C234.08 124.56 236.704 122.512 238.016 120.784ZM233.584 123.92V129.296H234.752V124.992H241.232V129.232H242.448V123.92H233.584ZM234.144 127.68V128.752H241.872V127.68H234.144ZM237.344 114.56V116.656H238.576V114.56H237.344ZM231.312 116.048V118.96H232.496V117.136H243.456V118.96H244.672V116.048H231.312Z" fill="black"/>
<rect x="134" y="139" width="210" height="84" rx="9" fill="white"/>
<path d="M155 157.14C154.41 157.14 153.93 157.62 153.93 158.2C153.93 158.79 154.41 159.27 155 159.27C155.58 159.27 156.06 158.79 156.06 158.2C156.06 157.62 155.58 157.14 155 157.14ZM165.61 157.03V157.7H169.38V157.03H165.61ZM163.26 161.75V162.42H168.3V161.75H163.26ZM165.25 155.84V159.5H166.01V155.84H165.25ZM162.86 159.14V162.82H163.59V159.82H167.94V162.8H168.71V159.14H162.86ZM164.9 153.61V155.31H165.67V153.61H164.9ZM161.57 154.9V155.62H169.52V154.9H161.57ZM161.2 154.9V157.49C161.2 158.93 161.13 160.95 160.31 162.39C160.49 162.47 160.82 162.68 160.95 162.81C161.81 161.29 161.95 159.03 161.95 157.49V154.9H161.2ZM174.52 155V155.66H179.55V155H174.52ZM175.13 158.26V158.89H179.06V158.26H175.13ZM175.13 159.92V160.55H179.06V159.92H175.13ZM176.7 153.6V162.73H177.38V153.6H176.7ZM178.69 156.61V162.01C178.69 162.12 178.65 162.15 178.56 162.15C178.46 162.16 178.15 162.16 177.81 162.15C177.9 162.33 178 162.61 178.02 162.79C178.54 162.79 178.86 162.78 179.08 162.66C179.3 162.56 179.36 162.36 179.36 162.03V156.61H178.69ZM174.8 156.61V162.78H175.47V157.26H179.04V156.61H174.8ZM177.69 153.99C178.15 154.24 178.72 154.62 179 154.91L179.44 154.49C179.16 154.22 178.58 153.85 178.1 153.63L177.69 153.99ZM170.89 159.48V162.73H171.56V160.11H173.55V162.54H174.24V159.48H170.89ZM172.19 155.56V158.42H172.89V155.56H172.19ZM170.94 156.54V157.14H174.2V156.54H170.94ZM170.56 158.17V158.8H174.47V158.17H170.56ZM171.16 161.57V162.2H173.93V161.57H171.16ZM172.08 153.61C171.73 154.38 171.09 155.38 170.22 156.13C170.37 156.23 170.61 156.46 170.72 156.62C171.67 155.75 172.32 154.72 172.72 153.98V153.77H172.49V153.61H172.08ZM172.23 153.61V154.12H172.37C172.97 154.64 173.67 155.5 174.02 156.02L174.49 155.44C174.14 154.93 173.39 154.15 172.78 153.61H172.23ZM180.51 155.75V156.46H183.71V155.75H180.51ZM181.93 153.6V162.79H182.62V153.6H181.93ZM181.91 156.19C181.63 157.62 180.96 159.36 180.3 160.26C180.42 160.43 180.6 160.71 180.69 160.91C181.4 159.91 182.07 157.94 182.38 156.35L181.91 156.19ZM182.57 157.15L182.25 157.47C182.51 157.86 183.2 159.04 183.43 159.53L183.85 158.94C183.66 158.65 182.81 157.42 182.57 157.15ZM184.7 155.97V156.61H188.51V155.97H184.7ZM186.58 154.28C187.22 155.17 188.36 156.1 189.38 156.63C189.48 156.43 189.64 156.15 189.78 155.98C188.73 155.52 187.61 154.62 186.9 153.62H186.21C185.67 154.53 184.6 155.51 183.48 156.04C183.61 156.2 183.78 156.47 183.86 156.66C184.95 156.07 186.01 155.13 186.58 154.28ZM184.71 158.13H188.47V159.5H184.71V158.13ZM184.05 157.53V160.12H189.16V157.53H184.05ZM186.22 156.35V158.98C186.22 160.23 185.9 161.48 183.36 162.29C183.49 162.41 183.71 162.69 183.77 162.85C186.45 161.97 186.91 160.44 186.91 159V156.35H186.22ZM187.01 159.73L186.37 159.87C186.98 161.61 187.89 162.32 189.28 162.85C189.36 162.63 189.55 162.38 189.72 162.22C188.44 161.79 187.59 161.23 187.01 159.73ZM194.6 160.05V162.82H195.35V160.05H194.6ZM194.6 153.6V156.4H195.34V153.6H194.6ZM194.23 156.58C193.82 157.06 193.07 157.72 192.51 158.13L193.06 158.44C193.64 158.04 194.35 157.46 194.93 156.92L194.23 156.58ZM196.39 157.23C195.45 158.08 193.87 159.21 192.65 159.9L193.18 160.26C194.4 159.58 195.94 158.52 197.07 157.6L196.39 157.23ZM191.74 158.1C192.51 158.49 193.45 159.09 193.91 159.51L194.43 159.03C193.94 158.61 192.99 158.04 192.24 157.67L191.74 158.1ZM196.28 158.89C197.17 159.42 198.27 160.24 198.8 160.77L199.33 160.31C198.77 159.78 197.66 159.01 196.78 158.49L196.28 158.89ZM196.31 161.03C197.19 161.48 198.27 162.18 198.79 162.67L199.41 162.22C198.84 161.73 197.74 161.06 196.88 160.64L196.31 161.03ZM190.65 159.74L190.69 160.43C192.59 160.41 195.54 160.32 198.31 160.24L198.35 159.64C195.5 159.7 192.48 159.74 190.65 159.74ZM192.89 160.63C192.29 161.22 191.33 161.8 190.44 162.17C190.62 162.3 190.9 162.56 191.03 162.7C191.9 162.27 192.93 161.58 193.6 160.89L192.89 160.63ZM190.76 154.49V155.15H199.21V154.49H190.76ZM190.73 156.11V157.99H191.44V156.76H198.56V157.99H199.3V156.11H190.73ZM155 172.14C154.41 172.14 153.93 172.62 153.93 173.2C153.93 173.79 154.41 174.27 155 174.27C155.58 174.27 156.06 173.79 156.06 173.2C156.06 172.62 155.58 172.14 155 172.14ZM165.61 172.03V172.7H169.38V172.03H165.61ZM163.26 176.75V177.42H168.3V176.75H163.26ZM165.25 170.84V174.5H166.01V170.84H165.25ZM162.86 174.14V177.82H163.59V174.82H167.94V177.8H168.71V174.14H162.86ZM164.9 168.61V170.31H165.67V168.61H164.9ZM161.57 169.9V170.62H169.52V169.9H161.57ZM161.2 169.9V172.49C161.2 173.93 161.13 175.95 160.31 177.39C160.49 177.47 160.82 177.68 160.95 177.81C161.81 176.29 161.95 174.03 161.95 172.49V169.9H161.2ZM174.52 170V170.66H179.55V170H174.52ZM175.13 173.26V173.89H179.06V173.26H175.13ZM175.13 174.92V175.55H179.06V174.92H175.13ZM176.7 168.6V177.73H177.38V168.6H176.7ZM178.69 171.61V177.01C178.69 177.12 178.65 177.15 178.56 177.15C178.46 177.16 178.15 177.16 177.81 177.15C177.9 177.33 178 177.61 178.02 177.79C178.54 177.79 178.86 177.78 179.08 177.66C179.3 177.56 179.36 177.36 179.36 177.03V171.61H178.69ZM174.8 171.61V177.78H175.47V172.26H179.04V171.61H174.8ZM177.69 168.99C178.15 169.24 178.72 169.62 179 169.91L179.44 169.49C179.16 169.22 178.58 168.85 178.1 168.63L177.69 168.99ZM170.89 174.48V177.73H171.56V175.11H173.55V177.54H174.24V174.48H170.89ZM172.19 170.56V173.42H172.89V170.56H172.19ZM170.94 171.54V172.14H174.2V171.54H170.94ZM170.56 173.17V173.8H174.47V173.17H170.56ZM171.16 176.57V177.2H173.93V176.57H171.16ZM172.08 168.61C171.73 169.38 171.09 170.38 170.22 171.13C170.37 171.23 170.61 171.46 170.72 171.62C171.67 170.75 172.32 169.72 172.72 168.98V168.77H172.49V168.61H172.08ZM172.23 168.61V169.12H172.37C172.97 169.64 173.67 170.5 174.02 171.02L174.49 170.44C174.14 169.93 173.39 169.15 172.78 168.61H172.23ZM185.63 170.18L184.8 170.16C184.7 171.2 184.49 172.33 184.2 173.28C183.69 174.97 183.15 175.65 182.68 175.65C182.23 175.65 181.66 175.09 181.66 173.83C181.66 172.36 183.03 170.55 185.23 170.55C187.15 170.55 188.26 171.87 188.26 173.47C188.26 175.2 187 176.16 185.72 176.45C185.48 176.5 185.18 176.54 184.86 176.57L185.32 177.31C187.7 177 189.08 175.6 189.08 173.51C189.08 171.48 187.59 169.83 185.25 169.83C182.8 169.83 180.87 171.72 180.87 173.89C180.87 175.55 181.76 176.57 182.66 176.57C183.58 176.57 184.38 175.51 184.99 173.46C185.3 172.39 185.5 171.22 185.63 170.18ZM195.23 176.79L195.76 177.23C195.84 177.18 195.94 177.09 196.11 177.01C197.27 176.43 198.65 175.41 199.52 174.24L199.04 173.55C198.28 174.68 197.05 175.59 196.12 176.01C196.12 175.71 196.12 170.87 196.12 170.25C196.12 169.87 196.16 169.58 196.17 169.5H195.25C195.25 169.58 195.3 169.86 195.3 170.24C195.3 170.87 195.3 175.77 195.3 176.23C195.3 176.43 195.27 176.64 195.23 176.79ZM190.65 176.75L191.41 177.25C192.25 176.55 192.89 175.58 193.19 174.51C193.46 173.51 193.49 171.36 193.49 170.25C193.49 169.96 193.53 169.65 193.54 169.54H192.62C192.67 169.75 192.69 169.97 192.69 170.26C192.69 171.38 192.69 173.37 192.39 174.29C192.09 175.26 191.5 176.15 190.65 176.75ZM201.01 172.67V173.65C201.33 173.63 201.86 173.61 202.41 173.61C203.15 173.61 207.14 173.61 207.9 173.61C208.34 173.61 208.76 173.64 208.97 173.65V172.67C208.74 172.69 208.39 172.73 207.89 172.73C207.15 172.73 203.14 172.73 202.41 172.73C201.84 172.73 201.32 172.7 201.01 172.67ZM215.23 176.79L215.76 177.23C215.84 177.18 215.94 177.09 216.11 177.01C217.27 176.43 218.65 175.41 219.52 174.24L219.04 173.55C218.28 174.68 217.05 175.59 216.12 176.01C216.12 175.71 216.12 170.87 216.12 170.25C216.12 169.87 216.16 169.58 216.17 169.5H215.25C215.25 169.58 215.3 169.86 215.3 170.24C215.3 170.87 215.3 175.77 215.3 176.23C215.3 176.43 215.27 176.64 215.23 176.79ZM210.65 176.75L211.41 177.25C212.25 176.55 212.89 175.58 213.19 174.51C213.46 173.51 213.49 171.36 213.49 170.25C213.49 169.96 213.53 169.65 213.54 169.54H212.62C212.67 169.75 212.69 169.97 212.69 170.26C212.69 171.38 212.69 173.37 212.39 174.29C212.09 175.26 211.5 176.15 210.65 176.75ZM225.21 173.44V174.02H229.12V173.44H225.21ZM225.21 175.08V175.67H229.12V175.08H225.21ZM225.22 176.73V177.37H229.59V176.73H225.22ZM224.08 169.63V171.34H224.73V170.28H228.87V171.34H229.54V169.63H224.08ZM226.84 172.25V177.07H227.54V172.25H226.84ZM225.48 171.77H225.42L224.77 172.45V177.8H225.48V172.42H229.29V171.77H225.48ZM226.42 168.6C225.93 170.44 225.01 171.99 223.69 172.95C223.85 173.08 224.12 173.36 224.23 173.5C225.58 172.43 226.57 170.77 227.14 168.74L226.42 168.6ZM227.46 170.58C227.34 171.02 227.08 171.65 226.87 172.05L227.45 172.22C227.66 171.84 227.93 171.28 228.17 170.76L227.46 170.58ZM220.52 169.28V169.97H224.05V169.28H220.52ZM221.53 172.2V172.87H223.13V175.92H221.53V176.58H223.79V172.2H221.53ZM221.7 169.61C221.46 171.49 221.03 173.26 220.23 174.39C220.37 174.56 220.58 174.93 220.66 175.1C221.59 173.79 222.11 171.82 222.42 169.72L221.7 169.61ZM221.22 172.2V177.36H221.85V172.2H221.22ZM236.2 169.3C236.03 170.67 235.62 172.13 233.99 172.88C234.15 173 234.36 173.25 234.44 173.41C236.19 172.54 236.68 170.92 236.89 169.3H236.2ZM234.36 170.73C235.4 171.08 236.65 171.74 237.32 172.23L237.68 171.64C237.02 171.18 235.77 170.56 234.73 170.21L234.36 170.73ZM238.56 169.03V169.16C238.48 171.42 238.38 172.22 238.2 172.43C238.13 172.51 238.04 172.54 237.88 172.53C237.72 172.53 237.3 172.53 236.84 172.49C236.95 172.67 237.02 172.96 237.03 173.17C237.5 173.19 237.97 173.2 238.21 173.18C238.48 173.15 238.65 173.08 238.81 172.89C239.06 172.6 239.16 171.71 239.26 169.35C239.27 169.25 239.27 169.03 239.27 169.03H238.56ZM235.49 174.36V176.78C235.49 177.52 235.66 177.73 236.42 177.73C236.58 177.73 237.37 177.73 237.53 177.73C238.16 177.73 238.35 177.42 238.43 176.2C238.23 176.14 237.93 176.04 237.79 175.92C237.76 176.92 237.72 177.06 237.45 177.06C237.29 177.06 236.64 177.06 236.51 177.06C236.23 177.06 236.19 177.02 236.19 176.77V174.36H235.49ZM234.54 174.7C234.44 175.53 234.22 176.41 233.74 176.9L234.3 177.27C234.83 176.71 235.04 175.74 235.15 174.85L234.54 174.7ZM235.66 173.44C236.31 173.82 237.07 174.4 237.43 174.82L237.9 174.31C237.53 173.89 236.76 173.35 236.1 173L235.66 173.44ZM237.99 174.77C238.51 175.5 238.95 176.51 239.08 177.19L239.75 176.91C239.6 176.23 239.15 175.25 238.61 174.52L237.99 174.77ZM234.45 169.03V169.68H238.87V169.03H234.45ZM230.83 171.63V172.23H233.67V171.63H230.83ZM230.87 168.96V169.56H233.63V168.96H230.87ZM230.83 172.97V173.57H233.67V172.97H230.83ZM230.38 170.27V170.89H233.95V170.27H230.38ZM231.16 174.32V174.94H233.02V176.61H231.16V177.24H233.67V174.32H231.16ZM230.82 174.32V177.7H231.46V174.32H230.82ZM155 187.14C154.41 187.14 153.93 187.62 153.93 188.2C153.93 188.79 154.41 189.27 155 189.27C155.58 189.27 156.06 188.79 156.06 188.2C156.06 187.62 155.58 187.14 155 187.14ZM167.16 184.54L166.6 184.78C166.93 185.23 167.27 185.83 167.52 186.36L168.09 186.1C167.86 185.62 167.41 184.91 167.16 184.54ZM168.46 184.06L167.91 184.31C168.24 184.75 168.59 185.33 168.85 185.85L169.42 185.59C169.18 185.13 168.73 184.41 168.46 184.06ZM162.88 184.39L162.43 185.07C163.02 185.4 164.11 186.13 164.58 186.49L165.06 185.81C164.62 185.49 163.47 184.72 162.88 184.39ZM161.38 191.54L161.85 192.36C162.77 192.17 164.15 191.7 165.16 191.11C166.76 190.18 168.14 188.88 169.01 187.54L168.52 186.72C167.71 188.13 166.4 189.43 164.74 190.38C163.72 190.96 162.48 191.35 161.38 191.54ZM161.38 186.64L160.93 187.33C161.54 187.64 162.62 188.34 163.11 188.69L163.57 187.99C163.14 187.68 161.97 186.96 161.38 186.64ZM171.46 185.15C171.47 185.4 171.47 185.7 171.47 185.93C171.47 186.32 171.47 190.45 171.47 190.86C171.47 191.21 171.45 191.94 171.45 192.07H172.3C172.3 191.94 172.29 191.3 172.29 190.97C172.29 190.56 172.29 185.96 172.29 185.96H177.75C177.75 185.96 177.75 190.6 177.75 190.97C177.75 191.39 177.74 191.96 177.73 192.07H178.6C178.59 191.96 178.58 191.18 178.58 190.86C178.58 190.48 178.58 186.4 178.58 185.93C178.58 185.68 178.58 185.4 178.6 185.16C178.29 185.17 177.93 185.17 177.72 185.17C177.23 185.17 172.88 185.17 172.35 185.17C172.11 185.17 171.85 185.17 171.46 185.15ZM178.08 190.72H171.89V191.5H178.08V190.72ZM183.92 188.91V192.8H184.61V189.6H188.19V192.75H188.91V188.91H183.92ZM188.54 183.64C187.43 184.04 185.4 184.35 183.66 184.54C183.75 184.71 183.85 185 183.88 185.18C185.67 185.01 187.76 184.7 189.13 184.23L188.54 183.64ZM186.08 184.51V189.31H186.8V184.51H186.08ZM183.19 186.54V187.26H189.56V186.54H183.19ZM184.39 191.68V192.37H188.52V191.68H184.39ZM180.9 184.26C181.52 184.59 182.35 185.08 182.77 185.38L183.21 184.77C182.78 184.48 181.93 184.03 181.32 183.73L180.9 184.26ZM180.41 187.02C181.02 187.34 181.85 187.82 182.26 188.1L182.68 187.49C182.26 187.2 181.42 186.76 180.83 186.47L180.41 187.02ZM180.65 192.16L181.28 192.67C181.87 191.74 182.57 190.49 183.1 189.43L182.56 188.94C181.98 190.08 181.19 191.4 180.65 192.16ZM195.63 185.18L194.8 185.16C194.7 186.2 194.49 187.33 194.2 188.28C193.69 189.97 193.15 190.65 192.68 190.65C192.23 190.65 191.66 190.09 191.66 188.83C191.66 187.36 193.03 185.55 195.23 185.55C197.15 185.55 198.26 186.87 198.26 188.47C198.26 190.2 197 191.16 195.72 191.45C195.48 191.5 195.18 191.54 194.86 191.57L195.32 192.31C197.7 192 199.08 190.6 199.08 188.51C199.08 186.48 197.59 184.83 195.25 184.83C192.8 184.83 190.87 186.72 190.87 188.89C190.87 190.55 191.76 191.57 192.66 191.57C193.58 191.57 194.38 190.51 194.99 188.46C195.3 187.39 195.5 186.22 195.63 185.18ZM204.77 184V185.01C204.77 185.7 204.61 186.56 203.61 187.19C203.76 187.29 204.02 187.58 204.12 187.73C205.23 187 205.48 185.9 205.48 185.02V184H204.77ZM205.14 184V184.7H207.7V184H205.14ZM207.36 184V186.41C207.36 187.12 207.54 187.31 208.17 187.31C208.3 187.31 208.78 187.31 208.92 187.31C209.48 187.31 209.66 186.99 209.72 185.77C209.52 185.71 209.23 185.61 209.08 185.48C209.06 186.52 209.02 186.66 208.84 186.66C208.73 186.66 208.37 186.66 208.29 186.66C208.11 186.66 208.08 186.63 208.08 186.41V184H207.36ZM204.17 187.93V188.62H208.44V187.93H204.17ZM208.22 187.93V188.06C207.52 190.31 205.51 191.64 203.28 192.14C203.42 192.3 203.6 192.62 203.67 192.82C206.06 192.19 208.17 190.77 208.99 188.11L208.51 187.9L208.37 187.93H208.22ZM205.18 188.58L204.51 188.79C205.35 190.86 206.94 192.24 209.25 192.8C209.36 192.6 209.58 192.29 209.74 192.13C207.5 191.66 205.92 190.39 205.18 188.58ZM200.32 188.97L200.57 189.75C201.47 189.44 202.64 189.03 203.76 188.63L203.67 187.98C202.43 188.36 201.16 188.75 200.32 188.97ZM200.45 185.58V186.28H203.77V185.58H200.45ZM201.91 183.61V191.92C201.91 192.07 201.85 192.11 201.72 192.11C201.59 192.12 201.17 192.12 200.72 192.11C200.81 192.3 200.92 192.61 200.95 192.79C201.62 192.8 202.02 192.78 202.28 192.66C202.54 192.55 202.64 192.34 202.64 191.92V183.61H201.91ZM216.32 183.61V184.94H217.05V183.61H216.32ZM213.93 184.63V185.24H219.42V184.63H213.93ZM215.39 186.35H218.03V187.31H215.39V186.35ZM214.74 185.79V187.87H218.71V185.79H214.74ZM214.01 188.42V192.79H214.69V189.03H218.98V188.42H214.01ZM218.71 188.42V192.06C218.71 192.17 218.67 192.19 218.57 192.2C218.46 192.21 218.12 192.21 217.72 192.2C217.81 192.37 217.9 192.62 217.93 192.8C218.5 192.8 218.87 192.79 219.1 192.69C219.33 192.58 219.4 192.4 219.4 192.07V188.42H218.71ZM215.41 189.63V192.15H215.97V189.63H215.41ZM215.8 189.63V190.14H217.42V191.16H215.8V191.67H217.98V189.63H215.8ZM211.92 184.4V192.81H212.64V184.4H211.92ZM210.45 186.38V187.08H213.91V186.38H210.45ZM211.96 186.65C211.65 187.87 210.94 189.43 210.3 190.24C210.43 190.42 210.61 190.73 210.68 190.93C211.38 190.01 212.08 188.23 212.43 186.84L211.96 186.65ZM213.34 183.77C212.68 184.07 211.47 184.32 210.43 184.48C210.52 184.65 210.62 184.9 210.66 185.06C211.74 184.92 213.03 184.67 213.9 184.33L213.34 183.77ZM212.6 187.4L212.26 187.69C212.52 188.05 213.2 189.02 213.4 189.45L213.86 188.87C213.68 188.62 212.84 187.62 212.6 187.4ZM155 202.14C154.41 202.14 153.93 202.62 153.93 203.2C153.93 203.79 154.41 204.27 155 204.27C155.58 204.27 156.06 203.79 156.06 203.2C156.06 202.62 155.58 202.14 155 202.14ZM169.28 200.66L168.65 200.16C168.51 200.21 168.28 200.23 168.01 200.23C167.01 200.23 162.56 200.23 162.05 200.23C161.7 200.23 161.3 200.2 161.03 200.16V201.05C161.22 201.03 161.65 201 162.05 201C162.62 201 167.03 201 167.93 201C167.4 201.95 166.11 203.57 164.51 204.68L165.13 205.24C166.9 203.96 168.28 202.2 169.03 200.97C169.09 200.88 169.18 200.77 169.28 200.66ZM164.57 205.41C165.21 206.06 166.01 206.94 166.38 207.45L167.11 206.87C166.68 206.35 165.9 205.53 165.27 204.9C164.55 204.2 163.39 203.25 162.93 202.92L162.29 203.44C162.82 203.82 163.97 204.81 164.57 205.41ZM170.86 203.39L171.25 204.17C172.86 203.67 174.45 202.94 175.55 202.26C176.72 201.53 177.77 200.69 178.63 199.8L177.96 199.17C177.27 200.01 176.27 200.87 175.22 201.53C174.11 202.22 172.59 202.93 170.86 203.39ZM175.06 201.94V206.25C175.06 206.62 175.03 207.12 175 207.31H175.99C175.94 207.12 175.92 206.62 175.92 206.25V201.68L175.06 201.94ZM187.04 201C187.04 200.6 187.37 200.27 187.77 200.27C188.18 200.27 188.5 200.6 188.5 201C188.5 201.41 188.18 201.74 187.77 201.74C187.37 201.74 187.04 201.41 187.04 201ZM186.56 201C186.56 201.67 187.1 202.22 187.77 202.22C188.44 202.22 188.99 201.67 188.99 201C188.99 200.33 188.44 199.79 187.77 199.79C187.1 199.79 186.56 200.33 186.56 201ZM180.53 204.37L181.27 205.13C181.43 204.93 181.64 204.62 181.85 204.36C182.3 203.81 183.14 202.71 183.62 202.13C183.96 201.71 184.15 201.68 184.54 202.05C184.96 202.47 185.88 203.46 186.46 204.11C187.11 204.84 187.99 205.87 188.7 206.73L189.39 206C188.62 205.17 187.62 204.09 186.94 203.37C186.36 202.75 185.5 201.85 184.89 201.28C184.21 200.63 183.74 200.74 183.21 201.37C182.58 202.12 181.71 203.23 181.23 203.71C180.97 203.97 180.78 204.15 180.53 204.37ZM191.01 202.67V203.65C191.33 203.63 191.86 203.61 192.41 203.61C193.15 203.61 197.14 203.61 197.9 203.61C198.34 203.61 198.76 203.64 198.97 203.65V202.67C198.74 202.69 198.39 202.73 197.89 202.73C197.15 202.73 193.14 202.73 192.41 202.73C191.84 202.73 191.32 202.7 191.01 202.67ZM206.965 199.54L206.405 199.78C206.735 200.23 207.075 200.83 207.325 201.36L207.895 201.1C207.665 200.62 207.215 199.91 206.965 199.54ZM208.265 199.06L207.715 199.31C208.045 199.75 208.395 200.33 208.655 200.85L209.225 200.59C208.985 200.13 208.535 199.41 208.265 199.06ZM202.685 199.39L202.235 200.07C202.825 200.4 203.915 201.13 204.385 201.49L204.865 200.81C204.425 200.49 203.275 199.72 202.685 199.39ZM201.185 206.54L201.655 207.36C202.575 207.17 203.955 206.7 204.965 206.11C206.565 205.18 207.945 203.88 208.815 202.54L208.325 201.72C207.515 203.13 206.205 204.43 204.545 205.38C203.525 205.96 202.285 206.35 201.185 206.54ZM201.185 201.64L200.735 202.33C201.345 202.64 202.425 203.34 202.915 203.69L203.375 202.99C202.945 202.68 201.775 201.96 201.185 201.64ZM215.435 200.18L214.605 200.16C214.505 201.2 214.295 202.33 214.005 203.28C213.495 204.97 212.955 205.65 212.485 205.65C212.035 205.65 211.465 205.09 211.465 203.83C211.465 202.36 212.835 200.55 215.035 200.55C216.955 200.55 218.065 201.87 218.065 203.47C218.065 205.2 216.805 206.16 215.525 206.45C215.285 206.5 214.985 206.54 214.665 206.57L215.125 207.31C217.505 207 218.885 205.6 218.885 203.51C218.885 201.48 217.395 199.83 215.055 199.83C212.605 199.83 210.675 201.72 210.675 203.89C210.675 205.55 211.565 206.57 212.465 206.57C213.385 206.57 214.185 205.51 214.795 203.46C215.105 202.39 215.305 201.22 215.435 200.18ZM225.955 203.73V207.71H226.465V203.73H225.955ZM227.235 203.73V207.71H227.755V203.73H227.235ZM223.715 199.21V199.87H229.225V199.21H223.715ZM224.925 205.28V205.85H228.915V205.28H224.925ZM224.105 200.53V202.73C224.105 204.08 224.005 205.92 223.035 207.24C223.185 207.32 223.475 207.53 223.585 207.66C224.615 206.26 224.785 204.18 224.785 202.74V200.53H224.105ZM224.405 200.53V201.15H228.255V202.23H224.405V202.85H228.975V200.53H224.405ZM224.645 203.53V207.81H225.205V204.12H228.955V203.53H224.645ZM228.555 203.53V207.08C228.555 207.17 228.535 207.19 228.465 207.19C228.385 207.19 228.185 207.19 227.935 207.18C228.015 207.36 228.115 207.62 228.135 207.8C228.515 207.8 228.775 207.78 228.955 207.69C229.145 207.57 229.185 207.39 229.185 207.09V203.53H228.555ZM221.765 198.61C221.515 199.27 221.055 200.25 220.705 200.83L221.205 201.05C221.575 200.49 222.045 199.59 222.405 198.85L221.765 198.61ZM222.825 199.75C222.305 200.8 221.405 202.29 220.695 203.18L221.145 203.42C221.865 202.56 222.785 201.14 223.445 200.03L222.825 199.75ZM220.165 200.68C220.695 201.18 221.295 201.89 221.545 202.37L221.965 201.82C221.705 201.37 221.095 200.69 220.565 200.2L220.165 200.68ZM222.445 202.01C222.815 202.69 223.155 203.59 223.265 204.15L223.825 203.91C223.725 203.35 223.355 202.47 222.975 201.81L222.445 202.01ZM220.085 203.03L220.165 203.7C221.035 203.64 222.175 203.57 223.305 203.5V202.86C222.105 202.93 220.915 202.99 220.085 203.03ZM222.635 204.44C222.865 205.02 223.055 205.78 223.105 206.28L223.665 206.11C223.615 205.62 223.405 204.86 223.165 204.29L222.635 204.44ZM220.685 204.32C220.575 205.19 220.385 206.09 220.065 206.7C220.215 206.76 220.505 206.89 220.625 206.98C220.935 206.34 221.175 205.37 221.305 204.43L220.685 204.32ZM221.695 203.32V207.8H222.345V203.32H221.695ZM230.335 204.72V205.35H239.275V204.72H230.335ZM232.015 201.07V201.6H238.205V201.07H232.015ZM232.015 202.27V202.81H238.235V202.27H232.015ZM231.895 199.79V200.41H238.615V199.79H231.895ZM234.595 200.14V203.73H235.325V200.14H234.595ZM234.405 203.92V207.8H235.155V203.92H234.405ZM234.245 204.95C233.335 205.85 231.575 206.69 230.085 207.07C230.255 207.22 230.475 207.5 230.585 207.7C232.055 207.24 233.835 206.29 234.825 205.25L234.245 204.95ZM235.325 204.95L234.745 205.25C235.735 206.26 237.505 207.18 238.995 207.62C239.105 207.43 239.315 207.15 239.475 207C237.975 206.63 236.225 205.83 235.325 204.95ZM235.065 198.6C234.925 199.03 234.635 199.65 234.395 200.05L235.055 200.19C235.315 199.81 235.625 199.25 235.905 198.72L235.065 198.6ZM232.455 198.59C232.005 199.5 231.185 200.67 230.065 201.55C230.235 201.65 230.485 201.88 230.615 202.05C231.805 201.05 232.645 199.83 233.235 198.73L232.455 198.59ZM231.545 200.2V204.1H239.005V203.5H232.265V200.2H231.545ZM240.765 200.7L240.825 201.45C241.195 201.46 241.625 201.47 241.995 201.47C243.215 201.48 244.525 201.26 245.505 200.99L245.485 200.25C244.335 200.63 243.075 200.76 241.995 200.76C241.565 200.76 241.135 200.74 240.765 200.7ZM244.315 199.07L243.435 198.98C243.405 199.68 243.185 200.56 242.965 201.19C242.555 202.37 241.625 204.15 240.735 205.19L241.505 205.59C242.335 204.47 243.255 202.65 243.735 201.21C243.975 200.5 244.185 199.56 244.315 199.07ZM246.675 202.16H245.885C245.925 203.26 246.035 205.05 246.035 205.81C246.035 206.35 245.755 206.79 244.925 206.79C244.145 206.79 243.755 206.47 243.755 206.01C243.755 205.55 244.255 205.21 244.995 205.21C246.465 205.21 247.615 206.1 248.385 206.8L248.805 206.12C247.985 205.41 246.695 204.57 245.015 204.57C243.895 204.57 243.025 205.15 243.025 206.07C243.025 207.07 243.915 207.51 245.015 207.51C246.255 207.51 246.765 206.86 246.765 206.06C246.765 205.4 246.675 203.88 246.655 203.23C246.645 202.87 246.645 202.57 246.675 202.16ZM248.675 202.42L249.125 201.76C248.645 201.4 247.515 200.75 246.785 200.44L246.385 201.04C247.045 201.35 248.135 201.96 248.675 202.42ZM257.405 201.3L257.005 200.57C256.795 200.75 256.575 200.88 256.285 201.05C255.635 201.41 254.465 201.96 253.445 202.64C252.275 203.42 251.545 204.27 251.545 205.35C251.545 206.85 252.905 207.41 254.785 207.41C256.035 207.41 257.195 207.3 257.945 207.17L257.955 206.27C257.175 206.47 255.835 206.61 254.745 206.61C253.165 206.61 252.375 206.09 252.375 205.26C252.375 204.51 252.935 203.85 253.865 203.24C254.845 202.59 255.955 202.07 256.635 201.72C256.925 201.57 257.175 201.44 257.405 201.3ZM252.615 199.35L251.825 199.69C252.365 200.93 252.965 202.28 253.465 203.1L254.155 202.68C253.685 201.88 253.075 200.63 252.615 199.35ZM257.575 199.25L257.035 199.48C257.315 199.86 257.645 200.47 257.845 200.88L258.385 200.63C258.185 200.22 257.825 199.62 257.575 199.25ZM258.675 198.85L258.145 199.08C258.435 199.45 258.755 200.03 258.975 200.46L259.515 200.22C259.325 199.85 258.935 199.22 258.675 198.85ZM260.569 200.7L260.629 201.45C260.999 201.46 261.429 201.47 261.799 201.47C263.019 201.48 264.329 201.26 265.309 200.99L265.289 200.25C264.139 200.63 262.879 200.76 261.799 200.76C261.369 200.76 260.939 200.74 260.569 200.7ZM264.119 199.07L263.239 198.98C263.209 199.68 262.989 200.56 262.769 201.19C262.359 202.37 261.429 204.15 260.539 205.19L261.309 205.59C262.139 204.47 263.059 202.65 263.539 201.21C263.779 200.5 263.989 199.56 264.119 199.07ZM266.479 202.16H265.689C265.729 203.26 265.839 205.05 265.839 205.81C265.839 206.35 265.559 206.79 264.729 206.79C263.949 206.79 263.559 206.47 263.559 206.01C263.559 205.55 264.059 205.21 264.799 205.21C266.269 205.21 267.419 206.1 268.189 206.8L268.609 206.12C267.789 205.41 266.499 204.57 264.819 204.57C263.699 204.57 262.829 205.15 262.829 206.07C262.829 207.07 263.719 207.51 264.819 207.51C266.059 207.51 266.569 206.86 266.569 206.06C266.569 205.4 266.479 203.88 266.459 203.23C266.449 202.87 266.449 202.57 266.479 202.16ZM268.479 202.42L268.929 201.76C268.449 201.4 267.319 200.75 266.589 200.44L266.189 201.04C266.849 201.35 267.939 201.96 268.479 202.42ZM277.209 201.3L276.809 200.57C276.599 200.75 276.379 200.88 276.089 201.05C275.439 201.41 274.269 201.96 273.249 202.64C272.079 203.42 271.349 204.27 271.349 205.35C271.349 206.85 272.709 207.41 274.589 207.41C275.839 207.41 276.999 207.3 277.749 207.17L277.759 206.27C276.979 206.47 275.639 206.61 274.549 206.61C272.969 206.61 272.179 206.09 272.179 205.26C272.179 204.51 272.739 203.85 273.669 203.24C274.649 202.59 275.759 202.07 276.439 201.72C276.729 201.57 276.979 201.44 277.209 201.3ZM272.419 199.35L271.629 199.69C272.169 200.93 272.769 202.28 273.269 203.1L273.959 202.68C273.489 201.88 272.879 200.63 272.419 199.35ZM277.379 199.25L276.839 199.48C277.119 199.86 277.449 200.47 277.649 200.88L278.189 200.63C277.989 200.22 277.629 199.62 277.379 199.25ZM278.479 198.85L277.949 199.08C278.239 199.45 278.559 200.03 278.779 200.46L279.319 200.22C279.129 199.85 278.739 199.22 278.479 198.85Z" fill="black"/>
<path d="M40 121C40 116.029 44.0294 112 49 112H111C115.971 112 120 116.029 120 121V215C120 219.971 115.971 224 111 224H49C44.0294 224 40 219.971 40 215V121Z" fill="white"/>
<path d="M56.612 127.5V128.352H60.452V127.5H56.612ZM58.316 124.92V135.948H59.144V124.92H58.316ZM58.292 128.028C57.956 129.744 57.152 131.832 56.36 132.912C56.504 133.116 56.72 133.452 56.828 133.692C57.68 132.492 58.484 130.128 58.856 128.22L58.292 128.028ZM59.084 129.18L58.7 129.564C59.012 130.032 59.84 131.448 60.116 132.036L60.62 131.328C60.392 130.98 59.372 129.504 59.084 129.18ZM61.64 127.764V128.532H66.212V127.764H61.64ZM63.896 125.736C64.664 126.804 66.032 127.92 67.256 128.556C67.376 128.316 67.568 127.98 67.736 127.776C66.476 127.224 65.132 126.144 64.28 124.944H63.452C62.804 126.036 61.52 127.212 60.176 127.848C60.332 128.04 60.536 128.364 60.632 128.592C61.94 127.884 63.212 126.756 63.896 125.736ZM61.652 130.356H66.164V132H61.652V130.356ZM60.86 129.636V132.744H66.992V129.636H60.86ZM63.464 128.22V131.376C63.464 132.876 63.08 134.376 60.032 135.348C60.188 135.492 60.452 135.828 60.524 136.02C63.74 134.964 64.292 133.128 64.292 131.4V128.22H63.464ZM64.412 132.276L63.644 132.444C64.376 134.532 65.468 135.384 67.136 136.02C67.232 135.756 67.46 135.456 67.664 135.264C66.128 134.748 65.108 134.076 64.412 132.276ZM73.22 125.652V126.516H79.364V125.652H73.22ZM72.824 134.7V135.552H79.556V134.7H72.824ZM76.52 129.828V130.692H79.292V129.828H76.52ZM76.016 125.988V135.18H76.904V125.988H76.016ZM73.724 128.664V135.084H74.576V128.664H73.724ZM69.02 128.628V129.336H72.404V128.628H69.02ZM69.092 125.352V126.072H72.392V125.352H69.092ZM69.02 130.26V130.98H72.404V130.26H69.02ZM68.456 126.96V127.704H72.824V126.96H68.456ZM69.452 131.904V132.66H71.66V134.664H69.452V135.408H72.452V131.904H69.452ZM69.008 131.904V135.96H69.788V131.904H69.008ZM85.376 125.292C85.292 126.888 85.292 132.66 80.396 135.156C80.672 135.36 80.972 135.636 81.128 135.864C86.096 133.164 86.276 127.176 86.372 125.292H85.376ZM86.336 125.532L85.472 125.616C85.556 126.72 85.892 133.428 90.98 135.864C91.124 135.612 91.4 135.312 91.664 135.108C86.72 132.84 86.372 126.468 86.336 125.532ZM92.468 131.328V132.084H98.36V131.328H92.468ZM92.54 127.14V127.872H98.324V127.14H92.54ZM94.7 130.296C94.196 131.4 93.44 132.876 92.9 133.788L93.692 134.064C94.244 133.116 95 131.652 95.54 130.476L94.7 130.296ZM96.5 131.772C96.128 133.812 95 134.796 92.492 135.216C92.66 135.396 92.84 135.72 92.9 135.96C95.672 135.372 96.932 134.22 97.34 131.88L96.5 131.772ZM97.256 125.16C97.04 125.628 96.644 126.324 96.344 126.756L96.944 127.056C97.28 126.648 97.676 126.048 98.024 125.496L97.256 125.16ZM95.024 124.92V130.44H95.852V124.92H95.024ZM92.984 125.496C93.32 125.988 93.632 126.648 93.74 127.08L94.448 126.756C94.328 126.324 94.004 125.688 93.668 125.208L92.984 125.496ZM95.036 127.464C94.508 128.388 93.404 129.348 92.408 129.78C92.576 129.96 92.792 130.26 92.9 130.464C93.932 129.9 95.06 128.832 95.648 127.824L95.036 127.464ZM95.756 127.884L95.324 128.268C95.828 128.604 97.076 129.54 97.508 129.948L98 129.288C97.652 129.036 96.188 128.112 95.756 127.884ZM99.236 127.14V127.98H103.508V127.14H99.236ZM99.536 124.92C99.2 127.044 98.576 129.072 97.556 130.344C97.772 130.488 98.144 130.788 98.288 130.956C99.344 129.552 100.052 127.404 100.448 125.052L99.536 124.92ZM101.9 127.62C101.408 131.424 100.256 133.848 97.4 135.192C97.58 135.384 97.844 135.78 97.94 135.996C100.964 134.436 102.236 131.856 102.812 127.716L101.9 127.62ZM99.716 127.884L98.9 128.016C99.5 131.652 100.64 134.58 102.992 135.96C103.124 135.72 103.412 135.372 103.628 135.192C101.396 134.016 100.244 131.184 99.716 127.884ZM93.62 133.62C95.012 134.184 96.44 134.988 97.268 135.66L97.892 135.012C97.028 134.352 95.54 133.56 94.1 133.008L93.62 133.62Z" fill="black"/>
<path d="M70.9034 154V153.233L73.7841 150.08C74.1222 149.71 74.4006 149.389 74.6193 149.116C74.8381 148.841 75 148.582 75.1051 148.341C75.2131 148.097 75.267 147.841 75.267 147.574C75.267 147.267 75.1932 147.001 75.0455 146.777C74.9006 146.553 74.7017 146.379 74.4489 146.257C74.196 146.135 73.9119 146.074 73.5966 146.074C73.2614 146.074 72.9688 146.143 72.7188 146.283C72.4716 146.419 72.2798 146.611 72.1435 146.858C72.0099 147.105 71.9432 147.395 71.9432 147.727H70.9375C70.9375 147.216 71.0554 146.767 71.2912 146.381C71.527 145.994 71.848 145.693 72.2543 145.477C72.6634 145.261 73.1222 145.153 73.6307 145.153C74.142 145.153 74.5952 145.261 74.9901 145.477C75.3849 145.693 75.6946 145.984 75.919 146.351C76.1435 146.717 76.2557 147.125 76.2557 147.574C76.2557 147.895 76.1974 148.209 76.081 148.516C75.9673 148.82 75.7685 149.159 75.4844 149.534C75.2031 149.906 74.8125 150.361 74.3125 150.898L72.3523 152.994V153.062H76.4091V154H70.9034ZM81.6336 153.652V154.48H87.4296V153.652H81.6336ZM81.2256 145.132V145.936H85.6296V145.132H81.2256ZM81.7656 143.884C81.0696 145.192 79.6896 146.74 77.7096 147.82C77.9136 147.976 78.2136 148.288 78.3456 148.516C80.4336 147.28 81.8736 145.648 82.7736 144.088L81.7656 143.884ZM85.3296 145.132V145.288C84.0816 148.444 80.7576 150.796 77.6496 151.696C77.8416 151.888 78.0696 152.26 78.1776 152.5C81.4416 151.444 84.8256 149.032 86.2656 145.408L85.6656 145.084L85.4976 145.132H85.3296ZM79.7256 147.268C80.6736 147.94 81.8136 148.948 82.3176 149.632L83.0496 148.984C82.4976 148.3 81.3456 147.34 80.3976 146.692L79.7256 147.268ZM86.9856 149.86V154.984H87.9096V149.86H86.9856ZM82.0416 149.86H81.8616L81.1416 150.568V154.96H82.0416V150.688H87.4416V149.86H82.0416Z" fill="black"/>
<ellipse cx="71" cy="167.231" rx="7" ry="7.2313" fill="#F0C65A"/>
<rect x="66.2104" y="180.553" width="9.57895" height="30.4476" fill="#F0C65A"/>
<ellipse cx="90" cy="167.231" rx="7" ry="7.23134" fill="#F0C65A"/>
<rect x="85.2104" y="180.553" width="9.57895" height="30.4478" fill="#F0C65A"/>
</svg>
