<svg width="384" height="240" viewBox="0 0 384 240" fill="none" xmlns="http://www.w3.org/2000/svg">
<rect width="384" height="240" rx="18" fill="#F2F1F6"/>
<path d="M17.376 25.224L18 26.472C20.576 25.672 23.12 24.504 24.88 23.416C26.752 22.248 28.432 20.904 29.808 19.48L28.736 18.472C27.632 19.816 26.032 21.192 24.352 22.248C22.576 23.352 20.144 24.488 17.376 25.224ZM24.096 22.904V29.8C24.096 30.392 24.048 31.192 24 31.496H25.584C25.504 31.192 25.472 30.392 25.472 29.8V22.488L24.096 22.904ZM35.632 19.288L34.704 20.264C35.904 21.048 37.888 22.776 38.704 23.608L39.696 22.584C38.816 21.704 36.752 20.04 35.632 19.288ZM34.256 30.008L35.088 31.32C37.76 30.824 39.776 29.832 41.392 28.824C43.808 27.304 45.664 25.128 46.752 23.144L45.984 21.768C45.056 23.752 43.12 26.12 40.64 27.672C39.12 28.616 37.04 29.592 34.256 30.008ZM54.64 23.672L53.76 24.568C55.744 25.8 58.48 27.768 59.952 29.112L60.896 27.992C59.312 26.712 56.688 24.872 54.64 23.672ZM61.952 20.76L60.896 20.12C60.64 20.216 60.288 20.264 59.856 20.264H54.768L54.256 21.416H60.176C59.808 22.904 58.8 24.936 57.568 26.408C56.128 28.12 53.952 29.816 50.976 30.712L52.112 31.72C55.152 30.6 57.232 28.888 58.688 27.096C60.096 25.368 61.104 23.24 61.584 21.608C61.664 21.352 61.824 20.984 61.952 20.76ZM56.56 18.44L55.104 17.976C55.008 18.392 54.752 18.968 54.592 19.24C53.856 20.712 52.208 23.112 49.472 24.824L50.528 25.64C53.088 23.88 54.896 21.464 55.84 19.704C56 19.4 56.288 18.856 56.56 18.44ZM75.648 18.472L74.8 18.84C75.232 19.448 75.76 20.408 76.08 21.048L76.944 20.664C76.624 20.008 76.048 19.048 75.648 18.472ZM77.392 17.832L76.56 18.2C77.008 18.792 77.536 19.704 77.872 20.392L78.736 20.008C78.432 19.416 77.824 18.424 77.392 17.832ZM68.464 19H66.976C67.04 19.384 67.072 19.912 67.072 20.296C67.072 21.16 67.072 27.56 67.072 29.096C67.072 30.408 67.76 30.968 68.976 31.192C69.648 31.304 70.592 31.336 71.552 31.336C73.296 31.336 75.696 31.224 77.088 31.016V29.544C75.744 29.896 73.296 30.056 71.6 30.056C70.816 30.056 70 30.024 69.488 29.928C68.72 29.784 68.368 29.576 68.368 28.744C68.368 27.592 68.368 21.16 68.368 20.296C68.368 19.848 68.416 19.384 68.464 19ZM67.776 24.056L67.792 25.384C69.76 24.888 72.928 23.96 74.912 23.16C75.392 22.968 75.968 22.712 76.432 22.52L75.872 21.24C75.408 21.528 74.944 21.752 74.464 21.976C72.608 22.76 69.712 23.64 67.776 24.056ZM91.776 23.4L90.8 22.92C90.672 23 90.272 23.032 90.016 23.032C89.12 23.032 85.76 23.032 85.152 23.032C84.752 23.032 84.256 23 83.872 22.952V24.296C84.272 24.264 84.704 24.248 85.168 24.248C85.6 24.248 89.248 24.248 90.24 24.248C90.192 25.272 89.6 29.192 89.424 30.056H90.768C90.96 28.936 91.536 25.096 91.68 23.896C91.68 23.752 91.728 23.544 91.776 23.4ZM82.368 29.544V30.872C82.848 30.856 83.216 30.84 83.696 30.84C84.496 30.84 91.568 30.84 92.464 30.84C92.816 30.84 93.392 30.84 93.696 30.856V29.56C93.36 29.592 92.784 29.624 92.432 29.624C91.584 29.624 84.56 29.624 83.696 29.624C83.216 29.624 82.752 29.592 82.368 29.544ZM97.616 24.072V25.64C98.128 25.608 98.976 25.576 99.856 25.576C101.04 25.576 107.424 25.576 108.64 25.576C109.344 25.576 110.016 25.624 110.352 25.64V24.072C109.984 24.104 109.424 24.168 108.624 24.168C107.44 24.168 101.024 24.168 99.856 24.168C98.944 24.168 98.112 24.12 97.616 24.072ZM119.36 18.36L118.048 18.248C118 19 117.776 19.96 117.424 20.84C116.88 22.2 115.808 24.056 113.504 26.264L114.608 27.08C115.136 26.424 115.584 25.848 116.048 25.4C116.784 24.744 117.792 24.232 118.816 24.232C119.648 24.232 120.288 24.664 120.304 25.592C120.32 26.424 120.304 28.072 120.24 28.92H121.472C121.456 27.928 121.424 26.088 121.424 25.256C121.424 23.96 120.464 23.224 119.232 23.224C118.528 23.224 117.616 23.448 116.992 23.816C117.632 22.984 118.224 21.912 118.624 20.936C119.04 19.864 119.216 18.984 119.36 18.36ZM113.872 20.088V21.288C114.768 21.352 115.824 21.384 116.512 21.384C118.544 21.384 121.52 21.24 123.76 20.904V19.72C121.504 20.12 118.736 20.248 116.576 20.248C115.84 20.248 114.736 20.2 113.872 20.088ZM126.096 23.944L125.584 22.76C125.136 22.984 124.736 23.16 124.256 23.384C123.2 23.88 121.904 24.376 120.384 25.16C118.48 26.136 116.496 27.336 116.496 29.288C116.496 31.224 118.336 31.72 120.608 31.72C122 31.72 123.776 31.592 124.992 31.448L125.04 30.152C123.632 30.408 121.904 30.552 120.656 30.552C119.008 30.552 117.776 30.36 117.776 29.112C117.776 28.008 118.896 27.144 120.48 26.312C122.032 25.512 123.552 24.904 124.688 24.456C125.12 24.296 125.696 24.072 126.096 23.944ZM129.472 19.112V20.136H142.576V19.112H129.472ZM129.984 30.84V31.848H142.096V30.84H129.984ZM132.624 21.192V22.104H139.36V21.192H132.624ZM132.624 23.208V24.12H139.36V23.208H132.624ZM128.72 25.272V26.28H143.264V25.272H128.72ZM132.08 28.136V29.128H139.936V28.136H132.08ZM131.904 17.576V25.832H133.104V17.576H131.904ZM138.944 17.576V25.832H140.144V17.576H138.944ZM135.344 26.792V31.4H136.576V26.792H135.344ZM132.752 25.544C131.888 26.952 130.176 28.328 128.56 28.968C128.832 29.192 129.168 29.608 129.344 29.88C131.024 29.096 132.784 27.576 133.76 25.928L132.752 25.544ZM139.296 25.544L138.352 25.912C139.28 27.48 140.976 28.968 142.672 29.688C142.848 29.4 143.2 28.984 143.472 28.76C141.808 28.168 140.144 26.904 139.296 25.544ZM151.28 20.2L151.296 21.496C153.04 21.688 156.144 21.688 157.856 21.496V20.2C156.272 20.44 153.024 20.504 151.28 20.2ZM151.904 26.728L150.752 26.616C150.576 27.384 150.496 27.96 150.496 28.488C150.496 29.992 151.696 30.888 154.368 30.888C156.032 30.888 157.376 30.76 158.368 30.552L158.336 29.208C157.056 29.512 155.808 29.64 154.384 29.64C152.192 29.64 151.68 28.92 151.68 28.184C151.68 27.752 151.76 27.304 151.904 26.728ZM148.24 18.968L146.816 18.856C146.8 19.208 146.752 19.608 146.704 19.976C146.512 21.304 145.984 24.04 145.984 26.392C145.984 28.568 146.256 30.408 146.576 31.544L147.712 31.464C147.696 31.288 147.68 31.064 147.664 30.904C147.664 30.712 147.696 30.408 147.744 30.184C147.888 29.416 148.48 27.736 148.88 26.6L148.208 26.072C147.936 26.728 147.568 27.688 147.296 28.408C147.2 27.624 147.152 26.952 147.152 26.184C147.152 24.376 147.648 21.528 147.952 20.04C148.016 19.752 148.144 19.24 148.24 18.968ZM161.024 22.312V23.352H174.8V22.312H161.024ZM162.256 19.464V20.472H171.344V19.464H162.256ZM166.336 17.56V22.824H167.52V17.56H166.336ZM172.336 24.376C170.656 24.84 167.616 25.24 165.088 25.464C165.2 25.672 165.344 26.056 165.376 26.296C167.984 26.104 171.104 25.736 173.12 25.192L172.336 24.376ZM173.184 18.312C170.176 21.992 165.36 24.968 160.368 26.696C160.608 26.92 160.976 27.4 161.136 27.64C166.064 25.752 170.928 22.776 174.16 18.856L173.184 18.312ZM164.912 24.408C164.608 25.896 164.112 27.896 163.712 29.112L164.912 29.272C165.28 28.072 165.76 26.104 166.096 24.552L164.912 24.408ZM171.888 27.48L171.872 27.64C171.584 29.832 171.248 30.808 170.848 31.128C170.688 31.256 170.496 31.272 170.16 31.272C169.776 31.272 168.736 31.256 167.728 31.16C167.936 31.48 168.08 31.944 168.112 32.264C169.104 32.328 170.048 32.344 170.544 32.312C171.104 32.296 171.44 32.216 171.776 31.912C172.304 31.448 172.656 30.392 173.04 28.024C173.072 27.832 173.104 27.48 173.104 27.48H171.888ZM164.736 27.48L164.48 28.488H172.208V27.48H164.736ZM180.992 18.392L180.784 19.56C182.736 19.912 185.536 20.264 187.136 20.408L187.312 19.224C185.776 19.144 182.72 18.776 180.992 18.392ZM187.632 22.968L186.864 22.088C186.704 22.152 186.368 22.232 186.096 22.264C184.88 22.424 181.168 22.664 180.24 22.696C179.728 22.696 179.264 22.696 178.896 22.664L179.008 24.056C179.344 24.008 179.76 23.944 180.288 23.912C181.264 23.832 183.952 23.592 185.216 23.528C183.648 25.096 179.296 29.464 178.64 30.104C178.336 30.408 178.048 30.664 177.84 30.824L179.056 31.672C179.968 30.52 181.712 28.68 182.304 28.12C182.672 27.752 183.056 27.528 183.488 27.528C183.936 27.528 184.288 27.832 184.464 28.392C184.624 28.84 184.848 29.784 185.008 30.264C185.36 31.32 186.144 31.624 187.44 31.624C188.288 31.624 189.76 31.512 190.432 31.384L190.528 30.04C189.76 30.232 188.544 30.376 187.504 30.376C186.672 30.376 186.304 30.104 186.112 29.496C185.952 28.984 185.728 28.168 185.568 27.704C185.344 27.048 184.976 26.632 184.368 26.568C184.192 26.52 183.904 26.52 183.728 26.536C184.336 25.912 186.128 24.232 186.736 23.672C186.928 23.512 187.328 23.176 187.632 22.968ZM197.344 18.456L197.024 19.688C198.256 20.008 201.712 20.712 203.248 20.92L203.552 19.704C202.128 19.56 198.72 18.904 197.344 18.456ZM196.992 21.384L195.648 21.208C195.552 22.872 195.152 26.232 194.832 27.688L196.032 27.976C196.128 27.72 196.272 27.464 196.512 27.192C197.632 25.832 199.36 25.048 201.456 25.048C203.088 25.048 204.288 25.96 204.288 27.224C204.288 29.416 201.824 30.872 196.768 30.264L197.152 31.56C203.088 32.056 205.632 30.12 205.632 27.272C205.632 25.384 204 23.912 201.552 23.912C199.632 23.912 197.872 24.536 196.336 25.88C196.496 24.84 196.784 22.472 196.992 21.384ZM223.584 29.784L223.376 28.424C222.56 29.272 221.712 29.736 220.96 29.736C220.384 29.736 220.112 29.304 220.112 28.76C220.112 27.144 220.72 24.392 220.72 22.792C220.72 21.496 219.984 20.648 218.48 20.648C216.512 20.648 213.856 22.952 212.864 24.04L212.848 25.624C214.352 23.8 216.672 21.816 218.176 21.816C218.992 21.816 219.456 22.216 219.456 23.144C219.456 24.696 218.864 27.32 218.864 29.112C218.864 30.424 219.568 31.128 220.64 31.128C221.728 31.128 222.72 30.648 223.584 29.784ZM212.832 22.136L212.704 22.568L212.64 23.4C212.016 24.456 209.856 27.384 208.864 28.632L209.664 29.72C210.672 28.328 212.16 26.168 212.896 25.032L213.376 22.84C213.648 22.392 214.08 21.704 214.352 21.288L213.888 20.744C213.152 20.984 211.152 21.224 210.304 21.272C209.904 21.304 209.6 21.304 209.248 21.288L209.392 22.616C210.576 22.424 212.304 22.216 212.832 22.136ZM212.672 19.496C212.672 20.088 212.288 25.16 212.256 26.568C212.24 28.328 212.224 29.128 212.224 30.68C212.224 30.936 212.208 31.32 212.176 31.624H213.552C213.536 31.32 213.488 30.92 213.472 30.648C213.408 29.224 213.408 28.248 213.408 26.792C213.408 23.976 213.888 19.4 214.112 18.36L212.608 18.312C212.688 18.712 212.672 19.128 212.672 19.496ZM227.808 19.224L227.84 20.536C228.192 20.488 228.544 20.472 228.912 20.44C229.744 20.392 232.944 20.264 233.792 20.216C232.992 20.936 230.976 22.616 230.08 23.352C229.168 24.136 227.104 25.864 225.776 26.952L226.704 27.88C228.72 25.816 230.16 24.696 232.816 24.696C234.912 24.696 236.416 25.864 236.416 27.448C236.416 29.448 234.704 30.568 231.984 30.568C230.72 30.568 229.84 30.104 229.84 29.32C229.84 28.76 230.4 28.312 231.136 28.312C232.416 28.312 233.2 29.288 233.296 30.648L234.448 30.456C234.336 28.84 233.264 27.336 231.136 27.336C229.664 27.336 228.672 28.328 228.672 29.416C228.672 30.76 230 31.704 232.176 31.704C235.568 31.704 237.696 30.024 237.696 27.448C237.696 25.288 235.792 23.704 233.136 23.704C232.416 23.704 231.648 23.784 230.912 24.024C232.16 23 234.336 21.128 235.12 20.52C235.424 20.28 235.744 20.072 236.032 19.88L235.296 18.936C235.12 19 234.896 19.032 234.416 19.08C233.568 19.16 229.776 19.272 228.928 19.272C228.608 19.272 228.16 19.256 227.808 19.224ZM242.848 20.584V22.024C243.328 22.008 243.872 21.992 244.416 21.992C245.2 21.992 250.48 21.992 251.28 21.992C251.808 21.992 252.416 22.008 252.848 22.024V20.584C252.416 20.632 251.856 20.664 251.28 20.664C250.464 20.664 245.424 20.664 244.416 20.664C243.888 20.664 243.36 20.632 242.848 20.584ZM241.472 28.52V30.056C242 30.008 242.56 29.976 243.152 29.976C244.064 29.976 251.808 29.976 252.736 29.976C253.152 29.976 253.712 30.008 254.192 30.056V28.52C253.728 28.568 253.2 28.6 252.736 28.6C251.808 28.6 244.064 28.6 243.152 28.6C242.56 28.6 242.016 28.552 241.472 28.52ZM257.616 24.072V25.64C258.128 25.608 258.976 25.576 259.856 25.576C261.04 25.576 267.424 25.576 268.64 25.576C269.344 25.576 270.016 25.624 270.352 25.64V24.072C269.984 24.104 269.424 24.168 268.624 24.168C267.44 24.168 261.024 24.168 259.856 24.168C258.944 24.168 258.112 24.12 257.616 24.072ZM283.299 17.992L282.451 18.344C282.883 18.968 283.427 19.912 283.747 20.568L284.611 20.184C284.307 19.544 283.715 18.568 283.299 17.992ZM285.123 17.432L284.275 17.784C284.723 18.392 285.251 19.288 285.603 19.992L286.467 19.608C286.163 19.016 285.539 18.008 285.123 17.432ZM283.667 20.584L282.867 19.96C282.611 20.04 282.179 20.104 281.667 20.104C281.059 20.104 276.115 20.104 275.491 20.104C274.995 20.104 274.083 20.024 273.875 19.992V21.448C274.051 21.432 274.915 21.368 275.491 21.368C276.035 21.368 281.155 21.368 281.731 21.368C281.315 22.696 280.147 24.584 279.059 25.816C277.411 27.656 275.059 29.56 272.467 30.568L273.491 31.64C276.019 30.488 278.307 28.568 280.099 26.584C281.427 25.096 282.643 22.856 283.283 21.288C283.363 21.064 283.571 20.712 283.667 20.584ZM280.307 25.736L279.395 26.648C281.123 28.152 282.995 30.2 284.147 31.72L285.251 30.76C284.163 29.416 282.035 27.176 280.307 25.736Z" fill="black"/>
<path d="M29.0221 63.648V64.608H37.6381V63.648H29.0221ZM28.0021 70.764V71.772H38.6581V70.764H28.0021ZM41.0341 65.556V66.3H44.7181V65.556H41.0341ZM40.6021 63.42V71.64L41.4421 71.496V63.42H40.6021ZM42.4861 61.968V63.984H43.3501V61.968H42.4861ZM39.7741 71.508L40.0141 72.432C41.2381 72.108 42.9061 71.64 44.4781 71.196L44.3821 70.32C42.6781 70.764 40.9141 71.244 39.7741 71.508ZM42.9901 69.216C43.7221 70.2 44.5261 71.544 44.8501 72.384L45.6541 71.964C45.2941 71.124 44.4661 69.816 43.7101 68.856L42.9901 69.216ZM40.9981 63.42V64.26H44.3701V67.608H40.9981V68.448H45.1981V63.42H40.9981ZM46.1701 62.688V73.008H47.0461V63.54H50.0101V62.688H46.1701ZM49.7821 62.688V62.988C49.3621 63.948 48.6541 65.592 47.9821 66.804C49.3141 67.848 49.7221 68.736 49.7221 69.492C49.7221 69.924 49.6261 70.26 49.3501 70.416C49.1821 70.512 48.9781 70.548 48.7741 70.56C48.4981 70.572 48.1261 70.572 47.7421 70.536C47.8981 70.8 47.9941 71.196 48.0061 71.448C48.3781 71.472 48.8101 71.472 49.1461 71.436C49.4821 71.4 49.7581 71.304 49.9861 71.172C50.4421 70.872 50.6341 70.32 50.6221 69.576C50.6221 68.724 50.2981 67.776 48.9661 66.672C49.5661 65.592 50.2501 64.236 50.7781 63.084L50.1061 62.652L49.9621 62.688H49.7821ZM56.7901 63.9L56.8021 64.872C58.1101 65.016 60.4381 65.016 61.7221 64.872V63.9C60.5341 64.08 58.0981 64.128 56.7901 63.9ZM57.2581 68.796L56.3941 68.712C56.2621 69.288 56.2021 69.72 56.2021 70.116C56.2021 71.244 57.1021 71.916 59.1061 71.916C60.3541 71.916 61.3621 71.82 62.1061 71.664L62.0821 70.656C61.1221 70.884 60.1861 70.98 59.1181 70.98C57.4741 70.98 57.0901 70.44 57.0901 69.888C57.0901 69.564 57.1501 69.228 57.2581 68.796ZM54.5101 62.976L53.4421 62.892C53.4301 63.156 53.3941 63.456 53.3581 63.732C53.2141 64.728 52.8181 66.78 52.8181 68.544C52.8181 70.176 53.0221 71.556 53.2621 72.408L54.1141 72.348C54.1021 72.216 54.0901 72.048 54.0781 71.928C54.0781 71.784 54.1021 71.556 54.1381 71.388C54.2461 70.812 54.6901 69.552 54.9901 68.7L54.4861 68.304C54.2821 68.796 54.0061 69.516 53.8021 70.056C53.7301 69.468 53.6941 68.964 53.6941 68.388C53.6941 67.032 54.0661 64.896 54.2941 63.78C54.3421 63.564 54.4381 63.18 54.5101 62.976ZM66.3781 67.704V68.376H72.2581V67.704H66.3781ZM66.1861 69.324V70.02H72.4501V69.324H66.1861ZM68.8021 68.028V69.204C68.8021 69.984 68.5501 71.124 66.0781 71.808C66.2461 71.952 66.4861 72.228 66.6061 72.408C69.2821 71.568 69.6301 70.272 69.6301 69.216V68.028H68.8021ZM69.6181 69.612L68.9221 69.768C69.4141 71.076 70.4461 71.976 71.9461 72.372C72.0541 72.168 72.2701 71.868 72.4501 71.712C71.0341 71.424 70.0501 70.68 69.6181 69.612ZM67.1341 66.72C67.4101 67.092 67.6621 67.596 67.7581 67.956L68.5021 67.704C68.4061 67.368 68.1301 66.864 67.8421 66.492L67.1341 66.72ZM70.6381 66.468C70.5061 66.84 70.2301 67.404 70.0141 67.776L70.6141 68.016C70.8661 67.68 71.1661 67.2 71.4541 66.732L70.6381 66.468ZM64.8541 64.056V64.668H68.2261V64.056H64.8541ZM70.3621 64.056V64.668H73.7701V64.056H70.3621ZM73.4341 62.436V71.88C73.4341 72.048 73.3741 72.108 73.2301 72.108C73.0741 72.12 72.5701 72.12 72.0421 72.096C72.1621 72.336 72.2821 72.732 72.3061 72.96C73.0741 72.96 73.5901 72.948 73.8901 72.804C74.2141 72.648 74.3221 72.384 74.3221 71.892V62.436H73.4341ZM64.9261 62.436V63.108H67.9261V65.664H64.9261V66.336H68.7781V62.436H64.9261ZM73.8661 62.436H69.8341V66.348H73.8661V65.676H70.6981V63.108H73.8661V62.436ZM64.3861 62.436V72.972H65.2741V62.436H64.3861ZM82.8541 62.496H81.7501C81.7741 62.604 81.8101 62.94 81.8341 63.264C81.8701 63.924 81.8821 66.312 81.8821 66.84L82.7941 67.308C82.7821 66.348 82.7581 64.032 82.7941 63.252C82.7941 63.108 82.8301 62.64 82.8541 62.496ZM76.4701 64.176L76.4941 65.1C78.3061 64.968 80.8741 64.884 82.9381 64.884C84.7021 64.884 85.7821 64.908 86.4541 64.944L86.4661 64.056C85.9021 64.044 84.4141 64.044 82.9501 64.044C81.1021 64.044 78.1021 64.152 76.4701 64.176ZM82.7701 67.656L82.1101 67.32C82.3021 68.604 81.8221 69.228 81.0781 69.228C80.4181 69.228 79.8541 68.796 79.8541 68.04C79.8541 67.26 80.4421 66.768 81.0781 66.768C81.7261 66.768 82.2541 67.224 82.2541 68.304C82.2541 70.284 80.9821 71.352 78.7981 71.868L79.6021 72.648C82.3861 71.82 83.1781 70.02 83.1781 68.388C83.1781 67.008 82.4701 65.976 81.0781 65.976C79.9381 65.976 78.9541 66.864 78.9541 68.052C78.9541 69.36 79.9261 70.068 80.9341 70.068C82.0261 70.068 82.7701 69.264 82.7701 67.656ZM90.1861 63.168L90.2101 64.152C90.4741 64.116 90.7381 64.104 91.0141 64.08C91.6381 64.044 94.0381 63.948 94.6741 63.912C94.0741 64.452 92.5621 65.712 91.8901 66.264C91.2061 66.852 89.6581 68.148 88.6621 68.964L89.3581 69.66C90.8701 68.112 91.9501 67.272 93.9421 67.272C95.5141 67.272 96.6421 68.148 96.6421 69.336C96.6421 70.836 95.3581 71.676 93.3181 71.676C92.3701 71.676 91.7101 71.328 91.7101 70.74C91.7101 70.32 92.1301 69.984 92.6821 69.984C93.6421 69.984 94.2301 70.716 94.3021 71.736L95.1661 71.592C95.0821 70.38 94.2781 69.252 92.6821 69.252C91.5781 69.252 90.8341 69.996 90.8341 70.812C90.8341 71.82 91.8301 72.528 93.4621 72.528C96.0061 72.528 97.6021 71.268 97.6021 69.336C97.6021 67.716 96.1741 66.528 94.1821 66.528C93.6421 66.528 93.0661 66.588 92.5141 66.768C93.4501 66 95.0821 64.596 95.6701 64.14C95.8981 63.96 96.1381 63.804 96.3541 63.66L95.8021 62.952C95.6701 63 95.5021 63.024 95.1421 63.06C94.5061 63.12 91.6621 63.204 91.0261 63.204C90.7861 63.204 90.4501 63.192 90.1861 63.168ZM105.606 71.748L106.242 72.276C106.338 72.216 106.458 72.108 106.662 72.012C108.054 71.316 109.71 70.092 110.754 68.688L110.178 67.86C109.266 69.216 107.79 70.308 106.674 70.812C106.674 70.452 106.674 64.644 106.674 63.9C106.674 63.444 106.722 63.096 106.734 63H105.63C105.63 63.096 105.69 63.432 105.69 63.888C105.69 64.644 105.69 70.524 105.69 71.076C105.69 71.316 105.654 71.568 105.606 71.748ZM100.11 71.7L101.022 72.3C102.03 71.46 102.798 70.296 103.158 69.012C103.482 67.812 103.518 65.232 103.518 63.9C103.518 63.552 103.566 63.18 103.578 63.048H102.474C102.534 63.3 102.558 63.564 102.558 63.912C102.558 65.256 102.558 67.644 102.198 68.748C101.838 69.912 101.13 70.98 100.11 71.7ZM112.542 66.804V67.98C112.926 67.956 113.562 67.932 114.222 67.932C115.11 67.932 119.898 67.932 120.81 67.932C121.338 67.932 121.842 67.968 122.094 67.98V66.804C121.818 66.828 121.398 66.876 120.798 66.876C119.91 66.876 115.098 66.876 114.222 66.876C113.538 66.876 112.914 66.84 112.542 66.804ZM129.606 71.748L130.242 72.276C130.338 72.216 130.458 72.108 130.662 72.012C132.054 71.316 133.71 70.092 134.754 68.688L134.178 67.86C133.266 69.216 131.79 70.308 130.674 70.812C130.674 70.452 130.674 64.644 130.674 63.9C130.674 63.444 130.722 63.096 130.734 63H129.63C129.63 63.096 129.69 63.432 129.69 63.888C129.69 64.644 129.69 70.524 129.69 71.076C129.69 71.316 129.654 71.568 129.606 71.748ZM124.11 71.7L125.022 72.3C126.03 71.46 126.798 70.296 127.158 69.012C127.482 67.812 127.518 65.232 127.518 63.9C127.518 63.552 127.566 63.18 127.578 63.048H126.474C126.534 63.3 126.558 63.564 126.558 63.912C126.558 65.256 126.558 67.644 126.198 68.748C125.838 69.912 125.13 70.98 124.11 71.7ZM141.978 64.392L142.662 63.852C142.218 63.384 141.306 62.628 140.91 62.316L140.226 62.808C140.73 63.192 141.522 63.924 141.978 64.392ZM138.162 63.348L137.19 63.744C137.382 63.984 137.622 64.368 137.766 64.608C138.174 65.292 138.714 66.456 139.278 67.716C139.962 69.288 140.538 71.208 140.91 72.636L141.942 72.36C141.534 71.028 140.766 68.808 140.118 67.308C139.626 66.216 139.05 65.004 138.582 64.164C138.462 63.936 138.258 63.552 138.162 63.348ZM136.038 66.852L136.506 67.836C138.018 67.176 141.57 65.1 143.574 65.1C144.75 65.1 145.314 65.76 145.314 66.468C145.314 67.32 144.774 68.052 143.454 68.052C142.818 68.052 142.218 67.872 141.75 67.656L141.726 68.604C142.17 68.772 142.854 68.94 143.526 68.94C145.398 68.94 146.274 67.896 146.274 66.504C146.274 65.196 145.266 64.26 143.598 64.26C141.606 64.26 138.69 65.892 137.022 66.528C136.806 66.624 136.386 66.768 136.038 66.852ZM152.046 63.096V63.9H158.718V63.096H152.046ZM151.746 65.964V66.78H158.934V65.964H151.746ZM153.186 69.72V70.44H157.554V69.72H153.186ZM153.21 71.676V72.444H157.614V71.676H153.21ZM154.89 62.016V63.516H155.778V62.016H154.89ZM153.078 64.14C153.342 64.704 153.594 65.46 153.666 65.94L154.494 65.76C154.41 65.28 154.134 64.536 153.87 63.996L153.078 64.14ZM156.846 63.96C156.714 64.488 156.438 65.28 156.234 65.772L156.978 65.952C157.218 65.496 157.482 64.788 157.734 64.152L156.846 63.96ZM152.706 67.776V72.948H153.534V68.52H157.266V72.924H158.118V67.776H152.706ZM148.662 62.7V63.516H150.702V69.768H148.662V70.584H151.53V62.7H148.662ZM148.71 66.204V67.008H151.158V66.204H148.71ZM148.23 62.7V71.568H149.058V62.7H148.23ZM161.118 64.608H164.526V65.604H161.118V64.608ZM161.118 63.012H164.526V63.996H161.118V63.012ZM160.386 62.364V66.264H165.27V62.364H160.386ZM160.302 67.128V67.872H165.342V67.128H160.302ZM159.93 69.132L159.99 69.96C161.418 69.828 163.458 69.624 165.402 69.444L165.414 68.676C163.398 68.856 161.31 69.036 159.93 69.132ZM162.486 62.64V65.94H162.402V69.12H163.254V65.94H163.182V62.64H162.486ZM165.582 64.536V65.388H170.658V64.536H165.582ZM168.378 64.932L167.61 65.064C168.006 67.428 168.798 69.228 170.334 70.2C170.466 69.948 170.742 69.6 170.946 69.444C169.494 68.652 168.726 66.996 168.378 64.932ZM168.594 62.52C169.146 63.036 169.794 63.756 170.082 64.236L170.766 63.78C170.466 63.3 169.806 62.604 169.242 62.112L168.594 62.52ZM167.478 62.052V64.584C167.478 66.252 167.238 68.088 164.982 69.408C165.186 69.552 165.474 69.864 165.606 70.068C168.054 68.604 168.342 66.528 168.342 64.584V62.052H167.478ZM163.434 70.668C163.578 71.388 163.674 72.324 163.674 72.876L164.574 72.768C164.562 72.216 164.43 71.304 164.262 70.596L163.434 70.668ZM165.894 70.644C166.194 71.352 166.494 72.276 166.602 72.84L167.502 72.66C167.382 72.096 167.058 71.172 166.734 70.5L165.894 70.644ZM168.342 70.512C168.954 71.268 169.65 72.312 169.938 72.948L170.838 72.636C170.514 71.976 169.806 70.968 169.194 70.248L168.342 70.512ZM161.394 70.368C161.07 71.208 160.482 72.084 159.87 72.588L160.722 72.948C161.346 72.372 161.91 71.448 162.258 70.584L161.394 70.368ZM178.086 63.816L177.09 63.792C176.97 65.04 176.718 66.396 176.37 67.536C175.758 69.564 175.11 70.38 174.546 70.38C174.006 70.38 173.322 69.708 173.322 68.196C173.322 66.432 174.966 64.26 177.606 64.26C179.91 64.26 181.242 65.844 181.242 67.764C181.242 69.84 179.73 70.992 178.194 71.34C177.906 71.4 177.546 71.448 177.162 71.484L177.714 72.372C180.57 72 182.226 70.32 182.226 67.812C182.226 65.376 180.438 63.396 177.63 63.396C174.69 63.396 172.374 65.664 172.374 68.268C172.374 70.26 173.442 71.484 174.522 71.484C175.626 71.484 176.586 70.212 177.318 67.752C177.69 66.468 177.93 65.064 178.086 63.816ZM188.874 66.012V71.784C188.874 72 188.79 72.072 188.526 72.084C188.25 72.096 187.326 72.096 186.33 72.06C186.474 72.324 186.642 72.708 186.702 72.972C187.914 72.972 188.718 72.96 189.186 72.816C189.654 72.684 189.81 72.408 189.81 71.808V66.012H188.874ZM184.506 62.868V63.744H193.17V62.868H184.506ZM192.846 62.868V63.084C192.09 64.08 190.506 65.46 189.138 66.216C189.33 66.348 189.618 66.648 189.75 66.84C191.238 66 192.93 64.584 193.998 63.312L193.302 62.808L193.086 62.868H192.846ZM196.986 64.968V65.676H200.454V64.968H196.986ZM196.986 67.008V67.692H200.454V67.008H196.986ZM196.986 69.096V69.804H200.454V69.096H196.986ZM202.098 67.608V68.388H206.67V67.608H202.098ZM197.61 63V63.708H199.602V63H197.61ZM201.33 62.532V63.3H206.022V62.532H201.33ZM201.186 69.852V70.656H206.874V69.852H201.186ZM203.718 66.372V72.912H204.582V66.372H203.718ZM198.474 65.316V69.396H199.122V65.316H198.474ZM205.734 62.532V62.652C205.65 64.536 205.554 65.232 205.398 65.412C205.326 65.508 205.218 65.532 205.05 65.52C204.882 65.52 204.45 65.52 203.97 65.472C204.078 65.676 204.162 65.988 204.174 66.228C204.678 66.252 205.182 66.252 205.422 66.228C205.734 66.204 205.914 66.132 206.082 65.928C206.334 65.652 206.454 64.872 206.538 62.868C206.55 62.76 206.55 62.532 206.55 62.532H205.734ZM202.146 66.48C201.942 67.5 201.57 68.508 201.054 69.18C201.246 69.276 201.606 69.456 201.762 69.564C202.266 68.844 202.686 67.752 202.926 66.636L202.146 66.48ZM197.586 61.92C197.226 63.396 196.554 64.824 195.702 65.748C195.894 65.868 196.242 66.144 196.386 66.288C197.238 65.268 197.97 63.72 198.414 62.1L197.586 61.92ZM196.638 64.968V68.16C196.638 69.516 196.554 71.304 195.738 72.576C195.918 72.66 196.254 72.864 196.386 72.984C197.238 71.652 197.382 69.624 197.382 68.16V64.968H196.638ZM200.214 64.968V71.976C200.214 72.132 200.142 72.18 199.986 72.192C199.818 72.204 199.278 72.204 198.666 72.18C198.774 72.396 198.906 72.744 198.942 72.948C199.77 72.948 200.262 72.936 200.562 72.804C200.874 72.672 200.97 72.42 200.97 71.976V64.968H200.214ZM203.034 62.784C202.866 64.14 202.434 65.328 200.958 65.952C201.138 66.084 201.354 66.372 201.462 66.564C203.142 65.808 203.658 64.44 203.862 62.784H203.034ZM199.386 63V63.144C199.206 63.744 198.87 64.608 198.57 65.148C198.738 65.22 199.002 65.376 199.146 65.496C199.506 64.932 199.962 64.044 200.214 63.3L199.686 62.952L199.566 63H199.386ZM212.85 62.52L211.866 62.436C211.83 63 211.662 63.72 211.398 64.38C210.99 65.4 210.186 66.792 208.458 68.448L209.286 69.06C209.682 68.568 210.018 68.136 210.366 67.8C210.918 67.308 211.674 66.924 212.442 66.924C213.066 66.924 213.546 67.248 213.558 67.944C213.57 68.568 213.558 69.804 213.51 70.44H214.434C214.422 69.696 214.398 68.316 214.398 67.692C214.398 66.72 213.678 66.168 212.754 66.168C212.226 66.168 211.542 66.336 211.074 66.612C211.554 65.988 211.998 65.184 212.298 64.452C212.61 63.648 212.742 62.988 212.85 62.52ZM208.734 63.816V64.716C209.406 64.764 210.198 64.788 210.714 64.788C212.238 64.788 214.47 64.68 216.15 64.428V63.54C214.458 63.84 212.382 63.936 210.762 63.936C210.21 63.936 209.382 63.9 208.734 63.816ZM217.902 66.708L217.518 65.82C217.182 65.988 216.882 66.12 216.522 66.288C215.73 66.66 214.758 67.032 213.618 67.62C212.19 68.352 210.702 69.252 210.702 70.716C210.702 72.168 212.082 72.54 213.786 72.54C214.83 72.54 216.162 72.444 217.074 72.336L217.11 71.364C216.054 71.556 214.758 71.664 213.822 71.664C212.586 71.664 211.662 71.52 211.662 70.584C211.662 69.756 212.502 69.108 213.69 68.484C214.854 67.884 215.994 67.428 216.846 67.092C217.17 66.972 217.602 66.804 217.902 66.708ZM226.266 70.812V71.664H229.818V70.812H226.266ZM225.894 62.964V72.624H226.758V63.816H229.314V72.492H230.214V62.964H225.894ZM222.342 63.948V66.348C222.342 68.208 222.066 70.596 219.726 72.264C219.918 72.396 220.242 72.744 220.362 72.936C222.846 71.16 223.254 68.4 223.254 66.36V63.948H222.342ZM221.106 63.54V64.38H225.15V63.54H221.106ZM219.858 66.768V67.632H225.51V66.768H219.858ZM222.966 68.352L222.414 68.868C222.966 69.456 224.346 71.1 224.85 71.832L225.462 71.076C225.078 70.62 223.434 68.772 222.966 68.352ZM221.214 61.92C220.926 63.384 220.434 64.824 219.714 65.748C219.918 65.868 220.302 66.12 220.458 66.264C221.166 65.244 221.742 63.696 222.09 62.088L221.214 61.92ZM235.386 62.532L234.342 62.496C234.318 62.832 234.294 63.168 234.246 63.528C234.102 64.512 233.874 66.276 233.874 67.416C233.874 68.196 233.934 68.868 233.994 69.324L234.93 69.252C234.846 68.652 234.846 68.232 234.906 67.776C235.05 66.204 236.442 64.02 237.942 64.02C239.202 64.02 239.838 65.388 239.838 67.284C239.838 70.296 237.81 71.352 235.194 71.748L235.77 72.612C238.734 72.072 240.834 70.596 240.834 67.272C240.834 64.752 239.682 63.144 238.098 63.144C236.574 63.144 235.326 64.644 234.834 65.88C234.906 65.04 235.134 63.42 235.386 62.532ZM248.634 62.568L247.494 62.472C247.518 62.724 247.494 63.132 247.446 63.468C247.362 64.092 247.05 65.604 246.762 66.708C246.306 68.4 245.466 70.836 244.746 72.084L245.79 72.432C246.426 71.124 247.23 68.64 247.662 66.936C247.998 65.736 248.25 64.38 248.43 63.516C248.478 63.288 248.562 62.832 248.634 62.568ZM245.982 64.572C245.538 64.572 245.106 64.548 244.542 64.476L244.566 65.412C245.01 65.448 245.43 65.46 245.958 65.46C247.254 65.46 249.066 65.256 250.554 64.92V63.984C249.066 64.356 247.302 64.572 245.982 64.572ZM249.774 66.216V67.116C250.506 67.032 251.25 66.984 251.994 66.984C252.702 66.984 253.398 67.056 254.022 67.128L254.046 66.216C253.398 66.144 252.666 66.12 251.97 66.12C251.202 66.12 250.398 66.156 249.774 66.216ZM250.014 69.132L249.126 69.048C249.018 69.552 248.946 70.008 248.946 70.464C248.946 71.652 249.978 72.228 251.862 72.228C252.738 72.228 253.542 72.156 254.19 72.06L254.226 71.1C253.482 71.244 252.666 71.328 251.874 71.328C250.17 71.328 249.846 70.776 249.846 70.212C249.846 69.9 249.918 69.528 250.014 69.132ZM258.006 63.636L256.842 63.612C256.914 63.888 256.914 64.404 256.914 64.68C256.914 65.376 256.938 66.84 257.046 67.872C257.382 70.98 258.462 72.108 259.602 72.108C260.418 72.108 261.138 71.412 261.87 69.384L261.114 68.532C260.802 69.732 260.238 70.968 259.626 70.968C258.762 70.968 258.186 69.636 257.982 67.632C257.898 66.648 257.886 65.544 257.898 64.8C257.91 64.488 257.946 63.912 258.006 63.636ZM264.246 63.96L263.322 64.284C264.462 65.688 265.194 68.16 265.398 70.32L266.37 69.936C266.19 67.908 265.326 65.352 264.246 63.96ZM269.58 63.2727L269.495 69.5455H268.506L268.421 63.2727H269.58ZM269.001 72.0682C268.79 72.0682 268.61 71.9929 268.459 71.8423C268.309 71.6918 268.233 71.5114 268.233 71.3011C268.233 71.0909 268.309 70.9105 268.459 70.7599C268.61 70.6094 268.79 70.5341 269.001 70.5341C269.211 70.5341 269.391 70.6094 269.542 70.7599C269.692 70.9105 269.768 71.0909 269.768 71.3011C269.768 71.4403 269.732 71.5682 269.661 71.6847C269.593 71.8011 269.501 71.8949 269.384 71.9659C269.27 72.0341 269.143 72.0682 269.001 72.0682Z" fill="black"/>
<path d="M28.104 101.084V101.852H37.932V101.084H28.104ZM28.488 109.88V110.636H37.572V109.88H28.488ZM30.468 102.644V103.328H35.52V102.644H30.468ZM30.468 104.156V104.84H35.52V104.156H30.468ZM27.54 105.704V106.46H38.448V105.704H27.54ZM30.06 107.852V108.596H35.952V107.852H30.06ZM29.928 99.932V106.124H30.828V99.932H29.928ZM35.208 99.932V106.124H36.108V99.932H35.208ZM32.508 106.844V110.3H33.432V106.844H32.508ZM30.564 105.908C29.916 106.964 28.632 107.996 27.42 108.476C27.624 108.644 27.876 108.956 28.008 109.16C29.268 108.572 30.588 107.432 31.32 106.196L30.564 105.908ZM35.472 105.908L34.764 106.184C35.46 107.36 36.732 108.476 38.004 109.016C38.136 108.8 38.4 108.488 38.604 108.32C37.356 107.876 36.108 106.928 35.472 105.908ZM39.768 102.452V103.364H50.244V102.452H39.768ZM42.168 107.804V108.716H47.76V107.804H42.168ZM44.508 99.932V110.96H45.456V99.932H44.508ZM44.232 102.752C43.272 105.056 41.364 107.288 39.36 108.332C39.564 108.512 39.864 108.848 40.008 109.076C42.084 107.864 43.968 105.572 45.036 103.028L44.232 102.752ZM45.756 102.788L44.952 103.064C46.008 105.584 47.856 107.876 49.98 109.052C50.124 108.8 50.436 108.44 50.664 108.248C48.588 107.252 46.704 105.068 45.756 102.788ZM52.572 101.852V102.656H55.38V108.884H52.572V109.7H56.22V101.852H52.572ZM52.032 101.852V110.66H52.872V101.852H52.032ZM52.512 105.188V105.992H55.824V105.188H52.512ZM53.868 99.896C53.772 100.52 53.544 101.432 53.34 102.008L54.06 102.188C54.3 101.648 54.6 100.82 54.84 100.076L53.868 99.896ZM57.924 101.816V102.656H61.608V101.816H57.924ZM61.296 101.816V102.008C61.128 107.3 60.936 109.292 60.54 109.724C60.408 109.88 60.264 109.916 60.024 109.916C59.748 109.916 59.028 109.904 58.248 109.844C58.416 110.084 58.524 110.456 58.548 110.72C59.22 110.756 59.928 110.78 60.336 110.732C60.756 110.696 61.032 110.588 61.296 110.24C61.776 109.652 61.944 107.792 62.136 102.284C62.136 102.152 62.136 101.816 62.136 101.816H61.296ZM58.176 99.872C57.792 101.54 57.132 103.196 56.316 104.252C56.532 104.372 56.904 104.624 57.06 104.768C57.888 103.628 58.596 101.864 59.04 100.076L58.176 99.872ZM57.624 104.936C58.284 105.812 59.088 107 59.448 107.732L60.216 107.252C59.832 106.544 59.004 105.38 58.32 104.528L57.624 104.936ZM64.152 102.44L64.224 103.34C64.668 103.352 65.184 103.364 65.628 103.364C67.092 103.376 68.664 103.112 69.84 102.788L69.816 101.9C68.436 102.356 66.924 102.512 65.628 102.512C65.112 102.512 64.596 102.488 64.152 102.44ZM68.412 100.484L67.356 100.376C67.32 101.216 67.056 102.272 66.792 103.028C66.3 104.444 65.184 106.58 64.116 107.828L65.04 108.308C66.036 106.964 67.14 104.78 67.716 103.052C68.004 102.2 68.256 101.072 68.412 100.484ZM71.244 104.192H70.296C70.344 105.512 70.476 107.66 70.476 108.572C70.476 109.22 70.14 109.748 69.144 109.748C68.208 109.748 67.74 109.364 67.74 108.812C67.74 108.26 68.34 107.852 69.228 107.852C70.992 107.852 72.372 108.92 73.296 109.76L73.8 108.944C72.816 108.092 71.268 107.084 69.252 107.084C67.908 107.084 66.864 107.78 66.864 108.884C66.864 110.084 67.932 110.612 69.252 110.612C70.74 110.612 71.352 109.832 71.352 108.872C71.352 108.08 71.244 106.256 71.22 105.476C71.208 105.044 71.208 104.684 71.244 104.192ZM73.644 104.504L74.184 103.712C73.608 103.28 72.252 102.5 71.376 102.128L70.896 102.848C71.688 103.22 72.996 103.952 73.644 104.504ZM81.276 109.748L81.912 110.276C82.008 110.216 82.128 110.108 82.332 110.012C83.724 109.316 85.38 108.092 86.424 106.688L85.848 105.86C84.936 107.216 83.46 108.308 82.344 108.812C82.344 108.452 82.344 102.644 82.344 101.9C82.344 101.444 82.392 101.096 82.404 101H81.3C81.3 101.096 81.36 101.432 81.36 101.888C81.36 102.644 81.36 108.524 81.36 109.076C81.36 109.316 81.324 109.568 81.276 109.748ZM75.78 109.7L76.692 110.3C77.7 109.46 78.468 108.296 78.828 107.012C79.152 105.812 79.188 103.232 79.188 101.9C79.188 101.552 79.236 101.18 79.248 101.048H78.144C78.204 101.3 78.228 101.564 78.228 101.912C78.228 103.256 78.228 105.644 77.868 106.748C77.508 107.912 76.8 108.98 75.78 109.7ZM88.212 104.804V105.98C88.596 105.956 89.232 105.932 89.892 105.932C90.78 105.932 95.568 105.932 96.48 105.932C97.008 105.932 97.512 105.968 97.764 105.98V104.804C97.488 104.828 97.068 104.876 96.468 104.876C95.58 104.876 90.768 104.876 89.892 104.876C89.208 104.876 88.584 104.84 88.212 104.804ZM105.276 109.748L105.912 110.276C106.008 110.216 106.128 110.108 106.332 110.012C107.724 109.316 109.38 108.092 110.424 106.688L109.848 105.86C108.936 107.216 107.46 108.308 106.344 108.812C106.344 108.452 106.344 102.644 106.344 101.9C106.344 101.444 106.392 101.096 106.404 101H105.3C105.3 101.096 105.36 101.432 105.36 101.888C105.36 102.644 105.36 108.524 105.36 109.076C105.36 109.316 105.324 109.568 105.276 109.748ZM99.78 109.7L100.692 110.3C101.7 109.46 102.468 108.296 102.828 107.012C103.152 105.812 103.188 103.232 103.188 101.9C103.188 101.552 103.236 101.18 103.248 101.048H102.144C102.204 101.3 102.228 101.564 102.228 101.912C102.228 103.256 102.228 105.644 101.868 106.748C101.508 107.912 100.8 108.98 99.78 109.7ZM116.52 100.52L115.536 100.436C115.5 101 115.332 101.72 115.068 102.38C114.66 103.4 113.856 104.792 112.128 106.448L112.956 107.06C113.352 106.568 113.688 106.136 114.036 105.8C114.588 105.308 115.344 104.924 116.112 104.924C116.736 104.924 117.216 105.248 117.228 105.944C117.24 106.568 117.228 107.804 117.18 108.44H118.104C118.092 107.696 118.068 106.316 118.068 105.692C118.068 104.72 117.348 104.168 116.424 104.168C115.896 104.168 115.212 104.336 114.744 104.612C115.224 103.988 115.668 103.184 115.968 102.452C116.28 101.648 116.412 100.988 116.52 100.52ZM112.404 101.816V102.716C113.076 102.764 113.868 102.788 114.384 102.788C115.908 102.788 118.14 102.68 119.82 102.428V101.54C118.128 101.84 116.052 101.936 114.432 101.936C113.88 101.936 113.052 101.9 112.404 101.816ZM121.572 104.708L121.188 103.82C120.852 103.988 120.552 104.12 120.192 104.288C119.4 104.66 118.428 105.032 117.288 105.62C115.86 106.352 114.372 107.252 114.372 108.716C114.372 110.168 115.752 110.54 117.456 110.54C118.5 110.54 119.832 110.444 120.744 110.336L120.78 109.364C119.724 109.556 118.428 109.664 117.492 109.664C116.256 109.664 115.332 109.52 115.332 108.584C115.332 107.756 116.172 107.108 117.36 106.484C118.524 105.884 119.664 105.428 120.516 105.092C120.84 104.972 121.272 104.804 121.572 104.708ZM125.736 103.976V104.768H131.676V103.976H125.736ZM123.72 106.712V107.552H134.328V106.712H123.72ZM128.544 105.836V109.868C128.544 110.048 128.484 110.108 128.244 110.12C128.004 110.132 127.188 110.132 126.264 110.108C126.408 110.348 126.588 110.72 126.648 110.972C127.74 110.972 128.436 110.96 128.868 110.828C129.324 110.696 129.468 110.432 129.468 109.892V105.836H128.544ZM131.4 103.976V104.156C130.836 104.768 129.684 105.56 128.676 105.992C128.832 106.124 129.072 106.364 129.18 106.52C130.32 106.028 131.58 105.2 132.396 104.372L131.82 103.928L131.628 103.976H131.4ZM123.96 101.924V104.6H124.812V102.74H133.236V104.6H134.124V101.924H123.96ZM132.54 100.004C132.204 100.64 131.592 101.528 131.112 102.092L131.82 102.392C132.324 101.864 132.972 101.06 133.476 100.316L132.54 100.004ZM124.776 100.424C125.22 100.94 125.7 101.66 125.892 102.116L126.696 101.732C126.492 101.252 126 100.568 125.532 100.064L124.776 100.424ZM127.86 100.16C128.256 100.748 128.652 101.54 128.796 102.044L129.624 101.72C129.48 101.216 129.048 100.436 128.64 99.872L127.86 100.16ZM141.564 101.096L140.496 100.664C140.352 101.024 140.196 101.312 140.064 101.6C139.404 102.752 136.776 107.672 135.9 110.096L136.932 110.456C137.1 109.868 137.604 108.44 137.976 107.732C138.432 106.784 139.344 105.8 140.304 105.8C140.844 105.8 141.156 106.124 141.18 106.64C141.216 107.3 141.204 108.224 141.24 108.932C141.276 109.64 141.696 110.444 142.98 110.444C144.72 110.444 145.728 109.1 146.364 107.168L145.56 106.52C145.26 107.804 144.468 109.46 143.124 109.46C142.608 109.46 142.2 109.196 142.164 108.596C142.116 108.008 142.14 107.096 142.116 106.388C142.08 105.44 141.504 104.924 140.7 104.924C140.124 104.924 139.5 105.152 138.924 105.668C139.536 104.504 140.64 102.512 141.18 101.684C141.312 101.456 141.456 101.24 141.564 101.096ZM147.338 102.104L147.446 103.16C148.742 102.884 151.802 102.584 153.086 102.452C151.994 103.1 150.854 104.636 150.854 106.496C150.854 109.184 153.374 110.36 155.594 110.444L155.942 109.46C153.998 109.388 151.802 108.632 151.802 106.292C151.802 104.876 152.846 103.04 154.562 102.488C155.174 102.32 156.218 102.296 156.914 102.308L156.902 101.348C156.098 101.372 154.982 101.444 153.662 101.552C151.454 101.744 149.186 101.96 148.418 102.044C148.178 102.068 147.794 102.092 147.338 102.104ZM155.174 103.772L154.574 104.036C154.934 104.54 155.27 105.152 155.546 105.728L156.17 105.452C155.906 104.912 155.45 104.168 155.174 103.772ZM156.482 103.268L155.894 103.544C156.266 104.048 156.626 104.648 156.914 105.224L157.526 104.924C157.25 104.396 156.782 103.664 156.482 103.268ZM160.094 101.648V102.608H168.71V101.648H160.094ZM159.074 108.764V109.772H169.73V108.764H159.074ZM172.106 103.556V104.3H175.79V103.556H172.106ZM171.674 101.42V109.64L172.514 109.496V101.42H171.674ZM173.558 99.968V101.984H174.422V99.968H173.558ZM170.846 109.508L171.086 110.432C172.31 110.108 173.978 109.64 175.55 109.196L175.454 108.32C173.75 108.764 171.986 109.244 170.846 109.508ZM174.062 107.216C174.794 108.2 175.598 109.544 175.922 110.384L176.726 109.964C176.366 109.124 175.538 107.816 174.782 106.856L174.062 107.216ZM172.07 101.42V102.26H175.442V105.608H172.07V106.448H176.27V101.42H172.07ZM177.242 100.688V111.008H178.118V101.54H181.082V100.688H177.242ZM180.854 100.688V100.988C180.434 101.948 179.726 103.592 179.054 104.804C180.386 105.848 180.794 106.736 180.794 107.492C180.794 107.924 180.698 108.26 180.422 108.416C180.254 108.512 180.05 108.548 179.846 108.56C179.57 108.572 179.198 108.572 178.814 108.536C178.97 108.8 179.066 109.196 179.078 109.448C179.45 109.472 179.882 109.472 180.218 109.436C180.554 109.4 180.83 109.304 181.058 109.172C181.514 108.872 181.706 108.32 181.694 107.576C181.694 106.724 181.37 105.776 180.038 104.672C180.638 103.592 181.322 102.236 181.85 101.084L181.178 100.652L181.034 100.688H180.854ZM187.922 100.52L186.938 100.436C186.902 101 186.734 101.72 186.47 102.38C186.062 103.4 185.258 104.792 183.53 106.448L184.358 107.06C184.754 106.568 185.09 106.136 185.438 105.8C185.99 105.308 186.746 104.924 187.514 104.924C188.138 104.924 188.618 105.248 188.63 105.944C188.642 106.568 188.63 107.804 188.582 108.44H189.506C189.494 107.696 189.47 106.316 189.47 105.692C189.47 104.72 188.75 104.168 187.826 104.168C187.298 104.168 186.614 104.336 186.146 104.612C186.626 103.988 187.07 103.184 187.37 102.452C187.682 101.648 187.814 100.988 187.922 100.52ZM183.806 101.816V102.716C184.478 102.764 185.27 102.788 185.786 102.788C187.31 102.788 189.542 102.68 191.222 102.428V101.54C189.53 101.84 187.454 101.936 185.834 101.936C185.282 101.936 184.454 101.9 183.806 101.816ZM192.974 104.708L192.59 103.82C192.254 103.988 191.954 104.12 191.594 104.288C190.802 104.66 189.83 105.032 188.69 105.62C187.262 106.352 185.774 107.252 185.774 108.716C185.774 110.168 187.154 110.54 188.858 110.54C189.902 110.54 191.234 110.444 192.146 110.336L192.182 109.364C191.126 109.556 189.83 109.664 188.894 109.664C187.658 109.664 186.734 109.52 186.734 108.584C186.734 107.756 187.574 107.108 188.762 106.484C189.926 105.884 191.066 105.428 191.918 105.092C192.242 104.972 192.674 104.804 192.974 104.708ZM195.074 106.748V107.552H205.73V106.748H195.074ZM199.91 105.584V110.948H200.822V105.584H199.91ZM199.502 107.06C198.518 108.332 196.586 109.472 194.834 110.012C195.038 110.192 195.302 110.54 195.446 110.768C197.198 110.132 199.154 108.848 200.246 107.396L199.502 107.06ZM201.242 107.084L200.486 107.444C201.578 108.86 203.534 110.084 205.358 110.684C205.49 110.444 205.766 110.096 205.958 109.928C204.134 109.424 202.214 108.344 201.242 107.084ZM199.022 103.772H201.77V104.996H199.022V103.772ZM199.022 101.864H201.77V103.076H199.022V101.864ZM198.182 101.144V105.728H202.646V101.144H198.182ZM200.006 99.92C199.922 100.352 199.754 100.988 199.598 101.42L200.378 101.588C200.558 101.192 200.774 100.628 200.99 100.064L200.006 99.92ZM195.218 101.168C195.974 101.696 196.814 102.476 197.174 103.052L197.834 102.464C197.45 101.888 196.598 101.156 195.842 100.652L195.218 101.168ZM202.67 104.084C203.618 104.588 204.806 105.368 205.382 105.896L205.934 105.224C205.334 104.696 204.134 103.964 203.198 103.496L202.67 104.084ZM204.77 100.532C204.278 101.156 203.414 101.996 202.778 102.5L203.45 102.956C204.098 102.44 204.914 101.684 205.55 100.988L204.77 100.532ZM194.834 105.188L195.29 105.932C196.082 105.476 197.066 104.876 197.978 104.336L197.726 103.592C196.658 104.192 195.566 104.816 194.834 105.188ZM210.482 100.652H209.258C209.33 101 209.366 101.42 209.366 101.864C209.366 103.124 209.246 106.16 209.246 107.936C209.246 109.904 210.434 110.612 212.162 110.612C214.79 110.612 216.35 109.112 217.166 107.972L216.494 107.156C215.63 108.404 214.382 109.628 212.186 109.628C211.046 109.628 210.218 109.172 210.218 107.852C210.218 106.064 210.314 103.22 210.362 101.864C210.386 101.468 210.422 101.048 210.482 100.652ZM221.078 101.204L221.114 102.188C221.402 102.152 221.75 102.116 222.014 102.104C222.554 102.08 224.018 102.008 224.498 101.996C224.09 102.848 223.55 104.084 223.07 105.128C222.614 106.136 222.074 107.528 221.582 108.176C221.33 108.5 221.126 108.596 220.85 108.596C220.478 108.596 220.13 108.32 220.13 107.78C220.13 106.676 221.27 105.56 223.262 105.56C225.734 105.56 227.93 106.892 229.334 108.104L229.778 107.084C228.482 106.16 226.106 104.72 223.406 104.72C220.97 104.72 219.266 106.1 219.266 107.912C219.266 108.908 219.926 109.556 220.814 109.556C221.438 109.556 221.906 109.328 222.326 108.716C222.842 107.972 223.502 106.34 223.982 105.284C224.534 104.048 225.194 102.512 225.578 101.888C225.674 101.732 225.77 101.612 225.89 101.48L225.29 101C225.122 101.06 224.918 101.108 224.69 101.12C224.186 101.168 222.614 101.24 221.978 101.24C221.726 101.24 221.378 101.228 221.078 101.204ZM228.578 103.832L227.594 103.724C227.63 104.072 227.618 104.48 227.594 104.84C227.462 106.616 226.946 108.884 224.126 110.072L224.918 110.732C227.714 109.328 228.41 107.252 228.578 103.832ZM235.706 100.568L234.566 100.472C234.59 100.724 234.566 101.132 234.518 101.468C234.434 102.092 234.122 103.604 233.834 104.708C233.378 106.4 232.538 108.836 231.818 110.084L232.862 110.432C233.498 109.124 234.302 106.64 234.734 104.936C235.07 103.736 235.322 102.38 235.502 101.516C235.55 101.288 235.634 100.832 235.706 100.568ZM233.054 102.572C232.61 102.572 232.178 102.548 231.614 102.476L231.638 103.412C232.082 103.448 232.502 103.46 233.03 103.46C234.326 103.46 236.138 103.256 237.626 102.92V101.984C236.138 102.356 234.374 102.572 233.054 102.572ZM236.846 104.216V105.116C237.578 105.032 238.322 104.984 239.066 104.984C239.774 104.984 240.47 105.056 241.094 105.128L241.118 104.216C240.47 104.144 239.738 104.12 239.042 104.12C238.274 104.12 237.47 104.156 236.846 104.216ZM237.086 107.132L236.198 107.048C236.09 107.552 236.018 108.008 236.018 108.464C236.018 109.652 237.05 110.228 238.934 110.228C239.81 110.228 240.614 110.156 241.262 110.06L241.298 109.1C240.554 109.244 239.738 109.328 238.946 109.328C237.242 109.328 236.918 108.776 236.918 108.212C236.918 107.9 236.99 107.528 237.086 107.132ZM245.078 101.636L243.914 101.612C243.986 101.888 243.986 102.404 243.986 102.68C243.986 103.376 244.01 104.84 244.118 105.872C244.454 108.98 245.534 110.108 246.674 110.108C247.49 110.108 248.21 109.412 248.942 107.384L248.186 106.532C247.874 107.732 247.31 108.968 246.698 108.968C245.834 108.968 245.258 107.636 245.054 105.632C244.97 104.648 244.958 103.544 244.97 102.8C244.982 102.488 245.018 101.912 245.078 101.636ZM251.318 101.96L250.394 102.284C251.534 103.688 252.266 106.16 252.47 108.32L253.442 107.936C253.262 105.908 252.398 103.352 251.318 101.96ZM256.73 107.084C255.722 107.084 254.894 107.9 254.894 108.908C254.894 109.916 255.722 110.732 256.73 110.732C257.738 110.732 258.554 109.916 258.554 108.908C258.554 107.9 257.738 107.084 256.73 107.084ZM256.73 110.12C256.058 110.12 255.506 109.58 255.506 108.908C255.506 108.236 256.058 107.696 256.73 107.696C257.402 107.696 257.942 108.236 257.942 108.908C257.942 109.58 257.402 110.12 256.73 110.12Z" fill="black"/>
<path d="M36.564 137.944C34.74 138.508 31.236 138.832 28.38 138.964C28.464 139.168 28.572 139.528 28.596 139.756C31.512 139.636 35.064 139.312 37.236 138.676L36.564 137.944ZM28.392 141.328V142.192H37.752V141.328H28.392ZM27.588 144.148V145.024H38.424V144.148H27.588ZM32.544 139.216V147.7C32.544 147.952 32.448 148.036 32.172 148.036C31.908 148.048 30.948 148.06 29.952 148.024C30.096 148.264 30.264 148.672 30.324 148.924C31.596 148.936 32.376 148.912 32.832 148.768C33.288 148.624 33.48 148.348 33.48 147.712V139.216H32.544ZM43.164 145.276V145.972H46.8V145.276H43.164ZM43.128 143.464V144.172H46.368V147.148H43.128V147.844H47.22V143.464H43.128ZM42.732 143.464V148.456H43.56V143.464H42.732ZM40.524 140.14V140.8H43.86V140.14H40.524ZM46.056 140.14V140.8H49.452V140.14H46.056ZM49.08 138.436V147.772C49.08 147.976 49.008 148.048 48.792 148.048C48.576 148.06 47.844 148.072 47.112 148.036C47.244 148.288 47.388 148.708 47.424 148.96C48.432 148.96 49.08 148.948 49.464 148.804C49.848 148.648 49.98 148.348 49.98 147.772V138.436H49.08ZM40.596 138.436V139.132H43.584V141.868H40.596V142.564H44.436V138.436H40.596ZM49.524 138.436H45.516V142.576H49.524V141.892H46.38V139.132H49.524V138.436ZM40.08 138.436V148.972H40.968V138.436H40.08ZM52.152 140.44L52.224 141.34C52.668 141.352 53.184 141.364 53.628 141.364C55.092 141.376 56.664 141.112 57.84 140.788L57.816 139.9C56.436 140.356 54.924 140.512 53.628 140.512C53.112 140.512 52.596 140.488 52.152 140.44ZM56.412 138.484L55.356 138.376C55.32 139.216 55.056 140.272 54.792 141.028C54.3 142.444 53.184 144.58 52.116 145.828L53.04 146.308C54.036 144.964 55.14 142.78 55.716 141.052C56.004 140.2 56.256 139.072 56.412 138.484ZM59.244 142.192H58.296C58.344 143.512 58.476 145.66 58.476 146.572C58.476 147.22 58.14 147.748 57.144 147.748C56.208 147.748 55.74 147.364 55.74 146.812C55.74 146.26 56.34 145.852 57.228 145.852C58.992 145.852 60.372 146.92 61.296 147.76L61.8 146.944C60.816 146.092 59.268 145.084 57.252 145.084C55.908 145.084 54.864 145.78 54.864 146.884C54.864 148.084 55.932 148.612 57.252 148.612C58.74 148.612 59.352 147.832 59.352 146.872C59.352 146.08 59.244 144.256 59.22 143.476C59.208 143.044 59.208 142.684 59.244 142.192ZM61.644 142.504L62.184 141.712C61.608 141.28 60.252 140.5 59.376 140.128L58.896 140.848C59.688 141.22 60.996 141.952 61.644 142.504ZM71.448 139.156L70.548 138.364C70.416 138.58 70.104 138.928 69.864 139.168C69.06 139.984 67.236 141.424 66.324 142.18C65.244 143.092 65.112 143.608 66.24 144.556C67.368 145.48 69.18 147.04 70.032 147.904C70.32 148.204 70.608 148.492 70.86 148.78L71.712 148C70.44 146.716 68.316 145.012 67.224 144.112C66.444 143.464 66.456 143.284 67.176 142.66C68.064 141.916 69.792 140.56 70.62 139.84C70.812 139.672 71.184 139.348 71.448 139.156ZM76.692 139.648V140.608H85.308V139.648H76.692ZM75.672 146.764V147.772H86.328V146.764H75.672ZM88.704 141.556V142.3H92.388V141.556H88.704ZM88.272 139.42V147.64L89.112 147.496V139.42H88.272ZM90.156 137.968V139.984H91.02V137.968H90.156ZM87.444 147.508L87.684 148.432C88.908 148.108 90.576 147.64 92.148 147.196L92.052 146.32C90.348 146.764 88.584 147.244 87.444 147.508ZM90.66 145.216C91.392 146.2 92.196 147.544 92.52 148.384L93.324 147.964C92.964 147.124 92.136 145.816 91.38 144.856L90.66 145.216ZM88.668 139.42V140.26H92.04V143.608H88.668V144.448H92.868V139.42H88.668ZM93.84 138.688V149.008H94.716V139.54H97.68V138.688H93.84ZM97.452 138.688V138.988C97.032 139.948 96.324 141.592 95.652 142.804C96.984 143.848 97.392 144.736 97.392 145.492C97.392 145.924 97.296 146.26 97.02 146.416C96.852 146.512 96.648 146.548 96.444 146.56C96.168 146.572 95.796 146.572 95.412 146.536C95.568 146.8 95.664 147.196 95.676 147.448C96.048 147.472 96.48 147.472 96.816 147.436C97.152 147.4 97.428 147.304 97.656 147.172C98.112 146.872 98.304 146.32 98.292 145.576C98.292 144.724 97.968 143.776 96.636 142.672C97.236 141.592 97.92 140.236 98.448 139.084L97.776 138.652L97.632 138.688H97.452ZM104.46 139.9L104.472 140.872C105.78 141.016 108.108 141.016 109.392 140.872V139.9C108.204 140.08 105.768 140.128 104.46 139.9ZM104.928 144.796L104.064 144.712C103.932 145.288 103.872 145.72 103.872 146.116C103.872 147.244 104.772 147.916 106.776 147.916C108.024 147.916 109.032 147.82 109.776 147.664L109.752 146.656C108.792 146.884 107.856 146.98 106.788 146.98C105.144 146.98 104.76 146.44 104.76 145.888C104.76 145.564 104.82 145.228 104.928 144.796ZM102.18 138.976L101.112 138.892C101.1 139.156 101.064 139.456 101.028 139.732C100.884 140.728 100.488 142.78 100.488 144.544C100.488 146.176 100.692 147.556 100.932 148.408L101.784 148.348C101.772 148.216 101.76 148.048 101.748 147.928C101.748 147.784 101.772 147.556 101.808 147.388C101.916 146.812 102.36 145.552 102.66 144.7L102.156 144.304C101.952 144.796 101.676 145.516 101.472 146.056C101.4 145.468 101.364 144.964 101.364 144.388C101.364 143.032 101.736 140.896 101.964 139.78C102.012 139.564 102.108 139.18 102.18 138.976ZM111.864 141.736L112.308 142.804C113.268 142.42 116.316 141.1 118.296 141.1C119.916 141.1 120.84 142.096 120.84 143.356C120.84 145.804 118.032 146.764 114.9 146.848L115.332 147.844C119.028 147.628 121.884 146.248 121.884 143.368C121.884 141.364 120.3 140.212 118.32 140.212C116.568 140.212 114.204 141.076 113.196 141.4C112.74 141.532 112.308 141.664 111.864 141.736ZM125.676 139.636L124.512 139.612C124.584 139.888 124.584 140.404 124.584 140.68C124.584 141.376 124.608 142.84 124.716 143.872C125.052 146.98 126.132 148.108 127.272 148.108C128.088 148.108 128.808 147.412 129.54 145.384L128.784 144.532C128.472 145.732 127.908 146.968 127.296 146.968C126.432 146.968 125.856 145.636 125.652 143.632C125.568 142.648 125.556 141.544 125.568 140.8C125.58 140.488 125.616 139.912 125.676 139.636ZM131.916 139.96L130.992 140.284C132.132 141.688 132.864 144.16 133.068 146.32L134.04 145.936C133.86 143.908 132.996 141.352 131.916 139.96ZM135.645 140.032L135.753 141.088C137.061 140.812 140.109 140.512 141.405 140.38C140.301 141.028 139.161 142.552 139.161 144.424C139.161 147.112 141.681 148.288 143.913 148.372L144.249 147.388C142.305 147.304 140.109 146.56 140.109 144.22C140.109 142.804 141.153 140.968 142.869 140.416C143.481 140.248 144.525 140.224 145.221 140.236L145.209 139.276C144.405 139.3 143.289 139.372 141.981 139.48C139.761 139.672 137.505 139.888 136.725 139.972C136.485 139.996 136.101 140.02 135.645 140.032ZM153.033 140.476V141.184H156.285V140.476H153.033ZM152.913 142.336V143.044H156.453V142.336H152.913ZM154.269 139.456V142.744H155.001V139.456H154.269ZM152.037 138.424V139.216H157.281V138.424H152.037ZM153.465 143.956V144.64H155.517V146.368H153.465V147.064H156.213V143.956H153.465ZM153.093 143.956V147.532H153.777V143.956H153.093ZM156.945 138.424V147.832C156.945 148.024 156.897 148.072 156.717 148.072C156.513 148.084 155.889 148.096 155.229 148.06C155.361 148.312 155.469 148.72 155.505 148.96C156.405 148.96 157.005 148.948 157.341 148.792C157.677 148.648 157.785 148.36 157.785 147.832V138.424H156.945ZM151.581 138.424V142.732C151.581 144.508 151.509 146.872 150.561 148.54C150.765 148.636 151.125 148.888 151.269 149.044C152.277 147.268 152.409 144.616 152.409 142.732V138.424H151.581ZM147.585 141.556V142.276H150.669V141.556H147.585ZM147.657 138.352V139.072H150.633V138.352H147.657ZM147.585 143.164V143.884H150.669V143.164H147.585ZM147.093 139.924V140.668H150.969V139.924H147.093ZM148.005 144.784V145.528H149.901V147.532H148.005V148.276H150.657V144.784H148.005ZM147.561 144.784V148.84H148.305V144.784H147.561ZM159.189 144.94L160.077 145.852C160.257 145.588 160.533 145.204 160.773 144.892C161.397 144.148 162.381 142.828 162.945 142.132C163.365 141.628 163.593 141.532 164.097 142.096C164.661 142.708 165.573 143.86 166.353 144.748C167.181 145.684 168.261 146.932 169.161 147.784L169.941 146.92C168.861 145.96 167.661 144.7 166.941 143.896C166.173 143.08 165.249 141.892 164.529 141.16C163.737 140.344 163.113 140.464 162.417 141.28C161.697 142.132 160.701 143.5 160.053 144.148C159.741 144.484 159.489 144.712 159.189 144.94ZM166.941 139.9L166.245 140.2C166.653 140.752 167.073 141.508 167.361 142.144L168.081 141.82C167.793 141.244 167.241 140.356 166.941 139.9ZM168.489 139.3L167.817 139.612C168.213 140.14 168.645 140.884 168.969 141.508L169.665 141.172C169.377 140.62 168.801 139.72 168.489 139.3ZM175.941 138.568L174.801 138.472C174.825 138.724 174.801 139.132 174.753 139.468C174.669 140.092 174.357 141.604 174.069 142.708C173.613 144.4 172.773 146.836 172.053 148.084L173.097 148.432C173.733 147.124 174.537 144.64 174.969 142.936C175.305 141.736 175.557 140.38 175.737 139.516C175.785 139.288 175.869 138.832 175.941 138.568ZM173.289 140.572C172.845 140.572 172.413 140.548 171.849 140.476L171.873 141.412C172.317 141.448 172.737 141.46 173.265 141.46C174.561 141.46 176.373 141.256 177.861 140.92V139.984C176.373 140.356 174.609 140.572 173.289 140.572ZM177.081 142.216V143.116C177.813 143.032 178.557 142.984 179.301 142.984C180.009 142.984 180.705 143.056 181.329 143.128L181.353 142.216C180.705 142.144 179.973 142.12 179.277 142.12C178.509 142.12 177.705 142.156 177.081 142.216ZM177.321 145.132L176.433 145.048C176.325 145.552 176.253 146.008 176.253 146.464C176.253 147.652 177.285 148.228 179.169 148.228C180.045 148.228 180.849 148.156 181.497 148.06L181.533 147.1C180.789 147.244 179.973 147.328 179.181 147.328C177.477 147.328 177.153 146.776 177.153 146.212C177.153 145.9 177.225 145.528 177.321 145.132ZM185.313 139.636L184.149 139.612C184.221 139.888 184.221 140.404 184.221 140.68C184.221 141.376 184.245 142.84 184.353 143.872C184.689 146.98 185.769 148.108 186.909 148.108C187.725 148.108 188.445 147.412 189.177 145.384L188.421 144.532C188.109 145.732 187.545 146.968 186.933 146.968C186.069 146.968 185.493 145.636 185.289 143.632C185.205 142.648 185.193 141.544 185.205 140.8C185.217 140.488 185.253 139.912 185.313 139.636ZM191.553 139.96L190.629 140.284C191.769 141.688 192.501 144.16 192.705 146.32L193.677 145.936C193.497 143.908 192.633 141.352 191.553 139.96ZM200.637 142.168C199.929 142.168 199.353 142.744 199.353 143.44C199.353 144.148 199.929 144.724 200.637 144.724C201.333 144.724 201.909 144.148 201.909 143.44C201.909 142.744 201.333 142.168 200.637 142.168ZM209.373 141.976V142.768H215.313V141.976H209.373ZM207.357 144.712V145.552H217.965V144.712H207.357ZM212.181 143.836V147.868C212.181 148.048 212.121 148.108 211.881 148.12C211.641 148.132 210.825 148.132 209.901 148.108C210.045 148.348 210.225 148.72 210.285 148.972C211.377 148.972 212.073 148.96 212.505 148.828C212.961 148.696 213.105 148.432 213.105 147.892V143.836H212.181ZM215.037 141.976V142.156C214.473 142.768 213.321 143.56 212.313 143.992C212.469 144.124 212.709 144.364 212.817 144.52C213.957 144.028 215.217 143.2 216.033 142.372L215.457 141.928L215.265 141.976H215.037ZM207.597 139.924V142.6H208.449V140.74H216.873V142.6H217.761V139.924H207.597ZM216.177 138.004C215.841 138.64 215.229 139.528 214.749 140.092L215.457 140.392C215.961 139.864 216.609 139.06 217.113 138.316L216.177 138.004ZM208.413 138.424C208.857 138.94 209.337 139.66 209.529 140.116L210.333 139.732C210.129 139.252 209.637 138.568 209.169 138.064L208.413 138.424ZM211.497 138.16C211.893 138.748 212.289 139.54 212.433 140.044L213.261 139.72C213.117 139.216 212.685 138.436 212.277 137.872L211.497 138.16ZM227.205 139.324L226.269 139.588C226.977 142.048 227.793 143.836 229.125 145.252L229.749 144.412C227.985 142.816 227.457 140.776 227.205 139.324ZM219.705 139.96L219.777 140.968C220.029 140.932 220.233 140.896 220.461 140.872C220.893 140.812 221.877 140.692 222.489 140.596C221.433 141.796 220.257 143.512 220.257 145.756C220.257 147.736 221.625 148.792 223.521 148.792C227.277 148.792 227.961 145.084 227.337 141.652L226.461 140.032C227.373 144.736 226.401 147.808 223.545 147.808C222.309 147.808 221.193 147.244 221.193 145.552C221.193 143.08 223.029 140.98 223.785 140.416C223.965 140.344 224.265 140.26 224.421 140.212L224.145 139.36C223.437 139.636 221.421 139.912 220.353 139.96C220.137 139.972 219.885 139.972 219.705 139.96ZM228.261 138.64L227.661 138.856C227.925 139.312 228.237 140.02 228.453 140.56L229.077 140.332C228.873 139.84 228.501 139.096 228.261 138.64ZM229.485 138.172L228.897 138.4C229.173 138.856 229.485 139.552 229.701 140.092L230.337 139.852C230.109 139.348 229.737 138.616 229.485 138.172ZM235.941 138.568L234.801 138.472C234.825 138.724 234.801 139.132 234.753 139.468C234.669 140.092 234.357 141.604 234.069 142.708C233.613 144.4 232.773 146.836 232.053 148.084L233.097 148.432C233.733 147.124 234.537 144.64 234.969 142.936C235.305 141.736 235.557 140.38 235.737 139.516C235.785 139.288 235.869 138.832 235.941 138.568ZM233.289 140.572C232.845 140.572 232.413 140.548 231.849 140.476L231.873 141.412C232.317 141.448 232.737 141.46 233.265 141.46C234.561 141.46 236.373 141.256 237.861 140.92V139.984C236.373 140.356 234.609 140.572 233.289 140.572ZM237.081 142.216V143.116C237.813 143.032 238.557 142.984 239.301 142.984C240.009 142.984 240.705 143.056 241.329 143.128L241.353 142.216C240.705 142.144 239.973 142.12 239.277 142.12C238.509 142.12 237.705 142.156 237.081 142.216ZM237.321 145.132L236.433 145.048C236.325 145.552 236.253 146.008 236.253 146.464C236.253 147.652 237.285 148.228 239.169 148.228C240.045 148.228 240.849 148.156 241.497 148.06L241.533 147.1C240.789 147.244 239.973 147.328 239.181 147.328C237.477 147.328 237.153 146.776 237.153 146.212C237.153 145.9 237.225 145.528 237.321 145.132ZM245.313 139.636L244.149 139.612C244.221 139.888 244.221 140.404 244.221 140.68C244.221 141.376 244.245 142.84 244.353 143.872C244.689 146.98 245.769 148.108 246.909 148.108C247.725 148.108 248.445 147.412 249.177 145.384L248.421 144.532C248.109 145.732 247.545 146.968 246.933 146.968C246.069 146.968 245.493 145.636 245.289 143.632C245.205 142.648 245.193 141.544 245.205 140.8C245.217 140.488 245.253 139.912 245.313 139.636ZM251.553 139.96L250.629 140.284C251.769 141.688 252.501 144.16 252.705 146.32L253.677 145.936C253.497 143.908 252.633 141.352 251.553 139.96Z" fill="black"/>
<path d="M28.152 178.44L28.224 179.34C28.668 179.352 29.184 179.364 29.628 179.364C31.092 179.376 32.664 179.112 33.84 178.788L33.816 177.9C32.436 178.356 30.924 178.512 29.628 178.512C29.112 178.512 28.596 178.488 28.152 178.44ZM32.412 176.484L31.356 176.376C31.32 177.216 31.056 178.272 30.792 179.028C30.3 180.444 29.184 182.58 28.116 183.828L29.04 184.308C30.036 182.964 31.14 180.78 31.716 179.052C32.004 178.2 32.256 177.072 32.412 176.484ZM35.244 180.192H34.296C34.344 181.512 34.476 183.66 34.476 184.572C34.476 185.22 34.14 185.748 33.144 185.748C32.208 185.748 31.74 185.364 31.74 184.812C31.74 184.26 32.34 183.852 33.228 183.852C34.992 183.852 36.372 184.92 37.296 185.76L37.8 184.944C36.816 184.092 35.268 183.084 33.252 183.084C31.908 183.084 30.864 183.78 30.864 184.884C30.864 186.084 31.932 186.612 33.252 186.612C34.74 186.612 35.352 185.832 35.352 184.872C35.352 184.08 35.244 182.256 35.22 181.476C35.208 181.044 35.208 180.684 35.244 180.192ZM37.644 180.504L38.184 179.712C37.608 179.28 36.252 178.5 35.376 178.128L34.896 178.848C35.688 179.22 36.996 179.952 37.644 180.504ZM41.856 177.168L41.88 178.152C42.144 178.116 42.408 178.104 42.684 178.08C43.308 178.044 45.708 177.948 46.344 177.912C45.744 178.452 44.232 179.712 43.56 180.264C42.876 180.852 41.328 182.148 40.332 182.964L41.028 183.66C42.54 182.112 43.62 181.272 45.612 181.272C47.184 181.272 48.312 182.148 48.312 183.336C48.312 184.836 47.028 185.676 44.988 185.676C44.04 185.676 43.38 185.328 43.38 184.74C43.38 184.32 43.8 183.984 44.352 183.984C45.312 183.984 45.9 184.716 45.972 185.736L46.836 185.592C46.752 184.38 45.948 183.252 44.352 183.252C43.248 183.252 42.504 183.996 42.504 184.812C42.504 185.82 43.5 186.528 45.132 186.528C47.676 186.528 49.272 185.268 49.272 183.336C49.272 181.716 47.844 180.528 45.852 180.528C45.312 180.528 44.736 180.588 44.184 180.768C45.12 180 46.752 178.596 47.34 178.14C47.568 177.96 47.808 177.804 48.024 177.66L47.472 176.952C47.34 177 47.172 177.024 46.812 177.06C46.176 177.12 43.332 177.204 42.696 177.204C42.456 177.204 42.12 177.192 41.856 177.168ZM51.552 182.94L52.44 183.852C52.62 183.588 52.896 183.204 53.136 182.892C53.76 182.148 54.744 180.828 55.308 180.132C55.728 179.628 55.956 179.532 56.46 180.096C57.024 180.708 57.936 181.86 58.716 182.748C59.544 183.684 60.624 184.932 61.524 185.784L62.304 184.92C61.224 183.96 60.024 182.7 59.304 181.896C58.536 181.08 57.612 179.892 56.892 179.16C56.1 178.344 55.476 178.464 54.78 179.28C54.06 180.132 53.064 181.5 52.416 182.148C52.104 182.484 51.852 182.712 51.552 182.94ZM59.304 177.9L58.608 178.2C59.016 178.752 59.436 179.508 59.724 180.144L60.444 179.82C60.156 179.244 59.604 178.356 59.304 177.9ZM60.852 177.3L60.18 177.612C60.576 178.14 61.008 178.884 61.332 179.508L62.028 179.172C61.74 178.62 61.164 177.72 60.852 177.3ZM71.448 177.156L70.548 176.364C70.416 176.58 70.104 176.928 69.864 177.168C69.06 177.984 67.236 179.424 66.324 180.18C65.244 181.092 65.112 181.608 66.24 182.556C67.368 183.48 69.18 185.04 70.032 185.904C70.32 186.204 70.608 186.492 70.86 186.78L71.712 186C70.44 184.716 68.316 183.012 67.224 182.112C66.444 181.464 66.456 181.284 67.176 180.66C68.064 179.916 69.792 178.56 70.62 177.84C70.812 177.672 71.184 177.348 71.448 177.156ZM78.276 186.672L79.092 185.976C78.336 185.1 77.256 184.02 76.392 183.324L75.612 184.008C76.464 184.704 77.496 185.724 78.276 186.672ZM87.96 178.332V179.22H98.064V178.332H87.96ZM87.636 185.52V186.444H98.364V185.52H87.636ZM91.248 178.92V186H92.136V178.92H91.248ZM93.792 178.92V186.012H94.692V178.92H93.792ZM96.6 180.252C96.312 181.452 95.748 183.144 95.268 184.176L96.072 184.404C96.564 183.396 97.128 181.812 97.56 180.492L96.6 180.252ZM95.616 175.932C95.34 176.604 94.812 177.552 94.392 178.152L95.196 178.44C95.628 177.864 96.156 177 96.588 176.22L95.616 175.932ZM88.524 180.588C89.088 181.788 89.556 183.36 89.676 184.392L90.54 184.176C90.408 183.132 89.928 181.572 89.328 180.372L88.524 180.588ZM89.556 176.268C90.036 176.892 90.54 177.78 90.732 178.368L91.572 177.996C91.356 177.432 90.852 176.58 90.348 175.944L89.556 176.268ZM105.564 177.096L104.496 176.664C104.352 177.024 104.196 177.312 104.064 177.6C103.404 178.752 100.776 183.672 99.9 186.096L100.932 186.456C101.1 185.868 101.604 184.44 101.976 183.732C102.432 182.784 103.344 181.8 104.304 181.8C104.844 181.8 105.156 182.124 105.18 182.64C105.216 183.3 105.204 184.224 105.24 184.932C105.276 185.64 105.696 186.444 106.98 186.444C108.72 186.444 109.728 185.1 110.364 183.168L109.56 182.52C109.26 183.804 108.468 185.46 107.124 185.46C106.608 185.46 106.2 185.196 106.164 184.596C106.116 184.008 106.14 183.096 106.116 182.388C106.08 181.44 105.504 180.924 104.7 180.924C104.124 180.924 103.5 181.152 102.924 181.668C103.536 180.504 104.64 178.512 105.18 177.684C105.312 177.456 105.456 177.24 105.564 177.096ZM111.338 178.104L111.446 179.16C112.742 178.884 115.802 178.584 117.086 178.452C115.994 179.1 114.854 180.636 114.854 182.496C114.854 185.184 117.374 186.36 119.594 186.444L119.942 185.46C117.998 185.388 115.802 184.632 115.802 182.292C115.802 180.876 116.846 179.04 118.562 178.488C119.174 178.32 120.218 178.296 120.914 178.308L120.902 177.348C120.098 177.372 118.982 177.444 117.662 177.552C115.454 177.744 113.186 177.96 112.418 178.044C112.178 178.068 111.794 178.092 111.338 178.104ZM119.174 179.772L118.574 180.036C118.934 180.54 119.27 181.152 119.546 181.728L120.17 181.452C119.906 180.912 119.45 180.168 119.174 179.772ZM120.482 179.268L119.894 179.544C120.266 180.048 120.626 180.648 120.914 181.224L121.526 180.924C121.25 180.396 120.782 179.664 120.482 179.268ZM125.078 177.636L123.914 177.612C123.986 177.888 123.986 178.404 123.986 178.68C123.986 179.376 124.01 180.84 124.118 181.872C124.454 184.98 125.534 186.108 126.674 186.108C127.49 186.108 128.21 185.412 128.942 183.384L128.186 182.532C127.874 183.732 127.31 184.968 126.698 184.968C125.834 184.968 125.258 183.636 125.054 181.632C124.97 180.648 124.958 179.544 124.97 178.8C124.982 178.488 125.018 177.912 125.078 177.636ZM131.318 177.96L130.394 178.284C131.534 179.688 132.266 182.16 132.47 184.32L133.442 183.936C133.262 181.908 132.398 179.352 131.318 177.96ZM137.258 177.168L137.282 178.152C137.546 178.116 137.81 178.104 138.086 178.08C138.71 178.044 141.11 177.948 141.746 177.912C141.146 178.452 139.634 179.712 138.962 180.264C138.278 180.852 136.73 182.148 135.734 182.964L136.43 183.66C137.942 182.112 139.022 181.272 141.014 181.272C142.586 181.272 143.714 182.148 143.714 183.336C143.714 184.836 142.43 185.676 140.39 185.676C139.442 185.676 138.782 185.328 138.782 184.74C138.782 184.32 139.202 183.984 139.754 183.984C140.714 183.984 141.302 184.716 141.374 185.736L142.238 185.592C142.154 184.38 141.35 183.252 139.754 183.252C138.65 183.252 137.906 183.996 137.906 184.812C137.906 185.82 138.902 186.528 140.534 186.528C143.078 186.528 144.674 185.268 144.674 183.336C144.674 181.716 143.246 180.528 141.254 180.528C140.714 180.528 140.138 180.588 139.586 180.768C140.522 180 142.154 178.596 142.742 178.14C142.97 177.96 143.21 177.804 143.426 177.66L142.874 176.952C142.742 177 142.574 177.024 142.214 177.06C141.578 177.12 138.734 177.204 138.098 177.204C137.858 177.204 137.522 177.192 137.258 177.168ZM149.402 178.392H155.426V179.244H149.402V178.392ZM149.402 176.952H155.426V177.78H149.402V176.952ZM148.526 176.304V179.88H156.314V176.304H148.526ZM147.098 180.552V181.296H157.67V180.552H147.098ZM152.426 182.052V182.784H156.698V182.052H152.426ZM148.658 182.124V182.796H151.622V182.124H148.658ZM148.658 183.636V184.308H151.622V183.636H148.658ZM153.686 182.724L152.954 182.94C153.746 184.908 155.294 186.336 157.406 186.96C157.526 186.744 157.766 186.42 157.958 186.252C155.918 185.748 154.382 184.44 153.686 182.724ZM156.422 182.052V182.196C155.762 184.212 153.914 185.616 151.994 186.192C152.162 186.36 152.39 186.684 152.486 186.9C154.574 186.18 156.506 184.68 157.298 182.244L156.746 182.016L156.59 182.052H156.422ZM146.99 185.472L147.074 186.276C148.31 186.132 149.978 185.928 151.598 185.736V184.992C149.906 185.184 148.166 185.376 146.99 185.472ZM151.142 180.792V186.96H152.006V180.792H151.142ZM148.13 180.804V185.688H148.97V180.804H148.13ZM159.554 178.068V183.78H160.454V178.956H168.29V183.72H169.226V178.068H159.554ZM160.034 182.148V183.024H168.83V182.148H160.034ZM163.898 175.92V186.948H164.834V175.92H163.898ZM175.706 176.568L174.638 176.508C174.662 176.724 174.662 176.94 174.626 177.36C174.494 179.016 173.93 182.604 173.93 183.888C173.93 185.844 175.25 186.564 176.87 186.564C179.246 186.564 180.842 185.472 180.842 183.684C180.842 182.664 180.434 181.824 179.606 180.912L178.55 181.14C179.438 181.884 179.87 182.772 179.87 183.576C179.87 184.824 178.706 185.616 176.882 185.616C175.514 185.616 174.854 184.908 174.854 183.744C174.854 182.448 175.394 178.752 175.55 177.408C175.598 177.144 175.634 176.892 175.706 176.568ZM171.866 178.164L171.806 179.04C172.862 179.328 174.302 179.508 175.358 179.508C176.33 179.508 177.038 179.472 177.806 179.4L177.83 178.488C177.122 178.596 176.294 178.644 175.382 178.644C174.314 178.644 172.874 178.488 171.866 178.164ZM171.566 181.152L171.518 182.064C172.61 182.4 174.062 182.544 175.37 182.544C176.174 182.544 176.918 182.52 177.722 182.436L177.734 181.524C176.894 181.644 176.066 181.668 175.238 181.668C174.134 181.668 172.73 181.56 171.566 181.152ZM188.354 176.712C189.518 178.068 191.642 179.496 193.442 180.3C193.598 180.048 193.814 179.724 194.018 179.508C192.146 178.8 190.058 177.42 188.75 175.908H187.85C186.878 177.252 184.862 178.764 182.822 179.64C183.014 179.844 183.242 180.168 183.35 180.372C185.342 179.448 187.322 177.984 188.354 176.712ZM185.51 180.972V181.668H191.258V180.972H185.51ZM187.898 178.032V179.664H188.822V178.032H187.898ZM183.614 186.012L183.734 186.864C185.114 186.732 187.094 186.54 188.978 186.348L188.966 185.532C186.986 185.724 184.946 185.904 183.614 186.012ZM188.45 183.12L187.682 183.36C188.69 185.34 190.646 186.504 193.286 186.972C193.406 186.732 193.646 186.372 193.838 186.18C191.282 185.82 189.338 184.812 188.45 183.12ZM192.506 182.928C191.726 183.528 190.406 184.332 189.434 184.8L190.01 185.292C190.994 184.824 192.23 184.128 193.178 183.456L192.506 182.928ZM185.51 179.232V179.964H190.934V182.736H185.51V183.468H191.834V179.232H185.51ZM184.97 179.232V186.216L185.858 186.12V179.232H184.97ZM194.954 182.94L195.842 183.852C196.022 183.588 196.298 183.204 196.538 182.892C197.162 182.148 198.146 180.828 198.71 180.132C199.13 179.628 199.358 179.532 199.862 180.096C200.426 180.708 201.338 181.86 202.118 182.748C202.946 183.684 204.026 184.932 204.926 185.784L205.706 184.92C204.626 183.96 203.426 182.7 202.706 181.896C201.938 181.08 201.014 179.892 200.294 179.16C199.502 178.344 198.878 178.464 198.182 179.28C197.462 180.132 196.466 181.5 195.818 182.148C195.506 182.484 195.254 182.712 194.954 182.94ZM202.706 177.9L202.01 178.2C202.418 178.752 202.838 179.508 203.126 180.144L203.846 179.82C203.558 179.244 203.006 178.356 202.706 177.9ZM204.254 177.3L203.582 177.612C203.978 178.14 204.41 178.884 204.734 179.508L205.43 179.172C205.142 178.62 204.566 177.72 204.254 177.3ZM206.93 178.032L207.038 179.088C208.346 178.812 211.394 178.512 212.69 178.38C211.586 179.028 210.446 180.552 210.446 182.424C210.446 185.112 212.966 186.288 215.198 186.372L215.534 185.388C213.59 185.304 211.394 184.56 211.394 182.22C211.394 180.804 212.438 178.968 214.154 178.416C214.766 178.248 215.81 178.224 216.506 178.236L216.494 177.276C215.69 177.3 214.574 177.372 213.266 177.48C211.046 177.672 208.79 177.888 208.01 177.972C207.77 177.996 207.386 178.02 206.93 178.032ZM220.598 177.636L219.434 177.612C219.506 177.888 219.506 178.404 219.506 178.68C219.506 179.376 219.53 180.84 219.638 181.872C219.974 184.98 221.054 186.108 222.194 186.108C223.01 186.108 223.73 185.412 224.462 183.384L223.706 182.532C223.394 183.732 222.83 184.968 222.218 184.968C221.354 184.968 220.778 183.636 220.574 181.632C220.49 180.648 220.478 179.544 220.49 178.8C220.502 178.488 220.538 177.912 220.598 177.636ZM226.838 177.96L225.914 178.284C227.054 179.688 227.786 182.16 227.99 184.32L228.962 183.936C228.782 181.908 227.918 179.352 226.838 177.96ZM232.778 177.168L232.802 178.152C233.066 178.116 233.33 178.104 233.606 178.08C234.23 178.044 236.63 177.948 237.266 177.912C236.666 178.452 235.154 179.712 234.482 180.264C233.798 180.852 232.25 182.148 231.254 182.964L231.95 183.66C233.462 182.112 234.542 181.272 236.534 181.272C238.106 181.272 239.234 182.148 239.234 183.336C239.234 184.836 237.95 185.676 235.91 185.676C234.962 185.676 234.302 185.328 234.302 184.74C234.302 184.32 234.722 183.984 235.274 183.984C236.234 183.984 236.822 184.716 236.894 185.736L237.758 185.592C237.674 184.38 236.87 183.252 235.274 183.252C234.17 183.252 233.426 183.996 233.426 184.812C233.426 185.82 234.422 186.528 236.054 186.528C238.598 186.528 240.194 185.268 240.194 183.336C240.194 181.716 238.766 180.528 236.774 180.528C236.234 180.528 235.658 180.588 235.106 180.768C236.042 180 237.674 178.596 238.262 178.14C238.49 177.96 238.73 177.804 238.946 177.66L238.394 176.952C238.262 177 238.094 177.024 237.734 177.06C237.098 177.12 234.254 177.204 233.618 177.204C233.378 177.204 233.042 177.192 232.778 177.168ZM244.922 178.392H250.946V179.244H244.922V178.392ZM244.922 176.952H250.946V177.78H244.922V176.952ZM244.046 176.304V179.88H251.834V176.304H244.046ZM242.618 180.552V181.296H253.19V180.552H242.618ZM247.946 182.052V182.784H252.218V182.052H247.946ZM244.178 182.124V182.796H247.142V182.124H244.178ZM244.178 183.636V184.308H247.142V183.636H244.178ZM249.206 182.724L248.474 182.94C249.266 184.908 250.814 186.336 252.926 186.96C253.046 186.744 253.286 186.42 253.478 186.252C251.438 185.748 249.902 184.44 249.206 182.724ZM251.942 182.052V182.196C251.282 184.212 249.434 185.616 247.514 186.192C247.682 186.36 247.91 186.684 248.006 186.9C250.094 186.18 252.026 184.68 252.818 182.244L252.266 182.016L252.11 182.052H251.942ZM242.51 185.472L242.594 186.276C243.83 186.132 245.498 185.928 247.118 185.736V184.992C245.426 185.184 243.686 185.376 242.51 185.472ZM246.662 180.792V186.96H247.526V180.792H246.662ZM243.65 180.804V185.688H244.49V180.804H243.65ZM255.074 178.068V183.78H255.974V178.956H263.81V183.72H264.746V178.068H255.074ZM255.554 182.148V183.024H264.35V182.148H255.554ZM259.418 175.92V186.948H260.354V175.92H259.418ZM271.226 176.568L270.158 176.508C270.182 176.724 270.182 176.94 270.146 177.36C270.014 179.016 269.45 182.604 269.45 183.888C269.45 185.844 270.77 186.564 272.39 186.564C274.766 186.564 276.362 185.472 276.362 183.684C276.362 182.664 275.954 181.824 275.126 180.912L274.07 181.14C274.958 181.884 275.39 182.772 275.39 183.576C275.39 184.824 274.226 185.616 272.402 185.616C271.034 185.616 270.374 184.908 270.374 183.744C270.374 182.448 270.914 178.752 271.07 177.408C271.118 177.144 271.154 176.892 271.226 176.568ZM267.386 178.164L267.326 179.04C268.382 179.328 269.822 179.508 270.878 179.508C271.85 179.508 272.558 179.472 273.326 179.4L273.35 178.488C272.642 178.596 271.814 178.644 270.902 178.644C269.834 178.644 268.394 178.488 267.386 178.164ZM267.086 181.152L267.038 182.064C268.13 182.4 269.582 182.544 270.89 182.544C271.694 182.544 272.438 182.52 273.242 182.436L273.254 181.524C272.414 181.644 271.586 181.668 270.758 181.668C269.654 181.668 268.25 181.56 267.086 181.152ZM285.35 175.944V184.284H286.202V175.944H285.35ZM281.174 180.888L281.51 181.68L288.734 178.872L288.386 178.092L281.174 180.888ZM282.686 177.12V185.136C282.686 186.468 283.106 186.804 284.558 186.804C284.882 186.804 287.354 186.804 287.702 186.804C289.034 186.804 289.322 186.264 289.478 184.608C289.214 184.548 288.854 184.392 288.638 184.236C288.542 185.652 288.41 185.988 287.678 185.988C287.15 185.988 285.002 185.988 284.594 185.988C283.742 185.988 283.574 185.832 283.574 185.148V177.12H282.686ZM288.086 178.296C288.086 180.636 288.062 182.208 287.966 182.592C287.882 182.904 287.75 182.952 287.546 182.952C287.39 182.952 286.958 182.952 286.622 182.94C286.73 183.144 286.826 183.516 286.85 183.768C287.21 183.78 287.738 183.768 288.062 183.684C288.434 183.588 288.686 183.36 288.782 182.808C288.902 182.292 288.926 180.564 288.938 178.38L288.974 178.236L288.35 177.972L288.194 178.116L287.978 178.296H288.086ZM281.114 175.968C280.442 177.792 279.326 179.592 278.138 180.756C278.294 180.96 278.546 181.428 278.642 181.632C279.926 180.288 281.162 178.248 281.942 176.232L281.114 175.968ZM279.842 179.064V186.948H280.718V178.2L280.706 178.188L279.842 179.064ZM296.678 177.816L295.682 177.792C295.562 179.04 295.31 180.396 294.962 181.536C294.35 183.564 293.702 184.38 293.138 184.38C292.598 184.38 291.914 183.708 291.914 182.196C291.914 180.432 293.558 178.26 296.198 178.26C298.502 178.26 299.834 179.844 299.834 181.764C299.834 183.84 298.322 184.992 296.786 185.34C296.498 185.4 296.138 185.448 295.754 185.484L296.306 186.372C299.162 186 300.818 184.32 300.818 181.812C300.818 179.376 299.03 177.396 296.222 177.396C293.282 177.396 290.966 179.664 290.966 182.268C290.966 184.26 292.034 185.484 293.114 185.484C294.218 185.484 295.178 184.212 295.91 181.752C296.282 180.468 296.522 179.064 296.678 177.816ZM307.298 176.292C307.214 177.888 307.214 183.66 302.318 186.156C302.594 186.36 302.894 186.636 303.05 186.864C308.018 184.164 308.198 178.176 308.294 176.292H307.298ZM308.258 176.532L307.394 176.616C307.478 177.72 307.814 184.428 312.902 186.864C313.046 186.612 313.322 186.312 313.586 186.108C308.642 183.84 308.294 177.468 308.258 176.532ZM319.166 176.64L318.062 176.532C318.062 177.456 317.894 178.536 317.678 179.484C317.354 180.96 316.394 184.164 315.026 185.988L315.998 186.384C317.354 184.188 318.218 181.2 318.626 179.52C318.782 178.776 318.95 177.792 319.022 177.36C319.07 177.12 319.118 176.868 319.166 176.64ZM323.306 177.924L322.43 178.32C323.27 179.304 324.206 181.428 324.566 182.664L325.49 182.22C325.094 181.104 324.05 178.896 323.306 177.924ZM314.846 179.28L314.954 180.312C315.254 180.264 315.758 180.204 316.034 180.168C316.766 180.096 319.01 179.832 319.814 179.832C320.582 179.832 321.086 180.036 321.086 181.128C321.086 182.424 320.906 183.996 320.522 184.8C320.27 185.328 319.91 185.424 319.466 185.424C319.13 185.424 318.506 185.328 318.002 185.172L318.158 186.18C318.542 186.264 319.106 186.348 319.574 186.348C320.342 186.348 320.942 186.156 321.326 185.352C321.818 184.356 322.01 182.448 322.01 181.02C322.01 179.388 321.134 178.98 320.066 178.98C319.25 178.98 316.814 179.256 315.926 179.28C315.542 179.292 315.23 179.292 314.846 179.28ZM329.93 176.592L329.69 177.516C330.614 177.756 333.206 178.284 334.358 178.44L334.586 177.528C333.518 177.42 330.962 176.928 329.93 176.592ZM329.666 178.788L328.658 178.656C328.586 179.904 328.286 182.424 328.046 183.516L328.946 183.732C329.018 183.54 329.126 183.348 329.306 183.144C330.146 182.124 331.442 181.536 333.014 181.536C334.238 181.536 335.138 182.22 335.138 183.168C335.138 184.812 333.29 185.904 329.498 185.448L329.786 186.42C334.238 186.792 336.146 185.34 336.146 183.204C336.146 181.788 334.922 180.684 333.086 180.684C331.646 180.684 330.326 181.152 329.174 182.16C329.294 181.38 329.51 179.604 329.666 178.788ZM36.588 192.984L35.988 192.516C35.796 192.576 35.472 192.612 35.088 192.612C34.632 192.612 30.924 192.612 30.456 192.612C30.084 192.612 29.4 192.564 29.244 192.54V193.62C29.376 193.608 30.024 193.56 30.456 193.56C30.864 193.56 34.704 193.56 35.136 193.56C34.824 194.556 33.948 195.984 33.132 196.908C31.896 198.276 30.132 199.716 28.188 200.46L28.956 201.264C30.852 200.4 32.568 198.972 33.912 197.472C34.908 196.368 35.82 194.688 36.3 193.5C36.36 193.344 36.516 193.08 36.588 192.984ZM34.068 196.848L33.384 197.52C34.68 198.66 36.084 200.196 36.948 201.336L37.776 200.604C36.96 199.608 35.364 197.928 34.068 196.848ZM43.032 199.944C43.032 200.388 43.02 200.988 42.96 201.372H44.124C44.076 200.976 44.052 200.328 44.052 199.944C44.052 199.38 44.04 194.832 44.04 192.972C44.04 192.6 44.076 192.084 44.124 191.712H42.948C43.008 192.096 43.032 192.624 43.032 192.972C43.032 193.968 43.032 199.272 43.032 199.944ZM43.824 194.868V195.924C45.132 196.332 47.376 197.184 48.744 197.916L49.164 196.896C47.832 196.248 45.408 195.324 43.824 194.868ZM53.664 200.628L54.348 201.216C54.54 201.108 54.732 201.048 54.852 201.012C57.852 200.136 60.324 198.66 61.884 196.728L61.344 195.888C59.844 197.82 57.072 199.392 54.768 199.98C54.768 199.368 54.768 194.304 54.768 193.164C54.768 192.828 54.816 192.372 54.852 192.084H53.676C53.724 192.312 53.772 192.852 53.772 193.176C53.772 194.316 53.772 199.284 53.772 200.04C53.772 200.268 53.748 200.436 53.664 200.628ZM72.588 192.984L71.988 192.516C71.796 192.576 71.472 192.612 71.088 192.612C70.632 192.612 66.924 192.612 66.456 192.612C66.084 192.612 65.4 192.564 65.244 192.54V193.62C65.376 193.608 66.024 193.56 66.456 193.56C66.864 193.56 70.704 193.56 71.136 193.56C70.824 194.556 69.948 195.984 69.132 196.908C67.896 198.276 66.132 199.716 64.188 200.46L64.956 201.264C66.852 200.4 68.568 198.972 69.912 197.472C70.908 196.368 71.82 194.688 72.3 193.5C72.36 193.344 72.516 193.08 72.588 192.984ZM70.068 196.848L69.384 197.52C70.68 198.66 72.084 200.196 72.948 201.336L73.776 200.604C72.96 199.608 71.364 197.928 70.068 196.848ZM76.152 193.44L76.224 194.34C76.668 194.352 77.184 194.364 77.628 194.364C79.092 194.376 80.664 194.112 81.84 193.788L81.816 192.9C80.436 193.356 78.924 193.512 77.628 193.512C77.112 193.512 76.596 193.488 76.152 193.44ZM80.412 191.484L79.356 191.376C79.32 192.216 79.056 193.272 78.792 194.028C78.3 195.444 77.184 197.58 76.116 198.828L77.04 199.308C78.036 197.964 79.14 195.78 79.716 194.052C80.004 193.2 80.256 192.072 80.412 191.484ZM83.244 195.192H82.296C82.344 196.512 82.476 198.66 82.476 199.572C82.476 200.22 82.14 200.748 81.144 200.748C80.208 200.748 79.74 200.364 79.74 199.812C79.74 199.26 80.34 198.852 81.228 198.852C82.992 198.852 84.372 199.92 85.296 200.76L85.8 199.944C84.816 199.092 83.268 198.084 81.252 198.084C79.908 198.084 78.864 198.78 78.864 199.884C78.864 201.084 79.932 201.612 81.252 201.612C82.74 201.612 83.352 200.832 83.352 199.872C83.352 199.08 83.244 197.256 83.22 196.476C83.208 196.044 83.208 195.684 83.244 195.192ZM85.644 195.504L86.184 194.712C85.608 194.28 84.252 193.5 83.376 193.128L82.896 193.848C83.688 194.22 84.996 194.952 85.644 195.504ZM95.448 192.156L94.548 191.364C94.416 191.58 94.104 191.928 93.864 192.168C93.06 192.984 91.236 194.424 90.324 195.18C89.244 196.092 89.112 196.608 90.24 197.556C91.368 198.48 93.18 200.04 94.032 200.904C94.32 201.204 94.608 201.492 94.86 201.78L95.712 201C94.44 199.716 92.316 198.012 91.224 197.112C90.444 196.464 90.456 196.284 91.176 195.66C92.064 194.916 93.792 193.56 94.62 192.84C94.812 192.672 95.184 192.348 95.448 192.156ZM100.692 192.648V193.608H109.308V192.648H100.692ZM99.672 199.764V200.772H110.328V199.764H99.672ZM112.704 194.556V195.3H116.388V194.556H112.704ZM112.272 192.42V200.64L113.112 200.496V192.42H112.272ZM114.156 190.968V192.984H115.02V190.968H114.156ZM111.444 200.508L111.684 201.432C112.908 201.108 114.576 200.64 116.148 200.196L116.052 199.32C114.348 199.764 112.584 200.244 111.444 200.508ZM114.66 198.216C115.392 199.2 116.196 200.544 116.52 201.384L117.324 200.964C116.964 200.124 116.136 198.816 115.38 197.856L114.66 198.216ZM112.668 192.42V193.26H116.04V196.608H112.668V197.448H116.868V192.42H112.668ZM117.84 191.688V202.008H118.716V192.54H121.68V191.688H117.84ZM121.452 191.688V191.988C121.032 192.948 120.324 194.592 119.652 195.804C120.984 196.848 121.392 197.736 121.392 198.492C121.392 198.924 121.296 199.26 121.02 199.416C120.852 199.512 120.648 199.548 120.444 199.56C120.168 199.572 119.796 199.572 119.412 199.536C119.568 199.8 119.664 200.196 119.676 200.448C120.048 200.472 120.48 200.472 120.816 200.436C121.152 200.4 121.428 200.304 121.656 200.172C122.112 199.872 122.304 199.32 122.292 198.576C122.292 197.724 121.968 196.776 120.636 195.672C121.236 194.592 121.92 193.236 122.448 192.084L121.776 191.652L121.632 191.688H121.452ZM128.52 191.52L127.536 191.436C127.5 192 127.332 192.72 127.068 193.38C126.66 194.4 125.856 195.792 124.128 197.448L124.956 198.06C125.352 197.568 125.688 197.136 126.036 196.8C126.588 196.308 127.344 195.924 128.112 195.924C128.736 195.924 129.216 196.248 129.228 196.944C129.24 197.568 129.228 198.804 129.18 199.44H130.104C130.092 198.696 130.068 197.316 130.068 196.692C130.068 195.72 129.348 195.168 128.424 195.168C127.896 195.168 127.212 195.336 126.744 195.612C127.224 194.988 127.668 194.184 127.968 193.452C128.28 192.648 128.412 191.988 128.52 191.52ZM124.404 192.816V193.716C125.076 193.764 125.868 193.788 126.384 193.788C127.908 193.788 130.14 193.68 131.82 193.428V192.54C130.128 192.84 128.052 192.936 126.432 192.936C125.88 192.936 125.052 192.9 124.404 192.816ZM133.572 195.708L133.188 194.82C132.852 194.988 132.552 195.12 132.192 195.288C131.4 195.66 130.428 196.032 129.288 196.62C127.86 197.352 126.372 198.252 126.372 199.716C126.372 201.168 127.752 201.54 129.456 201.54C130.5 201.54 131.832 201.444 132.744 201.336L132.78 200.364C131.724 200.556 130.428 200.664 129.492 200.664C128.256 200.664 127.332 200.52 127.332 199.584C127.332 198.756 128.172 198.108 129.36 197.484C130.524 196.884 131.664 196.428 132.516 196.092C132.84 195.972 133.272 195.804 133.572 195.708ZM135.672 197.748V198.552H146.328V197.748H135.672ZM140.508 196.584V201.948H141.42V196.584H140.508ZM140.1 198.06C139.116 199.332 137.184 200.472 135.432 201.012C135.636 201.192 135.9 201.54 136.044 201.768C137.796 201.132 139.752 199.848 140.844 198.396L140.1 198.06ZM141.84 198.084L141.084 198.444C142.176 199.86 144.132 201.084 145.956 201.684C146.088 201.444 146.364 201.096 146.556 200.928C144.732 200.424 142.812 199.344 141.84 198.084ZM139.62 194.772H142.368V195.996H139.62V194.772ZM139.62 192.864H142.368V194.076H139.62V192.864ZM138.78 192.144V196.728H143.244V192.144H138.78ZM140.604 190.92C140.52 191.352 140.352 191.988 140.196 192.42L140.976 192.588C141.156 192.192 141.372 191.628 141.588 191.064L140.604 190.92ZM135.816 192.168C136.572 192.696 137.412 193.476 137.772 194.052L138.432 193.464C138.048 192.888 137.196 192.156 136.44 191.652L135.816 192.168ZM143.268 195.084C144.216 195.588 145.404 196.368 145.98 196.896L146.532 196.224C145.932 195.696 144.732 194.964 143.796 194.496L143.268 195.084ZM145.368 191.532C144.876 192.156 144.012 192.996 143.376 193.5L144.048 193.956C144.696 193.44 145.512 192.684 146.148 191.988L145.368 191.532ZM135.432 196.188L135.888 196.932C136.68 196.476 137.664 195.876 138.576 195.336L138.324 194.592C137.256 195.192 136.164 195.816 135.432 196.188ZM151.08 191.652H149.856C149.928 192 149.964 192.42 149.964 192.864C149.964 194.124 149.844 197.16 149.844 198.936C149.844 200.904 151.032 201.612 152.76 201.612C155.388 201.612 156.948 200.112 157.764 198.972L157.092 198.156C156.228 199.404 154.98 200.628 152.784 200.628C151.644 200.628 150.816 200.172 150.816 198.852C150.816 197.064 150.912 194.22 150.96 192.864C150.984 192.468 151.02 192.048 151.08 191.652ZM161.676 192.204L161.712 193.188C162 193.152 162.348 193.116 162.612 193.104C163.152 193.08 164.616 193.008 165.096 192.996C164.688 193.848 164.148 195.084 163.668 196.128C163.212 197.136 162.672 198.528 162.18 199.176C161.928 199.5 161.724 199.596 161.448 199.596C161.076 199.596 160.728 199.32 160.728 198.78C160.728 197.676 161.868 196.56 163.86 196.56C166.332 196.56 168.528 197.892 169.932 199.104L170.376 198.084C169.08 197.16 166.704 195.72 164.004 195.72C161.568 195.72 159.864 197.1 159.864 198.912C159.864 199.908 160.524 200.556 161.412 200.556C162.036 200.556 162.504 200.328 162.924 199.716C163.44 198.972 164.1 197.34 164.58 196.284C165.132 195.048 165.792 193.512 166.176 192.888C166.272 192.732 166.368 192.612 166.488 192.48L165.888 192C165.72 192.06 165.516 192.108 165.288 192.12C164.784 192.168 163.212 192.24 162.576 192.24C162.324 192.24 161.976 192.228 161.676 192.204ZM169.176 194.832L168.192 194.724C168.228 195.072 168.216 195.48 168.192 195.84C168.06 197.616 167.544 199.884 164.724 201.072L165.516 201.732C168.312 200.328 169.008 198.252 169.176 194.832ZM176.304 191.568L175.164 191.472C175.188 191.724 175.164 192.132 175.116 192.468C175.032 193.092 174.72 194.604 174.432 195.708C173.976 197.4 173.136 199.836 172.416 201.084L173.46 201.432C174.096 200.124 174.9 197.64 175.332 195.936C175.668 194.736 175.92 193.38 176.1 192.516C176.148 192.288 176.232 191.832 176.304 191.568ZM173.652 193.572C173.208 193.572 172.776 193.548 172.212 193.476L172.236 194.412C172.68 194.448 173.1 194.46 173.628 194.46C174.924 194.46 176.736 194.256 178.224 193.92V192.984C176.736 193.356 174.972 193.572 173.652 193.572ZM177.444 195.216V196.116C178.176 196.032 178.92 195.984 179.664 195.984C180.372 195.984 181.068 196.056 181.692 196.128L181.716 195.216C181.068 195.144 180.336 195.12 179.64 195.12C178.872 195.12 178.068 195.156 177.444 195.216ZM177.684 198.132L176.796 198.048C176.688 198.552 176.616 199.008 176.616 199.464C176.616 200.652 177.648 201.228 179.532 201.228C180.408 201.228 181.212 201.156 181.86 201.06L181.896 200.1C181.152 200.244 180.336 200.328 179.544 200.328C177.84 200.328 177.516 199.776 177.516 199.212C177.516 198.9 177.588 198.528 177.684 198.132ZM185.676 192.636L184.512 192.612C184.584 192.888 184.584 193.404 184.584 193.68C184.584 194.376 184.608 195.84 184.716 196.872C185.052 199.98 186.132 201.108 187.272 201.108C188.088 201.108 188.808 200.412 189.54 198.384L188.784 197.532C188.472 198.732 187.908 199.968 187.296 199.968C186.432 199.968 185.856 198.636 185.652 196.632C185.568 195.648 185.556 194.544 185.568 193.8C185.58 193.488 185.616 192.912 185.676 192.636ZM191.916 192.96L190.992 193.284C192.132 194.688 192.864 197.16 193.068 199.32L194.04 198.936C193.86 196.908 192.996 194.352 191.916 192.96Z" fill="black"/>
</svg>
