<svg width="384" height="258" viewBox="0 0 384 258" fill="none" xmlns="http://www.w3.org/2000/svg">
<rect width="384" height="258" rx="18" fill="#F2F1F6"/>
<path d="M84.976 225.844V226.648H91.036V225.844H84.976ZM84.76 231.676V232.48H91.192V231.676H84.76ZM84.352 228.16V232.972H85.228V228.976H90.784V232.972H91.696V228.16H84.352ZM87.964 222.844C89.092 224.38 91.204 226.072 93.088 227.056C93.244 226.792 93.46 226.48 93.688 226.264C91.768 225.412 89.668 223.744 88.372 221.956H87.46C86.512 223.504 84.508 225.34 82.396 226.408C82.6 226.6 82.84 226.924 82.96 227.128C85.012 226.012 86.98 224.308 87.964 222.844ZM99.208 226.036V226.924H105.652V226.036H99.208ZM102.028 221.956V232.96H102.94V221.956H102.028ZM95.02 225.556V226.276H98.764V225.556H95.02ZM95.092 222.352V223.072H98.776V222.352H95.092ZM95.02 227.164V227.884H98.764V227.164H95.02ZM94.456 223.924V224.668H99.232V223.924H94.456ZM95.44 228.784V229.528H97.924V231.532H95.44V232.288H98.728V228.784H95.44ZM95.008 228.784V232.84H95.812V228.784H95.008ZM111.952 222.796C113.056 224.284 115.144 225.928 117.004 226.888C117.16 226.624 117.376 226.312 117.592 226.096C115.708 225.256 113.632 223.648 112.36 221.908H111.436C110.512 223.42 108.52 225.196 106.444 226.24C106.636 226.432 106.888 226.744 106.996 226.96C109.024 225.88 110.956 224.224 111.952 222.796ZM108.976 225.58V226.396H115V225.58H108.976ZM107.428 227.992V228.796H116.56V227.992H107.428ZM106.876 231.784V232.576H117.136V231.784H106.876ZM111.472 225.892V232.204H112.42V225.892H111.472ZM108.424 229.408C108.904 230.08 109.372 231.016 109.528 231.616L110.308 231.28C110.14 230.68 109.648 229.768 109.156 229.108L108.424 229.408ZM114.7 229.084C114.4 229.768 113.836 230.728 113.404 231.316L114.088 231.616C114.532 231.052 115.096 230.188 115.552 229.432L114.7 229.084ZM120.136 224.944V225.604H122.5V224.944H120.136ZM120.712 221.944V223.588H121.564V221.944H120.712ZM119.776 229.024V229.744H122.128V231.46H119.776V232.192H122.908V229.024H119.776ZM118.672 223.012V224.752H119.416V223.744H122.836V224.752H123.616V223.012H118.672ZM119.332 229.024V232.756H120.112V229.024H119.332ZM122.344 224.944V225.088C121.696 226.936 119.992 228.4 118.276 229.048C118.444 229.204 118.66 229.504 118.768 229.696C120.592 228.904 122.368 227.38 123.148 225.148L122.632 224.908L122.488 224.944H122.344ZM120.532 224.044C120.076 225.112 119.26 226.096 118.336 226.732C118.516 226.852 118.816 227.14 118.948 227.272C119.872 226.552 120.772 225.448 121.3 224.236L120.532 224.044ZM119.428 226.396C120.724 227.284 122.404 228.58 123.22 229.384L123.76 228.76C122.92 227.956 121.216 226.72 119.932 225.856L119.428 226.396ZM123.76 222.484V223.276H129.352V222.484H123.76ZM125.032 226.96H128.176V228.112H125.032V226.96ZM125.032 228.796H128.176V229.972H125.032V228.796ZM125.032 225.136H128.176V226.288H125.032V225.136ZM124.216 224.428V230.68H129.04V224.428H124.216ZM126.124 222.868C126.04 223.432 125.86 224.26 125.704 224.8L126.472 224.956C126.664 224.452 126.904 223.684 127.096 222.988L126.124 222.868ZM125.224 230.92C124.768 231.424 123.772 232.024 122.896 232.348C123.088 232.516 123.352 232.78 123.496 232.948C124.372 232.6 125.392 231.976 126.004 231.364L125.224 230.92ZM126.988 231.4C127.696 231.856 128.572 232.552 129.004 232.996L129.712 232.516C129.256 232.06 128.356 231.4 127.648 230.968L126.988 231.4ZM135.52 222.52L134.536 222.436C134.5 223 134.332 223.72 134.068 224.38C133.66 225.4 132.856 226.792 131.128 228.448L131.956 229.06C132.352 228.568 132.688 228.136 133.036 227.8C133.588 227.308 134.344 226.924 135.112 226.924C135.736 226.924 136.216 227.248 136.228 227.944C136.24 228.568 136.228 229.804 136.18 230.44H137.104C137.092 229.696 137.068 228.316 137.068 227.692C137.068 226.72 136.348 226.168 135.424 226.168C134.896 226.168 134.212 226.336 133.744 226.612C134.224 225.988 134.668 225.184 134.968 224.452C135.28 223.648 135.412 222.988 135.52 222.52ZM131.404 223.816V224.716C132.076 224.764 132.868 224.788 133.384 224.788C134.908 224.788 137.14 224.68 138.82 224.428V223.54C137.128 223.84 135.052 223.936 133.432 223.936C132.88 223.936 132.052 223.9 131.404 223.816ZM140.572 226.708L140.188 225.82C139.852 225.988 139.552 226.12 139.192 226.288C138.4 226.66 137.428 227.032 136.288 227.62C134.86 228.352 133.372 229.252 133.372 230.716C133.372 232.168 134.752 232.54 136.456 232.54C137.5 232.54 138.832 232.444 139.744 232.336L139.78 231.364C138.724 231.556 137.428 231.664 136.492 231.664C135.256 231.664 134.332 231.52 134.332 230.584C134.332 229.756 135.172 229.108 136.36 228.484C137.524 227.884 138.664 227.428 139.516 227.092C139.84 226.972 140.272 226.804 140.572 226.708ZM102.952 238.048V246.652C102.952 246.904 102.868 246.988 102.604 247C102.316 247.012 101.344 247.024 100.372 246.976C100.516 247.24 100.696 247.684 100.756 247.948C101.944 247.948 102.784 247.936 103.264 247.78C103.732 247.636 103.888 247.324 103.888 246.676V238.048H102.952ZM95.896 240.448V245.884H96.772V240.448H95.896ZM96.268 240.448V241.3H99.916V244.06H96.268V244.924H100.816V240.448H96.268ZM94.66 237.772V238.684H105.364V237.772H94.66ZM114.46 244.036V246.772C114.46 247.624 114.652 247.876 115.492 247.876C115.66 247.876 116.44 247.876 116.62 247.876C117.304 247.876 117.532 247.504 117.616 245.992C117.388 245.932 117.04 245.812 116.872 245.668C116.836 246.94 116.788 247.108 116.512 247.108C116.356 247.108 115.732 247.108 115.612 247.108C115.336 247.108 115.288 247.06 115.288 246.772V244.036H114.46ZM112.504 240.256H115.84V241.528H112.504V240.256ZM112.504 242.236H115.84V243.52H112.504V242.236ZM112.504 238.288H115.84V239.536H112.504V238.288ZM111.664 237.544V244.264H116.704V237.544H111.664ZM112.648 244.012C112.48 245.548 112.036 246.676 110.248 247.276C110.428 247.444 110.68 247.768 110.776 247.972C112.768 247.216 113.32 245.884 113.524 244.012H112.648ZM106.66 239.176V240.004H110.404V239.176H106.66ZM108.412 242.764V247.96H109.288V241.708L108.412 242.764ZM108.412 236.932V239.584H109.288V236.932H108.412ZM109.288 241.828L108.76 242.308C109.24 242.74 110.332 243.892 110.74 244.432L111.292 243.676C110.98 243.364 109.672 242.14 109.288 241.828ZM110.104 239.176V239.368C109.408 241.192 107.776 243.016 106.228 243.976C106.372 244.132 106.6 244.552 106.684 244.78C108.328 243.676 110.092 241.672 110.944 239.476L110.44 239.14L110.284 239.176H110.104ZM123.832 237.22V246.112C123.832 247.432 124.216 247.792 125.476 247.792C125.752 247.792 127.636 247.792 127.948 247.792C129.196 247.792 129.46 247.108 129.604 245.14C129.34 245.08 128.968 244.912 128.74 244.744C128.656 246.496 128.56 246.94 127.9 246.94C127.492 246.94 125.86 246.94 125.536 246.94C124.864 246.94 124.744 246.796 124.744 246.124V237.22H123.832ZM128.332 239.212C127.312 240.148 125.596 241.264 124.06 242.068C124.192 242.26 124.372 242.572 124.432 242.776C126.016 241.948 127.78 240.976 128.992 239.98L128.332 239.212ZM121.744 237.112C120.952 239.008 119.632 240.832 118.24 241.996C118.42 242.212 118.696 242.68 118.792 242.896C120.28 241.564 121.72 239.512 122.62 237.4L121.744 237.112ZM120.376 240.244V247.948H121.264V239.38L121.252 239.368L120.376 240.244Z" fill="black"/>
<circle cx="112" cy="159" r="53" fill="#758BFD"/>
<path d="M111.5 181C123.926 181 134 170.926 134 158.5C134 146.074 123.926 136 111.5 136C99.0736 136 89 146.074 89 158.5C89 170.926 99.0736 181 111.5 181Z" fill="white" stroke="#231815" stroke-width="4" stroke-miterlimit="10"/>
<path d="M110.076 168H113.898V163.996H118.916V162.072H113.898V160.408H118.916V158.458H114.73L120.84 148.812H116.42L114.08 153.492C113.196 155.39 112.832 156.144 112.104 157.574H111.948C111.246 156.144 110.934 155.468 109.972 153.492L107.58 148.812H103.082L109.218 158.458H105.006V160.408H110.076V162.072H105.006V163.996H110.076V168Z" fill="black"/>
<path d="M250.64 226.492V223.648C250.64 223.18 250.688 222.796 250.7 222.676H249.608C249.632 222.784 249.668 223.18 249.668 223.648V226.564C249.668 229.936 248.588 230.968 246.404 231.796L247.208 232.564C249.944 231.328 250.64 229.684 250.64 226.492ZM246.308 222.748H245.24C245.276 223.024 245.3 223.36 245.3 223.612V228.016C245.3 228.472 245.252 228.988 245.24 229.096H246.308C246.296 228.988 246.26 228.46 246.26 228.016V223.612C246.26 223.204 246.296 222.856 246.308 222.748ZM242.804 225.076V226.108C242.936 226.108 243.476 226.072 244.004 226.072H251.96C252.488 226.072 252.92 226.096 253.052 226.108V225.088C252.884 225.112 252.488 225.16 251.948 225.16H244.004C243.5 225.16 242.912 225.088 242.804 225.076ZM255.212 226.804V227.98C255.596 227.956 256.232 227.932 256.892 227.932C257.78 227.932 262.568 227.932 263.48 227.932C264.008 227.932 264.512 227.968 264.764 227.98V226.804C264.488 226.828 264.068 226.876 263.468 226.876C262.58 226.876 257.768 226.876 256.892 226.876C256.208 226.876 255.584 226.84 255.212 226.804ZM274.736 222.604L274.1 222.88C274.424 223.336 274.82 224.056 275.06 224.536L275.708 224.248C275.468 223.756 275.036 223.036 274.736 222.604ZM276.044 222.124L275.42 222.4C275.756 222.844 276.152 223.528 276.404 224.044L277.052 223.756C276.824 223.312 276.368 222.568 276.044 222.124ZM269.348 223H268.232C268.28 223.288 268.304 223.684 268.304 223.972C268.304 224.62 268.304 229.42 268.304 230.572C268.304 231.556 268.82 231.976 269.732 232.144C270.236 232.228 270.944 232.252 271.664 232.252C272.972 232.252 274.772 232.168 275.816 232.012V230.908C274.808 231.172 272.972 231.292 271.7 231.292C271.112 231.292 270.5 231.268 270.116 231.196C269.54 231.088 269.276 230.932 269.276 230.308C269.276 229.444 269.276 224.62 269.276 223.972C269.276 223.636 269.312 223.288 269.348 223ZM268.832 226.792L268.844 227.788C270.32 227.416 272.696 226.72 274.184 226.12C274.544 225.976 274.976 225.784 275.324 225.64L274.904 224.68C274.556 224.896 274.208 225.064 273.848 225.232C272.456 225.82 270.284 226.48 268.832 226.792ZM287.588 223.984L286.988 223.516C286.796 223.576 286.472 223.612 286.088 223.612C285.632 223.612 281.924 223.612 281.456 223.612C281.084 223.612 280.4 223.564 280.244 223.54V224.62C280.376 224.608 281.024 224.56 281.456 224.56C281.864 224.56 285.704 224.56 286.136 224.56C285.824 225.556 284.948 226.984 284.132 227.908C282.896 229.276 281.132 230.716 279.188 231.46L279.956 232.264C281.852 231.4 283.568 229.972 284.912 228.472C285.908 227.368 286.82 225.688 287.3 224.5C287.36 224.344 287.516 224.08 287.588 223.984ZM285.068 227.848L284.384 228.52C285.68 229.66 287.084 231.196 287.948 232.336L288.776 231.604C287.96 230.608 286.364 228.928 285.068 227.848ZM296.756 223.816L295.76 223.792C295.64 225.04 295.388 226.396 295.04 227.536C294.428 229.564 293.78 230.38 293.216 230.38C292.676 230.38 291.992 229.708 291.992 228.196C291.992 226.432 293.636 224.26 296.276 224.26C298.58 224.26 299.912 225.844 299.912 227.764C299.912 229.84 298.4 230.992 296.864 231.34C296.576 231.4 296.216 231.448 295.832 231.484L296.384 232.372C299.24 232 300.896 230.32 300.896 227.812C300.896 225.376 299.108 223.396 296.3 223.396C293.36 223.396 291.044 225.664 291.044 228.268C291.044 230.26 292.112 231.484 293.192 231.484C294.296 231.484 295.256 230.212 295.988 227.752C296.36 226.468 296.6 225.064 296.756 223.816ZM227.84 238.252V239.092H235.544V238.252H227.84ZM229.028 241.024H234.272V242.824H229.028V241.024ZM228.2 240.256V243.592H235.148V240.256H228.2ZM228.944 243.832L228.2 244.084C229.472 246.28 231.932 247.528 235.112 247.984C235.232 247.732 235.46 247.372 235.652 247.18C232.532 246.832 230.072 245.716 228.944 243.832ZM231.176 236.968V242.272C231.176 244.3 230.972 246.352 227.408 247.252C227.588 247.444 227.84 247.804 227.948 248.008C231.668 246.904 232.064 244.6 232.064 242.284V236.968H231.176ZM227.324 236.896C226.628 238.72 225.452 240.508 224.24 241.648C224.408 241.864 224.66 242.332 224.744 242.536C226.076 241.204 227.36 239.188 228.176 237.16L227.324 236.896ZM226.064 240.04V248.02H226.928V239.2L226.916 239.188L226.064 240.04ZM238.34 237.772V238.636H246.104V237.772H238.34ZM238.34 240.568V241.42H246.092V240.568H238.34ZM238.28 243.436V244.288H246.116V243.436H238.28ZM237.836 237.772V242.116C237.836 243.808 237.704 245.944 236.384 247.432C236.576 247.552 236.936 247.852 237.08 248.032C238.508 246.436 238.724 243.952 238.724 242.128V237.772H237.836ZM245.744 237.772V246.736C245.744 246.964 245.66 247.036 245.432 247.048C245.204 247.048 244.388 247.06 243.536 247.024C243.668 247.264 243.812 247.66 243.848 247.9C244.988 247.912 245.684 247.9 246.092 247.756C246.488 247.6 246.632 247.324 246.632 246.736V237.772H245.744ZM241.604 238.096V247.852H242.516V238.096H241.604ZM253.052 238.36V239.152H259.052V238.36H253.052ZM252.536 240.688V241.492H259.568V240.688H252.536ZM252.596 242.86V243.664H259.436V242.86H252.596ZM255.572 236.92V241.18H256.46V236.92H255.572ZM257.156 241.372V246.88C257.156 247.06 257.096 247.108 256.892 247.12C256.7 247.132 256.028 247.132 255.284 247.108C255.416 247.348 255.56 247.708 255.596 247.948C256.556 247.948 257.168 247.936 257.54 247.804C257.912 247.672 258.032 247.408 258.032 246.892V241.372H257.156ZM253.328 244.504C253.94 245.128 254.588 246.028 254.852 246.616L255.632 246.136C255.344 245.548 254.672 244.696 254.048 244.072L253.328 244.504ZM249.332 237.712V238.528H251.492V244.78H249.332V245.596H252.332V237.712H249.332ZM249.368 241.204V242.008H251.888V241.204H249.368ZM248.9 237.712V246.58H249.752V237.712H248.9ZM264.164 244.276V244.972H267.8V244.276H264.164ZM264.128 242.464V243.172H267.368V246.148H264.128V246.844H268.22V242.464H264.128ZM263.732 242.464V247.456H264.56V242.464H263.732ZM261.524 239.14V239.8H264.86V239.14H261.524ZM267.056 239.14V239.8H270.452V239.14H267.056ZM270.08 237.436V246.772C270.08 246.976 270.008 247.048 269.792 247.048C269.576 247.06 268.844 247.072 268.112 247.036C268.244 247.288 268.388 247.708 268.424 247.96C269.432 247.96 270.08 247.948 270.464 247.804C270.848 247.648 270.98 247.348 270.98 246.772V237.436H270.08ZM261.596 237.436V238.132H264.584V240.868H261.596V241.564H265.436V237.436H261.596ZM270.524 237.436H266.516V241.576H270.524V240.892H267.38V238.132H270.524V237.436ZM261.08 237.436V247.972H261.968V237.436H261.08ZM277.52 237.52L276.536 237.436C276.5 238 276.332 238.72 276.068 239.38C275.66 240.4 274.856 241.792 273.128 243.448L273.956 244.06C274.352 243.568 274.688 243.136 275.036 242.8C275.588 242.308 276.344 241.924 277.112 241.924C277.736 241.924 278.216 242.248 278.228 242.944C278.24 243.568 278.228 244.804 278.18 245.44H279.104C279.092 244.696 279.068 243.316 279.068 242.692C279.068 241.72 278.348 241.168 277.424 241.168C276.896 241.168 276.212 241.336 275.744 241.612C276.224 240.988 276.668 240.184 276.968 239.452C277.28 238.648 277.412 237.988 277.52 237.52ZM273.404 238.816V239.716C274.076 239.764 274.868 239.788 275.384 239.788C276.908 239.788 279.14 239.68 280.82 239.428V238.54C279.128 238.84 277.052 238.936 275.432 238.936C274.88 238.936 274.052 238.9 273.404 238.816ZM282.572 241.708L282.188 240.82C281.852 240.988 281.552 241.12 281.192 241.288C280.4 241.66 279.428 242.032 278.288 242.62C276.86 243.352 275.372 244.252 275.372 245.716C275.372 247.168 276.752 247.54 278.456 247.54C279.5 247.54 280.832 247.444 281.744 247.336L281.78 246.364C280.724 246.556 279.428 246.664 278.492 246.664C277.256 246.664 276.332 246.52 276.332 245.584C276.332 244.756 277.172 244.108 278.36 243.484C279.524 242.884 280.664 242.428 281.516 242.092C281.84 241.972 282.272 241.804 282.572 241.708ZM292.952 238.048V246.652C292.952 246.904 292.868 246.988 292.604 247C292.316 247.012 291.344 247.024 290.372 246.976C290.516 247.24 290.696 247.684 290.756 247.948C291.944 247.948 292.784 247.936 293.264 247.78C293.732 247.636 293.888 247.324 293.888 246.676V238.048H292.952ZM285.896 240.448V245.884H286.772V240.448H285.896ZM286.268 240.448V241.3H289.916V244.06H286.268V244.924H290.816V240.448H286.268ZM284.66 237.772V238.684H295.364V237.772H284.66ZM304.46 244.036V246.772C304.46 247.624 304.652 247.876 305.492 247.876C305.66 247.876 306.44 247.876 306.62 247.876C307.304 247.876 307.532 247.504 307.616 245.992C307.388 245.932 307.04 245.812 306.872 245.668C306.836 246.94 306.788 247.108 306.512 247.108C306.356 247.108 305.732 247.108 305.612 247.108C305.336 247.108 305.288 247.06 305.288 246.772V244.036H304.46ZM302.504 240.256H305.84V241.528H302.504V240.256ZM302.504 242.236H305.84V243.52H302.504V242.236ZM302.504 238.288H305.84V239.536H302.504V238.288ZM301.664 237.544V244.264H306.704V237.544H301.664ZM302.648 244.012C302.48 245.548 302.036 246.676 300.248 247.276C300.428 247.444 300.68 247.768 300.776 247.972C302.768 247.216 303.32 245.884 303.524 244.012H302.648ZM296.66 239.176V240.004H300.404V239.176H296.66ZM298.412 242.764V247.96H299.288V241.708L298.412 242.764ZM298.412 236.932V239.584H299.288V236.932H298.412ZM299.288 241.828L298.76 242.308C299.24 242.74 300.332 243.892 300.74 244.432L301.292 243.676C300.98 243.364 299.672 242.14 299.288 241.828ZM300.104 239.176V239.368C299.408 241.192 297.776 243.016 296.228 243.976C296.372 244.132 296.6 244.552 296.684 244.78C298.328 243.676 300.092 241.672 300.944 239.476L300.44 239.14L300.284 239.176H300.104ZM313.832 237.22V246.112C313.832 247.432 314.216 247.792 315.476 247.792C315.752 247.792 317.636 247.792 317.948 247.792C319.196 247.792 319.46 247.108 319.604 245.14C319.34 245.08 318.968 244.912 318.74 244.744C318.656 246.496 318.56 246.94 317.9 246.94C317.492 246.94 315.86 246.94 315.536 246.94C314.864 246.94 314.744 246.796 314.744 246.124V237.22H313.832ZM318.332 239.212C317.312 240.148 315.596 241.264 314.06 242.068C314.192 242.26 314.372 242.572 314.432 242.776C316.016 241.948 317.78 240.976 318.992 239.98L318.332 239.212ZM311.744 237.112C310.952 239.008 309.632 240.832 308.24 241.996C308.42 242.212 308.696 242.68 308.792 242.896C310.28 241.564 311.72 239.512 312.62 237.4L311.744 237.112ZM310.376 240.244V247.948H311.264V239.38L311.252 239.368L310.376 240.244Z" fill="black"/>
<circle cx="272" cy="159" r="53" fill="#758BFD"/>
<g clip-path="url(#clip0_622_3664)">
<path d="M285.7 126.201H258.3C254.931 126.201 252.2 128.949 252.2 132.338V185.662C252.2 189.051 254.931 191.799 258.3 191.799H285.7C289.069 191.799 291.8 189.051 291.8 185.662V132.338C291.8 128.949 289.069 126.201 285.7 126.201Z" fill="#231815" stroke="#231815" stroke-miterlimit="10"/>
<path d="M283.332 129.823H260.668C257.759 129.823 255.4 132.196 255.4 135.123V182.877C255.4 185.804 257.759 188.177 260.668 188.177H283.332C286.241 188.177 288.6 185.804 288.6 182.877V135.123C288.6 132.196 286.241 129.823 283.332 129.823Z" fill="white" stroke="#231815" stroke-width="0.86" stroke-miterlimit="10"/>
<path d="M272.268 166.3C276.759 166.3 280.4 162.637 280.4 158.119C280.4 153.6 276.759 149.937 272.268 149.937C267.777 149.937 264.136 153.6 264.136 158.119C264.136 162.637 267.777 166.3 272.268 166.3Z" fill="white" stroke="#231815" stroke-width="2.98" stroke-miterlimit="10"/>
<path d="M272.264 152.633H272.068C271.812 152.633 271.604 152.842 271.604 153.1V158.336C271.604 158.594 271.812 158.803 272.068 158.803H272.264C272.52 158.803 272.728 158.594 272.728 158.336V153.1C272.728 152.842 272.52 152.633 272.264 152.633Z" fill="#231815" stroke="#231815" stroke-width="1.08" stroke-miterlimit="10"/>
<path d="M277.952 158.473V158.436C277.952 158.134 277.708 157.889 277.408 157.889H272.148C271.848 157.889 271.604 158.134 271.604 158.436V158.473C271.604 158.775 271.848 159.02 272.148 159.02H277.408C277.708 159.02 277.952 158.775 277.952 158.473Z" fill="#231815" stroke="#231815" stroke-width="1.1" stroke-miterlimit="10"/>
</g>
<rect x="40" y="44" width="292" height="54" rx="8" fill="white"/>
<path d="M51.216 55.052V55.844H57.36V55.052H51.216ZM50.316 60.536V61.34H59.184V60.536H50.316ZM48.504 57.728V58.544H59.508V57.728H48.504ZM50.916 53.132V53.948H58.908V53.132H50.916ZM57.084 55.052V55.232C56.856 59.948 56.592 61.712 56.208 62.12C56.076 62.276 55.944 62.312 55.716 62.312C55.452 62.312 54.852 62.3 54.18 62.24C54.3 62.444 54.384 62.744 54.396 62.948C55.056 62.984 55.704 62.996 56.076 62.972C56.472 62.936 56.748 62.84 56.988 62.528C57.456 62 57.708 60.344 57.948 55.484C57.948 55.364 57.96 55.052 57.96 55.052H57.084ZM50.844 55.052C50.592 57.224 50.1 60.26 49.704 62.024L50.616 62.084C50.964 60.344 51.444 57.296 51.744 55.052H50.844ZM53.88 55.436C53.748 57.188 53.46 59.612 53.22 61.016H54.06C54.276 59.648 54.564 57.224 54.732 55.436H53.88ZM51.36 51.92C50.904 53.048 50.04 54.464 48.756 55.52C48.996 55.628 49.332 55.868 49.5 56.06C50.832 54.884 51.72 53.42 52.32 52.088L51.36 51.92ZM63.036 52.556V53.432H69.3V52.556H63.036ZM63.036 55.448V56.312H69.348V55.448H63.036ZM62.94 58.352V59.216H69.288V58.352H62.94ZM62.484 52.556V56.264C62.484 58.196 62.28 60.632 60.348 62.324C60.54 62.456 60.9 62.78 61.032 62.972C63.096 61.172 63.396 58.34 63.396 56.264V52.556H62.484ZM68.904 52.556V61.628C68.904 61.892 68.808 61.976 68.532 61.988C68.256 61.988 67.272 62 66.276 61.964C66.432 62.216 66.6 62.648 66.66 62.912C67.956 62.912 68.748 62.9 69.216 62.744C69.672 62.588 69.84 62.276 69.84 61.64V52.556H68.904ZM78.756 53.816L77.76 53.792C77.64 55.04 77.388 56.396 77.04 57.536C76.428 59.564 75.78 60.38 75.216 60.38C74.676 60.38 73.992 59.708 73.992 58.196C73.992 56.432 75.636 54.26 78.276 54.26C80.58 54.26 81.912 55.844 81.912 57.764C81.912 59.84 80.4 60.992 78.864 61.34C78.576 61.4 78.216 61.448 77.832 61.484L78.384 62.372C81.24 62 82.896 60.32 82.896 57.812C82.896 55.376 81.108 53.396 78.3 53.396C75.36 53.396 73.044 55.664 73.044 58.268C73.044 60.26 74.112 61.484 75.192 61.484C76.296 61.484 77.256 60.212 77.988 57.752C78.36 56.468 78.6 55.064 78.756 53.816ZM86.976 55.844V56.648H93.036V55.844H86.976ZM86.76 61.676V62.48H93.192V61.676H86.76ZM86.352 58.16V62.972H87.228V58.976H92.784V62.972H93.696V58.16H86.352ZM89.964 52.844C91.092 54.38 93.204 56.072 95.088 57.056C95.244 56.792 95.46 56.48 95.688 56.264C93.768 55.412 91.668 53.744 90.372 51.956H89.46C88.512 53.504 86.508 55.34 84.396 56.408C84.6 56.6 84.84 56.924 84.96 57.128C87.012 56.012 88.98 54.308 89.964 52.844ZM101.208 56.036V56.924H107.652V56.036H101.208ZM104.028 51.956V62.96H104.94V51.956H104.028ZM97.02 55.556V56.276H100.764V55.556H97.02ZM97.092 52.352V53.072H100.776V52.352H97.092ZM97.02 57.164V57.884H100.764V57.164H97.02ZM96.456 53.924V54.668H101.232V53.924H96.456ZM97.44 58.784V59.528H99.924V61.532H97.44V62.288H100.728V58.784H97.44ZM97.008 58.784V62.84H97.812V58.784H97.008ZM113.952 52.796C115.056 54.284 117.144 55.928 119.004 56.888C119.16 56.624 119.376 56.312 119.592 56.096C117.708 55.256 115.632 53.648 114.36 51.908H113.436C112.512 53.42 110.52 55.196 108.444 56.24C108.636 56.432 108.888 56.744 108.996 56.96C111.024 55.88 112.956 54.224 113.952 52.796ZM110.976 55.58V56.396H117V55.58H110.976ZM109.428 57.992V58.796H118.56V57.992H109.428ZM108.876 61.784V62.576H119.136V61.784H108.876ZM113.472 55.892V62.204H114.42V55.892H113.472ZM110.424 59.408C110.904 60.08 111.372 61.016 111.528 61.616L112.308 61.28C112.14 60.68 111.648 59.768 111.156 59.108L110.424 59.408ZM116.7 59.084C116.4 59.768 115.836 60.728 115.404 61.316L116.088 61.616C116.532 61.052 117.096 60.188 117.552 59.432L116.7 59.084ZM122.136 54.944V55.604H124.5V54.944H122.136ZM122.712 51.944V53.588H123.564V51.944H122.712ZM121.776 59.024V59.744H124.128V61.46H121.776V62.192H124.908V59.024H121.776ZM120.672 53.012V54.752H121.416V53.744H124.836V54.752H125.616V53.012H120.672ZM121.332 59.024V62.756H122.112V59.024H121.332ZM124.344 54.944V55.088C123.696 56.936 121.992 58.4 120.276 59.048C120.444 59.204 120.66 59.504 120.768 59.696C122.592 58.904 124.368 57.38 125.148 55.148L124.632 54.908L124.488 54.944H124.344ZM122.532 54.044C122.076 55.112 121.26 56.096 120.336 56.732C120.516 56.852 120.816 57.14 120.948 57.272C121.872 56.552 122.772 55.448 123.3 54.236L122.532 54.044ZM121.428 56.396C122.724 57.284 124.404 58.58 125.22 59.384L125.76 58.76C124.92 57.956 123.216 56.72 121.932 55.856L121.428 56.396ZM125.76 52.484V53.276H131.352V52.484H125.76ZM127.032 56.96H130.176V58.112H127.032V56.96ZM127.032 58.796H130.176V59.972H127.032V58.796ZM127.032 55.136H130.176V56.288H127.032V55.136ZM126.216 54.428V60.68H131.04V54.428H126.216ZM128.124 52.868C128.04 53.432 127.86 54.26 127.704 54.8L128.472 54.956C128.664 54.452 128.904 53.684 129.096 52.988L128.124 52.868ZM127.224 60.92C126.768 61.424 125.772 62.024 124.896 62.348C125.088 62.516 125.352 62.78 125.496 62.948C126.372 62.6 127.392 61.976 128.004 61.364L127.224 60.92ZM128.988 61.4C129.696 61.856 130.572 62.552 131.004 62.996L131.712 62.516C131.256 62.06 130.356 61.4 129.648 60.968L128.988 61.4ZM141.756 54.848L141.24 53.984C140.988 54.188 140.724 54.344 140.376 54.548C139.596 54.992 137.916 55.796 136.692 56.612C135.276 57.548 134.4 58.568 134.4 59.864C134.4 61.664 136.032 62.336 138.288 62.336C139.788 62.336 141.18 62.204 142.08 62.048L142.092 60.968C141.156 61.208 139.548 61.376 138.252 61.376C136.356 61.376 135.396 60.752 135.396 59.756C135.396 58.856 136.068 58.064 137.184 57.332C138.36 56.564 140.028 55.772 140.832 55.352C141.192 55.172 141.492 55.004 141.756 54.848ZM135.684 52.664L134.736 53.072C135.384 54.56 136.104 56.18 136.716 57.164L137.532 56.672C136.98 55.7 136.236 54.2 135.684 52.664ZM147.84 53.252V54.092H155.544V53.252H147.84ZM149.028 56.024H154.272V57.824H149.028V56.024ZM148.2 55.256V58.592H155.148V55.256H148.2ZM148.944 58.832L148.2 59.084C149.472 61.28 151.932 62.528 155.112 62.984C155.232 62.732 155.46 62.372 155.652 62.18C152.532 61.832 150.072 60.716 148.944 58.832ZM151.176 51.968V57.272C151.176 59.3 150.972 61.352 147.408 62.252C147.588 62.444 147.84 62.804 147.948 63.008C151.668 61.904 152.064 59.6 152.064 57.284V51.968H151.176ZM147.324 51.896C146.628 53.72 145.452 55.508 144.24 56.648C144.408 56.864 144.66 57.332 144.744 57.536C146.076 56.204 147.36 54.188 148.176 52.16L147.324 51.896ZM146.064 55.04V63.02H146.928V54.2L146.916 54.188L146.064 55.04ZM158.34 52.772V53.636H166.104V52.772H158.34ZM158.34 55.568V56.42H166.092V55.568H158.34ZM158.28 58.436V59.288H166.116V58.436H158.28ZM157.836 52.772V57.116C157.836 58.808 157.704 60.944 156.384 62.432C156.576 62.552 156.936 62.852 157.08 63.032C158.508 61.436 158.724 58.952 158.724 57.128V52.772H157.836ZM165.744 52.772V61.736C165.744 61.964 165.66 62.036 165.432 62.048C165.204 62.048 164.388 62.06 163.536 62.024C163.668 62.264 163.812 62.66 163.848 62.9C164.988 62.912 165.684 62.9 166.092 62.756C166.488 62.6 166.632 62.324 166.632 61.736V52.772H165.744ZM161.604 53.096V62.852H162.516V53.096H161.604ZM173.052 53.36V54.152H179.052V53.36H173.052ZM172.536 55.688V56.492H179.568V55.688H172.536ZM172.596 57.86V58.664H179.436V57.86H172.596ZM175.572 51.92V56.18H176.46V51.92H175.572ZM177.156 56.372V61.88C177.156 62.06 177.096 62.108 176.892 62.12C176.7 62.132 176.028 62.132 175.284 62.108C175.416 62.348 175.56 62.708 175.596 62.948C176.556 62.948 177.168 62.936 177.54 62.804C177.912 62.672 178.032 62.408 178.032 61.892V56.372H177.156ZM173.328 59.504C173.94 60.128 174.588 61.028 174.852 61.616L175.632 61.136C175.344 60.548 174.672 59.696 174.048 59.072L173.328 59.504ZM169.332 52.712V53.528H171.492V59.78H169.332V60.596H172.332V52.712H169.332ZM169.368 56.204V57.008H171.888V56.204H169.368ZM168.9 52.712V61.58H169.752V52.712H168.9ZM184.164 59.276V59.972H187.8V59.276H184.164ZM184.128 57.464V58.172H187.368V61.148H184.128V61.844H188.22V57.464H184.128ZM183.732 57.464V62.456H184.56V57.464H183.732ZM181.524 54.14V54.8H184.86V54.14H181.524ZM187.056 54.14V54.8H190.452V54.14H187.056ZM190.08 52.436V61.772C190.08 61.976 190.008 62.048 189.792 62.048C189.576 62.06 188.844 62.072 188.112 62.036C188.244 62.288 188.388 62.708 188.424 62.96C189.432 62.96 190.08 62.948 190.464 62.804C190.848 62.648 190.98 62.348 190.98 61.772V52.436H190.08ZM181.596 52.436V53.132H184.584V55.868H181.596V56.564H185.436V52.436H181.596ZM190.524 52.436H186.516V56.576H190.524V55.892H187.38V53.132H190.524V52.436ZM181.08 52.436V62.972H181.968V52.436H181.08ZM197.52 52.52L196.536 52.436C196.5 53 196.332 53.72 196.068 54.38C195.66 55.4 194.856 56.792 193.128 58.448L193.956 59.06C194.352 58.568 194.688 58.136 195.036 57.8C195.588 57.308 196.344 56.924 197.112 56.924C197.736 56.924 198.216 57.248 198.228 57.944C198.24 58.568 198.228 59.804 198.18 60.44H199.104C199.092 59.696 199.068 58.316 199.068 57.692C199.068 56.72 198.348 56.168 197.424 56.168C196.896 56.168 196.212 56.336 195.744 56.612C196.224 55.988 196.668 55.184 196.968 54.452C197.28 53.648 197.412 52.988 197.52 52.52ZM193.404 53.816V54.716C194.076 54.764 194.868 54.788 195.384 54.788C196.908 54.788 199.14 54.68 200.82 54.428V53.54C199.128 53.84 197.052 53.936 195.432 53.936C194.88 53.936 194.052 53.9 193.404 53.816ZM202.572 56.708L202.188 55.82C201.852 55.988 201.552 56.12 201.192 56.288C200.4 56.66 199.428 57.032 198.288 57.62C196.86 58.352 195.372 59.252 195.372 60.716C195.372 62.168 196.752 62.54 198.456 62.54C199.5 62.54 200.832 62.444 201.744 62.336L201.78 61.364C200.724 61.556 199.428 61.664 198.492 61.664C197.256 61.664 196.332 61.52 196.332 60.584C196.332 59.756 197.172 59.108 198.36 58.484C199.524 57.884 200.664 57.428 201.516 57.092C201.84 56.972 202.272 56.804 202.572 56.708ZM56.952 66.048V74.652C56.952 74.904 56.868 74.988 56.604 75C56.316 75.012 55.344 75.024 54.372 74.976C54.516 75.24 54.696 75.684 54.756 75.948C55.944 75.948 56.784 75.936 57.264 75.78C57.732 75.636 57.888 75.324 57.888 74.676V66.048H56.952ZM49.896 68.448V73.884H50.772V68.448H49.896ZM50.268 68.448V69.3H53.916V72.06H50.268V72.924H54.816V68.448H50.268ZM48.66 65.772V66.684H59.364V65.772H48.66ZM68.46 72.036V74.772C68.46 75.624 68.652 75.876 69.492 75.876C69.66 75.876 70.44 75.876 70.62 75.876C71.304 75.876 71.532 75.504 71.616 73.992C71.388 73.932 71.04 73.812 70.872 73.668C70.836 74.94 70.788 75.108 70.512 75.108C70.356 75.108 69.732 75.108 69.612 75.108C69.336 75.108 69.288 75.06 69.288 74.772V72.036H68.46ZM66.504 68.256H69.84V69.528H66.504V68.256ZM66.504 70.236H69.84V71.52H66.504V70.236ZM66.504 66.288H69.84V67.536H66.504V66.288ZM65.664 65.544V72.264H70.704V65.544H65.664ZM66.648 72.012C66.48 73.548 66.036 74.676 64.248 75.276C64.428 75.444 64.68 75.768 64.776 75.972C66.768 75.216 67.32 73.884 67.524 72.012H66.648ZM60.66 67.176V68.004H64.404V67.176H60.66ZM62.412 70.764V75.96H63.288V69.708L62.412 70.764ZM62.412 64.932V67.584H63.288V64.932H62.412ZM63.288 69.828L62.76 70.308C63.24 70.74 64.332 71.892 64.74 72.432L65.292 71.676C64.98 71.364 63.672 70.14 63.288 69.828ZM64.104 67.176V67.368C63.408 69.192 61.776 71.016 60.228 71.976C60.372 72.132 60.6 72.552 60.684 72.78C62.328 71.676 64.092 69.672 64.944 67.476L64.44 67.14L64.284 67.176H64.104ZM77.832 65.22V74.112C77.832 75.432 78.216 75.792 79.476 75.792C79.752 75.792 81.636 75.792 81.948 75.792C83.196 75.792 83.46 75.108 83.604 73.14C83.34 73.08 82.968 72.912 82.74 72.744C82.656 74.496 82.56 74.94 81.9 74.94C81.492 74.94 79.86 74.94 79.536 74.94C78.864 74.94 78.744 74.796 78.744 74.124V65.22H77.832ZM82.332 67.212C81.312 68.148 79.596 69.264 78.06 70.068C78.192 70.26 78.372 70.572 78.432 70.776C80.016 69.948 81.78 68.976 82.992 67.98L82.332 67.212ZM75.744 65.112C74.952 67.008 73.632 68.832 72.24 69.996C72.42 70.212 72.696 70.68 72.792 70.896C74.28 69.564 75.72 67.512 76.62 65.4L75.744 65.112ZM74.376 68.244V75.948H75.264V67.38L75.252 67.368L74.376 68.244ZM91.524 65.496H90.42C90.444 65.604 90.48 65.94 90.504 66.264C90.54 66.924 90.552 69.312 90.552 69.84L91.464 70.308C91.452 69.348 91.428 67.032 91.464 66.252C91.464 66.108 91.5 65.64 91.524 65.496ZM85.14 67.176L85.164 68.1C86.976 67.968 89.544 67.884 91.608 67.884C93.372 67.884 94.452 67.908 95.124 67.944L95.136 67.056C94.572 67.044 93.084 67.044 91.62 67.044C89.772 67.044 86.772 67.152 85.14 67.176ZM91.44 70.656L90.78 70.32C90.972 71.604 90.492 72.228 89.748 72.228C89.088 72.228 88.524 71.796 88.524 71.04C88.524 70.26 89.112 69.768 89.748 69.768C90.396 69.768 90.924 70.224 90.924 71.304C90.924 73.284 89.652 74.352 87.468 74.868L88.272 75.648C91.056 74.82 91.848 73.02 91.848 71.388C91.848 70.008 91.14 68.976 89.748 68.976C88.608 68.976 87.624 69.864 87.624 71.052C87.624 72.36 88.596 73.068 89.604 73.068C90.696 73.068 91.44 72.264 91.44 70.656ZM98.856 66.168L98.88 67.152C99.144 67.116 99.408 67.104 99.684 67.08C100.308 67.044 102.708 66.948 103.344 66.912C102.744 67.452 101.232 68.712 100.56 69.264C99.876 69.852 98.328 71.148 97.332 71.964L98.028 72.66C99.54 71.112 100.62 70.272 102.612 70.272C104.184 70.272 105.312 71.148 105.312 72.336C105.312 73.836 104.028 74.676 101.988 74.676C101.04 74.676 100.38 74.328 100.38 73.74C100.38 73.32 100.8 72.984 101.352 72.984C102.312 72.984 102.9 73.716 102.972 74.736L103.836 74.592C103.752 73.38 102.948 72.252 101.352 72.252C100.248 72.252 99.504 72.996 99.504 73.812C99.504 74.82 100.5 75.528 102.132 75.528C104.676 75.528 106.272 74.268 106.272 72.336C106.272 70.716 104.844 69.528 102.852 69.528C102.312 69.528 101.736 69.588 101.184 69.768C102.12 69 103.752 67.596 104.34 67.14C104.568 66.96 104.808 66.804 105.024 66.66L104.472 65.952C104.34 66 104.172 66.024 103.812 66.06C103.176 66.12 100.332 66.204 99.696 66.204C99.456 66.204 99.12 66.192 98.856 66.168ZM110.808 66.588V67.56C111.756 67.644 112.788 67.692 113.988 67.692C115.092 67.692 116.4 67.608 117.216 67.548V66.564C116.352 66.66 115.14 66.732 113.988 66.732C112.776 66.732 111.672 66.684 110.808 66.588ZM111.288 71.424L110.316 71.328C110.208 71.808 110.076 72.372 110.076 72.996C110.076 74.508 111.492 75.3 113.928 75.3C115.632 75.3 117.156 75.12 118.02 74.892L118.008 73.86C117.096 74.148 115.548 74.328 113.904 74.328C111.984 74.328 111.048 73.704 111.048 72.78C111.048 72.336 111.144 71.892 111.288 71.424ZM129.756 67.848L129.24 66.984C128.988 67.188 128.724 67.344 128.376 67.548C127.596 67.992 125.916 68.796 124.692 69.612C123.276 70.548 122.4 71.568 122.4 72.864C122.4 74.664 124.032 75.336 126.288 75.336C127.788 75.336 129.18 75.204 130.08 75.048L130.092 73.968C129.156 74.208 127.548 74.376 126.252 74.376C124.356 74.376 123.396 73.752 123.396 72.756C123.396 71.856 124.068 71.064 125.184 70.332C126.36 69.564 128.028 68.772 128.832 68.352C129.192 68.172 129.492 68.004 129.756 67.848ZM123.684 65.664L122.736 66.072C123.384 67.56 124.104 69.18 124.716 70.164L125.532 69.672C124.98 68.7 124.236 67.2 123.684 65.664ZM137.46 66.9L137.472 67.872C138.78 68.016 141.108 68.016 142.392 67.872V66.9C141.204 67.08 138.768 67.128 137.46 66.9ZM137.928 71.796L137.064 71.712C136.932 72.288 136.872 72.72 136.872 73.116C136.872 74.244 137.772 74.916 139.776 74.916C141.024 74.916 142.032 74.82 142.776 74.664L142.752 73.656C141.792 73.884 140.856 73.98 139.788 73.98C138.144 73.98 137.76 73.44 137.76 72.888C137.76 72.564 137.82 72.228 137.928 71.796ZM135.18 65.976L134.112 65.892C134.1 66.156 134.064 66.456 134.028 66.732C133.884 67.728 133.488 69.78 133.488 71.544C133.488 73.176 133.692 74.556 133.932 75.408L134.784 75.348C134.772 75.216 134.76 75.048 134.748 74.928C134.748 74.784 134.772 74.556 134.808 74.388C134.916 73.812 135.36 72.552 135.66 71.7L135.156 71.304C134.952 71.796 134.676 72.516 134.472 73.056C134.4 72.468 134.364 71.964 134.364 71.388C134.364 70.032 134.736 67.896 134.964 66.78C135.012 66.564 135.108 66.18 135.18 65.976ZM150.492 65.58H149.352C149.4 65.808 149.436 66.336 149.448 66.78C149.448 67.296 149.46 68.28 149.46 68.976C149.46 70.2 149.604 72.528 149.604 73.416C149.604 74.244 149.172 74.664 148.296 74.664C147.132 74.664 146.46 74.292 146.46 73.632C146.46 72.96 147.168 72.54 148.416 72.54C150.516 72.54 152.484 73.716 153.684 74.916L154.26 74.016C153.036 72.9 150.9 71.7 148.524 71.7C146.448 71.7 145.512 72.576 145.512 73.668C145.512 75.036 146.724 75.552 148.392 75.552C149.988 75.552 150.588 74.712 150.588 73.74C150.588 72.684 150.396 70.284 150.396 68.976C150.396 68.148 150.396 67.32 150.396 66.78C150.408 66.42 150.444 65.844 150.492 65.58ZM149.868 68.004V68.892C150.732 68.892 152.688 68.808 153.984 68.688L153.948 67.788C152.652 67.944 150.696 68.004 149.868 68.004ZM159.822 65.532L158.778 65.496C158.754 65.832 158.73 66.168 158.682 66.528C158.538 67.512 158.31 69.276 158.31 70.416C158.31 71.196 158.37 71.868 158.43 72.324L159.366 72.252C159.282 71.652 159.282 71.232 159.342 70.776C159.486 69.204 160.878 67.02 162.378 67.02C163.638 67.02 164.274 68.388 164.274 70.284C164.274 73.296 162.246 74.352 159.63 74.748L160.206 75.612C163.17 75.072 165.27 73.596 165.27 70.272C165.27 67.752 164.118 66.144 162.534 66.144C161.01 66.144 159.762 67.644 159.27 68.88C159.342 68.04 159.57 66.42 159.822 65.532ZM176.406 69.492V66.648C176.406 66.18 176.454 65.796 176.466 65.676H175.374C175.398 65.784 175.434 66.18 175.434 66.648V69.564C175.434 72.936 174.354 73.968 172.17 74.796L172.974 75.564C175.71 74.328 176.406 72.684 176.406 69.492ZM172.074 65.748H171.006C171.042 66.024 171.066 66.36 171.066 66.612V71.016C171.066 71.472 171.018 71.988 171.006 72.096H172.074C172.062 71.988 172.026 71.46 172.026 71.016V66.612C172.026 66.204 172.062 65.856 172.074 65.748ZM168.57 68.076V69.108C168.702 69.108 169.242 69.072 169.77 69.072H177.726C178.254 69.072 178.686 69.096 178.818 69.108V68.088C178.65 68.112 178.254 68.16 177.714 68.16H169.77C169.266 68.16 168.678 68.088 168.57 68.076ZM180.978 69.804V70.98C181.362 70.956 181.998 70.932 182.658 70.932C183.546 70.932 188.334 70.932 189.246 70.932C189.774 70.932 190.278 70.968 190.53 70.98V69.804C190.254 69.828 189.834 69.876 189.234 69.876C188.346 69.876 183.534 69.876 182.658 69.876C181.974 69.876 181.35 69.84 180.978 69.804ZM200.502 65.604L199.866 65.88C200.19 66.336 200.586 67.056 200.826 67.536L201.474 67.248C201.234 66.756 200.802 66.036 200.502 65.604ZM201.81 65.124L201.186 65.4C201.522 65.844 201.918 66.528 202.17 67.044L202.818 66.756C202.59 66.312 202.134 65.568 201.81 65.124ZM195.114 66H193.998C194.046 66.288 194.07 66.684 194.07 66.972C194.07 67.62 194.07 72.42 194.07 73.572C194.07 74.556 194.586 74.976 195.498 75.144C196.002 75.228 196.71 75.252 197.43 75.252C198.738 75.252 200.538 75.168 201.582 75.012V73.908C200.574 74.172 198.738 74.292 197.466 74.292C196.878 74.292 196.266 74.268 195.882 74.196C195.306 74.088 195.042 73.932 195.042 73.308C195.042 72.444 195.042 67.62 195.042 66.972C195.042 66.636 195.078 66.288 195.114 66ZM194.598 69.792L194.61 70.788C196.086 70.416 198.462 69.72 199.95 69.12C200.31 68.976 200.742 68.784 201.09 68.64L200.67 67.68C200.322 67.896 199.974 68.064 199.614 68.232C198.222 68.82 196.05 69.48 194.598 69.792ZM213.354 66.984L212.754 66.516C212.562 66.576 212.238 66.612 211.854 66.612C211.398 66.612 207.69 66.612 207.222 66.612C206.85 66.612 206.166 66.564 206.01 66.54V67.62C206.142 67.608 206.79 67.56 207.222 67.56C207.63 67.56 211.47 67.56 211.902 67.56C211.59 68.556 210.714 69.984 209.898 70.908C208.662 72.276 206.898 73.716 204.954 74.46L205.722 75.264C207.618 74.4 209.334 72.972 210.678 71.472C211.674 70.368 212.586 68.688 213.066 67.5C213.126 67.344 213.282 67.08 213.354 66.984ZM210.834 70.848L210.15 71.52C211.446 72.66 212.85 74.196 213.714 75.336L214.542 74.604C213.726 73.608 212.13 71.928 210.834 70.848ZM220.734 65.4V75.948H221.574V65.4H220.734ZM224.034 65.172V74.328H224.85V65.172H224.034ZM226.122 65.94C225.918 66.708 225.474 67.848 225.138 68.532L225.762 68.772C226.122 68.112 226.566 67.068 226.938 66.204L226.122 65.94ZM222.018 66.276C222.378 67.02 222.714 68.004 222.834 68.652L223.554 68.4C223.434 67.752 223.074 66.78 222.678 66.048L222.018 66.276ZM221.898 68.976V69.792H227.082V68.976H221.898ZM221.226 74.556V75.372H227.31V74.556H221.226ZM223.866 69.408C223.458 70.68 222.534 72.168 221.694 72.936C221.838 73.152 222.042 73.524 222.126 73.764C223.062 72.876 223.986 71.124 224.49 69.672L223.866 69.408ZM224.754 70.092L224.31 70.488C224.814 71.016 226.11 72.528 226.53 73.14L227.07 72.444C226.722 72.048 225.186 70.464 224.754 70.092ZM218.118 64.932C217.818 65.724 217.266 66.9 216.846 67.596L217.446 67.86C217.89 67.188 218.454 66.108 218.886 65.22L218.118 64.932ZM219.39 66.3C218.766 67.56 217.686 69.348 216.834 70.416L217.374 70.704C218.238 69.672 219.342 67.968 220.134 66.636L219.39 66.3ZM216.198 67.416C216.834 68.016 217.554 68.868 217.854 69.444L218.358 68.784C218.046 68.244 217.314 67.428 216.678 66.84L216.198 67.416ZM218.934 69.012C219.378 69.828 219.786 70.908 219.918 71.58L220.59 71.292C220.47 70.62 220.026 69.564 219.57 68.772L218.934 69.012ZM216.102 70.236L216.198 71.04C217.242 70.968 218.61 70.884 219.966 70.8V70.032C218.526 70.116 217.098 70.188 216.102 70.236ZM219.162 71.928C219.438 72.624 219.666 73.536 219.726 74.136L220.398 73.932C220.338 73.344 220.086 72.432 219.798 71.748L219.162 71.928ZM216.822 71.784C216.69 72.828 216.462 73.908 216.078 74.64C216.258 74.712 216.606 74.868 216.75 74.976C217.122 74.208 217.41 73.044 217.566 71.916L216.822 71.784ZM218.034 70.584V75.96H218.814V70.584H218.034ZM235.458 64.92V68.28H236.346V64.92H235.458ZM232.71 66.048V66.804H239.154V66.048H232.71ZM233.13 67.896V68.664H238.734V67.896H233.13ZM232.758 69.492V71.652H233.538V70.224H238.374V71.652H239.178V69.492H232.758ZM236.502 71.1V74.772C236.502 75.636 236.694 75.888 237.498 75.888C237.654 75.888 238.302 75.888 238.458 75.888C239.142 75.888 239.358 75.492 239.43 73.98C239.202 73.908 238.854 73.788 238.686 73.632C238.662 74.916 238.602 75.108 238.374 75.108C238.23 75.108 237.714 75.108 237.618 75.108C237.366 75.108 237.33 75.06 237.33 74.772V71.1H236.502ZM234.294 71.112V71.844C234.294 72.804 234.066 74.328 231.918 75.372C232.134 75.528 232.422 75.792 232.554 75.984C234.858 74.82 235.122 73.068 235.122 71.868V71.112H234.294ZM230.118 64.932C229.806 65.724 229.242 66.9 228.81 67.596L229.422 67.86C229.89 67.2 230.454 66.12 230.91 65.232L230.118 64.932ZM231.462 66.3C230.802 67.56 229.674 69.348 228.774 70.416L229.326 70.728C230.226 69.684 231.39 67.98 232.218 66.648L231.462 66.3ZM228.198 67.428C228.834 68.04 229.554 68.892 229.854 69.468L230.37 68.796C230.058 68.244 229.326 67.44 228.678 66.852L228.198 67.428ZM230.994 69.048C231.474 69.84 231.942 70.908 232.098 71.58L232.806 71.256C232.638 70.596 232.146 69.564 231.642 68.772L230.994 69.048ZM228.102 70.236L228.198 71.04C229.29 70.968 230.73 70.884 232.158 70.788V70.032C230.646 70.116 229.146 70.188 228.102 70.236ZM231.306 71.952C231.594 72.648 231.846 73.56 231.918 74.148L232.614 73.932C232.53 73.344 232.278 72.444 231.966 71.748L231.306 71.952ZM228.822 71.784C228.69 72.828 228.462 73.908 228.078 74.64C228.258 74.724 228.618 74.88 228.762 74.976C229.146 74.208 229.422 73.056 229.578 71.916L228.822 71.784ZM230.094 70.584V75.96H230.886V70.584H230.094ZM249.822 65.148V74.772C249.822 75 249.726 75.072 249.498 75.072C249.27 75.084 248.526 75.096 247.662 75.06C247.806 75.324 247.95 75.732 247.998 75.972C249.102 75.984 249.774 75.96 250.17 75.804C250.554 75.66 250.71 75.384 250.71 74.772V65.148H249.822ZM240.57 68.796V69.636H246.126V68.796H240.57ZM240.234 71.364V72.216H246.426V71.364H240.234ZM240.582 65.832C240.954 66.6 241.326 67.62 241.458 68.28L242.25 68.016C242.094 67.368 241.722 66.372 241.326 65.604L240.582 65.832ZM242.898 64.932V75.96H243.786V64.932H242.898ZM246.882 66.372V73.02H247.758V66.372H246.882ZM245.406 65.52C245.166 66.288 244.734 67.404 244.362 68.088L245.07 68.316C245.466 67.656 245.91 66.636 246.282 65.748L245.406 65.52ZM253.854 68.532V69.324H258.03V68.532H253.854ZM253.23 73.824V74.616H257.922V73.824H253.23ZM252.738 65.364V75.528H253.542V65.364H252.738ZM255.57 65.016V73.548H256.35V65.016H255.57ZM255.606 68.952C255.21 70.116 254.394 71.46 253.638 72.144C253.758 72.348 253.938 72.672 254.022 72.888C254.862 72.084 255.69 70.5 256.134 69.168L255.606 68.952ZM257.31 65.736C257.154 66.36 256.83 67.296 256.566 67.872L257.106 68.076C257.394 67.524 257.742 66.66 258.042 65.94L257.31 65.736ZM253.998 65.94C254.262 66.612 254.478 67.476 254.526 68.052L255.15 67.836C255.102 67.272 254.874 66.408 254.598 65.748L253.998 65.94ZM256.29 69.744L255.858 70.08C256.242 70.452 257.178 71.484 257.478 71.916L257.982 71.28C257.718 71.016 256.602 69.984 256.29 69.744ZM258.966 68.964V69.804H263.382V68.964H258.966ZM261.174 69.396V75.972H262.038V69.396H261.174ZM258.534 65.952V70.152C258.534 71.844 258.39 73.92 256.95 75.456C257.178 75.564 257.49 75.864 257.598 76.068C259.182 74.388 259.398 71.952 259.398 70.164V66.456C259.554 66.432 259.626 66.372 259.638 66.288L258.534 65.952ZM262.47 65.112C261.606 65.556 260.058 65.976 258.714 66.252C258.822 66.444 258.954 66.744 259.002 66.948C260.418 66.684 262.086 66.276 263.19 65.784L262.47 65.112ZM269.286 65.52L268.302 65.436C268.266 66 268.098 66.72 267.834 67.38C267.426 68.4 266.622 69.792 264.894 71.448L265.722 72.06C266.118 71.568 266.454 71.136 266.802 70.8C267.354 70.308 268.11 69.924 268.878 69.924C269.502 69.924 269.982 70.248 269.994 70.944C270.006 71.568 269.994 72.804 269.946 73.44H270.87C270.858 72.696 270.834 71.316 270.834 70.692C270.834 69.72 270.114 69.168 269.19 69.168C268.662 69.168 267.978 69.336 267.51 69.612C267.99 68.988 268.434 68.184 268.734 67.452C269.046 66.648 269.178 65.988 269.286 65.52ZM265.17 66.816V67.716C265.842 67.764 266.634 67.788 267.15 67.788C268.674 67.788 270.906 67.68 272.586 67.428V66.54C270.894 66.84 268.818 66.936 267.198 66.936C266.646 66.936 265.818 66.9 265.17 66.816ZM274.338 69.708L273.954 68.82C273.618 68.988 273.318 69.12 272.958 69.288C272.166 69.66 271.194 70.032 270.054 70.62C268.626 71.352 267.138 72.252 267.138 73.716C267.138 75.168 268.518 75.54 270.222 75.54C271.266 75.54 272.598 75.444 273.51 75.336L273.546 74.364C272.49 74.556 271.194 74.664 270.258 74.664C269.022 74.664 268.098 74.52 268.098 73.584C268.098 72.756 268.938 72.108 270.126 71.484C271.29 70.884 272.43 70.428 273.282 70.092C273.606 69.972 274.038 69.804 274.338 69.708ZM276.378 67.5V68.352H280.218V67.5H276.378ZM278.082 64.92V75.948H278.91V64.92H278.082ZM278.058 68.028C277.722 69.744 276.918 71.832 276.126 72.912C276.27 73.116 276.486 73.452 276.594 73.692C277.446 72.492 278.25 70.128 278.622 68.22L278.058 68.028ZM278.85 69.18L278.466 69.564C278.778 70.032 279.606 71.448 279.882 72.036L280.386 71.328C280.158 70.98 279.138 69.504 278.85 69.18ZM281.406 67.764V68.532H285.978V67.764H281.406ZM283.662 65.736C284.43 66.804 285.798 67.92 287.022 68.556C287.142 68.316 287.334 67.98 287.502 67.776C286.242 67.224 284.898 66.144 284.046 64.944H283.218C282.57 66.036 281.286 67.212 279.942 67.848C280.098 68.04 280.302 68.364 280.398 68.592C281.706 67.884 282.978 66.756 283.662 65.736ZM281.418 70.356H285.93V72H281.418V70.356ZM280.626 69.636V72.744H286.758V69.636H280.626ZM283.23 68.22V71.376C283.23 72.876 282.846 74.376 279.798 75.348C279.954 75.492 280.218 75.828 280.29 76.02C283.506 74.964 284.058 73.128 284.058 71.4V68.22H283.23ZM284.178 72.276L283.41 72.444C284.142 74.532 285.234 75.384 286.902 76.02C286.998 75.756 287.226 75.456 287.43 75.264C285.894 74.748 284.874 74.076 284.178 72.276ZM296.958 64.932V74.724C296.958 74.952 296.874 75.012 296.646 75.024C296.406 75.024 295.638 75.036 294.822 75.012C294.954 75.276 295.098 75.708 295.146 75.96C296.19 75.96 296.898 75.936 297.294 75.78C297.69 75.624 297.834 75.36 297.834 74.724V64.932H296.958ZM293.718 70.14C294.306 71.016 294.954 72.204 295.218 72.972L296.01 72.552C295.734 71.784 295.086 70.632 294.462 69.78L293.718 70.14ZM293.142 67.692V68.544H299.31V67.692H293.142ZM288.786 68.556V69.276H292.53V68.556H288.786ZM288.858 65.352V66.072H292.542V65.352H288.858ZM288.786 70.164V70.884H292.53V70.164H288.786ZM288.222 66.924V67.668H292.974V66.924H288.222ZM289.206 71.784V72.528H291.69V74.532H289.206V75.288H292.494V71.784H289.206ZM288.774 71.784V75.84H289.578V71.784H288.774ZM307.29 65.496H306.186C306.21 65.604 306.246 65.94 306.27 66.264C306.306 66.924 306.318 69.312 306.318 69.84L307.23 70.308C307.218 69.348 307.194 67.032 307.23 66.252C307.23 66.108 307.266 65.64 307.29 65.496ZM300.906 67.176L300.93 68.1C302.742 67.968 305.31 67.884 307.374 67.884C309.138 67.884 310.218 67.908 310.89 67.944L310.902 67.056C310.338 67.044 308.85 67.044 307.386 67.044C305.538 67.044 302.538 67.152 300.906 67.176ZM307.206 70.656L306.546 70.32C306.738 71.604 306.258 72.228 305.514 72.228C304.854 72.228 304.29 71.796 304.29 71.04C304.29 70.26 304.878 69.768 305.514 69.768C306.162 69.768 306.69 70.224 306.69 71.304C306.69 73.284 305.418 74.352 303.234 74.868L304.038 75.648C306.822 74.82 307.614 73.02 307.614 71.388C307.614 70.008 306.906 68.976 305.514 68.976C304.374 68.976 303.39 69.864 303.39 71.052C303.39 72.36 304.362 73.068 305.37 73.068C306.462 73.068 307.206 72.264 307.206 70.656ZM314.622 66.168L314.646 67.152C314.91 67.116 315.174 67.104 315.45 67.08C316.074 67.044 318.474 66.948 319.11 66.912C318.51 67.452 316.998 68.712 316.326 69.264C315.642 69.852 314.094 71.148 313.098 71.964L313.794 72.66C315.306 71.112 316.386 70.272 318.378 70.272C319.95 70.272 321.078 71.148 321.078 72.336C321.078 73.836 319.794 74.676 317.754 74.676C316.806 74.676 316.146 74.328 316.146 73.74C316.146 73.32 316.566 72.984 317.118 72.984C318.078 72.984 318.666 73.716 318.738 74.736L319.602 74.592C319.518 73.38 318.714 72.252 317.118 72.252C316.014 72.252 315.27 72.996 315.27 73.812C315.27 74.82 316.266 75.528 317.898 75.528C320.442 75.528 322.038 74.268 322.038 72.336C322.038 70.716 320.61 69.528 318.618 69.528C318.078 69.528 317.502 69.588 316.95 69.768C317.886 69 319.518 67.596 320.106 67.14C320.334 66.96 320.574 66.804 320.79 66.66L320.238 65.952C320.106 66 319.938 66.024 319.578 66.06C318.942 66.12 316.098 66.204 315.462 66.204C315.222 66.204 314.886 66.192 314.622 66.168ZM52.176 84.064V84.796H59.46V84.064H52.176ZM53.124 85.96C53.748 86.344 54.54 86.92 54.924 87.304L55.428 86.68C55.032 86.308 54.228 85.768 53.604 85.408L53.124 85.96ZM57.012 83.356C57.456 83.608 57.996 84.004 58.26 84.268L58.728 83.8C58.452 83.524 57.9 83.164 57.456 82.924L57.012 83.356ZM53.064 84.4C52.968 85.972 52.68 87.508 51.492 88.348C51.684 88.48 51.924 88.756 52.044 88.936C53.388 87.952 53.748 86.26 53.88 84.4H53.064ZM55.224 77.932C55.248 84.064 56.004 88.972 58.416 88.984C59.22 88.984 59.484 88.588 59.64 87.232C59.448 87.16 59.172 87.004 59.004 86.836C58.944 87.928 58.824 88.204 58.476 88.204C56.844 88.204 55.968 83.908 56.028 77.932H55.224ZM57.912 84.988C57.24 86.476 55.872 87.688 54.072 88.384C54.24 88.528 54.468 88.804 54.576 88.96C56.424 88.192 57.9 86.932 58.68 85.276L57.912 84.988ZM56.088 80.02C56.604 80.416 57.204 80.992 57.48 81.388L57.864 80.824C57.588 80.44 56.988 79.888 56.46 79.528L56.088 80.02ZM58.332 81.472C58.644 82.036 58.944 82.792 59.052 83.26L59.64 82.984C59.544 82.528 59.22 81.808 58.884 81.256L58.332 81.472ZM56.244 82.312L56.376 83.008C57.168 82.936 58.08 82.852 59.04 82.756V82.132C57.984 82.204 56.988 82.264 56.244 82.312ZM57.48 78.04C57.276 78.628 56.88 79.492 56.58 80.02L57.096 80.26C57.432 79.768 57.84 78.988 58.176 78.316L57.48 78.04ZM58.464 79.24C58.008 80.212 57.192 81.58 56.556 82.408L57.06 82.696C57.708 81.88 58.524 80.596 59.136 79.564L58.464 79.24ZM52.02 80.02C52.536 80.416 53.136 80.992 53.412 81.388L53.796 80.824C53.532 80.44 52.92 79.888 52.404 79.528L52.02 80.02ZM54.108 81.544C54.396 82.12 54.66 82.864 54.744 83.332L55.332 83.08C55.26 82.624 54.972 81.892 54.66 81.34L54.108 81.544ZM52.068 82.444L52.2 83.152C52.992 83.08 53.916 82.996 54.876 82.9V82.252C53.808 82.336 52.824 82.408 52.068 82.444ZM53.424 78.04C53.208 78.628 52.824 79.504 52.524 80.044L53.04 80.272C53.364 79.78 53.772 78.988 54.12 78.328L53.424 78.04ZM54.408 79.24C53.928 80.248 53.076 81.664 52.404 82.516L52.92 82.792C53.604 81.964 54.444 80.632 55.068 79.564L54.408 79.24ZM48.612 80.524V81.364H52.248V80.524H48.612ZM50.136 77.92V88.948H50.952V77.92H50.136ZM50.1 81.028C49.812 82.732 49.092 84.832 48.36 85.912C48.504 86.104 48.708 86.44 48.804 86.656C49.596 85.456 50.304 83.092 50.64 81.196L50.1 81.028ZM50.892 81.82L50.52 82.168C50.808 82.636 51.564 84.052 51.804 84.652L52.26 83.992C52.068 83.644 51.132 82.144 50.892 81.82ZM61.164 87.652L61.284 88.54C63.408 88.468 66.66 88.324 69.684 88.168L69.72 87.34C66.6 87.484 63.252 87.604 61.164 87.652ZM61.056 83.944V84.796H71.004V83.944H61.056ZM63.108 81.652V82.492H68.844V81.652H63.108ZM64.344 84.484C63.984 85.54 63.276 87.028 62.712 87.964L63.516 88.228C64.104 87.328 64.8 85.924 65.352 84.772L64.344 84.484ZM67.2 85.756C68.268 86.716 69.456 88.096 69.996 88.996L70.812 88.504C70.248 87.592 69.072 86.296 67.968 85.348L67.2 85.756ZM65.952 78.808C67.068 80.368 69.18 81.976 71.052 82.876C71.208 82.612 71.424 82.288 71.64 82.072C69.732 81.292 67.632 79.72 66.36 77.944H65.436C64.5 79.48 62.496 81.22 60.432 82.204C60.624 82.396 60.852 82.72 60.96 82.936C63 81.916 64.968 80.272 65.952 78.808ZM77.52 78.52L76.536 78.436C76.5 79 76.332 79.72 76.068 80.38C75.66 81.4 74.856 82.792 73.128 84.448L73.956 85.06C74.352 84.568 74.688 84.136 75.036 83.8C75.588 83.308 76.344 82.924 77.112 82.924C77.736 82.924 78.216 83.248 78.228 83.944C78.24 84.568 78.228 85.804 78.18 86.44H79.104C79.092 85.696 79.068 84.316 79.068 83.692C79.068 82.72 78.348 82.168 77.424 82.168C76.896 82.168 76.212 82.336 75.744 82.612C76.224 81.988 76.668 81.184 76.968 80.452C77.28 79.648 77.412 78.988 77.52 78.52ZM73.404 79.816V80.716C74.076 80.764 74.868 80.788 75.384 80.788C76.908 80.788 79.14 80.68 80.82 80.428V79.54C79.128 79.84 77.052 79.936 75.432 79.936C74.88 79.936 74.052 79.9 73.404 79.816ZM82.572 82.708L82.188 81.82C81.852 81.988 81.552 82.12 81.192 82.288C80.4 82.66 79.428 83.032 78.288 83.62C76.86 84.352 75.372 85.252 75.372 86.716C75.372 88.168 76.752 88.54 78.456 88.54C79.5 88.54 80.832 88.444 81.744 88.336L81.78 87.364C80.724 87.556 79.428 87.664 78.492 87.664C77.256 87.664 76.332 87.52 76.332 86.584C76.332 85.756 77.172 85.108 78.36 84.484C79.524 83.884 80.664 83.428 81.516 83.092C81.84 82.972 82.272 82.804 82.572 82.708ZM89.952 78.304V79.756C89.952 80.596 89.772 81.592 88.62 82.336C88.8 82.456 89.148 82.768 89.268 82.936C90.552 82.084 90.816 80.812 90.816 79.768V78.304H89.952ZM92.88 78.304V81.268C92.88 82.12 93.096 82.36 93.828 82.36C93.984 82.36 94.512 82.36 94.668 82.36C95.316 82.36 95.532 81.988 95.604 80.584C95.376 80.524 95.016 80.392 94.848 80.26C94.824 81.412 94.776 81.568 94.572 81.568C94.452 81.568 94.056 81.568 93.96 81.568C93.768 81.568 93.732 81.52 93.732 81.256V78.304H92.88ZM90.6 83.968L89.796 84.22C90.756 86.572 92.544 88.228 95.04 88.96C95.16 88.732 95.424 88.372 95.628 88.18C93.216 87.568 91.428 86.032 90.6 83.968ZM93.96 83.128V83.272C93.24 85.936 91.068 87.556 88.644 88.168C88.812 88.36 89.04 88.744 89.136 88.96C91.764 88.192 94.02 86.464 94.872 83.32L94.296 83.092L94.14 83.128H93.96ZM89.172 83.128V83.944H94.308V83.128H89.172ZM90.312 78.304V79.108H93.312V78.304H90.312ZM85.02 81.556V82.276H88.596V81.556H85.02ZM85.08 78.352V79.072H88.572V78.352H85.08ZM85.02 83.164V83.884H88.596V83.164H85.02ZM84.456 79.924V80.668H89.016V79.924H84.456ZM85.452 84.784V85.528H87.804V87.532H85.452V88.288H88.596V84.784H85.452ZM85.008 84.784V88.84H85.788V84.784H85.008ZM105.132 78.652H104.004C104.052 78.832 104.1 79.096 104.124 79.36C104.16 79.864 104.208 81.724 104.208 82.492C104.208 84.796 104.148 86.164 102.864 87.28C102.564 87.58 102.072 87.88 101.7 88.036L102.576 88.708C105.12 87.22 105.12 85.252 105.12 82.504C105.12 81.832 105.072 79.804 105.084 79.36C105.084 79.084 105.096 78.844 105.132 78.652ZM100.74 81.136V82.084C101.268 82.132 102.108 82.168 102.696 82.168C104.22 82.168 105.9 82.06 107.064 81.868V80.896C105.864 81.172 104.16 81.268 102.684 81.268C102.024 81.268 101.268 81.22 100.74 81.136ZM99.06 78.832L97.944 78.712C97.932 78.928 97.92 79.252 97.884 79.516C97.74 80.524 97.428 82.36 97.428 84.316C97.428 85.816 97.812 87.376 98.052 88.12L98.88 88.024C98.868 87.892 98.844 87.736 98.844 87.616C98.832 87.472 98.856 87.244 98.892 87.076C99.024 86.476 99.384 85.252 99.672 84.424L99.156 84.112C98.94 84.7 98.676 85.432 98.52 85.948C98.052 83.98 98.472 81.352 98.856 79.612C98.904 79.384 98.988 79.048 99.06 78.832ZM110.856 79.168L110.88 80.152C111.144 80.116 111.408 80.104 111.684 80.08C112.308 80.044 114.708 79.948 115.344 79.912C114.744 80.452 113.232 81.712 112.56 82.264C111.876 82.852 110.328 84.148 109.332 84.964L110.028 85.66C111.54 84.112 112.62 83.272 114.612 83.272C116.184 83.272 117.312 84.148 117.312 85.336C117.312 86.836 116.028 87.676 113.988 87.676C113.04 87.676 112.38 87.328 112.38 86.74C112.38 86.32 112.8 85.984 113.352 85.984C114.312 85.984 114.9 86.716 114.972 87.736L115.836 87.592C115.752 86.38 114.948 85.252 113.352 85.252C112.248 85.252 111.504 85.996 111.504 86.812C111.504 87.82 112.5 88.528 114.132 88.528C116.676 88.528 118.272 87.268 118.272 85.336C118.272 83.716 116.844 82.528 114.852 82.528C114.312 82.528 113.736 82.588 113.184 82.768C114.12 82 115.752 80.596 116.34 80.14C116.568 79.96 116.808 79.804 117.024 79.66L116.472 78.952C116.34 79 116.172 79.024 115.812 79.06C115.176 79.12 112.332 79.204 111.696 79.204C111.456 79.204 111.12 79.192 110.856 79.168ZM122.808 79.588V80.56C123.756 80.644 124.788 80.692 125.988 80.692C127.092 80.692 128.4 80.608 129.216 80.548V79.564C128.352 79.66 127.14 79.732 125.988 79.732C124.776 79.732 123.672 79.684 122.808 79.588ZM123.288 84.424L122.316 84.328C122.208 84.808 122.076 85.372 122.076 85.996C122.076 87.508 123.492 88.3 125.928 88.3C127.632 88.3 129.156 88.12 130.02 87.892L130.008 86.86C129.096 87.148 127.548 87.328 125.904 87.328C123.984 87.328 123.048 86.704 123.048 85.78C123.048 85.336 123.144 84.892 123.288 84.424ZM141.756 80.848L141.24 79.984C140.988 80.188 140.724 80.344 140.376 80.548C139.596 80.992 137.916 81.796 136.692 82.612C135.276 83.548 134.4 84.568 134.4 85.864C134.4 87.664 136.032 88.336 138.288 88.336C139.788 88.336 141.18 88.204 142.08 88.048L142.092 86.968C141.156 87.208 139.548 87.376 138.252 87.376C136.356 87.376 135.396 86.752 135.396 85.756C135.396 84.856 136.068 84.064 137.184 83.332C138.36 82.564 140.028 81.772 140.832 81.352C141.192 81.172 141.492 81.004 141.756 80.848ZM135.684 78.664L134.736 79.072C135.384 80.56 136.104 82.18 136.716 83.164L137.532 82.672C136.98 81.7 136.236 80.2 135.684 78.664ZM149.088 78.688L147.972 78.568C147.972 79.492 147.816 80.572 147.588 81.532C147.264 82.996 146.304 86.2 144.936 88.036L145.92 88.42C147.276 86.236 148.128 83.248 148.536 81.556C148.704 80.812 148.86 79.828 148.944 79.396C148.992 79.168 149.04 78.904 149.088 78.688ZM153.216 80.068L152.34 80.464C153.18 81.46 154.128 83.548 154.476 84.772L155.412 84.328C155.004 83.224 153.96 81.04 153.216 80.068ZM144.768 81.316L144.864 82.36C145.176 82.312 145.668 82.252 145.944 82.216C146.676 82.144 148.932 81.868 149.736 81.868C150.504 81.868 151.008 82.072 151.008 83.176C151.008 84.472 150.816 86.032 150.432 86.848C150.192 87.364 149.832 87.46 149.388 87.46C149.052 87.46 148.416 87.376 147.912 87.22L148.08 88.216C148.452 88.312 149.028 88.396 149.484 88.396C150.264 88.396 150.864 88.192 151.236 87.388C151.74 86.392 151.932 84.484 151.932 83.056C151.932 81.436 151.056 81.028 149.988 81.028C149.172 81.028 146.736 81.292 145.836 81.316C145.452 81.328 145.14 81.34 144.768 81.316ZM153.348 78.328L152.7 78.604C153.036 79.06 153.444 79.78 153.684 80.272L154.332 79.984C154.08 79.492 153.648 78.76 153.348 78.328ZM154.668 77.848L154.032 78.124C154.38 78.568 154.776 79.252 155.028 79.78L155.688 79.492C155.448 79.048 154.992 78.292 154.668 77.848ZM156.936 80.104L157.044 81.16C158.34 80.884 161.4 80.584 162.684 80.452C161.592 81.1 160.452 82.636 160.452 84.496C160.452 87.184 162.972 88.36 165.192 88.444L165.54 87.46C163.596 87.388 161.4 86.632 161.4 84.292C161.4 82.876 162.444 81.04 164.16 80.488C164.772 80.32 165.816 80.296 166.512 80.308L166.5 79.348C165.696 79.372 164.58 79.444 163.26 79.552C161.052 79.744 158.784 79.96 158.016 80.044C157.776 80.068 157.392 80.092 156.936 80.104ZM164.772 81.772L164.172 82.036C164.532 82.54 164.868 83.152 165.144 83.728L165.768 83.452C165.504 82.912 165.048 82.168 164.772 81.772ZM166.08 81.268L165.492 81.544C165.864 82.048 166.224 82.648 166.512 83.224L167.124 82.924C166.848 82.396 166.38 81.664 166.08 81.268ZM170.148 79.78L170.208 80.656C171.924 80.824 173.604 80.824 174.816 80.704C175.776 80.62 176.796 80.416 177.576 80.188L177.444 79.312C176.58 79.6 175.596 79.804 174.612 79.888C173.388 80.008 171.816 79.984 170.148 79.78ZM169.908 82.24L169.968 83.14C172.032 83.296 174.252 83.26 175.728 83.068C176.736 82.948 177.648 82.768 178.308 82.588L178.152 81.7C177.516 81.892 176.544 82.132 175.404 82.252C174 82.42 171.96 82.456 169.908 82.24ZM174.012 79.624C174.18 80.224 174.36 80.86 174.66 81.688C175.008 82.66 175.512 83.812 176.172 84.844C175.8 84.796 175.02 84.712 174.372 84.652L174.3 85.384C175.128 85.468 176.244 85.588 176.916 85.756L177.42 85.024C177.24 84.868 177.096 84.7 176.964 84.508C176.34 83.584 175.812 82.432 175.488 81.496C175.188 80.644 174.816 79.432 174.696 78.424L173.676 78.556C173.808 78.904 173.916 79.276 174.012 79.624ZM171.66 84.832L170.724 84.628C170.448 85.156 170.244 85.66 170.244 86.344C170.268 87.892 171.588 88.588 173.928 88.588C174.96 88.588 175.896 88.516 176.736 88.372L176.784 87.424C175.908 87.592 175.032 87.676 173.916 87.676C172.032 87.676 171.156 87.172 171.156 86.188C171.156 85.648 171.372 85.24 171.66 84.832ZM182.622 79.168L182.646 80.152C182.91 80.116 183.174 80.104 183.45 80.08C184.074 80.044 186.474 79.948 187.11 79.912C186.51 80.452 184.998 81.712 184.326 82.264C183.642 82.852 182.094 84.148 181.098 84.964L181.794 85.66C183.306 84.112 184.386 83.272 186.378 83.272C187.95 83.272 189.078 84.148 189.078 85.336C189.078 86.836 187.794 87.676 185.754 87.676C184.806 87.676 184.146 87.328 184.146 86.74C184.146 86.32 184.566 85.984 185.118 85.984C186.078 85.984 186.666 86.716 186.738 87.736L187.602 87.592C187.518 86.38 186.714 85.252 185.118 85.252C184.014 85.252 183.27 85.996 183.27 86.812C183.27 87.82 184.266 88.528 185.898 88.528C188.442 88.528 190.038 87.268 190.038 85.336C190.038 83.716 188.61 82.528 186.618 82.528C186.078 82.528 185.502 82.588 184.95 82.768C185.886 82 187.518 80.596 188.106 80.14C188.334 79.96 188.574 79.804 188.79 79.66L188.238 78.952C188.106 79 187.938 79.024 187.578 79.06C186.942 79.12 184.098 79.204 183.462 79.204C183.222 79.204 182.886 79.192 182.622 79.168ZM195.006 87.868V88.564H201.354V87.868H195.006ZM197.298 80.356V81.688H198.174V80.356H197.298ZM192.738 81.292V83.548H193.602V82.012H201.99V83.548H202.878V81.292H192.738ZM194.958 82.756V83.44H200.226V84.472H194.958V85.168H201.114V82.756H194.958ZM194.994 85.996V86.704H200.994V88.948H201.882V85.996H194.994ZM194.478 82.756V88.972H195.342V82.756H194.478ZM193.722 78.844V79.588H197.598V78.844H193.722ZM198.402 78.844V79.588H203.25V78.844H198.402ZM193.95 77.872C193.578 78.808 192.93 79.756 192.21 80.38C192.426 80.488 192.786 80.74 192.954 80.872C193.65 80.188 194.358 79.144 194.802 78.088L193.95 77.872ZM198.678 77.872C198.294 78.796 197.598 79.684 196.806 80.26C197.034 80.368 197.406 80.584 197.586 80.716C198.342 80.092 199.098 79.12 199.53 78.076L198.678 77.872ZM194.394 79.408C194.67 79.852 194.958 80.452 195.066 80.824L195.882 80.584C195.762 80.212 195.45 79.624 195.174 79.204L194.394 79.408ZM199.482 79.42C199.866 79.852 200.274 80.464 200.442 80.848L201.258 80.584C201.078 80.188 200.646 79.6 200.274 79.18L199.482 79.42ZM209.466 81.532H213.93V83.08H209.466V81.532ZM209.466 79.264H213.93V80.788H209.466V79.264ZM208.65 78.484V83.86H214.794V78.484H208.65ZM208.494 85.264V86.092H214.962V85.264H208.494ZM207.57 87.748V88.564H215.358V87.748H207.57ZM204.306 78.736V79.588H208.05V78.736H204.306ZM204.438 82.204V83.056H207.882V82.204H204.438ZM204.186 86.8L204.402 87.724C205.47 87.364 206.838 86.908 208.146 86.464L207.99 85.6C206.598 86.068 205.158 86.536 204.186 86.8ZM205.806 79.072V86.68L206.67 86.512V79.072H205.806ZM211.302 78.856V83.476H211.242V88.12H212.154V83.476H212.094V78.856H211.302ZM226.938 79.9L226.338 79.324C226.17 79.372 225.738 79.408 225.51 79.408C224.79 79.408 219.186 79.408 218.61 79.408C218.166 79.408 217.674 79.36 217.254 79.3V80.38C217.722 80.344 218.166 80.32 218.61 80.32C219.186 80.32 224.61 80.32 225.45 80.32C225.066 81.064 223.938 82.36 222.822 82.996L223.626 83.632C224.994 82.684 226.134 81.136 226.614 80.32C226.698 80.188 226.842 80.008 226.938 79.9ZM222.138 81.472H221.058C221.106 81.796 221.106 82.06 221.106 82.348C221.106 84.352 220.842 86.056 218.994 87.196C218.658 87.424 218.238 87.628 217.914 87.736L218.79 88.456C221.85 86.92 222.138 84.724 222.138 81.472ZM237.426 79.384C237.426 78.952 237.774 78.592 238.218 78.592C238.65 78.592 239.01 78.952 239.01 79.384C239.01 79.828 238.65 80.176 238.218 80.176C237.774 80.176 237.426 79.828 237.426 79.384ZM236.874 79.384C236.874 80.128 237.474 80.728 238.218 80.728C238.962 80.728 239.562 80.128 239.562 79.384C239.562 78.64 238.962 78.04 238.218 78.04C237.474 78.04 236.874 78.64 236.874 79.384ZM237.918 80.188L237.186 79.72C236.958 79.78 236.73 79.792 236.538 79.792C235.998 79.792 231.21 79.792 230.526 79.792C230.13 79.792 229.65 79.744 229.326 79.708V80.776C229.626 80.752 230.034 80.728 230.514 80.728C231.21 80.728 235.962 80.728 236.658 80.728C236.49 81.88 235.938 83.56 235.086 84.64C234.078 85.924 232.734 86.944 230.406 87.532L231.222 88.432C233.418 87.736 234.846 86.632 235.938 85.216C236.898 83.992 237.474 82.048 237.738 80.788C237.786 80.56 237.834 80.356 237.918 80.188ZM249.066 78.904H247.938C247.974 79.192 248.01 79.54 248.01 79.948C248.01 80.368 248.01 81.376 248.01 81.844C248.01 84.1 247.854 85.084 247.002 86.068C246.258 86.92 245.238 87.388 244.134 87.676L244.926 88.504C245.802 88.204 247.002 87.676 247.77 86.74C248.646 85.72 249.03 84.772 249.03 81.88C249.03 81.436 249.03 80.416 249.03 79.948C249.03 79.54 249.042 79.192 249.066 78.904ZM243.498 79H242.406C242.442 79.228 242.454 79.648 242.454 79.852C242.454 80.212 242.454 83.344 242.454 83.86C242.454 84.208 242.43 84.592 242.406 84.784H243.498C243.474 84.568 243.462 84.172 243.462 83.86C243.462 83.356 243.462 80.212 243.462 79.852C243.462 79.576 243.474 79.228 243.498 79Z" fill="black"/>
<path d="M19.42 19.3V21.08C19.9 21.04 20.88 21 21.62 21H31.22V31.42C31.22 32.14 31.18 32.88 31.18 33.18H32.98C32.96 32.88 32.9 31.98 32.9 31.26V20.92C32.9 20.46 32.92 19.82 32.94 19.38C32.54 19.4 31.96 19.42 31.46 19.42H21.62C20.96 19.42 20.1 19.36 19.42 19.3ZM19.18 30.34V32.16C19.72 32.1 20.62 32.08 21.44 32.08H32.12V30.44H21.38C20.56 30.44 19.68 30.38 19.18 30.34ZM40.54 18.36L39.38 19.58C40.88 20.56 43.36 22.72 44.38 23.76L45.62 22.48C44.52 21.38 41.94 19.3 40.54 18.36ZM38.82 31.76L39.86 33.4C43.2 32.78 45.72 31.54 47.74 30.28C50.76 28.38 53.08 25.66 54.44 23.18L53.48 21.46C52.32 23.94 49.9 26.9 46.8 28.84C44.9 30.02 42.3 31.24 38.82 31.76ZM62.1 30.44C62.1 32.4 62.8 33.38 66.52 33.38C69.02 33.38 71.02 33.22 72.8 32.96L72.86 31.24C70.88 31.64 68.94 31.84 66.62 31.84C64.24 31.84 63.72 31.4 63.72 30.02C63.72 28.04 63.72 21.5 63.72 19.4C63.72 18.82 63.78 18.14 63.86 17.56H61.98C62.08 18.14 62.1 18.8 62.1 19.4C62.1 21.52 62.1 28.6 62.1 30.44ZM73.72 21.5L72.54 20.58C72.3 20.72 71.9 20.84 71.48 20.94C69.96 21.3 59.74 23.36 57.18 23.66L57.5 25.34C59.9 24.82 70.68 22.66 71.3 22.54C70.7 23.72 69.24 25.92 67.74 27.3L69.12 28.12C70.74 26.48 72.3 23.96 73.22 22.3C73.36 22.06 73.56 21.72 73.72 21.5ZM92.1 18.64C92.1 17.92 92.68 17.32 93.42 17.32C94.14 17.32 94.74 17.92 94.74 18.64C94.74 19.38 94.14 19.96 93.42 19.96C92.68 19.96 92.1 19.38 92.1 18.64ZM91.18 18.64C91.18 19.88 92.18 20.88 93.42 20.88C94.66 20.88 95.66 19.88 95.66 18.64C95.66 17.4 94.66 16.4 93.42 16.4C92.18 16.4 91.18 17.4 91.18 18.64ZM92.92 19.98L91.7 19.2C91.32 19.3 90.94 19.32 90.62 19.32C89.72 19.32 81.74 19.32 80.6 19.32C79.94 19.32 79.14 19.24 78.6 19.18V20.96C79.1 20.92 79.78 20.88 80.58 20.88C81.74 20.88 89.66 20.88 90.82 20.88C90.54 22.8 89.62 25.6 88.2 27.4C86.52 29.54 84.28 31.24 80.4 32.22L81.76 33.72C85.42 32.56 87.8 30.72 89.62 28.36C91.22 26.32 92.18 23.08 92.62 20.98C92.7 20.6 92.78 20.26 92.92 19.98ZM102.72 31.24C102.72 31.98 102.7 32.98 102.6 33.62H104.54C104.46 32.96 104.42 31.88 104.42 31.24C104.42 30.3 104.4 22.72 104.4 19.62C104.4 19 104.46 18.14 104.54 17.52H102.58C102.68 18.16 102.72 19.04 102.72 19.62C102.72 21.28 102.72 30.12 102.72 31.24ZM104.04 22.78V24.54C106.22 25.22 109.96 26.64 112.24 27.86L112.94 26.16C110.72 25.08 106.68 23.54 104.04 22.78Z" fill="black"/>
<defs>
<clipPath id="clip0_622_3664">
<rect width="40" height="66" fill="white" transform="translate(252 126)"/>
</clipPath>
</defs>
</svg>
