<svg width="385" height="240" viewBox="0 0 385 240" fill="none" xmlns="http://www.w3.org/2000/svg">
<rect x="0.439941" width="384" height="240" rx="18" fill="#F2F1F6"/>
<path d="M22.3311 74.168C21.6231 74.168 21.0471 74.744 21.0471 75.44C21.0471 76.148 21.6231 76.724 22.3311 76.724C23.0271 76.724 23.6031 76.148 23.6031 75.44C23.6031 74.744 23.0271 74.168 22.3311 74.168ZM32.1711 71.252V72.092H39.8751V71.252H32.1711ZM33.3591 74.024H38.6031V75.824H33.3591V74.024ZM32.5311 73.256V76.592H39.4791V73.256H32.5311ZM33.2751 76.832L32.5311 77.084C33.8031 79.28 36.2631 80.528 39.4431 80.984C39.5631 80.732 39.7911 80.372 39.9831 80.18C36.8631 79.832 34.4031 78.716 33.2751 76.832ZM35.5071 69.968V75.272C35.5071 77.3 35.3031 79.352 31.7391 80.252C31.9191 80.444 32.1711 80.804 32.2791 81.008C35.9991 79.904 36.3951 77.6 36.3951 75.284V69.968H35.5071ZM31.6551 69.896C30.9591 71.72 29.7831 73.508 28.5711 74.648C28.7391 74.864 28.9911 75.332 29.0751 75.536C30.4071 74.204 31.6911 72.188 32.5071 70.16L31.6551 69.896ZM30.3951 73.04V81.02H31.2591V72.2L31.2471 72.188L30.3951 73.04ZM42.6711 70.772V71.636H50.4351V70.772H42.6711ZM42.6711 73.568V74.42H50.4231V73.568H42.6711ZM42.6111 76.436V77.288H50.4471V76.436H42.6111ZM42.1671 70.772V75.116C42.1671 76.808 42.0351 78.944 40.7151 80.432C40.9071 80.552 41.2671 80.852 41.4111 81.032C42.8391 79.436 43.0551 76.952 43.0551 75.128V70.772H42.1671ZM50.0751 70.772V79.736C50.0751 79.964 49.9911 80.036 49.7631 80.048C49.5351 80.048 48.7191 80.06 47.8671 80.024C47.9991 80.264 48.1431 80.66 48.1791 80.9C49.3191 80.912 50.0151 80.9 50.4231 80.756C50.8191 80.6 50.9631 80.324 50.9631 79.736V70.772H50.0751ZM45.9351 71.096V80.852H46.8471V71.096H45.9351ZM55.8351 71.432V72.2H58.1151V71.432H55.8351ZM52.8111 73.544V74.36H58.4151V73.544H52.8111ZM55.4031 69.98V73.952H56.2071V69.98H55.4031ZM53.6631 70.868V74.084H54.4071V70.868H53.6631ZM57.1791 76.736C56.5431 78.548 55.1271 79.712 52.9551 80.276C53.1591 80.468 53.3751 80.768 53.4591 81.008C55.7751 80.3 57.2751 79.004 57.9591 76.976L57.1791 76.736ZM56.8671 75.056C57.2391 75.668 57.6111 76.508 57.7551 77.024L58.4871 76.724C58.3311 76.22 57.9351 75.416 57.5631 74.816L56.8671 75.056ZM55.4031 74.12V77.252C55.4031 77.36 55.3671 77.384 55.2471 77.396C55.1391 77.408 54.7671 77.408 54.3591 77.396C54.4551 77.612 54.5631 77.912 54.5871 78.128C55.1871 78.128 55.5951 78.128 55.8591 78.008C56.1471 77.876 56.2071 77.66 56.2071 77.264V74.12H55.4031ZM53.8671 74.84C53.6391 75.692 53.2431 76.568 52.7511 77.156C52.9551 77.24 53.3031 77.444 53.4711 77.564C53.9511 76.94 54.4071 75.968 54.6591 75.02L53.8671 74.84ZM58.3191 70.484V71.264H63.7791V70.484H58.3191ZM59.4951 74.972H62.6871V76.124H59.4951V74.972ZM59.4951 76.808H62.6871V77.984H59.4951V76.808ZM59.4951 73.136H62.6871V74.288H59.4951V73.136ZM58.6911 72.428V78.692H63.5031V72.428H58.6911ZM60.6471 70.868C60.5751 71.42 60.3951 72.236 60.2631 72.764L61.0071 72.92C61.1991 72.416 61.4031 71.672 61.5951 70.988L60.6471 70.868ZM59.7711 78.896C59.3151 79.424 58.3431 80.06 57.4671 80.408C57.6711 80.564 57.9471 80.816 58.0791 80.996C58.9431 80.624 59.9511 79.976 60.5631 79.352L59.7711 78.896ZM61.4511 79.4C62.1111 79.868 62.9391 80.54 63.3351 80.984L64.0311 80.492C63.6231 80.036 62.7831 79.388 62.1351 78.956L61.4511 79.4ZM67.0311 73.292V74.036H75.5631V73.292H67.0311ZM67.1991 76.796V77.54H74.0631V76.796H67.1991ZM68.9631 72.248V76.028H73.6191V72.248H72.7431V75.308H69.8151V72.248H68.9631ZM73.8231 76.796V76.928C72.7311 78.98 69.7671 79.916 66.7311 80.204C66.8751 80.408 67.0431 80.744 67.1151 80.972C70.3431 80.564 73.4151 79.556 74.7351 77.06L74.1711 76.748L74.0031 76.796H73.8231ZM69.3351 77.42L68.5551 77.708C69.8631 79.58 72.3591 80.6 75.3351 80.984C75.4431 80.756 75.6711 80.408 75.8631 80.216C72.9591 79.916 70.4751 79.016 69.3351 77.42ZM70.2111 69.932V71.564H71.1351V69.932H70.2111ZM66.2151 71.12V71.936H75.6471V71.12H66.2151ZM65.7711 71.12V74.576C65.7711 76.328 65.6871 78.764 64.7031 80.48C64.9071 80.576 65.2911 80.828 65.4471 80.984C66.4791 79.16 66.6351 76.448 66.6351 74.576V71.12H65.7711ZM81.4191 70.688L80.3031 70.568C80.3031 71.492 80.1471 72.572 79.9191 73.532C79.5951 74.996 78.6351 78.2 77.2671 80.036L78.2511 80.42C79.6071 78.236 80.4591 75.248 80.8671 73.556C81.0351 72.812 81.1911 71.828 81.2751 71.396C81.3231 71.168 81.3711 70.904 81.4191 70.688ZM85.5471 72.068L84.6711 72.464C85.5111 73.46 86.4591 75.548 86.8071 76.772L87.7431 76.328C87.3351 75.224 86.2911 73.04 85.5471 72.068ZM77.0991 73.316L77.1951 74.36C77.5071 74.312 77.9991 74.252 78.2751 74.216C79.0071 74.144 81.2631 73.868 82.0671 73.868C82.8351 73.868 83.3391 74.072 83.3391 75.176C83.3391 76.472 83.1471 78.032 82.7631 78.848C82.5231 79.364 82.1631 79.46 81.7191 79.46C81.3831 79.46 80.7471 79.376 80.2431 79.22L80.4111 80.216C80.7831 80.312 81.3591 80.396 81.8151 80.396C82.5951 80.396 83.1951 80.192 83.5671 79.388C84.0711 78.392 84.2631 76.484 84.2631 75.056C84.2631 73.436 83.3871 73.028 82.3191 73.028C81.5031 73.028 79.0671 73.292 78.1671 73.316C77.7831 73.328 77.4711 73.34 77.0991 73.316ZM85.6791 70.328L85.0311 70.604C85.3671 71.06 85.7751 71.78 86.0151 72.272L86.6631 71.984C86.4111 71.492 85.9791 70.76 85.6791 70.328ZM86.9991 69.848L86.3631 70.124C86.7111 70.568 87.1071 71.252 87.3591 71.78L88.0191 71.492C87.7791 71.048 87.3231 70.292 86.9991 69.848ZM98.5671 70.328C97.2711 70.76 94.9431 71.168 92.9511 71.384C93.0471 71.588 93.1671 71.912 93.2031 72.116C95.2671 71.888 97.6671 71.516 99.2631 71.012L98.5671 70.328ZM92.6991 71.144V78.476H93.5751V71.432L92.6991 71.144ZM91.8951 78.32L92.0871 79.16C93.2871 78.944 94.8831 78.644 96.4071 78.356L96.3591 77.54C94.7151 77.852 93.0351 78.14 91.8951 78.32ZM93.2031 74.132V74.96H99.8391V74.132H93.2031ZM95.9751 71.396C96.0711 76.22 97.0431 80.504 98.8551 80.504C99.6231 80.504 99.9351 80.048 100.067 78.416C99.8511 78.332 99.5391 78.152 99.3471 77.96C99.2991 79.136 99.1791 79.616 98.9391 79.616C97.9071 79.628 96.8991 75.932 96.8871 71.396H95.9751ZM92.2551 79.844V80.648H97.3671V79.844H92.2551ZM91.4991 69.968C90.8271 71.792 89.6991 73.592 88.5111 74.756C88.6791 74.96 88.9311 75.44 89.0271 75.644C90.3231 74.3 91.5591 72.272 92.3511 70.232L91.4991 69.968ZM90.2511 73.064V80.948H91.1151V72.224L91.0911 72.212L90.2511 73.064ZM103.007 71.636L101.843 71.612C101.915 71.888 101.915 72.404 101.915 72.68C101.915 73.376 101.939 74.84 102.047 75.872C102.383 78.98 103.463 80.108 104.603 80.108C105.419 80.108 106.139 79.412 106.871 77.384L106.115 76.532C105.803 77.732 105.239 78.968 104.627 78.968C103.763 78.968 103.187 77.636 102.983 75.632C102.899 74.648 102.887 73.544 102.899 72.8C102.911 72.488 102.947 71.912 103.007 71.636ZM109.247 71.96L108.323 72.284C109.463 73.688 110.195 76.16 110.399 78.32L111.371 77.936C111.191 75.908 110.327 73.352 109.247 71.96ZM117.791 71.9L117.803 72.872C119.111 73.016 121.439 73.016 122.723 72.872V71.9C121.535 72.08 119.099 72.128 117.791 71.9ZM118.259 76.796L117.395 76.712C117.263 77.288 117.203 77.72 117.203 78.116C117.203 79.244 118.103 79.916 120.107 79.916C121.355 79.916 122.363 79.82 123.107 79.664L123.083 78.656C122.123 78.884 121.187 78.98 120.119 78.98C118.475 78.98 118.091 78.44 118.091 77.888C118.091 77.564 118.151 77.228 118.259 76.796ZM115.511 70.976L114.443 70.892C114.431 71.156 114.395 71.456 114.359 71.732C114.215 72.728 113.819 74.78 113.819 76.544C113.819 78.176 114.023 79.556 114.263 80.408L115.115 80.348C115.103 80.216 115.091 80.048 115.079 79.928C115.079 79.784 115.103 79.556 115.139 79.388C115.247 78.812 115.691 77.552 115.991 76.7L115.487 76.304C115.283 76.796 115.007 77.516 114.803 78.056C114.731 77.468 114.695 76.964 114.695 76.388C114.695 75.032 115.067 72.896 115.295 71.78C115.343 71.564 115.439 71.18 115.511 70.976ZM129.635 70.568L128.567 70.508C128.591 70.724 128.591 70.94 128.555 71.36C128.423 73.016 127.859 76.604 127.859 77.888C127.859 79.844 129.179 80.564 130.799 80.564C133.175 80.564 134.771 79.472 134.771 77.684C134.771 76.664 134.363 75.824 133.535 74.912L132.479 75.14C133.367 75.884 133.799 76.772 133.799 77.576C133.799 78.824 132.635 79.616 130.811 79.616C129.443 79.616 128.783 78.908 128.783 77.744C128.783 76.448 129.323 72.752 129.479 71.408C129.527 71.144 129.563 70.892 129.635 70.568ZM125.795 72.164L125.735 73.04C126.791 73.328 128.231 73.508 129.287 73.508C130.259 73.508 130.967 73.472 131.735 73.4L131.759 72.488C131.051 72.596 130.223 72.644 129.311 72.644C128.243 72.644 126.803 72.488 125.795 72.164ZM125.495 75.152L125.447 76.064C126.539 76.4 127.991 76.544 129.299 76.544C130.103 76.544 130.847 76.52 131.651 76.436L131.663 75.524C130.823 75.644 129.995 75.668 129.167 75.668C128.063 75.668 126.659 75.56 125.495 75.152ZM139.379 75.704V76.376H145.259V75.704H139.379ZM139.187 77.324V78.02H145.451V77.324H139.187ZM141.803 76.028V77.204C141.803 77.984 141.551 79.124 139.079 79.808C139.247 79.952 139.487 80.228 139.607 80.408C142.283 79.568 142.631 78.272 142.631 77.216V76.028H141.803ZM142.619 77.612L141.923 77.768C142.415 79.076 143.447 79.976 144.947 80.372C145.055 80.168 145.271 79.868 145.451 79.712C144.035 79.424 143.051 78.68 142.619 77.612ZM140.135 74.72C140.411 75.092 140.663 75.596 140.759 75.956L141.503 75.704C141.407 75.368 141.131 74.864 140.843 74.492L140.135 74.72ZM143.639 74.468C143.507 74.84 143.231 75.404 143.015 75.776L143.615 76.016C143.867 75.68 144.167 75.2 144.455 74.732L143.639 74.468ZM137.855 72.056V72.668H141.227V72.056H137.855ZM143.363 72.056V72.668H146.771V72.056H143.363ZM146.435 70.436V79.88C146.435 80.048 146.375 80.108 146.231 80.108C146.075 80.12 145.571 80.12 145.043 80.096C145.163 80.336 145.283 80.732 145.307 80.96C146.075 80.96 146.591 80.948 146.891 80.804C147.215 80.648 147.323 80.384 147.323 79.892V70.436H146.435ZM137.927 70.436V71.108H140.927V73.664H137.927V74.336H141.779V70.436H137.927ZM146.867 70.436H142.835V74.348H146.867V73.676H143.699V71.108H146.867V70.436ZM137.387 70.436V80.972H138.275V70.436H137.387ZM154.667 79.148L155.099 80.048C157.715 79.544 159.479 78.284 159.467 75.86C159.467 74 157.991 72.836 156.323 72.836C155.063 72.836 153.539 73.34 152.099 74.696V75.764C153.263 74.552 154.643 73.7 156.179 73.7C157.775 73.7 158.507 74.924 158.507 75.848C158.519 77.912 156.695 78.848 154.667 79.148ZM151.955 73.364L151.859 73.676L151.811 74.288C151.343 75.08 149.723 77.288 148.979 78.224L149.579 79.04C150.335 77.996 151.451 76.376 152.003 75.524L152.363 73.88C152.567 73.544 152.891 73.028 153.095 72.716L152.747 72.308C152.183 72.488 150.695 72.668 150.059 72.704C149.759 72.728 149.531 72.728 149.267 72.716L149.375 73.712C150.263 73.58 151.571 73.412 151.955 73.364ZM151.835 71.372C151.835 71.816 151.547 75.62 151.523 76.676C151.511 77.996 151.499 78.596 151.499 79.76C151.499 79.952 151.475 80.3 151.463 80.468H152.495C152.483 80.24 152.447 79.94 152.435 79.736C152.387 78.668 152.387 77.936 152.387 76.844C152.387 74.732 152.759 71.3 152.927 70.52L151.787 70.484C151.847 70.784 151.835 71.096 151.835 71.372ZM164.339 70.592L164.099 71.516C165.023 71.756 167.615 72.284 168.767 72.44L168.995 71.528C167.927 71.42 165.371 70.928 164.339 70.592ZM164.075 72.788L163.067 72.656C162.995 73.904 162.695 76.424 162.455 77.516L163.355 77.732C163.427 77.54 163.535 77.348 163.715 77.144C164.555 76.124 165.851 75.536 167.423 75.536C168.647 75.536 169.547 76.22 169.547 77.168C169.547 78.812 167.699 79.904 163.907 79.448L164.195 80.42C168.647 80.792 170.555 79.34 170.555 77.204C170.555 75.788 169.331 74.684 167.495 74.684C166.055 74.684 164.735 75.152 163.583 76.16C163.703 75.38 163.919 73.604 164.075 72.788ZM179.273 70.64H178.181C178.205 70.736 178.241 71.072 178.265 71.396C178.301 72.068 178.313 74.444 178.313 74.972L179.225 75.44C179.213 74.48 179.189 72.164 179.213 71.396C179.213 71.24 179.249 70.772 179.273 70.64ZM172.901 72.308L172.925 73.232C174.725 73.1 177.305 73.016 179.369 73.016C181.121 73.016 182.201 73.04 182.885 73.076L182.897 72.188C182.321 72.176 180.845 72.176 179.381 72.176C177.533 72.176 174.533 72.284 172.901 72.308ZM179.201 75.788L178.541 75.464C178.733 76.736 178.253 77.372 177.497 77.372C176.849 77.372 176.285 76.928 176.285 76.172C176.285 75.392 176.873 74.9 177.497 74.9C178.157 74.9 178.685 75.356 178.685 76.436C178.685 78.416 177.413 79.496 175.217 80L176.021 80.78C178.817 79.952 179.609 78.152 179.609 76.532C179.609 75.14 178.901 74.108 177.497 74.108C176.357 74.108 175.385 74.996 175.385 76.184C175.385 77.492 176.345 78.2 177.353 78.2C178.457 78.2 179.201 77.396 179.201 75.788ZM180.929 70.388L180.257 70.676C180.557 71.084 180.893 71.66 181.145 72.14L181.829 71.84C181.589 71.396 181.205 70.796 180.929 70.388ZM182.381 70.076L181.709 70.364C182.021 70.772 182.345 71.324 182.609 71.828L183.281 71.516C183.029 71.06 182.657 70.484 182.381 70.076ZM189.065 70.4V80.948H189.905V70.4H189.065ZM192.365 70.172V79.328H193.181V70.172H192.365ZM194.453 70.94C194.249 71.708 193.805 72.848 193.469 73.532L194.093 73.772C194.453 73.112 194.897 72.068 195.269 71.204L194.453 70.94ZM190.349 71.276C190.709 72.02 191.045 73.004 191.165 73.652L191.885 73.4C191.765 72.752 191.405 71.78 191.009 71.048L190.349 71.276ZM190.229 73.976V74.792H195.413V73.976H190.229ZM189.557 79.556V80.372H195.641V79.556H189.557ZM192.197 74.408C191.789 75.68 190.865 77.168 190.025 77.936C190.169 78.152 190.373 78.524 190.457 78.764C191.393 77.876 192.317 76.124 192.821 74.672L192.197 74.408ZM193.085 75.092L192.641 75.488C193.145 76.016 194.441 77.528 194.861 78.14L195.401 77.444C195.053 77.048 193.517 75.464 193.085 75.092ZM186.449 69.932C186.149 70.724 185.597 71.9 185.177 72.596L185.777 72.86C186.221 72.188 186.785 71.108 187.217 70.22L186.449 69.932ZM187.721 71.3C187.097 72.56 186.017 74.348 185.165 75.416L185.705 75.704C186.569 74.672 187.673 72.968 188.465 71.636L187.721 71.3ZM184.529 72.416C185.165 73.016 185.885 73.868 186.185 74.444L186.689 73.784C186.377 73.244 185.645 72.428 185.009 71.84L184.529 72.416ZM187.265 74.012C187.709 74.828 188.117 75.908 188.249 76.58L188.921 76.292C188.801 75.62 188.357 74.564 187.901 73.772L187.265 74.012ZM184.433 75.236L184.529 76.04C185.573 75.968 186.941 75.884 188.297 75.8V75.032C186.857 75.116 185.429 75.188 184.433 75.236ZM187.493 76.928C187.769 77.624 187.997 78.536 188.057 79.136L188.729 78.932C188.669 78.344 188.417 77.432 188.129 76.748L187.493 76.928ZM185.153 76.784C185.021 77.828 184.793 78.908 184.409 79.64C184.589 79.712 184.937 79.868 185.081 79.976C185.453 79.208 185.741 78.044 185.897 76.916L185.153 76.784ZM186.365 75.584V80.96H187.145V75.584H186.365ZM203.789 69.92V73.28H204.677V69.92H203.789ZM201.041 71.048V71.804H207.485V71.048H201.041ZM201.461 72.896V73.664H207.065V72.896H201.461ZM201.089 74.492V76.652H201.869V75.224H206.705V76.652H207.509V74.492H201.089ZM204.833 76.1V79.772C204.833 80.636 205.025 80.888 205.829 80.888C205.985 80.888 206.633 80.888 206.789 80.888C207.473 80.888 207.689 80.492 207.761 78.98C207.533 78.908 207.185 78.788 207.017 78.632C206.993 79.916 206.933 80.108 206.705 80.108C206.561 80.108 206.045 80.108 205.949 80.108C205.697 80.108 205.661 80.06 205.661 79.772V76.1H204.833ZM202.625 76.112V76.844C202.625 77.804 202.397 79.328 200.249 80.372C200.465 80.528 200.753 80.792 200.885 80.984C203.189 79.82 203.453 78.068 203.453 76.868V76.112H202.625ZM198.449 69.932C198.137 70.724 197.573 71.9 197.141 72.596L197.753 72.86C198.221 72.2 198.785 71.12 199.241 70.232L198.449 69.932ZM199.793 71.3C199.133 72.56 198.005 74.348 197.105 75.416L197.657 75.728C198.557 74.684 199.721 72.98 200.549 71.648L199.793 71.3ZM196.529 72.428C197.165 73.04 197.885 73.892 198.185 74.468L198.701 73.796C198.389 73.244 197.657 72.44 197.009 71.852L196.529 72.428ZM199.325 74.048C199.805 74.84 200.273 75.908 200.429 76.58L201.137 76.256C200.969 75.596 200.477 74.564 199.973 73.772L199.325 74.048ZM196.433 75.236L196.529 76.04C197.621 75.968 199.061 75.884 200.489 75.788V75.032C198.977 75.116 197.477 75.188 196.433 75.236ZM199.637 76.952C199.925 77.648 200.177 78.56 200.249 79.148L200.945 78.932C200.861 78.344 200.609 77.444 200.297 76.748L199.637 76.952ZM197.153 76.784C197.021 77.828 196.793 78.908 196.409 79.64C196.589 79.724 196.949 79.88 197.093 79.976C197.477 79.208 197.753 78.056 197.909 76.916L197.153 76.784ZM198.425 75.584V80.96H199.217V75.584H198.425ZM212.177 70.652H210.953C211.025 71 211.061 71.42 211.061 71.864C211.061 73.124 210.941 76.16 210.941 77.936C210.941 79.904 212.129 80.612 213.857 80.612C216.485 80.612 218.045 79.112 218.861 77.972L218.189 77.156C217.325 78.404 216.077 79.628 213.881 79.628C212.741 79.628 211.913 79.172 211.913 77.852C211.913 76.064 212.009 73.22 212.057 71.864C212.081 71.468 212.117 71.048 212.177 70.652ZM220.741 72.032L220.849 73.088C222.157 72.812 225.205 72.512 226.501 72.38C225.397 73.028 224.257 74.552 224.257 76.424C224.257 79.112 226.777 80.288 229.009 80.372L229.345 79.388C227.401 79.304 225.205 78.56 225.205 76.22C225.205 74.804 226.249 72.968 227.965 72.416C228.577 72.248 229.621 72.224 230.317 72.236L230.305 71.276C229.501 71.3 228.385 71.372 227.077 71.48C224.857 71.672 222.601 71.888 221.821 71.972C221.581 71.996 221.197 72.02 220.741 72.032ZM234.409 71.636L233.245 71.612C233.317 71.888 233.317 72.404 233.317 72.68C233.317 73.376 233.341 74.84 233.449 75.872C233.785 78.98 234.865 80.108 236.005 80.108C236.821 80.108 237.541 79.412 238.273 77.384L237.517 76.532C237.205 77.732 236.641 78.968 236.029 78.968C235.165 78.968 234.589 77.636 234.385 75.632C234.301 74.648 234.289 73.544 234.301 72.8C234.313 72.488 234.349 71.912 234.409 71.636ZM240.649 71.96L239.725 72.284C240.865 73.688 241.597 76.16 241.801 78.32L242.773 77.936C242.593 75.908 241.729 73.352 240.649 71.96ZM246.589 71.168L246.613 72.152C246.877 72.116 247.141 72.104 247.417 72.08C248.041 72.044 250.441 71.948 251.077 71.912C250.477 72.452 248.965 73.712 248.293 74.264C247.609 74.852 246.061 76.148 245.065 76.964L245.761 77.66C247.273 76.112 248.353 75.272 250.345 75.272C251.917 75.272 253.045 76.148 253.045 77.336C253.045 78.836 251.761 79.676 249.721 79.676C248.773 79.676 248.113 79.328 248.113 78.74C248.113 78.32 248.533 77.984 249.085 77.984C250.045 77.984 250.633 78.716 250.705 79.736L251.569 79.592C251.485 78.38 250.681 77.252 249.085 77.252C247.981 77.252 247.237 77.996 247.237 78.812C247.237 79.82 248.233 80.528 249.865 80.528C252.409 80.528 254.005 79.268 254.005 77.336C254.005 75.716 252.577 74.528 250.585 74.528C250.045 74.528 249.469 74.588 248.917 74.768C249.853 74 251.485 72.596 252.073 72.14C252.301 71.96 252.541 71.804 252.757 71.66L252.205 70.952C252.073 71 251.905 71.024 251.545 71.06C250.909 71.12 248.065 71.204 247.429 71.204C247.189 71.204 246.853 71.192 246.589 71.168ZM257.012 76.3182C257.012 75.2443 257.151 74.2571 257.429 73.3565C257.711 72.4531 258.111 71.6222 258.631 70.8636H259.517C259.313 71.1449 259.121 71.4915 258.942 71.9034C258.766 72.3125 258.611 72.7628 258.478 73.2543C258.344 73.7429 258.239 74.2486 258.162 74.7713C258.089 75.294 258.052 75.8097 258.052 76.3182C258.052 76.9943 258.117 77.6804 258.248 78.3764C258.378 79.0724 258.554 79.7187 258.776 80.3153C258.998 80.9119 259.245 81.3977 259.517 81.7727H258.631C258.111 81.0142 257.711 80.1847 257.429 79.2841C257.151 78.3807 257.012 77.392 257.012 76.3182ZM261.773 71.648V72.608H270.389V71.648H261.773ZM260.753 78.764V79.772H271.409V78.764H260.753ZM277.421 69.956C277.001 71.876 276.269 73.748 275.249 74.924C275.501 75.044 275.933 75.284 276.113 75.428C277.085 74.156 277.877 72.2 278.357 70.124L277.421 69.956ZM279.401 72.896H278.921V74.504C278.921 75.644 278.297 78.788 274.637 80.228C274.805 80.396 275.081 80.768 275.189 80.96C278.093 79.748 279.185 77.336 279.389 76.196C279.581 77.324 280.601 79.808 283.121 80.96C283.265 80.744 283.541 80.372 283.709 80.156C280.445 78.752 279.857 75.572 279.857 74.504V72.896H279.401ZM272.525 78.488L273.113 79.232C273.929 78.452 274.937 77.408 275.825 76.448L275.333 75.668C274.313 76.736 273.221 77.84 272.525 78.488ZM272.909 71.372C273.689 71.912 274.637 72.704 275.093 73.232L275.765 72.5C275.297 71.984 274.325 71.228 273.545 70.724L272.909 71.372ZM277.445 72.092L277.037 72.98H282.845V72.092H277.445ZM282.533 72.092V72.308C282.329 73.232 281.813 74.504 281.417 75.224C281.645 75.32 281.993 75.5 282.185 75.608C282.629 74.804 283.193 73.556 283.505 72.404L282.845 72.032L282.677 72.092H282.533ZM290.477 72.476V73.184H293.729V72.476H290.477ZM290.357 74.336V75.044H293.897V74.336H290.357ZM291.713 71.456V74.744H292.445V71.456H291.713ZM289.481 70.424V71.216H294.725V70.424H289.481ZM290.909 75.956V76.64H292.961V78.368H290.909V79.064H293.657V75.956H290.909ZM290.537 75.956V79.532H291.221V75.956H290.537ZM294.389 70.424V79.832C294.389 80.024 294.341 80.072 294.161 80.072C293.957 80.084 293.333 80.096 292.673 80.06C292.805 80.312 292.913 80.72 292.949 80.96C293.849 80.96 294.449 80.948 294.785 80.792C295.121 80.648 295.229 80.36 295.229 79.832V70.424H294.389ZM289.025 70.424V74.732C289.025 76.508 288.953 78.872 288.005 80.54C288.209 80.636 288.569 80.888 288.713 81.044C289.721 79.268 289.853 76.616 289.853 74.732V70.424H289.025ZM285.029 73.556V74.276H288.113V73.556H285.029ZM285.101 70.352V71.072H288.077V70.352H285.101ZM285.029 75.164V75.884H288.113V75.164H285.029ZM284.537 71.924V72.668H288.413V71.924H284.537ZM285.449 76.784V77.528H287.345V79.532H285.449V80.276H288.101V76.784H285.449ZM285.005 76.784V80.84H285.749V76.784H285.005ZM296.717 79.904V80.708H307.445V79.904H296.717ZM299.177 76.796V77.468H304.985V76.796H299.177ZM299.177 78.344V79.016H304.985V78.344H299.177ZM298.745 75.188V80.384H299.633V75.944H304.517V80.336H305.429V75.188H298.745ZM296.765 71.456V72.248H307.409V71.456H296.765ZM301.589 69.92V74.804H302.489V69.92H301.589ZM301.073 71.696C300.113 73.04 298.217 74.336 296.501 74.924C296.693 75.092 296.945 75.416 297.077 75.62C298.829 74.936 300.737 73.532 301.817 71.996L301.073 71.696ZM302.981 71.708L302.261 72.008C303.341 73.508 305.273 74.888 307.049 75.56C307.181 75.32 307.445 74.984 307.649 74.816C305.873 74.264 303.965 73.016 302.981 71.708ZM315.833 69.92V74.636H316.733V69.92H315.833ZM314.273 79.532V80.36H318.557V79.532H314.273ZM313.049 71.624V72.452H319.601V71.624H313.049ZM313.433 74.252V75.08H319.337V74.252H313.433ZM313.817 76.388V80.948H314.657V77.204H318.125V80.924H319.001V76.388H313.817ZM310.421 69.932C310.109 70.724 309.557 71.876 309.101 72.572L309.725 72.836C310.193 72.188 310.769 71.12 311.225 70.232L310.421 69.932ZM311.873 71.3C311.213 72.572 310.073 74.372 309.149 75.44L309.725 75.74C310.637 74.708 311.813 72.98 312.653 71.636L311.873 71.3ZM308.525 72.452C309.173 73.028 309.929 73.856 310.253 74.42L310.733 73.736C310.409 73.208 309.653 72.416 308.981 71.852L308.525 72.452ZM311.489 74.084C311.981 74.876 312.461 75.92 312.641 76.592L313.361 76.256C313.181 75.596 312.665 74.564 312.161 73.796L311.489 74.084ZM308.501 75.296L308.573 76.1C309.689 76.052 311.201 75.956 312.689 75.86L312.701 75.128C311.141 75.2 309.581 75.26 308.501 75.296ZM311.789 76.952C312.125 77.696 312.449 78.668 312.557 79.292L313.289 79.04C313.157 78.416 312.821 77.468 312.473 76.736L311.789 76.952ZM309.161 76.784C309.017 77.84 308.777 78.908 308.381 79.64C308.573 79.724 308.933 79.892 309.089 79.988C309.473 79.22 309.773 78.056 309.941 76.928L309.161 76.784ZM310.541 75.644V80.996H311.357V75.644H310.541ZM320.813 76.292V77.132H331.349V76.292H320.813ZM325.601 70.796V80.96H326.549V70.796H325.601ZM325.277 76.652C324.269 77.972 322.289 79.244 320.513 79.832C320.705 80.012 320.993 80.348 321.125 80.564C322.925 79.88 324.917 78.512 326.033 76.976L325.277 76.652ZM326.825 76.616L326.105 76.94C327.257 78.416 329.297 79.82 331.037 80.516C331.181 80.288 331.457 79.94 331.661 79.76C329.909 79.172 327.869 77.9 326.825 76.616ZM322.901 73.244H329.285V74.504H322.901V73.244ZM322.901 71.276H329.285V72.512H322.901V71.276ZM321.977 70.508V75.272H330.245V70.508H321.977ZM335.149 76.3182C335.149 77.392 335.009 78.3807 334.727 79.2841C334.449 80.1847 334.05 81.0142 333.53 81.7727H332.644C332.848 81.4915 333.038 81.1449 333.215 80.733C333.394 80.3239 333.55 79.875 333.683 79.3864C333.817 78.8949 333.921 78.3878 333.994 77.8651C334.071 77.3395 334.109 76.8239 334.109 76.3182C334.109 75.642 334.044 74.956 333.913 74.2599C333.783 73.5639 333.607 72.9176 333.385 72.321C333.163 71.7244 332.916 71.2386 332.644 70.8636H333.53C334.05 71.6222 334.449 72.4531 334.727 73.3565C335.009 74.2571 335.149 75.2443 335.149 76.3182Z" fill="black"/>
<path d="M22.0322 113.168C21.3242 113.168 20.7482 113.744 20.7482 114.44C20.7482 115.148 21.3242 115.724 22.0322 115.724C22.7282 115.724 23.3042 115.148 23.3042 114.44C23.3042 113.744 22.7282 113.168 22.0322 113.168ZM33.5282 108.92V118.952C33.5282 119.168 33.4562 119.24 33.2402 119.252C33.0242 119.252 32.3042 119.264 31.5842 119.24C31.7042 119.444 31.8482 119.78 31.8962 119.996C32.9042 119.996 33.5282 119.984 33.9122 119.864C34.2842 119.732 34.4402 119.516 34.4402 118.952V108.92H33.5282ZM28.8362 109.88V110.624H39.2522V109.88H28.8362ZM30.9482 111.968H37.1402V112.832H30.9482V111.968ZM30.0962 111.344V113.468H38.0522V111.344H30.0962ZM29.7482 114.308V114.98H37.3322V118.676H38.2322V114.308H29.7482ZM28.6082 115.808V116.528H39.4802V115.808H28.6082ZM29.6282 117.44V118.136H37.8002V117.44H29.6282ZM40.7882 116.336V117.092H51.3002V116.336H40.7882ZM40.8362 111.068V111.836H51.2522V111.068H40.8362ZM41.3162 113.12V113.864H50.8202V113.12H41.3162ZM41.9282 114.74V115.436H50.2322V114.74H41.9282ZM45.5642 113.468V119.972H46.4522V113.468H45.5642ZM44.4602 108.92V111.428H45.3122V108.92H44.4602ZM46.7282 108.92V111.392H47.5922V108.92H46.7282ZM45.2762 116.636C44.2562 117.68 42.2522 118.604 40.4762 119C40.6682 119.192 40.9322 119.54 41.0642 119.768C42.8522 119.264 44.8802 118.22 45.9962 116.972L45.2762 116.636ZM46.7402 116.612L46.0322 116.912C47.1602 118.208 49.1642 119.3 50.9882 119.804C51.1202 119.552 51.3962 119.192 51.6002 119C49.7762 118.616 47.7602 117.692 46.7402 116.612ZM49.5122 109.064C49.3082 109.616 48.9122 110.408 48.5882 110.912L49.3202 111.152C49.6562 110.684 50.0882 109.976 50.4362 109.316L49.5122 109.064ZM47.9042 111.608C47.7602 112.04 47.4482 112.664 47.2082 113.084L47.9642 113.312C48.2282 112.928 48.5402 112.376 48.8402 111.836L47.9042 111.608ZM41.8082 109.316C42.1922 109.88 42.6242 110.648 42.7922 111.128L43.5962 110.828C43.4282 110.336 42.9842 109.58 42.5762 109.04L41.8082 109.316ZM43.3682 111.92C43.6322 112.316 43.8962 112.88 43.9922 113.24L44.8802 113.048C44.7722 112.688 44.4962 112.148 44.2202 111.752L43.3682 111.92ZM54.6962 118.628L55.3802 119.216C55.5722 119.108 55.7642 119.048 55.8842 119.012C58.8842 118.136 61.3562 116.66 62.9162 114.728L62.3762 113.888C60.8762 115.82 58.1042 117.392 55.8002 117.98C55.8002 117.368 55.8002 112.304 55.8002 111.164C55.8002 110.828 55.8482 110.372 55.8842 110.084H54.7082C54.7562 110.312 54.8042 110.852 54.8042 111.176C54.8042 112.316 54.8042 117.284 54.8042 118.04C54.8042 118.268 54.7802 118.436 54.6962 118.628ZM72.3122 110.864L71.6282 111.164C72.0242 111.704 72.4562 112.46 72.7442 113.084L73.4522 112.772C73.1762 112.196 72.6242 111.308 72.3122 110.864ZM73.8602 110.252L73.1882 110.576C73.5842 111.104 74.0162 111.836 74.3402 112.46L75.0362 112.124C74.7482 111.572 74.1722 110.672 73.8602 110.252ZM64.6682 115.844L65.5562 116.756C65.7482 116.516 66.0002 116.144 66.2522 115.832C66.7922 115.172 67.8002 113.852 68.3762 113.156C68.7842 112.652 69.0122 112.616 69.4802 113.06C69.9842 113.564 71.0882 114.752 71.7842 115.532C72.5642 116.408 73.6202 117.644 74.4722 118.676L75.3002 117.8C74.3762 116.804 73.1762 115.508 72.3602 114.644C71.6642 113.9 70.6322 112.82 69.9002 112.136C69.0842 111.356 68.5202 111.488 67.8842 112.244C67.1282 113.144 66.0842 114.476 65.5082 115.052C65.1962 115.364 64.9682 115.58 64.6682 115.844ZM82.3082 118.748L82.9442 119.276C83.0402 119.216 83.1602 119.108 83.3642 119.012C84.7562 118.316 86.4122 117.092 87.4562 115.688L86.8802 114.86C85.9682 116.216 84.4922 117.308 83.3762 117.812C83.3762 117.452 83.3762 111.644 83.3762 110.9C83.3762 110.444 83.4242 110.096 83.4362 110H82.3322C82.3322 110.096 82.3922 110.432 82.3922 110.888C82.3922 111.644 82.3922 117.524 82.3922 118.076C82.3922 118.316 82.3562 118.568 82.3082 118.748ZM76.8122 118.7L77.7242 119.3C78.7322 118.46 79.5002 117.296 79.8602 116.012C80.1842 114.812 80.2202 112.232 80.2202 110.9C80.2202 110.552 80.2682 110.18 80.2802 110.048H79.1762C79.2362 110.3 79.2602 110.564 79.2602 110.912C79.2602 112.256 79.2602 114.644 78.9002 115.748C78.5402 116.912 77.8322 117.98 76.8122 118.7ZM88.9682 111.104L89.0762 112.16C90.3722 111.884 93.4322 111.584 94.7162 111.452C93.6242 112.1 92.4842 113.636 92.4842 115.496C92.4842 118.184 95.0042 119.36 97.2242 119.444L97.5722 118.46C95.6282 118.388 93.4322 117.632 93.4322 115.292C93.4322 113.876 94.4762 112.04 96.1922 111.488C96.8042 111.32 97.8482 111.296 98.5442 111.308L98.5322 110.348C97.7282 110.372 96.6122 110.444 95.2922 110.552C93.0842 110.744 90.8162 110.96 90.0482 111.044C89.8082 111.068 89.4242 111.092 88.9682 111.104ZM96.8042 112.772L96.2042 113.036C96.5642 113.54 96.9002 114.152 97.1762 114.728L97.8002 114.452C97.5362 113.912 97.0802 113.168 96.8042 112.772ZM98.1122 112.268L97.5242 112.544C97.8962 113.048 98.2562 113.648 98.5442 114.224L99.1562 113.924C98.8802 113.396 98.4122 112.664 98.1122 112.268ZM108.672 113.492V110.648C108.672 110.18 108.72 109.796 108.732 109.676H107.64C107.664 109.784 107.7 110.18 107.7 110.648V113.564C107.7 116.936 106.62 117.968 104.436 118.796L105.24 119.564C107.976 118.328 108.672 116.684 108.672 113.492ZM104.34 109.748H103.272C103.308 110.024 103.332 110.36 103.332 110.612V115.016C103.332 115.472 103.284 115.988 103.272 116.096H104.34C104.328 115.988 104.292 115.46 104.292 115.016V110.612C104.292 110.204 104.328 109.856 104.34 109.748ZM100.836 112.076V113.108C100.968 113.108 101.508 113.072 102.036 113.072H109.992C110.52 113.072 110.952 113.096 111.084 113.108V112.088C110.916 112.112 110.52 112.16 109.98 112.16H102.036C101.532 112.16 100.944 112.088 100.836 112.076ZM121.092 109.028L120.432 109.304C120.732 109.736 121.14 110.42 121.38 110.912L122.052 110.612C121.812 110.156 121.38 109.448 121.092 109.028ZM122.64 108.728L121.98 109.004C122.304 109.412 122.688 110.108 122.952 110.6L123.624 110.312C123.372 109.844 122.928 109.136 122.64 108.728ZM122.172 111.188L121.44 110.72C121.224 110.78 120.984 110.792 120.804 110.792C120.252 110.792 115.464 110.792 114.78 110.792C114.384 110.792 113.916 110.744 113.58 110.708V111.776C113.892 111.752 114.3 111.728 114.78 111.728C115.464 111.728 120.228 111.728 120.912 111.728C120.756 112.88 120.192 114.56 119.34 115.64C118.344 116.924 116.988 117.944 114.672 118.532L115.488 119.432C117.684 118.736 119.112 117.632 120.204 116.216C121.152 114.992 121.74 113.048 121.992 111.788C122.04 111.56 122.1 111.356 122.172 111.188ZM133.62 110.984L133.02 110.516C132.828 110.576 132.504 110.612 132.12 110.612C131.664 110.612 127.956 110.612 127.488 110.612C127.116 110.612 126.432 110.564 126.276 110.54V111.62C126.408 111.608 127.056 111.56 127.488 111.56C127.896 111.56 131.736 111.56 132.168 111.56C131.856 112.556 130.98 113.984 130.164 114.908C128.928 116.276 127.164 117.716 125.22 118.46L125.988 119.264C127.884 118.4 129.6 116.972 130.944 115.472C131.94 114.368 132.852 112.688 133.332 111.5C133.392 111.344 133.548 111.08 133.62 110.984ZM131.1 114.848L130.416 115.52C131.712 116.66 133.116 118.196 133.98 119.336L134.808 118.604C133.992 117.608 132.396 115.928 131.1 114.848ZM146.484 111.5L145.692 111.02C145.5 111.092 145.224 111.128 144.9 111.128C144.528 111.128 141.564 111.128 141.084 111.128L140.7 111.992H145.14C144.9 113.084 144.156 114.644 143.232 115.736C142.128 117.02 140.64 118.1 138.432 118.748L139.308 119.54C141.552 118.7 142.992 117.608 144.084 116.276C145.152 114.968 145.884 113.348 146.208 112.136C146.268 111.944 146.388 111.668 146.484 111.5ZM142.464 109.688L141.36 109.316C141.288 109.628 141.108 110.06 140.988 110.276C140.46 111.344 139.284 113.096 137.208 114.332L138.048 114.944C139.98 113.672 141.228 111.956 141.936 110.624C142.056 110.408 142.272 110 142.464 109.688ZM151.272 118.868V119.564H157.62V118.868H151.272ZM153.564 111.356V112.688H154.44V111.356H153.564ZM149.004 112.292V114.548H149.868V113.012H158.256V114.548H159.144V112.292H149.004ZM151.224 113.756V114.44H156.492V115.472H151.224V116.168H157.38V113.756H151.224ZM151.26 116.996V117.704H157.26V119.948H158.148V116.996H151.26ZM150.744 113.756V119.972H151.608V113.756H150.744ZM149.988 109.844V110.588H153.864V109.844H149.988ZM154.668 109.844V110.588H159.516V109.844H154.668ZM150.216 108.872C149.844 109.808 149.196 110.756 148.476 111.38C148.692 111.488 149.052 111.74 149.22 111.872C149.916 111.188 150.624 110.144 151.068 109.088L150.216 108.872ZM154.944 108.872C154.56 109.796 153.864 110.684 153.072 111.26C153.3 111.368 153.672 111.584 153.852 111.716C154.608 111.092 155.364 110.12 155.796 109.076L154.944 108.872ZM150.66 110.408C150.936 110.852 151.224 111.452 151.332 111.824L152.148 111.584C152.028 111.212 151.716 110.624 151.44 110.204L150.66 110.408ZM155.748 110.42C156.132 110.852 156.54 111.464 156.708 111.848L157.524 111.584C157.344 111.188 156.912 110.6 156.54 110.18L155.748 110.42ZM165.732 112.532H170.196V114.08H165.732V112.532ZM165.732 110.264H170.196V111.788H165.732V110.264ZM164.916 109.484V114.86H171.06V109.484H164.916ZM164.76 116.264V117.092H171.228V116.264H164.76ZM163.836 118.748V119.564H171.624V118.748H163.836ZM160.572 109.736V110.588H164.316V109.736H160.572ZM160.704 113.204V114.056H164.148V113.204H160.704ZM160.452 117.8L160.668 118.724C161.736 118.364 163.104 117.908 164.412 117.464L164.256 116.6C162.864 117.068 161.424 117.536 160.452 117.8ZM162.072 110.072V117.68L162.936 117.512V110.072H162.072ZM167.568 109.856V114.476H167.508V119.12H168.42V114.476H168.36V109.856H167.568ZM180.672 113.492V110.648C180.672 110.18 180.72 109.796 180.732 109.676H179.64C179.664 109.784 179.7 110.18 179.7 110.648V113.564C179.7 116.936 178.62 117.968 176.436 118.796L177.24 119.564C179.976 118.328 180.672 116.684 180.672 113.492ZM176.34 109.748H175.272C175.308 110.024 175.332 110.36 175.332 110.612V115.016C175.332 115.472 175.284 115.988 175.272 116.096H176.34C176.328 115.988 176.292 115.46 176.292 115.016V110.612C176.292 110.204 176.328 109.856 176.34 109.748ZM172.836 112.076V113.108C172.968 113.108 173.508 113.072 174.036 113.072H181.992C182.52 113.072 182.952 113.096 183.084 113.108V112.088C182.916 112.112 182.52 112.16 181.98 112.16H174.036C173.532 112.16 172.944 112.088 172.836 112.076ZM185.244 113.804V114.98C185.628 114.956 186.264 114.932 186.924 114.932C187.812 114.932 192.6 114.932 193.512 114.932C194.04 114.932 194.544 114.968 194.796 114.98V113.804C194.52 113.828 194.1 113.876 193.5 113.876C192.612 113.876 187.8 113.876 186.924 113.876C186.24 113.876 185.616 113.84 185.244 113.804ZM204.768 109.604L204.132 109.88C204.456 110.336 204.852 111.056 205.092 111.536L205.74 111.248C205.5 110.756 205.068 110.036 204.768 109.604ZM206.076 109.124L205.452 109.4C205.788 109.844 206.184 110.528 206.436 111.044L207.084 110.756C206.856 110.312 206.4 109.568 206.076 109.124ZM199.38 110H198.264C198.312 110.288 198.336 110.684 198.336 110.972C198.336 111.62 198.336 116.42 198.336 117.572C198.336 118.556 198.852 118.976 199.764 119.144C200.268 119.228 200.976 119.252 201.696 119.252C203.004 119.252 204.804 119.168 205.848 119.012V117.908C204.84 118.172 203.004 118.292 201.732 118.292C201.144 118.292 200.532 118.268 200.148 118.196C199.572 118.088 199.308 117.932 199.308 117.308C199.308 116.444 199.308 111.62 199.308 110.972C199.308 110.636 199.344 110.288 199.38 110ZM198.864 113.792L198.876 114.788C200.352 114.416 202.728 113.72 204.216 113.12C204.576 112.976 205.008 112.784 205.356 112.64L204.936 111.68C204.588 111.896 204.24 112.064 203.88 112.232C202.488 112.82 200.316 113.48 198.864 113.792ZM217.62 110.984L217.02 110.516C216.828 110.576 216.504 110.612 216.12 110.612C215.664 110.612 211.956 110.612 211.488 110.612C211.116 110.612 210.432 110.564 210.276 110.54V111.62C210.408 111.608 211.056 111.56 211.488 111.56C211.896 111.56 215.736 111.56 216.168 111.56C215.856 112.556 214.98 113.984 214.164 114.908C212.928 116.276 211.164 117.716 209.22 118.46L209.988 119.264C211.884 118.4 213.6 116.972 214.944 115.472C215.94 114.368 216.852 112.688 217.332 111.5C217.392 111.344 217.548 111.08 217.62 110.984ZM215.1 114.848L214.416 115.52C215.712 116.66 217.116 118.196 217.98 119.336L218.808 118.604C217.992 117.608 216.396 115.928 215.1 114.848ZM225.12 109.688L224.004 109.568C224.004 110.492 223.848 111.572 223.62 112.532C223.296 113.996 222.336 117.2 220.968 119.036L221.952 119.42C223.308 117.236 224.16 114.248 224.568 112.556C224.736 111.812 224.892 110.828 224.976 110.396C225.024 110.168 225.072 109.904 225.12 109.688ZM229.248 111.068L228.372 111.464C229.212 112.46 230.16 114.548 230.508 115.772L231.444 115.328C231.036 114.224 229.992 112.04 229.248 111.068ZM220.8 112.316L220.896 113.36C221.208 113.312 221.7 113.252 221.976 113.216C222.708 113.144 224.964 112.868 225.768 112.868C226.536 112.868 227.04 113.072 227.04 114.176C227.04 115.472 226.848 117.032 226.464 117.848C226.224 118.364 225.864 118.46 225.42 118.46C225.084 118.46 224.448 118.376 223.944 118.22L224.112 119.216C224.484 119.312 225.06 119.396 225.516 119.396C226.296 119.396 226.896 119.192 227.268 118.388C227.772 117.392 227.964 115.484 227.964 114.056C227.964 112.436 227.088 112.028 226.02 112.028C225.204 112.028 222.768 112.292 221.868 112.316C221.484 112.328 221.172 112.34 220.8 112.316ZM229.38 109.328L228.732 109.604C229.068 110.06 229.476 110.78 229.716 111.272L230.364 110.984C230.112 110.492 229.68 109.76 229.38 109.328ZM230.7 108.848L230.064 109.124C230.412 109.568 230.808 110.252 231.06 110.78L231.72 110.492C231.48 110.048 231.024 109.292 230.7 108.848ZM237.564 108.944V115.016C237.564 115.208 237.492 115.256 237.288 115.268C237.072 115.268 236.34 115.28 235.548 115.256C235.692 115.52 235.836 115.916 235.872 116.18C236.88 116.18 237.552 116.156 237.948 116.012C238.356 115.856 238.476 115.592 238.476 115.028V108.944H237.564ZM240.168 110.744C241.2 111.992 242.292 113.684 242.712 114.776L243.612 114.296C243.156 113.18 242.016 111.536 240.972 110.336L240.168 110.744ZM240.96 114.02C239.928 117.104 237.624 118.556 233.376 119.108C233.568 119.336 233.772 119.72 233.856 119.996C238.308 119.3 240.756 117.692 241.896 114.308L240.96 114.02ZM234.9 110.444C234.456 111.764 233.532 113.372 232.488 114.392C232.728 114.512 233.076 114.764 233.28 114.932C234.36 113.84 235.308 112.148 235.884 110.684L234.9 110.444ZM245.184 111.44L245.256 112.34C245.7 112.352 246.216 112.364 246.66 112.364C248.124 112.376 249.696 112.112 250.872 111.788L250.848 110.9C249.468 111.356 247.956 111.512 246.66 111.512C246.144 111.512 245.628 111.488 245.184 111.44ZM249.444 109.484L248.388 109.376C248.352 110.216 248.088 111.272 247.824 112.028C247.332 113.444 246.216 115.58 245.148 116.828L246.072 117.308C247.068 115.964 248.172 113.78 248.748 112.052C249.036 111.2 249.288 110.072 249.444 109.484ZM252.276 113.192H251.328C251.376 114.512 251.508 116.66 251.508 117.572C251.508 118.22 251.172 118.748 250.176 118.748C249.24 118.748 248.772 118.364 248.772 117.812C248.772 117.26 249.372 116.852 250.26 116.852C252.024 116.852 253.404 117.92 254.328 118.76L254.832 117.944C253.848 117.092 252.3 116.084 250.284 116.084C248.94 116.084 247.896 116.78 247.896 117.884C247.896 119.084 248.964 119.612 250.284 119.612C251.772 119.612 252.384 118.832 252.384 117.872C252.384 117.08 252.276 115.256 252.252 114.476C252.24 114.044 252.24 113.684 252.276 113.192ZM254.676 113.504L255.216 112.712C254.64 112.28 253.284 111.5 252.408 111.128L251.928 111.848C252.72 112.22 254.028 112.952 254.676 113.504ZM258.708 110.636L257.544 110.612C257.616 110.888 257.616 111.404 257.616 111.68C257.616 112.376 257.64 113.84 257.748 114.872C258.084 117.98 259.164 119.108 260.304 119.108C261.12 119.108 261.84 118.412 262.572 116.384L261.816 115.532C261.504 116.732 260.94 117.968 260.328 117.968C259.464 117.968 258.888 116.636 258.684 114.632C258.6 113.648 258.588 112.544 258.6 111.8C258.612 111.488 258.648 110.912 258.708 110.636ZM264.948 110.96L264.024 111.284C265.164 112.688 265.896 115.16 266.1 117.32L267.072 116.936C266.892 114.908 266.028 112.352 264.948 110.96ZM269.311 115.318C269.311 114.244 269.45 113.257 269.728 112.357C270.009 111.453 270.41 110.622 270.93 109.864H271.816C271.612 110.145 271.42 110.491 271.241 110.903C271.065 111.312 270.91 111.763 270.777 112.254C270.643 112.743 270.538 113.249 270.461 113.771C270.387 114.294 270.35 114.81 270.35 115.318C270.35 115.994 270.416 116.68 270.546 117.376C270.677 118.072 270.853 118.719 271.075 119.315C271.296 119.912 271.544 120.398 271.816 120.773H270.93C270.41 120.014 270.009 119.185 269.728 118.284C269.45 117.381 269.311 116.392 269.311 115.318ZM280.492 110.024V116.672H281.332V110.024H280.492ZM282.628 109.052V118.724C282.628 118.928 282.568 118.976 282.376 118.988C282.16 118.988 281.488 118.988 280.78 118.964C280.9 119.252 281.032 119.66 281.08 119.924C281.968 119.924 282.628 119.9 282.988 119.744C283.36 119.576 283.504 119.312 283.504 118.712V109.052H282.628ZM275.848 108.968V119.96H276.7V108.968H275.848ZM278.368 114.788V118.076C278.368 118.196 278.332 118.232 278.212 118.232C278.068 118.244 277.684 118.244 277.168 118.232C277.288 118.46 277.396 118.784 277.42 119.012C278.092 119.024 278.548 119.012 278.836 118.868C279.136 118.724 279.196 118.496 279.196 118.088V114.788H278.368ZM273.46 114.788V118.976H274.276V115.604H278.704V114.788H273.46ZM272.908 112.748V113.576H279.628V112.748H272.908ZM274.072 110.66L273.904 111.488H279.148V110.66H274.072ZM274.084 109.208C273.832 110.372 273.412 111.572 272.872 112.388C273.088 112.46 273.484 112.616 273.664 112.712C274.168 111.896 274.636 110.624 274.924 109.376L274.084 109.208ZM290.224 110.936L289.804 111.8H295.912V110.936H290.224ZM291.724 113.54V114.368H295.636V113.54H291.724ZM291.712 116.18V117.032H295.804V116.18H291.712ZM291.268 111.212V119.96H292.192V111.212H291.268ZM290.68 109.064C290.092 110.828 289.12 112.58 288.028 113.696C288.232 113.84 288.592 114.164 288.724 114.32C289.828 113.084 290.872 111.2 291.556 109.292L290.68 109.064ZM287.8 108.968C287.116 110.792 286 112.592 284.8 113.756C284.968 113.972 285.244 114.452 285.328 114.668C286.636 113.324 287.872 111.272 288.664 109.244L287.8 108.968ZM286.516 112.064V119.948H287.428V111.176L287.404 111.164L286.516 112.064ZM297.028 112.784V113.588H307.72V112.784H297.028ZM298.084 110.432V111.236H305.032V110.432H298.084ZM300.028 116.804V117.524H305.68V116.804H300.028ZM300.028 118.796V119.576H305.68V118.796H300.028ZM301.168 108.92V113.216H302.044V108.92H301.168ZM306.424 109.34C304.204 112.316 300.628 114.644 296.752 115.988C296.932 116.168 297.22 116.54 297.328 116.744C301.168 115.268 304.78 112.904 307.192 109.748L306.424 109.34ZM299.536 114.86V119.972H300.436V115.616H305.32V119.924H306.256V114.86H299.536ZM315.136 110.816L314.14 110.792C314.02 112.04 313.768 113.396 313.42 114.536C312.808 116.564 312.16 117.38 311.596 117.38C311.056 117.38 310.372 116.708 310.372 115.196C310.372 113.432 312.016 111.26 314.656 111.26C316.96 111.26 318.292 112.844 318.292 114.764C318.292 116.84 316.78 117.992 315.244 118.34C314.956 118.4 314.596 118.448 314.212 118.484L314.764 119.372C317.62 119 319.276 117.32 319.276 114.812C319.276 112.376 317.488 110.396 314.68 110.396C311.74 110.396 309.424 112.664 309.424 115.268C309.424 117.26 310.492 118.484 311.572 118.484C312.676 118.484 313.636 117.212 314.368 114.752C314.74 113.468 314.98 112.064 315.136 110.816ZM323.464 112.148H329.284V113.384H323.464V112.148ZM323.464 114.14H329.284V115.388H323.464V114.14ZM323.464 110.156H329.284V111.38H323.464V110.156ZM322.588 109.352V116.204H330.196V109.352H322.588ZM327.148 115.616V118.604C327.148 119.6 327.448 119.876 328.588 119.876C328.828 119.876 330.28 119.876 330.532 119.876C331.552 119.876 331.816 119.432 331.924 117.68C331.672 117.62 331.276 117.476 331.084 117.308C331.036 118.808 330.952 119.012 330.46 119.012C330.136 119.012 328.924 119.012 328.672 119.012C328.156 119.012 328.06 118.952 328.06 118.604V115.616H327.148ZM324.256 115.868C324.052 117.62 323.488 118.652 320.848 119.18C321.028 119.372 321.28 119.744 321.364 119.972C324.256 119.312 324.976 118.004 325.228 115.868H324.256ZM334.036 111.968V112.676H337.504V111.968H334.036ZM334.036 114.008V114.692H337.504V114.008H334.036ZM334.036 116.096V116.804H337.504V116.096H334.036ZM339.148 114.608V115.388H343.72V114.608H339.148ZM334.66 110V110.708H336.652V110H334.66ZM338.38 109.532V110.3H343.072V109.532H338.38ZM338.236 116.852V117.656H343.924V116.852H338.236ZM340.768 113.372V119.912H341.632V113.372H340.768ZM335.524 112.316V116.396H336.172V112.316H335.524ZM342.784 109.532V109.652C342.7 111.536 342.604 112.232 342.448 112.412C342.376 112.508 342.268 112.532 342.1 112.52C341.932 112.52 341.5 112.52 341.02 112.472C341.128 112.676 341.212 112.988 341.224 113.228C341.728 113.252 342.232 113.252 342.472 113.228C342.784 113.204 342.964 113.132 343.132 112.928C343.384 112.652 343.504 111.872 343.588 109.868C343.6 109.76 343.6 109.532 343.6 109.532H342.784ZM339.196 113.48C338.992 114.5 338.62 115.508 338.104 116.18C338.296 116.276 338.656 116.456 338.812 116.564C339.316 115.844 339.736 114.752 339.976 113.636L339.196 113.48ZM334.636 108.92C334.276 110.396 333.604 111.824 332.752 112.748C332.944 112.868 333.292 113.144 333.436 113.288C334.288 112.268 335.02 110.72 335.464 109.1L334.636 108.92ZM333.688 111.968V115.16C333.688 116.516 333.604 118.304 332.788 119.576C332.968 119.66 333.304 119.864 333.436 119.984C334.288 118.652 334.432 116.624 334.432 115.16V111.968H333.688ZM337.264 111.968V118.976C337.264 119.132 337.192 119.18 337.036 119.192C336.868 119.204 336.328 119.204 335.716 119.18C335.824 119.396 335.956 119.744 335.992 119.948C336.82 119.948 337.312 119.936 337.612 119.804C337.924 119.672 338.02 119.42 338.02 118.976V111.968H337.264ZM340.084 109.784C339.916 111.14 339.484 112.328 338.008 112.952C338.188 113.084 338.404 113.372 338.512 113.564C340.192 112.808 340.708 111.44 340.912 109.784H340.084ZM336.436 110V110.144C336.256 110.744 335.92 111.608 335.62 112.148C335.788 112.22 336.052 112.376 336.196 112.496C336.556 111.932 337.012 111.044 337.264 110.3L336.736 109.952L336.616 110H336.436ZM347.448 115.318C347.448 116.392 347.307 117.381 347.026 118.284C346.748 119.185 346.349 120.014 345.829 120.773H344.942C345.147 120.491 345.337 120.145 345.513 119.733C345.692 119.324 345.849 118.875 345.982 118.386C346.116 117.895 346.219 117.388 346.293 116.865C346.37 116.339 346.408 115.824 346.408 115.318C346.408 114.642 346.343 113.956 346.212 113.26C346.082 112.564 345.905 111.918 345.684 111.321C345.462 110.724 345.215 110.239 344.942 109.864H345.829C346.349 110.622 346.748 111.453 347.026 112.357C347.307 113.257 347.448 114.244 347.448 115.318Z" fill="black"/>
<path d="M21.8799 152.168C21.1719 152.168 20.5959 152.744 20.5959 153.44C20.5959 154.148 21.1719 154.724 21.8799 154.724C22.5759 154.724 23.1519 154.148 23.1519 153.44C23.1519 152.744 22.5759 152.168 21.8799 152.168ZM30.4359 152.228V153.068H37.4079V152.228H30.4359ZM30.4359 154.832V155.672H37.4079V154.832H30.4359ZM30.4359 157.46V158.3H37.4079V157.46H30.4359ZM29.8239 149.564V158.972H30.7359V150.428H37.1679V158.912H38.1039V149.564H29.8239ZM33.3399 147.908C33.2199 148.496 32.9559 149.336 32.7399 149.9L33.5439 150.056C33.8079 149.54 34.1199 148.76 34.3839 148.04L33.3399 147.908ZM40.7079 155.768V156.452H46.1799V155.768H40.7079ZM40.3839 149.984V150.68H46.3719V149.984H40.3839ZM42.9879 148.892V157.724H43.8159V148.892H42.9879ZM40.3719 157.748L40.5039 158.528C42.0279 158.372 44.1999 158.12 46.2399 157.88L46.2279 157.172C44.0799 157.4 41.8359 157.616 40.3719 157.748ZM41.4879 153.524H45.3759V154.412H41.4879V153.524ZM41.4879 152.06H45.3759V152.924H41.4879V152.06ZM40.7319 151.436V155.036H46.1439V151.436H40.7319ZM45.7119 148.04C44.4759 148.328 42.2919 148.544 40.5039 148.64C40.5999 148.82 40.6839 149.12 40.7199 149.312C42.5199 149.252 44.7519 149.048 46.1679 148.736L45.7119 148.04ZM46.2879 150.728V151.568H50.6199V150.728H46.2879ZM50.2719 150.728V150.944C50.1399 155.804 50.0079 157.532 49.7079 157.904C49.5999 158.06 49.4799 158.096 49.2879 158.096C49.0479 158.096 48.5199 158.084 47.9319 158.036C48.0759 158.276 48.1719 158.648 48.1959 158.9C48.7479 158.936 49.3239 158.936 49.6599 158.9C50.0199 158.864 50.2599 158.756 50.4759 158.444C50.8719 157.928 50.9919 156.248 51.1239 151.184C51.1239 151.064 51.1359 150.728 51.1359 150.728H50.2719ZM47.7399 148.076C47.7279 152.612 47.7879 156.416 45.0399 158.384C45.2559 158.528 45.5679 158.816 45.7119 159.032C48.5799 156.884 48.5919 152.852 48.6039 148.076H47.7399ZM52.6479 148.568V149.384H63.0999V148.568H52.6479ZM57.4839 148.916V153.56C57.4839 155.552 57.1119 157.316 52.4319 158.18C52.6239 158.396 52.8759 158.78 52.9719 158.972C57.7839 157.952 58.4199 155.888 58.4199 153.572V148.916H57.4839ZM54.6039 153.068H61.4439V154.292H54.6039V153.068ZM54.6039 151.148H61.4439V152.348H54.6039V151.148ZM53.7519 150.392V155.048H62.3559V150.392H53.7519ZM54.9039 155.144L54.1359 155.456C55.7439 158.18 58.6959 158.744 63.1119 158.924C63.1599 158.636 63.3399 158.252 63.4959 158.036C59.1639 157.928 56.4279 157.52 54.9039 155.144ZM70.9239 151.976V152.816H75.3879V151.976H70.9239ZM64.6119 149.18V149.948H69.9039V149.18H64.6119ZM64.4799 153.944V154.724H69.9639V153.944H64.4799ZM64.4439 151.928V152.696H70.0479V151.928H64.4439ZM73.1559 152.312V158.9H74.0319V152.312H73.1559ZM66.8319 147.968V149.576H67.7079V147.968H66.8319ZM66.8319 152.552V158.948H67.7079V152.552H66.8319ZM70.4919 148.904V153.104C70.4919 154.808 70.3239 156.884 68.7879 158.396C69.0039 158.516 69.3279 158.816 69.4359 159.02C71.1279 157.352 71.3439 154.916 71.3439 153.116V149.408C71.5119 149.384 71.5839 149.336 71.5959 149.24L70.4919 148.904ZM74.5119 148.064C73.6359 148.496 72.0519 148.916 70.7079 149.204C70.8159 149.384 70.9359 149.696 70.9839 149.888C72.4239 149.636 74.1039 149.228 75.2319 148.724L74.5119 148.064ZM67.6239 154.952L67.1319 155.36C67.5759 155.732 68.7039 156.788 69.0879 157.232L69.6159 156.56C69.3159 156.284 68.0079 155.216 67.6239 154.952ZM65.3319 150.164C65.5719 150.716 65.7639 151.436 65.7999 151.904L66.5559 151.7C66.4959 151.244 66.2919 150.536 66.0399 150.008L65.3319 150.164ZM68.4039 149.984C68.2719 150.488 68.0199 151.232 67.8039 151.712L68.5239 151.88C68.7399 151.436 68.9919 150.764 69.2199 150.164L68.4039 149.984ZM66.8439 154.34C66.2679 155.516 65.1759 156.812 64.2039 157.448C64.4079 157.592 64.6719 157.88 64.8159 158.084C65.7759 157.34 66.8799 155.924 67.4919 154.592L66.8439 154.34ZM81.3399 149.9L81.3519 150.872C82.6599 151.016 84.9879 151.016 86.2719 150.872V149.9C85.0839 150.08 82.6479 150.128 81.3399 149.9ZM81.8079 154.796L80.9439 154.712C80.8119 155.288 80.7519 155.72 80.7519 156.116C80.7519 157.244 81.6519 157.916 83.6559 157.916C84.9039 157.916 85.9119 157.82 86.6559 157.664L86.6319 156.656C85.6719 156.884 84.7359 156.98 83.6679 156.98C82.0239 156.98 81.6399 156.44 81.6399 155.888C81.6399 155.564 81.6999 155.228 81.8079 154.796ZM79.0599 148.976L77.9919 148.892C77.9799 149.156 77.9439 149.456 77.9079 149.732C77.7639 150.728 77.3679 152.78 77.3679 154.544C77.3679 156.176 77.5719 157.556 77.8119 158.408L78.6639 158.348C78.6519 158.216 78.6399 158.048 78.6279 157.928C78.6279 157.784 78.6519 157.556 78.6879 157.388C78.7959 156.812 79.2399 155.552 79.5399 154.7L79.0359 154.304C78.8319 154.796 78.5559 155.516 78.3519 156.056C78.2799 155.468 78.2439 154.964 78.2439 154.388C78.2439 153.032 78.6159 150.896 78.8439 149.78C78.8919 149.564 78.9879 149.18 79.0599 148.976ZM94.3719 148.58H93.2319C93.2799 148.808 93.3159 149.336 93.3279 149.78C93.3279 150.296 93.3399 151.28 93.3399 151.976C93.3399 153.2 93.4839 155.528 93.4839 156.416C93.4839 157.244 93.0519 157.664 92.1759 157.664C91.0119 157.664 90.3399 157.292 90.3399 156.632C90.3399 155.96 91.0479 155.54 92.2959 155.54C94.3959 155.54 96.3639 156.716 97.5639 157.916L98.1399 157.016C96.9159 155.9 94.7799 154.7 92.4039 154.7C90.3279 154.7 89.3919 155.576 89.3919 156.668C89.3919 158.036 90.6039 158.552 92.2719 158.552C93.8679 158.552 94.4679 157.712 94.4679 156.74C94.4679 155.684 94.2759 153.284 94.2759 151.976C94.2759 151.148 94.2759 150.32 94.2759 149.78C94.2879 149.42 94.3239 148.844 94.3719 148.58ZM93.7479 151.004V151.892C94.6119 151.892 96.5679 151.808 97.8639 151.688L97.8279 150.788C96.5319 150.944 94.5759 151.004 93.7479 151.004ZM102.373 149.168L102.397 150.152C102.661 150.116 102.925 150.104 103.201 150.08C103.825 150.044 106.225 149.948 106.861 149.912C106.261 150.452 104.749 151.712 104.077 152.264C103.393 152.852 101.845 154.148 100.849 154.964L101.545 155.66C103.057 154.112 104.137 153.272 106.129 153.272C107.701 153.272 108.829 154.148 108.829 155.336C108.829 156.836 107.545 157.676 105.505 157.676C104.557 157.676 103.897 157.328 103.897 156.74C103.897 156.32 104.317 155.984 104.869 155.984C105.829 155.984 106.417 156.716 106.489 157.736L107.353 157.592C107.269 156.38 106.465 155.252 104.869 155.252C103.765 155.252 103.021 155.996 103.021 156.812C103.021 157.82 104.017 158.528 105.649 158.528C108.193 158.528 109.789 157.268 109.789 155.336C109.789 153.716 108.361 152.528 106.369 152.528C105.829 152.528 105.253 152.588 104.701 152.768C105.637 152 107.269 150.596 107.857 150.14C108.085 149.96 108.325 149.804 108.541 149.66L107.989 148.952C107.857 149 107.689 149.024 107.329 149.06C106.693 149.12 103.849 149.204 103.213 149.204C102.973 149.204 102.637 149.192 102.373 149.168ZM114.997 153.344L114.169 153.644C115.669 156.656 118.465 158.384 122.473 158.996C122.605 158.744 122.845 158.348 123.049 158.144C119.113 157.616 116.305 156.008 114.997 153.344ZM112.981 152.504V153.38H120.805V152.504H112.981ZM112.429 149.756V150.656H122.557V149.756H112.429ZM117.025 147.932V152.912H117.949V147.932H117.025ZM120.517 152.504V152.684C119.269 155.972 115.885 157.496 111.985 158.108C112.153 158.312 112.393 158.732 112.477 158.96C116.461 158.24 120.025 156.536 121.513 152.84L120.901 152.468L120.721 152.504H120.517ZM130.765 148.256C130.297 151.28 129.337 155.396 128.545 157.94L129.397 158.132C130.201 155.576 131.173 151.556 131.749 148.436L130.765 148.256ZM127.405 157.784L127.609 158.72C129.325 158.504 131.845 158.18 134.209 157.856L134.173 157.016C131.665 157.316 129.013 157.628 127.405 157.784ZM132.025 153.812C132.997 155.456 133.969 157.628 134.293 158.96L135.157 158.612C134.797 157.268 133.789 155.144 132.805 153.524L132.025 153.812ZM124.069 150.38V151.232H128.629V150.38H124.069ZM125.989 147.92V157.856C125.989 158.06 125.917 158.108 125.737 158.12C125.545 158.132 124.921 158.144 124.273 158.12C124.393 158.36 124.513 158.744 124.561 158.972C125.461 158.972 126.037 158.96 126.397 158.804C126.733 158.672 126.865 158.42 126.865 157.856V147.92H125.989ZM123.901 154.268L124.117 155.156C125.401 154.832 127.153 154.364 128.797 153.932L128.713 153.128C126.949 153.56 125.089 154.004 123.901 154.268ZM138.193 149.636L137.029 149.612C137.101 149.888 137.101 150.404 137.101 150.68C137.101 151.376 137.125 152.84 137.233 153.872C137.569 156.98 138.649 158.108 139.789 158.108C140.605 158.108 141.325 157.412 142.057 155.384L141.301 154.532C140.989 155.732 140.425 156.968 139.813 156.968C138.949 156.968 138.373 155.636 138.169 153.632C138.085 152.648 138.073 151.544 138.085 150.8C138.097 150.488 138.133 149.912 138.193 149.636ZM144.433 149.96L143.509 150.284C144.649 151.688 145.381 154.16 145.585 156.32L146.557 155.936C146.377 153.908 145.513 151.352 144.433 149.96ZM157.177 149.384C157.177 148.952 157.525 148.592 157.969 148.592C158.401 148.592 158.761 148.952 158.761 149.384C158.761 149.828 158.401 150.176 157.969 150.176C157.525 150.176 157.177 149.828 157.177 149.384ZM156.625 149.384C156.625 150.128 157.225 150.728 157.969 150.728C158.713 150.728 159.313 150.128 159.313 149.384C159.313 148.64 158.713 148.04 157.969 148.04C157.225 148.04 156.625 148.64 156.625 149.384ZM157.669 150.188L156.937 149.72C156.709 149.78 156.481 149.792 156.289 149.792C155.749 149.792 150.961 149.792 150.277 149.792C149.881 149.792 149.401 149.744 149.077 149.708V150.776C149.377 150.752 149.785 150.728 150.265 150.728C150.961 150.728 155.713 150.728 156.409 150.728C156.241 151.88 155.689 153.56 154.837 154.64C153.829 155.924 152.485 156.944 150.157 157.532L150.973 158.432C153.169 157.736 154.597 156.632 155.689 155.216C156.649 153.992 157.225 152.048 157.489 150.788C157.537 150.56 157.585 150.356 157.669 150.188ZM161.269 149.78C161.281 150.08 161.281 150.44 161.281 150.716C161.281 151.184 161.281 156.14 161.281 156.632C161.281 157.052 161.257 157.928 161.257 158.084H162.277C162.277 157.928 162.265 157.16 162.265 156.764C162.265 156.272 162.265 150.752 162.265 150.752H168.817C168.817 150.752 168.817 156.32 168.817 156.764C168.817 157.268 168.805 157.952 168.793 158.084H169.837C169.825 157.952 169.813 157.016 169.813 156.632C169.813 156.176 169.813 151.28 169.813 150.716C169.813 150.416 169.813 150.08 169.837 149.792C169.465 149.804 169.033 149.804 168.781 149.804C168.193 149.804 162.973 149.804 162.337 149.804C162.049 149.804 161.737 149.804 161.269 149.78ZM169.213 156.464H161.785V157.4H169.213V156.464ZM175.177 156.464C175.177 157.64 175.597 158.228 177.829 158.228C179.329 158.228 180.529 158.132 181.597 157.976L181.633 156.944C180.445 157.184 179.281 157.304 177.889 157.304C176.461 157.304 176.149 157.04 176.149 156.212C176.149 155.024 176.149 151.1 176.149 149.84C176.149 149.492 176.185 149.084 176.233 148.736H175.105C175.165 149.084 175.177 149.48 175.177 149.84C175.177 151.112 175.177 155.36 175.177 156.464ZM182.149 151.1L181.441 150.548C181.297 150.632 181.057 150.704 180.805 150.764C179.893 150.98 173.761 152.216 172.225 152.396L172.417 153.404C173.857 153.092 180.325 151.796 180.697 151.724C180.337 152.432 179.461 153.752 178.561 154.58L179.389 155.072C180.361 154.088 181.297 152.576 181.849 151.58C181.933 151.436 182.053 151.232 182.149 151.1ZM193.105 149.984L192.505 149.516C192.313 149.576 191.989 149.612 191.605 149.612C191.149 149.612 187.441 149.612 186.973 149.612C186.601 149.612 185.917 149.564 185.761 149.54V150.62C185.893 150.608 186.541 150.56 186.973 150.56C187.381 150.56 191.221 150.56 191.653 150.56C191.341 151.556 190.465 152.984 189.649 153.908C188.413 155.276 186.649 156.716 184.705 157.46L185.473 158.264C187.369 157.4 189.085 155.972 190.429 154.472C191.425 153.368 192.337 151.688 192.817 150.5C192.877 150.344 193.033 150.08 193.105 149.984ZM190.585 153.848L189.901 154.52C191.197 155.66 192.601 157.196 193.465 158.336L194.293 157.604C193.477 156.608 191.881 154.928 190.585 153.848ZM200.605 148.688L199.489 148.568C199.489 149.492 199.333 150.572 199.105 151.532C198.781 152.996 197.821 156.2 196.453 158.036L197.437 158.42C198.793 156.236 199.645 153.248 200.053 151.556C200.221 150.812 200.377 149.828 200.461 149.396C200.509 149.168 200.557 148.904 200.605 148.688ZM204.733 150.068L203.857 150.464C204.697 151.46 205.645 153.548 205.993 154.772L206.929 154.328C206.521 153.224 205.477 151.04 204.733 150.068ZM196.285 151.316L196.381 152.36C196.693 152.312 197.185 152.252 197.461 152.216C198.193 152.144 200.449 151.868 201.253 151.868C202.021 151.868 202.525 152.072 202.525 153.176C202.525 154.472 202.333 156.032 201.949 156.848C201.709 157.364 201.349 157.46 200.905 157.46C200.569 157.46 199.933 157.376 199.429 157.22L199.597 158.216C199.969 158.312 200.545 158.396 201.001 158.396C201.781 158.396 202.381 158.192 202.753 157.388C203.257 156.392 203.449 154.484 203.449 153.056C203.449 151.436 202.573 151.028 201.505 151.028C200.689 151.028 198.253 151.292 197.353 151.316C196.969 151.328 196.657 151.34 196.285 151.316ZM204.865 148.328L204.217 148.604C204.553 149.06 204.961 149.78 205.201 150.272L205.849 149.984C205.597 149.492 205.165 148.76 204.865 148.328ZM206.185 147.848L205.549 148.124C205.897 148.568 206.293 149.252 206.545 149.78L207.205 149.492C206.965 149.048 206.509 148.292 206.185 147.848ZM210.457 152.66H208.069V153.5H209.593V156.908H210.457V152.66ZM210.457 156.548H209.677C209.113 157.064 208.465 157.604 207.937 157.988L208.405 158.864C209.005 158.336 209.557 157.82 210.085 157.304C210.829 158.252 211.921 158.672 213.505 158.732C214.849 158.792 217.417 158.768 218.773 158.708C218.809 158.444 218.953 158.024 219.061 157.82C217.609 157.916 214.837 157.952 213.505 157.892C212.077 157.844 211.021 157.436 210.457 156.548ZM208.177 148.724C208.909 149.312 209.737 150.152 210.073 150.752L210.817 150.188C210.445 149.6 209.605 148.772 208.861 148.232L208.177 148.724ZM211.261 150.152V150.86H218.929V150.152H211.261ZM212.221 153.176V153.872H216.253V153.176H212.221ZM216.169 154.256V154.94H217.957V154.256H216.169ZM214.633 148.88V152.888H215.485V148.88H214.633ZM214.393 150.476C213.649 151.484 212.185 152.456 210.877 152.9C211.057 153.056 211.297 153.344 211.429 153.548C212.749 153.008 214.237 151.904 215.041 150.74L214.393 150.476ZM215.725 150.512L215.113 150.74C215.881 151.856 217.285 152.936 218.593 153.44C218.713 153.236 218.953 152.936 219.133 152.768C217.837 152.372 216.433 151.46 215.725 150.512ZM217.705 154.256V154.376C217.597 155.684 217.477 156.212 217.285 156.38C217.201 156.464 217.093 156.476 216.889 156.476C216.685 156.476 216.121 156.464 215.545 156.404C215.665 156.608 215.749 156.896 215.773 157.112C216.361 157.148 216.937 157.148 217.237 157.124C217.549 157.112 217.777 157.052 217.969 156.86C218.233 156.62 218.389 156.008 218.521 154.592C218.533 154.472 218.557 154.256 218.557 154.256H217.705ZM217.813 148.124C216.409 148.448 213.793 148.652 211.621 148.736C211.705 148.916 211.801 149.204 211.825 149.384C214.033 149.312 216.721 149.108 218.413 148.736L217.813 148.124ZM213.709 153.368C213.553 154.916 213.109 156.044 211.261 156.62C211.429 156.776 211.657 157.088 211.741 157.292C213.805 156.584 214.357 155.24 214.549 153.368H213.709ZM216.025 153.176C215.929 153.848 215.761 154.664 215.605 155.24L216.385 155.348C216.529 154.76 216.709 153.908 216.841 153.176H216.025ZM220.969 148.664V149.492H223.573V154.988H220.969V155.828H224.413V148.664H220.969ZM220.981 151.772V152.588H223.933V151.772H220.981ZM226.045 148.436V149.276H230.089V148.436H226.045ZM226.045 151.352V152.18H230.089V151.352H226.045ZM225.973 154.304V155.12H230.065V154.304H225.973ZM220.477 148.664V156.944H221.317V148.664H220.477ZM229.753 148.436V157.772C229.753 157.988 229.681 158.06 229.465 158.072C229.249 158.072 228.493 158.084 227.725 158.06C227.857 158.3 228.001 158.696 228.049 158.936C229.081 158.936 229.741 158.924 230.125 158.78C230.509 158.624 230.653 158.348 230.653 157.784V148.436H229.753ZM225.517 148.436V152.72C225.517 154.592 225.313 156.872 223.285 158.432C223.477 158.552 223.813 158.864 223.945 159.044C226.105 157.388 226.405 154.736 226.405 152.72V148.436H225.517ZM237.349 148.22V157.112C237.349 158.432 237.733 158.792 238.993 158.792C239.269 158.792 241.153 158.792 241.465 158.792C242.713 158.792 242.977 158.108 243.121 156.14C242.857 156.08 242.485 155.912 242.257 155.744C242.173 157.496 242.077 157.94 241.417 157.94C241.009 157.94 239.377 157.94 239.053 157.94C238.381 157.94 238.261 157.796 238.261 157.124V148.22H237.349ZM241.849 150.212C240.829 151.148 239.113 152.264 237.577 153.068C237.709 153.26 237.889 153.572 237.949 153.776C239.533 152.948 241.297 151.976 242.509 150.98L241.849 150.212ZM235.261 148.112C234.469 150.008 233.149 151.832 231.757 152.996C231.937 153.212 232.213 153.68 232.309 153.896C233.797 152.564 235.237 150.512 236.137 148.4L235.261 148.112ZM233.893 151.244V158.948H234.781V150.38L234.769 150.368L233.893 151.244ZM247.597 148.652H246.373C246.445 149 246.481 149.42 246.481 149.864C246.481 151.124 246.361 154.16 246.361 155.936C246.361 157.904 247.549 158.612 249.277 158.612C251.905 158.612 253.465 157.112 254.281 155.972L253.609 155.156C252.745 156.404 251.497 157.628 249.301 157.628C248.161 157.628 247.333 157.172 247.333 155.852C247.333 154.064 247.429 151.22 247.477 149.864C247.501 149.468 247.537 149.048 247.597 148.652ZM262.806 148.496H261.702C261.726 148.604 261.762 148.94 261.786 149.264C261.822 149.924 261.834 152.312 261.834 152.84L262.746 153.308C262.734 152.348 262.71 150.032 262.746 149.252C262.746 149.108 262.782 148.64 262.806 148.496ZM256.422 150.176L256.446 151.1C258.258 150.968 260.826 150.884 262.89 150.884C264.654 150.884 265.734 150.908 266.406 150.944L266.418 150.056C265.854 150.044 264.366 150.044 262.902 150.044C261.054 150.044 258.054 150.152 256.422 150.176ZM262.722 153.656L262.062 153.32C262.254 154.604 261.774 155.228 261.03 155.228C260.37 155.228 259.806 154.796 259.806 154.04C259.806 153.26 260.394 152.768 261.03 152.768C261.678 152.768 262.206 153.224 262.206 154.304C262.206 156.284 260.934 157.352 258.75 157.868L259.554 158.648C262.338 157.82 263.13 156.02 263.13 154.388C263.13 153.008 262.422 151.976 261.03 151.976C259.89 151.976 258.906 152.864 258.906 154.052C258.906 155.36 259.878 156.068 260.886 156.068C261.978 156.068 262.722 155.264 262.722 153.656ZM276.378 148.4L275.778 148.652C276.138 149.156 276.474 149.768 276.738 150.356L277.362 150.056C277.11 149.528 276.666 148.796 276.378 148.4ZM277.638 147.908L277.05 148.196C277.422 148.688 277.77 149.276 278.058 149.852L278.67 149.552C278.394 149.036 277.938 148.304 277.638 147.908ZM268.95 149.816L269.01 150.704C270.726 150.86 272.406 150.86 273.63 150.752C274.59 150.656 275.466 150.476 276.126 150.284L275.994 149.42C275.31 149.648 274.41 149.84 273.426 149.936C272.19 150.044 270.618 150.02 268.95 149.816ZM268.722 152.288L268.77 153.176C270.834 153.332 273.054 153.296 274.542 153.116C275.538 152.984 276.45 152.816 277.11 152.636L276.966 151.736C276.33 151.928 275.346 152.168 274.206 152.3C272.814 152.468 270.762 152.492 268.722 152.288ZM272.814 149.66C272.982 150.26 273.162 150.908 273.462 151.724C273.81 152.696 274.314 153.848 274.986 154.88C274.602 154.844 273.822 154.76 273.186 154.688L273.102 155.42C273.93 155.504 275.046 155.624 275.718 155.792L276.222 155.06C276.054 154.904 275.898 154.736 275.778 154.544C275.154 153.62 274.614 152.468 274.29 151.532C273.99 150.68 273.63 149.468 273.51 148.472L272.49 148.592C272.61 148.94 272.718 149.312 272.814 149.66ZM270.462 154.868L269.526 154.664C269.262 155.192 269.046 155.696 269.058 156.38C269.07 157.928 270.39 158.624 272.742 158.624C273.762 158.624 274.71 158.552 275.55 158.408L275.586 157.46C274.722 157.628 273.846 157.712 272.73 157.712C270.846 157.712 269.958 157.208 269.958 156.224C269.958 155.696 270.174 155.276 270.462 154.868ZM280.29 150.032L280.398 151.088C281.706 150.812 284.754 150.512 286.05 150.38C284.946 151.028 283.806 152.552 283.806 154.424C283.806 157.112 286.326 158.288 288.558 158.372L288.894 157.388C286.95 157.304 284.754 156.56 284.754 154.22C284.754 152.804 285.798 150.968 287.514 150.416C288.126 150.248 289.17 150.224 289.866 150.236L289.854 149.276C289.05 149.3 287.934 149.372 286.626 149.48C284.406 149.672 282.15 149.888 281.37 149.972C281.13 149.996 280.746 150.02 280.29 150.032ZM293.961 158.672L294.777 157.976C294.021 157.1 292.941 156.02 292.077 155.324L291.297 156.008C292.149 156.704 293.181 157.724 293.961 158.672ZM18.5559 164.636L17.3919 164.612C17.4639 164.888 17.4639 165.404 17.4639 165.68C17.4639 166.376 17.4879 167.84 17.5959 168.872C17.9319 171.98 19.0119 173.108 20.1519 173.108C20.9679 173.108 21.6879 172.412 22.4199 170.384L21.6639 169.532C21.3519 170.732 20.7879 171.968 20.1759 171.968C19.3119 171.968 18.7359 170.636 18.5319 168.632C18.4479 167.648 18.4359 166.544 18.4479 165.8C18.4599 165.488 18.4959 164.912 18.5559 164.636ZM24.7959 164.96L23.8719 165.284C25.0119 166.688 25.7439 169.16 25.9479 171.32L26.9199 170.936C26.7399 168.908 25.8759 166.352 24.7959 164.96ZM28.7439 166.736L29.1879 167.804C30.1479 167.42 33.1959 166.1 35.1759 166.1C36.7959 166.1 37.7199 167.096 37.7199 168.356C37.7199 170.804 34.9119 171.764 31.7799 171.848L32.2119 172.844C35.9079 172.628 38.7639 171.248 38.7639 168.368C38.7639 166.364 37.1799 165.212 35.1999 165.212C33.4479 165.212 31.0839 166.076 30.0759 166.4C29.6199 166.532 29.1879 166.664 28.7439 166.736ZM46.6359 164.816L45.6399 164.792C45.5199 166.04 45.2679 167.396 44.9199 168.536C44.3079 170.564 43.6599 171.38 43.0959 171.38C42.5559 171.38 41.8719 170.708 41.8719 169.196C41.8719 167.432 43.5159 165.26 46.1559 165.26C48.4599 165.26 49.7919 166.844 49.7919 168.764C49.7919 170.84 48.2799 171.992 46.7439 172.34C46.4559 172.4 46.0959 172.448 45.7119 172.484L46.2639 173.372C49.1199 173 50.7759 171.32 50.7759 168.812C50.7759 166.376 48.9879 164.396 46.1799 164.396C43.2399 164.396 40.9239 166.664 40.9239 169.268C40.9239 171.26 41.9919 172.484 43.0719 172.484C44.1759 172.484 45.1359 171.212 45.8679 168.752C46.2399 167.468 46.4799 166.064 46.6359 164.816ZM58.7439 163.484H57.7239C57.7599 163.64 57.7719 164 57.7719 164.204C57.7719 165.044 57.7719 166.304 57.7719 167.384C57.7719 168.44 57.8919 170.744 57.8919 171.668C57.8919 172.508 57.3039 172.712 56.6079 172.712C55.4199 172.712 54.9519 172.304 54.9519 171.74C54.9519 171.188 55.5639 170.744 56.7159 170.744C58.8519 170.744 60.6279 171.944 61.7079 172.94L62.2599 172.088C61.3359 171.332 59.3559 169.964 56.8239 169.964C55.0959 169.964 54.0519 170.696 54.0519 171.788C54.0519 172.952 54.9999 173.564 56.7279 173.564C58.2879 173.564 58.8399 172.712 58.8399 171.872C58.8399 171.068 58.6599 168.968 58.6599 167.384C58.6599 166.376 58.6599 164.768 58.6839 164.288C58.6959 163.928 58.7199 163.688 58.7439 163.484ZM54.1599 164.78L54.1719 165.668C54.9279 165.764 56.4039 165.872 57.2319 165.872C58.8399 165.872 60.5559 165.716 61.9119 165.56V164.684C60.3519 164.936 58.7439 165.044 57.2199 165.044C56.4279 165.044 54.9279 164.924 54.1599 164.78ZM54.0999 167.336L54.1119 168.236C54.9639 168.332 56.2839 168.392 57.1119 168.392C58.9119 168.392 60.3759 168.308 62.0079 168.104V167.204C60.4479 167.432 58.8519 167.552 57.1119 167.552C56.3199 167.552 54.9519 167.468 54.0999 167.336ZM69.3399 164.9L69.3519 165.872C70.6599 166.016 72.9879 166.016 74.2719 165.872V164.9C73.0839 165.08 70.6479 165.128 69.3399 164.9ZM69.8079 169.796L68.9439 169.712C68.8119 170.288 68.7519 170.72 68.7519 171.116C68.7519 172.244 69.6519 172.916 71.6559 172.916C72.9039 172.916 73.9119 172.82 74.6559 172.664L74.6319 171.656C73.6719 171.884 72.7359 171.98 71.6679 171.98C70.0239 171.98 69.6399 171.44 69.6399 170.888C69.6399 170.564 69.6999 170.228 69.8079 169.796ZM67.0599 163.976L65.9919 163.892C65.9799 164.156 65.9439 164.456 65.9079 164.732C65.7639 165.728 65.3679 167.78 65.3679 169.544C65.3679 171.176 65.5719 172.556 65.8119 173.408L66.6639 173.348C66.6519 173.216 66.6399 173.048 66.6279 172.928C66.6279 172.784 66.6519 172.556 66.6879 172.388C66.7959 171.812 67.2399 170.552 67.5399 169.7L67.0359 169.304C66.8319 169.796 66.5559 170.516 66.3519 171.056C66.2799 170.468 66.2439 169.964 66.2439 169.388C66.2439 168.032 66.6159 165.896 66.8439 164.78C66.8919 164.564 66.9879 164.18 67.0599 163.976ZM81.1239 163.64L80.0199 163.532C80.0199 164.456 79.8519 165.536 79.6359 166.484C79.3119 167.96 78.3519 171.164 76.9839 172.988L77.9559 173.384C79.3119 171.188 80.1759 168.2 80.5839 166.52C80.7399 165.776 80.9079 164.792 80.9799 164.36C81.0279 164.12 81.0759 163.868 81.1239 163.64ZM85.2639 164.924L84.3879 165.32C85.2279 166.304 86.1639 168.428 86.5239 169.664L87.4479 169.22C87.0519 168.104 86.0079 165.896 85.2639 164.924ZM76.8039 166.28L76.9119 167.312C77.2119 167.264 77.7159 167.204 77.9919 167.168C78.7239 167.096 80.9679 166.832 81.7719 166.832C82.5399 166.832 83.0439 167.036 83.0439 168.128C83.0439 169.424 82.8639 170.996 82.4799 171.8C82.2279 172.328 81.8679 172.424 81.4239 172.424C81.0879 172.424 80.4639 172.328 79.9599 172.172L80.1159 173.18C80.4999 173.264 81.0639 173.348 81.5319 173.348C82.2999 173.348 82.8999 173.156 83.2839 172.352C83.7759 171.356 83.9679 169.448 83.9679 168.02C83.9679 166.388 83.0919 165.98 82.0239 165.98C81.2079 165.98 78.7719 166.256 77.8839 166.28C77.4999 166.292 77.1879 166.292 76.8039 166.28ZM91.3599 168.344L90.5319 168.644C92.0319 171.656 94.8279 173.384 98.8359 173.996C98.9679 173.744 99.2079 173.348 99.4119 173.144C95.4759 172.616 92.6679 171.008 91.3599 168.344ZM89.3439 167.504V168.38H97.1679V167.504H89.3439ZM88.7919 164.756V165.656H98.9199V164.756H88.7919ZM93.3879 162.932V167.912H94.3119V162.932H93.3879ZM96.8799 167.504V167.684C95.6319 170.972 92.2479 172.496 88.3479 173.108C88.5159 173.312 88.7559 173.732 88.8399 173.96C92.8239 173.24 96.3879 171.536 97.8759 167.84L97.2639 167.468L97.0839 167.504H96.8799ZM107.128 163.256C106.66 166.28 105.7 170.396 104.908 172.94L105.76 173.132C106.564 170.576 107.536 166.556 108.112 163.436L107.128 163.256ZM103.768 172.784L103.972 173.72C105.688 173.504 108.208 173.18 110.572 172.856L110.536 172.016C108.028 172.316 105.376 172.628 103.768 172.784ZM108.388 168.812C109.36 170.456 110.332 172.628 110.656 173.96L111.52 173.612C111.16 172.268 110.152 170.144 109.168 168.524L108.388 168.812ZM100.432 165.38V166.232H104.992V165.38H100.432ZM102.352 162.92V172.856C102.352 173.06 102.28 173.108 102.1 173.12C101.908 173.132 101.284 173.144 100.636 173.12C100.756 173.36 100.876 173.744 100.924 173.972C101.824 173.972 102.4 173.96 102.76 173.804C103.096 173.672 103.228 173.42 103.228 172.856V162.92H102.352ZM100.264 169.268L100.48 170.156C101.764 169.832 103.516 169.364 105.16 168.932L105.076 168.128C103.312 168.56 101.452 169.004 100.264 169.268ZM114.556 164.636L113.392 164.612C113.464 164.888 113.464 165.404 113.464 165.68C113.464 166.376 113.488 167.84 113.596 168.872C113.932 171.98 115.012 173.108 116.152 173.108C116.968 173.108 117.688 172.412 118.42 170.384L117.664 169.532C117.352 170.732 116.788 171.968 116.176 171.968C115.312 171.968 114.736 170.636 114.532 168.632C114.448 167.648 114.436 166.544 114.448 165.8C114.46 165.488 114.496 164.912 114.556 164.636ZM120.796 164.96L119.872 165.284C121.012 166.688 121.744 169.16 121.948 171.32L122.92 170.936C122.74 168.908 121.876 166.352 120.796 164.96ZM130.636 169.832C131.476 170.18 132.52 170.792 133.072 171.224L133.624 170.612C133.072 170.18 132.028 169.604 131.176 169.268L130.636 169.832ZM129.328 172.112C130.948 172.568 132.928 173.384 133.984 174.032L134.524 173.312C133.432 172.712 131.464 171.908 129.868 171.476L129.328 172.112ZM130.876 162.92C130.432 164.024 129.544 165.392 128.272 166.412C128.464 166.532 128.752 166.796 128.884 166.976C130.264 165.836 131.176 164.384 131.764 163.076L130.876 162.92ZM130.72 164.18L130.324 164.972H133.984V164.18H130.72ZM133.72 164.18V164.348C132.856 166.544 130.756 168.248 128.596 169.112C128.776 169.268 129.052 169.616 129.16 169.82C131.38 168.848 133.576 167.024 134.62 164.456L134.056 164.144L133.9 164.18H133.72ZM130.564 164.864L129.844 165.14C130.924 167.24 132.856 169.088 134.968 169.964C135.1 169.736 135.364 169.4 135.556 169.232C133.48 168.476 131.536 166.748 130.564 164.864ZM126.22 162.932C125.908 163.724 125.356 164.876 124.9 165.56L125.524 165.848C125.992 165.188 126.556 164.12 127.012 163.244L126.22 162.932ZM127.564 164.3C126.928 165.596 125.8 167.42 124.912 168.5L125.464 168.812C126.352 167.756 127.504 166.016 128.32 164.636L127.564 164.3ZM124.324 165.452C124.972 166.028 125.728 166.868 126.052 167.432L126.532 166.748C126.208 166.208 125.452 165.428 124.78 164.864L124.324 165.452ZM127.144 167.084C127.6 167.864 128.056 168.896 128.2 169.544L128.884 169.232C128.728 168.596 128.248 167.588 127.768 166.832L127.144 167.084ZM124.288 168.308L124.36 169.124C125.452 169.052 126.904 168.968 128.344 168.872L128.356 168.128C126.832 168.212 125.332 168.272 124.288 168.308ZM127.456 169.916C127.756 170.612 128.08 171.536 128.188 172.136L128.884 171.896C128.764 171.296 128.44 170.384 128.104 169.712L127.456 169.916ZM124.96 169.784C124.816 170.84 124.576 171.908 124.18 172.64C124.372 172.724 124.732 172.892 124.888 172.988C125.272 172.22 125.572 171.056 125.74 169.928L124.96 169.784ZM126.256 168.644V173.996H127.06V168.644H126.256ZM139.624 163.544L139.468 164.42C140.932 164.684 143.032 164.948 144.232 165.056L144.364 164.168C143.212 164.108 140.92 163.832 139.624 163.544ZM144.604 166.976L144.028 166.316C143.908 166.364 143.656 166.424 143.452 166.448C142.54 166.568 139.756 166.748 139.06 166.772C138.676 166.772 138.328 166.772 138.052 166.748L138.136 167.792C138.388 167.756 138.7 167.708 139.096 167.684C139.828 167.624 141.844 167.444 142.792 167.396C141.616 168.572 138.352 171.848 137.86 172.328C137.632 172.556 137.416 172.748 137.26 172.868L138.172 173.504C138.856 172.64 140.164 171.26 140.608 170.84C140.884 170.564 141.172 170.396 141.496 170.396C141.832 170.396 142.096 170.624 142.228 171.044C142.348 171.38 142.516 172.088 142.636 172.448C142.9 173.24 143.488 173.468 144.46 173.468C145.096 173.468 146.2 173.384 146.704 173.288L146.776 172.28C146.2 172.424 145.288 172.532 144.508 172.532C143.884 172.532 143.608 172.328 143.464 171.872C143.344 171.488 143.176 170.876 143.056 170.528C142.888 170.036 142.612 169.724 142.156 169.676C142.024 169.64 141.808 169.64 141.676 169.652C142.132 169.184 143.476 167.924 143.932 167.504C144.076 167.384 144.376 167.132 144.604 166.976ZM148.29 165.032L148.398 166.088C149.706 165.812 152.754 165.512 154.05 165.38C152.946 166.028 151.806 167.552 151.806 169.424C151.806 172.112 154.326 173.288 156.558 173.372L156.894 172.388C154.95 172.304 152.754 171.56 152.754 169.22C152.754 167.804 153.798 165.968 155.514 165.416C156.126 165.248 157.17 165.224 157.866 165.236L157.854 164.276C157.05 164.3 155.934 164.372 154.626 164.48C152.406 164.672 150.15 164.888 149.37 164.972C149.13 164.996 148.746 165.02 148.29 165.032ZM161.958 164.636L160.794 164.612C160.866 164.888 160.866 165.404 160.866 165.68C160.866 166.376 160.89 167.84 160.998 168.872C161.334 171.98 162.414 173.108 163.554 173.108C164.37 173.108 165.09 172.412 165.822 170.384L165.066 169.532C164.754 170.732 164.19 171.968 163.578 171.968C162.714 171.968 162.138 170.636 161.934 168.632C161.85 167.648 161.838 166.544 161.85 165.8C161.862 165.488 161.898 164.912 161.958 164.636ZM168.198 164.96L167.274 165.284C168.414 166.688 169.146 169.16 169.35 171.32L170.322 170.936C170.142 168.908 169.278 166.352 168.198 164.96ZM174.138 164.168L174.162 165.152C174.426 165.116 174.69 165.104 174.966 165.08C175.59 165.044 177.99 164.948 178.626 164.912C178.026 165.452 176.514 166.712 175.842 167.264C175.158 167.852 173.61 169.148 172.614 169.964L173.31 170.66C174.822 169.112 175.902 168.272 177.894 168.272C179.466 168.272 180.594 169.148 180.594 170.336C180.594 171.836 179.31 172.676 177.27 172.676C176.322 172.676 175.662 172.328 175.662 171.74C175.662 171.32 176.082 170.984 176.634 170.984C177.594 170.984 178.182 171.716 178.254 172.736L179.118 172.592C179.034 171.38 178.23 170.252 176.634 170.252C175.53 170.252 174.786 170.996 174.786 171.812C174.786 172.82 175.782 173.528 177.414 173.528C179.958 173.528 181.554 172.268 181.554 170.336C181.554 168.716 180.126 167.528 178.134 167.528C177.594 167.528 177.018 167.588 176.466 167.768C177.402 167 179.034 165.596 179.622 165.14C179.85 164.96 180.09 164.804 180.306 164.66L179.754 163.952C179.622 164 179.454 164.024 179.094 164.06C178.458 164.12 175.614 164.204 174.978 164.204C174.738 164.204 174.402 164.192 174.138 164.168ZM184.561 169.318C184.561 168.244 184.7 167.257 184.978 166.357C185.259 165.453 185.66 164.622 186.18 163.864H187.066C186.862 164.145 186.67 164.491 186.491 164.903C186.315 165.312 186.16 165.763 186.027 166.254C185.893 166.743 185.788 167.249 185.711 167.771C185.637 168.294 185.6 168.81 185.6 169.318C185.6 169.994 185.666 170.68 185.796 171.376C185.927 172.072 186.103 172.719 186.325 173.315C186.546 173.912 186.794 174.398 187.066 174.773H186.18C185.66 174.014 185.259 173.185 184.978 172.284C184.7 171.381 184.561 170.392 184.561 169.318ZM195.742 164.024V170.672H196.582V164.024H195.742ZM197.878 163.052V172.724C197.878 172.928 197.818 172.976 197.626 172.988C197.41 172.988 196.738 172.988 196.03 172.964C196.15 173.252 196.282 173.66 196.33 173.924C197.218 173.924 197.878 173.9 198.238 173.744C198.61 173.576 198.754 173.312 198.754 172.712V163.052H197.878ZM191.098 162.968V173.96H191.95V162.968H191.098ZM193.618 168.788V172.076C193.618 172.196 193.582 172.232 193.462 172.232C193.318 172.244 192.934 172.244 192.418 172.232C192.538 172.46 192.646 172.784 192.67 173.012C193.342 173.024 193.798 173.012 194.086 172.868C194.386 172.724 194.446 172.496 194.446 172.088V168.788H193.618ZM188.71 168.788V172.976H189.526V169.604H193.954V168.788H188.71ZM188.158 166.748V167.576H194.878V166.748H188.158ZM189.322 164.66L189.154 165.488H194.398V164.66H189.322ZM189.334 163.208C189.082 164.372 188.662 165.572 188.122 166.388C188.338 166.46 188.734 166.616 188.914 166.712C189.418 165.896 189.886 164.624 190.174 163.376L189.334 163.208ZM205.474 164.936L205.054 165.8H211.162V164.936H205.474ZM206.974 167.54V168.368H210.886V167.54H206.974ZM206.962 170.18V171.032H211.054V170.18H206.962ZM206.518 165.212V173.96H207.442V165.212H206.518ZM205.93 163.064C205.342 164.828 204.37 166.58 203.278 167.696C203.482 167.84 203.842 168.164 203.974 168.32C205.078 167.084 206.122 165.2 206.806 163.292L205.93 163.064ZM203.05 162.968C202.366 164.792 201.25 166.592 200.05 167.756C200.218 167.972 200.494 168.452 200.578 168.668C201.886 167.324 203.122 165.272 203.914 163.244L203.05 162.968ZM201.766 166.064V173.948H202.678V165.176L202.654 165.164L201.766 166.064ZM212.278 166.784V167.588H222.97V166.784H212.278ZM213.334 164.432V165.236H220.282V164.432H213.334ZM215.278 170.804V171.524H220.93V170.804H215.278ZM215.278 172.796V173.576H220.93V172.796H215.278ZM216.418 162.92V167.216H217.294V162.92H216.418ZM221.674 163.34C219.454 166.316 215.878 168.644 212.002 169.988C212.182 170.168 212.47 170.54 212.578 170.744C216.418 169.268 220.03 166.904 222.442 163.748L221.674 163.34ZM214.786 168.86V173.972H215.686V169.616H220.57V173.924H221.506V168.86H214.786ZM230.386 164.816L229.39 164.792C229.27 166.04 229.018 167.396 228.67 168.536C228.058 170.564 227.41 171.38 226.846 171.38C226.306 171.38 225.622 170.708 225.622 169.196C225.622 167.432 227.266 165.26 229.906 165.26C232.21 165.26 233.542 166.844 233.542 168.764C233.542 170.84 232.03 171.992 230.494 172.34C230.206 172.4 229.846 172.448 229.462 172.484L230.014 173.372C232.87 173 234.526 171.32 234.526 168.812C234.526 166.376 232.738 164.396 229.93 164.396C226.99 164.396 224.674 166.664 224.674 169.268C224.674 171.26 225.742 172.484 226.822 172.484C227.926 172.484 228.886 171.212 229.618 168.752C229.99 167.468 230.23 166.064 230.386 164.816ZM238.714 166.148H244.534V167.384H238.714V166.148ZM238.714 168.14H244.534V169.388H238.714V168.14ZM238.714 164.156H244.534V165.38H238.714V164.156ZM237.838 163.352V170.204H245.446V163.352H237.838ZM242.398 169.616V172.604C242.398 173.6 242.698 173.876 243.838 173.876C244.078 173.876 245.53 173.876 245.782 173.876C246.802 173.876 247.066 173.432 247.174 171.68C246.922 171.62 246.526 171.476 246.334 171.308C246.286 172.808 246.202 173.012 245.71 173.012C245.386 173.012 244.174 173.012 243.922 173.012C243.406 173.012 243.31 172.952 243.31 172.604V169.616H242.398ZM239.506 169.868C239.302 171.62 238.738 172.652 236.098 173.18C236.278 173.372 236.53 173.744 236.614 173.972C239.506 173.312 240.226 172.004 240.478 169.868H239.506ZM249.286 165.968V166.676H252.754V165.968H249.286ZM249.286 168.008V168.692H252.754V168.008H249.286ZM249.286 170.096V170.804H252.754V170.096H249.286ZM254.398 168.608V169.388H258.97V168.608H254.398ZM249.91 164V164.708H251.902V164H249.91ZM253.63 163.532V164.3H258.322V163.532H253.63ZM253.486 170.852V171.656H259.174V170.852H253.486ZM256.018 167.372V173.912H256.882V167.372H256.018ZM250.774 166.316V170.396H251.422V166.316H250.774ZM258.034 163.532V163.652C257.95 165.536 257.854 166.232 257.698 166.412C257.626 166.508 257.518 166.532 257.35 166.52C257.182 166.52 256.75 166.52 256.27 166.472C256.378 166.676 256.462 166.988 256.474 167.228C256.978 167.252 257.482 167.252 257.722 167.228C258.034 167.204 258.214 167.132 258.382 166.928C258.634 166.652 258.754 165.872 258.838 163.868C258.85 163.76 258.85 163.532 258.85 163.532H258.034ZM254.446 167.48C254.242 168.5 253.87 169.508 253.354 170.18C253.546 170.276 253.906 170.456 254.062 170.564C254.566 169.844 254.986 168.752 255.226 167.636L254.446 167.48ZM249.886 162.92C249.526 164.396 248.854 165.824 248.002 166.748C248.194 166.868 248.542 167.144 248.686 167.288C249.538 166.268 250.27 164.72 250.714 163.1L249.886 162.92ZM248.938 165.968V169.16C248.938 170.516 248.854 172.304 248.038 173.576C248.218 173.66 248.554 173.864 248.686 173.984C249.538 172.652 249.682 170.624 249.682 169.16V165.968H248.938ZM252.514 165.968V172.976C252.514 173.132 252.442 173.18 252.286 173.192C252.118 173.204 251.578 173.204 250.966 173.18C251.074 173.396 251.206 173.744 251.242 173.948C252.07 173.948 252.562 173.936 252.862 173.804C253.174 173.672 253.27 173.42 253.27 172.976V165.968H252.514ZM255.334 163.784C255.166 165.14 254.734 166.328 253.258 166.952C253.438 167.084 253.654 167.372 253.762 167.564C255.442 166.808 255.958 165.44 256.162 163.784H255.334ZM251.686 164V164.144C251.506 164.744 251.17 165.608 250.87 166.148C251.038 166.22 251.302 166.376 251.446 166.496C251.806 165.932 252.262 165.044 252.514 164.3L251.986 163.952L251.866 164H251.686ZM262.698 169.318C262.698 170.392 262.557 171.381 262.276 172.284C261.998 173.185 261.599 174.014 261.079 174.773H260.192C260.397 174.491 260.587 174.145 260.763 173.733C260.942 173.324 261.099 172.875 261.232 172.386C261.366 171.895 261.469 171.388 261.543 170.865C261.62 170.339 261.658 169.824 261.658 169.318C261.658 168.642 261.593 167.956 261.462 167.26C261.332 166.564 261.155 165.918 260.934 165.321C260.712 164.724 260.465 164.239 260.192 163.864H261.079C261.599 164.622 261.998 165.453 262.276 166.357C262.557 167.257 262.698 168.244 262.698 169.318Z" fill="black"/>
<path d="M30.8399 23.82V19.08C30.8399 18.3 30.9199 17.66 30.9399 17.46H29.1199C29.1599 17.64 29.2199 18.3 29.2199 19.08V23.94C29.2199 29.56 27.4199 31.28 23.7799 32.66L25.1199 33.94C29.6799 31.88 30.8399 29.14 30.8399 23.82ZM23.6199 17.58H21.8399C21.8999 18.04 21.9399 18.6 21.9399 19.02V26.36C21.9399 27.12 21.8599 27.98 21.8399 28.16H23.6199C23.5999 27.98 23.5399 27.1 23.5399 26.36V19.02C23.5399 18.34 23.5999 17.76 23.6199 17.58ZM17.7799 21.46V23.18C17.9999 23.18 18.8999 23.12 19.7799 23.12H33.0399C33.9199 23.12 34.6399 23.16 34.8599 23.18V21.48C34.5799 21.52 33.9199 21.6 33.0199 21.6H19.7799C18.9399 21.6 17.9599 21.48 17.7799 21.46ZM51.5399 16.38L50.4399 16.84C50.9399 17.56 51.6199 18.7 52.0199 19.52L53.1399 19.02C52.7399 18.26 52.0199 17.08 51.5399 16.38ZM54.1199 15.88L53.0199 16.34C53.5599 17.02 54.1999 18.18 54.6399 19L55.7599 18.52C55.3399 17.74 54.5999 16.56 54.1199 15.88ZM53.3399 19.98L52.1199 19.2C51.7599 19.3 51.3599 19.32 51.0599 19.32C50.1399 19.32 42.1599 19.32 41.0199 19.32C40.3599 19.32 39.5799 19.24 39.0199 19.18V20.96C39.5399 20.92 40.2199 20.88 41.0199 20.88C42.1599 20.88 50.0999 20.88 51.2399 20.88C50.9799 22.8 50.0399 25.6 48.6199 27.4C46.9599 29.54 44.6999 31.24 40.8399 32.22L42.1999 33.72C45.8599 32.56 48.2399 30.72 50.0599 28.36C51.6399 26.32 52.6199 23.08 53.0399 20.98C53.1199 20.6 53.2199 20.26 53.3399 19.98ZM72.4199 19.64L71.4199 18.86C71.0999 18.96 70.5599 19.02 69.9199 19.02C69.1599 19.02 62.9799 19.02 62.1999 19.02C61.5799 19.02 60.4399 18.94 60.1799 18.9V20.7C60.3999 20.68 61.4799 20.6 62.1999 20.6C62.8799 20.6 69.2799 20.6 69.9999 20.6C69.4799 22.26 68.0199 24.64 66.6599 26.18C64.5999 28.46 61.6599 30.86 58.4199 32.1L59.6999 33.44C62.8599 32 65.7199 29.62 67.9599 27.12C69.6199 25.28 71.1399 22.48 71.9399 20.5C72.0399 20.24 72.2999 19.8 72.4199 19.64ZM68.2199 26.08L67.0799 27.2C69.2399 29.1 71.5799 31.66 73.0199 33.56L74.3999 32.34C73.0399 30.68 70.3799 27.88 68.2199 26.08ZM93.8599 20.5L92.5399 19.7C92.2199 19.82 91.7599 19.88 91.2199 19.88C90.5999 19.88 85.6599 19.88 84.8599 19.88L84.2199 21.32H91.6199C91.2199 23.14 89.9799 25.74 88.4399 27.56C86.5999 29.7 84.1199 31.5 80.4399 32.58L81.8999 33.9C85.6399 32.5 88.0399 30.68 89.8599 28.46C91.6399 26.28 92.8599 23.58 93.3999 21.56C93.4999 21.24 93.6999 20.78 93.8599 20.5ZM87.1599 17.48L85.3199 16.86C85.1999 17.38 84.8999 18.1 84.6999 18.46C83.8199 20.24 81.8599 23.16 78.3999 25.22L79.7999 26.24C83.0199 24.12 85.0999 21.26 86.2799 19.04C86.4799 18.68 86.8399 18 87.1599 17.48ZM105.54 19.5L105.56 21.12C107.74 21.36 111.62 21.36 113.76 21.12V19.5C111.78 19.8 107.72 19.88 105.54 19.5ZM106.32 27.66L104.88 27.52C104.66 28.48 104.56 29.2 104.56 29.86C104.56 31.74 106.06 32.86 109.4 32.86C111.48 32.86 113.16 32.7 114.4 32.44L114.36 30.76C112.76 31.14 111.2 31.3 109.42 31.3C106.68 31.3 106.04 30.4 106.04 29.48C106.04 28.94 106.14 28.38 106.32 27.66ZM101.74 17.96L99.9599 17.82C99.9399 18.26 99.8799 18.76 99.8199 19.22C99.5799 20.88 98.9199 24.3 98.9199 27.24C98.9199 29.96 99.2599 32.26 99.6599 33.68L101.08 33.58C101.06 33.36 101.04 33.08 101.02 32.88C101.02 32.64 101.06 32.26 101.12 31.98C101.3 31.02 102.04 28.92 102.54 27.5L101.7 26.84C101.36 27.66 100.9 28.86 100.56 29.76C100.44 28.78 100.38 27.94 100.38 26.98C100.38 24.72 101 21.16 101.38 19.3C101.46 18.94 101.62 18.3 101.74 17.96ZM127.88 17.14H126.18C126.24 17.4 126.26 18 126.26 18.34C126.26 19.74 126.26 21.84 126.26 23.64C126.26 25.4 126.46 29.24 126.46 30.78C126.46 32.18 125.48 32.52 124.32 32.52C122.34 32.52 121.56 31.84 121.56 30.9C121.56 29.98 122.58 29.24 124.5 29.24C128.06 29.24 131.02 31.24 132.82 32.9L133.74 31.48C132.2 30.22 128.9 27.94 124.68 27.94C121.8 27.94 120.06 29.16 120.06 30.98C120.06 32.92 121.64 33.94 124.52 33.94C127.12 33.94 128.04 32.52 128.04 31.12C128.04 29.78 127.74 26.28 127.74 23.64C127.74 21.96 127.74 19.28 127.78 18.48C127.8 17.88 127.84 17.48 127.88 17.14ZM120.24 19.3L120.26 20.78C121.52 20.94 123.98 21.12 125.36 21.12C128.04 21.12 130.9 20.86 133.16 20.6V19.14C130.56 19.56 127.88 19.74 125.34 19.74C124.02 19.74 121.52 19.54 120.24 19.3ZM120.14 23.56L120.16 25.06C121.58 25.22 123.78 25.32 125.16 25.32C128.16 25.32 130.6 25.18 133.32 24.84V23.34C130.72 23.72 128.06 23.92 125.16 23.92C123.84 23.92 121.56 23.78 120.14 23.56ZM137.88 22.56L138.62 24.34C140.22 23.7 145.3 21.5 148.6 21.5C151.3 21.5 152.84 23.16 152.84 25.26C152.84 29.34 148.16 30.94 142.94 31.08L143.66 32.74C149.82 32.38 154.58 30.08 154.58 25.28C154.58 21.94 151.94 20.02 148.64 20.02C145.72 20.02 141.78 21.46 140.1 22C139.34 22.22 138.62 22.44 137.88 22.56ZM167 31.58L167.72 33.08C172.08 32.24 175.02 30.14 175 26.1C175 23 172.54 21.06 169.76 21.06C167.66 21.06 165.12 21.9 162.72 24.16V25.94C164.66 23.92 166.96 22.5 169.52 22.5C172.18 22.5 173.4 24.54 173.4 26.08C173.42 29.52 170.38 31.08 167 31.58ZM162.48 21.94L162.32 22.46L162.24 23.48C161.46 24.8 158.76 28.48 157.52 30.04L158.52 31.4C159.78 29.66 161.64 26.96 162.56 25.54L163.16 22.8C163.5 22.24 164.04 21.38 164.38 20.86L163.8 20.18C162.86 20.48 160.38 20.78 159.32 20.84C158.82 20.88 158.44 20.88 158 20.86L158.18 22.52C159.66 22.3 161.84 22.02 162.48 21.94ZM162.28 18.62C162.28 19.36 161.8 25.7 161.76 27.46C161.74 29.66 161.72 30.66 161.72 32.6C161.72 32.92 161.68 33.5 161.66 33.78H163.38C163.36 33.4 163.3 32.9 163.28 32.56C163.2 30.78 163.2 29.56 163.2 27.74C163.2 24.22 163.82 18.5 164.1 17.2L162.2 17.14C162.3 17.64 162.28 18.16 162.28 18.62ZM181.2 18.28L181.24 19.92C181.68 19.86 182.12 19.84 182.58 19.8C183.62 19.74 187.62 19.58 188.68 19.52C187.68 20.42 185.16 22.52 184.04 23.44C182.9 24.42 180.32 26.58 178.66 27.94L179.82 29.1C182.34 26.52 184.14 25.12 187.46 25.12C190.08 25.12 191.96 26.58 191.96 28.56C191.96 31.06 189.82 32.46 186.42 32.46C184.84 32.46 183.74 31.88 183.74 30.9C183.74 30.2 184.44 29.64 185.36 29.64C186.96 29.64 187.94 30.86 188.06 32.56L189.5 32.32C189.36 30.3 188.02 28.42 185.36 28.42C183.52 28.42 182.28 29.66 182.28 31.02C182.28 32.7 183.94 33.88 186.66 33.88C190.9 33.88 193.56 31.78 193.56 28.56C193.56 25.86 191.18 23.88 187.86 23.88C186.96 23.88 186 23.98 185.08 24.28C186.64 23 189.36 20.66 190.34 19.9C190.72 19.6 191.12 19.34 191.48 19.1L190.56 17.92C190.34 18 190.06 18.04 189.46 18.1C188.4 18.2 183.66 18.34 182.6 18.34C182.2 18.34 181.64 18.32 181.2 18.28ZM204.56 26.52V27.88H215.36V26.52H204.56ZM211.14 27.3L210.04 27.72C211.14 29.9 213.1 32.3 214.8 33.58C215.04 33.2 215.52 32.7 215.86 32.42C214.14 31.38 212.18 29.24 211.14 27.3ZM206.66 21.54H213.34V23.62H206.66V21.54ZM206.66 18.28H213.34V20.32H206.66V18.28ZM205.3 17.04V24.86H214.76V17.04H205.3ZM208.86 27.2C207.84 29.34 205.84 31.52 203.9 32.56C204.22 32.84 204.68 33.36 204.9 33.7C206.88 32.48 208.9 30.06 210 27.62L208.86 27.2ZM209.3 17.68V24.26H209.24V34.6H210.7V24.26H210.62V17.68H209.3ZM198.1 22.26V23.46H203.78V22.26H198.1ZM198.18 16.92V18.12H203.7V16.92H198.18ZM198.1 24.94V26.14H203.78V24.94H198.1ZM197.2 19.54V20.78H204.3V19.54H197.2ZM198.76 27.64V28.88H202.48V32.22H198.76V33.48H203.78V27.64H198.76ZM198.08 27.64V34.4H199.36V27.64H198.08ZM219.88 20.7H223.78V22.22H219.88V20.7ZM219.88 18.14H223.78V19.64H219.88V18.14ZM218.54 17.06V23.34H225.18V17.06H218.54ZM217.34 24.82V25.98H226.36V24.82H217.34ZM226.24 17.2V18.32H235.36V17.2H226.24ZM221.34 25.18V32L222.62 32.8V25.18H221.34ZM222.02 28.14V29.28H226.02V28.14H222.02ZM230.2 17.48C230.02 18.34 229.68 19.58 229.36 20.4L230.48 20.66C230.84 19.92 231.24 18.78 231.62 17.76L230.2 17.48ZM228.38 23.54H233.16V25.04H228.38V23.54ZM228.38 26.08H233.16V27.62H228.38V26.08ZM228.38 20.98H233.16V22.46H228.38V20.98ZM227.02 19.88V28.72H234.56V19.88H227.02ZM228.68 29.08C227.92 30 226.62 30.9 225.38 31.48C225.66 31.7 226.16 32.18 226.38 32.4C227.62 31.72 229.08 30.58 229.96 29.46L228.68 29.08ZM218.74 27.08C218.64 29.54 218.32 32.24 217.1 33.7C217.42 33.92 217.86 34.36 218.06 34.66C219.48 32.96 219.88 29.96 220 27.08H218.74ZM219.68 29.04L218.74 29.38C220.4 33.52 223.62 34.18 228.72 34.18H235.22C235.3 33.78 235.54 33.2 235.76 32.88C234.58 32.92 229.62 32.92 228.72 32.92C224.22 32.92 221.1 32.48 219.68 29.04ZM231.48 29.62C232.56 30.36 233.9 31.52 234.54 32.32L235.64 31.62C234.98 30.86 233.66 29.74 232.5 29.04L231.48 29.62ZM250.02 16.96C251.04 17.32 252.26 17.94 252.86 18.46L253.68 17.46C253.04 16.96 251.8 16.4 250.8 16.08L250.02 16.96ZM239.68 18.24V19.48H255.26V18.24H239.68ZM241.1 20.84V21.9H247.24V20.84H241.1ZM241.42 23.26V26.9H242.68V23.26H241.42ZM252.04 20.44C251.08 23.44 249.2 25.94 246.78 27.5C247.08 27.76 247.64 28.26 247.86 28.54C250.3 26.8 252.32 24.1 253.44 20.78L252.04 20.44ZM247.32 16.2C247.64 22.92 250.5 28.72 253.66 28.72C254.94 28.72 255.48 28.02 255.72 25.48C255.34 25.34 254.84 25.08 254.54 24.8C254.44 26.62 254.24 27.34 253.74 27.34C251.7 27.36 248.98 22.36 248.76 16.2H247.32ZM241.42 23.26V24.32H245.64V26.38H241.42V27.46H246.92V23.26H241.42ZM242.42 29.3V32.42C242.42 33.96 242.94 34.36 245.06 34.36C245.5 34.36 248.48 34.36 248.94 34.36C250.64 34.36 251.08 33.8 251.28 31.44C250.86 31.34 250.24 31.14 249.92 30.9C249.84 32.76 249.7 33 248.82 33C248.16 33 245.66 33 245.16 33C244.1 33 243.9 32.9 243.9 32.4V29.3H242.42ZM243.98 28.64C245.22 29.28 246.68 30.3 247.36 31.08L248.38 30.12C247.68 29.34 246.2 28.38 244.94 27.8L243.98 28.64ZM250.88 29.9C252.32 31.06 253.76 32.76 254.32 33.98L255.66 33.24C255.04 32 253.54 30.34 252.1 29.22L250.88 29.9ZM239.88 29.42C239.44 30.92 238.56 32.44 237.22 33.36L238.46 34.2C239.88 33.18 240.7 31.5 241.2 29.88L239.88 29.42ZM238.98 18.24V21.24C238.98 23.28 238.76 26.1 237.08 28.18C237.38 28.34 237.98 28.84 238.18 29.12C240.02 26.86 240.38 23.58 240.38 21.26V18.24H238.98Z" fill="black"/>
</svg>
