<svg width="384" height="240" viewBox="0 0 384 240" fill="none" xmlns="http://www.w3.org/2000/svg">
<rect width="384" height="240" rx="18" fill="#F2F1F6"/>
<path d="M16.98 17.24V18.64H23.86V17.24H16.98ZM17.22 22.9V24.3H23.66V22.9H17.22ZM16.6 30.02L17 31.48C18.96 30.88 21.64 30.1 24.16 29.34L23.96 28C21.26 28.78 18.46 29.56 16.6 30.02ZM26.18 21.56H32.74V23.58H26.18V21.56ZM26.18 24.8H32.74V26.82H26.18V24.8ZM26.18 18.36H32.74V20.36H26.18V18.36ZM24.78 17.08V28.12H34.2V17.08H24.78ZM30.02 27.5V32.6C30.02 34.04 30.36 34.48 31.82 34.48C32.1 34.48 33.46 34.48 33.76 34.48C34.98 34.48 35.36 33.84 35.48 31.36C35.1 31.28 34.5 31.04 34.2 30.8C34.14 32.86 34.06 33.16 33.6 33.16C33.3 33.16 32.26 33.16 32.04 33.16C31.56 33.16 31.46 33.08 31.46 32.58V27.5H30.02ZM26.62 27.8C26.3 30.58 25.48 32.5 21.8 33.5C22.1 33.78 22.5 34.36 22.66 34.74C26.7 33.48 27.72 31.18 28.08 27.8H26.62ZM19.76 17.8V29.82L21.2 29.58V17.8H19.76ZM43.1 22.1V23.6H55.02V22.1H43.1ZM49.3 22.76L48.04 23.04C49.04 28.26 50.92 32.44 54.34 34.58C54.58 34.18 55.08 33.62 55.44 33.32C52.12 31.52 50.2 27.5 49.3 22.76ZM50.8 17.54C51.7 18.64 52.72 20.16 53.18 21.1L54.4 20.34C53.9 19.42 52.84 17.96 51.94 16.88L50.8 17.54ZM47.78 16.24V20.9C47.78 24.72 47.28 29.74 42.54 33.62C42.94 33.88 43.46 34.26 43.74 34.56C48.64 30.54 49.26 25.22 49.26 20.9V16.24H47.78ZM40.94 16.18V34.56H42.42V16.18H40.94ZM36.96 19.54C37.92 20.7 39.02 22.28 39.5 23.28L40.74 22.46C40.22 21.48 39.08 19.94 38.12 18.82L36.96 19.54ZM36.64 29.14L37.5 30.4C38.8 29.26 40.38 27.76 41.8 26.34L41.18 25.14C39.54 26.66 37.78 28.22 36.64 29.14ZM67.26 19.36L65.6 19.32C65.4 21.4 64.98 23.66 64.4 25.56C63.38 28.94 62.3 30.3 61.36 30.3C60.46 30.3 59.32 29.18 59.32 26.66C59.32 23.72 62.06 20.1 66.46 20.1C70.3 20.1 72.52 22.74 72.52 25.94C72.52 29.4 70 31.32 67.44 31.9C66.96 32 66.36 32.08 65.72 32.14L66.64 33.62C71.4 33 74.16 30.2 74.16 26.02C74.16 21.96 71.18 18.66 66.5 18.66C61.6 18.66 57.74 22.44 57.74 26.78C57.74 30.1 59.52 32.14 61.32 32.14C63.16 32.14 64.76 30.02 65.98 25.92C66.6 23.78 67 21.44 67.26 19.36ZM84.12 26.52V27.88H94.92V26.52H84.12ZM90.7 27.3L89.6 27.72C90.7 29.9 92.66 32.3 94.36 33.58C94.6 33.2 95.08 32.7 95.42 32.42C93.7 31.38 91.74 29.24 90.7 27.3ZM86.22 21.54H92.9V23.62H86.22V21.54ZM86.22 18.28H92.9V20.32H86.22V18.28ZM84.86 17.04V24.86H94.32V17.04H84.86ZM88.42 27.2C87.4 29.34 85.4 31.52 83.46 32.56C83.78 32.84 84.24 33.36 84.46 33.7C86.44 32.48 88.46 30.06 89.56 27.62L88.42 27.2ZM88.86 17.68V24.26H88.8V34.6H90.26V24.26H90.18V17.68H88.86ZM77.66 22.26V23.46H83.34V22.26H77.66ZM77.74 16.92V18.12H83.26V16.92H77.74ZM77.66 24.94V26.14H83.34V24.94H77.66ZM76.76 19.54V20.78H83.86V19.54H76.76ZM78.32 27.64V28.88H82.04V32.22H78.32V33.48H83.34V27.64H78.32ZM77.64 27.64V34.4H78.92V27.64H77.64ZM99.44 20.7H103.34V22.22H99.44V20.7ZM99.44 18.14H103.34V19.64H99.44V18.14ZM98.1 17.06V23.34H104.74V17.06H98.1ZM96.9 24.82V25.98H105.92V24.82H96.9ZM105.8 17.2V18.32H114.92V17.2H105.8ZM100.9 25.18V32L102.18 32.8V25.18H100.9ZM101.58 28.14V29.28H105.58V28.14H101.58ZM109.76 17.48C109.58 18.34 109.24 19.58 108.92 20.4L110.04 20.66C110.4 19.92 110.8 18.78 111.18 17.76L109.76 17.48ZM107.94 23.54H112.72V25.04H107.94V23.54ZM107.94 26.08H112.72V27.62H107.94V26.08ZM107.94 20.98H112.72V22.46H107.94V20.98ZM106.58 19.88V28.72H114.12V19.88H106.58ZM108.24 29.08C107.48 30 106.18 30.9 104.94 31.48C105.22 31.7 105.72 32.18 105.94 32.4C107.18 31.72 108.64 30.58 109.52 29.46L108.24 29.08ZM98.3 27.08C98.2 29.54 97.88 32.24 96.66 33.7C96.98 33.92 97.42 34.36 97.62 34.66C99.04 32.96 99.44 29.96 99.56 27.08H98.3ZM99.24 29.04L98.3 29.38C99.96 33.52 103.18 34.18 108.28 34.18H114.78C114.86 33.78 115.1 33.2 115.32 32.88C114.14 32.92 109.18 32.92 108.28 32.92C103.78 32.92 100.66 32.48 99.24 29.04ZM111.04 29.62C112.12 30.36 113.46 31.52 114.1 32.32L115.2 31.62C114.54 30.86 113.22 29.74 112.06 29.04L111.04 29.62ZM125.2 17.2L123.56 17.06C123.5 18 123.22 19.2 122.78 20.3C122.1 22 120.76 24.32 117.88 27.08L119.26 28.1C119.92 27.28 120.48 26.56 121.06 26C121.98 25.18 123.24 24.54 124.52 24.54C125.56 24.54 126.36 25.08 126.38 26.24C126.4 27.28 126.38 29.34 126.3 30.4H127.84C127.82 29.16 127.78 26.86 127.78 25.82C127.78 24.2 126.58 23.28 125.04 23.28C124.16 23.28 123.02 23.56 122.24 24.02C123.04 22.98 123.78 21.64 124.28 20.42C124.8 19.08 125.02 17.98 125.2 17.2ZM118.34 19.36V20.86C119.46 20.94 120.78 20.98 121.64 20.98C124.18 20.98 127.9 20.8 130.7 20.38V18.9C127.88 19.4 124.42 19.56 121.72 19.56C120.8 19.56 119.42 19.5 118.34 19.36ZM133.62 24.18L132.98 22.7C132.42 22.98 131.92 23.2 131.32 23.48C130 24.1 128.38 24.72 126.48 25.7C124.1 26.92 121.62 28.42 121.62 30.86C121.62 33.28 123.92 33.9 126.76 33.9C128.5 33.9 130.72 33.74 132.24 33.56L132.3 31.94C130.54 32.26 128.38 32.44 126.82 32.44C124.76 32.44 123.22 32.2 123.22 30.64C123.22 29.26 124.62 28.18 126.6 27.14C128.54 26.14 130.44 25.38 131.86 24.82C132.4 24.62 133.12 24.34 133.62 24.18ZM137.84 18.14V19.42H154.22V18.14H137.84ZM138.48 32.8V34.06H153.62V32.8H138.48ZM141.78 20.74V21.88H150.2V20.74H141.78ZM141.78 23.26V24.4H150.2V23.26H141.78ZM136.9 25.84V27.1H155.08V25.84H136.9ZM141.1 29.42V30.66H150.92V29.42H141.1ZM140.88 16.22V26.54H142.38V16.22H140.88ZM149.68 16.22V26.54H151.18V16.22H149.68ZM145.18 27.74V33.5H146.72V27.74H145.18ZM141.94 26.18C140.86 27.94 138.72 29.66 136.7 30.46C137.04 30.74 137.46 31.26 137.68 31.6C139.78 30.62 141.98 28.72 143.2 26.66L141.94 26.18ZM150.12 26.18L148.94 26.64C150.1 28.6 152.22 30.46 154.34 31.36C154.56 31 155 30.48 155.34 30.2C153.26 29.46 151.18 27.88 150.12 26.18ZM165.1 19.5L165.12 21.12C167.3 21.36 171.18 21.36 173.32 21.12V19.5C171.34 19.8 167.28 19.88 165.1 19.5ZM165.88 27.66L164.44 27.52C164.22 28.48 164.12 29.2 164.12 29.86C164.12 31.74 165.62 32.86 168.96 32.86C171.04 32.86 172.72 32.7 173.96 32.44L173.92 30.76C172.32 31.14 170.76 31.3 168.98 31.3C166.24 31.3 165.6 30.4 165.6 29.48C165.6 28.94 165.7 28.38 165.88 27.66ZM161.3 17.96L159.52 17.82C159.5 18.26 159.44 18.76 159.38 19.22C159.14 20.88 158.48 24.3 158.48 27.24C158.48 29.96 158.82 32.26 159.22 33.68L160.64 33.58C160.62 33.36 160.6 33.08 160.58 32.88C160.58 32.64 160.62 32.26 160.68 31.98C160.86 31.02 161.6 28.92 162.1 27.5L161.26 26.84C160.92 27.66 160.46 28.86 160.12 29.76C160 28.78 159.94 27.94 159.94 26.98C159.94 24.72 160.56 21.16 160.94 19.3C161.02 18.94 161.18 18.3 161.3 17.96ZM177.28 22.14V23.44H194.5V22.14H177.28ZM178.82 18.58V19.84H190.18V18.58H178.82ZM183.92 16.2V22.78H185.4V16.2H183.92ZM191.42 24.72C189.32 25.3 185.52 25.8 182.36 26.08C182.5 26.34 182.68 26.82 182.72 27.12C185.98 26.88 189.88 26.42 192.4 25.74L191.42 24.72ZM192.48 17.14C188.72 21.74 182.7 25.46 176.46 27.62C176.76 27.9 177.22 28.5 177.42 28.8C183.58 26.44 189.66 22.72 193.7 17.82L192.48 17.14ZM182.14 24.76C181.76 26.62 181.14 29.12 180.64 30.64L182.14 30.84C182.6 29.34 183.2 26.88 183.62 24.94L182.14 24.76ZM190.86 28.6L190.84 28.8C190.48 31.54 190.06 32.76 189.56 33.16C189.36 33.32 189.12 33.34 188.7 33.34C188.22 33.34 186.92 33.32 185.66 33.2C185.92 33.6 186.1 34.18 186.14 34.58C187.38 34.66 188.56 34.68 189.18 34.64C189.88 34.62 190.3 34.52 190.72 34.14C191.38 33.56 191.82 32.24 192.3 29.28C192.34 29.04 192.38 28.6 192.38 28.6H190.86ZM181.92 28.6L181.6 29.86H191.26V28.6H181.92ZM202.24 17.24L201.98 18.7C204.42 19.14 207.92 19.58 209.92 19.76L210.14 18.28C208.22 18.18 204.4 17.72 202.24 17.24ZM210.54 22.96L209.58 21.86C209.38 21.94 208.96 22.04 208.62 22.08C207.1 22.28 202.46 22.58 201.3 22.62C200.66 22.62 200.08 22.62 199.62 22.58L199.76 24.32C200.18 24.26 200.7 24.18 201.36 24.14C202.58 24.04 205.94 23.74 207.52 23.66C205.56 25.62 200.12 31.08 199.3 31.88C198.92 32.26 198.56 32.58 198.3 32.78L199.82 33.84C200.96 32.4 203.14 30.1 203.88 29.4C204.34 28.94 204.82 28.66 205.36 28.66C205.92 28.66 206.36 29.04 206.58 29.74C206.78 30.3 207.06 31.48 207.26 32.08C207.7 33.4 208.68 33.78 210.3 33.78C211.36 33.78 213.2 33.64 214.04 33.48L214.16 31.8C213.2 32.04 211.68 32.22 210.38 32.22C209.34 32.22 208.88 31.88 208.64 31.12C208.44 30.48 208.16 29.46 207.96 28.88C207.68 28.06 207.22 27.54 206.46 27.46C206.24 27.4 205.88 27.4 205.66 27.42C206.42 26.64 208.66 24.54 209.42 23.84C209.66 23.64 210.16 23.22 210.54 22.96ZM222.68 17.32L222.28 18.86C223.82 19.26 228.14 20.14 230.06 20.4L230.44 18.88C228.66 18.7 224.4 17.88 222.68 17.32ZM222.24 20.98L220.56 20.76C220.44 22.84 219.94 27.04 219.54 28.86L221.04 29.22C221.16 28.9 221.34 28.58 221.64 28.24C223.04 26.54 225.2 25.56 227.82 25.56C229.86 25.56 231.36 26.7 231.36 28.28C231.36 31.02 228.28 32.84 221.96 32.08L222.44 33.7C229.86 34.32 233.04 31.9 233.04 28.34C233.04 25.98 231 24.14 227.94 24.14C225.54 24.14 223.34 24.92 221.42 26.6C221.62 25.3 221.98 22.34 222.24 20.98ZM255.48 31.48L255.22 29.78C254.2 30.84 253.14 31.42 252.2 31.42C251.48 31.42 251.14 30.88 251.14 30.2C251.14 28.18 251.9 24.74 251.9 22.74C251.9 21.12 250.98 20.06 249.1 20.06C246.64 20.06 243.32 22.94 242.08 24.3L242.06 26.28C243.94 24 246.84 21.52 248.72 21.52C249.74 21.52 250.32 22.02 250.32 23.18C250.32 25.12 249.58 28.4 249.58 30.64C249.58 32.28 250.46 33.16 251.8 33.16C253.16 33.16 254.4 32.56 255.48 31.48ZM242.04 21.92L241.88 22.46L241.8 23.5C241.02 24.82 238.32 28.48 237.08 30.04L238.08 31.4C239.34 29.66 241.2 26.96 242.12 25.54L242.72 22.8C243.06 22.24 243.6 21.38 243.94 20.86L243.36 20.18C242.44 20.48 239.94 20.78 238.88 20.84C238.38 20.88 238 20.88 237.56 20.86L237.74 22.52C239.22 22.28 241.38 22.02 242.04 21.92ZM241.84 18.62C241.84 19.36 241.36 25.7 241.32 27.46C241.3 29.66 241.28 30.66 241.28 32.6C241.28 32.92 241.26 33.4 241.22 33.78H242.94C242.92 33.4 242.86 32.9 242.84 32.56C242.76 30.78 242.76 29.56 242.76 27.74C242.76 24.22 243.36 18.5 243.64 17.2L241.76 17.14C241.86 17.64 241.84 18.16 241.84 18.62ZM260.76 18.28L260.8 19.92C261.24 19.86 261.68 19.84 262.14 19.8C263.18 19.74 267.18 19.58 268.24 19.52C267.24 20.42 264.72 22.52 263.6 23.44C262.46 24.42 259.88 26.58 258.22 27.94L259.38 29.1C261.9 26.52 263.7 25.12 267.02 25.12C269.64 25.12 271.52 26.58 271.52 28.56C271.52 31.06 269.38 32.46 265.98 32.46C264.4 32.46 263.3 31.88 263.3 30.9C263.3 30.2 264 29.64 264.92 29.64C266.52 29.64 267.5 30.86 267.62 32.56L269.06 32.32C268.92 30.3 267.58 28.42 264.92 28.42C263.08 28.42 261.84 29.66 261.84 31.02C261.84 32.7 263.5 33.88 266.22 33.88C270.46 33.88 273.12 31.78 273.12 28.56C273.12 25.86 270.74 23.88 267.42 23.88C266.52 23.88 265.56 23.98 264.64 24.28C266.2 23 268.92 20.66 269.9 19.9C270.28 19.6 270.68 19.34 271.04 19.1L270.12 17.92C269.9 18 269.62 18.04 269.02 18.1C267.96 18.2 263.22 18.34 262.16 18.34C261.76 18.34 261.2 18.32 260.76 18.28ZM279.56 19.98V21.78C280.16 21.76 280.84 21.74 281.52 21.74C282.5 21.74 289.1 21.74 290.1 21.74C290.76 21.74 291.52 21.76 292.06 21.78V19.98C291.52 20.04 290.82 20.08 290.1 20.08C289.08 20.08 282.78 20.08 281.52 20.08C280.86 20.08 280.2 20.04 279.56 19.98ZM277.84 29.9V31.82C278.5 31.76 279.2 31.72 279.94 31.72C281.08 31.72 290.76 31.72 291.92 31.72C292.44 31.72 293.14 31.76 293.74 31.82V29.9C293.16 29.96 292.5 30 291.92 30C290.76 30 281.08 30 279.94 30C279.2 30 278.52 29.94 277.84 29.9ZM298.02 24.34V26.3C298.66 26.26 299.72 26.22 300.82 26.22C302.3 26.22 310.28 26.22 311.8 26.22C312.68 26.22 313.52 26.28 313.94 26.3V24.34C313.48 24.38 312.78 24.46 311.78 24.46C310.3 24.46 302.28 24.46 300.82 24.46C299.68 24.46 298.64 24.4 298.02 24.34ZM330.124 16.74L329.064 17.18C329.604 17.96 330.284 19.14 330.684 19.96L331.764 19.48C331.384 18.68 330.644 17.46 330.124 16.74ZM332.404 16.04L331.344 16.48C331.904 17.24 332.564 18.36 333.004 19.24L334.084 18.76C333.704 18.02 332.924 16.76 332.404 16.04ZM330.584 19.98L329.584 19.2C329.264 19.3 328.724 19.38 328.084 19.38C327.324 19.38 321.144 19.38 320.364 19.38C319.744 19.38 318.604 19.28 318.344 19.24V21.06C318.564 21.04 319.644 20.96 320.364 20.96C321.044 20.96 327.444 20.96 328.164 20.96C327.644 22.62 326.184 24.98 324.824 26.52C322.764 28.82 319.824 31.2 316.584 32.46L317.864 33.8C321.024 32.36 323.884 29.96 326.124 27.48C327.784 25.62 329.304 22.82 330.104 20.86C330.204 20.58 330.464 20.14 330.584 19.98ZM326.384 26.42L325.244 27.56C327.404 29.44 329.744 32 331.184 33.9L332.564 32.7C331.204 31.02 328.544 28.22 326.384 26.42Z" fill="black"/>
<path d="M21.8677 74.168C21.1597 74.168 20.5837 74.744 20.5837 75.44C20.5837 76.148 21.1597 76.724 21.8677 76.724C22.5637 76.724 23.1397 76.148 23.1397 75.44C23.1397 74.744 22.5637 74.168 21.8677 74.168ZM36.5077 74.492V71.648C36.5077 71.18 36.5557 70.796 36.5677 70.676H35.4757C35.4997 70.784 35.5357 71.18 35.5357 71.648V74.564C35.5357 77.936 34.4557 78.968 32.2717 79.796L33.0757 80.564C35.8117 79.328 36.5077 77.684 36.5077 74.492ZM32.1757 70.748H31.1077C31.1437 71.024 31.1677 71.36 31.1677 71.612V76.016C31.1677 76.472 31.1197 76.988 31.1077 77.096H32.1757C32.1637 76.988 32.1277 76.46 32.1277 76.016V71.612C32.1277 71.204 32.1637 70.856 32.1757 70.748ZM28.6717 73.076V74.108C28.8037 74.108 29.3437 74.072 29.8717 74.072H37.8277C38.3557 74.072 38.7877 74.096 38.9197 74.108V73.088C38.7517 73.112 38.3557 73.16 37.8157 73.16H29.8717C29.3677 73.16 28.7797 73.088 28.6717 73.076ZM41.0797 74.804V75.98C41.4637 75.956 42.0997 75.932 42.7597 75.932C43.6477 75.932 48.4357 75.932 49.3477 75.932C49.8757 75.932 50.3797 75.968 50.6317 75.98V74.804C50.3557 74.828 49.9357 74.876 49.3357 74.876C48.4477 74.876 43.6357 74.876 42.7597 74.876C42.0757 74.876 41.4517 74.84 41.0797 74.804ZM60.6037 70.604L59.9677 70.88C60.2917 71.336 60.6877 72.056 60.9277 72.536L61.5757 72.248C61.3357 71.756 60.9037 71.036 60.6037 70.604ZM61.9117 70.124L61.2877 70.4C61.6237 70.844 62.0197 71.528 62.2717 72.044L62.9197 71.756C62.6917 71.312 62.2357 70.568 61.9117 70.124ZM55.2157 71H54.0997C54.1477 71.288 54.1717 71.684 54.1717 71.972C54.1717 72.62 54.1717 77.42 54.1717 78.572C54.1717 79.556 54.6877 79.976 55.5997 80.144C56.1037 80.228 56.8117 80.252 57.5317 80.252C58.8397 80.252 60.6397 80.168 61.6837 80.012V78.908C60.6757 79.172 58.8397 79.292 57.5677 79.292C56.9797 79.292 56.3677 79.268 55.9837 79.196C55.4077 79.088 55.1437 78.932 55.1437 78.308C55.1437 77.444 55.1437 72.62 55.1437 71.972C55.1437 71.636 55.1797 71.288 55.2157 71ZM54.6997 74.792L54.7117 75.788C56.1877 75.416 58.5637 74.72 60.0517 74.12C60.4117 73.976 60.8437 73.784 61.1917 73.64L60.7717 72.68C60.4237 72.896 60.0757 73.064 59.7157 73.232C58.3237 73.82 56.1517 74.48 54.6997 74.792ZM73.4557 71.984L72.8557 71.516C72.6637 71.576 72.3397 71.612 71.9557 71.612C71.4997 71.612 67.7917 71.612 67.3237 71.612C66.9517 71.612 66.2677 71.564 66.1117 71.54V72.62C66.2437 72.608 66.8917 72.56 67.3237 72.56C67.7317 72.56 71.5717 72.56 72.0037 72.56C71.6917 73.556 70.8157 74.984 69.9997 75.908C68.7637 77.276 66.9997 78.716 65.0557 79.46L65.8237 80.264C67.7197 79.4 69.4357 77.972 70.7797 76.472C71.7757 75.368 72.6877 73.688 73.1677 72.5C73.2277 72.344 73.3837 72.08 73.4557 71.984ZM70.9357 75.848L70.2517 76.52C71.5477 77.66 72.9517 79.196 73.8157 80.336L74.6437 79.604C73.8277 78.608 72.2317 76.928 70.9357 75.848ZM82.6237 71.816L81.6277 71.792C81.5077 73.04 81.2557 74.396 80.9077 75.536C80.2957 77.564 79.6477 78.38 79.0837 78.38C78.5437 78.38 77.8597 77.708 77.8597 76.196C77.8597 74.432 79.5037 72.26 82.1437 72.26C84.4477 72.26 85.7797 73.844 85.7797 75.764C85.7797 77.84 84.2677 78.992 82.7317 79.34C82.4437 79.4 82.0837 79.448 81.6997 79.484L82.2517 80.372C85.1077 80 86.7637 78.32 86.7637 75.812C86.7637 73.376 84.9757 71.396 82.1677 71.396C79.2277 71.396 76.9117 73.664 76.9117 76.268C76.9117 78.26 77.9797 79.484 79.0597 79.484C80.1637 79.484 81.1237 78.212 81.8557 75.752C82.2277 74.468 82.4677 73.064 82.6237 71.816ZM92.8357 70.4V80.948H93.6757V70.4H92.8357ZM96.1357 70.172V79.328H96.9517V70.172H96.1357ZM98.2237 70.94C98.0197 71.708 97.5757 72.848 97.2397 73.532L97.8637 73.772C98.2237 73.112 98.6677 72.068 99.0397 71.204L98.2237 70.94ZM94.1197 71.276C94.4797 72.02 94.8157 73.004 94.9357 73.652L95.6557 73.4C95.5357 72.752 95.1757 71.78 94.7797 71.048L94.1197 71.276ZM93.9997 73.976V74.792H99.1837V73.976H93.9997ZM93.3277 79.556V80.372H99.4117V79.556H93.3277ZM95.9677 74.408C95.5597 75.68 94.6357 77.168 93.7957 77.936C93.9397 78.152 94.1437 78.524 94.2277 78.764C95.1637 77.876 96.0877 76.124 96.5917 74.672L95.9677 74.408ZM96.8557 75.092L96.4117 75.488C96.9157 76.016 98.2117 77.528 98.6317 78.14L99.1717 77.444C98.8237 77.048 97.2877 75.464 96.8557 75.092ZM90.2197 69.932C89.9197 70.724 89.3677 71.9 88.9477 72.596L89.5477 72.86C89.9917 72.188 90.5557 71.108 90.9877 70.22L90.2197 69.932ZM91.4917 71.3C90.8677 72.56 89.7877 74.348 88.9357 75.416L89.4757 75.704C90.3397 74.672 91.4437 72.968 92.2357 71.636L91.4917 71.3ZM88.2997 72.416C88.9357 73.016 89.6557 73.868 89.9557 74.444L90.4597 73.784C90.1477 73.244 89.4157 72.428 88.7797 71.84L88.2997 72.416ZM91.0357 74.012C91.4797 74.828 91.8877 75.908 92.0197 76.58L92.6917 76.292C92.5717 75.62 92.1277 74.564 91.6717 73.772L91.0357 74.012ZM88.2037 75.236L88.2997 76.04C89.3437 75.968 90.7117 75.884 92.0677 75.8V75.032C90.6277 75.116 89.1997 75.188 88.2037 75.236ZM91.2637 76.928C91.5397 77.624 91.7677 78.536 91.8277 79.136L92.4997 78.932C92.4397 78.344 92.1877 77.432 91.8997 76.748L91.2637 76.928ZM88.9237 76.784C88.7917 77.828 88.5637 78.908 88.1797 79.64C88.3597 79.712 88.7077 79.868 88.8517 79.976C89.2237 79.208 89.5117 78.044 89.6677 76.916L88.9237 76.784ZM90.1357 75.584V80.96H90.9157V75.584H90.1357ZM107.56 69.92V73.28H108.448V69.92H107.56ZM104.812 71.048V71.804H111.256V71.048H104.812ZM105.232 72.896V73.664H110.836V72.896H105.232ZM104.86 74.492V76.652H105.64V75.224H110.476V76.652H111.28V74.492H104.86ZM108.604 76.1V79.772C108.604 80.636 108.796 80.888 109.6 80.888C109.756 80.888 110.404 80.888 110.56 80.888C111.244 80.888 111.46 80.492 111.532 78.98C111.304 78.908 110.956 78.788 110.788 78.632C110.764 79.916 110.704 80.108 110.476 80.108C110.332 80.108 109.816 80.108 109.72 80.108C109.468 80.108 109.432 80.06 109.432 79.772V76.1H108.604ZM106.396 76.112V76.844C106.396 77.804 106.168 79.328 104.02 80.372C104.236 80.528 104.524 80.792 104.656 80.984C106.96 79.82 107.224 78.068 107.224 76.868V76.112H106.396ZM102.22 69.932C101.908 70.724 101.344 71.9 100.912 72.596L101.524 72.86C101.992 72.2 102.556 71.12 103.012 70.232L102.22 69.932ZM103.564 71.3C102.904 72.56 101.776 74.348 100.876 75.416L101.428 75.728C102.328 74.684 103.492 72.98 104.32 71.648L103.564 71.3ZM100.3 72.428C100.936 73.04 101.656 73.892 101.956 74.468L102.472 73.796C102.16 73.244 101.428 72.44 100.78 71.852L100.3 72.428ZM103.096 74.048C103.576 74.84 104.044 75.908 104.2 76.58L104.908 76.256C104.74 75.596 104.248 74.564 103.744 73.772L103.096 74.048ZM100.204 75.236L100.3 76.04C101.392 75.968 102.832 75.884 104.26 75.788V75.032C102.748 75.116 101.248 75.188 100.204 75.236ZM103.408 76.952C103.696 77.648 103.948 78.56 104.02 79.148L104.716 78.932C104.632 78.344 104.38 77.444 104.068 76.748L103.408 76.952ZM100.924 76.784C100.792 77.828 100.564 78.908 100.18 79.64C100.36 79.724 100.72 79.88 100.864 79.976C101.248 79.208 101.524 78.056 101.68 76.916L100.924 76.784ZM102.196 75.584V80.96H102.988V75.584H102.196ZM115.447 80.1364C114.856 80.1364 114.338 79.9957 113.892 79.7145C113.449 79.4332 113.102 79.0398 112.852 78.5341C112.605 78.0284 112.481 77.4375 112.481 76.7614C112.481 76.0795 112.605 75.4844 112.852 74.9759C113.102 74.4673 113.449 74.0724 113.892 73.7912C114.338 73.5099 114.856 73.3693 115.447 73.3693C116.038 73.3693 116.555 73.5099 116.998 73.7912C117.444 74.0724 117.791 74.4673 118.038 74.9759C118.288 75.4844 118.413 76.0795 118.413 76.7614C118.413 77.4375 118.288 78.0284 118.038 78.5341C117.791 79.0398 117.444 79.4332 116.998 79.7145C116.555 79.9957 116.038 80.1364 115.447 80.1364ZM115.447 79.233C115.896 79.233 116.265 79.1179 116.555 78.8878C116.845 78.6577 117.059 78.3551 117.199 77.9801C117.338 77.6051 117.407 77.1989 117.407 76.7614C117.407 76.3239 117.338 75.9162 117.199 75.5384C117.059 75.1605 116.845 74.8551 116.555 74.6222C116.265 74.3892 115.896 74.2727 115.447 74.2727C114.998 74.2727 114.629 74.3892 114.339 74.6222C114.049 74.8551 113.835 75.1605 113.696 75.5384C113.557 75.9162 113.487 76.3239 113.487 76.7614C113.487 77.1989 113.557 77.6051 113.696 77.9801C113.835 78.3551 114.049 78.6577 114.339 78.8878C114.629 79.1179 114.998 79.233 115.447 79.233ZM119.948 80V73.4545H120.92V74.4432H120.988C121.107 74.1193 121.323 73.8565 121.636 73.6548C121.948 73.4531 122.301 73.3523 122.693 73.3523C122.766 73.3523 122.859 73.3537 122.97 73.3565C123.08 73.3594 123.164 73.3636 123.221 73.3693V74.392C123.187 74.3835 123.109 74.3707 122.987 74.3537C122.867 74.3338 122.741 74.3239 122.607 74.3239C122.289 74.3239 122.005 74.3906 121.755 74.5241C121.508 74.6548 121.312 74.8366 121.167 75.0696C121.025 75.2997 120.954 75.5625 120.954 75.858V80H119.948ZM128.185 71.516C128.329 72.14 129.613 78.668 129.733 79.424C129.817 79.772 129.853 80.144 129.913 80.552L131.017 80.348C130.897 80 130.801 79.592 130.717 79.256C130.549 78.464 129.229 71.876 129.157 71.348C129.109 71.084 129.061 70.736 129.037 70.52L127.969 70.7C128.053 70.952 128.125 71.216 128.185 71.516ZM124.801 73.256L125.017 74.324C125.365 74.24 125.653 74.18 125.977 74.12C127.033 73.94 131.125 73.292 132.361 73.1C132.685 73.052 133.045 72.992 133.225 72.98L133.033 71.972C132.829 72.032 132.517 72.104 132.169 72.164C131.029 72.392 126.889 73.052 125.809 73.172C125.425 73.208 125.101 73.232 124.801 73.256ZM124.765 76.712L124.981 77.768C125.245 77.696 125.581 77.624 126.049 77.54C127.261 77.324 131.593 76.616 133.189 76.376C133.633 76.304 134.017 76.232 134.269 76.208L134.065 75.2C133.813 75.272 133.465 75.356 133.009 75.44C131.569 75.704 127.105 76.436 125.821 76.604C125.509 76.652 125.053 76.7 124.765 76.712ZM140.113 72.656L139.081 72.908C139.189 73.1 139.285 73.34 139.369 73.628C139.645 74.516 140.929 79.352 141.181 80.216C141.265 80.504 141.325 80.816 141.349 81.092L142.381 80.816C142.297 80.6 142.189 80.228 142.117 80C141.865 79.184 140.557 74.432 140.281 73.436C140.209 73.124 140.137 72.872 140.113 72.656ZM145.873 74.312L145.261 73.88C145.141 73.94 144.961 74 144.805 74.036C144.121 74.192 138.889 75.176 138.289 75.272C137.929 75.344 137.629 75.38 137.293 75.416L137.533 76.328C138.385 76.148 144.001 75.02 144.529 74.924C144.121 75.632 143.209 76.748 142.465 77.384L143.305 77.816C144.133 77.012 145.369 75.32 145.873 74.312ZM150.217 71.216L149.521 71.948C150.421 72.536 151.909 73.832 152.521 74.456L153.265 73.688C152.605 73.028 151.057 71.78 150.217 71.216ZM149.185 79.256L149.809 80.24C151.813 79.868 153.325 79.124 154.537 78.368C156.349 77.228 157.741 75.596 158.557 74.108L157.981 73.076C157.285 74.564 155.833 76.34 153.973 77.504C152.833 78.212 151.273 78.944 149.185 79.256ZM163.153 78.464C163.153 79.64 163.573 80.228 165.805 80.228C167.305 80.228 168.505 80.132 169.573 79.976L169.609 78.944C168.421 79.184 167.257 79.304 165.865 79.304C164.437 79.304 164.125 79.04 164.125 78.212C164.125 77.024 164.125 73.1 164.125 71.84C164.125 71.492 164.161 71.084 164.209 70.736H163.081C163.141 71.084 163.153 71.48 163.153 71.84C163.153 73.112 163.153 77.36 163.153 78.464ZM170.125 73.1L169.417 72.548C169.273 72.632 169.033 72.704 168.781 72.764C167.869 72.98 161.737 74.216 160.201 74.396L160.393 75.404C161.833 75.092 168.301 73.796 168.673 73.724C168.313 74.432 167.437 75.752 166.537 76.58L167.365 77.072C168.337 76.088 169.273 74.576 169.825 73.58C169.909 73.436 170.029 73.232 170.125 73.1ZM177.769 79.748L178.405 80.276C178.501 80.216 178.621 80.108 178.825 80.012C180.217 79.316 181.873 78.092 182.917 76.688L182.341 75.86C181.429 77.216 179.953 78.308 178.837 78.812C178.837 78.452 178.837 72.644 178.837 71.9C178.837 71.444 178.885 71.096 178.897 71H177.793C177.793 71.096 177.853 71.432 177.853 71.888C177.853 72.644 177.853 78.524 177.853 79.076C177.853 79.316 177.817 79.568 177.769 79.748ZM172.273 79.7L173.185 80.3C174.193 79.46 174.961 78.296 175.321 77.012C175.645 75.812 175.681 73.232 175.681 71.9C175.681 71.552 175.729 71.18 175.741 71.048H174.637C174.697 71.3 174.721 71.564 174.721 71.912C174.721 73.256 174.721 75.644 174.361 76.748C174.001 77.912 173.293 78.98 172.273 79.7ZM190.249 71.816L189.253 71.792C189.133 73.04 188.881 74.396 188.533 75.536C187.921 77.564 187.273 78.38 186.709 78.38C186.169 78.38 185.485 77.708 185.485 76.196C185.485 74.432 187.129 72.26 189.769 72.26C192.073 72.26 193.405 73.844 193.405 75.764C193.405 77.84 191.893 78.992 190.357 79.34C190.069 79.4 189.709 79.448 189.325 79.484L189.877 80.372C192.733 80 194.389 78.32 194.389 75.812C194.389 73.376 192.601 71.396 189.793 71.396C186.853 71.396 184.537 73.664 184.537 76.268C184.537 78.26 185.605 79.484 186.685 79.484C187.789 79.484 188.749 78.212 189.481 75.752C189.853 74.468 190.093 73.064 190.249 71.816ZM205.549 70.148V79.772C205.549 80 205.453 80.072 205.225 80.072C204.997 80.084 204.253 80.096 203.389 80.06C203.533 80.324 203.677 80.732 203.725 80.972C204.829 80.984 205.501 80.96 205.897 80.804C206.281 80.66 206.437 80.384 206.437 79.772V70.148H205.549ZM196.297 73.796V74.636H201.853V73.796H196.297ZM195.961 76.364V77.216H202.153V76.364H195.961ZM196.309 70.832C196.681 71.6 197.053 72.62 197.185 73.28L197.977 73.016C197.821 72.368 197.449 71.372 197.053 70.604L196.309 70.832ZM198.625 69.932V80.96H199.513V69.932H198.625ZM202.609 71.372V78.02H203.485V71.372H202.609ZM201.133 70.52C200.893 71.288 200.461 72.404 200.089 73.088L200.797 73.316C201.193 72.656 201.637 71.636 202.009 70.748L201.133 70.52ZM209.581 73.532V74.324H213.757V73.532H209.581ZM208.957 78.824V79.616H213.649V78.824H208.957ZM208.465 70.364V80.528H209.269V70.364H208.465ZM211.297 70.016V78.548H212.077V70.016H211.297ZM211.333 73.952C210.937 75.116 210.121 76.46 209.365 77.144C209.485 77.348 209.665 77.672 209.749 77.888C210.589 77.084 211.417 75.5 211.861 74.168L211.333 73.952ZM213.037 70.736C212.881 71.36 212.557 72.296 212.293 72.872L212.833 73.076C213.121 72.524 213.469 71.66 213.769 70.94L213.037 70.736ZM209.725 70.94C209.989 71.612 210.205 72.476 210.253 73.052L210.877 72.836C210.829 72.272 210.601 71.408 210.325 70.748L209.725 70.94ZM212.017 74.744L211.585 75.08C211.969 75.452 212.905 76.484 213.205 76.916L213.709 76.28C213.445 76.016 212.329 74.984 212.017 74.744ZM214.693 73.964V74.804H219.109V73.964H214.693ZM216.901 74.396V80.972H217.765V74.396H216.901ZM214.261 70.952V75.152C214.261 76.844 214.117 78.92 212.677 80.456C212.905 80.564 213.217 80.864 213.325 81.068C214.909 79.388 215.125 76.952 215.125 75.164V71.456C215.281 71.432 215.353 71.372 215.365 71.288L214.261 70.952ZM218.197 70.112C217.333 70.556 215.785 70.976 214.441 71.252C214.549 71.444 214.681 71.744 214.729 71.948C216.145 71.684 217.813 71.276 218.917 70.784L218.197 70.112ZM225.013 70.52L224.029 70.436C223.993 71 223.825 71.72 223.561 72.38C223.153 73.4 222.349 74.792 220.621 76.448L221.449 77.06C221.845 76.568 222.181 76.136 222.529 75.8C223.081 75.308 223.837 74.924 224.605 74.924C225.229 74.924 225.709 75.248 225.721 75.944C225.733 76.568 225.721 77.804 225.673 78.44H226.597C226.585 77.696 226.561 76.316 226.561 75.692C226.561 74.72 225.841 74.168 224.917 74.168C224.389 74.168 223.705 74.336 223.237 74.612C223.717 73.988 224.161 73.184 224.461 72.452C224.773 71.648 224.905 70.988 225.013 70.52ZM220.897 71.816V72.716C221.569 72.764 222.361 72.788 222.877 72.788C224.401 72.788 226.633 72.68 228.313 72.428V71.54C226.621 71.84 224.545 71.936 222.925 71.936C222.373 71.936 221.545 71.9 220.897 71.816ZM230.065 74.708L229.681 73.82C229.345 73.988 229.045 74.12 228.685 74.288C227.893 74.66 226.921 75.032 225.781 75.62C224.353 76.352 222.865 77.252 222.865 78.716C222.865 80.168 224.245 80.54 225.949 80.54C226.993 80.54 228.325 80.444 229.237 80.336L229.273 79.364C228.217 79.556 226.921 79.664 225.985 79.664C224.749 79.664 223.825 79.52 223.825 78.584C223.825 77.756 224.665 77.108 225.853 76.484C227.017 75.884 228.157 75.428 229.009 75.092C229.333 74.972 229.765 74.804 230.065 74.708ZM235.465 72.428C234.781 73.304 233.653 74.144 232.573 74.684C232.765 74.852 233.089 75.212 233.221 75.392C234.313 74.756 235.537 73.76 236.329 72.704L235.465 72.428ZM238.525 72.932C239.641 73.628 240.985 74.648 241.633 75.344L242.305 74.732C241.621 74.048 240.241 73.052 239.137 72.416L238.525 72.932ZM237.505 74.588C238.621 75.944 240.733 77.444 242.521 78.284C242.665 78.032 242.881 77.696 243.085 77.48C241.237 76.724 239.185 75.296 237.901 73.76H237.001C236.053 75.128 234.061 76.724 232.033 77.648C232.213 77.84 232.441 78.176 232.549 78.392C234.553 77.42 236.521 75.884 237.505 74.588ZM234.181 76.94V80.972H235.057V77.744H239.917V80.924H240.829V76.94H234.181ZM234.601 79.76V80.564H240.397V79.76H234.601ZM237.001 69.92V71.492H237.925V69.92H237.001ZM232.477 71.036V73.22H233.365V71.852H241.585V73.22H242.497V71.036H232.477ZM246.601 73.136H252.529V74.324H246.601V73.136ZM246.601 71.228H252.529V72.416H246.601V71.228ZM245.713 70.484V75.08H253.441V70.484H245.713ZM246.385 76.112V76.916H253.585V76.112H246.385ZM253.357 76.112V76.256C253.153 78.812 252.925 79.832 252.637 80.096C252.529 80.216 252.409 80.228 252.205 80.228C251.989 80.228 251.425 80.228 250.837 80.168C250.981 80.384 251.065 80.72 251.089 80.948C251.689 80.984 252.265 80.996 252.577 80.96C252.925 80.948 253.165 80.864 253.393 80.636C253.765 80.252 253.993 79.208 254.221 76.508C254.245 76.388 254.269 76.112 254.269 76.112H253.357ZM247.297 74.708C246.541 75.956 245.269 77.12 243.949 77.852C244.165 77.996 244.513 78.332 244.657 78.5C245.941 77.672 247.297 76.388 248.161 74.984L247.297 74.708ZM248.605 76.352C247.813 77.876 246.457 79.244 244.969 80.072C245.173 80.228 245.521 80.552 245.665 80.72C247.117 79.772 248.569 78.308 249.457 76.616L248.605 76.352ZM251.089 76.412C250.537 78.068 249.541 79.544 248.305 80.468C248.509 80.6 248.869 80.876 249.025 81.032C250.249 80.012 251.317 78.44 251.941 76.616L251.089 76.412ZM260.953 71.9L260.965 72.872C262.273 73.016 264.601 73.016 265.885 72.872V71.9C264.697 72.08 262.261 72.128 260.953 71.9ZM261.421 76.796L260.557 76.712C260.425 77.288 260.365 77.72 260.365 78.116C260.365 79.244 261.265 79.916 263.269 79.916C264.517 79.916 265.525 79.82 266.269 79.664L266.245 78.656C265.285 78.884 264.349 78.98 263.281 78.98C261.637 78.98 261.253 78.44 261.253 77.888C261.253 77.564 261.313 77.228 261.421 76.796ZM258.673 70.976L257.605 70.892C257.593 71.156 257.557 71.456 257.521 71.732C257.377 72.728 256.981 74.78 256.981 76.544C256.981 78.176 257.185 79.556 257.425 80.408L258.277 80.348C258.265 80.216 258.253 80.048 258.241 79.928C258.241 79.784 258.265 79.556 258.301 79.388C258.409 78.812 258.853 77.552 259.153 76.7L258.649 76.304C258.445 76.796 258.169 77.516 257.965 78.056C257.893 77.468 257.857 76.964 257.857 76.388C257.857 75.032 258.229 72.896 258.457 71.78C258.505 71.564 258.601 71.18 258.673 70.976ZM272.713 70.652V71.516H278.605V70.652H272.713ZM276.217 74.228V79.796C276.217 80 276.145 80.048 275.905 80.06C275.689 80.072 274.885 80.072 274.033 80.048C274.165 80.312 274.285 80.684 274.321 80.936C275.497 80.936 276.181 80.924 276.589 80.792C276.997 80.648 277.129 80.372 277.129 79.808V74.228H276.217ZM272.185 73.964V74.816H278.953V73.964H272.185ZM269.785 74.888V80.996H270.685V74.156L270.577 74.108L269.785 74.888ZM271.177 72.488C270.349 73.868 269.029 75.26 267.781 76.148C267.973 76.316 268.285 76.712 268.417 76.892C269.677 75.884 271.093 74.336 272.029 72.812L271.177 72.488ZM270.685 69.92C270.073 70.784 268.909 71.864 267.913 72.536C268.069 72.716 268.309 73.064 268.441 73.256C269.509 72.488 270.745 71.324 271.549 70.268L270.685 69.92ZM288.121 76.016C288.121 78.164 286.069 79.304 283.153 79.676L283.705 80.588C286.813 80.108 289.141 78.656 289.141 76.052C289.141 74.336 287.881 73.388 286.177 73.388C284.785 73.388 283.429 73.772 282.589 73.964C282.217 74.036 281.821 74.12 281.485 74.144L281.785 75.248C282.073 75.128 282.433 74.996 282.805 74.888C283.501 74.684 284.689 74.288 286.069 74.288C287.305 74.288 288.121 74.996 288.121 76.016ZM283.081 70.604L282.937 71.516C284.293 71.756 286.705 71.996 288.037 72.092L288.181 71.168C287.017 71.156 284.413 70.904 283.081 70.604ZM294.301 71.588V72.56C295.249 72.644 296.281 72.692 297.481 72.692C298.585 72.692 299.893 72.608 300.709 72.548V71.564C299.845 71.66 298.633 71.732 297.481 71.732C296.269 71.732 295.165 71.684 294.301 71.588ZM294.781 76.424L293.809 76.328C293.701 76.808 293.569 77.372 293.569 77.996C293.569 79.508 294.985 80.3 297.421 80.3C299.125 80.3 300.649 80.12 301.513 79.892L301.501 78.86C300.589 79.148 299.041 79.328 297.397 79.328C295.477 79.328 294.541 78.704 294.541 77.78C294.541 77.336 294.637 76.892 294.781 76.424ZM313.249 72.848L312.733 71.984C312.481 72.188 312.217 72.344 311.869 72.548C311.089 72.992 309.409 73.796 308.185 74.612C306.769 75.548 305.893 76.568 305.893 77.864C305.893 79.664 307.525 80.336 309.781 80.336C311.281 80.336 312.673 80.204 313.573 80.048L313.585 78.968C312.649 79.208 311.041 79.376 309.745 79.376C307.849 79.376 306.889 78.752 306.889 77.756C306.889 76.856 307.561 76.064 308.677 75.332C309.853 74.564 311.521 73.772 312.325 73.352C312.685 73.172 312.985 73.004 313.249 72.848ZM307.177 70.664L306.229 71.072C306.877 72.56 307.597 74.18 308.209 75.164L309.025 74.672C308.473 73.7 307.729 72.2 307.177 70.664ZM320.581 70.688L319.465 70.568C319.465 71.492 319.309 72.572 319.081 73.532C318.757 74.996 317.797 78.2 316.429 80.036L317.413 80.42C318.769 78.236 319.621 75.248 320.029 73.556C320.197 72.812 320.353 71.828 320.437 71.396C320.485 71.168 320.533 70.904 320.581 70.688ZM324.709 72.068L323.833 72.464C324.673 73.46 325.621 75.548 325.969 76.772L326.905 76.328C326.497 75.224 325.453 73.04 324.709 72.068ZM316.261 73.316L316.357 74.36C316.669 74.312 317.161 74.252 317.437 74.216C318.169 74.144 320.425 73.868 321.229 73.868C321.997 73.868 322.501 74.072 322.501 75.176C322.501 76.472 322.309 78.032 321.925 78.848C321.685 79.364 321.325 79.46 320.881 79.46C320.545 79.46 319.909 79.376 319.405 79.22L319.573 80.216C319.945 80.312 320.521 80.396 320.977 80.396C321.757 80.396 322.357 80.192 322.729 79.388C323.233 78.392 323.425 76.484 323.425 75.056C323.425 73.436 322.549 73.028 321.481 73.028C320.665 73.028 318.229 73.292 317.329 73.316C316.945 73.328 316.633 73.34 316.261 73.316ZM324.841 70.328L324.193 70.604C324.529 71.06 324.937 71.78 325.177 72.272L325.825 71.984C325.573 71.492 325.141 70.76 324.841 70.328ZM326.161 69.848L325.525 70.124C325.873 70.568 326.269 71.252 326.521 71.78L327.181 71.492C326.941 71.048 326.485 70.292 326.161 69.848ZM328.429 72.104L328.537 73.16C329.833 72.884 332.893 72.584 334.177 72.452C333.085 73.1 331.945 74.636 331.945 76.496C331.945 79.184 334.465 80.36 336.685 80.444L337.033 79.46C335.089 79.388 332.893 78.632 332.893 76.292C332.893 74.876 333.937 73.04 335.653 72.488C336.265 72.32 337.309 72.296 338.005 72.308L337.993 71.348C337.189 71.372 336.073 71.444 334.753 71.552C332.545 71.744 330.277 71.96 329.509 72.044C329.269 72.068 328.885 72.092 328.429 72.104ZM336.265 73.772L335.665 74.036C336.025 74.54 336.361 75.152 336.637 75.728L337.261 75.452C336.997 74.912 336.541 74.168 336.265 73.772ZM337.573 73.268L336.985 73.544C337.357 74.048 337.717 74.648 338.005 75.224L338.617 74.924C338.341 74.396 337.873 73.664 337.573 73.268ZM341.641 71.78L341.701 72.656C343.417 72.824 345.097 72.824 346.309 72.704C347.269 72.62 348.289 72.416 349.069 72.188L348.937 71.312C348.073 71.6 347.089 71.804 346.105 71.888C344.881 72.008 343.309 71.984 341.641 71.78ZM341.401 74.24L341.461 75.14C343.525 75.296 345.745 75.26 347.221 75.068C348.229 74.948 349.141 74.768 349.801 74.588L349.645 73.7C349.009 73.892 348.037 74.132 346.897 74.252C345.493 74.42 343.453 74.456 341.401 74.24ZM345.505 71.624C345.673 72.224 345.853 72.86 346.153 73.688C346.501 74.66 347.005 75.812 347.665 76.844C347.293 76.796 346.513 76.712 345.865 76.652L345.793 77.384C346.621 77.468 347.737 77.588 348.409 77.756L348.913 77.024C348.733 76.868 348.589 76.7 348.457 76.508C347.833 75.584 347.305 74.432 346.981 73.496C346.681 72.644 346.309 71.432 346.189 70.424L345.169 70.556C345.301 70.904 345.409 71.276 345.505 71.624ZM343.153 76.832L342.217 76.628C341.941 77.156 341.737 77.66 341.737 78.344C341.761 79.892 343.081 80.588 345.421 80.588C346.453 80.588 347.389 80.516 348.229 80.372L348.277 79.424C347.401 79.592 346.525 79.676 345.409 79.676C343.525 79.676 342.649 79.172 342.649 78.188C342.649 77.648 342.865 77.24 343.153 76.832ZM354.114 71.168L354.138 72.152C354.402 72.116 354.666 72.104 354.942 72.08C355.566 72.044 357.966 71.948 358.602 71.912C358.002 72.452 356.49 73.712 355.818 74.264C355.134 74.852 353.586 76.148 352.59 76.964L353.286 77.66C354.798 76.112 355.878 75.272 357.87 75.272C359.442 75.272 360.57 76.148 360.57 77.336C360.57 78.836 359.286 79.676 357.246 79.676C356.298 79.676 355.638 79.328 355.638 78.74C355.638 78.32 356.058 77.984 356.61 77.984C357.57 77.984 358.158 78.716 358.23 79.736L359.094 79.592C359.01 78.38 358.206 77.252 356.61 77.252C355.506 77.252 354.762 77.996 354.762 78.812C354.762 79.82 355.758 80.528 357.39 80.528C359.934 80.528 361.53 79.268 361.53 77.336C361.53 75.716 360.102 74.528 358.11 74.528C357.57 74.528 356.994 74.588 356.442 74.768C357.378 74 359.01 72.596 359.598 72.14C359.826 71.96 360.066 71.804 360.282 71.66L359.73 70.952C359.598 71 359.43 71.024 359.07 71.06C358.434 71.12 355.59 71.204 354.954 71.204C354.714 71.204 354.378 71.192 354.114 71.168ZM19.1077 94.868V95.564H25.4557V94.868H19.1077ZM21.3997 87.356V88.688H22.2757V87.356H21.3997ZM16.8397 88.292V90.548H17.7037V89.012H26.0917V90.548H26.9797V88.292H16.8397ZM19.0597 89.756V90.44H24.3277V91.472H19.0597V92.168H25.2157V89.756H19.0597ZM19.0957 92.996V93.704H25.0957V95.948H25.9837V92.996H19.0957ZM18.5797 89.756V95.972H19.4437V89.756H18.5797ZM17.8237 85.844V86.588H21.6997V85.844H17.8237ZM22.5037 85.844V86.588H27.3517V85.844H22.5037ZM18.0517 84.872C17.6797 85.808 17.0317 86.756 16.3117 87.38C16.5277 87.488 16.8877 87.74 17.0557 87.872C17.7517 87.188 18.4597 86.144 18.9037 85.088L18.0517 84.872ZM22.7797 84.872C22.3957 85.796 21.6997 86.684 20.9077 87.26C21.1357 87.368 21.5077 87.584 21.6877 87.716C22.4437 87.092 23.1997 86.12 23.6317 85.076L22.7797 84.872ZM18.4957 86.408C18.7717 86.852 19.0597 87.452 19.1677 87.824L19.9837 87.584C19.8637 87.212 19.5517 86.624 19.2757 86.204L18.4957 86.408ZM23.5837 86.42C23.9677 86.852 24.3757 87.464 24.5437 87.848L25.3597 87.584C25.1797 87.188 24.7477 86.6 24.3757 86.18L23.5837 86.42ZM33.5677 88.532H38.0317V90.08H33.5677V88.532ZM33.5677 86.264H38.0317V87.788H33.5677V86.264ZM32.7517 85.484V90.86H38.8957V85.484H32.7517ZM32.5957 92.264V93.092H39.0637V92.264H32.5957ZM31.6717 94.748V95.564H39.4597V94.748H31.6717ZM28.4077 85.736V86.588H32.1517V85.736H28.4077ZM28.5397 89.204V90.056H31.9837V89.204H28.5397ZM28.2877 93.8L28.5037 94.724C29.5717 94.364 30.9397 93.908 32.2477 93.464L32.0917 92.6C30.6997 93.068 29.2597 93.536 28.2877 93.8ZM29.9077 86.072V93.68L30.7717 93.512V86.072H29.9077ZM35.4037 85.856V90.476H35.3437V95.12H36.2557V90.476H36.1957V85.856H35.4037ZM51.0397 86.9L50.4397 86.324C50.2717 86.372 49.8397 86.408 49.6117 86.408C48.8917 86.408 43.2877 86.408 42.7117 86.408C42.2677 86.408 41.7757 86.36 41.3557 86.3V87.38C41.8237 87.344 42.2677 87.32 42.7117 87.32C43.2877 87.32 48.7117 87.32 49.5517 87.32C49.1677 88.064 48.0397 89.36 46.9237 89.996L47.7277 90.632C49.0957 89.684 50.2357 88.136 50.7157 87.32C50.7997 87.188 50.9437 87.008 51.0397 86.9ZM46.2397 88.472H45.1597C45.2077 88.796 45.2077 89.06 45.2077 89.348C45.2077 91.352 44.9437 93.056 43.0957 94.196C42.7597 94.424 42.3397 94.628 42.0157 94.736L42.8917 95.456C45.9517 93.92 46.2397 91.724 46.2397 88.472ZM61.5277 86.384C61.5277 85.952 61.8757 85.592 62.3197 85.592C62.7517 85.592 63.1117 85.952 63.1117 86.384C63.1117 86.828 62.7517 87.176 62.3197 87.176C61.8757 87.176 61.5277 86.828 61.5277 86.384ZM60.9757 86.384C60.9757 87.128 61.5757 87.728 62.3197 87.728C63.0637 87.728 63.6637 87.128 63.6637 86.384C63.6637 85.64 63.0637 85.04 62.3197 85.04C61.5757 85.04 60.9757 85.64 60.9757 86.384ZM62.0197 87.188L61.2877 86.72C61.0597 86.78 60.8317 86.792 60.6397 86.792C60.0997 86.792 55.3117 86.792 54.6277 86.792C54.2317 86.792 53.7517 86.744 53.4277 86.708V87.776C53.7277 87.752 54.1357 87.728 54.6157 87.728C55.3117 87.728 60.0637 87.728 60.7597 87.728C60.5917 88.88 60.0397 90.56 59.1877 91.64C58.1797 92.924 56.8357 93.944 54.5077 94.532L55.3237 95.432C57.5197 94.736 58.9477 93.632 60.0397 92.216C60.9997 90.992 61.5757 89.048 61.8397 87.788C61.8877 87.56 61.9357 87.356 62.0197 87.188ZM73.1677 85.904H72.0397C72.0757 86.192 72.1117 86.54 72.1117 86.948C72.1117 87.368 72.1117 88.376 72.1117 88.844C72.1117 91.1 71.9557 92.084 71.1037 93.068C70.3597 93.92 69.3397 94.388 68.2357 94.676L69.0277 95.504C69.9037 95.204 71.1037 94.676 71.8717 93.74C72.7477 92.72 73.1317 91.772 73.1317 88.88C73.1317 88.436 73.1317 87.416 73.1317 86.948C73.1317 86.54 73.1437 86.192 73.1677 85.904ZM67.5997 86H66.5077C66.5437 86.228 66.5557 86.648 66.5557 86.852C66.5557 87.212 66.5557 90.344 66.5557 90.86C66.5557 91.208 66.5317 91.592 66.5077 91.784H67.5997C67.5757 91.568 67.5637 91.172 67.5637 90.86C67.5637 90.356 67.5637 87.212 67.5637 86.852C67.5637 86.576 67.5757 86.228 67.5997 86ZM80.9557 85.688L79.8397 85.568C79.8397 86.492 79.6837 87.572 79.4557 88.532C79.1317 89.996 78.1717 93.2 76.8037 95.036L77.7877 95.42C79.1437 93.236 79.9957 90.248 80.4037 88.556C80.5717 87.812 80.7277 86.828 80.8117 86.396C80.8597 86.168 80.9077 85.904 80.9557 85.688ZM85.0837 87.068L84.2077 87.464C85.0477 88.46 85.9957 90.548 86.3437 91.772L87.2797 91.328C86.8717 90.224 85.8277 88.04 85.0837 87.068ZM76.6357 88.316L76.7317 89.36C77.0437 89.312 77.5357 89.252 77.8117 89.216C78.5437 89.144 80.7997 88.868 81.6037 88.868C82.3717 88.868 82.8757 89.072 82.8757 90.176C82.8757 91.472 82.6837 93.032 82.2997 93.848C82.0597 94.364 81.6997 94.46 81.2557 94.46C80.9197 94.46 80.2837 94.376 79.7797 94.22L79.9477 95.216C80.3197 95.312 80.8957 95.396 81.3517 95.396C82.1317 95.396 82.7317 95.192 83.1037 94.388C83.6077 93.392 83.7997 91.484 83.7997 90.056C83.7997 88.436 82.9237 88.028 81.8557 88.028C81.0397 88.028 78.6037 88.292 77.7037 88.316C77.3197 88.328 77.0077 88.34 76.6357 88.316ZM85.2157 85.328L84.5677 85.604C84.9037 86.06 85.3117 86.78 85.5517 87.272L86.1997 86.984C85.9477 86.492 85.5157 85.76 85.2157 85.328ZM86.5357 84.848L85.8997 85.124C86.2477 85.568 86.6437 86.252 86.8957 86.78L87.5557 86.492C87.3157 86.048 86.8597 85.292 86.5357 84.848ZM91.5517 87.836V94.268C91.5517 95.528 91.9237 95.864 93.2317 95.864C93.5317 95.864 95.3677 95.864 95.6797 95.864C96.9877 95.864 97.2637 95.216 97.4077 93.056C97.1437 92.996 96.7597 92.828 96.5317 92.66C96.4357 94.568 96.3277 94.964 95.6317 94.964C95.1997 94.964 93.6397 94.964 93.3037 94.964C92.6317 94.964 92.4877 94.856 92.4877 94.292V87.836H91.5517ZM91.5757 85.592C92.5837 86.288 93.9037 87.296 94.5997 87.908L95.1997 87.176C94.5037 86.612 93.1957 85.628 92.1637 84.956L91.5757 85.592ZM89.6317 88.556C89.3917 89.864 88.9237 91.496 88.2397 92.54L89.0917 92.888C89.7637 91.832 90.2077 90.104 90.4717 88.772L89.6317 88.556ZM96.7237 89.336C97.5277 90.536 98.3437 92.156 98.6437 93.224L99.5077 92.792C99.1717 91.736 98.3677 90.164 97.5277 88.964L96.7237 89.336ZM97.3597 85.64C95.6197 89.192 92.3917 92.66 88.2517 94.544C88.4437 94.724 88.7077 95.048 88.8397 95.252C93.1117 93.212 96.2797 89.756 98.2477 86.012L97.3597 85.64ZM100.408 91.484V92.24H111.328V91.484H100.408ZM100.696 85.448V86.24H111.028V85.448H100.696ZM104.572 90.224C103.828 91.4 102.712 93.008 101.944 93.98L102.796 94.268C103.564 93.284 104.668 91.712 105.448 90.464L104.572 90.224ZM108.172 91.748C107.212 94.088 104.86 94.94 100.576 95.168C100.72 95.372 100.864 95.696 100.924 95.96C105.424 95.624 107.98 94.64 109.036 92L108.172 91.748ZM102.592 93.86C105.64 94.424 108.58 95.24 110.416 95.996L110.956 95.264C109.096 94.532 106.012 93.728 103.048 93.2L102.592 93.86ZM103.972 85.748V89.936H104.824V85.748H103.972ZM106.768 85.748V89.936H107.62V85.748H106.768ZM102.136 88.004H109.624V89.636H102.136V88.004ZM101.296 87.272V90.38H110.524V87.272H101.296Z" fill="black"/>
<path d="M21.8677 129.168C21.1597 129.168 20.5837 129.744 20.5837 130.44C20.5837 131.148 21.1597 131.724 21.8677 131.724C22.5637 131.724 23.1397 131.148 23.1397 130.44C23.1397 129.744 22.5637 129.168 21.8677 129.168ZM30.4237 129.228V130.068H37.3957V129.228H30.4237ZM30.4237 131.832V132.672H37.3957V131.832H30.4237ZM30.4237 134.46V135.3H37.3957V134.46H30.4237ZM29.8117 126.564V135.972H30.7237V127.428H37.1557V135.912H38.0917V126.564H29.8117ZM33.3277 124.908C33.2077 125.496 32.9437 126.336 32.7277 126.9L33.5317 127.056C33.7957 126.54 34.1077 125.76 34.3717 125.04L33.3277 124.908ZM40.6957 132.768V133.452H46.1677V132.768H40.6957ZM40.3717 126.984V127.68H46.3597V126.984H40.3717ZM42.9757 125.892V134.724H43.8037V125.892H42.9757ZM40.3597 134.748L40.4917 135.528C42.0157 135.372 44.1877 135.12 46.2277 134.88L46.2157 134.172C44.0677 134.4 41.8237 134.616 40.3597 134.748ZM41.4757 130.524H45.3637V131.412H41.4757V130.524ZM41.4757 129.06H45.3637V129.924H41.4757V129.06ZM40.7197 128.436V132.036H46.1317V128.436H40.7197ZM45.6997 125.04C44.4637 125.328 42.2797 125.544 40.4917 125.64C40.5877 125.82 40.6717 126.12 40.7077 126.312C42.5077 126.252 44.7397 126.048 46.1557 125.736L45.6997 125.04ZM46.2757 127.728V128.568H50.6077V127.728H46.2757ZM50.2597 127.728V127.944C50.1277 132.804 49.9957 134.532 49.6957 134.904C49.5877 135.06 49.4677 135.096 49.2757 135.096C49.0357 135.096 48.5077 135.084 47.9197 135.036C48.0637 135.276 48.1597 135.648 48.1837 135.9C48.7357 135.936 49.3117 135.936 49.6477 135.9C50.0077 135.864 50.2477 135.756 50.4637 135.444C50.8597 134.928 50.9797 133.248 51.1117 128.184C51.1117 128.064 51.1237 127.728 51.1237 127.728H50.2597ZM47.7277 125.076C47.7157 129.612 47.7757 133.416 45.0277 135.384C45.2437 135.528 45.5557 135.816 45.6997 136.032C48.5677 133.884 48.5797 129.852 48.5917 125.076H47.7277ZM53.4397 126.852V127.656H56.2477V133.884H53.4397V134.7H57.0877V126.852H53.4397ZM52.8997 126.852V135.66H53.7397V126.852H52.8997ZM53.3797 130.188V130.992H56.6917V130.188H53.3797ZM54.7357 124.896C54.6397 125.52 54.4117 126.432 54.2077 127.008L54.9277 127.188C55.1677 126.648 55.4677 125.82 55.7077 125.076L54.7357 124.896ZM58.7917 126.816V127.656H62.4757V126.816H58.7917ZM62.1637 126.816V127.008C61.9957 132.3 61.8037 134.292 61.4077 134.724C61.2757 134.88 61.1317 134.916 60.8917 134.916C60.6157 134.916 59.8957 134.904 59.1157 134.844C59.2837 135.084 59.3917 135.456 59.4157 135.72C60.0877 135.756 60.7957 135.78 61.2037 135.732C61.6237 135.696 61.8997 135.588 62.1637 135.24C62.6437 134.652 62.8117 132.792 63.0037 127.284C63.0037 127.152 63.0037 126.816 63.0037 126.816H62.1637ZM59.0437 124.872C58.6597 126.54 57.9997 128.196 57.1837 129.252C57.3997 129.372 57.7717 129.624 57.9277 129.768C58.7557 128.628 59.4637 126.864 59.9077 125.076L59.0437 124.872ZM58.4917 129.936C59.1517 130.812 59.9557 132 60.3157 132.732L61.0837 132.252C60.6997 131.544 59.8717 130.38 59.1877 129.528L58.4917 129.936ZM69.3277 126.9L69.3397 127.872C70.6477 128.016 72.9757 128.016 74.2597 127.872V126.9C73.0717 127.08 70.6357 127.128 69.3277 126.9ZM69.7957 131.796L68.9317 131.712C68.7997 132.288 68.7397 132.72 68.7397 133.116C68.7397 134.244 69.6397 134.916 71.6437 134.916C72.8917 134.916 73.8997 134.82 74.6437 134.664L74.6197 133.656C73.6597 133.884 72.7237 133.98 71.6557 133.98C70.0117 133.98 69.6277 133.44 69.6277 132.888C69.6277 132.564 69.6877 132.228 69.7957 131.796ZM67.0477 125.976L65.9797 125.892C65.9677 126.156 65.9317 126.456 65.8957 126.732C65.7517 127.728 65.3557 129.78 65.3557 131.544C65.3557 133.176 65.5597 134.556 65.7997 135.408L66.6517 135.348C66.6397 135.216 66.6277 135.048 66.6157 134.928C66.6157 134.784 66.6397 134.556 66.6757 134.388C66.7837 133.812 67.2277 132.552 67.5277 131.7L67.0237 131.304C66.8197 131.796 66.5437 132.516 66.3397 133.056C66.2677 132.468 66.2317 131.964 66.2317 131.388C66.2317 130.032 66.6037 127.896 66.8317 126.78C66.8797 126.564 66.9757 126.18 67.0477 125.976ZM76.6237 131.976V132.744H87.1357V131.976H76.6237ZM76.7077 125.88V126.588H81.4717V125.88H76.7077ZM81.7597 125.484V126.264H86.5357V125.484H81.7597ZM76.8637 127.716V128.436H81.3277V127.716H76.8637ZM82.4197 132.288L81.5797 132.42C82.4077 134.604 84.0757 135.612 86.8957 135.984C87.0157 135.72 87.2437 135.336 87.4477 135.132C84.7597 134.892 83.1037 134.052 82.4197 132.288ZM86.2117 125.484V125.64C86.1037 128.508 85.9717 129.552 85.7557 129.804C85.6477 129.924 85.5517 129.936 85.3597 129.936C85.1797 129.936 84.6997 129.936 84.1837 129.888C84.3277 130.104 84.4117 130.452 84.4357 130.704C84.9637 130.728 85.4797 130.728 85.7557 130.692C86.0917 130.668 86.2957 130.584 86.4877 130.344C86.7997 129.972 86.9317 128.88 87.0637 125.868C87.0757 125.748 87.0757 125.484 87.0757 125.484H86.2117ZM76.5037 130.08L76.5877 130.848C77.9197 130.668 79.7677 130.404 81.5677 130.14L81.5437 129.42C79.6837 129.66 77.7637 129.936 76.5037 130.08ZM83.5117 125.748C83.4157 127.956 83.1277 129.42 81.3997 130.224C81.5797 130.38 81.8197 130.68 81.9277 130.872C83.8597 129.912 84.2317 128.244 84.3637 125.748H83.5117ZM78.7117 124.92V130.116L79.5517 129.996V124.92H78.7117ZM81.3397 131.1V132.06C81.3397 133.092 80.7877 134.484 76.3477 135.216C76.5277 135.42 76.7677 135.756 76.8757 135.972C81.6157 135.18 82.2517 133.476 82.2517 132.084V131.1H81.3397ZM93.9997 130.08C94.6717 130.944 95.3677 132.132 95.6317 132.888L96.4237 132.468C96.1357 131.7 95.4157 130.548 94.7317 129.708L93.9997 130.08ZM94.0717 127.092V127.944H98.6317V127.092H94.0717ZM98.2717 127.092V127.296C98.0797 132.48 97.8757 134.472 97.4557 134.904C97.3357 135.06 97.1797 135.084 96.9397 135.084C96.6397 135.084 95.8957 135.084 95.1037 135.012C95.2597 135.264 95.3677 135.648 95.3917 135.912C96.1117 135.96 96.8437 135.972 97.2517 135.936C97.7077 135.888 97.9717 135.792 98.2477 135.444C98.7397 134.844 98.9317 132.972 99.1357 127.56C99.1357 127.44 99.1357 127.092 99.1357 127.092H98.2717ZM94.5157 124.92C94.0717 126.516 93.3037 128.1 92.3677 129.108C92.5957 129.228 92.9917 129.492 93.1717 129.636C94.0837 128.544 94.9117 126.864 95.4397 125.124L94.5157 124.92ZM90.2077 124.932C89.8957 125.724 89.3437 126.876 88.8877 127.572L89.5117 127.836C89.9797 127.188 90.5557 126.12 91.0117 125.232L90.2077 124.932ZM91.6597 126.3C90.9997 127.572 89.8597 129.372 88.9357 130.44L89.5117 130.74C90.4237 129.708 91.5997 127.98 92.4397 126.636L91.6597 126.3ZM88.3117 127.452C88.9597 128.028 89.7157 128.856 90.0397 129.42L90.5197 128.736C90.1957 128.208 89.4397 127.416 88.7677 126.852L88.3117 127.452ZM91.2757 129.084C91.7677 129.876 92.2477 130.92 92.4277 131.592L93.1477 131.256C92.9677 130.596 92.4517 129.564 91.9477 128.796L91.2757 129.084ZM88.2877 130.296L88.3597 131.1C89.4997 131.04 91.0237 130.956 92.5477 130.86V130.128C90.9637 130.2 89.3677 130.26 88.2877 130.296ZM91.5757 131.952C91.9117 132.696 92.2357 133.668 92.3437 134.292L93.0757 134.04C92.9437 133.416 92.6077 132.468 92.2597 131.736L91.5757 131.952ZM88.9477 131.784C88.8037 132.84 88.5637 133.908 88.1677 134.64C88.3597 134.724 88.7197 134.892 88.8757 134.988C89.2597 134.22 89.5597 133.056 89.7277 131.928L88.9477 131.784ZM90.3277 130.644V135.996H91.1437V130.644H90.3277ZM100.636 125.568V126.384H111.088V125.568H100.636ZM105.472 125.916V130.56C105.472 132.552 105.1 134.316 100.42 135.18C100.612 135.396 100.864 135.78 100.96 135.972C105.772 134.952 106.408 132.888 106.408 130.572V125.916H105.472ZM102.592 130.068H109.432V131.292H102.592V130.068ZM102.592 128.148H109.432V129.348H102.592V128.148ZM101.74 127.392V132.048H110.344V127.392H101.74ZM102.892 132.144L102.124 132.456C103.732 135.18 106.684 135.744 111.1 135.924C111.148 135.636 111.328 135.252 111.484 135.036C107.152 134.928 104.416 134.52 102.892 132.144ZM118.912 128.976V129.816H123.376V128.976H118.912ZM112.6 126.18V126.948H117.892V126.18H112.6ZM112.468 130.944V131.724H117.952V130.944H112.468ZM112.432 128.928V129.696H118.036V128.928H112.432ZM121.144 129.312V135.9H122.02V129.312H121.144ZM114.82 124.968V126.576H115.696V124.968H114.82ZM114.82 129.552V135.948H115.696V129.552H114.82ZM118.48 125.904V130.104C118.48 131.808 118.312 133.884 116.776 135.396C116.992 135.516 117.316 135.816 117.424 136.02C119.116 134.352 119.332 131.916 119.332 130.116V126.408C119.5 126.384 119.572 126.336 119.584 126.24L118.48 125.904ZM122.5 125.064C121.624 125.496 120.04 125.916 118.696 126.204C118.804 126.384 118.924 126.696 118.972 126.888C120.412 126.636 122.092 126.228 123.22 125.724L122.5 125.064ZM115.612 131.952L115.12 132.36C115.564 132.732 116.692 133.788 117.076 134.232L117.604 133.56C117.304 133.284 115.996 132.216 115.612 131.952ZM113.32 127.164C113.56 127.716 113.752 128.436 113.788 128.904L114.544 128.7C114.484 128.244 114.28 127.536 114.028 127.008L113.32 127.164ZM116.392 126.984C116.26 127.488 116.008 128.232 115.792 128.712L116.512 128.88C116.728 128.436 116.98 127.764 117.208 127.164L116.392 126.984ZM114.832 131.34C114.256 132.516 113.164 133.812 112.192 134.448C112.396 134.592 112.66 134.88 112.804 135.084C113.764 134.34 114.868 132.924 115.48 131.592L114.832 131.34ZM129.388 125.52L128.404 125.436C128.368 126 128.2 126.72 127.936 127.38C127.528 128.4 126.724 129.792 124.996 131.448L125.824 132.06C126.22 131.568 126.556 131.136 126.904 130.8C127.456 130.308 128.212 129.924 128.98 129.924C129.604 129.924 130.084 130.248 130.096 130.944C130.108 131.568 130.096 132.804 130.048 133.44H130.972C130.96 132.696 130.936 131.316 130.936 130.692C130.936 129.72 130.216 129.168 129.292 129.168C128.764 129.168 128.08 129.336 127.612 129.612C128.092 128.988 128.536 128.184 128.836 127.452C129.148 126.648 129.28 125.988 129.388 125.52ZM125.272 126.816V127.716C125.944 127.764 126.736 127.788 127.252 127.788C128.776 127.788 131.008 127.68 132.688 127.428V126.54C130.996 126.84 128.92 126.936 127.3 126.936C126.748 126.936 125.92 126.9 125.272 126.816ZM134.44 129.708L134.056 128.82C133.72 128.988 133.42 129.12 133.06 129.288C132.268 129.66 131.296 130.032 130.156 130.62C128.728 131.352 127.24 132.252 127.24 133.716C127.24 135.168 128.62 135.54 130.324 135.54C131.368 135.54 132.7 135.444 133.612 135.336L133.648 134.364C132.592 134.556 131.296 134.664 130.36 134.664C129.124 134.664 128.2 134.52 128.2 133.584C128.2 132.756 129.04 132.108 130.228 131.484C131.392 130.884 132.532 130.428 133.384 130.092C133.708 129.972 134.14 129.804 134.44 129.708ZM140.5 126.48V127.308H146.788V126.48H140.5ZM139.936 130.992V131.832H147.328V130.992H139.936ZM139.792 128.832V129.66H147.412V128.832H139.792ZM143.14 124.98V129.264H144.028V124.98H143.14ZM144.82 129.48V134.868C144.82 135.036 144.76 135.084 144.568 135.096C144.376 135.108 143.716 135.108 142.996 135.084C143.116 135.336 143.248 135.696 143.296 135.948C144.232 135.948 144.832 135.936 145.228 135.804C145.6 135.66 145.708 135.408 145.708 134.88V129.48H144.82ZM140.848 132.564C141.4 133.212 142.012 134.112 142.264 134.688L143.032 134.244C142.768 133.656 142.144 132.792 141.58 132.168L140.848 132.564ZM139.12 127.596C138.436 128.844 137.296 130.08 136.204 130.872C136.36 131.076 136.612 131.556 136.696 131.748C137.86 130.8 139.12 129.348 139.924 127.92L139.12 127.596ZM138.928 124.956C138.4 125.808 137.332 126.804 136.384 127.428C136.528 127.608 136.756 127.956 136.852 128.16C137.92 127.452 139.06 126.324 139.768 125.292L138.928 124.956ZM138.076 129.72V135.96H138.94V128.892L138.916 128.868L138.076 129.72ZM148.732 128.736L149.176 129.804C150.136 129.42 153.184 128.1 155.164 128.1C156.784 128.1 157.708 129.096 157.708 130.356C157.708 132.804 154.9 133.764 151.768 133.848L152.2 134.844C155.896 134.628 158.752 133.248 158.752 130.368C158.752 128.364 157.168 127.212 155.188 127.212C153.436 127.212 151.072 128.076 150.064 128.4C149.608 128.532 149.176 128.664 148.732 128.736ZM166.624 126.816L165.628 126.792C165.508 128.04 165.256 129.396 164.908 130.536C164.296 132.564 163.648 133.38 163.084 133.38C162.544 133.38 161.86 132.708 161.86 131.196C161.86 129.432 163.504 127.26 166.144 127.26C168.448 127.26 169.78 128.844 169.78 130.764C169.78 132.84 168.268 133.992 166.732 134.34C166.444 134.4 166.084 134.448 165.7 134.484L166.252 135.372C169.108 135 170.764 133.32 170.764 130.812C170.764 128.376 168.976 126.396 166.168 126.396C163.228 126.396 160.912 128.664 160.912 131.268C160.912 133.26 161.98 134.484 163.06 134.484C164.164 134.484 165.124 133.212 165.856 130.752C166.228 129.468 166.468 128.064 166.624 126.816ZM172.804 127.104L172.912 128.16C174.208 127.884 177.268 127.584 178.552 127.452C177.46 128.1 176.32 129.636 176.32 131.496C176.32 134.184 178.84 135.36 181.06 135.444L181.408 134.46C179.464 134.388 177.268 133.632 177.268 131.292C177.268 129.876 178.312 128.04 180.028 127.488C180.64 127.32 181.684 127.296 182.38 127.308L182.368 126.348C181.564 126.372 180.448 126.444 179.128 126.552C176.92 126.744 174.652 126.96 173.884 127.044C173.644 127.068 173.26 127.092 172.804 127.104ZM180.64 128.772L180.04 129.036C180.4 129.54 180.736 130.152 181.012 130.728L181.636 130.452C181.372 129.912 180.916 129.168 180.64 128.772ZM181.948 128.268L181.36 128.544C181.732 129.048 182.092 129.648 182.38 130.224L182.992 129.924C182.716 129.396 182.248 128.664 181.948 128.268ZM188.644 127.908L188.656 128.82C189.352 128.868 189.976 128.892 190.672 128.892C192.076 128.892 193.54 128.796 194.812 128.58V127.656C193.6 127.908 192.124 128.016 190.684 128.016C189.976 128.016 189.328 127.98 188.644 127.908ZM192.844 125.76H191.764C191.8 125.976 191.812 126.288 191.812 126.504C191.812 126.924 191.824 127.68 191.824 128.508C191.824 130.092 191.98 132.336 191.98 133.2C191.98 134.004 191.692 134.508 190.684 134.508C189.808 134.508 189.22 134.184 189.22 133.56C189.22 132.984 189.844 132.588 190.744 132.588C192.268 132.588 193.48 133.404 194.74 134.58L195.256 133.788C194.248 132.876 192.844 131.856 190.828 131.856C189.244 131.856 188.356 132.648 188.356 133.656C188.356 134.736 189.232 135.384 190.84 135.384C192.46 135.384 192.916 134.424 192.916 133.44C192.916 132.204 192.736 130.332 192.736 128.484C192.736 127.776 192.748 126.924 192.772 126.48C192.784 126.252 192.808 126 192.844 125.76ZM186.928 125.844L185.872 125.748C185.86 126.012 185.836 126.324 185.788 126.612C185.644 127.596 185.236 129.888 185.236 131.652C185.236 133.272 185.464 134.592 185.692 135.456L186.544 135.384C186.532 135.264 186.52 135.084 186.508 134.964C186.496 134.832 186.52 134.592 186.556 134.424C186.676 133.836 187.12 132.612 187.42 131.772L186.928 131.388C186.724 131.88 186.424 132.612 186.232 133.164C186.148 132.576 186.112 132.072 186.112 131.484C186.112 130.14 186.472 127.764 186.712 126.648C186.76 126.432 186.856 126.036 186.928 125.844ZM197.02 127.44L197.092 128.34C197.536 128.352 198.052 128.364 198.496 128.364C199.96 128.376 201.532 128.112 202.708 127.788L202.684 126.9C201.304 127.356 199.792 127.512 198.496 127.512C197.98 127.512 197.464 127.488 197.02 127.44ZM201.28 125.484L200.224 125.376C200.188 126.216 199.924 127.272 199.66 128.028C199.168 129.444 198.052 131.58 196.984 132.828L197.908 133.308C198.904 131.964 200.008 129.78 200.584 128.052C200.872 127.2 201.124 126.072 201.28 125.484ZM204.112 129.192H203.164C203.212 130.512 203.344 132.66 203.344 133.572C203.344 134.22 203.008 134.748 202.012 134.748C201.076 134.748 200.608 134.364 200.608 133.812C200.608 133.26 201.208 132.852 202.096 132.852C203.86 132.852 205.24 133.92 206.164 134.76L206.668 133.944C205.684 133.092 204.136 132.084 202.12 132.084C200.776 132.084 199.732 132.78 199.732 133.884C199.732 135.084 200.8 135.612 202.12 135.612C203.608 135.612 204.22 134.832 204.22 133.872C204.22 133.08 204.112 131.256 204.088 130.476C204.076 130.044 204.076 129.684 204.112 129.192ZM206.512 129.504L207.052 128.712C206.476 128.28 205.12 127.5 204.244 127.128L203.764 127.848C204.556 128.22 205.864 128.952 206.512 129.504ZM216.316 126.156L215.416 125.364C215.284 125.58 214.972 125.928 214.732 126.168C213.928 126.984 212.104 128.424 211.192 129.18C210.112 130.092 209.98 130.608 211.108 131.556C212.236 132.48 214.048 134.04 214.9 134.904C215.188 135.204 215.476 135.492 215.728 135.78L216.58 135C215.308 133.716 213.184 132.012 212.092 131.112C211.312 130.464 211.324 130.284 212.044 129.66C212.932 128.916 214.66 127.56 215.488 126.84C215.68 126.672 216.052 126.348 216.316 126.156ZM223.144 135.672L223.96 134.976C223.204 134.1 222.124 133.02 221.26 132.324L220.48 133.008C221.332 133.704 222.364 134.724 223.144 135.672ZM241.264 127.296L240.46 126.912C240.328 126.972 239.956 127.02 239.716 127.02C238.876 127.02 235.864 127.02 235.3 127.02C234.904 127.02 234.52 126.984 234.16 126.948V128.016C234.532 127.98 234.856 127.968 235.312 127.968C235.876 127.968 238.984 127.968 240.028 127.968C240.004 128.856 239.428 132.504 239.224 133.548H240.304C240.472 132.492 241.036 128.904 241.168 127.692C241.18 127.596 241.216 127.416 241.264 127.296ZM232.816 133.224V134.328C233.176 134.292 233.536 134.268 233.872 134.268H241.96C242.212 134.268 242.644 134.28 242.968 134.328V133.224C242.656 133.26 242.332 133.296 241.96 133.296H233.872C233.536 133.296 233.164 133.284 232.816 133.224ZM245.08 129.804V130.98C245.464 130.956 246.1 130.932 246.76 130.932C247.648 130.932 252.436 130.932 253.348 130.932C253.876 130.932 254.38 130.968 254.632 130.98V129.804C254.356 129.828 253.936 129.876 253.336 129.876C252.448 129.876 247.636 129.876 246.76 129.876C246.076 129.876 245.452 129.84 245.08 129.804ZM265.185 125.856L264.609 126.036C264.849 126.492 265.125 127.212 265.293 127.716L265.893 127.512C265.725 127.032 265.413 126.288 265.185 125.856ZM266.385 125.484L265.797 125.664C266.049 126.12 266.313 126.804 266.505 127.344L267.105 127.14C266.925 126.66 266.613 125.928 266.385 125.484ZM264.045 129.708V126.864C264.045 126.396 264.093 126 264.105 125.88H263.025C263.049 126 263.085 126.396 263.085 126.864V129.78C263.085 133.14 261.993 134.172 259.809 135.012L260.625 135.768C263.361 134.544 264.045 132.9 264.045 129.708ZM259.725 125.964H258.657C258.693 126.228 258.705 126.576 258.705 126.828V131.232C258.705 131.688 258.669 132.192 258.657 132.312H259.713C259.701 132.192 259.665 131.664 259.665 131.232V126.828C259.665 126.408 259.713 126.072 259.725 125.964ZM256.209 128.292V129.324C256.353 129.312 256.893 129.288 257.421 129.288H265.365C265.893 129.288 266.337 129.3 266.469 129.324V128.304C266.301 128.328 265.893 128.364 265.365 128.364H257.421C256.905 128.364 256.317 128.304 256.209 128.292ZM268.845 129.804V130.98C269.229 130.956 269.865 130.932 270.525 130.932C271.413 130.932 276.201 130.932 277.113 130.932C277.641 130.932 278.145 130.968 278.397 130.98V129.804C278.121 129.828 277.701 129.876 277.101 129.876C276.213 129.876 271.401 129.876 270.525 129.876C269.841 129.876 269.217 129.84 268.845 129.804ZM284.337 128.58H286.209V130.092H284.337V128.58ZM284.337 130.788H286.209V132.312H284.337V130.788ZM284.337 126.384H286.209V127.872H284.337V126.384ZM283.557 125.64V133.056H287.025V125.64H283.557ZM285.645 133.644C286.053 134.28 286.497 135.132 286.689 135.648L287.385 135.228C287.193 134.736 286.713 133.908 286.305 133.296L285.645 133.644ZM287.973 126.168V133.248H288.765V126.168H287.973ZM289.977 125.088V134.892C289.977 135.072 289.917 135.132 289.737 135.132C289.569 135.132 289.029 135.144 288.417 135.12C288.537 135.36 288.657 135.744 288.693 135.972C289.545 135.972 290.061 135.948 290.373 135.804C290.685 135.672 290.805 135.408 290.805 134.88V125.088H289.977ZM284.241 133.308C283.953 133.968 283.353 134.868 282.765 135.384C282.969 135.516 283.269 135.756 283.413 135.9C283.977 135.348 284.625 134.448 285.033 133.692L284.241 133.308ZM282.417 124.992C281.841 126.84 280.893 128.688 279.837 129.888C279.993 130.116 280.233 130.596 280.317 130.812C281.505 129.408 282.573 127.296 283.257 125.22L282.417 124.992ZM281.457 127.932V135.96H282.309V127.128L282.285 127.104L281.457 127.932ZM296.937 125.568L295.869 125.508C295.893 125.724 295.893 125.94 295.857 126.36C295.725 128.016 295.161 131.604 295.161 132.888C295.161 134.844 296.481 135.564 298.101 135.564C300.477 135.564 302.073 134.472 302.073 132.684C302.073 131.664 301.665 130.824 300.837 129.912L299.781 130.14C300.669 130.884 301.101 131.772 301.101 132.576C301.101 133.824 299.937 134.616 298.113 134.616C296.745 134.616 296.085 133.908 296.085 132.744C296.085 131.448 296.625 127.752 296.781 126.408C296.829 126.144 296.865 125.892 296.937 125.568ZM293.097 127.164L293.037 128.04C294.093 128.328 295.533 128.508 296.589 128.508C297.561 128.508 298.269 128.472 299.037 128.4L299.061 127.488C298.353 127.596 297.525 127.644 296.613 127.644C295.545 127.644 294.105 127.488 293.097 127.164ZM292.797 130.152L292.749 131.064C293.841 131.4 295.293 131.544 296.601 131.544C297.405 131.544 298.149 131.52 298.953 131.436L298.965 130.524C298.125 130.644 297.297 130.668 296.469 130.668C295.365 130.668 293.961 130.56 292.797 130.152ZM312.273 129.492V126.648C312.273 126.18 312.321 125.796 312.333 125.676H311.241C311.265 125.784 311.301 126.18 311.301 126.648V129.564C311.301 132.936 310.221 133.968 308.037 134.796L308.841 135.564C311.577 134.328 312.273 132.684 312.273 129.492ZM307.941 125.748H306.873C306.909 126.024 306.933 126.36 306.933 126.612V131.016C306.933 131.472 306.885 131.988 306.873 132.096H307.941C307.929 131.988 307.893 131.46 307.893 131.016V126.612C307.893 126.204 307.929 125.856 307.941 125.748ZM304.437 128.076V129.108C304.569 129.108 305.109 129.072 305.637 129.072H313.593C314.121 129.072 314.553 129.096 314.685 129.108V128.088C314.517 128.112 314.121 128.16 313.581 128.16H305.637C305.133 128.16 304.545 128.088 304.437 128.076ZM316.845 129.804V130.98C317.229 130.956 317.865 130.932 318.525 130.932C319.413 130.932 324.201 130.932 325.113 130.932C325.641 130.932 326.145 130.968 326.397 130.98V129.804C326.121 129.828 325.701 129.876 325.101 129.876C324.213 129.876 319.401 129.876 318.525 129.876C317.841 129.876 317.217 129.84 316.845 129.804ZM336.369 125.604L335.733 125.88C336.057 126.336 336.453 127.056 336.693 127.536L337.341 127.248C337.101 126.756 336.669 126.036 336.369 125.604ZM337.677 125.124L337.053 125.4C337.389 125.844 337.785 126.528 338.037 127.044L338.685 126.756C338.457 126.312 338.001 125.568 337.677 125.124ZM330.981 126H329.865C329.913 126.288 329.937 126.684 329.937 126.972C329.937 127.62 329.937 132.42 329.937 133.572C329.937 134.556 330.453 134.976 331.365 135.144C331.869 135.228 332.577 135.252 333.297 135.252C334.605 135.252 336.405 135.168 337.449 135.012V133.908C336.441 134.172 334.605 134.292 333.333 134.292C332.745 134.292 332.133 134.268 331.749 134.196C331.173 134.088 330.909 133.932 330.909 133.308C330.909 132.444 330.909 127.62 330.909 126.972C330.909 126.636 330.945 126.288 330.981 126ZM330.465 129.792L330.477 130.788C331.953 130.416 334.329 129.72 335.817 129.12C336.177 128.976 336.609 128.784 336.957 128.64L336.537 127.68C336.189 127.896 335.841 128.064 335.481 128.232C334.089 128.82 331.917 129.48 330.465 129.792ZM349.221 126.984L348.621 126.516C348.429 126.576 348.105 126.612 347.721 126.612C347.265 126.612 343.557 126.612 343.089 126.612C342.717 126.612 342.033 126.564 341.877 126.54V127.62C342.009 127.608 342.657 127.56 343.089 127.56C343.497 127.56 347.337 127.56 347.769 127.56C347.457 128.556 346.581 129.984 345.765 130.908C344.529 132.276 342.765 133.716 340.821 134.46L341.589 135.264C343.485 134.4 345.201 132.972 346.545 131.472C347.541 130.368 348.453 128.688 348.933 127.5C348.993 127.344 349.149 127.08 349.221 126.984ZM346.701 130.848L346.017 131.52C347.313 132.66 348.717 134.196 349.581 135.336L350.409 134.604C349.593 133.608 347.997 131.928 346.701 130.848ZM358.389 126.816L357.393 126.792C357.273 128.04 357.021 129.396 356.673 130.536C356.061 132.564 355.413 133.38 354.849 133.38C354.309 133.38 353.625 132.708 353.625 131.196C353.625 129.432 355.269 127.26 357.909 127.26C360.213 127.26 361.545 128.844 361.545 130.764C361.545 132.84 360.033 133.992 358.497 134.34C358.209 134.4 357.849 134.448 357.465 134.484L358.017 135.372C360.873 135 362.529 133.32 362.529 130.812C362.529 128.376 360.741 126.396 357.933 126.396C354.993 126.396 352.677 128.664 352.677 131.268C352.677 133.26 353.745 134.484 354.825 134.484C355.929 134.484 356.889 133.212 357.621 130.752C357.993 129.468 358.233 128.064 358.389 126.816ZM19.7077 141.252V142.092H27.4117V141.252H19.7077ZM20.8957 144.024H26.1397V145.824H20.8957V144.024ZM20.0677 143.256V146.592H27.0157V143.256H20.0677ZM20.8117 146.832L20.0677 147.084C21.3397 149.28 23.7997 150.528 26.9797 150.984C27.0997 150.732 27.3277 150.372 27.5197 150.18C24.3997 149.832 21.9397 148.716 20.8117 146.832ZM23.0437 139.968V145.272C23.0437 147.3 22.8397 149.352 19.2757 150.252C19.4557 150.444 19.7077 150.804 19.8157 151.008C23.5357 149.904 23.9317 147.6 23.9317 145.284V139.968H23.0437ZM19.1917 139.896C18.4957 141.72 17.3197 143.508 16.1077 144.648C16.2757 144.864 16.5277 145.332 16.6117 145.536C17.9437 144.204 19.2277 142.188 20.0437 140.16L19.1917 139.896ZM17.9317 143.04V151.02H18.7957V142.2L18.7837 142.188L17.9317 143.04ZM30.2077 140.772V141.636H37.9717V140.772H30.2077ZM30.2077 143.568V144.42H37.9597V143.568H30.2077ZM30.1477 146.436V147.288H37.9837V146.436H30.1477ZM29.7037 140.772V145.116C29.7037 146.808 29.5717 148.944 28.2517 150.432C28.4437 150.552 28.8037 150.852 28.9477 151.032C30.3757 149.436 30.5917 146.952 30.5917 145.128V140.772H29.7037ZM37.6117 140.772V149.736C37.6117 149.964 37.5277 150.036 37.2997 150.048C37.0717 150.048 36.2557 150.06 35.4037 150.024C35.5357 150.264 35.6797 150.66 35.7157 150.9C36.8557 150.912 37.5517 150.9 37.9597 150.756C38.3557 150.6 38.4997 150.324 38.4997 149.736V140.772H37.6117ZM33.4717 141.096V150.852H34.3837V141.096H33.4717ZM43.6237 141.144V141.96H51.2677V141.144H43.6237ZM43.7797 143.928V150.768H44.6197V144.732H50.3077V150.696H51.1717V143.928H43.7797ZM45.8797 141.264V144.504H46.7317V141.264H45.8797ZM48.1117 141.264V144.504H48.9757V141.264H48.1117ZM44.1637 149.184V149.976H50.9197V149.184H44.1637ZM45.9517 144.48V149.784H46.7317V144.48H45.9517ZM48.1117 144.48V149.784H48.8917V144.48H48.1117ZM42.9037 139.956C42.2677 141.744 41.2117 143.508 40.0837 144.648C40.2517 144.864 40.5037 145.32 40.5877 145.524C41.8237 144.192 42.9757 142.2 43.7197 140.22L42.9037 139.956ZM41.7157 143.076V150.96H42.5677V142.248L42.5557 142.236L41.7157 143.076ZM56.0797 141.156V141.948H63.3037V141.156H56.0797ZM56.3317 149.556V150.36H63.3757V149.556H56.3317ZM59.4757 139.932C59.4157 141.012 59.2717 142.464 59.1397 143.34H59.9917C60.1357 142.488 60.2917 141.084 60.3757 139.98L59.4757 139.932ZM58.6957 145.284H61.7677V146.28H58.6957V145.284ZM58.6957 146.94H61.7677V147.936H58.6957V146.94ZM58.6957 143.652H61.7677V144.636H58.6957V143.652ZM57.8437 142.968V148.632H62.6317V142.968H57.8437ZM55.9357 143.568V150.948H56.7877V143.568H55.9357ZM55.0357 139.968C54.3637 141.792 53.2357 143.592 52.0477 144.756C52.2157 144.96 52.4677 145.44 52.5637 145.644C53.8597 144.3 55.0957 142.272 55.8877 140.232L55.0357 139.968ZM53.7877 143.064V150.948H54.6517V142.224L54.6277 142.212L53.7877 143.064ZM69.3877 140.52L68.4037 140.436C68.3677 141 68.1997 141.72 67.9357 142.38C67.5277 143.4 66.7237 144.792 64.9957 146.448L65.8237 147.06C66.2197 146.568 66.5557 146.136 66.9037 145.8C67.4557 145.308 68.2117 144.924 68.9797 144.924C69.6037 144.924 70.0837 145.248 70.0957 145.944C70.1077 146.568 70.0957 147.804 70.0477 148.44H70.9717C70.9597 147.696 70.9357 146.316 70.9357 145.692C70.9357 144.72 70.2157 144.168 69.2917 144.168C68.7637 144.168 68.0797 144.336 67.6117 144.612C68.0917 143.988 68.5357 143.184 68.8357 142.452C69.1477 141.648 69.2797 140.988 69.3877 140.52ZM65.2717 141.816V142.716C65.9437 142.764 66.7357 142.788 67.2517 142.788C68.7757 142.788 71.0077 142.68 72.6877 142.428V141.54C70.9957 141.84 68.9197 141.936 67.2997 141.936C66.7477 141.936 65.9197 141.9 65.2717 141.816ZM74.4397 144.708L74.0557 143.82C73.7197 143.988 73.4197 144.12 73.0597 144.288C72.2677 144.66 71.2957 145.032 70.1557 145.62C68.7277 146.352 67.2397 147.252 67.2397 148.716C67.2397 150.168 68.6197 150.54 70.3237 150.54C71.3677 150.54 72.6997 150.444 73.6117 150.336L73.6477 149.364C72.5917 149.556 71.2957 149.664 70.3597 149.664C69.1237 149.664 68.1997 149.52 68.1997 148.584C68.1997 147.756 69.0397 147.108 70.2277 146.484C71.3917 145.884 72.5317 145.428 73.3837 145.092C73.7077 144.972 74.1397 144.804 74.4397 144.708ZM76.6357 143.484V144.264H86.9677V143.484H76.6357ZM77.5597 141.348V142.104H84.3757V141.348H77.5597ZM80.6197 139.92V143.868H81.5077V139.92H80.6197ZM85.1197 145.032C83.8597 145.38 81.5797 145.68 79.6837 145.848C79.7677 146.004 79.8757 146.292 79.8997 146.472C81.8557 146.328 84.1957 146.052 85.7077 145.644L85.1197 145.032ZM85.7557 140.484C83.4997 143.244 79.8877 145.476 76.1437 146.772C76.3237 146.94 76.5997 147.3 76.7197 147.48C80.4157 146.064 84.0637 143.832 86.4877 140.892L85.7557 140.484ZM79.5517 145.056C79.3237 146.172 78.9517 147.672 78.6517 148.584L79.5517 148.704C79.8277 147.804 80.1877 146.328 80.4397 145.164L79.5517 145.056ZM84.7837 147.36L84.7717 147.48C84.5557 149.124 84.3037 149.856 84.0037 150.096C83.8837 150.192 83.7397 150.204 83.4877 150.204C83.1997 150.204 82.4197 150.192 81.6637 150.12C81.8197 150.36 81.9277 150.708 81.9517 150.948C82.6957 150.996 83.4037 151.008 83.7757 150.984C84.1957 150.972 84.4477 150.912 84.6997 150.684C85.0957 150.336 85.3597 149.544 85.6477 147.768C85.6717 147.624 85.6957 147.36 85.6957 147.36H84.7837ZM79.4197 147.36L79.2277 148.116H85.0237V147.36H79.4197ZM91.6117 140.544L91.4557 141.42C92.9197 141.684 95.0197 141.948 96.2197 142.056L96.3517 141.168C95.1997 141.108 92.9077 140.832 91.6117 140.544ZM96.5917 143.976L96.0157 143.316C95.8957 143.364 95.6437 143.424 95.4397 143.448C94.5277 143.568 91.7437 143.748 91.0477 143.772C90.6637 143.772 90.3157 143.772 90.0397 143.748L90.1237 144.792C90.3757 144.756 90.6877 144.708 91.0837 144.684C91.8157 144.624 93.8317 144.444 94.7797 144.396C93.6037 145.572 90.3397 148.848 89.8477 149.328C89.6197 149.556 89.4037 149.748 89.2477 149.868L90.1597 150.504C90.8437 149.64 92.1517 148.26 92.5957 147.84C92.8717 147.564 93.1597 147.396 93.4837 147.396C93.8197 147.396 94.0837 147.624 94.2157 148.044C94.3357 148.38 94.5037 149.088 94.6237 149.448C94.8877 150.24 95.4757 150.468 96.4477 150.468C97.0837 150.468 98.1877 150.384 98.6917 150.288L98.7637 149.28C98.1877 149.424 97.2757 149.532 96.4957 149.532C95.8717 149.532 95.5957 149.328 95.4517 148.872C95.3317 148.488 95.1637 147.876 95.0437 147.528C94.8757 147.036 94.5997 146.724 94.1437 146.676C94.0117 146.64 93.7957 146.64 93.6637 146.652C94.1197 146.184 95.4637 144.924 95.9197 144.504C96.0637 144.384 96.3637 144.132 96.5917 143.976ZM102.36 141.168L102.384 142.152C102.648 142.116 102.912 142.104 103.188 142.08C103.812 142.044 106.212 141.948 106.848 141.912C106.248 142.452 104.736 143.712 104.064 144.264C103.38 144.852 101.832 146.148 100.836 146.964L101.532 147.66C103.044 146.112 104.124 145.272 106.116 145.272C107.688 145.272 108.816 146.148 108.816 147.336C108.816 148.836 107.532 149.676 105.492 149.676C104.544 149.676 103.884 149.328 103.884 148.74C103.884 148.32 104.304 147.984 104.856 147.984C105.816 147.984 106.404 148.716 106.476 149.736L107.34 149.592C107.256 148.38 106.452 147.252 104.856 147.252C103.752 147.252 103.008 147.996 103.008 148.812C103.008 149.82 104.004 150.528 105.636 150.528C108.18 150.528 109.776 149.268 109.776 147.336C109.776 145.716 108.348 144.528 106.356 144.528C105.816 144.528 105.24 144.588 104.688 144.768C105.624 144 107.256 142.596 107.844 142.14C108.072 141.96 108.312 141.804 108.528 141.66L107.976 140.952C107.844 141 107.676 141.024 107.316 141.06C106.68 141.12 103.836 141.204 103.2 141.204C102.96 141.204 102.624 141.192 102.36 141.168ZM116.556 141.36V142.152H122.556V141.36H116.556ZM116.04 143.688V144.492H123.072V143.688H116.04ZM116.1 145.86V146.664H122.94V145.86H116.1ZM119.076 139.92V144.18H119.964V139.92H119.076ZM120.66 144.372V149.88C120.66 150.06 120.6 150.108 120.396 150.12C120.204 150.132 119.532 150.132 118.788 150.108C118.92 150.348 119.064 150.708 119.1 150.948C120.06 150.948 120.672 150.936 121.044 150.804C121.416 150.672 121.536 150.408 121.536 149.892V144.372H120.66ZM116.832 147.504C117.444 148.128 118.092 149.028 118.356 149.616L119.136 149.136C118.848 148.548 118.176 147.696 117.552 147.072L116.832 147.504ZM112.836 140.712V141.528H114.996V147.78H112.836V148.596H115.836V140.712H112.836ZM112.872 144.204V145.008H115.392V144.204H112.872ZM112.404 140.712V149.58H113.256V140.712H112.404ZM127.668 147.276V147.972H131.304V147.276H127.668ZM127.632 145.464V146.172H130.872V149.148H127.632V149.844H131.724V145.464H127.632ZM127.236 145.464V150.456H128.064V145.464H127.236ZM125.028 142.14V142.8H128.364V142.14H125.028ZM130.56 142.14V142.8H133.956V142.14H130.56ZM133.584 140.436V149.772C133.584 149.976 133.512 150.048 133.296 150.048C133.08 150.06 132.348 150.072 131.616 150.036C131.748 150.288 131.892 150.708 131.928 150.96C132.936 150.96 133.584 150.948 133.968 150.804C134.352 150.648 134.484 150.348 134.484 149.772V140.436H133.584ZM125.1 140.436V141.132H128.088V143.868H125.1V144.564H128.94V140.436H125.1ZM134.028 140.436H130.02V144.576H134.028V143.892H130.884V141.132H134.028V140.436ZM124.584 140.436V150.972H125.472V140.436H124.584ZM141.024 140.52L140.04 140.436C140.004 141 139.836 141.72 139.572 142.38C139.164 143.4 138.36 144.792 136.632 146.448L137.46 147.06C137.856 146.568 138.192 146.136 138.54 145.8C139.092 145.308 139.848 144.924 140.616 144.924C141.24 144.924 141.72 145.248 141.732 145.944C141.744 146.568 141.732 147.804 141.684 148.44H142.608C142.596 147.696 142.572 146.316 142.572 145.692C142.572 144.72 141.852 144.168 140.928 144.168C140.4 144.168 139.716 144.336 139.248 144.612C139.728 143.988 140.172 143.184 140.472 142.452C140.784 141.648 140.916 140.988 141.024 140.52ZM136.908 141.816V142.716C137.58 142.764 138.372 142.788 138.888 142.788C140.412 142.788 142.644 142.68 144.324 142.428V141.54C142.632 141.84 140.556 141.936 138.936 141.936C138.384 141.936 137.556 141.9 136.908 141.816ZM146.076 144.708L145.692 143.82C145.356 143.988 145.056 144.12 144.696 144.288C143.904 144.66 142.932 145.032 141.792 145.62C140.364 146.352 138.876 147.252 138.876 148.716C138.876 150.168 140.256 150.54 141.96 150.54C143.004 150.54 144.336 150.444 145.248 150.336L145.284 149.364C144.228 149.556 142.932 149.664 141.996 149.664C140.76 149.664 139.836 149.52 139.836 148.584C139.836 147.756 140.676 147.108 141.864 146.484C143.028 145.884 144.168 145.428 145.02 145.092C145.344 144.972 145.776 144.804 146.076 144.708ZM153.348 141.936L152.928 142.8H159.036V141.936H153.348ZM154.848 144.54V145.368H158.76V144.54H154.848ZM154.836 147.18V148.032H158.928V147.18H154.836ZM154.392 142.212V150.96H155.316V142.212H154.392ZM153.804 140.064C153.216 141.828 152.244 143.58 151.152 144.696C151.356 144.84 151.716 145.164 151.848 145.32C152.952 144.084 153.996 142.2 154.68 140.292L153.804 140.064ZM150.924 139.968C150.24 141.792 149.124 143.592 147.924 144.756C148.092 144.972 148.368 145.452 148.452 145.668C149.76 144.324 150.996 142.272 151.788 140.244L150.924 139.968ZM149.64 143.064V150.948H150.552V142.176L150.528 142.164L149.64 143.064ZM162.36 141.168L162.384 142.152C162.648 142.116 162.912 142.104 163.188 142.08C163.812 142.044 166.212 141.948 166.848 141.912C166.248 142.452 164.736 143.712 164.064 144.264C163.38 144.852 161.832 146.148 160.836 146.964L161.532 147.66C163.044 146.112 164.124 145.272 166.116 145.272C167.688 145.272 168.816 146.148 168.816 147.336C168.816 148.836 167.532 149.676 165.492 149.676C164.544 149.676 163.884 149.328 163.884 148.74C163.884 148.32 164.304 147.984 164.856 147.984C165.816 147.984 166.404 148.716 166.476 149.736L167.34 149.592C167.256 148.38 166.452 147.252 164.856 147.252C163.752 147.252 163.008 147.996 163.008 148.812C163.008 149.82 164.004 150.528 165.636 150.528C168.18 150.528 169.776 149.268 169.776 147.336C169.776 145.716 168.348 144.528 166.356 144.528C165.816 144.528 165.24 144.588 164.688 144.768C165.624 144 167.256 142.596 167.844 142.14C168.072 141.96 168.312 141.804 168.528 141.66L167.976 140.952C167.844 141 167.676 141.024 167.316 141.06C166.68 141.12 163.836 141.204 163.2 141.204C162.96 141.204 162.624 141.192 162.36 141.168ZM178.704 140.112V150.144H179.616V140.112H178.704ZM175.272 143.736V144.6H183.084V143.736H175.272ZM175.572 149.592V150.468H182.88V149.592H175.572ZM173.724 143.196V150.936H174.612V142.32L174.6 142.308L173.724 143.196ZM175.068 139.956C174.324 141.84 173.076 143.676 171.78 144.864C171.948 145.068 172.224 145.536 172.32 145.728C173.724 144.384 175.068 142.32 175.932 140.22L175.068 139.956ZM189.804 143.628V144.456H193.692V143.628H189.804ZM189.804 146.676V147.492H193.692V146.676H189.804ZM189.336 140.604V150.312H190.212V141.42H193.272V150.312H194.172V140.604H189.336ZM188.076 149.796V150.624H195.096V149.796H188.076ZM185.844 139.932C185.532 140.724 184.98 141.876 184.524 142.572L185.148 142.836C185.616 142.188 186.192 141.12 186.648 140.232L185.844 139.932ZM187.296 141.3C186.636 142.572 185.496 144.372 184.572 145.44L185.148 145.74C186.06 144.708 187.236 142.98 188.076 141.636L187.296 141.3ZM183.948 142.452C184.596 143.028 185.352 143.856 185.676 144.42L186.156 143.736C185.832 143.208 185.076 142.416 184.404 141.852L183.948 142.452ZM186.912 144.084C187.404 144.876 187.884 145.92 188.064 146.592L188.784 146.256C188.604 145.596 188.088 144.564 187.584 143.796L186.912 144.084ZM183.924 145.296L183.996 146.1C185.136 146.04 186.66 145.956 188.184 145.86V145.128C186.6 145.2 185.004 145.26 183.924 145.296ZM187.212 146.952C187.548 147.696 187.872 148.668 187.98 149.292L188.712 149.04C188.58 148.416 188.244 147.468 187.896 146.736L187.212 146.952ZM184.584 146.784C184.44 147.84 184.2 148.908 183.804 149.64C183.996 149.724 184.356 149.892 184.512 149.988C184.896 149.22 185.196 148.056 185.364 146.928L184.584 146.784ZM185.964 145.644V150.996H186.78V145.644H185.964ZM198.18 141.204L198.216 142.188C198.504 142.152 198.852 142.116 199.116 142.104C199.656 142.08 201.12 142.008 201.6 141.996C201.192 142.848 200.652 144.084 200.172 145.128C199.716 146.136 199.176 147.528 198.684 148.176C198.432 148.5 198.228 148.596 197.952 148.596C197.58 148.596 197.232 148.32 197.232 147.78C197.232 146.676 198.372 145.56 200.364 145.56C202.836 145.56 205.032 146.892 206.436 148.104L206.88 147.084C205.584 146.16 203.208 144.72 200.508 144.72C198.072 144.72 196.368 146.1 196.368 147.912C196.368 148.908 197.028 149.556 197.916 149.556C198.54 149.556 199.008 149.328 199.428 148.716C199.944 147.972 200.604 146.34 201.084 145.284C201.636 144.048 202.296 142.512 202.68 141.888C202.776 141.732 202.872 141.612 202.992 141.48L202.392 141C202.224 141.06 202.02 141.108 201.792 141.12C201.288 141.168 199.716 141.24 199.08 141.24C198.828 141.24 198.48 141.228 198.18 141.204ZM205.68 143.832L204.696 143.724C204.732 144.072 204.72 144.48 204.696 144.84C204.564 146.616 204.048 148.884 201.228 150.072L202.02 150.732C204.816 149.328 205.512 147.252 205.68 143.832ZM212.592 140.688L211.476 140.568C211.476 141.492 211.32 142.572 211.092 143.532C210.768 144.996 209.808 148.2 208.44 150.036L209.424 150.42C210.78 148.236 211.632 145.248 212.04 143.556C212.208 142.812 212.364 141.828 212.448 141.396C212.496 141.168 212.544 140.904 212.592 140.688ZM216.72 142.068L215.844 142.464C216.684 143.46 217.632 145.548 217.98 146.772L218.916 146.328C218.508 145.224 217.464 143.04 216.72 142.068ZM208.272 143.316L208.368 144.36C208.68 144.312 209.172 144.252 209.448 144.216C210.18 144.144 212.436 143.868 213.24 143.868C214.008 143.868 214.512 144.072 214.512 145.176C214.512 146.472 214.32 148.032 213.936 148.848C213.696 149.364 213.336 149.46 212.892 149.46C212.556 149.46 211.92 149.376 211.416 149.22L211.584 150.216C211.956 150.312 212.532 150.396 212.988 150.396C213.768 150.396 214.368 150.192 214.74 149.388C215.244 148.392 215.436 146.484 215.436 145.056C215.436 143.436 214.56 143.028 213.492 143.028C212.676 143.028 210.24 143.292 209.34 143.316C208.956 143.328 208.644 143.34 208.272 143.316ZM216.852 140.328L216.204 140.604C216.54 141.06 216.948 141.78 217.188 142.272L217.836 141.984C217.584 141.492 217.152 140.76 216.852 140.328ZM218.172 139.848L217.536 140.124C217.884 140.568 218.28 141.252 218.532 141.78L219.192 141.492C218.952 141.048 218.496 140.292 218.172 139.848ZM223.188 142.836V149.268C223.188 150.528 223.56 150.864 224.868 150.864C225.168 150.864 227.004 150.864 227.316 150.864C228.624 150.864 228.9 150.216 229.044 148.056C228.78 147.996 228.396 147.828 228.168 147.66C228.072 149.568 227.964 149.964 227.268 149.964C226.836 149.964 225.276 149.964 224.94 149.964C224.268 149.964 224.124 149.856 224.124 149.292V142.836H223.188ZM223.212 140.592C224.22 141.288 225.54 142.296 226.236 142.908L226.836 142.176C226.14 141.612 224.832 140.628 223.8 139.956L223.212 140.592ZM221.268 143.556C221.028 144.864 220.56 146.496 219.876 147.54L220.728 147.888C221.4 146.832 221.844 145.104 222.108 143.772L221.268 143.556ZM228.36 144.336C229.164 145.536 229.98 147.156 230.28 148.224L231.144 147.792C230.808 146.736 230.004 145.164 229.164 143.964L228.36 144.336ZM228.996 140.64C227.256 144.192 224.028 147.66 219.888 149.544C220.08 149.724 220.344 150.048 220.476 150.252C224.748 148.212 227.916 144.756 229.884 141.012L228.996 140.64ZM232.044 146.484V147.24H242.964V146.484H232.044ZM232.332 140.448V141.24H242.664V140.448H232.332ZM236.208 145.224C235.464 146.4 234.348 148.008 233.58 148.98L234.432 149.268C235.2 148.284 236.304 146.712 237.084 145.464L236.208 145.224ZM239.808 146.748C238.848 149.088 236.496 149.94 232.212 150.168C232.356 150.372 232.5 150.696 232.56 150.96C237.06 150.624 239.616 149.64 240.672 147L239.808 146.748ZM234.228 148.86C237.276 149.424 240.216 150.24 242.052 150.996L242.592 150.264C240.732 149.532 237.648 148.728 234.684 148.2L234.228 148.86ZM235.608 140.748V144.936H236.46V140.748H235.608ZM238.404 140.748V144.936H239.256V140.748H238.404ZM233.772 143.004H241.26V144.636H233.772V143.004ZM232.932 142.272V145.38H242.16V142.272H232.932Z" fill="black"/>
</svg>
