<svg width="45" height="45" viewBox="0 0 45 45" fill="none" xmlns="http://www.w3.org/2000/svg">
<g clip-path="url(#clip0_249_1351)">
<path d="M7.96872 3.62707e-06H37.0312C38.078 -0.00100824 39.1146 0.209704 40.0819 0.620081C41.0492 1.03046 41.928 1.63244 42.6682 2.39159C43.4083 3.15073 43.9953 4.05212 44.3954 5.04418C44.7955 6.03624 45.001 7.09949 45 8.17308V36.8269C45.001 37.9005 44.7955 38.9638 44.3954 39.9558C43.9953 40.9479 43.4083 41.8493 42.6682 42.6084C41.928 43.3676 41.0492 43.9696 40.0819 44.3799C39.1146 44.7903 38.078 45.001 37.0312 45H7.96872C6.92198 45.001 5.88531 44.7903 4.91805 44.3799C3.95079 43.9696 3.07193 43.3676 2.33177 42.6084C1.5916 41.8493 1.00467 40.9479 0.604549 39.9558C0.204431 38.9638 -0.00101355 37.9005 -2.69812e-05 36.8269V8.17308C-0.00101355 7.09949 0.204431 6.03624 0.604549 5.04418C1.00467 4.05212 1.5916 3.15073 2.33177 2.39159C3.07193 1.63244 3.95079 1.03046 4.91805 0.620081C5.88531 0.209704 6.92198 -0.00100824 7.96872 3.62707e-06Z" fill="white"/>
<path d="M17.8125 36.9231C20.4013 36.9231 22.5 34.7706 22.5 32.1154V27.3077H17.8125C15.2237 27.3077 13.125 29.4602 13.125 32.1154C13.125 34.7706 15.2237 36.9231 17.8125 36.9231Z" fill="#0ACF83"/>
<path d="M13.125 22.5C13.125 19.8447 15.2237 17.6923 17.8125 17.6923H22.5V27.3076H17.8125C15.2237 27.3076 13.125 25.1552 13.125 22.5Z" fill="#A259FF"/>
<path d="M13.125 12.8846C13.125 10.2294 15.2237 8.0769 17.8125 8.0769H22.5V17.6923H17.8125C15.2237 17.6923 13.125 15.5398 13.125 12.8846Z" fill="#F24E1E"/>
<path d="M22.5 8.0769H27.1875C29.7763 8.0769 31.875 10.2294 31.875 12.8846C31.875 15.5398 29.7763 17.6923 27.1875 17.6923H22.5V8.0769Z" fill="#FF7262"/>
<path d="M31.875 22.5C31.875 25.1552 29.7763 27.3076 27.1875 27.3076C24.5987 27.3076 22.5 25.1552 22.5 22.5C22.5 19.8447 24.5987 17.6923 27.1875 17.6923C29.7763 17.6923 31.875 19.8447 31.875 22.5Z" fill="#1ABCFE"/>
</g>
<defs>
<clipPath id="clip0_249_1351">
<rect width="45" height="45" fill="white"/>
</clipPath>
</defs>
</svg>
