<svg width="98" height="45" viewBox="0 0 98 45" fill="none" xmlns="http://www.w3.org/2000/svg">
<path fill-rule="evenodd" clip-rule="evenodd" d="M6.24772 40.5016L2.63672 0H42.3154L38.7006 40.4953L22.4518 45L6.24772 40.5016Z" fill="#E44D26"/>
<path fill-rule="evenodd" clip-rule="evenodd" d="M22.4761 41.5567L35.6059 37.9166L38.695 3.31152H22.4761V41.5567Z" fill="#F16529"/>
<path d="M15.9029 18.3334H22.476V23.3007H11.36L10.0203 8.2793H22.476V13.2467H15.449L15.9029 18.3334Z" fill="#EBEBEB"/>
<path d="M22.4543 31.2399L22.476 31.2341V36.4023L22.4532 36.4086L12.2779 33.5839L11.582 25.7844H16.5684L16.9221 29.7461L22.4543 31.2399Z" fill="#EBEBEB"/>
<path d="M22.459 8.2793H34.9023L34.4575 13.2467H22.459V8.2793Z" fill="white"/>
<path d="M22.459 23.3007V18.3334H34.0055L33.8843 19.6672L32.6423 33.5839L22.459 36.4062V31.2383L27.9992 29.743L28.5757 23.3007H22.459Z" fill="white"/>
<path fill-rule="evenodd" clip-rule="evenodd" d="M59.2478 40.5014L55.6367 0H95.3171L91.7021 40.4948L75.4529 45L59.2478 40.5014Z" fill="#0071BC"/>
<path fill-rule="evenodd" clip-rule="evenodd" d="M75.5103 41.5544L88.6241 37.9467L91.6967 3.37305H75.5103V41.5544Z" fill="#29ABE2"/>
<path fill-rule="evenodd" clip-rule="evenodd" d="M63.9026 18.2532L64.3376 23.2133L75.5103 18.2532V13.2852L63.9026 18.2532Z" fill="#B3B3B3"/>
<path fill-rule="evenodd" clip-rule="evenodd" d="M87.8844 7.98145L75.5103 13.2846V18.2527L87.4577 12.9415L87.8844 7.98145Z" fill="#E6E6E6"/>
<path fill-rule="evenodd" clip-rule="evenodd" d="M75.5102 31.2306L75.4719 31.2363L69.931 29.7483L69.569 25.792H64.5823L65.2782 33.5862L75.4708 36.4084L75.5102 36.399V31.2306Z" fill="#E6E6E6"/>
<path fill-rule="evenodd" clip-rule="evenodd" d="M75.5103 18.2529V23.213H81.5766L81.0252 29.6978L75.5103 31.2351V36.4031L85.669 33.581L87.0067 18.2529H75.5103Z" fill="white"/>
<path fill-rule="evenodd" clip-rule="evenodd" d="M75.5103 18.2529H63.9026L64.3376 23.213H75.5103V18.2529Z" fill="#E6E6E6"/>
<path fill-rule="evenodd" clip-rule="evenodd" d="M75.5103 12.9415V7.98145H75.4599H63.0208L63.4609 12.9415H75.5103Z" fill="#E6E6E6"/>
<path fill-rule="evenodd" clip-rule="evenodd" d="M75.5103 7.98145V12.8793V12.9415H87.4577L87.8844 7.98145H75.5103Z" fill="white"/>
</svg>
