<svg width="45" height="45" viewBox="0 0 45 45" fill="none" xmlns="http://www.w3.org/2000/svg">
<g clip-path="url(#clip0_249_2219)">
<path d="M7.96875 3.62707e-06H37.0313C38.078 -0.00100824 39.1147 0.209704 40.0819 0.620081C41.0492 1.03046 41.9281 1.63244 42.6682 2.39159C43.4084 3.15073 43.9953 4.05212 44.3954 5.04418C44.7956 6.03624 45.001 7.09949 45 8.17308V36.8269C45.001 37.9005 44.7956 38.9638 44.3954 39.9558C43.9953 40.9479 43.4084 41.8493 42.6682 42.6084C41.9281 43.3676 41.0492 43.9696 40.0819 44.3799C39.1147 44.7903 38.078 45.001 37.0313 45H7.96875C6.92201 45.001 5.88534 44.7903 4.91808 44.3799C3.95082 43.9696 3.07196 43.3676 2.3318 42.6084C1.59163 41.8493 1.0047 40.9479 0.604579 39.9558C0.204461 38.9638 -0.000983032 37.9005 3.53639e-06 36.8269V8.17308C-0.000983032 7.09949 0.204461 6.03624 0.604579 5.04418C1.0047 4.05212 1.59163 3.15073 2.3318 2.39159C3.07196 1.63244 3.95082 1.03046 4.91808 0.620081C5.88534 0.209704 6.92201 -0.00100824 7.96875 3.62707e-06Z" fill="#330000"/>
<path d="M21.8061 26.9993H14.8311L13.4061 31.5186C13.3902 31.6009 13.3448 31.6742 13.2789 31.724C13.213 31.7738 13.1313 31.7966 13.0499 31.7878H9.52489C9.31864 31.7878 9.26239 31.6724 9.31864 31.4416L15.3561 13.6147C15.4124 13.4224 15.4686 13.2109 15.5436 12.9801C15.6191 12.5679 15.6568 12.1494 15.6561 11.7301C15.6505 11.6819 15.6629 11.6334 15.6907 11.5941C15.7185 11.5549 15.7597 11.5279 15.8061 11.5186H20.6624C20.8124 11.5186 20.8874 11.5762 20.9061 11.6724L27.7499 31.4801C27.8061 31.6916 27.7499 31.7878 27.5624 31.7878H23.6436C23.5774 31.7943 23.511 31.7767 23.4561 31.738C23.4012 31.6993 23.3614 31.6421 23.3436 31.5762L21.8061 26.9993ZM15.9186 23.0955H20.6811C20.5686 22.6916 20.4186 22.2109 20.2499 21.7109C20.0811 21.2109 19.9124 20.6339 19.7436 20.057C19.5749 19.4801 19.3874 18.8839 19.1999 18.2878C19.0124 17.6916 18.8436 17.1339 18.6936 16.5762C18.5436 16.0186 18.4124 15.5378 18.2811 15.0762H18.2436C18.0751 15.9144 17.8623 16.7426 17.6061 17.557C17.3249 18.4801 17.0436 19.4416 16.7436 20.4032C16.4811 21.3839 16.1999 22.2878 15.9186 23.0955Z" fill="#FF9A00"/>
<path d="M31.8374 14.8075C31.5297 14.8144 31.2236 14.7584 30.9371 14.6429C30.6507 14.5273 30.3894 14.3545 30.1687 14.1344C29.7391 13.6526 29.5103 13.0177 29.5312 12.3652C29.5201 12.0472 29.5745 11.7305 29.6908 11.4356C29.8071 11.1407 29.9827 10.8742 30.2062 10.6536C30.6569 10.2167 31.2548 9.97554 31.8749 9.98054C32.6062 9.98054 33.1687 10.2113 33.5812 10.6536C33.9966 11.1199 34.2185 11.7338 34.1999 12.3652C34.2114 12.6901 34.1592 13.014 34.0465 13.3179C33.9338 13.6218 33.7628 13.8994 33.5437 14.1344C33.3228 14.3652 33.0561 14.5447 32.7618 14.6608C32.4674 14.7769 32.1522 14.8269 31.8374 14.8075ZM29.7374 31.4998V16.6921C29.7374 16.4998 29.8124 16.4229 29.9812 16.4229H33.6937C33.8624 16.4229 33.9374 16.519 33.9374 16.6921V31.4998C33.9374 31.7113 33.8624 31.8075 33.6937 31.8075H30.0187C29.9793 31.8108 29.9397 31.805 29.9028 31.7904C29.8659 31.7758 29.8327 31.7529 29.8056 31.7233C29.7786 31.6937 29.7584 31.6582 29.7466 31.6195C29.7348 31.5808 29.7317 31.5399 29.7374 31.4998Z" fill="#FF9A00"/>
</g>
<defs>
<clipPath id="clip0_249_2219">
<rect width="45" height="45" fill="white"/>
</clipPath>
</defs>
</svg>
