<svg width="748" height="233" viewBox="0 0 748 233" fill="none" xmlns="http://www.w3.org/2000/svg">
<path d="M581.376 232.922C576.414 232.876 571.644 230.994 567.989 227.637L549.255 209.915C550.6 212.028 551.392 214.446 551.558 216.946C551.723 219.445 551.258 221.947 550.204 224.219C548.919 226.879 546.896 229.114 544.377 230.657C541.858 232.199 538.948 232.986 535.995 232.922H406.245C402.282 232.988 398.433 231.597 395.429 229.013C392.425 226.428 390.474 222.831 389.947 218.903L385.77 183.427C385.529 181.443 385.691 179.43 386.244 177.509C385.247 175.72 384.613 173.752 384.377 171.718L383.839 167.192L379.883 208.523C379.604 211.229 378.69 213.832 377.217 216.119C375.743 218.406 373.751 220.314 371.402 221.688C367.668 224.378 363.744 227.067 359.788 229.726C356.297 231.838 352.285 232.934 348.205 232.89H311.622C308.746 232.893 305.92 232.14 303.426 230.707C300.772 232.142 297.803 232.892 294.786 232.89H235.196C232.262 232.956 229.371 232.184 226.86 230.665C224.349 229.146 222.323 226.943 221.019 224.314C219.801 221.717 219.344 218.828 219.703 215.983C220.061 213.137 221.22 210.451 223.044 208.238L256.716 166.243H248.076L191.113 215.105C188.823 217.077 186.225 218.66 183.423 219.789C174.15 223.523 164.435 227.352 154.34 231.118C151.383 232.265 148.239 232.855 145.067 232.859H51.2042C47.8994 232.939 44.6643 231.901 42.0225 229.914C39.3806 227.927 37.4866 225.107 36.6469 221.909C35.8328 218.542 36.192 214.997 37.665 211.861C39.138 208.725 41.6367 206.186 44.7483 204.662L120.984 162.097C124.35 160.124 128.161 159.036 132.061 158.933H156.935C156.352 157.86 155.895 156.724 155.574 155.547C154.909 152.952 153.517 144.027 164.023 138.173L207.632 113.805C210.758 111.84 214.353 110.748 218.044 110.64H236.019L241.842 106.906C245.105 104.687 248.914 103.406 252.855 103.204H292.286L295.926 112.698C295.926 113.046 296.147 113.362 296.242 113.71C297.665 112.732 299.221 111.965 300.862 111.432L302.002 110.007C303.558 107.961 305.555 106.293 307.845 105.126C310.136 103.959 312.66 103.323 315.23 103.267H342.414C345.084 103.261 347.707 103.972 350.009 105.324C351.411 103.16 353.32 101.372 355.57 100.115C357.82 98.8572 360.344 98.1684 362.921 98.1084H366.339C367.702 98.3194 369.09 98.3194 370.453 98.1084H373.617C375.727 98.1131 377.813 98.5573 379.742 99.4128C381.671 100.268 383.4 101.516 384.82 103.077C385.35 103.674 385.837 104.309 386.276 104.976C388.405 103.859 390.771 103.273 393.175 103.267H452.417C455.834 103.306 459.153 104.413 461.911 106.431L463.145 103.267H473.082H501.374H502.64H508.558H533.4C537.059 103.386 540.62 104.479 543.717 106.431L696.79 191.877C700.64 193.688 703.811 196.681 705.841 200.421C707.882 204.687 709.606 209.098 710.999 213.618C711.668 215.808 711.816 218.125 711.431 220.383C711.047 222.641 710.14 224.778 708.784 226.624C707.217 228.653 705.194 230.283 702.88 231.382C700.565 232.482 698.023 233.021 695.461 232.954L581.376 232.922Z" fill="#231815"/>
<path d="M583.465 224.915C578.451 224.878 573.633 222.97 569.952 219.567L550.964 201.687C552.323 203.818 553.122 206.258 553.288 208.781C553.454 211.303 552.981 213.826 551.913 216.118C550.626 218.81 548.588 221.073 546.045 222.634C543.501 224.195 540.561 224.987 537.577 224.915H406.53C402.53 224.982 398.645 223.579 395.612 220.971C392.579 218.364 390.608 214.734 390.074 210.769L385.833 174.946C385.625 172.94 385.786 170.913 386.308 168.965C385.32 167.151 384.696 165.163 384.472 163.11L383.934 158.553L379.883 200.294C379.588 203.025 378.659 205.648 377.17 207.956C375.681 210.264 373.673 212.192 371.307 213.586C367.541 216.308 363.586 219.029 359.567 221.687C356.041 223.827 351.981 224.924 347.857 224.852H310.989C308.081 224.87 305.22 224.116 302.698 222.668C300.022 224.104 297.032 224.854 293.995 224.852H233.867C230.914 224.914 228.003 224.135 225.476 222.605C222.949 221.076 220.909 218.858 219.595 216.213C218.344 213.596 217.87 210.676 218.229 207.799C218.588 204.921 219.765 202.207 221.62 199.978L255.64 157.572H246.969L189.309 206.94C186.988 208.933 184.359 210.537 181.524 211.687C172.03 215.453 162.283 219.314 152.125 223.111C149.097 224.28 145.876 224.871 142.631 224.852H47.9447C44.6071 224.934 41.3392 223.889 38.669 221.885C35.9988 219.881 34.0823 217.035 33.2291 213.808C32.4127 210.407 32.7798 206.829 34.2699 203.665C35.7599 200.501 38.2839 197.939 41.4255 196.402L118.421 153.584C121.808 151.529 125.665 150.374 129.624 150.23H154.751C154.144 149.158 153.686 148.008 153.39 146.812C152.694 144.217 151.302 135.198 161.903 129.312L205.828 104.564C208.98 102.579 212.611 101.485 216.335 101.4H234.5L240.386 97.602C243.682 95.3727 247.521 94.0819 251.494 93.8677H291.337L295.008 103.362C295.008 103.71 295.229 104.058 295.324 104.406C296.753 103.412 298.321 102.633 299.976 102.096L301.147 100.64C302.72 98.5761 304.737 96.8926 307.049 95.7147C309.36 94.5368 311.908 93.8947 314.502 93.8361H341.971C344.666 93.8256 347.313 94.5477 349.63 95.9248C351.036 93.7321 352.962 91.9203 355.236 90.6506C357.511 89.3808 360.063 88.6923 362.668 88.646H366.149C366.834 88.5978 367.521 88.5978 368.206 88.646C368.901 88.5988 369.599 88.5988 370.295 88.646H373.459C375.588 88.6415 377.693 89.0844 379.639 89.9457C381.586 90.8071 383.329 92.0678 384.757 93.6462C385.297 94.2432 385.794 94.8777 386.244 95.5449C388.404 94.4207 390.803 93.8345 393.238 93.8361H453.05C456.467 93.8777 459.785 94.9839 462.544 97.0007L463.778 93.8361H473.842H502.323H503.589H509.57H534.666C538.357 93.9418 541.952 95.0346 545.077 97.0007L699.702 183.364C703.566 185.231 706.735 188.279 708.753 192.066C710.809 196.377 712.554 200.829 713.974 205.39C714.639 207.603 714.782 209.941 714.393 212.22C714.003 214.499 713.09 216.656 711.727 218.523C710.141 220.561 708.096 222.196 705.759 223.296C703.423 224.396 700.859 224.929 698.278 224.852L583.465 224.915Z" fill="#231815"/>
<path d="M585.585 216.877C580.529 216.835 575.668 214.918 571.945 211.497L552.957 193.427C554.324 195.585 555.128 198.052 555.294 200.601C555.459 203.15 554.983 205.7 553.907 208.016C552.583 210.719 550.517 212.987 547.95 214.557C545.382 216.126 542.421 216.931 539.413 216.877H406.846C402.805 216.944 398.88 215.524 395.817 212.887C392.754 210.25 390.766 206.579 390.232 202.573L385.959 166.243C385.735 164.227 385.896 162.186 386.434 160.23C385.451 158.402 384.817 156.405 384.567 154.344L384.029 149.724L379.883 191.972C379.587 194.73 378.648 197.381 377.142 199.711C375.636 202.041 373.605 203.986 371.212 205.39C367.415 208.143 363.427 210.896 359.376 213.586C355.802 215.722 351.703 216.818 347.541 216.751H310.261C307.321 216.753 304.431 215.99 301.875 214.536C299.184 215.996 296.17 216.758 293.109 216.751H232.379C229.39 216.81 226.445 216.021 223.885 214.475C221.325 212.929 219.256 210.69 217.917 208.016C216.661 205.37 216.191 202.42 216.561 199.514C216.931 196.609 218.127 193.87 220.006 191.624L254.342 148.774H245.544L187.283 198.649C184.952 200.668 182.299 202.283 179.435 203.428C169.941 207.257 159.973 211.149 149.751 215.01C146.718 216.161 143.501 216.751 140.257 216.751H44.6532C41.2799 216.828 37.9787 215.769 35.2808 213.742C32.5829 211.716 30.6451 208.841 29.7794 205.58C28.9749 202.155 29.3609 198.559 30.8738 195.384C32.3867 192.208 34.9363 189.643 38.1024 188.111L115.858 144.66C119.285 142.592 123.186 141.437 127.187 141.306H152.504C151.892 140.21 151.424 139.04 151.112 137.825C150.447 135.198 149.023 126.084 159.719 120.134L204.246 95.2604C207.434 93.2774 211.094 92.1847 214.847 92.0957H233.202L239.12 88.2664C242.454 86.0143 246.337 84.7125 250.355 84.5005H290.577L294.311 94.1526C294.436 94.484 294.541 94.8221 294.628 95.1653C296.075 94.1642 297.665 93.3855 299.343 92.8552L300.514 91.3679C302.101 89.2842 304.137 87.5848 306.471 86.3959C308.805 85.2071 311.377 84.5592 313.995 84.5005H341.908C344.626 84.4961 347.294 85.229 349.629 86.621C351.058 84.4061 353.008 82.5755 355.309 81.2899C357.61 80.0043 360.191 79.303 362.826 79.2473H366.307C367.002 79.1978 367.7 79.1978 368.396 79.2473C369.102 79.1999 369.81 79.1999 370.516 79.2473H373.68C375.832 79.2507 377.959 79.7027 379.927 80.5746C381.894 81.4464 383.657 82.7188 385.105 84.3107C385.652 84.9125 386.15 85.558 386.592 86.241C388.773 85.1099 391.192 84.5134 393.649 84.5005H454.062C457.551 84.5172 460.948 85.6236 463.778 87.6652L465.044 84.5005H475.202H504.064H505.329H511.374H536.691C540.423 84.5961 544.062 85.6888 547.229 87.6652L703.404 174.914C707.305 176.792 710.508 179.862 712.55 183.68C714.637 188.036 716.393 192.543 717.803 197.162C718.484 199.395 718.635 201.755 718.245 204.057C717.855 206.358 716.935 208.538 715.556 210.422C713.949 212.468 711.882 214.107 709.523 215.206C707.165 216.306 704.581 216.835 701.98 216.751L585.585 216.877Z" fill="#231815"/>
<path d="M587.736 208.712C582.615 208.671 577.694 206.719 573.938 203.238L554.634 185.009C556.018 187.184 556.83 189.673 556.996 192.245C557.162 194.817 556.676 197.39 555.584 199.725C554.269 202.471 552.191 204.779 549.598 206.373C547.004 207.967 544.006 208.779 540.963 208.712H407.194C403.109 208.773 399.144 207.334 396.048 204.67C392.951 202.005 390.938 198.298 390.39 194.25L386.212 157.698C385.988 155.651 386.149 153.579 386.687 151.591C385.675 149.749 385.03 147.728 384.788 145.641L384.25 140.989L380.168 183.553C379.871 186.341 378.927 189.02 377.41 191.377C375.894 193.735 373.847 195.705 371.433 197.13C367.572 199.883 363.553 202.668 359.439 205.389C355.843 207.553 351.705 208.651 347.509 208.554H309.849C306.873 208.569 303.946 207.794 301.368 206.307C298.647 207.781 295.602 208.554 292.507 208.554H230.923C227.899 208.626 224.917 207.83 222.332 206.259C219.746 204.689 217.665 202.41 216.334 199.693C215.081 197.019 214.611 194.045 214.981 191.115C215.351 188.185 216.544 185.42 218.423 183.142L253.234 139.881H244.342L185.479 190.263C183.122 192.287 180.45 193.912 177.568 195.073C168.074 198.934 157.915 202.858 147.567 206.782C144.534 207.935 141.318 208.535 138.073 208.554H41.2667C37.8619 208.625 34.5319 207.55 31.8116 205.501C29.0912 203.452 27.1383 200.548 26.2664 197.256C25.4609 193.785 25.8507 190.143 27.3728 186.921C28.8948 183.699 31.4599 181.085 34.6527 179.503L113.199 135.609C116.658 133.53 120.59 132.365 124.623 132.223H150.288C149.653 131.135 149.173 129.963 148.864 128.742C148.168 126.052 146.744 116.875 157.567 110.83L202.663 85.8927C205.876 83.8876 209.573 82.7937 213.36 82.7281H231.905L237.886 78.8356C241.263 76.5721 245.187 75.2603 249.247 75.038H289.881L293.615 84.7852C293.755 85.1249 293.871 85.4739 293.963 85.8295C295.42 84.8087 297.019 84.0088 298.71 83.456L299.913 81.9686C301.517 79.8686 303.573 78.1557 305.929 76.9562C308.284 75.7567 310.878 75.1012 313.52 75.038H341.559C344.307 75.0383 347.005 75.7702 349.376 77.1584C350.814 74.9283 352.778 73.0863 355.096 71.7949C357.414 70.5034 360.014 69.8023 362.667 69.7531H366.212C366.907 69.705 367.605 69.705 368.3 69.7531C369.017 69.7059 369.736 69.7059 370.452 69.7531H373.617C375.786 69.7512 377.932 70.2035 379.916 71.0811C381.9 71.9586 383.678 73.2418 385.136 74.8482C385.704 75.4523 386.213 76.1093 386.655 76.8102C388.851 75.6548 391.294 75.0469 393.776 75.038H454.885C458.405 75.0412 461.836 76.148 464.695 78.2027L465.961 75.038H476.214H505.392H506.658H512.766H538.368C542.132 75.1198 545.805 76.2129 549.001 78.2027L706.758 166.243C710.712 168.125 713.952 171.233 715.999 175.104C718.101 179.504 719.878 184.052 721.316 188.712C721.998 190.972 722.147 193.36 721.752 195.688C721.357 198.017 720.428 200.221 719.037 202.13C717.405 204.18 715.316 205.821 712.936 206.92C710.557 208.019 707.954 208.546 705.334 208.459L587.736 208.712Z" fill="#231815"/>
<path d="M589.889 200.453C584.723 200.416 579.757 198.453 575.964 194.946L556.47 176.528C557.868 178.727 558.687 181.243 558.853 183.843C559.019 186.443 558.526 189.043 557.419 191.402C556.103 194.185 554.004 196.523 551.379 198.13C548.754 199.738 545.717 200.545 542.641 200.453H407.511C403.389 200.514 399.388 199.063 396.262 196.375C393.137 193.687 391.104 189.948 390.548 185.864L386.213 148.933C385.967 146.875 386.128 144.789 386.687 142.793C385.683 140.925 385.039 138.886 384.788 136.78L384.219 132.065L380.105 175.072C379.802 177.886 378.846 180.591 377.314 182.97C375.781 185.349 373.713 187.337 371.275 188.775C367.383 191.56 363.301 194.377 359.155 197.13C355.51 199.29 351.333 200.386 347.098 200.295H309.122C306.126 200.306 303.18 199.531 300.577 198.048C297.828 199.537 294.748 200.31 291.622 200.295H229.5C226.448 200.361 223.44 199.556 220.829 197.976C218.217 196.396 216.11 194.104 214.753 191.37C213.49 188.664 213.02 185.656 213.395 182.694C213.77 179.731 214.976 176.935 216.873 174.629L251.905 130.957H242.918L183.486 182.066C181.09 184.102 178.388 185.747 175.479 186.94C165.985 190.832 155.637 194.788 145.194 198.744C142.157 199.886 138.944 200.486 135.7 200.516H38.1024C34.6635 200.595 31.298 199.514 28.5482 197.447C25.7983 195.381 23.8242 192.449 22.9438 189.123C22.0961 185.617 22.4717 181.927 24.0084 178.663C25.5451 175.4 28.1507 172.76 31.3934 171.18L110.762 126.875C114.257 124.762 118.232 123.575 122.313 123.425H148.2C147.591 122.314 147.113 121.135 146.776 119.913C146.08 117.191 144.656 107.919 155.574 101.843L200.986 76.5255C204.231 74.4689 207.969 73.3214 211.809 73.2027H230.544L236.588 69.3102C239.985 67.0052 243.946 65.6703 248.044 65.4493H289.185L292.982 75.2914C292.982 75.6395 293.204 75.9876 293.33 76.3357C294.795 75.3083 296.406 74.5081 298.109 73.9622L299.312 72.4748C300.935 70.3487 303.014 68.6137 305.396 67.3979C307.779 66.182 310.404 65.5161 313.078 65.4493H341.401C344.174 65.4448 346.896 66.1882 349.281 67.6012C350.728 65.3437 352.71 63.4782 355.05 62.1699C357.391 60.8615 360.018 60.1509 362.699 60.1011H366.275C367.702 60.312 369.152 60.312 370.579 60.1011H373.554C375.747 60.1071 377.914 60.5687 379.919 61.4567C381.924 62.3447 383.722 63.6397 385.2 65.2594C385.768 65.8636 386.276 66.5206 386.719 67.2215C388.949 66.0665 391.423 65.459 393.934 65.4493H455.835C459.402 65.4999 462.864 66.6615 465.74 68.7722L467.006 65.6076H477.386H506.817H508.146H514.285H540.172C543.982 65.7308 547.688 66.8786 550.9 68.9304L710.24 157.952C714.282 159.842 717.611 162.982 719.734 166.908C721.839 171.364 723.626 175.965 725.082 180.674C725.778 182.95 725.932 185.358 725.53 187.704C725.129 190.051 724.184 192.271 722.772 194.187C721.141 196.294 719.036 197.986 716.627 199.124C714.218 200.263 711.574 200.816 708.911 200.738L589.889 200.453Z" fill="#231815"/>
<path d="M592.072 192.161C586.849 192.116 581.83 190.131 577.989 186.591L558.305 167.951C559.705 170.178 560.528 172.719 560.699 175.343C560.871 177.968 560.385 180.594 559.286 182.984C557.946 185.79 555.822 188.149 553.172 189.777C550.523 191.405 547.459 192.233 544.349 192.161H407.858C403.695 192.222 399.654 190.754 396.499 188.037C393.344 185.32 391.295 181.54 390.738 177.414L386.212 140.103C385.952 137.98 386.124 135.827 386.719 133.773C385.671 131.886 385.004 129.81 384.757 127.666L384.219 122.919L380.041 166.369C379.733 169.21 378.765 171.939 377.216 174.34C375.667 176.741 373.578 178.747 371.117 180.199C367.193 183.047 363.079 185.863 358.902 188.648C355.236 190.893 351.016 192.066 346.718 192.035H308.426C305.391 192.048 302.409 191.25 299.786 189.724C297.012 191.245 293.899 192.04 290.735 192.035H227.981C224.897 192.095 221.86 191.28 219.221 189.684C216.583 188.087 214.452 185.775 213.075 183.015C211.823 180.294 211.37 177.273 211.768 174.303C212.166 171.334 213.398 168.539 215.322 166.243L250.703 122.128H241.652L181.524 173.521C179.12 175.595 176.395 177.263 173.454 178.458C163.707 182.382 153.39 186.401 142.852 190.357C139.74 191.553 136.438 192.175 133.105 192.193H34.5579C31.0576 192.294 27.6262 191.207 24.8221 189.11C22.018 187.013 20.0063 184.028 19.1145 180.642C18.2624 177.098 18.6448 173.37 20.1984 170.073C21.7519 166.776 24.3837 164.107 27.659 162.508L107.819 117.729C111.348 115.614 115.354 114.428 119.465 114.279H145.7C145.077 113.152 144.599 111.95 144.276 110.703C143.548 107.982 142.092 98.6144 153.137 92.475L199.024 66.8414C202.295 64.7616 206.067 63.6028 209.942 63.4869H228.93L235.038 59.5311C238.476 57.2104 242.478 55.8652 246.62 55.6386H288.109L291.938 65.5756C291.938 65.9237 292.159 66.2718 292.286 66.6515C293.764 65.6012 295.398 64.7895 297.128 64.2464L298.33 62.7274C299.971 60.585 302.07 58.8365 304.474 57.61C306.878 56.3835 309.525 55.7099 312.223 55.6386H340.705C343.51 55.6467 346.262 56.4003 348.68 57.8222C350.141 55.5347 352.145 53.6443 354.514 52.3191C356.883 50.9939 359.542 50.2752 362.256 50.2271H365.864C366.584 50.2326 367.303 50.2855 368.016 50.3853C368.739 50.2831 369.469 50.2302 370.199 50.2271H373.554C375.767 50.2279 377.956 50.693 379.978 51.5925C382 52.4919 383.812 53.8056 385.295 55.4487C385.865 56.0695 386.384 56.7364 386.845 57.4424C389.092 56.2666 391.588 55.6479 394.124 55.6386H456.404C460.012 55.6813 463.513 56.8668 466.404 59.0247L467.702 55.8601L478.177 55.7019H507.924H509.253H515.583H541.723C545.576 55.8275 549.325 56.9861 552.577 59.0564L713.531 148.964C717.575 150.913 720.898 154.092 723.025 158.046C725.164 162.528 726.973 167.161 728.436 171.907C729.134 174.211 729.285 176.646 728.879 179.019C728.473 181.392 727.519 183.638 726.094 185.579C724.452 187.711 722.329 189.425 719.898 190.58C717.467 191.735 714.797 192.299 712.107 192.224L592.072 192.161Z" fill="#231815"/>
<path d="M594.287 183.743C589.011 183.719 583.938 181.708 580.078 178.11L560.267 159.312C561.695 161.558 562.533 164.127 562.704 166.782C562.876 169.437 562.375 172.092 561.248 174.502C559.889 177.326 557.746 179.698 555.075 181.337C552.404 182.975 549.318 183.811 546.185 183.743H408.365C404.159 183.812 400.074 182.336 396.884 179.595C393.693 176.854 391.619 173.038 391.054 168.87L386.624 131.179C386.368 129.056 386.54 126.904 387.13 124.849C386.053 122.895 385.385 120.741 385.168 118.52L384.598 113.71L380.389 157.635C380.077 160.503 379.099 163.259 377.533 165.682C375.968 168.105 373.857 170.128 371.37 171.591C367.383 174.439 363.237 177.319 359.028 180.136C355.324 182.398 351.058 183.572 346.718 183.522H307.761C304.697 183.535 301.683 182.738 299.026 181.211C296.221 182.739 293.075 183.533 289.881 183.522H226.588C223.475 183.591 220.407 182.77 217.744 181.155C215.081 179.541 212.934 177.2 211.556 174.408C210.256 171.654 209.767 168.587 210.149 165.566C210.53 162.544 211.764 159.695 213.708 157.35L249.468 112.76H240.291L179.656 164.66C177.217 166.749 174.461 168.437 171.492 169.661C161.618 173.616 151.238 177.667 140.573 181.686C137.433 182.898 134.097 183.52 130.731 183.522H31.14C27.6391 183.571 24.2207 182.457 21.4204 180.356C18.6201 178.254 16.5959 175.283 15.6649 171.907C14.8026 168.326 15.1889 164.557 16.76 161.225C18.331 157.893 20.9926 155.198 24.3044 153.584L105.256 108.362C108.821 106.217 112.871 105.009 117.028 104.849H143.453C142.83 103.721 142.352 102.52 142.029 101.273C141.301 98.5195 139.845 89.0574 150.953 82.823L197.315 56.9362C200.625 54.8336 204.44 53.6638 208.36 53.5501H227.347L233.519 49.5627C236.986 47.226 241.021 45.8702 245.196 45.6386H287.064L290.957 55.6704C290.957 56.0185 291.178 56.3666 291.305 56.7464C292.794 55.6958 294.438 54.8843 296.178 54.3413L297.413 52.7906C299.067 50.6193 301.189 48.8489 303.622 47.6107C306.054 46.3724 308.735 45.6984 311.464 45.6386H340.357C343.182 45.6446 345.955 46.3979 348.395 47.8221C349.875 45.5189 351.899 43.6155 354.289 42.2799C356.679 40.9443 359.361 40.2175 362.098 40.1637H365.737C367.196 40.3745 368.677 40.3745 370.136 40.1637H373.554C375.791 40.1705 378.002 40.644 380.045 41.554C382.088 42.464 383.92 43.7905 385.421 45.4486C385.992 46.0694 386.511 46.7363 386.972 47.4423C389.237 46.2566 391.757 45.6377 394.314 45.6386H457.227C460.874 45.6762 464.417 46.8609 467.354 49.0246L468.651 45.86H479.221H509.285H510.614H516.943H543.336C547.235 45.9803 551.029 47.1501 554.318 49.2462L716.885 140.071C720.937 142.039 724.261 145.241 726.379 149.217C728.534 153.754 730.364 158.439 731.854 163.236C732.568 165.566 732.726 168.032 732.313 170.434C731.901 172.836 730.931 175.107 729.48 177.066C727.821 179.212 725.677 180.936 723.224 182.097C720.771 183.257 718.079 183.821 715.366 183.743H594.287Z" fill="#231815"/>
<path d="M596.502 175.262C591.17 175.223 586.045 173.191 582.135 169.565L562.04 150.578C563.48 152.846 564.328 155.441 564.505 158.123C564.682 160.804 564.182 163.488 563.052 165.926C561.706 168.812 559.551 171.245 556.849 172.93C554.147 174.615 551.014 175.48 547.83 175.42H408.586C404.337 175.483 400.212 173.989 396.988 171.22C393.764 168.451 391.665 164.598 391.086 160.388L386.624 122.412C386.377 120.29 386.549 118.139 387.13 116.083C386.065 114.121 385.388 111.972 385.136 109.754L384.567 104.912L380.326 149.217C380.008 152.116 379.019 154.901 377.437 157.351C375.855 159.801 373.723 161.849 371.212 163.331C367.193 166.211 363.016 169.122 358.743 171.939C355.003 174.231 350.693 175.426 346.306 175.388H307.096C303.997 175.406 300.95 174.598 298.267 173.047C295.429 174.582 292.253 175.387 289.026 175.388H225.069C221.924 175.452 218.826 174.62 216.137 172.989C213.447 171.359 211.277 168.997 209.879 166.179C208.563 163.395 208.069 160.293 208.456 157.237C208.843 154.182 210.094 151.301 212.062 148.932L248.171 103.899H238.93L177.663 156.211C175.203 158.328 172.413 160.028 169.403 161.242C159.466 165.261 148.959 169.344 138.2 173.395C135.028 174.614 131.661 175.247 128.263 175.262H27.6589C24.1198 175.332 20.6595 174.213 17.8311 172.085C15.0028 169.956 12.9698 166.941 12.0572 163.521C11.1822 159.905 11.5679 156.099 13.1504 152.733C14.733 149.366 17.4176 146.641 20.76 145.008L102.534 99.3421C106.137 97.1726 110.231 95.953 114.433 95.7977H141.143C140.496 94.6556 140.006 93.4316 139.687 92.1585C138.959 89.3736 137.472 79.8163 148.706 73.5503L195.543 47.3788C198.88 45.2559 202.729 44.0749 206.682 43.961H225.987L232.316 39.9419C235.819 37.5767 239.899 36.2093 244.12 35.9861H286.431L290.324 46.113C290.324 46.4611 290.577 46.8408 290.672 47.189C292.194 46.1273 293.869 45.3054 295.64 44.7521L296.875 43.2015C298.547 41.014 300.689 39.23 303.143 37.9811C305.597 36.7323 308.3 36.0505 311.052 35.9861H340.23C343.09 35.988 345.897 36.7527 348.363 38.2014C349.852 35.8708 351.894 33.9438 354.306 32.5912C356.719 31.2387 359.428 30.5025 362.193 30.448H365.895C366.626 30.4535 367.355 30.5064 368.079 30.6063C368.813 30.5064 369.553 30.4534 370.294 30.448H373.554C375.812 30.4567 378.044 30.9337 380.108 31.8488C382.173 32.764 384.025 34.0972 385.548 35.7646C386.127 36.4087 386.656 37.0964 387.13 37.8217C389.412 36.615 391.954 35.9848 394.535 35.9861H458.081C461.76 36.0386 465.332 37.233 468.303 39.404L469.6 36.2393H480.297H510.646H511.975H518.304H544.982C548.905 36.3609 552.721 37.5419 556.027 39.6571L720.24 131.432C724.308 133.422 727.634 136.66 729.734 140.672C731.924 145.253 733.765 149.992 735.24 154.85C735.95 157.196 736.105 159.675 735.693 162.092C735.281 164.508 734.314 166.796 732.867 168.774C731.19 170.949 729.024 172.696 726.543 173.873C724.062 175.05 721.339 175.623 718.594 175.547L596.502 175.262Z" fill="#231815"/>
<path d="M598.75 166.686C593.375 166.642 588.208 164.601 584.256 160.958L563.939 141.749C565.393 144.041 566.249 146.663 566.425 149.373C566.602 152.082 566.096 154.793 564.952 157.255C563.578 160.153 561.395 162.592 558.665 164.277C555.936 165.961 552.778 166.82 549.571 166.749H408.903C404.61 166.819 400.441 165.31 397.187 162.511C393.932 159.711 391.817 155.814 391.245 151.559L386.719 113.109C386.481 110.986 386.653 108.837 387.226 106.779C386.15 104.822 385.472 102.671 385.232 100.45L384.662 95.5448L380.358 140.324C380.032 143.25 379.03 146.059 377.432 148.53C375.834 151.002 373.683 153.068 371.149 154.565C367.098 157.477 362.858 160.42 358.491 163.268C354.685 165.602 350.296 166.809 345.832 166.749H306.401C303.28 166.752 300.213 165.933 297.508 164.376C294.644 165.935 291.434 166.751 288.172 166.749H223.582C220.404 166.819 217.271 165.981 214.553 164.333C211.834 162.685 209.642 160.295 208.234 157.445C206.9 154.638 206.397 151.508 206.784 148.424C207.171 145.34 208.431 142.431 210.417 140.04L246.969 94.4689H237.475L175.575 147.413C173.103 149.562 170.29 151.284 167.252 152.508C157.188 156.559 146.586 160.673 135.605 164.787C132.402 166.012 129.003 166.645 125.573 166.654H24.1783C20.5916 166.739 17.0805 165.615 14.2103 163.462C11.3401 161.31 9.27772 158.254 8.35514 154.787C7.47773 151.138 7.87135 147.299 9.47095 143.904C11.0706 140.509 13.7804 137.762 17.1528 136.115L99.7815 89.9752C103.41 87.7817 107.538 86.5508 111.775 86.3991H138.738C138.105 85.2397 137.616 84.0067 137.282 82.7281C136.555 79.9115 135.036 70.2595 146.397 63.9302L193.866 37.5055C197.238 35.3486 201.131 34.1456 205.132 34.0243H224.626L230.956 29.9736C234.489 27.5939 238.601 26.2159 242.855 25.9861H285.609L289.533 36.208C289.679 36.5704 289.805 36.9401 289.913 37.3156C291.434 36.2256 293.123 35.3917 294.913 34.8472L296.147 33.2649C297.841 31.057 300.007 29.2569 302.488 27.9973C304.969 26.7376 307.701 26.0504 310.483 25.9861H339.946C342.836 25.9833 345.676 26.7478 348.174 28.2014C349.681 25.8468 351.746 23.901 354.187 22.5373C356.627 21.1736 359.366 20.4341 362.162 20.3848H365.864C366.605 20.3891 367.345 20.4419 368.079 20.543C368.824 20.443 369.575 20.3902 370.326 20.3848H373.554C375.838 20.3898 378.095 20.8708 380.182 21.7971C382.269 22.7234 384.139 24.0746 385.675 25.7646C386.254 26.4087 386.783 27.0965 387.257 27.8217C389.57 26.6072 392.145 25.977 394.757 25.9861H458.999C462.714 26.0345 466.32 27.2403 469.316 29.4356L470.645 26.2709H481.437H512.102C512.555 26.2401 513.01 26.2401 513.463 26.2709H519.792H546.723C550.69 26.3903 554.551 27.5823 557.894 29.7204L723.785 122.381C727.961 124.429 731.375 127.754 733.532 131.875C735.724 136.505 737.586 141.285 739.102 146.179C739.833 148.55 739.997 151.061 739.579 153.507C739.161 155.954 738.174 158.267 736.696 160.262C734.997 162.455 732.805 164.216 730.298 165.404C727.791 166.591 725.039 167.172 722.266 167.097L598.75 166.686Z" fill="#231815"/>
<path d="M601.028 158.015C595.591 157.987 590.362 155.921 586.375 152.223L565.869 132.856C567.34 135.166 568.204 137.81 568.381 140.543C568.558 143.276 568.042 146.009 566.881 148.489C565.481 151.4 563.269 153.844 560.513 155.528C557.756 157.212 554.572 158.065 551.343 157.983H409.251C404.913 158.053 400.7 156.529 397.41 153.701C394.12 150.872 391.983 146.934 391.402 142.635L386.845 103.805C386.616 101.682 386.788 99.5347 387.351 97.4753C386.287 95.5103 385.601 93.3636 385.326 91.146L384.756 86.1775L380.421 131.432C380.108 134.393 379.103 137.24 377.486 139.741C375.87 142.242 373.688 144.329 371.117 145.831C367.034 148.774 362.762 151.717 358.458 154.597C354.651 156.931 350.265 158.148 345.8 158.11H305.735C302.582 158.132 299.479 157.313 296.748 155.736C293.831 157.308 290.567 158.124 287.254 158.11H222.062C218.842 158.17 215.671 157.308 212.923 155.626C210.176 153.944 207.967 151.512 206.556 148.616C205.214 145.776 204.71 142.612 205.102 139.496C205.494 136.379 206.767 133.439 208.771 131.02L245.639 85.1014H236.145L173.644 138.584C171.132 140.743 168.29 142.485 165.226 143.742C155.067 147.825 144.339 152.002 133.358 156.148C130.122 157.373 126.691 158.006 123.231 158.015H20.6333C17.0393 158.072 13.5293 156.926 10.662 154.758C7.79466 152.59 5.73478 149.526 4.81013 146.052C3.8942 142.351 4.27402 138.448 5.88636 134.993C7.4987 131.538 10.2462 128.74 13.6711 127.065L97.1226 80.4811C100.799 78.2563 104.981 77.0039 109.275 76.8418H136.491C135.841 75.6753 135.341 74.4311 135.003 73.1391C134.275 70.3226 132.756 60.4806 144.244 54.1513L191.998 27.4734C195.412 25.3009 199.347 24.0875 203.391 23.9607H223.075L229.404 19.8783C232.978 17.4519 237.148 16.0509 241.462 15.8276H284.596L288.583 26.1759C288.743 26.533 288.87 26.9037 288.963 27.2835C290.501 26.1951 292.198 25.3517 293.995 24.7835L295.26 23.2011C296.965 20.9678 299.15 19.1459 301.653 17.8697C304.156 16.5935 306.914 15.8956 309.723 15.8276H339.502C342.417 15.8216 345.28 16.5975 347.793 18.0744C349.324 15.7016 351.415 13.7417 353.882 12.3675C356.349 10.9933 359.116 10.2471 361.939 10.1945H365.705C366.443 10.1474 367.183 10.1474 367.921 10.1945C368.679 10.1474 369.44 10.1474 370.199 10.1945H373.554C375.854 10.1981 378.128 10.6812 380.232 11.6129C382.335 12.5447 384.221 13.9046 385.769 15.606C386.361 16.2587 386.901 16.9571 387.383 17.6947C389.718 16.4736 392.312 15.8331 394.947 15.8276H459.79C463.545 15.8636 467.192 17.0939 470.202 19.3403L471.562 15.9542H482.449H513.431H514.791H521.279H548.463C552.476 16.0902 556.378 17.3034 559.761 19.4669L727.328 113.045C731.533 115.074 734.973 118.403 737.139 122.539C739.385 127.208 741.268 132.043 742.772 137.002C743.52 139.394 743.689 141.929 743.266 144.4C742.842 146.87 741.838 149.205 740.335 151.211C738.628 153.431 736.418 155.214 733.887 156.413C731.356 157.613 728.577 158.194 725.778 158.11L601.028 158.015Z" fill="#231815"/>
<path d="M603.307 149.28C597.822 149.243 592.55 147.154 588.528 143.426L567.8 123.837C569.284 126.176 570.158 128.851 570.34 131.615C570.523 134.38 570.008 137.146 568.844 139.66C567.395 142.593 565.133 145.048 562.327 146.731C559.521 148.415 556.291 149.255 553.021 149.154H409.599C405.221 149.217 400.972 147.674 397.654 144.816C394.336 141.959 392.18 137.986 391.593 133.647L386.972 94.4056C386.72 92.2183 386.903 90.0028 387.51 87.8864C386.425 85.9283 385.726 83.7794 385.453 81.5571L384.884 76.5571L380.485 122.254C380.155 125.251 379.124 128.129 377.475 130.652C375.825 133.176 373.604 135.276 370.991 136.78C366.877 139.755 362.541 142.73 358.142 145.673C354.335 148.01 349.951 149.237 345.484 149.217H305.04C301.854 149.224 298.722 148.395 295.957 146.812C293.044 148.396 289.779 149.223 286.463 149.217H220.512C217.273 149.286 214.082 148.429 211.312 146.748C208.543 145.066 206.311 142.629 204.879 139.723C203.521 136.854 203.008 133.658 203.4 130.508C203.793 127.359 205.074 124.386 207.094 121.938L244.342 75.5444H234.848L171.555 129.596C169.025 131.771 166.162 133.523 163.074 134.786C152.789 138.9 141.966 143.109 130.89 147.445C127.615 148.693 124.141 149.336 120.636 149.344H17.0578C13.4065 149.421 9.83523 148.268 6.91904 146.069C4.00285 143.871 1.91138 140.755 0.981411 137.223C0.0967982 133.512 0.501641 129.609 2.12933 126.159C3.75701 122.708 6.51063 119.913 9.93734 118.235L94.2433 71.1771C97.9443 68.9258 102.161 67.6619 106.49 67.5062H134.023C133.355 66.3333 132.844 65.0778 132.504 63.7719C131.744 60.8921 130.225 51.1134 141.808 44.5942L190.005 17.5049C193.447 15.3149 197.415 14.0908 201.493 13.9605H221.398L227.728 9.81488C231.334 7.37829 235.534 5.96721 239.88 5.73247H283.489L287.508 16.1757L287.887 17.2834C289.451 16.1995 291.168 15.3568 292.982 14.7834L294.248 13.1694C295.974 10.9157 298.184 9.07765 300.714 7.79062C303.244 6.5036 306.031 5.80032 308.869 5.73247H338.933C341.881 5.73601 344.775 6.52233 347.319 8.01101C348.859 5.61069 350.967 3.62714 353.457 2.23609C355.946 0.845042 358.741 0.0894651 361.592 0.0361627H365.389C366.138 -0.0120542 366.888 -0.0120542 367.636 0.0361627C368.406 -0.0120132 369.177 -0.0120132 369.946 0.0361627H373.554C375.878 0.0475907 378.174 0.539888 380.298 1.48211C382.422 2.42434 384.328 3.79603 385.896 5.51092C386.497 6.17585 387.047 6.88462 387.542 7.63127C389.89 6.382 392.509 5.72987 395.169 5.73247H460.645C464.443 5.77918 468.129 7.01914 471.183 9.27685L472.544 5.89066L483.557 5.73247H514.824H516.216H522.767H550.236C554.283 5.8672 558.219 7.0917 561.629 9.27685L731.158 103.805C735.381 105.841 738.85 109.165 741.063 113.299C743.325 118.023 745.229 122.91 746.76 127.919C747.507 130.339 747.673 132.902 747.244 135.398C746.815 137.894 745.803 140.254 744.291 142.287C742.569 144.526 740.341 146.325 737.788 147.536C735.235 148.746 732.431 149.333 729.608 149.249L603.307 149.28Z" fill="#231815"/>
<path d="M524.128 60.7973L544.223 79.7851C545.08 80.629 546.193 81.1635 547.388 81.3042H598.591C599.636 81.3042 599.414 80.6712 598.148 79.7851L571.312 60.7973C570.101 59.8434 568.68 59.1924 567.167 58.8985H523.59C522.703 58.8985 523.052 59.7846 524.128 60.7973ZM359.566 24.9736H363.744C364.084 24.8727 364.387 24.6756 364.617 24.4061C364.848 24.1365 364.995 23.8061 365.041 23.4546L366.212 17.3785C366.37 16.4924 365.959 15.8595 365.579 15.8595H361.782C361.402 15.8595 360.642 16.4924 360.421 17.3785L358.839 23.4546C358.585 24.3407 359.092 24.9736 359.535 24.9736H359.566ZM510.773 48.1387C511.596 48.9232 512.629 49.4511 513.748 49.6578H554.413C555.236 49.6578 554.413 48.7717 553.622 48.1387L518.178 23.0749C517.236 22.3603 516.16 21.8436 515.013 21.5558H483.683C483.019 21.5558 483.683 22.4419 484.221 23.0749L510.773 48.1387ZM230.449 59.7846H244.089C245.207 59.5778 246.241 59.0501 247.064 58.2656L275.197 31.3028C276.115 30.4167 276.147 29.7839 275.704 29.7839H265.165C264.722 29.7839 265.165 28.7711 265.956 28.1382L271.843 23.0749C272.602 22.4419 273.235 21.5558 272.665 21.5558H240.07C238.814 21.8687 237.618 22.3816 236.525 23.0749L228.74 28.1382C227.644 28.875 226.437 29.4307 225.164 29.7839H201.588C200.253 30.0639 198.978 30.5781 197.822 31.3028L149.561 58.2656C147.979 59.1517 147.409 59.7846 148.2 59.7846H178.707C179.499 59.7846 178.486 60.7973 177.125 61.6834L146.365 81.6839C145.19 82.505 143.832 83.0265 142.409 83.203H106.49C104.875 83.4332 103.323 83.9934 101.933 84.8486L17.659 131.938C16.0767 132.824 15.8235 133.457 17.0577 133.457H120.731C122.323 133.448 123.9 133.147 125.383 132.571C136.354 128.352 146.977 124.217 157.251 120.166C158.747 119.543 160.135 118.688 161.365 117.634L226.715 61.81C227.79 60.8784 229.053 60.1877 230.418 59.7846H230.449ZM726.696 120.166C725.79 119.072 724.642 118.205 723.341 117.634L553.938 23.0749C552.801 22.3587 551.548 21.8447 550.236 21.5558H522.767C522.102 21.5558 522.767 22.1888 523.938 23.0749L622.041 89.5322C623.529 90.5449 623.75 91.1779 622.769 91.1779H558.116C556.977 91.1779 557.23 92.064 557.894 92.6969L599.414 131.938C600.485 132.899 601.868 133.438 603.307 133.457H729.481C730.367 133.457 731.696 133.204 731.506 132.571C730.202 128.322 728.584 124.175 726.664 120.166H726.696ZM463.113 23.0749C462.554 22.2896 461.717 21.7465 460.772 21.5558H395.295C394.726 21.5558 394.409 22.1888 394.504 23.0749L397.447 48.1387C397.447 48.7717 398.143 49.6578 398.903 49.6578H440.708C441.163 49.7223 441.592 49.9096 441.949 50.1995C442.306 50.4894 442.577 50.871 442.733 51.3034C443.714 53.2971 444.664 55.2908 445.613 57.2529C446.088 58.2656 445.834 58.8985 445.043 58.8985H400.074C399.896 58.9178 399.723 58.973 399.567 59.0606C399.411 59.1483 399.274 59.2665 399.165 59.4084C399.055 59.5503 398.976 59.7129 398.931 59.8863C398.886 60.0597 398.876 60.2404 398.903 60.4175L401.181 79.7851C401.229 80.2158 401.439 80.6123 401.768 80.8943C402.097 81.1763 402.521 81.3229 402.954 81.3042H455.582C456.079 81.3705 456.554 81.5542 456.967 81.8404C457.38 82.1265 457.718 82.5068 457.955 82.9497C459.031 85.1333 460.075 87.3486 461.12 89.5322C461.626 90.5449 461.12 91.1779 460.234 91.1779H404.219C404.018 91.1689 403.816 91.2019 403.628 91.2751C403.439 91.3482 403.268 91.4598 403.125 91.6027C402.982 91.7456 402.871 91.9167 402.798 92.1051C402.725 92.2934 402.691 92.495 402.7 92.6969C404.219 105.756 405.76 118.837 407.321 131.938C407.321 132.824 408.365 133.457 409.599 133.457H553.147C554.54 133.457 554.919 132.824 554.16 131.938L463.113 23.0749ZM372.162 29.7839H337.351C336.749 29.7839 336.781 28.7711 337.066 28.1382C337.825 26.461 338.617 24.7838 339.376 23.0749C339.787 22.1888 339.692 21.5558 339.028 21.5558H308.964C308.034 21.743 307.216 22.2887 306.685 23.0749L302.635 28.1382C302.025 28.9111 301.199 29.4842 300.261 29.7839H298.236C297.298 29.9915 296.466 30.5309 295.894 31.3028L275.102 55.9871C274.248 56.9998 274.279 57.6326 275.102 57.6326H277.697C278.488 57.6326 278.52 58.2656 277.697 59.1517L219.31 131.938C218.582 132.824 218.962 133.457 220.386 133.457H286.305C286.898 133.513 287.495 133.4 288.027 133.131C288.559 132.862 289.004 132.449 289.311 131.938C300.451 107.676 311.601 83.4139 322.762 59.1517C322.925 58.7352 323.201 58.3725 323.558 58.1041C323.916 57.8358 324.342 57.6725 324.787 57.6326H338.775C338.949 57.6449 339.118 57.6982 339.268 57.7882C339.417 57.8782 339.544 58.0024 339.636 58.1505C339.729 58.2986 339.785 58.4665 339.8 58.6405C339.816 58.8145 339.789 58.9897 339.724 59.1517C336.412 69.1731 333.099 79.2155 329.787 89.279C329.56 89.7119 329.225 90.079 328.815 90.345C328.405 90.6111 327.933 90.7671 327.445 90.798H321.116C320.61 90.806 320.118 90.9677 319.705 91.2616C319.292 91.5554 318.979 91.9676 318.806 92.4437L303.362 131.938C303.014 132.824 303.679 133.457 304.913 133.457H345.326C346.718 133.495 348.098 133.191 349.345 132.571C353.965 129.407 358.427 126.242 362.668 123.331C363.185 123.117 363.635 122.77 363.975 122.325C364.314 121.88 364.529 121.354 364.598 120.799C367.467 90.9669 370.337 61.1348 373.206 31.3028C373.243 31.1341 373.244 30.9597 373.211 30.7903C373.177 30.6209 373.11 30.46 373.012 30.3178C372.914 30.1755 372.788 30.0548 372.642 29.9629C372.496 29.8711 372.332 29.8102 372.162 29.7839ZM373.681 15.8595H370.105C369.503 15.8595 369.029 16.4924 368.87 17.3785C368.554 19.4038 368.206 21.4292 367.889 23.4546C367.889 24.3407 368.079 24.9736 368.744 24.9736H372.668C373.049 24.9355 373.403 24.7606 373.665 24.4813C373.927 24.202 374.079 23.8372 374.092 23.4546L374.662 17.3785C374.757 16.4924 374.282 15.8595 373.554 15.8595H373.681Z" fill="#009A3E"/>
</svg>
