<svg width="45" height="45" viewBox="0 0 45 45" fill="none" xmlns="http://www.w3.org/2000/svg">
<g clip-path="url(#clip0_249_2222)">
<path d="M7.96875 3.62707e-06H37.0313C38.078 -0.00100824 39.1147 0.209704 40.0819 0.620081C41.0492 1.03046 41.9281 1.63244 42.6682 2.39159C43.4084 3.15073 43.9953 4.05212 44.3954 5.04418C44.7956 6.03624 45.001 7.09949 45 8.17308V36.8269C45.001 37.9005 44.7956 38.9638 44.3954 39.9558C43.9953 40.9479 43.4084 41.8493 42.6682 42.6084C41.9281 43.3676 41.0492 43.9696 40.0819 44.3799C39.1147 44.7903 38.078 45.001 37.0313 45H7.96875C6.92201 45.001 5.88534 44.7903 4.91808 44.3799C3.95082 43.9696 3.07196 43.3676 2.3318 42.6084C1.59163 41.8493 1.0047 40.9479 0.604579 39.9558C0.204461 38.9638 -0.000983032 37.9005 3.53639e-06 36.8269V8.17308C-0.000983032 7.09949 0.204461 6.03624 0.604579 5.04418C1.0047 4.05212 1.59163 3.15073 2.3318 2.39159C3.07196 1.63244 3.95082 1.03046 4.91808 0.620081C5.88534 0.209704 6.92201 -0.00100824 7.96875 3.62707e-06Z" fill="#470137"/>
<path d="M23.6625 11.8277L18.0375 21.3469L24.0375 31.4431C24.077 31.5128 24.0904 31.5948 24.075 31.6739C24.0563 31.7508 23.9813 31.6931 23.8688 31.7123H19.575C19.275 31.7123 19.0688 31.6931 18.9375 31.5008C18.5438 30.6931 18.1313 29.9046 17.7375 29.0969C17.3438 28.2893 16.9125 27.5008 16.4625 26.6739C16.0125 25.8469 15.5625 25.02 15.1125 24.1739H15.075C14.6813 25.0008 14.25 25.8277 13.8188 26.6546C13.3875 27.4816 12.9563 28.3085 12.5438 29.1162C12.1313 29.9239 11.6813 30.7508 11.25 31.5392C11.175 31.7316 11.025 31.7508 10.8188 31.7508H6.69378C6.61878 31.7508 6.56252 31.7892 6.56252 31.6931C6.55416 31.6571 6.55317 31.6197 6.55962 31.5833C6.56608 31.5469 6.57984 31.5122 6.60003 31.4816L12.4313 21.6739L6.75002 11.8085C6.69377 11.7316 6.67502 11.6546 6.71252 11.6162C6.73538 11.5888 6.76439 11.5674 6.79704 11.554C6.8297 11.5406 6.86504 11.5356 6.90002 11.5393H11.1563C11.245 11.5412 11.3331 11.5541 11.4188 11.5777C11.4939 11.6192 11.5582 11.6785 11.6063 11.7508C11.9625 12.5777 12.375 13.4046 12.8063 14.2316C13.2375 15.0585 13.6875 15.8662 14.1563 16.6739C14.625 17.4816 15.0188 18.2893 15.4125 19.1162H15.45C15.8438 18.27 16.2563 17.4431 16.6688 16.6354C17.0813 15.8277 17.5125 15.02 17.9438 14.2123C18.375 13.4046 18.7875 12.5777 19.2 11.7893C19.2142 11.7135 19.2541 11.6454 19.3125 11.5969C19.3868 11.5549 19.4731 11.5413 19.5563 11.5585H23.5125C23.5347 11.5534 23.5576 11.5528 23.58 11.5568C23.6024 11.5608 23.6238 11.5693 23.6429 11.5818C23.6621 11.5944 23.6786 11.6106 23.6917 11.6297C23.7047 11.6488 23.7139 11.6703 23.7188 11.6931C23.7375 11.7123 23.7 11.7893 23.6625 11.8277Z" fill="#FF61F6"/>
<path d="M32.3251 32.1158C30.9353 32.1392 29.5579 31.8435 28.2939 31.2504C27.1178 30.6864 26.1322 29.7759 25.4626 28.6351C24.7689 27.462 24.4314 26.0004 24.4314 24.2504C24.4124 22.8273 24.7687 21.4253 25.4626 20.1927C26.1742 18.94 27.2048 17.9096 28.4439 17.212C29.7564 16.462 31.3314 16.0966 33.1876 16.0966C33.3191 16.0951 33.4506 16.1015 33.5814 16.1158C33.7501 16.1351 33.9376 16.1351 34.1626 16.1543V10.0774C34.1626 9.94275 34.2189 9.86582 34.3501 9.86582H38.1564C38.1984 9.85999 38.241 9.8706 38.2758 9.89555C38.3105 9.92049 38.3348 9.95794 38.3439 10.0004V28.3466C38.3439 28.6927 38.3626 29.0774 38.3814 29.5004C38.4001 29.9235 38.4376 30.2889 38.4564 30.6158C38.4604 30.6808 38.4445 30.7454 38.4108 30.8006C38.3772 30.8557 38.3276 30.8987 38.2689 30.9235C37.2868 31.3469 36.2617 31.6565 35.2126 31.8466C34.2597 32.0229 33.2935 32.1129 32.3251 32.1158ZM34.1626 28.2697V19.8081C33.9957 19.7668 33.8267 19.7347 33.6564 19.712C33.4501 19.6927 33.2439 19.6735 33.0376 19.6735C32.3027 19.665 31.5763 19.8364 30.9189 20.1735C30.2782 20.501 29.7296 20.9908 29.3251 21.5966C28.9126 22.212 28.7064 23.0389 28.7064 24.0389C28.69 24.7139 28.7982 25.3859 29.0251 26.0197C29.2065 26.5322 29.4944 26.9981 29.8689 27.3851C30.2304 27.7389 30.6667 28.0021 31.1439 28.1543C31.6461 28.323 32.1716 28.4074 32.7001 28.4043C32.9814 28.4043 33.2439 28.3851 33.4876 28.3658C33.7167 28.3826 33.9467 28.3498 34.1626 28.2697Z" fill="#FF61F6"/>
</g>
<defs>
<clipPath id="clip0_249_2222">
<rect width="45" height="45" fill="white"/>
</clipPath>
</defs>
</svg>
