<svg width="384" height="240" viewBox="0 0 384 240" fill="none" xmlns="http://www.w3.org/2000/svg">
<rect width="384" height="240" rx="18" fill="#F2F1F6"/>
<path d="M63 49C63 44.0294 67.0294 40 72 40H313C317.971 40 322 44.0294 322 49V66C322 70.9706 317.971 75 313 75H72C67.0294 75 63 70.9706 63 66V49Z" fill="white"/>
<path d="M88.41 48.1496H87.46C87.5 48.3396 87.53 48.7796 87.54 49.1496C87.54 49.5796 87.55 50.3996 87.55 50.9796C87.55 51.9996 87.67 53.9396 87.67 54.6796C87.67 55.3696 87.31 55.7196 86.58 55.7196C85.61 55.7196 85.05 55.4096 85.05 54.8596C85.05 54.2996 85.64 53.9496 86.68 53.9496C88.43 53.9496 90.07 54.9296 91.07 55.9296L91.55 55.1796C90.53 54.2496 88.75 53.2496 86.77 53.2496C85.04 53.2496 84.26 53.9796 84.26 54.8896C84.26 56.0296 85.27 56.4596 86.66 56.4596C87.99 56.4596 88.49 55.7596 88.49 54.9496C88.49 54.0696 88.33 52.0696 88.33 50.9796C88.33 50.2896 88.33 49.5996 88.33 49.1496C88.34 48.8496 88.37 48.3696 88.41 48.1496ZM87.89 50.1696V50.9096C88.61 50.9096 90.24 50.8396 91.32 50.7396L91.29 49.9896C90.21 50.1196 88.58 50.1696 87.89 50.1696ZM96.1847 48.1096L95.3147 48.0796C95.2947 48.3596 95.2747 48.6396 95.2347 48.9396C95.1147 49.7596 94.9247 51.2296 94.9247 52.1796C94.9247 52.8296 94.9747 53.3896 95.0247 53.7696L95.8047 53.7096C95.7347 53.2096 95.7347 52.8596 95.7847 52.4796C95.9047 51.1696 97.0647 49.3496 98.3147 49.3496C99.3647 49.3496 99.8947 50.4896 99.8947 52.0696C99.8947 54.5796 98.2047 55.4596 96.0247 55.7896L96.5047 56.5096C98.9747 56.0596 100.725 54.8296 100.725 52.0596C100.725 49.9596 99.7647 48.6196 98.4447 48.6196C97.1747 48.6196 96.1347 49.8696 95.7247 50.8996C95.7847 50.1996 95.9747 48.8496 96.1847 48.1096ZM110.555 48.4196H109.615C109.645 48.6596 109.675 48.9496 109.675 49.2896C109.675 49.6396 109.675 50.4796 109.675 50.8696C109.675 52.7496 109.545 53.5696 108.835 54.3896C108.215 55.0996 107.365 55.4896 106.445 55.7296L107.105 56.4196C107.835 56.1696 108.835 55.7296 109.475 54.9496C110.205 54.0996 110.525 53.3096 110.525 50.8996C110.525 50.5296 110.525 49.6796 110.525 49.2896C110.525 48.9496 110.535 48.6596 110.555 48.4196ZM105.915 48.4996H105.005C105.035 48.6896 105.045 49.0396 105.045 49.2096C105.045 49.5096 105.045 52.1196 105.045 52.5496C105.045 52.8396 105.025 53.1596 105.005 53.3196H105.915C105.895 53.1396 105.885 52.8096 105.885 52.5496C105.885 52.1296 105.885 49.5096 105.885 49.2096C105.885 48.9796 105.895 48.6896 105.915 48.4996ZM122.115 49.2496L121.615 48.7696C121.475 48.8096 121.115 48.8396 120.925 48.8396C120.325 48.8396 115.655 48.8396 115.175 48.8396C114.805 48.8396 114.395 48.7996 114.045 48.7496V49.6496C114.435 49.6196 114.805 49.5996 115.175 49.5996C115.655 49.5996 120.175 49.5996 120.875 49.5996C120.555 50.2196 119.615 51.2996 118.685 51.8296L119.355 52.3596C120.495 51.5696 121.445 50.2796 121.845 49.5996C121.915 49.4896 122.035 49.3396 122.115 49.2496ZM118.115 50.5596H117.215C117.255 50.8296 117.255 51.0496 117.255 51.2896C117.255 52.9596 117.035 54.3796 115.495 55.3296C115.215 55.5196 114.865 55.6896 114.595 55.7796L115.325 56.3796C117.875 55.0996 118.115 53.2696 118.115 50.5596ZM127.937 55.7896L128.467 56.2296C128.547 56.1796 128.647 56.0896 128.817 56.0096C129.977 55.4296 131.357 54.4096 132.227 53.2396L131.747 52.5496C130.987 53.6796 129.757 54.5896 128.827 55.0096C128.827 54.7096 128.827 49.8696 128.827 49.2496C128.827 48.8696 128.867 48.5796 128.877 48.4996H127.957C127.957 48.5796 128.007 48.8596 128.007 49.2396C128.007 49.8696 128.007 54.7696 128.007 55.2296C128.007 55.4296 127.977 55.6396 127.937 55.7896ZM123.357 55.7496L124.117 56.2496C124.957 55.5496 125.597 54.5796 125.897 53.5096C126.167 52.5096 126.197 50.3596 126.197 49.2496C126.197 48.9596 126.237 48.6496 126.247 48.5396H125.327C125.377 48.7496 125.397 48.9696 125.397 49.2596C125.397 50.3796 125.397 52.3696 125.097 53.2896C124.797 54.2596 124.207 55.1496 123.357 55.7496ZM133.667 49.6996L133.727 50.4496C134.097 50.4596 134.527 50.4696 134.897 50.4696C136.117 50.4796 137.427 50.2596 138.407 49.9896L138.387 49.2496C137.237 49.6296 135.977 49.7596 134.897 49.7596C134.467 49.7596 134.037 49.7396 133.667 49.6996ZM137.217 48.0696L136.337 47.9796C136.307 48.6796 136.087 49.5596 135.867 50.1896C135.457 51.3696 134.527 53.1496 133.637 54.1896L134.407 54.5896C135.237 53.4696 136.157 51.6496 136.637 50.2096C136.877 49.4996 137.087 48.5596 137.217 48.0696ZM139.577 51.1596H138.787C138.827 52.2596 138.937 54.0496 138.937 54.8096C138.937 55.3496 138.657 55.7896 137.827 55.7896C137.047 55.7896 136.657 55.4696 136.657 55.0096C136.657 54.5496 137.157 54.2096 137.897 54.2096C139.367 54.2096 140.517 55.0996 141.287 55.7996L141.707 55.1196C140.887 54.4096 139.597 53.5696 137.917 53.5696C136.797 53.5696 135.927 54.1496 135.927 55.0696C135.927 56.0696 136.817 56.5096 137.917 56.5096C139.157 56.5096 139.667 55.8596 139.667 55.0596C139.667 54.3996 139.577 52.8796 139.557 52.2296C139.547 51.8696 139.547 51.5696 139.577 51.1596ZM141.577 51.4196L142.027 50.7596C141.547 50.3996 140.417 49.7496 139.687 49.4396L139.287 50.0396C139.947 50.3496 141.037 50.9596 141.577 51.4196ZM146.767 52.7596V53.4396H152.167V52.7596H146.767ZM150.057 53.1496L149.507 53.3596C150.057 54.4496 151.037 55.6496 151.887 56.2896C152.007 56.0996 152.247 55.8496 152.417 55.7096C151.557 55.1896 150.577 54.1196 150.057 53.1496ZM147.817 50.2696H151.157V51.3096H147.817V50.2696ZM147.817 48.6396H151.157V49.6596H147.817V48.6396ZM147.137 48.0196V51.9296H151.867V48.0196H147.137ZM148.917 53.0996C148.407 54.1696 147.407 55.2596 146.437 55.7796C146.597 55.9196 146.827 56.1796 146.937 56.3496C147.927 55.7396 148.937 54.5296 149.487 53.3096L148.917 53.0996ZM149.137 48.3396V51.6296H149.107V56.7996H149.837V51.6296H149.797V48.3396H149.137ZM143.537 50.6296V51.2296H146.377V50.6296H143.537ZM143.577 47.9596V48.5596H146.337V47.9596H143.577ZM143.537 51.9696V52.5696H146.377V51.9696H143.537ZM143.087 49.2696V49.8896H146.637V49.2696H143.087ZM143.867 53.3196V53.9396H145.727V55.6096H143.867V56.2396H146.377V53.3196H143.867ZM143.527 53.3196V56.6996H144.167V53.3196H143.527ZM154.427 49.8496H156.377V50.6096H154.427V49.8496ZM154.427 48.5696H156.377V49.3196H154.427V48.5696ZM153.757 48.0296V51.1696H157.077V48.0296H153.757ZM153.157 51.9096V52.4896H157.667V51.9096H153.157ZM157.607 48.0996V48.6596H162.167V48.0996H157.607ZM155.157 52.0896V55.4996L155.797 55.8996V52.0896H155.157ZM155.497 53.5696V54.1396H157.497V53.5696H155.497ZM159.587 48.2396C159.497 48.6696 159.327 49.2896 159.167 49.6996L159.727 49.8296C159.907 49.4596 160.107 48.8896 160.297 48.3796L159.587 48.2396ZM158.677 51.2696H161.067V52.0196H158.677V51.2696ZM158.677 52.5396H161.067V53.3096H158.677V52.5396ZM158.677 49.9896H161.067V50.7296H158.677V49.9896ZM157.997 49.4396V53.8596H161.767V49.4396H157.997ZM158.827 54.0396C158.447 54.4996 157.797 54.9496 157.177 55.2396C157.317 55.3496 157.567 55.5896 157.677 55.6996C158.297 55.3596 159.027 54.7896 159.467 54.2296L158.827 54.0396ZM153.857 53.0396C153.807 54.2696 153.647 55.6196 153.037 56.3496C153.197 56.4596 153.417 56.6796 153.517 56.8296C154.227 55.9796 154.427 54.4796 154.487 53.0396H153.857ZM154.327 54.0196L153.857 54.1896C154.687 56.2596 156.297 56.5896 158.847 56.5896H162.097C162.137 56.3896 162.257 56.0996 162.367 55.9396C161.777 55.9596 159.297 55.9596 158.847 55.9596C156.597 55.9596 155.037 55.7396 154.327 54.0196ZM160.227 54.3096C160.767 54.6796 161.437 55.2596 161.757 55.6596L162.307 55.3096C161.977 54.9296 161.317 54.3696 160.737 54.0196L160.227 54.3096ZM168.337 49.1796L167.507 49.1596C167.407 50.1996 167.197 51.3296 166.907 52.2796C166.397 53.9696 165.857 54.6496 165.387 54.6496C164.937 54.6496 164.367 54.0896 164.367 52.8296C164.367 51.3596 165.737 49.5496 167.937 49.5496C169.857 49.5496 170.967 50.8696 170.967 52.4696C170.967 54.1996 169.707 55.1596 168.427 55.4496C168.187 55.4996 167.887 55.5396 167.567 55.5696L168.027 56.3096C170.407 55.9996 171.787 54.5996 171.787 52.5096C171.787 50.4796 170.297 48.8296 167.957 48.8296C165.507 48.8296 163.577 50.7196 163.577 52.8896C163.577 54.5496 164.467 55.5696 165.367 55.5696C166.287 55.5696 167.087 54.5096 167.697 52.4596C168.007 51.3896 168.207 50.2196 168.337 49.1796ZM172.987 52.9196L173.187 53.6496C174.117 53.3796 175.317 52.9996 176.457 52.6396L176.367 51.9596C175.127 52.3196 173.847 52.6996 172.987 52.9196ZM173.117 49.6196V50.3196H176.357V49.6196H173.117ZM174.507 47.6096V55.9396C174.507 56.0796 174.457 56.1296 174.317 56.1296C174.197 56.1296 173.777 56.1296 173.327 56.1196C173.417 56.3196 173.527 56.6196 173.547 56.7996C174.217 56.8096 174.617 56.7896 174.877 56.6696C175.137 56.5596 175.237 56.3496 175.237 55.9396V47.6096H174.507ZM176.707 49.9096V56.7696H177.417V50.6196H181.367V56.7096H182.117V49.9096H176.707ZM177.137 52.5796V53.2896H181.587V52.5796H177.137ZM177.157 55.3496V56.0696H181.607V55.3496H177.157ZM179.007 47.6196V55.7896H179.717V47.6196H179.007ZM184.197 55.4396V56.1796H191.257V55.4396H184.197ZM187.267 47.6596V55.8596H188.037V47.6596H187.267ZM183.827 52.6496V56.8096H184.587V52.6496H183.827ZM190.857 52.6496V56.7796H191.627V52.6496H190.857ZM184.217 48.5596V52.0096H191.227V48.5596H190.447V51.2796H184.957V48.5596H184.217ZM194.647 53.5696C193.807 53.5696 193.117 54.2496 193.117 55.0896C193.117 55.9296 193.807 56.6096 194.647 56.6096C195.487 56.6096 196.167 55.9296 196.167 55.0896C196.167 54.2496 195.487 53.5696 194.647 53.5696ZM194.647 56.0996C194.087 56.0996 193.627 55.6496 193.627 55.0896C193.627 54.5296 194.087 54.0796 194.647 54.0796C195.207 54.0796 195.657 54.5296 195.657 55.0896C195.657 55.6496 195.207 56.0996 194.647 56.0996ZM87.858 60.5451C87.8153 60.1852 87.6425 59.9059 87.3395 59.707C87.0365 59.5082 86.6648 59.4087 86.2244 59.4087C85.9025 59.4087 85.6207 59.4608 85.3793 59.565C85.1402 59.6691 84.9531 59.8124 84.8182 59.9947C84.6856 60.177 84.6193 60.3841 84.6193 60.6161C84.6193 60.8102 84.6655 60.9771 84.7578 61.1168C84.8525 61.2541 84.9732 61.369 85.12 61.4613C85.2668 61.5512 85.4207 61.6258 85.5817 61.685C85.7427 61.7418 85.8906 61.788 86.0256 61.8235L86.7642 62.0224C86.9536 62.0721 87.1643 62.1407 87.3963 62.2283C87.6307 62.3159 87.8544 62.4355 88.0675 62.587C88.2829 62.7361 88.4605 62.9279 88.6001 63.1623C88.7398 63.3967 88.8097 63.6843 88.8097 64.0252C88.8097 64.4182 88.7067 64.7733 88.5007 65.0905C88.2971 65.4078 87.9988 65.6599 87.6058 65.8469C87.2152 66.034 86.7405 66.1275 86.1818 66.1275C85.661 66.1275 85.21 66.0434 84.8288 65.8753C84.45 65.7073 84.1518 65.4729 83.9339 65.1722C83.7185 64.8716 83.5966 64.5224 83.5682 64.1246H84.4773C84.5009 64.3993 84.5933 64.6265 84.7543 64.8065C84.9176 64.984 85.1236 65.1166 85.3722 65.2042C85.6231 65.2894 85.893 65.332 86.1818 65.332C86.518 65.332 86.8198 65.2776 87.0874 65.1687C87.3549 65.0574 87.5668 64.9035 87.723 64.707C87.8793 64.5082 87.9574 64.2761 87.9574 64.011C87.9574 63.7695 87.8899 63.573 87.755 63.4215C87.62 63.27 87.4425 63.1469 87.2223 63.0522C87.0021 62.9575 86.7642 62.8746 86.5085 62.8036L85.6136 62.5479C85.0455 62.3846 84.5956 62.1514 84.2642 61.8484C83.9328 61.5453 83.767 61.1488 83.767 60.6587C83.767 60.2515 83.8771 59.8964 84.0973 59.5934C84.3198 59.288 84.6181 59.0512 84.9922 58.8832C85.3686 58.7127 85.7888 58.6275 86.2528 58.6275C86.7216 58.6275 87.1383 58.7115 87.5028 58.8796C87.8674 59.0453 88.1563 59.2726 88.3693 59.5614C88.5848 59.8502 88.6984 60.1781 88.7102 60.5451H87.858ZM93.5815 63.7695V60.5451H94.4196V65.9996H93.5815V65.0763H93.5247C93.3968 65.3533 93.198 65.5889 92.9281 65.783C92.6582 65.9748 92.3173 66.0707 91.9054 66.0707C91.5645 66.0707 91.2614 65.9961 90.9963 65.8469C90.7311 65.6954 90.5228 65.4681 90.3713 65.1651C90.2198 64.8597 90.144 64.475 90.144 64.011V60.5451H90.9821V63.9542C90.9821 64.3519 91.0933 64.6691 91.3159 64.9059C91.5408 65.1426 91.8272 65.261 92.1752 65.261C92.3836 65.261 92.5955 65.2077 92.8109 65.1012C93.0287 64.9947 93.211 64.8313 93.3578 64.6111C93.5069 64.391 93.5815 64.1104 93.5815 63.7695ZM96.0682 65.9996V58.7269H96.9062V61.4116H96.9773C97.0388 61.3169 97.1241 61.1961 97.233 61.0493C97.3442 60.9002 97.5028 60.7676 97.7088 60.6516C97.9171 60.5333 98.1989 60.4741 98.554 60.4741C99.0133 60.4741 99.4181 60.5889 99.7685 60.8185C100.119 61.0482 100.392 61.3737 100.589 61.7951C100.785 62.2165 100.884 62.7136 100.884 63.2866C100.884 63.8642 100.785 64.3649 100.589 64.7887C100.392 65.2101 100.12 65.5368 99.772 65.7688C99.424 65.9985 99.0227 66.1133 98.5682 66.1133C98.2178 66.1133 97.9373 66.0553 97.7266 65.9393C97.5159 65.8209 97.3537 65.6871 97.2401 65.538C97.1264 65.3865 97.0388 65.261 96.9773 65.1616H96.8778V65.9996H96.0682ZM96.892 63.2724C96.892 63.6843 96.9524 64.0477 97.0732 64.3626C97.1939 64.6751 97.3703 64.9201 97.6023 65.0976C97.8343 65.2728 98.1184 65.3604 98.4545 65.3604C98.8049 65.3604 99.0973 65.2681 99.3317 65.0834C99.5684 64.8964 99.746 64.6455 99.8643 64.3306C99.9851 64.0134 100.045 63.6606 100.045 63.2724C100.045 62.8888 99.9863 62.5432 99.8679 62.2354C99.7519 61.9253 99.5755 61.6803 99.3388 61.5003C99.1044 61.3181 98.8097 61.2269 98.4545 61.2269C98.1136 61.2269 97.8272 61.3133 97.5952 61.4861C97.3632 61.6566 97.188 61.8957 97.0696 62.2035C96.9512 62.5089 96.892 62.8652 96.892 63.2724ZM106.029 61.7667L105.276 61.9797C105.229 61.8543 105.159 61.7324 105.067 61.614C104.977 61.4932 104.854 61.3938 104.697 61.3157C104.541 61.2376 104.341 61.1985 104.097 61.1985C103.763 61.1985 103.485 61.2754 103.263 61.4293C103.043 61.5808 102.933 61.7738 102.933 62.0082C102.933 62.2165 103.008 62.381 103.16 62.5018C103.311 62.6225 103.548 62.7231 103.87 62.8036L104.68 63.0025C105.167 63.1208 105.531 63.302 105.77 63.5458C106.009 63.7873 106.129 64.0986 106.129 64.4797C106.129 64.7922 106.039 65.0716 105.859 65.3178C105.681 65.564 105.433 65.7582 105.113 65.9002C104.793 66.0422 104.422 66.1133 103.998 66.1133C103.442 66.1133 102.981 65.9925 102.616 65.7511C102.252 65.5096 102.021 65.1568 101.924 64.6928L102.719 64.494C102.795 64.7875 102.938 65.0077 103.149 65.1545C103.362 65.3012 103.64 65.3746 103.984 65.3746C104.374 65.3746 104.684 65.2918 104.914 65.1261C105.146 64.958 105.262 64.7567 105.262 64.5224C105.262 64.333 105.196 64.1743 105.063 64.0465C104.931 63.9163 104.727 63.8192 104.452 63.7553L103.543 63.5422C103.044 63.4239 102.677 63.2404 102.442 62.9918C102.21 62.7409 102.094 62.4272 102.094 62.0508C102.094 61.743 102.181 61.4708 102.354 61.234C102.529 60.9973 102.767 60.8114 103.067 60.6765C103.371 60.5415 103.714 60.4741 104.097 60.4741C104.637 60.4741 105.061 60.5924 105.369 60.8292C105.679 61.0659 105.899 61.3784 106.029 61.7667ZM109.606 66.1133C109.095 66.1133 108.654 65.9925 108.285 65.7511C107.916 65.5096 107.632 65.177 107.433 64.7532C107.234 64.3294 107.134 63.8453 107.134 63.3008C107.134 62.7468 107.236 62.2579 107.44 61.8342C107.646 61.408 107.932 61.0754 108.299 60.8363C108.669 60.5948 109.099 60.4741 109.592 60.4741C109.975 60.4741 110.321 60.5451 110.629 60.6871C110.936 60.8292 111.189 61.028 111.385 61.2837C111.582 61.5394 111.704 61.8377 111.751 62.1786H110.913C110.849 61.93 110.707 61.7099 110.487 61.5181C110.269 61.324 109.975 61.2269 109.606 61.2269C109.279 61.2269 108.993 61.3121 108.747 61.4826C108.503 61.6507 108.312 61.8886 108.175 62.1964C108.04 62.5018 107.972 62.8604 107.972 63.2724C107.972 63.6938 108.039 64.0607 108.171 64.3732C108.306 64.6857 108.496 64.9284 108.74 65.1012C108.986 65.274 109.275 65.3604 109.606 65.3604C109.824 65.3604 110.021 65.3226 110.199 65.2468C110.377 65.171 110.527 65.0621 110.65 64.9201C110.773 64.778 110.861 64.6076 110.913 64.4087H111.751C111.704 64.7307 111.586 65.0207 111.399 65.2788C111.215 65.5344 110.97 65.738 110.664 65.8895C110.361 66.0387 110.008 66.1133 109.606 66.1133ZM112.976 65.9996V60.5451H113.786V61.369H113.843C113.942 61.0991 114.122 60.8801 114.382 60.712C114.643 60.5439 114.936 60.4599 115.263 60.4599C115.325 60.4599 115.401 60.461 115.494 60.4634C115.586 60.4658 115.656 60.4693 115.703 60.4741V61.3263C115.675 61.3192 115.61 61.3086 115.508 61.2944C115.409 61.2778 115.303 61.2695 115.192 61.2695C114.927 61.2695 114.69 61.3252 114.482 61.4364C114.276 61.5453 114.112 61.6968 113.992 61.891C113.873 62.0827 113.814 62.3017 113.814 62.5479V65.9996H112.976ZM116.697 65.9996V60.5451H117.535V65.9996H116.697ZM117.123 59.636C116.96 59.636 116.819 59.5804 116.7 59.4691C116.584 59.3578 116.526 59.2241 116.526 59.0678C116.526 58.9116 116.584 58.7778 116.7 58.6665C116.819 58.5553 116.96 58.4996 117.123 58.4996C117.286 58.4996 117.426 58.5553 117.542 58.6665C117.66 58.7778 117.719 58.9116 117.719 59.0678C117.719 59.2241 117.66 59.3578 117.542 59.4691C117.426 59.5804 117.286 59.636 117.123 59.636ZM121.499 60.5451V61.2553H118.558V60.5451H121.499ZM119.439 65.9996V59.7922C119.439 59.4797 119.512 59.2193 119.659 59.011C119.806 58.8027 119.997 58.6464 120.231 58.5422C120.465 58.4381 120.713 58.386 120.973 58.386C121.179 58.386 121.347 58.4026 121.477 58.4357C121.608 58.4689 121.705 58.4996 121.769 58.528L121.527 59.2525C121.485 59.2383 121.425 59.2205 121.35 59.1992C121.276 59.1779 121.179 59.1672 121.058 59.1672C120.781 59.1672 120.581 59.2371 120.458 59.3768C120.338 59.5164 120.277 59.7212 120.277 59.9911V65.9996H119.439ZM123.213 68.0451C123.071 68.0451 122.944 68.0333 122.833 68.0096C122.722 67.9883 122.645 67.967 122.602 67.9457L122.815 67.207C123.019 67.2591 123.199 67.278 123.355 67.2638C123.511 67.2496 123.65 67.1798 123.771 67.0543C123.894 66.9312 124.006 66.7312 124.108 66.4542L124.264 66.028L122.247 60.5451H123.156L124.662 64.8917H124.719L126.224 60.5451H127.134L124.818 66.7951C124.714 67.0768 124.585 67.31 124.431 67.4947C124.277 67.6817 124.098 67.8202 123.895 67.9101C123.694 68.0001 123.466 68.0451 123.213 68.0451ZM133.103 59.1796L132.273 59.1596C132.173 60.1996 131.963 61.3296 131.673 62.2796C131.163 63.9696 130.623 64.6496 130.153 64.6496C129.703 64.6496 129.133 64.0896 129.133 62.8296C129.133 61.3596 130.503 59.5496 132.703 59.5496C134.623 59.5496 135.733 60.8696 135.733 62.4696C135.733 64.1996 134.473 65.1596 133.193 65.4496C132.953 65.4996 132.653 65.5396 132.333 65.5696L132.793 66.3096C135.173 65.9996 136.553 64.5996 136.553 62.5096C136.553 60.4796 135.063 58.8296 132.723 58.8296C130.273 58.8296 128.343 60.7196 128.343 62.8896C128.343 64.5496 129.233 65.5696 130.133 65.5696C131.053 65.5696 131.853 64.5096 132.463 62.4596C132.773 61.3896 132.973 60.2196 133.103 59.1796ZM140.293 64.0096V65.6096C140.293 66.3896 140.583 66.5896 141.673 66.5896C141.903 66.5896 143.523 66.5896 143.763 66.5896C144.673 66.5896 144.903 66.2896 145.003 65.0296C144.793 64.9796 144.483 64.8796 144.313 64.7496C144.273 65.7696 144.193 65.9096 143.703 65.9096C143.343 65.9096 141.993 65.9096 141.723 65.9096C141.133 65.9096 141.033 65.8696 141.033 65.5996V64.0096H140.293ZM141.613 63.6596C142.083 64.1196 142.683 64.7696 142.983 65.1496L143.523 64.6996C143.213 64.3196 142.603 63.7096 142.133 63.2696L141.613 63.6596ZM145.133 63.9896C145.543 64.6496 146.063 65.5396 146.303 66.0596L146.993 65.7096C146.743 65.1996 146.203 64.3396 145.793 63.6996L145.133 63.9896ZM138.873 63.8896C138.683 64.5596 138.343 65.4096 137.933 65.9396L138.593 66.2796C139.003 65.7196 139.323 64.8196 139.533 64.1496L138.873 63.8896ZM138.013 59.0996V59.7496H142.153V59.0996H138.013ZM139.853 57.6296V63.4596H140.563V57.6296H139.853ZM139.823 59.4996C139.403 60.5996 138.583 61.7696 137.793 62.3396C137.943 62.4596 138.163 62.6996 138.283 62.8696C139.083 62.1996 139.903 60.9196 140.343 59.6796L139.823 59.4996ZM140.503 60.2796L140.103 60.6496C140.503 60.9496 141.473 61.7796 141.823 62.1296L142.233 61.5296C141.953 61.3096 140.833 60.4796 140.503 60.2796ZM143.283 60.2696H145.783V61.2096H143.283V60.2696ZM143.283 61.7896H145.783V62.7396H143.283V61.7896ZM143.283 58.7496H145.783V59.6696H143.283V58.7496ZM142.593 58.1296V63.3596H146.503V58.1296H142.593ZM149.583 60.6596V61.3796H155.413V60.6596H149.583ZM152.463 63.0496V63.7596H155.833V63.0496H152.463ZM152.063 61.0296V65.9896L152.843 66.0896V61.0296H152.063ZM149.693 62.2396C149.473 64.0496 148.933 65.4796 147.813 66.3496C147.993 66.4596 148.313 66.7196 148.433 66.8496C149.563 65.8696 150.193 64.3396 150.473 62.3196L149.693 62.2396ZM150.163 63.5296L149.553 63.7596C150.413 66.1996 152.043 66.6696 154.423 66.6696H156.773C156.803 66.4496 156.933 66.0896 157.053 65.9096C156.563 65.9196 154.833 65.9196 154.463 65.9196C152.433 65.9196 150.873 65.5696 150.163 63.5296ZM152.053 57.6096V59.2296H152.843V57.6096H152.053ZM148.293 58.7496V60.9296H149.033V59.4696H155.883V60.9296H156.653V58.7496H148.293ZM165.303 59.5796L164.633 59.2596C164.523 59.3096 164.213 59.3496 164.013 59.3496C163.313 59.3496 160.803 59.3496 160.333 59.3496C160.003 59.3496 159.683 59.3196 159.383 59.2896V60.1796C159.693 60.1496 159.963 60.1396 160.343 60.1396C160.813 60.1396 163.403 60.1396 164.273 60.1396C164.253 60.8796 163.773 63.9196 163.603 64.7896H164.503C164.643 63.9096 165.113 60.9196 165.223 59.9096C165.233 59.8296 165.263 59.6796 165.303 59.5796ZM158.263 64.5196V65.4396C158.563 65.4096 158.863 65.3896 159.143 65.3896H165.883C166.093 65.3896 166.453 65.3996 166.723 65.4396V64.5196C166.463 64.5496 166.193 64.5796 165.883 64.5796H159.143C158.863 64.5796 158.553 64.5696 158.263 64.5196ZM168.483 61.6696V62.6496C168.803 62.6296 169.333 62.6096 169.883 62.6096C170.623 62.6096 174.613 62.6096 175.373 62.6096C175.813 62.6096 176.233 62.6396 176.443 62.6496V61.6696C176.213 61.6896 175.863 61.7296 175.363 61.7296C174.623 61.7296 170.613 61.7296 169.883 61.7296C169.313 61.7296 168.793 61.6996 168.483 61.6696ZM185.237 58.3796L184.757 58.5296C184.957 58.9096 185.187 59.5096 185.327 59.9296L185.827 59.7596C185.687 59.3596 185.427 58.7396 185.237 58.3796ZM186.237 58.0696L185.747 58.2196C185.957 58.5996 186.177 59.1696 186.337 59.6196L186.837 59.4496C186.687 59.0496 186.427 58.4396 186.237 58.0696ZM184.287 61.5896V59.2196C184.287 58.8296 184.327 58.4996 184.337 58.3996H183.437C183.457 58.4996 183.487 58.8296 183.487 59.2196V61.6496C183.487 64.4496 182.577 65.3096 180.757 66.0096L181.437 66.6396C183.717 65.6196 184.287 64.2496 184.287 61.5896ZM180.687 58.4696H179.797C179.827 58.6896 179.837 58.9796 179.837 59.1896V62.8596C179.837 63.2396 179.807 63.6596 179.797 63.7596H180.677C180.667 63.6596 180.637 63.2196 180.637 62.8596V59.1896C180.637 58.8396 180.677 58.5596 180.687 58.4696ZM177.757 60.4096V61.2696C177.877 61.2596 178.327 61.2396 178.767 61.2396H185.387C185.827 61.2396 186.197 61.2496 186.307 61.2696V60.4196C186.167 60.4396 185.827 60.4696 185.387 60.4696H178.767C178.337 60.4696 177.847 60.4196 177.757 60.4096ZM188.287 61.6696V62.6496C188.607 62.6296 189.137 62.6096 189.687 62.6096C190.427 62.6096 194.417 62.6096 195.177 62.6096C195.617 62.6096 196.037 62.6396 196.247 62.6496V61.6696C196.017 61.6896 195.667 61.7296 195.167 61.7296C194.427 61.7296 190.417 61.7296 189.687 61.7296C189.117 61.7296 188.597 61.6996 188.287 61.6696ZM201.517 58.2396L200.587 58.1396C200.587 58.9096 200.457 59.8096 200.267 60.6096C199.997 61.8296 199.197 64.4996 198.057 66.0296L198.877 66.3496C200.007 64.5296 200.717 62.0396 201.057 60.6296C201.197 60.0096 201.327 59.1896 201.397 58.8296C201.437 58.6396 201.477 58.4196 201.517 58.2396ZM204.957 59.3896L204.227 59.7196C204.927 60.5496 205.717 62.2896 206.007 63.3096L206.787 62.9396C206.447 62.0196 205.577 60.1996 204.957 59.3896ZM197.917 60.4296L197.997 61.2996C198.257 61.2596 198.667 61.2096 198.897 61.1796C199.507 61.1196 201.387 60.8896 202.057 60.8896C202.697 60.8896 203.117 61.0596 203.117 61.9796C203.117 63.0596 202.957 64.3596 202.637 65.0396C202.437 65.4696 202.137 65.5496 201.767 65.5496C201.487 65.5496 200.957 65.4796 200.537 65.3496L200.677 66.1796C200.987 66.2596 201.467 66.3296 201.847 66.3296C202.497 66.3296 202.997 66.1596 203.307 65.4896C203.727 64.6596 203.887 63.0696 203.887 61.8796C203.887 60.5296 203.157 60.1896 202.267 60.1896C201.587 60.1896 199.557 60.4096 198.807 60.4296C198.487 60.4396 198.227 60.4496 197.917 60.4296ZM205.067 57.9396L204.527 58.1696C204.807 58.5496 205.147 59.1496 205.347 59.5596L205.887 59.3196C205.677 58.9096 205.317 58.2996 205.067 57.9396ZM206.167 57.5396L205.637 57.7696C205.927 58.1396 206.257 58.7096 206.467 59.1496L207.017 58.9096C206.817 58.5396 206.437 57.9096 206.167 57.5396ZM212.197 57.5896C211.857 58.8596 211.257 60.0696 210.477 60.8496C210.657 60.9596 210.957 61.1996 211.077 61.3196C211.847 60.4596 212.517 59.1396 212.917 57.7496L212.197 57.5896ZM215.817 58.9096V59.0596C215.727 62.2196 215.627 63.2996 215.427 63.5496C215.347 63.6596 215.277 63.6896 215.117 63.6796C214.957 63.6796 214.587 63.6796 214.177 63.6396C214.277 63.8396 214.357 64.1396 214.367 64.3496C214.797 64.3596 215.217 64.3696 215.467 64.3396C215.727 64.3096 215.897 64.2396 216.067 64.0096C216.337 63.6596 216.427 62.5296 216.527 59.2496C216.527 59.1596 216.537 58.9096 216.537 58.9096H215.817ZM211.677 62.7296V63.3996H214.537V60.5896H211.517V61.2496H213.837V62.7296H211.677ZM211.357 62.7296V65.6596C211.357 66.5596 211.707 66.7696 212.887 66.7696C213.157 66.7696 215.147 66.7696 215.427 66.7696C216.517 66.7696 216.757 66.3996 216.877 64.9296C216.667 64.8896 216.357 64.7796 216.187 64.6496C216.127 65.8996 216.027 66.0996 215.387 66.0996C214.937 66.0996 213.257 66.0996 212.917 66.0996C212.217 66.0996 212.077 66.0196 212.077 65.6596V62.7296H211.357ZM212.027 58.9096V59.5896H216.087V58.9096H212.027ZM207.547 62.9196L207.717 63.6596C208.607 63.3896 209.757 63.0296 210.847 62.6896L210.757 62.0196C209.577 62.3596 208.357 62.7196 207.547 62.9196ZM207.717 59.6196V60.3196H210.767V59.6196H207.717ZM209.077 57.6096V65.8896C209.077 66.0396 209.017 66.0796 208.887 66.0796C208.767 66.0896 208.347 66.0896 207.897 66.0696C207.997 66.2796 208.097 66.6096 208.127 66.7996C208.777 66.7996 209.187 66.7796 209.447 66.6496C209.707 66.5296 209.797 66.3196 209.797 65.8896V57.6096H209.077ZM220.397 58.1196L220.267 58.8496C221.487 59.0696 223.237 59.2896 224.237 59.3796L224.347 58.6396C223.387 58.5896 221.477 58.3596 220.397 58.1196ZM224.547 60.9796L224.067 60.4296C223.967 60.4696 223.757 60.5196 223.587 60.5396C222.827 60.6396 220.507 60.7896 219.927 60.8096C219.607 60.8096 219.317 60.8096 219.087 60.7896L219.157 61.6596C219.367 61.6296 219.627 61.5896 219.957 61.5696C220.567 61.5196 222.247 61.3696 223.037 61.3296C222.057 62.3096 219.337 65.0396 218.927 65.4396C218.737 65.6296 218.557 65.7896 218.427 65.8896L219.187 66.4196C219.757 65.6996 220.847 64.5496 221.217 64.1996C221.447 63.9696 221.687 63.8296 221.957 63.8296C222.237 63.8296 222.457 64.0196 222.567 64.3696C222.667 64.6496 222.807 65.2396 222.907 65.5396C223.127 66.1996 223.617 66.3896 224.427 66.3896C224.957 66.3896 225.877 66.3196 226.297 66.2396L226.357 65.3996C225.877 65.5196 225.117 65.6096 224.467 65.6096C223.947 65.6096 223.717 65.4396 223.597 65.0596C223.497 64.7396 223.357 64.2296 223.257 63.9396C223.117 63.5296 222.887 63.2696 222.507 63.2296C222.397 63.1996 222.217 63.1996 222.107 63.2096C222.487 62.8196 223.607 61.7696 223.987 61.4196C224.107 61.3196 224.357 61.1096 224.547 60.9796ZM229.355 58.6396L229.375 59.4596C229.595 59.4296 229.815 59.4196 230.045 59.3996C230.565 59.3696 232.565 59.2896 233.095 59.2596C232.595 59.7096 231.335 60.7596 230.775 61.2196C230.205 61.7096 228.915 62.7896 228.085 63.4696L228.665 64.0496C229.925 62.7596 230.825 62.0596 232.485 62.0596C233.795 62.0596 234.735 62.7896 234.735 63.7796C234.735 65.0296 233.665 65.7296 231.965 65.7296C231.175 65.7296 230.625 65.4396 230.625 64.9496C230.625 64.5996 230.975 64.3196 231.435 64.3196C232.235 64.3196 232.725 64.9296 232.785 65.7796L233.505 65.6596C233.435 64.6496 232.765 63.7096 231.435 63.7096C230.515 63.7096 229.895 64.3296 229.895 65.0096C229.895 65.8496 230.725 66.4396 232.085 66.4396C234.205 66.4396 235.535 65.3896 235.535 63.7796C235.535 62.4296 234.345 61.4396 232.685 61.4396C232.235 61.4396 231.755 61.4896 231.295 61.6396C232.075 60.9996 233.435 59.8296 233.925 59.4496C234.115 59.2996 234.315 59.1696 234.495 59.0496L234.035 58.4596C233.925 58.4996 233.785 58.5196 233.485 58.5496C232.955 58.5996 230.585 58.6696 230.055 58.6696C229.855 58.6696 229.575 58.6596 229.355 58.6396ZM240.595 58.3096C240.995 59.0796 241.375 60.0996 241.495 60.7296L242.175 60.4496C242.055 59.8196 241.655 58.8296 241.235 58.0796L240.595 58.3096ZM242.655 57.8596C242.955 58.6396 243.215 59.6796 243.275 60.3096L243.985 60.0796C243.915 59.4696 243.625 58.4596 243.315 57.6796L242.655 57.8596ZM241.975 62.2496C243.045 62.9696 244.295 64.0496 244.875 64.7896L245.295 64.2196C244.705 63.4996 243.425 62.4696 242.355 61.7596L241.975 62.2496ZM240.875 61.4196V66.7396H241.595V61.4196H240.875ZM245.535 61.3896V66.7196H246.265V61.3896H245.535ZM241.235 65.4096V66.0896H245.875V65.4096H241.235ZM245.665 57.8296C245.315 58.9096 244.745 60.0596 244.145 60.7896C244.345 60.8796 244.695 61.0396 244.855 61.1596C245.435 60.3696 246.035 59.1696 246.435 58.0096L245.665 57.8296ZM244.245 61.1796C243.745 62.6396 242.875 63.9796 241.815 64.8196C241.975 64.9196 242.255 65.1396 242.375 65.2596C243.435 64.3296 244.355 62.9196 244.915 61.3296L244.245 61.1796ZM238.745 57.5996V66.7896H239.475V57.5996H238.745ZM237.755 59.5296C237.735 60.4096 237.585 61.4996 237.235 62.1096L237.755 62.3496C238.125 61.6596 238.295 60.5096 238.295 59.6096L237.755 59.5296ZM239.565 59.4396C239.875 60.0196 240.185 60.7896 240.285 61.2696L240.815 60.9996C240.715 60.5396 240.385 59.7996 240.055 59.2296L239.565 59.4396ZM249.205 58.6696L249.235 59.4896C249.475 59.4596 249.765 59.4296 249.985 59.4196C250.435 59.3996 251.655 59.3396 252.055 59.3296C251.715 60.0396 251.265 61.0696 250.865 61.9396C250.485 62.7796 250.035 63.9396 249.625 64.4796C249.415 64.7496 249.245 64.8296 249.015 64.8296C248.705 64.8296 248.415 64.5996 248.415 64.1496C248.415 63.2296 249.365 62.2996 251.025 62.2996C253.085 62.2996 254.915 63.4096 256.085 64.4196L256.455 63.5696C255.375 62.7996 253.395 61.5996 251.145 61.5996C249.115 61.5996 247.695 62.7496 247.695 64.2596C247.695 65.0896 248.245 65.6296 248.985 65.6296C249.505 65.6296 249.895 65.4396 250.245 64.9296C250.675 64.3096 251.225 62.9496 251.625 62.0696C252.085 61.0396 252.635 59.7596 252.955 59.2396C253.035 59.1096 253.115 59.0096 253.215 58.8996L252.715 58.4996C252.575 58.5496 252.405 58.5896 252.215 58.5996C251.795 58.6396 250.485 58.6996 249.955 58.6996C249.745 58.6996 249.455 58.6896 249.205 58.6696ZM255.455 60.8596L254.635 60.7696C254.665 61.0596 254.655 61.3996 254.635 61.6996C254.525 63.1796 254.095 65.0696 251.745 66.0596L252.405 66.6096C254.735 65.4396 255.315 63.7096 255.455 60.8596ZM259.705 66.5596L260.385 65.9796C259.755 65.2496 258.855 64.3496 258.135 63.7696L257.485 64.3396C258.195 64.9196 259.055 65.7696 259.705 66.5596ZM271.035 62.7596V63.4396H276.435V62.7596H271.035ZM274.325 63.1496L273.775 63.3596C274.325 64.4496 275.305 65.6496 276.155 66.2896C276.275 66.0996 276.515 65.8496 276.685 65.7096C275.825 65.1896 274.845 64.1196 274.325 63.1496ZM272.085 60.2696H275.425V61.3096H272.085V60.2696ZM272.085 58.6396H275.425V59.6596H272.085V58.6396ZM271.405 58.0196V61.9296H276.135V58.0196H271.405ZM273.185 63.0996C272.675 64.1696 271.675 65.2596 270.705 65.7796C270.865 65.9196 271.095 66.1796 271.205 66.3496C272.195 65.7396 273.205 64.5296 273.755 63.3096L273.185 63.0996ZM273.405 58.3396V61.6296H273.375V66.7996H274.105V61.6296H274.065V58.3396H273.405ZM267.805 60.6296V61.2296H270.645V60.6296H267.805ZM267.845 57.9596V58.5596H270.605V57.9596H267.845ZM267.805 61.9696V62.5696H270.645V61.9696H267.805ZM267.355 59.2696V59.8896H270.905V59.2696H267.355ZM268.135 63.3196V63.9396H269.995V65.6096H268.135V66.2396H270.645V63.3196H268.135ZM267.795 63.3196V66.6996H268.435V63.3196H267.795ZM278.695 59.8496H280.645V60.6096H278.695V59.8496ZM278.695 58.5696H280.645V59.3196H278.695V58.5696ZM278.025 58.0296V61.1696H281.345V58.0296H278.025ZM277.425 61.9096V62.4896H281.935V61.9096H277.425ZM281.875 58.0996V58.6596H286.435V58.0996H281.875ZM279.425 62.0896V65.4996L280.065 65.8996V62.0896H279.425ZM279.765 63.5696V64.1396H281.765V63.5696H279.765ZM283.855 58.2396C283.765 58.6696 283.595 59.2896 283.435 59.6996L283.995 59.8296C284.175 59.4596 284.375 58.8896 284.565 58.3796L283.855 58.2396ZM282.945 61.2696H285.335V62.0196H282.945V61.2696ZM282.945 62.5396H285.335V63.3096H282.945V62.5396ZM282.945 59.9896H285.335V60.7296H282.945V59.9896ZM282.265 59.4396V63.8596H286.035V59.4396H282.265ZM283.095 64.0396C282.715 64.4996 282.065 64.9496 281.445 65.2396C281.585 65.3496 281.835 65.5896 281.945 65.6996C282.565 65.3596 283.295 64.7896 283.735 64.2296L283.095 64.0396ZM278.125 63.0396C278.075 64.2696 277.915 65.6196 277.305 66.3496C277.465 66.4596 277.685 66.6796 277.785 66.8296C278.495 65.9796 278.695 64.4796 278.755 63.0396H278.125ZM278.595 64.0196L278.125 64.1896C278.955 66.2596 280.565 66.5896 283.115 66.5896H286.365C286.405 66.3896 286.525 66.0996 286.635 65.9396C286.045 65.9596 283.565 65.9596 283.115 65.9596C280.865 65.9596 279.305 65.7396 278.595 64.0196ZM284.495 64.3096C285.035 64.6796 285.705 65.2596 286.025 65.6596L286.575 65.3096C286.245 64.9296 285.585 64.3696 285.005 64.0196L284.495 64.3096ZM288.915 63.5696C288.075 63.5696 287.385 64.2496 287.385 65.0896C287.385 65.9296 288.075 66.6096 288.915 66.6096C289.755 66.6096 290.435 65.9296 290.435 65.0896C290.435 64.2496 289.755 63.5696 288.915 63.5696ZM288.915 66.0996C288.355 66.0996 287.895 65.6496 287.895 65.0896C287.895 64.5296 288.355 64.0796 288.915 64.0796C289.475 64.0796 289.925 64.5296 289.925 65.0896C289.925 65.6496 289.475 66.0996 288.915 66.0996Z" fill="black"/>
<path d="M20.18 22.18V23.6H31.76V22.18H20.18ZM20.18 26.92V28.34H31.76V26.92H20.18ZM20.18 31.68V33.14H31.76V31.68H20.18ZM19.14 17.44V34.5H20.64V18.92H31.16V34.5H32.72V17.44H19.14ZM38.62 19.42V20.76H43.3V31.14H38.62V32.5H44.7V19.42H38.62ZM37.72 19.42V34.1H39.12V19.42H37.72ZM38.52 24.98V26.32H44.04V24.98H38.52ZM40.78 16.16C40.62 17.2 40.24 18.72 39.9 19.68L41.1 19.98C41.5 19.08 42 17.7 42.4 16.46L40.78 16.16ZM47.54 19.36V20.76H53.68V19.36H47.54ZM53.16 19.36V19.68C52.88 28.5 52.56 31.82 51.9 32.54C51.68 32.8 51.44 32.86 51.04 32.86C50.58 32.86 49.38 32.84 48.08 32.74C48.36 33.14 48.54 33.76 48.58 34.2C49.7 34.26 50.88 34.3 51.56 34.22C52.26 34.16 52.72 33.98 53.16 33.4C53.96 32.42 54.24 29.32 54.56 20.14C54.56 19.92 54.56 19.36 54.56 19.36H53.16ZM47.96 16.12C47.32 18.9 46.22 21.66 44.86 23.42C45.22 23.62 45.84 24.04 46.1 24.28C47.48 22.38 48.66 19.44 49.4 16.46L47.96 16.12ZM47.04 24.56C48.14 26.02 49.48 28 50.08 29.22L51.36 28.42C50.72 27.24 49.34 25.3 48.2 23.88L47.04 24.56Z" fill="black"/>
<path d="M30 106C30 101.029 34.0294 97 39 97H154C158.971 97 163 101.029 163 106V215C163 219.971 158.971 224 154 224H39C34.0294 224 30 219.971 30 215V106Z" fill="white"/>
<path d="M49.31 112.25L48.81 111.77C48.67 111.81 48.31 111.84 48.12 111.84C47.52 111.84 42.85 111.84 42.37 111.84C42 111.84 41.59 111.8 41.24 111.75V112.65C41.63 112.62 42 112.6 42.37 112.6C42.85 112.6 47.37 112.6 48.07 112.6C47.75 113.22 46.81 114.3 45.88 114.83L46.55 115.36C47.69 114.57 48.64 113.28 49.04 112.6C49.11 112.49 49.23 112.34 49.31 112.25ZM45.31 113.56H44.41C44.45 113.83 44.45 114.05 44.45 114.29C44.45 115.96 44.23 117.38 42.69 118.33C42.41 118.52 42.06 118.69 41.79 118.78L42.52 119.38C45.07 118.1 45.31 116.27 45.31 113.56ZM51.8696 111.68L51.2896 112.29C52.0396 112.78 53.2796 113.86 53.7896 114.38L54.4096 113.74C53.8596 113.19 52.5696 112.15 51.8696 111.68ZM51.0096 118.38L51.5296 119.2C53.1996 118.89 54.4596 118.27 55.4696 117.64C56.9796 116.69 58.1396 115.33 58.8196 114.09L58.3396 113.23C57.7596 114.47 56.5496 115.95 54.9996 116.92C54.0496 117.51 52.7496 118.12 51.0096 118.38ZM63.7196 111.27L62.7496 111.09C62.7296 111.35 62.6796 111.63 62.5996 111.88C62.4896 112.27 62.3096 112.78 62.0396 113.28C61.6896 113.89 60.9796 114.92 60.2596 115.43L61.0496 115.91C61.6696 115.38 62.4096 114.37 62.7996 113.59C63.0796 113.04 63.3096 112.43 63.4596 111.98C63.5396 111.77 63.6296 111.5 63.7196 111.27ZM62.4596 112.99L62.3596 113.77C63.0896 113.77 67.2996 113.77 67.8096 113.77C68.0396 113.77 68.4296 113.77 68.7396 113.79V112.93C68.4496 112.98 68.0496 112.99 67.8096 112.99C67.3096 112.99 63.0896 112.99 62.4596 112.99ZM66.1296 113.41H65.2896C65.2296 116.18 64.0996 117.58 63.0696 118.35C62.8496 118.53 62.5496 118.71 62.2596 118.82L63.1096 119.39C64.8996 118.26 66.0396 116.49 66.1296 113.41ZM70.6096 114.67V115.65C70.9296 115.63 71.4596 115.61 72.0096 115.61C72.7496 115.61 76.7396 115.61 77.4996 115.61C77.9396 115.61 78.3596 115.64 78.5696 115.65V114.67C78.3396 114.69 77.9896 114.73 77.4896 114.73C76.7496 114.73 72.7396 114.73 72.0096 114.73C71.4396 114.73 70.9196 114.7 70.6096 114.67ZM82.9596 118.12C82.9596 118.49 82.9496 118.99 82.8996 119.31H83.8696C83.8296 118.98 83.8096 118.44 83.8096 118.12C83.8096 117.65 83.7996 113.86 83.7996 112.31C83.7996 112 83.8296 111.57 83.8696 111.26H82.8896C82.9396 111.58 82.9596 112.02 82.9596 112.31C82.9596 113.14 82.9596 117.56 82.9596 118.12ZM83.6196 113.89V114.77C84.7096 115.11 86.5796 115.82 87.7196 116.43L88.0696 115.58C86.9596 115.04 84.9396 114.27 83.6196 113.89ZM94.9296 112.73V113.32H97.6396V112.73H94.9296ZM94.8296 114.28V114.87H97.7796V114.28H94.8296ZM95.9596 111.88V114.62H96.5696V111.88H95.9596ZM94.0996 111.02V111.68H98.4696V111.02H94.0996ZM95.2896 115.63V116.2H96.9996V117.64H95.2896V118.22H97.5796V115.63H95.2896ZM94.9796 115.63V118.61H95.5496V115.63H94.9796ZM98.1896 111.02V118.86C98.1896 119.02 98.1496 119.06 97.9996 119.06C97.8296 119.07 97.3096 119.08 96.7596 119.05C96.8696 119.26 96.9596 119.6 96.9896 119.8C97.7396 119.8 98.2396 119.79 98.5196 119.66C98.7996 119.54 98.8896 119.3 98.8896 118.86V111.02H98.1896ZM93.7196 111.02V114.61C93.7196 116.09 93.6596 118.06 92.8696 119.45C93.0396 119.53 93.3396 119.74 93.4596 119.87C94.2996 118.39 94.4096 116.18 94.4096 114.61V111.02H93.7196ZM90.3896 113.63V114.23H92.9596V113.63H90.3896ZM90.4496 110.96V111.56H92.9296V110.96H90.4496ZM90.3896 114.97V115.57H92.9596V114.97H90.3896ZM89.9796 112.27V112.89H93.2096V112.27H89.9796ZM90.7396 116.32V116.94H92.3196V118.61H90.7396V119.23H92.9496V116.32H90.7396ZM90.3696 116.32V119.7H90.9896V116.32H90.3696ZM100.13 118.92V119.59H109.07V118.92H100.13ZM102.18 116.33V116.89H107.02V116.33H102.18ZM102.18 117.62V118.18H107.02V117.62H102.18ZM101.82 114.99V119.32H102.56V115.62H106.63V119.28H107.39V114.99H101.82ZM100.17 111.88V112.54H109.04V111.88H100.17ZM104.19 110.6V114.67H104.94V110.6H104.19ZM103.76 112.08C102.96 113.2 101.38 114.28 99.9496 114.77C100.11 114.91 100.32 115.18 100.43 115.35C101.89 114.78 103.48 113.61 104.38 112.33L103.76 112.08ZM105.35 112.09L104.75 112.34C105.65 113.59 107.26 114.74 108.74 115.3C108.85 115.1 109.07 114.82 109.24 114.68C107.76 114.22 106.17 113.18 105.35 112.09ZM42.9688 131.159C42.5639 131.159 42.2159 131.107 41.9247 131.003C41.6335 130.901 41.3909 130.766 41.1967 130.598C41.005 130.432 40.8523 130.255 40.7386 130.065L41.4062 129.597C41.482 129.696 41.5779 129.81 41.6939 129.938C41.8099 130.068 41.9685 130.18 42.1697 130.275C42.3733 130.372 42.6397 130.42 42.9688 130.42C43.4091 130.42 43.7725 130.314 44.0589 130.101C44.3454 129.888 44.4886 129.554 44.4886 129.099V127.991H44.4176C44.3561 128.091 44.2685 128.214 44.1548 128.361C44.0436 128.505 43.8826 128.634 43.6719 128.748C43.4635 128.859 43.1818 128.915 42.8267 128.915C42.3864 128.915 41.991 128.811 41.6406 128.602C41.2926 128.394 41.0168 128.091 40.8132 127.693C40.612 127.295 40.5114 126.812 40.5114 126.244C40.5114 125.686 40.6096 125.199 40.8061 124.785C41.0026 124.368 41.276 124.046 41.6264 123.819C41.9768 123.589 42.3816 123.474 42.8409 123.474C43.196 123.474 43.4777 123.534 43.6861 123.652C43.8968 123.768 44.0578 123.901 44.169 124.05C44.2827 124.196 44.3703 124.317 44.4318 124.412H44.517V123.545H45.3267V129.156C45.3267 129.625 45.2202 130.006 45.0071 130.3C44.7964 130.596 44.5123 130.812 44.1548 130.95C43.7997 131.089 43.4044 131.159 42.9688 131.159ZM42.9403 128.162C43.2765 128.162 43.5606 128.085 43.7926 127.931C44.0246 127.777 44.201 127.556 44.3217 127.267C44.4425 126.978 44.5028 126.633 44.5028 126.23C44.5028 125.837 44.4437 125.49 44.3253 125.19C44.2069 124.889 44.0317 124.653 43.7997 124.483C43.5677 124.312 43.2813 124.227 42.9403 124.227C42.5852 124.227 42.2893 124.317 42.0526 124.497C41.8182 124.677 41.6418 124.919 41.5234 125.222C41.4074 125.525 41.3494 125.861 41.3494 126.23C41.3494 126.609 41.4086 126.944 41.527 127.235C41.6477 127.524 41.8253 127.751 42.0597 127.917C42.2964 128.08 42.59 128.162 42.9403 128.162ZM49.0767 129.114C48.5843 129.114 48.1522 128.996 47.7805 128.762C47.4112 128.528 47.1224 128.2 46.9141 127.778C46.7081 127.357 46.6051 126.865 46.6051 126.301C46.6051 125.733 46.7081 125.237 46.9141 124.813C47.1224 124.389 47.4112 124.06 47.7805 123.826C48.1522 123.592 48.5843 123.474 49.0767 123.474C49.5691 123.474 50 123.592 50.3693 123.826C50.741 124.06 51.0298 124.389 51.2358 124.813C51.4441 125.237 51.5483 125.733 51.5483 126.301C51.5483 126.865 51.4441 127.357 51.2358 127.778C51.0298 128.2 50.741 128.528 50.3693 128.762C50 128.996 49.5691 129.114 49.0767 129.114ZM49.0767 128.361C49.4508 128.361 49.7585 128.265 50 128.073C50.2415 127.881 50.4202 127.629 50.5362 127.317C50.6522 127.004 50.7102 126.666 50.7102 126.301C50.7102 125.937 50.6522 125.597 50.5362 125.282C50.4202 124.967 50.2415 124.713 50 124.518C49.7585 124.324 49.4508 124.227 49.0767 124.227C48.7027 124.227 48.3949 124.324 48.1534 124.518C47.9119 124.713 47.7332 124.967 47.6172 125.282C47.5012 125.597 47.4432 125.937 47.4432 126.301C47.4432 126.666 47.5012 127.004 47.6172 127.317C47.7332 127.629 47.9119 127.881 48.1534 128.073C48.3949 128.265 48.7027 128.361 49.0767 128.361ZM55.0435 129.114C54.5511 129.114 54.119 128.996 53.7473 128.762C53.378 128.528 53.0892 128.2 52.8809 127.778C52.6749 127.357 52.5719 126.865 52.5719 126.301C52.5719 125.733 52.6749 125.237 52.8809 124.813C53.0892 124.389 53.378 124.06 53.7473 123.826C54.119 123.592 54.5511 123.474 55.0435 123.474C55.5359 123.474 55.9668 123.592 56.3361 123.826C56.7078 124.06 56.9966 124.389 57.2026 124.813C57.4109 125.237 57.5151 125.733 57.5151 126.301C57.5151 126.865 57.4109 127.357 57.2026 127.778C56.9966 128.2 56.7078 128.528 56.3361 128.762C55.9668 128.996 55.5359 129.114 55.0435 129.114ZM55.0435 128.361C55.4176 128.361 55.7253 128.265 55.9668 128.073C56.2083 127.881 56.387 127.629 56.503 127.317C56.619 127.004 56.677 126.666 56.677 126.301C56.677 125.937 56.619 125.597 56.503 125.282C56.387 124.967 56.2083 124.713 55.9668 124.518C55.7253 124.324 55.4176 124.227 55.0435 124.227C54.6694 124.227 54.3617 124.324 54.1202 124.518C53.8787 124.713 53.7 124.967 53.584 125.282C53.468 125.597 53.41 125.937 53.41 126.301C53.41 126.666 53.468 127.004 53.584 127.317C53.7 127.629 53.8787 127.881 54.1202 128.073C54.3617 128.265 54.6694 128.361 55.0435 128.361ZM60.9961 131.159C60.5913 131.159 60.2433 131.107 59.9521 131.003C59.6609 130.901 59.4182 130.766 59.2241 130.598C59.0323 130.432 58.8796 130.255 58.766 130.065L59.4336 129.597C59.5094 129.696 59.6052 129.81 59.7212 129.938C59.8372 130.068 59.9959 130.18 60.1971 130.275C60.4007 130.372 60.667 130.42 60.9961 130.42C61.4364 130.42 61.7998 130.314 62.0863 130.101C62.3728 129.888 62.516 129.554 62.516 129.099V127.991H62.445C62.3834 128.091 62.2958 128.214 62.1822 128.361C62.0709 128.505 61.9099 128.634 61.6992 128.748C61.4909 128.859 61.2092 128.915 60.854 128.915C60.4137 128.915 60.0183 128.811 59.668 128.602C59.32 128.394 59.0442 128.091 58.8406 127.693C58.6393 127.295 58.5387 126.812 58.5387 126.244C58.5387 125.686 58.637 125.199 58.8335 124.785C59.0299 124.368 59.3034 124.046 59.6538 123.819C60.0041 123.589 60.409 123.474 60.8683 123.474C61.2234 123.474 61.5051 123.534 61.7134 123.652C61.9241 123.768 62.0851 123.901 62.1964 124.05C62.31 124.196 62.3976 124.317 62.4592 124.412H62.5444V123.545H63.354V129.156C63.354 129.625 63.2475 130.006 63.0344 130.3C62.8237 130.596 62.5397 130.812 62.1822 130.95C61.8271 131.089 61.4317 131.159 60.9961 131.159ZM60.9677 128.162C61.3039 128.162 61.5879 128.085 61.82 127.931C62.052 127.777 62.2283 127.556 62.3491 127.267C62.4698 126.978 62.5302 126.633 62.5302 126.23C62.5302 125.837 62.471 125.49 62.3526 125.19C62.2343 124.889 62.0591 124.653 61.8271 124.483C61.5951 124.312 61.3086 124.227 60.9677 124.227C60.6126 124.227 60.3166 124.317 60.0799 124.497C59.8455 124.677 59.6692 124.919 59.5508 125.222C59.4348 125.525 59.3768 125.861 59.3768 126.23C59.3768 126.609 59.436 126.944 59.5543 127.235C59.6751 127.524 59.8526 127.751 60.087 127.917C60.3237 128.08 60.6173 128.162 60.9677 128.162ZM65.7262 121.727V129H64.8881V121.727H65.7262ZM69.5481 129.114C69.0225 129.114 68.5692 128.998 68.188 128.766C67.8092 128.531 67.5169 128.205 67.3109 127.786C67.1073 127.364 67.0055 126.874 67.0055 126.315C67.0055 125.757 67.1073 125.264 67.3109 124.838C67.5169 124.41 67.8033 124.076 68.1703 123.837C68.5396 123.595 68.9705 123.474 69.4629 123.474C69.747 123.474 70.0275 123.522 70.3045 123.616C70.5815 123.711 70.8336 123.865 71.0609 124.078C71.2882 124.289 71.4693 124.568 71.6042 124.916C71.7392 125.264 71.8066 125.693 71.8066 126.202V126.557H67.6021V125.832H70.9544C70.9544 125.525 70.8928 125.25 70.7697 125.009C70.649 124.767 70.4761 124.576 70.2512 124.437C70.0287 124.297 69.7659 124.227 69.4629 124.227C69.1291 124.227 68.8403 124.31 68.5964 124.476C68.3549 124.639 68.1691 124.852 68.0389 125.115C67.9087 125.378 67.8436 125.66 67.8436 125.96V126.443C67.8436 126.855 67.9146 127.204 68.0566 127.491C68.2011 127.775 68.4011 127.991 68.6568 128.141C68.9125 128.287 69.2096 128.361 69.5481 128.361C69.7683 128.361 69.9672 128.33 70.1447 128.268C70.3246 128.205 70.4797 128.11 70.6099 127.984C70.7401 127.857 70.8407 127.698 70.9118 127.509L71.7214 127.736C71.6362 128.01 71.493 128.252 71.2917 128.46C71.0905 128.666 70.8419 128.827 70.546 128.943C70.2501 129.057 69.9174 129.114 69.5481 129.114ZM80.9245 122.36L80.3145 121.97C80.1245 122.01 79.9245 122.02 79.7745 122.02C79.3245 122.02 75.3345 122.02 74.7645 122.02C74.4345 122.02 74.0345 121.99 73.7645 121.95V122.84C74.0145 122.83 74.3545 122.81 74.7545 122.81C75.3345 122.81 79.2945 122.81 79.8745 122.81C79.7345 123.77 79.2745 125.16 78.5645 126.07C77.7245 127.14 76.6045 127.99 74.6645 128.47L75.3445 129.22C77.1745 128.65 78.3645 127.72 79.2745 126.55C80.0745 125.52 80.5545 123.91 80.7745 122.86C80.8145 122.66 80.8545 122.5 80.9245 122.36ZM88.8245 122.89H87.9745C88.0145 123.11 88.0345 123.37 88.0345 123.57C88.0745 124.45 88.1245 127.45 88.1245 128.63C88.1245 128.82 88.0345 128.93 87.8445 128.93C87.5545 128.93 87.0345 128.89 86.6245 128.83L86.6745 129.57C87.0645 129.59 87.7245 129.62 88.1145 129.62C88.5545 129.62 88.8745 129.37 88.8745 128.94C88.8545 127.49 88.8045 124.45 88.7845 123.57C88.7845 123.34 88.7845 123.1 88.8245 122.89ZM84.3145 124.33V125.13C84.5545 125.11 84.8145 125.1 85.0745 125.1C85.4345 125.1 89.9045 125.1 90.2645 125.1C90.4545 125.1 90.7345 125.11 90.9045 125.12V124.33C90.7645 124.36 90.4445 124.38 90.2345 124.38C89.8245 124.38 85.4845 124.38 85.0645 124.38C84.8245 124.38 84.5545 124.37 84.3145 124.33ZM84.0545 128.16L84.6045 128.77C86.1345 127.97 87.7745 126.46 88.3045 125.48L88.2945 124.88L87.8845 124.87C87.3045 125.92 85.6645 127.39 84.0545 128.16ZM93.3245 124.67V125.65C93.6445 125.63 94.1745 125.61 94.7245 125.61C95.4645 125.61 99.4545 125.61 100.214 125.61C100.654 125.61 101.074 125.64 101.284 125.65V124.67C101.054 124.69 100.704 124.73 100.204 124.73C99.4645 124.73 95.4545 124.73 94.7245 124.73C94.1545 124.73 93.6345 124.7 93.3245 124.67ZM107.232 121.55L106.232 121.34C106.202 121.61 106.162 121.84 106.032 122.3C105.732 123.36 104.572 126.98 104.072 128.13L104.972 128.1C105.402 127.09 106.562 123.5 106.882 122.48C107.022 122.05 107.132 121.79 107.232 121.55ZM109.132 124.9L108.372 125.23C109.092 126.18 110.112 128.26 110.512 129.34L111.342 128.97C110.932 127.94 109.832 125.92 109.132 124.9ZM103.682 127.89C103.392 127.91 103.042 127.92 102.742 127.91L102.902 128.83C103.182 128.79 103.482 128.75 103.732 128.73C105.142 128.59 108.822 128.19 110.212 128.01L109.992 127.23C108.702 127.42 105.122 127.82 103.682 127.89ZM116.562 122.25L116.572 123.06C117.662 123.18 119.602 123.18 120.672 123.06V122.25C119.682 122.4 117.652 122.44 116.562 122.25ZM116.952 126.33L116.232 126.26C116.122 126.74 116.072 127.1 116.072 127.43C116.072 128.37 116.822 128.93 118.492 128.93C119.532 128.93 120.372 128.85 120.992 128.72L120.972 127.88C120.172 128.07 119.392 128.15 118.502 128.15C117.132 128.15 116.812 127.7 116.812 127.24C116.812 126.97 116.862 126.69 116.952 126.33ZM114.662 121.48L113.772 121.41C113.762 121.63 113.732 121.88 113.702 122.11C113.582 122.94 113.252 124.65 113.252 126.12C113.252 127.48 113.422 128.63 113.622 129.34L114.332 129.29C114.322 129.18 114.312 129.04 114.302 128.94C114.302 128.82 114.322 128.63 114.352 128.49C114.442 128.01 114.812 126.96 115.062 126.25L114.642 125.92C114.472 126.33 114.242 126.93 114.072 127.38C114.012 126.89 113.982 126.47 113.982 125.99C113.982 124.86 114.292 123.08 114.482 122.15C114.522 121.97 114.602 121.65 114.662 121.48ZM122.852 122.36L122.942 123.24C124.032 123.01 126.572 122.76 127.652 122.65C126.732 123.19 125.782 124.46 125.782 126.02C125.782 128.26 127.882 129.24 129.742 129.31L130.022 128.49C128.402 128.42 126.572 127.8 126.572 125.85C126.572 124.67 127.442 123.14 128.872 122.68C129.382 122.54 130.252 122.52 130.832 122.53L130.822 121.73C130.152 121.75 129.222 121.81 128.132 121.9C126.282 122.06 124.402 122.24 123.752 122.31C123.552 122.33 123.232 122.35 122.852 122.36ZM136.612 120.61V122.07H137.382V120.61H136.612ZM132.782 121.59V123.53H133.522V122.26H140.462V123.53H141.232V121.59H132.782ZM133.622 123.42V124.05H140.462V123.42H133.622ZM132.632 126.53V127.19H141.442V126.53H132.632ZM133.782 124.95V125.58H140.322V124.95H133.782ZM137.522 126.69L136.842 126.85C137.562 128.51 138.982 129.45 141.092 129.83C141.192 129.63 141.392 129.33 141.552 129.17C139.542 128.89 138.142 128.07 137.522 126.69ZM136.602 122.59V125.08C136.602 126.52 136.302 128.15 132.532 129.2C132.692 129.36 132.912 129.64 132.992 129.8C136.872 128.64 137.352 126.79 137.352 125.08V122.59H136.602ZM147.362 122.01V122.7H151.552V122.01H147.362ZM148.792 123.07V128.11H149.442V123.07H148.792ZM147.602 120.6C147.322 121.84 146.812 123.03 146.122 123.8C146.292 123.92 146.582 124.19 146.702 124.32C147.422 123.45 148.002 122.14 148.342 120.75L147.602 120.6ZM146.282 125.85L146.562 126.46L150.952 124.39L150.682 123.78L146.282 125.85ZM147.162 123.86V128.64C147.162 129.53 147.442 129.76 148.442 129.76C148.662 129.76 150.252 129.76 150.482 129.76C151.332 129.76 151.552 129.42 151.642 128.23C151.452 128.18 151.172 128.07 151.002 127.96C150.962 128.93 150.882 129.11 150.442 129.11C150.102 129.11 148.742 129.11 148.492 129.11C147.942 129.11 147.852 129.03 147.852 128.65V123.86H147.162ZM150.502 123.94C150.502 125.45 150.492 126.64 150.462 126.82C150.442 126.98 150.372 127.01 150.252 127.01C150.162 127.01 149.922 127.01 149.732 127C149.812 127.15 149.872 127.4 149.892 127.59C150.122 127.59 150.432 127.58 150.652 127.53C150.902 127.47 151.072 127.3 151.102 126.98C151.142 126.69 151.152 125.43 151.162 124L151.192 123.88L150.722 123.7L150.592 123.79L150.422 123.94H150.502ZM142.442 122.24V122.94H146.672V122.24H142.442ZM143.882 124.32V125.01H145.642V124.32H143.882ZM144.202 120.62V122.49H144.932V120.62H144.202ZM143.542 122.64C143.512 125.22 143.422 127.86 142.332 129.31C142.532 129.42 142.772 129.64 142.902 129.8C144.082 128.2 144.212 125.43 144.252 122.64H143.542ZM145.402 124.32V124.47C145.342 127.67 145.262 128.78 145.092 129.01C145.012 129.13 144.922 129.15 144.782 129.15C144.632 129.15 144.262 129.15 143.852 129.11C143.962 129.3 144.032 129.59 144.042 129.79C144.462 129.81 144.872 129.81 145.112 129.79C145.372 129.76 145.542 129.68 145.702 129.46C145.962 129.12 146.012 127.99 146.082 124.66C146.092 124.56 146.092 124.32 146.092 124.32H145.402Z" fill="black"/>
<path d="M74.51 140.75V141.46H77.71V140.75H74.51ZM75.93 138.6V147.79H76.62V138.6H75.93ZM75.91 141.19C75.63 142.62 74.96 144.36 74.3 145.26C74.42 145.43 74.6 145.71 74.69 145.91C75.4 144.91 76.07 142.94 76.38 141.35L75.91 141.19ZM76.57 142.15L76.25 142.47C76.51 142.86 77.2 144.04 77.43 144.53L77.85 143.94C77.66 143.65 76.81 142.42 76.57 142.15ZM78.7 140.97V141.61H82.51V140.97H78.7ZM80.58 139.28C81.22 140.17 82.36 141.1 83.38 141.63C83.48 141.43 83.64 141.15 83.78 140.98C82.73 140.52 81.61 139.62 80.9 138.62H80.21C79.67 139.53 78.6 140.51 77.48 141.04C77.61 141.2 77.78 141.47 77.86 141.66C78.95 141.07 80.01 140.13 80.58 139.28ZM78.71 143.13H82.47V144.5H78.71V143.13ZM78.05 142.53V145.12H83.16V142.53H78.05ZM80.22 141.35V143.98C80.22 145.23 79.9 146.48 77.36 147.29C77.49 147.41 77.71 147.69 77.77 147.85C80.45 146.97 80.91 145.44 80.91 144V141.35H80.22ZM81.01 144.73L80.37 144.87C80.98 146.61 81.89 147.32 83.28 147.85C83.36 147.63 83.55 147.38 83.72 147.22C82.44 146.79 81.59 146.23 81.01 144.73ZM88.35 139.21V139.93H93.47V139.21H88.35ZM88.02 146.75V147.46H93.63V146.75H88.02ZM91.1 142.69V143.41H93.41V142.69H91.1ZM90.68 139.49V147.15H91.42V139.49H90.68ZM88.77 141.72V147.07H89.48V141.72H88.77ZM84.85 141.69V142.28H87.67V141.69H84.85ZM84.91 138.96V139.56H87.66V138.96H84.91ZM84.85 143.05V143.65H87.67V143.05H84.85ZM84.38 140.3V140.92H88.02V140.3H84.38ZM85.21 144.42V145.05H87.05V146.72H85.21V147.34H87.71V144.42H85.21ZM84.84 144.42V147.8H85.49V144.42H84.84ZM98.48 138.91C98.41 140.24 98.41 145.05 94.33 147.13C94.56 147.3 94.81 147.53 94.94 147.72C99.08 145.47 99.23 140.48 99.31 138.91H98.48ZM99.28 139.11L98.56 139.18C98.63 140.1 98.91 145.69 103.15 147.72C103.27 147.51 103.5 147.26 103.72 147.09C99.6 145.2 99.31 139.89 99.28 139.11ZM104.39 143.94V144.57H109.3V143.94H104.39ZM104.45 140.45V141.06H109.27V140.45H104.45ZM106.25 143.08C105.83 144 105.2 145.23 104.75 145.99L105.41 146.22C105.87 145.43 106.5 144.21 106.95 143.23L106.25 143.08ZM107.75 144.31C107.44 146.01 106.5 146.83 104.41 147.18C104.55 147.33 104.7 147.6 104.75 147.8C107.06 147.31 108.11 146.35 108.45 144.4L107.75 144.31ZM108.38 138.8C108.2 139.19 107.87 139.77 107.62 140.13L108.12 140.38C108.4 140.04 108.73 139.54 109.02 139.08L108.38 138.8ZM106.52 138.6V143.2H107.21V138.6H106.52ZM104.82 139.08C105.1 139.49 105.36 140.04 105.45 140.4L106.04 140.13C105.94 139.77 105.67 139.24 105.39 138.84L104.82 139.08ZM106.53 140.72C106.09 141.49 105.17 142.29 104.34 142.65C104.48 142.8 104.66 143.05 104.75 143.22C105.61 142.75 106.55 141.86 107.04 141.02L106.53 140.72ZM107.13 141.07L106.77 141.39C107.19 141.67 108.23 142.45 108.59 142.79L109 142.24C108.71 142.03 107.49 141.26 107.13 141.07ZM110.03 140.45V141.15H113.59V140.45H110.03ZM110.28 138.6C110 140.37 109.48 142.06 108.63 143.12C108.81 143.24 109.12 143.49 109.24 143.63C110.12 142.46 110.71 140.67 111.04 138.71L110.28 138.6ZM112.25 140.85C111.84 144.02 110.88 146.04 108.5 147.16C108.65 147.32 108.87 147.65 108.95 147.83C111.47 146.53 112.53 144.38 113.01 140.93L112.25 140.85ZM110.43 141.07L109.75 141.18C110.25 144.21 111.2 146.65 113.16 147.8C113.27 147.6 113.51 147.31 113.69 147.16C111.83 146.18 110.87 143.82 110.43 141.07ZM105.35 145.85C106.51 146.32 107.7 146.99 108.39 147.55L108.91 147.01C108.19 146.46 106.95 145.8 105.75 145.34L105.35 145.85Z" fill="black"/>
<path d="M88.1676 159.099C87.8693 159.095 87.571 159.038 87.2727 158.929C86.9744 158.82 86.7022 158.637 86.456 158.379C86.2098 158.118 86.0121 157.767 85.8629 157.324C85.7138 156.879 85.6392 156.32 85.6392 155.648C85.6392 155.004 85.6996 154.433 85.8203 153.936C85.9411 153.437 86.1162 153.016 86.3459 152.675C86.5755 152.332 86.8525 152.072 87.1768 151.894C87.5036 151.717 87.8717 151.628 88.2812 151.628C88.6884 151.628 89.0507 151.71 89.3679 151.873C89.6875 152.034 89.9479 152.259 90.1491 152.548C90.3504 152.836 90.4806 153.169 90.5398 153.545H89.6733C89.5928 153.219 89.4366 152.948 89.2045 152.732C88.9725 152.517 88.6648 152.409 88.2812 152.409C87.7178 152.409 87.2739 152.654 86.9496 153.144C86.6276 153.634 86.4654 154.322 86.4631 155.207H86.5199C86.6525 155.006 86.8099 154.835 86.9922 154.692C87.1768 154.548 87.3804 154.437 87.603 154.359C87.8255 154.281 88.0611 154.241 88.3097 154.241C88.7263 154.241 89.1075 154.346 89.4531 154.554C89.7988 154.76 90.0758 155.045 90.2841 155.41C90.4924 155.772 90.5966 156.188 90.5966 156.656C90.5966 157.106 90.496 157.518 90.2947 157.892C90.0935 158.264 89.8106 158.56 89.446 158.78C89.0838 158.998 88.6577 159.104 88.1676 159.099ZM88.1676 158.318C88.4659 158.318 88.7334 158.244 88.9702 158.094C89.2093 157.945 89.3975 157.745 89.5348 157.494C89.6745 157.243 89.7443 156.964 89.7443 156.656C89.7443 156.356 89.6768 156.082 89.5419 155.836C89.4093 155.587 89.2259 155.39 88.9915 155.243C88.7595 155.096 88.4943 155.023 88.196 155.023C87.9711 155.023 87.7616 155.068 87.5675 155.158C87.3733 155.245 87.2029 155.366 87.0561 155.52C86.9117 155.674 86.7981 155.85 86.7152 156.049C86.6323 156.246 86.5909 156.453 86.5909 156.67C86.5909 156.959 86.6584 157.229 86.7933 157.48C86.9306 157.731 87.1177 157.933 87.3544 158.087C87.5935 158.241 87.8646 158.318 88.1676 158.318ZM94.8802 158.71V159.4H99.7102V158.71H94.8802ZM94.5402 151.61V152.28H98.2102V151.61H94.5402ZM94.9902 150.57C94.4102 151.66 93.2602 152.95 91.6102 153.85C91.7802 153.98 92.0302 154.24 92.1402 154.43C93.8802 153.4 95.0802 152.04 95.8302 150.74L94.9902 150.57ZM97.9602 151.61V151.74C96.9202 154.37 94.1502 156.33 91.5602 157.08C91.7202 157.24 91.9102 157.55 92.0002 157.75C94.7202 156.87 97.5402 154.86 98.7402 151.84L98.2402 151.57L98.1002 151.61H97.9602ZM93.2902 153.39C94.0802 153.95 95.0302 154.79 95.4502 155.36L96.0602 154.82C95.6002 154.25 94.6402 153.45 93.8502 152.91L93.2902 153.39ZM99.3402 155.55V159.82H100.11V155.55H99.3402ZM95.2202 155.55H95.0702L94.4702 156.14V159.8H95.2202V156.24H99.7202V155.55H95.2202Z" fill="black"/>
<ellipse cx="49" cy="172.231" rx="7" ry="7.2313" fill="#758BFD"/>
<rect x="44.2104" y="185.552" width="9.57895" height="30.4476" fill="#758BFD"/>
<ellipse cx="68" cy="172.231" rx="7" ry="7.2313" fill="#758BFD"/>
<rect x="63.2104" y="185.552" width="9.57895" height="30.4476" fill="#758BFD"/>
<ellipse cx="87" cy="172.231" rx="7" ry="7.2313" fill="#758BFD"/>
<rect x="82.2104" y="185.552" width="9.57895" height="30.4476" fill="#758BFD"/>
<ellipse cx="106" cy="172.231" rx="7" ry="7.2313" fill="#758BFD"/>
<rect x="101.21" y="185.552" width="9.57895" height="30.4476" fill="#758BFD"/>
<ellipse cx="125" cy="172.231" rx="7" ry="7.2313" fill="#758BFD"/>
<rect x="120.21" y="185.552" width="9.57895" height="30.4476" fill="#758BFD"/>
<ellipse cx="144" cy="172.231" rx="7" ry="7.2313" fill="#758BFD"/>
<rect x="139.21" y="185.552" width="9.57895" height="30.4476" fill="#758BFD"/>
<path d="M221 106C221 101.029 225.029 97 230 97H345C349.971 97 354 101.029 354 106V215C354 219.971 349.971 224 345 224H230C225.029 224 221 219.971 221 215V106Z" fill="white"/>
<path d="M238.86 113.39L239.25 114.17C240.86 113.67 242.45 112.94 243.55 112.26C244.72 111.53 245.77 110.69 246.63 109.8L245.96 109.17C245.27 110.01 244.27 110.87 243.22 111.53C242.11 112.22 240.59 112.93 238.86 113.39ZM243.06 111.94V116.25C243.06 116.62 243.03 117.12 243 117.31H243.99C243.94 117.12 243.92 116.62 243.92 116.25V111.68L243.06 111.94ZM250.27 109.68L249.69 110.29C250.44 110.78 251.68 111.86 252.19 112.38L252.81 111.74C252.26 111.19 250.97 110.15 250.27 109.68ZM249.41 116.38L249.93 117.2C251.6 116.89 252.86 116.27 253.87 115.64C255.38 114.69 256.54 113.33 257.22 112.09L256.74 111.23C256.16 112.47 254.95 113.95 253.4 114.92C252.45 115.51 251.15 116.12 249.41 116.38ZM262.15 112.42L261.6 112.98C262.84 113.75 264.55 114.98 265.47 115.82L266.06 115.12C265.07 114.32 263.43 113.17 262.15 112.42ZM266.72 110.6L266.06 110.2C265.9 110.26 265.68 110.29 265.41 110.29H262.23L261.91 111.01H265.61C265.38 111.94 264.75 113.21 263.98 114.13C263.08 115.2 261.72 116.26 259.86 116.82L260.57 117.45C262.47 116.75 263.77 115.68 264.68 114.56C265.56 113.48 266.19 112.15 266.49 111.13C266.54 110.97 266.64 110.74 266.72 110.6ZM263.35 109.15L262.44 108.86C262.38 109.12 262.22 109.48 262.12 109.65C261.66 110.57 260.63 112.07 258.92 113.14L259.58 113.65C261.18 112.55 262.31 111.04 262.9 109.94C263 109.75 263.18 109.41 263.35 109.15ZM275.28 109.17L274.75 109.4C275.02 109.78 275.35 110.38 275.55 110.78L276.09 110.54C275.89 110.13 275.53 109.53 275.28 109.17ZM276.37 108.77L275.85 109C276.13 109.37 276.46 109.94 276.67 110.37L277.21 110.13C277.02 109.76 276.64 109.14 276.37 108.77ZM270.79 109.5H269.86C269.9 109.74 269.92 110.07 269.92 110.31C269.92 110.85 269.92 114.85 269.92 115.81C269.92 116.63 270.35 116.98 271.11 117.12C271.53 117.19 272.12 117.21 272.72 117.21C273.81 117.21 275.31 117.14 276.18 117.01V116.09C275.34 116.31 273.81 116.41 272.75 116.41C272.26 116.41 271.75 116.39 271.43 116.33C270.95 116.24 270.73 116.11 270.73 115.59C270.73 114.87 270.73 110.85 270.73 110.31C270.73 110.03 270.76 109.74 270.79 109.5ZM270.36 112.66L270.37 113.49C271.6 113.18 273.58 112.6 274.82 112.1C275.12 111.98 275.48 111.82 275.77 111.7L275.42 110.9C275.13 111.08 274.84 111.22 274.54 111.36C273.38 111.85 271.57 112.4 270.36 112.66ZM285.36 112.25L284.75 111.95C284.67 112 284.42 112.02 284.26 112.02C283.7 112.02 281.6 112.02 281.22 112.02C280.97 112.02 280.66 112 280.42 111.97V112.81C280.67 112.79 280.94 112.78 281.23 112.78C281.5 112.78 283.78 112.78 284.4 112.78C284.37 113.42 284 115.87 283.89 116.41H284.73C284.85 115.71 285.21 113.31 285.3 112.56C285.3 112.47 285.33 112.34 285.36 112.25ZM279.48 116.09V116.92C279.78 116.91 280.01 116.9 280.31 116.9C280.81 116.9 285.23 116.9 285.79 116.9C286.01 116.9 286.37 116.9 286.56 116.91V116.1C286.35 116.12 285.99 116.14 285.77 116.14C285.24 116.14 280.85 116.14 280.31 116.14C280.01 116.14 279.72 116.12 279.48 116.09ZM289.01 112.67V113.65C289.33 113.63 289.86 113.61 290.41 113.61C291.15 113.61 295.14 113.61 295.9 113.61C296.34 113.61 296.76 113.64 296.97 113.65V112.67C296.74 112.69 296.39 112.73 295.89 112.73C295.15 112.73 291.14 112.73 290.41 112.73C289.84 112.73 289.32 112.7 289.01 112.67ZM240.14 119.61V120.44C240.4 120.42 240.73 120.4 241.06 120.4C241.63 120.4 244.54 120.4 245.1 120.4C245.38 120.4 245.73 120.42 246.03 120.44V119.61C245.74 119.64 245.38 119.66 245.1 119.66C244.54 119.66 241.63 119.66 241.05 119.66C240.72 119.66 240.43 119.64 240.14 119.61ZM238.95 122.12V122.95C239.22 122.93 239.52 122.92 239.82 122.92C240.4 122.92 245.83 122.92 246.36 122.92C246.61 122.92 246.92 122.93 247.15 122.94V122.12C246.9 122.15 246.57 122.16 246.36 122.16C245.83 122.16 240.4 122.16 239.82 122.16C239.51 122.16 239.22 122.15 238.95 122.12ZM243.66 122.52L242.82 122.53C242.81 123.63 242.73 124.61 242.23 125.4C241.84 126.04 241.12 126.61 240.35 126.94L241.09 127.48C241.93 127.04 242.69 126.33 243.05 125.66C243.5 124.82 243.66 123.78 243.66 122.52ZM251.91 119.93C252.03 120.45 253.1 125.89 253.2 126.52C253.27 126.81 253.3 127.12 253.35 127.46L254.27 127.29C254.17 127 254.09 126.66 254.02 126.38C253.88 125.72 252.78 120.23 252.72 119.79C252.68 119.57 252.64 119.28 252.62 119.1L251.73 119.25C251.8 119.46 251.86 119.68 251.91 119.93ZM249.09 121.38L249.27 122.27C249.56 122.2 249.8 122.15 250.07 122.1C250.95 121.95 254.36 121.41 255.39 121.25C255.66 121.21 255.96 121.16 256.11 121.15L255.95 120.31C255.78 120.36 255.52 120.42 255.23 120.47C254.28 120.66 250.83 121.21 249.93 121.31C249.61 121.34 249.34 121.36 249.09 121.38ZM249.06 124.26L249.24 125.14C249.46 125.08 249.74 125.02 250.13 124.95C251.14 124.77 254.75 124.18 256.08 123.98C256.45 123.92 256.77 123.86 256.98 123.84L256.81 123C256.6 123.06 256.31 123.13 255.93 123.2C254.73 123.42 251.01 124.03 249.94 124.17C249.68 124.21 249.3 124.25 249.06 124.26ZM265.687 120.32L265.187 119.93C265.027 119.98 264.757 120.01 264.437 120.01C264.057 120.01 260.967 120.01 260.577 120.01C260.267 120.01 259.697 119.97 259.567 119.95V120.85C259.677 120.84 260.217 120.8 260.577 120.8C260.917 120.8 264.117 120.8 264.477 120.8C264.217 121.63 263.487 122.82 262.807 123.59C261.777 124.73 260.307 125.93 258.687 126.55L259.327 127.22C260.907 126.5 262.337 125.31 263.457 124.06C264.287 123.14 265.047 121.74 265.447 120.75C265.497 120.62 265.627 120.4 265.687 120.32ZM263.587 123.54L263.017 124.1C264.097 125.05 265.267 126.33 265.987 127.28L266.677 126.67C265.997 125.84 264.667 124.44 263.587 123.54ZM271.057 126.12C271.057 126.49 271.047 126.99 270.997 127.31H271.967C271.927 126.98 271.907 126.44 271.907 126.12C271.907 125.65 271.897 121.86 271.897 120.31C271.897 120 271.927 119.57 271.967 119.26H270.987C271.037 119.58 271.057 120.02 271.057 120.31C271.057 121.14 271.057 125.56 271.057 126.12ZM271.717 121.89V122.77C272.807 123.11 274.677 123.82 275.817 124.43L276.167 123.58C275.057 123.04 273.037 122.27 271.717 121.89ZM284.597 120.22L284.027 120.47C284.357 120.92 284.717 121.55 284.957 122.07L285.547 121.81C285.317 121.33 284.857 120.59 284.597 120.22ZM285.887 119.71L285.327 119.98C285.657 120.42 286.017 121.03 286.287 121.55L286.867 121.27C286.627 120.81 286.147 120.06 285.887 119.71ZM278.227 124.37L278.967 125.13C279.127 124.93 279.337 124.62 279.547 124.36C279.997 123.81 280.837 122.71 281.317 122.13C281.657 121.71 281.847 121.68 282.237 122.05C282.657 122.47 283.577 123.46 284.157 124.11C284.807 124.84 285.687 125.87 286.397 126.73L287.087 126C286.317 125.17 285.317 124.09 284.637 123.37C284.057 122.75 283.197 121.85 282.587 121.28C281.907 120.63 281.437 120.74 280.907 121.37C280.277 122.12 279.407 123.23 278.927 123.71C278.667 123.97 278.477 124.15 278.227 124.37ZM288.707 122.67V123.65C289.027 123.63 289.557 123.61 290.107 123.61C290.847 123.61 294.837 123.61 295.597 123.61C296.037 123.61 296.457 123.64 296.667 123.65V122.67C296.437 122.69 296.087 122.73 295.587 122.73C294.847 122.73 290.837 122.73 290.107 122.73C289.537 122.73 289.017 122.7 288.707 122.67ZM305.189 120.32L304.689 119.93C304.529 119.98 304.259 120.01 303.939 120.01C303.559 120.01 300.469 120.01 300.079 120.01C299.769 120.01 299.199 119.97 299.069 119.95V120.85C299.179 120.84 299.719 120.8 300.079 120.8C300.419 120.8 303.619 120.8 303.979 120.8C303.719 121.63 302.989 122.82 302.309 123.59C301.279 124.73 299.809 125.93 298.189 126.55L298.829 127.22C300.409 126.5 301.839 125.31 302.959 124.06C303.789 123.14 304.549 121.74 304.949 120.75C304.999 120.62 305.129 120.4 305.189 120.32ZM303.089 123.54L302.519 124.1C303.599 125.05 304.769 126.33 305.489 127.28L306.179 126.67C305.499 125.84 304.169 124.44 303.089 123.54ZM307.979 120.42L308.069 121.3C309.149 121.07 311.699 120.82 312.769 120.71C311.859 121.25 310.909 122.53 310.909 124.08C310.909 126.32 313.009 127.3 314.859 127.37L315.149 126.55C313.529 126.49 311.699 125.86 311.699 123.91C311.699 122.73 312.569 121.2 313.999 120.74C314.509 120.6 315.379 120.58 315.959 120.59L315.949 119.79C315.279 119.81 314.349 119.87 313.249 119.96C311.409 120.12 309.519 120.3 308.879 120.37C308.679 120.39 308.359 120.41 307.979 120.42ZM314.509 121.81L314.009 122.03C314.309 122.45 314.589 122.96 314.819 123.44L315.339 123.21C315.119 122.76 314.739 122.14 314.509 121.81ZM315.599 121.39L315.109 121.62C315.419 122.04 315.719 122.54 315.959 123.02L316.469 122.77C316.239 122.33 315.849 121.72 315.599 121.39ZM321.799 118.61V120.07H322.569V118.61H321.799ZM317.969 119.59V121.53H318.709V120.26H325.649V121.53H326.419V119.59H317.969ZM318.809 121.42V122.05H325.649V121.42H318.809ZM317.819 124.53V125.19H326.629V124.53H317.819ZM318.969 122.95V123.58H325.509V122.95H318.969ZM322.709 124.69L322.029 124.85C322.749 126.51 324.169 127.45 326.279 127.83C326.379 127.63 326.579 127.33 326.739 127.17C324.729 126.89 323.329 126.07 322.709 124.69ZM321.789 120.59V123.08C321.789 124.52 321.489 126.15 317.719 127.2C317.879 127.36 318.099 127.64 318.179 127.8C322.059 126.64 322.539 124.79 322.539 123.08V120.59H321.789ZM332.549 120.01V120.7H336.739V120.01H332.549ZM333.979 121.07V126.11H334.629V121.07H333.979ZM332.789 118.6C332.509 119.84 331.999 121.03 331.309 121.8C331.479 121.92 331.769 122.19 331.889 122.32C332.609 121.45 333.189 120.14 333.529 118.75L332.789 118.6ZM331.469 123.85L331.749 124.46L336.139 122.39L335.869 121.78L331.469 123.85ZM332.349 121.86V126.64C332.349 127.53 332.629 127.76 333.629 127.76C333.849 127.76 335.439 127.76 335.669 127.76C336.519 127.76 336.739 127.42 336.829 126.23C336.639 126.18 336.359 126.07 336.189 125.96C336.149 126.93 336.069 127.11 335.629 127.11C335.289 127.11 333.929 127.11 333.679 127.11C333.129 127.11 333.039 127.03 333.039 126.65V121.86H332.349ZM335.689 121.94C335.689 123.45 335.679 124.64 335.649 124.82C335.629 124.98 335.559 125.01 335.439 125.01C335.349 125.01 335.109 125.01 334.919 125C334.999 125.15 335.059 125.4 335.079 125.59C335.309 125.59 335.619 125.58 335.839 125.53C336.089 125.47 336.259 125.3 336.289 124.98C336.329 124.69 336.339 123.43 336.349 122L336.379 121.88L335.909 121.7L335.779 121.79L335.609 121.94H335.689ZM327.629 120.24V120.94H331.859V120.24H327.629ZM329.069 122.32V123.01H330.829V122.32H329.069ZM329.389 118.62V120.49H330.119V118.62H329.389ZM328.729 120.64C328.699 123.22 328.609 125.86 327.519 127.31C327.719 127.42 327.959 127.64 328.089 127.8C329.269 126.2 329.399 123.43 329.439 120.64H328.729ZM330.589 122.32V122.47C330.529 125.67 330.449 126.78 330.279 127.01C330.199 127.13 330.109 127.15 329.969 127.15C329.819 127.15 329.449 127.15 329.039 127.11C329.149 127.3 329.219 127.59 329.229 127.79C329.649 127.81 330.059 127.81 330.299 127.79C330.559 127.76 330.729 127.68 330.889 127.46C331.149 127.12 331.199 125.99 331.269 122.66C331.279 122.56 331.279 122.32 331.279 122.32H330.589Z" fill="black"/>
<path d="M268.51 140.75V141.46H271.71V140.75H268.51ZM269.93 138.6V147.79H270.62V138.6H269.93ZM269.91 141.19C269.63 142.62 268.96 144.36 268.3 145.26C268.42 145.43 268.6 145.71 268.69 145.91C269.4 144.91 270.07 142.94 270.38 141.35L269.91 141.19ZM270.57 142.15L270.25 142.47C270.51 142.86 271.2 144.04 271.43 144.53L271.85 143.94C271.66 143.65 270.81 142.42 270.57 142.15ZM272.7 140.97V141.61H276.51V140.97H272.7ZM274.58 139.28C275.22 140.17 276.36 141.1 277.38 141.63C277.48 141.43 277.64 141.15 277.78 140.98C276.73 140.52 275.61 139.62 274.9 138.62H274.21C273.67 139.53 272.6 140.51 271.48 141.04C271.61 141.2 271.78 141.47 271.86 141.66C272.95 141.07 274.01 140.13 274.58 139.28ZM272.71 143.13H276.47V144.5H272.71V143.13ZM272.05 142.53V145.12H277.16V142.53H272.05ZM274.22 141.35V143.98C274.22 145.23 273.9 146.48 271.36 147.29C271.49 147.41 271.71 147.69 271.77 147.85C274.45 146.97 274.91 145.44 274.91 144V141.35H274.22ZM275.01 144.73L274.37 144.87C274.98 146.61 275.89 147.32 277.28 147.85C277.36 147.63 277.55 147.38 277.72 147.22C276.44 146.79 275.59 146.23 275.01 144.73ZM282.35 139.21V139.93H287.47V139.21H282.35ZM282.02 146.75V147.46H287.63V146.75H282.02ZM285.1 142.69V143.41H287.41V142.69H285.1ZM284.68 139.49V147.15H285.42V139.49H284.68ZM282.77 141.72V147.07H283.48V141.72H282.77ZM278.85 141.69V142.28H281.67V141.69H278.85ZM278.91 138.96V139.56H281.66V138.96H278.91ZM278.85 143.05V143.65H281.67V143.05H278.85ZM278.38 140.3V140.92H282.02V140.3H278.38ZM279.21 144.42V145.05H281.05V146.72H279.21V147.34H281.71V144.42H279.21ZM278.84 144.42V147.8H279.49V144.42H278.84ZM292.48 138.91C292.41 140.24 292.41 145.05 288.33 147.13C288.56 147.3 288.81 147.53 288.94 147.72C293.08 145.47 293.23 140.48 293.31 138.91H292.48ZM293.28 139.11L292.56 139.18C292.63 140.1 292.91 145.69 297.15 147.72C297.27 147.51 297.5 147.26 297.72 147.09C293.6 145.2 293.31 139.89 293.28 139.11ZM298.39 143.94V144.57H303.3V143.94H298.39ZM298.45 140.45V141.06H303.27V140.45H298.45ZM300.25 143.08C299.83 144 299.2 145.23 298.75 145.99L299.41 146.22C299.87 145.43 300.5 144.21 300.95 143.23L300.25 143.08ZM301.75 144.31C301.44 146.01 300.5 146.83 298.41 147.18C298.55 147.33 298.7 147.6 298.75 147.8C301.06 147.31 302.11 146.35 302.45 144.4L301.75 144.31ZM302.38 138.8C302.2 139.19 301.87 139.77 301.62 140.13L302.12 140.38C302.4 140.04 302.73 139.54 303.02 139.08L302.38 138.8ZM300.52 138.6V143.2H301.21V138.6H300.52ZM298.82 139.08C299.1 139.49 299.36 140.04 299.45 140.4L300.04 140.13C299.94 139.77 299.67 139.24 299.39 138.84L298.82 139.08ZM300.53 140.72C300.09 141.49 299.17 142.29 298.34 142.65C298.48 142.8 298.66 143.05 298.75 143.22C299.61 142.75 300.55 141.86 301.04 141.02L300.53 140.72ZM301.13 141.07L300.77 141.39C301.19 141.67 302.23 142.45 302.59 142.79L303 142.24C302.71 142.03 301.49 141.26 301.13 141.07ZM304.03 140.45V141.15H307.59V140.45H304.03ZM304.28 138.6C304 140.37 303.48 142.06 302.63 143.12C302.81 143.24 303.12 143.49 303.24 143.63C304.12 142.46 304.71 140.67 305.04 138.71L304.28 138.6ZM306.25 140.85C305.84 144.02 304.88 146.04 302.5 147.16C302.65 147.32 302.87 147.65 302.95 147.83C305.47 146.53 306.53 144.38 307.01 140.93L306.25 140.85ZM304.43 141.07L303.75 141.18C304.25 144.21 305.2 146.65 307.16 147.8C307.27 147.6 307.51 147.31 307.69 147.16C305.83 146.18 304.87 143.82 304.43 141.07ZM299.35 145.85C300.51 146.32 301.7 146.99 302.39 147.55L302.91 147.01C302.19 146.46 300.95 145.8 299.75 145.34L299.35 145.85Z" fill="black"/>
<path d="M279.753 159V158.361L282.153 155.733C282.435 155.425 282.667 155.158 282.849 154.93C283.032 154.701 283.167 154.485 283.254 154.284C283.344 154.08 283.389 153.867 283.389 153.645C283.389 153.389 283.328 153.168 283.205 152.981C283.084 152.794 282.918 152.649 282.707 152.548C282.497 152.446 282.26 152.395 281.997 152.395C281.718 152.395 281.474 152.453 281.266 152.569C281.06 152.683 280.9 152.842 280.786 153.048C280.675 153.254 280.619 153.496 280.619 153.773H279.781C279.781 153.347 279.879 152.973 280.076 152.651C280.272 152.329 280.54 152.078 280.879 151.898C281.219 151.718 281.602 151.628 282.026 151.628C282.452 151.628 282.829 151.718 283.158 151.898C283.487 152.078 283.746 152.32 283.933 152.626C284.12 152.931 284.213 153.271 284.213 153.645C284.213 153.912 284.165 154.174 284.067 154.43C283.973 154.683 283.807 154.966 283.57 155.278C283.336 155.589 283.01 155.967 282.594 156.415L280.96 158.162V158.219H284.341V159H279.753ZM288.695 158.71V159.4H293.525V158.71H288.695ZM288.355 151.61V152.28H292.025V151.61H288.355ZM288.805 150.57C288.225 151.66 287.075 152.95 285.425 153.85C285.595 153.98 285.845 154.24 285.955 154.43C287.695 153.4 288.895 152.04 289.645 150.74L288.805 150.57ZM291.775 151.61V151.74C290.735 154.37 287.965 156.33 285.375 157.08C285.535 157.24 285.725 157.55 285.815 157.75C288.535 156.87 291.355 154.86 292.555 151.84L292.055 151.57L291.915 151.61H291.775ZM287.105 153.39C287.895 153.95 288.845 154.79 289.265 155.36L289.875 154.82C289.415 154.25 288.455 153.45 287.665 152.91L287.105 153.39ZM293.155 155.55V159.82H293.925V155.55H293.155ZM289.035 155.55H288.885L288.285 156.14V159.8H289.035V156.24H293.535V155.55H289.035Z" fill="black"/>
<ellipse cx="278" cy="172.231" rx="7" ry="7.2313" fill="#758BFD"/>
<rect x="273.21" y="185.552" width="9.57895" height="30.4476" fill="#758BFD"/>
<ellipse cx="297" cy="172.231" rx="7" ry="7.23134" fill="#758BFD"/>
<rect x="292.21" y="185.553" width="9.57895" height="30.4478" fill="#758BFD"/>
</svg>
