<svg width="384" height="240" viewBox="0 0 384 240" fill="none" xmlns="http://www.w3.org/2000/svg">
<rect width="384" height="240" rx="18" fill="#F2F1F6"/>
<rect x="40" y="40" width="304" height="54" rx="9" fill="white"/>
<path d="M54.49 57.12V57.82H57.93V57.12H54.49ZM54.61 59.95V60.65H57.83V59.95H54.61ZM54.3 63.51L54.5 64.24C55.48 63.94 56.82 63.55 58.08 63.17L57.98 62.5C56.63 62.89 55.23 63.28 54.3 63.51ZM59.09 59.28H62.37V60.29H59.09V59.28ZM59.09 60.9H62.37V61.91H59.09V60.9ZM59.09 57.68H62.37V58.68H59.09V57.68ZM58.39 57.04V62.56H63.1V57.04H58.39ZM61.01 62.25V64.8C61.01 65.52 61.18 65.74 61.91 65.74C62.05 65.74 62.73 65.74 62.88 65.74C63.49 65.74 63.68 65.42 63.74 64.18C63.55 64.14 63.25 64.02 63.1 63.9C63.07 64.93 63.03 65.08 62.8 65.08C62.65 65.08 62.13 65.08 62.02 65.08C61.78 65.08 61.73 65.04 61.73 64.79V62.25H61.01ZM59.31 62.4C59.15 63.79 58.74 64.75 56.9 65.25C57.05 65.39 57.25 65.68 57.33 65.87C59.35 65.24 59.86 64.09 60.04 62.4H59.31ZM55.88 57.4V63.41L56.6 63.29V57.4H55.88ZM68.21 57.8V58.46H73.21V57.8H68.21ZM67.78 59.74V60.41H73.64V59.74H67.78ZM67.83 61.55V62.22H73.53V61.55H67.83ZM70.31 56.6V60.15H71.05V56.6H70.31ZM71.63 60.31V64.9C71.63 65.05 71.58 65.09 71.41 65.1C71.25 65.11 70.69 65.11 70.07 65.09C70.18 65.29 70.3 65.59 70.33 65.79C71.13 65.79 71.64 65.78 71.95 65.67C72.26 65.56 72.36 65.34 72.36 64.91V60.31H71.63ZM68.44 62.92C68.95 63.44 69.49 64.19 69.71 64.68L70.36 64.28C70.12 63.79 69.56 63.08 69.04 62.56L68.44 62.92ZM65.11 57.26V57.94H66.91V63.15H65.11V63.83H67.61V57.26H65.11ZM65.14 60.17V60.84H67.24V60.17H65.14ZM64.75 57.26V64.65H65.46V57.26H64.75ZM78.54 56.6V60.01H79.3V56.6H78.54ZM76.36 60.36H81.59V62.15H76.36V60.36ZM75.65 59.65V62.85H82.35V59.65H75.65ZM78.89 57.67V58.38H83.1V57.67H78.89ZM77.39 63.72C77.52 64.37 77.6 65.21 77.6 65.72L78.37 65.62C78.36 65.13 78.25 64.31 78.11 63.66L77.39 63.72ZM79.46 63.73C79.76 64.36 80.06 65.19 80.16 65.69L80.9 65.51C80.78 65 80.45 64.19 80.14 63.59L79.46 63.73ZM81.5 63.65C82.01 64.29 82.56 65.17 82.79 65.72L83.5 65.43C83.26 64.87 82.68 64.02 82.17 63.4L81.5 63.65ZM75.77 63.46C75.46 64.2 74.94 65.01 74.41 65.46L75.1 65.8C75.64 65.27 76.15 64.42 76.48 63.64L75.77 63.46ZM84.78 58.42L84.87 59.3C85.95 59.07 88.5 58.82 89.57 58.71C88.66 59.25 87.71 60.53 87.71 62.08C87.71 64.32 89.81 65.3 91.66 65.37L91.95 64.55C90.33 64.49 88.5 63.86 88.5 61.91C88.5 60.73 89.37 59.2 90.8 58.74C91.31 58.6 92.18 58.58 92.76 58.59L92.75 57.79C92.08 57.81 91.15 57.87 90.05 57.96C88.21 58.12 86.32 58.3 85.68 58.37C85.48 58.39 85.16 58.41 84.78 58.42ZM91.31 59.81L90.81 60.03C91.11 60.45 91.39 60.96 91.62 61.44L92.14 61.21C91.92 60.76 91.54 60.14 91.31 59.81ZM92.4 59.39L91.91 59.62C92.22 60.04 92.52 60.54 92.76 61.02L93.27 60.77C93.04 60.33 92.65 59.72 92.4 59.39ZM99.63 58.18L98.8 58.16C98.7 59.2 98.49 60.33 98.2 61.28C97.69 62.97 97.15 63.65 96.68 63.65C96.23 63.65 95.66 63.09 95.66 61.83C95.66 60.36 97.03 58.55 99.23 58.55C101.15 58.55 102.26 59.87 102.26 61.47C102.26 63.2 101 64.16 99.72 64.45C99.48 64.5 99.18 64.54 98.86 64.57L99.32 65.31C101.7 65 103.08 63.6 103.08 61.51C103.08 59.48 101.59 57.83 99.25 57.83C96.8 57.83 94.87 59.72 94.87 61.89C94.87 63.55 95.76 64.57 96.66 64.57C97.58 64.57 98.38 63.51 98.99 61.46C99.3 60.39 99.5 59.22 99.63 58.18ZM105.38 59.14V59.73H108.27V59.14H105.38ZM105.38 60.84V61.41H108.27V60.84H105.38ZM105.38 62.58V63.17H108.27V62.58H105.38ZM109.64 61.34V61.99H113.45V61.34H109.64ZM105.9 57.5V58.09H107.56V57.5H105.9ZM109 57.11V57.75H112.91V57.11H109ZM108.88 63.21V63.88H113.62V63.21H108.88ZM110.99 60.31V65.76H111.71V60.31H110.99ZM106.62 59.43V62.83H107.16V59.43H106.62ZM112.67 57.11V57.21C112.6 58.78 112.52 59.36 112.39 59.51C112.33 59.59 112.24 59.61 112.1 59.6C111.96 59.6 111.6 59.6 111.2 59.56C111.29 59.73 111.36 59.99 111.37 60.19C111.79 60.21 112.21 60.21 112.41 60.19C112.67 60.17 112.82 60.11 112.96 59.94C113.17 59.71 113.27 59.06 113.34 57.39C113.35 57.3 113.35 57.11 113.35 57.11H112.67ZM109.68 60.4C109.51 61.25 109.2 62.09 108.77 62.65C108.93 62.73 109.23 62.88 109.36 62.97C109.78 62.37 110.13 61.46 110.33 60.53L109.68 60.4ZM105.88 56.6C105.58 57.83 105.02 59.02 104.31 59.79C104.47 59.89 104.76 60.12 104.88 60.24C105.59 59.39 106.2 58.1 106.57 56.75L105.88 56.6ZM105.09 59.14V61.8C105.09 62.93 105.02 64.42 104.34 65.48C104.49 65.55 104.77 65.72 104.88 65.82C105.59 64.71 105.71 63.02 105.71 61.8V59.14H105.09ZM108.07 59.14V64.98C108.07 65.11 108.01 65.15 107.88 65.16C107.74 65.17 107.29 65.17 106.78 65.15C106.87 65.33 106.98 65.62 107.01 65.79C107.7 65.79 108.11 65.78 108.36 65.67C108.62 65.56 108.7 65.35 108.7 64.98V59.14H108.07ZM110.42 57.32C110.28 58.45 109.92 59.44 108.69 59.96C108.84 60.07 109.02 60.31 109.11 60.47C110.51 59.84 110.94 58.7 111.11 57.32H110.42ZM107.38 57.5V57.62C107.23 58.12 106.95 58.84 106.7 59.29C106.84 59.35 107.06 59.48 107.18 59.58C107.48 59.11 107.86 58.37 108.07 57.75L107.63 57.46L107.53 57.5H107.38ZM117.62 58.21V58.92H122.03V61.53H122.77V58.21H117.62ZM117.06 61.18V61.9H123.6V61.18H117.06ZM119.59 56.62V60.03C119.59 62.01 119.31 63.95 116.6 65.29C116.79 65.41 117.07 65.67 117.2 65.82C120.03 64.38 120.34 62.21 120.34 60.04V56.62H119.59ZM120.7 61.52L120.01 61.69C120.53 63.67 121.53 65.11 123.16 65.83C123.27 65.62 123.51 65.33 123.68 65.18C122.13 64.59 121.15 63.26 120.7 61.52ZM114.9 57.23C115.54 57.53 116.31 58.01 116.69 58.37L117.12 57.76C116.74 57.41 115.95 56.96 115.32 56.69L114.9 57.23ZM114.37 59.95C115.02 60.22 115.81 60.67 116.2 61.01L116.63 60.39C116.23 60.06 115.42 59.63 114.78 59.39L114.37 59.95ZM114.65 65.18L115.3 65.66C115.84 64.72 116.47 63.46 116.95 62.4L116.37 61.94C115.85 63.08 115.15 64.41 114.65 65.18ZM124.67 59.51V60.17H133.28V59.51H124.67ZM128.65 58.88V65.8H129.44V58.88H128.65ZM125.39 60.95V63.54H126.18V61.6H132.32V60.95H125.39ZM131.95 60.95V62.82C131.95 62.91 131.92 62.95 131.8 62.95C131.69 62.96 131.31 62.96 130.9 62.94C130.98 63.11 131.1 63.34 131.15 63.54C131.72 63.54 132.12 63.54 132.38 63.43C132.65 63.33 132.72 63.16 132.72 62.82V60.95H131.95ZM128.72 62.37C127.86 63.51 126.13 64.46 124.42 64.85C124.59 65.01 124.8 65.29 124.9 65.48C126.62 64.99 128.35 63.94 129.3 62.61L128.72 62.37ZM129.26 62.34L128.86 62.77C129.62 63.74 131.23 64.92 133.19 65.44C133.3 65.24 133.52 64.95 133.67 64.78C131.69 64.35 129.99 63.29 129.26 62.34ZM125.69 57.48V58.13H128.85V57.48H125.69ZM129.53 57.48V58.13H133.41V57.48H129.53ZM125.9 56.57C125.56 57.44 124.98 58.31 124.32 58.88C124.5 58.97 124.81 59.18 124.95 59.29C125.59 58.68 126.22 57.73 126.62 56.76L125.9 56.57ZM129.77 56.57C129.46 57.47 128.86 58.31 128.17 58.85C128.36 58.95 128.67 59.17 128.8 59.3C129.48 58.69 130.14 57.75 130.51 56.75L129.77 56.57ZM126.28 57.97C126.54 58.39 126.8 58.95 126.9 59.3L127.56 59.06C127.46 58.71 127.17 58.17 126.92 57.77L126.28 57.97ZM130.42 57.93C130.72 58.35 131.03 58.91 131.16 59.28L131.83 59.05C131.69 58.68 131.36 58.13 131.06 57.73L130.42 57.93ZM139.63 58.18L138.8 58.16C138.7 59.2 138.49 60.33 138.2 61.28C137.69 62.97 137.15 63.65 136.68 63.65C136.23 63.65 135.66 63.09 135.66 61.83C135.66 60.36 137.03 58.55 139.23 58.55C141.15 58.55 142.26 59.87 142.26 61.47C142.26 63.2 141 64.16 139.72 64.45C139.48 64.5 139.18 64.54 138.86 64.57L139.32 65.31C141.7 65 143.08 63.6 143.08 61.51C143.08 59.48 141.59 57.83 139.25 57.83C136.8 57.83 134.87 59.72 134.87 61.89C134.87 63.55 135.76 64.57 136.66 64.57C137.58 64.57 138.38 63.51 138.99 61.46C139.3 60.39 139.5 59.22 139.63 58.18ZM152.14 56.65C150.45 57.04 147.38 57.3 144.8 57.43C144.87 57.59 144.96 57.88 144.98 58.06C147.6 57.95 150.7 57.69 152.7 57.24L152.14 56.65ZM145.12 58.59C145.55 59.2 145.98 60.02 146.13 60.54L146.82 60.26C146.65 59.74 146.2 58.93 145.77 58.35L145.12 58.59ZM147.84 58.17C148.19 58.83 148.5 59.7 148.56 60.24L149.29 60.02C149.2 59.47 148.88 58.63 148.52 57.99L147.84 58.17ZM144.57 61.31V62H153.39V61.31H144.57ZM147.84 60.4C147.26 61.5 146.39 63 145.77 63.9L146.49 64.14C147.09 63.21 147.97 61.73 148.58 60.57L147.84 60.4ZM150.79 61.66C150.06 63.97 148.3 64.9 144.58 65.17C144.7 65.34 144.83 65.61 144.89 65.83C148.79 65.47 150.72 64.43 151.52 61.86L150.79 61.66ZM146.3 63.71C148.73 64.32 151.11 65.14 152.58 65.87L153.1 65.23C151.59 64.52 149.1 63.69 146.72 63.12L146.3 63.71ZM152.03 57.87C151.6 58.73 150.83 59.88 150.23 60.6L150.88 60.92C151.47 60.2 152.2 59.12 152.76 58.2L152.03 57.87ZM158.58 56.6V60.55H159.39V56.6H158.58ZM155.2 57.32C155.73 58.02 156.28 58.99 156.5 59.64L157.21 59.32C156.98 58.69 156.44 57.74 155.88 57.04L155.2 57.32ZM162.01 56.96C161.71 57.72 161.16 58.79 160.72 59.45L161.37 59.71C161.82 59.06 162.39 58.08 162.81 57.23L162.01 56.96ZM155.34 60.14V60.89H161.89V65.81H162.68V60.14H155.34ZM155.68 62.34V63.07H162.19V62.34H155.68ZM155.15 64.63V65.37H162.29V64.63H155.15ZM165.71 56.6V65.79H166.47V56.6H165.71ZM164.79 58.5C164.72 59.31 164.54 60.41 164.27 61.08L164.86 61.28C165.13 60.56 165.31 59.4 165.36 58.59L164.79 58.5ZM166.54 58.44C166.82 59 167.12 59.73 167.23 60.17L167.79 59.89C167.68 59.46 167.37 58.75 167.06 58.21L166.54 58.44ZM168.58 57.07C168.36 58.42 167.96 59.78 167.37 60.66C167.56 60.74 167.9 60.9 168.05 61.01C168.61 60.07 169.05 58.65 169.31 57.19L168.58 57.07ZM168.59 58.72L168.36 59.44H173.24V58.72H168.59ZM170.21 56.64V65.14H170.96V56.64H170.21ZM168.08 61.52V62.23H173.02V61.52H168.08ZM167.33 64.73V65.45H173.48V64.73H167.33ZM175.94 62.57C175.1 62.57 174.41 63.25 174.41 64.09C174.41 64.93 175.1 65.61 175.94 65.61C176.78 65.61 177.46 64.93 177.46 64.09C177.46 63.25 176.78 62.57 175.94 62.57ZM175.94 65.1C175.38 65.1 174.92 64.65 174.92 64.09C174.92 63.53 175.38 63.08 175.94 63.08C176.5 63.08 176.95 63.53 176.95 64.09C176.95 64.65 176.5 65.1 175.94 65.1ZM56.34 69.99V70.8C57.13 70.87 57.99 70.91 58.99 70.91C59.91 70.91 61 70.84 61.68 70.79V69.97C60.96 70.05 59.95 70.11 58.99 70.11C57.98 70.11 57.06 70.07 56.34 69.99ZM56.74 74.02L55.93 73.94C55.84 74.34 55.73 74.81 55.73 75.33C55.73 76.59 56.91 77.25 58.94 77.25C60.36 77.25 61.63 77.1 62.35 76.91L62.34 76.05C61.58 76.29 60.29 76.44 58.92 76.44C57.32 76.44 56.54 75.92 56.54 75.15C56.54 74.78 56.62 74.41 56.74 74.02ZM69.63 70.18L68.8 70.16C68.7 71.2 68.49 72.33 68.2 73.28C67.69 74.97 67.15 75.65 66.68 75.65C66.23 75.65 65.66 75.09 65.66 73.83C65.66 72.36 67.03 70.55 69.23 70.55C71.15 70.55 72.26 71.87 72.26 73.47C72.26 75.2 71 76.16 69.72 76.45C69.48 76.5 69.18 76.54 68.86 76.57L69.32 77.31C71.7 77 73.08 75.6 73.08 73.51C73.08 71.48 71.59 69.83 69.25 69.83C66.8 69.83 64.87 71.72 64.87 73.89C64.87 75.55 65.76 76.57 66.66 76.57C67.58 76.57 68.38 75.51 68.99 73.46C69.3 72.39 69.5 71.22 69.63 70.18ZM83.31 70.25L82.81 69.77C82.67 69.81 82.31 69.84 82.12 69.84C81.52 69.84 76.85 69.84 76.37 69.84C76 69.84 75.59 69.8 75.24 69.75V70.65C75.63 70.62 76 70.6 76.37 70.6C76.85 70.6 81.37 70.6 82.07 70.6C81.75 71.22 80.81 72.3 79.88 72.83L80.55 73.36C81.69 72.57 82.64 71.28 83.04 70.6C83.11 70.49 83.23 70.34 83.31 70.25ZM79.31 71.56H78.41C78.45 71.83 78.45 72.05 78.45 72.29C78.45 73.96 78.23 75.38 76.69 76.33C76.41 76.52 76.06 76.69 75.79 76.78L76.52 77.38C79.07 76.1 79.31 74.27 79.31 71.56ZM84.362 73.39L84.752 74.17C86.362 73.67 87.952 72.94 89.052 72.26C90.222 71.53 91.272 70.69 92.132 69.8L91.462 69.17C90.772 70.01 89.772 70.87 88.722 71.53C87.612 72.22 86.092 72.93 84.362 73.39ZM88.562 71.94V76.25C88.562 76.62 88.532 77.12 88.502 77.31H89.492C89.442 77.12 89.422 76.62 89.422 76.25V71.68L88.562 71.94ZM95.532 69.7V70.53C95.792 70.51 96.112 70.49 96.452 70.49C97.012 70.49 99.342 70.49 99.902 70.49C100.182 70.49 100.532 70.51 100.832 70.53V69.7C100.542 69.73 100.182 69.75 99.902 69.75C99.342 69.75 97.012 69.75 96.432 69.75C96.112 69.75 95.812 69.73 95.532 69.7ZM94.342 72.21V73.04C94.612 73.02 94.912 73.01 95.212 73.01C95.792 73.01 101.222 73.01 101.752 73.01C102.002 73.01 102.322 73.02 102.542 73.04V72.21C102.292 72.24 101.962 72.26 101.752 72.26C101.222 72.26 95.792 72.26 95.212 72.26C94.902 72.26 94.612 72.24 94.342 72.21ZM99.052 72.61L98.212 72.62C98.202 73.72 98.132 74.7 97.632 75.49C97.232 76.13 96.512 76.7 95.742 77.03L96.482 77.57C97.332 77.14 98.082 76.42 98.452 75.75C98.892 74.91 99.052 73.87 99.052 72.61ZM101.352 68.88L100.822 69.11C101.092 69.49 101.432 70.09 101.622 70.49L102.162 70.25C101.962 69.85 101.602 69.24 101.352 68.88ZM102.442 68.48L101.922 68.71C102.202 69.08 102.532 69.65 102.752 70.08L103.282 69.84C103.092 69.47 102.712 68.85 102.442 68.48ZM112.812 70.25L112.312 69.77C112.172 69.81 111.812 69.84 111.622 69.84C111.022 69.84 106.352 69.84 105.872 69.84C105.502 69.84 105.092 69.8 104.742 69.75V70.65C105.132 70.62 105.502 70.6 105.872 70.6C106.352 70.6 110.872 70.6 111.572 70.6C111.252 71.22 110.312 72.3 109.382 72.83L110.052 73.36C111.192 72.57 112.142 71.28 112.542 70.6C112.612 70.49 112.732 70.34 112.812 70.25ZM108.812 71.56H107.912C107.952 71.83 107.952 72.05 107.952 72.29C107.952 73.96 107.732 75.38 106.192 76.33C105.912 76.52 105.562 76.69 105.292 76.78L106.022 77.38C108.572 76.1 108.812 74.27 108.812 71.56ZM118.102 69.1L117.282 69.03C117.252 69.5 117.112 70.1 116.892 70.65C116.552 71.5 115.882 72.66 114.442 74.04L115.132 74.55C115.462 74.14 115.742 73.78 116.032 73.5C116.492 73.09 117.122 72.77 117.762 72.77C118.282 72.77 118.682 73.04 118.692 73.62C118.702 74.14 118.692 75.17 118.652 75.7H119.422C119.412 75.08 119.392 73.93 119.392 73.41C119.392 72.6 118.792 72.14 118.022 72.14C117.582 72.14 117.012 72.28 116.622 72.51C117.022 71.99 117.392 71.32 117.642 70.71C117.902 70.04 118.012 69.49 118.102 69.1ZM114.672 70.18V70.93C115.232 70.97 115.892 70.99 116.322 70.99C117.592 70.99 119.452 70.9 120.852 70.69V69.95C119.442 70.2 117.712 70.28 116.362 70.28C115.902 70.28 115.212 70.25 114.672 70.18ZM122.312 72.59L121.992 71.85C121.712 71.99 121.462 72.1 121.162 72.24C120.502 72.55 119.692 72.86 118.742 73.35C117.552 73.96 116.312 74.71 116.312 75.93C116.312 77.14 117.462 77.45 118.882 77.45C119.752 77.45 120.862 77.37 121.622 77.28L121.652 76.47C120.772 76.63 119.692 76.72 118.912 76.72C117.882 76.72 117.112 76.6 117.112 75.82C117.112 75.13 117.812 74.59 118.802 74.07C119.772 73.57 120.722 73.19 121.432 72.91C121.702 72.81 122.062 72.67 122.312 72.59ZM127.642 69V77.79H128.342V69H127.642ZM130.392 68.81V76.44H131.072V68.81H130.392ZM132.132 69.45C131.962 70.09 131.592 71.04 131.312 71.61L131.832 71.81C132.132 71.26 132.502 70.39 132.812 69.67L132.132 69.45ZM128.712 69.73C129.012 70.35 129.292 71.17 129.392 71.71L129.992 71.5C129.892 70.96 129.592 70.15 129.262 69.54L128.712 69.73ZM128.612 71.98V72.66H132.932V71.98H128.612ZM128.052 76.63V77.31H133.122V76.63H128.052ZM130.252 72.34C129.912 73.4 129.142 74.64 128.442 75.28C128.562 75.46 128.732 75.77 128.802 75.97C129.582 75.23 130.352 73.77 130.772 72.56L130.252 72.34ZM130.992 72.91L130.622 73.24C131.042 73.68 132.122 74.94 132.472 75.45L132.922 74.87C132.632 74.54 131.352 73.22 130.992 72.91ZM125.462 68.61C125.212 69.27 124.752 70.25 124.402 70.83L124.902 71.05C125.272 70.49 125.742 69.59 126.102 68.85L125.462 68.61ZM126.522 69.75C126.002 70.8 125.102 72.29 124.392 73.18L124.842 73.42C125.562 72.56 126.482 71.14 127.142 70.03L126.522 69.75ZM123.862 70.68C124.392 71.18 124.992 71.89 125.242 72.37L125.662 71.82C125.402 71.37 124.792 70.69 124.262 70.2L123.862 70.68ZM126.142 72.01C126.512 72.69 126.852 73.59 126.962 74.15L127.522 73.91C127.422 73.35 127.052 72.47 126.672 71.81L126.142 72.01ZM123.782 73.03L123.862 73.7C124.732 73.64 125.872 73.57 127.002 73.5V72.86C125.802 72.93 124.612 72.99 123.782 73.03ZM126.332 74.44C126.562 75.02 126.752 75.78 126.802 76.28L127.362 76.11C127.312 75.62 127.102 74.86 126.862 74.29L126.332 74.44ZM124.382 74.32C124.272 75.19 124.082 76.09 123.762 76.7C123.912 76.76 124.202 76.89 124.322 76.98C124.632 76.34 124.872 75.37 125.002 74.43L124.382 74.32ZM125.392 73.32V77.8H126.042V73.32H125.392ZM139.912 68.6V71.4H140.652V68.6H139.912ZM137.622 69.54V70.17H142.992V69.54H137.622ZM137.972 71.08V71.72H142.642V71.08H137.972ZM137.662 72.41V74.21H138.312V73.02H142.342V74.21H143.012V72.41H137.662ZM140.782 73.75V76.81C140.782 77.53 140.942 77.74 141.612 77.74C141.742 77.74 142.282 77.74 142.412 77.74C142.982 77.74 143.162 77.41 143.222 76.15C143.032 76.09 142.742 75.99 142.602 75.86C142.582 76.93 142.532 77.09 142.342 77.09C142.222 77.09 141.792 77.09 141.712 77.09C141.502 77.09 141.472 77.05 141.472 76.81V73.75H140.782ZM138.942 73.76V74.37C138.942 75.17 138.752 76.44 136.962 77.31C137.142 77.44 137.382 77.66 137.492 77.82C139.412 76.85 139.632 75.39 139.632 74.39V73.76H138.942ZM135.462 68.61C135.202 69.27 134.732 70.25 134.372 70.83L134.882 71.05C135.272 70.5 135.742 69.6 136.122 68.86L135.462 68.61ZM136.582 69.75C136.032 70.8 135.092 72.29 134.342 73.18L134.802 73.44C135.552 72.57 136.522 71.15 137.212 70.04L136.582 69.75ZM133.862 70.69C134.392 71.2 134.992 71.91 135.242 72.39L135.672 71.83C135.412 71.37 134.802 70.7 134.262 70.21L133.862 70.69ZM136.192 72.04C136.592 72.7 136.982 73.59 137.112 74.15L137.702 73.88C137.562 73.33 137.152 72.47 136.732 71.81L136.192 72.04ZM133.782 73.03L133.862 73.7C134.772 73.64 135.972 73.57 137.162 73.49V72.86C135.902 72.93 134.652 72.99 133.782 73.03ZM136.452 74.46C136.692 75.04 136.902 75.8 136.962 76.29L137.542 76.11C137.472 75.62 137.262 74.87 137.002 74.29L136.452 74.46ZM134.382 74.32C134.272 75.19 134.082 76.09 133.762 76.7C133.912 76.77 134.212 76.9 134.332 76.98C134.652 76.34 134.882 75.38 135.012 74.43L134.382 74.32ZM135.442 73.32V77.8H136.102V73.32H135.442ZM148.732 69.92C148.842 70.23 148.982 70.69 149.202 71.26C149.532 72.17 150.082 73.16 150.502 73.8C150.142 73.76 149.402 73.7 148.842 73.65L148.782 74.31C149.502 74.36 150.722 74.47 151.202 74.59L151.602 74.02C151.452 73.86 151.302 73.69 151.172 73.49C150.742 72.91 150.232 71.98 149.922 71.12C149.692 70.47 149.432 69.61 149.342 69.03L148.482 69.13C148.582 69.4 148.672 69.7 148.732 69.92ZM145.072 70.7L145.092 71.49C146.862 71.64 148.452 71.63 149.722 71.48C150.452 71.39 151.402 71.23 152.112 71.03L152.022 70.24C151.242 70.51 150.252 70.69 149.462 70.78C148.322 70.9 146.742 70.89 145.072 70.7ZM146.622 73.88L145.842 73.7C145.552 74.29 145.352 74.81 145.352 75.37C145.352 76.73 146.552 77.41 148.452 77.42C149.572 77.43 150.412 77.32 151.042 77.21L151.072 76.41C150.382 76.56 149.512 76.66 148.502 76.66C147.012 76.64 146.142 76.23 146.142 75.27C146.142 74.8 146.322 74.37 146.622 73.88ZM160.892 69.29H160.042C160.072 69.47 160.102 69.82 160.102 70.05C160.102 70.6 160.102 71.3 160.092 71.86C160.082 72.57 160.042 73.44 159.982 73.82C159.942 74.05 159.842 74.09 159.592 74.09C159.362 74.09 158.942 74.04 158.592 73.96L158.582 74.66C158.842 74.71 159.532 74.8 159.902 74.8C160.352 74.8 160.582 74.67 160.672 74.22C160.772 73.7 160.802 72.62 160.822 71.85C160.842 71.34 160.842 70.64 160.852 70.02C160.852 69.8 160.872 69.46 160.892 69.29ZM156.942 69.61H156.062C156.112 69.91 156.122 70.15 156.122 70.45C156.122 70.91 156.112 74.21 156.132 75.05C156.172 76.64 156.392 77.18 158.702 77.18C159.722 77.18 160.942 77.08 161.612 77.01L161.642 76.17C160.992 76.29 159.752 76.4 158.662 76.4C156.932 76.4 156.922 76.02 156.882 74.94C156.862 74.25 156.892 71.5 156.902 70.42C156.902 70.11 156.912 69.84 156.942 69.61ZM153.952 72L154.032 72.82C154.312 72.78 154.742 72.72 155.042 72.68C156.312 72.53 160.332 72.11 161.932 72.08C162.182 72.08 162.562 72.07 162.712 72.08V71.29C162.482 71.31 162.192 71.33 161.932 71.34C159.882 71.45 156.072 71.85 154.992 71.94C154.632 71.98 154.262 72 153.952 72ZM164.342 70.36L164.432 71.24C165.522 71.01 168.062 70.76 169.142 70.65C168.222 71.19 167.272 72.46 167.272 74.02C167.272 76.26 169.372 77.24 171.232 77.31L171.512 76.49C169.892 76.42 168.062 75.8 168.062 73.85C168.062 72.67 168.932 71.14 170.362 70.68C170.872 70.54 171.742 70.52 172.322 70.53L172.312 69.73C171.642 69.75 170.712 69.81 169.622 69.9C167.772 70.06 165.892 70.24 165.242 70.31C165.042 70.33 164.722 70.35 164.342 70.36ZM175.752 72.16V72.87H181.252V72.16H175.752ZM174.752 69.03V69.7H177.732V69.03H174.752ZM174.492 74.37V75.06H182.472V74.37H174.492ZM177.472 69.03V69.18C176.862 70.81 175.282 72.19 173.782 72.8C173.932 72.94 174.152 73.2 174.252 73.37C175.882 72.64 177.522 71.22 178.252 69.24L177.752 69L177.612 69.03H177.472ZM176.822 72.5V74.2C176.822 75.33 176.552 76.5 174.282 77.26C174.442 77.4 174.672 77.68 174.772 77.85C177.242 76.99 177.562 75.6 177.562 74.21V72.5H176.822ZM179.292 68.64L178.632 68.83C179.422 70.86 180.872 72.55 182.692 73.36C182.812 73.17 183.042 72.88 183.212 72.72C181.432 72.03 179.992 70.45 179.292 68.64ZM174.612 70.45C175.082 70.8 175.662 71.3 175.942 71.61L176.442 71.16C176.152 70.85 175.562 70.37 175.092 70.04L174.612 70.45ZM181.152 68.71C180.772 69.17 180.082 69.8 179.582 70.17L180.042 70.53C180.552 70.18 181.222 69.62 181.732 69.11L181.152 68.71ZM182.342 69.86C181.912 70.33 181.162 70.99 180.612 71.37L181.072 71.73C181.632 71.35 182.352 70.78 182.902 70.26L182.342 69.86ZM179.312 72.52V76.67C179.312 77.5 179.532 77.73 180.382 77.73C180.562 77.73 181.512 77.73 181.702 77.73C182.442 77.73 182.652 77.37 182.722 76.08C182.512 76.04 182.212 75.91 182.042 75.78C182.002 76.85 181.952 77.05 181.632 77.05C181.432 77.05 180.642 77.05 180.492 77.05C180.142 77.05 180.082 76.99 180.082 76.67V72.52H179.312ZM185.992 72.46V73.11H192.602V72.46H185.992ZM185.682 74.13V74.78H193.002V74.13H185.682ZM187.492 71.48V74.47H188.192V71.48H187.492ZM186.952 74.36V77.06H187.652V74.36H186.952ZM190.202 71.48V74.44H190.912V71.48H190.202ZM184.902 69.09V72.02C184.902 73.62 184.812 75.85 183.812 77.43C183.992 77.5 184.332 77.7 184.472 77.81C185.512 76.18 185.662 73.72 185.662 72.02V69.09H184.902ZM185.352 69.09V69.74H191.662V70.89H185.352V71.54H192.412V69.09H185.352ZM185.802 76.97L185.922 77.67C186.972 77.49 188.432 77.26 189.812 77.01L189.782 76.36C188.302 76.6 186.792 76.84 185.802 76.97ZM189.412 74.39L188.792 74.54C189.452 76.23 190.762 77.35 192.652 77.82C192.742 77.63 192.942 77.36 193.102 77.2C191.292 76.84 189.992 75.84 189.412 74.39ZM191.902 74.84C191.462 75.2 190.692 75.7 190.142 76L190.622 76.37C191.192 76.08 191.922 75.66 192.462 75.23L191.902 74.84ZM198.732 69.92C198.842 70.23 198.982 70.69 199.202 71.26C199.532 72.17 200.082 73.16 200.502 73.8C200.142 73.76 199.402 73.7 198.842 73.65L198.782 74.31C199.502 74.36 200.722 74.47 201.202 74.59L201.602 74.02C201.452 73.86 201.302 73.69 201.172 73.49C200.742 72.91 200.232 71.98 199.922 71.12C199.692 70.47 199.432 69.61 199.342 69.03L198.482 69.13C198.582 69.4 198.672 69.7 198.732 69.92ZM195.072 70.7L195.092 71.49C196.862 71.64 198.452 71.63 199.722 71.48C200.452 71.39 201.402 71.23 202.112 71.03L202.022 70.24C201.242 70.51 200.252 70.69 199.462 70.78C198.322 70.9 196.742 70.89 195.072 70.7ZM196.622 73.88L195.842 73.7C195.552 74.29 195.352 74.81 195.352 75.37C195.352 76.73 196.552 77.41 198.452 77.42C199.572 77.43 200.412 77.32 201.042 77.21L201.072 76.41C200.382 76.56 199.512 76.66 198.502 76.66C197.012 76.64 196.142 76.23 196.142 75.27C196.142 74.8 196.322 74.37 196.622 73.88ZM210.892 69.29H210.042C210.072 69.47 210.102 69.82 210.102 70.05C210.102 70.6 210.102 71.3 210.092 71.86C210.082 72.57 210.042 73.44 209.982 73.82C209.942 74.05 209.842 74.09 209.592 74.09C209.362 74.09 208.942 74.04 208.592 73.96L208.582 74.66C208.842 74.71 209.532 74.8 209.902 74.8C210.352 74.8 210.582 74.67 210.672 74.22C210.772 73.7 210.802 72.62 210.822 71.85C210.842 71.34 210.842 70.64 210.852 70.02C210.852 69.8 210.872 69.46 210.892 69.29ZM206.942 69.61H206.062C206.112 69.91 206.122 70.15 206.122 70.45C206.122 70.91 206.112 74.21 206.132 75.05C206.172 76.64 206.392 77.18 208.702 77.18C209.722 77.18 210.942 77.08 211.612 77.01L211.642 76.17C210.992 76.29 209.752 76.4 208.662 76.4C206.932 76.4 206.922 76.02 206.882 74.94C206.862 74.25 206.892 71.5 206.902 70.42C206.902 70.11 206.912 69.84 206.942 69.61ZM203.952 72L204.032 72.82C204.312 72.78 204.742 72.72 205.042 72.68C206.312 72.53 210.332 72.11 211.932 72.08C212.182 72.08 212.562 72.07 212.712 72.08V71.29C212.482 71.31 212.192 71.33 211.932 71.34C209.882 71.45 206.072 71.85 204.992 71.94C204.632 71.98 204.262 72 203.952 72ZM215.882 69.64L215.902 70.46C216.122 70.43 216.342 70.42 216.572 70.4C217.092 70.37 219.092 70.29 219.622 70.26C219.122 70.71 217.862 71.76 217.302 72.22C216.732 72.71 215.442 73.79 214.612 74.47L215.192 75.05C216.452 73.76 217.352 73.06 219.012 73.06C220.322 73.06 221.262 73.79 221.262 74.78C221.262 76.03 220.192 76.73 218.492 76.73C217.702 76.73 217.152 76.44 217.152 75.95C217.152 75.6 217.502 75.32 217.962 75.32C218.762 75.32 219.252 75.93 219.312 76.78L220.032 76.66C219.962 75.65 219.292 74.71 217.962 74.71C217.042 74.71 216.422 75.33 216.422 76.01C216.422 76.85 217.252 77.44 218.612 77.44C220.732 77.44 222.062 76.39 222.062 74.78C222.062 73.43 220.872 72.44 219.212 72.44C218.762 72.44 218.282 72.49 217.822 72.64C218.602 72 219.962 70.83 220.452 70.45C220.642 70.3 220.842 70.17 221.022 70.05L220.562 69.46C220.452 69.5 220.312 69.52 220.012 69.55C219.482 69.6 217.112 69.67 216.582 69.67C216.382 69.67 216.102 69.66 215.882 69.64ZM227.872 69.2L226.952 69.11C226.952 69.88 226.812 70.78 226.632 71.57C226.362 72.8 225.562 75.47 224.422 76.99L225.232 77.32C226.362 75.49 227.082 73 227.422 71.6C227.552 70.98 227.692 70.16 227.752 69.8C227.792 69.6 227.832 69.39 227.872 69.2ZM231.322 70.27L230.592 70.6C231.292 71.42 232.072 73.19 232.372 74.22L233.142 73.85C232.812 72.92 231.942 71.08 231.322 70.27ZM224.272 71.4L224.362 72.26C224.612 72.22 225.032 72.17 225.262 72.14C225.872 72.08 227.742 71.86 228.412 71.86C229.052 71.86 229.472 72.03 229.472 72.94C229.472 74.02 229.322 75.33 229.002 76C228.792 76.44 228.492 76.52 228.122 76.52C227.842 76.52 227.322 76.44 226.902 76.31L227.032 77.15C227.352 77.22 227.822 77.29 228.212 77.29C228.852 77.29 229.352 77.13 229.672 76.46C230.082 75.63 230.242 74.04 230.242 72.85C230.242 71.49 229.512 71.15 228.622 71.15C227.942 71.15 225.912 71.38 225.172 71.4C224.852 71.41 224.592 71.41 224.272 71.4ZM241.102 71.3L240.702 70.57C240.492 70.75 240.272 70.88 239.982 71.05C239.332 71.41 238.162 71.96 237.142 72.64C235.972 73.42 235.242 74.27 235.242 75.35C235.242 76.85 236.602 77.41 238.482 77.41C239.732 77.41 240.892 77.3 241.642 77.17L241.652 76.27C240.872 76.47 239.532 76.61 238.442 76.61C236.862 76.61 236.072 76.09 236.072 75.26C236.072 74.51 236.632 73.85 237.562 73.24C238.542 72.59 239.652 72.07 240.332 71.72C240.622 71.57 240.872 71.44 241.102 71.3ZM236.312 69.35L235.522 69.69C236.062 70.93 236.662 72.28 237.162 73.1L237.852 72.68C237.382 71.88 236.772 70.63 236.312 69.35ZM241.272 69.25L240.732 69.48C241.012 69.86 241.342 70.47 241.542 70.88L242.082 70.63C241.882 70.22 241.522 69.62 241.272 69.25ZM242.372 68.85L241.842 69.08C242.132 69.45 242.452 70.03 242.672 70.46L243.212 70.22C243.022 69.85 242.632 69.22 242.372 68.85ZM250.692 73.68C250.692 75.47 248.982 76.42 246.552 76.73L247.012 77.49C249.602 77.09 251.542 75.88 251.542 73.71C251.542 72.28 250.492 71.49 249.072 71.49C247.912 71.49 246.782 71.81 246.082 71.97C245.772 72.03 245.442 72.1 245.162 72.12L245.412 73.04C245.652 72.94 245.952 72.83 246.262 72.74C246.842 72.57 247.832 72.24 248.982 72.24C250.012 72.24 250.692 72.83 250.692 73.68ZM246.492 69.17L246.372 69.93C247.502 70.13 249.512 70.33 250.622 70.41L250.742 69.64C249.772 69.63 247.602 69.42 246.492 69.17ZM257.872 69.2L256.952 69.11C256.952 69.88 256.812 70.78 256.632 71.57C256.362 72.8 255.562 75.47 254.422 76.99L255.232 77.32C256.362 75.49 257.082 73 257.422 71.6C257.552 70.98 257.692 70.16 257.752 69.8C257.792 69.6 257.832 69.39 257.872 69.2ZM261.322 70.27L260.592 70.6C261.292 71.42 262.072 73.19 262.372 74.22L263.142 73.85C262.812 72.92 261.942 71.08 261.322 70.27ZM254.272 71.4L254.362 72.26C254.612 72.22 255.032 72.17 255.262 72.14C255.872 72.08 257.742 71.86 258.412 71.86C259.052 71.86 259.472 72.03 259.472 72.94C259.472 74.02 259.322 75.33 259.002 76C258.792 76.44 258.492 76.52 258.122 76.52C257.842 76.52 257.322 76.44 256.902 76.31L257.032 77.15C257.352 77.22 257.822 77.29 258.212 77.29C258.852 77.29 259.352 77.13 259.672 76.46C260.082 75.63 260.242 74.04 260.242 72.85C260.242 71.49 259.512 71.15 258.622 71.15C257.942 71.15 255.912 71.38 255.172 71.4C254.852 71.41 254.592 71.41 254.272 71.4ZM264.012 70.75V71.46H267.212V70.75H264.012ZM265.432 68.6V77.79H266.122V68.6H265.432ZM265.412 71.19C265.132 72.62 264.462 74.36 263.802 75.26C263.922 75.43 264.102 75.71 264.192 75.91C264.902 74.91 265.572 72.94 265.882 71.35L265.412 71.19ZM266.072 72.15L265.752 72.47C266.012 72.86 266.702 74.04 266.932 74.53L267.352 73.94C267.162 73.65 266.312 72.42 266.072 72.15ZM268.202 70.97V71.61H272.012V70.97H268.202ZM270.082 69.28C270.722 70.17 271.862 71.1 272.882 71.63C272.982 71.43 273.142 71.15 273.282 70.98C272.232 70.52 271.112 69.62 270.402 68.62H269.712C269.172 69.53 268.102 70.51 266.982 71.04C267.112 71.2 267.282 71.47 267.362 71.66C268.452 71.07 269.512 70.13 270.082 69.28ZM268.212 73.13H271.972V74.5H268.212V73.13ZM267.552 72.53V75.12H272.662V72.53H267.552ZM269.722 71.35V73.98C269.722 75.23 269.402 76.48 266.862 77.29C266.992 77.41 267.212 77.69 267.272 77.85C269.952 76.97 270.412 75.44 270.412 74V71.35H269.722ZM270.512 74.73L269.872 74.87C270.482 76.61 271.392 77.32 272.782 77.85C272.862 77.63 273.052 77.38 273.222 77.22C271.942 76.79 271.092 76.23 270.512 74.73ZM281.162 68.61V76.77C281.162 76.96 281.092 77.01 280.902 77.02C280.702 77.02 280.062 77.03 279.382 77.01C279.492 77.23 279.612 77.59 279.652 77.8C280.522 77.8 281.112 77.78 281.442 77.65C281.772 77.52 281.892 77.3 281.892 76.77V68.61H281.162ZM278.462 72.95C278.952 73.68 279.492 74.67 279.712 75.31L280.372 74.96C280.142 74.32 279.602 73.36 279.082 72.65L278.462 72.95ZM277.982 70.91V71.62H283.122V70.91H277.982ZM274.352 71.63V72.23H277.472V71.63H274.352ZM274.412 68.96V69.56H277.482V68.96H274.412ZM274.352 72.97V73.57H277.472V72.97H274.352ZM273.882 70.27V70.89H277.842V70.27H273.882ZM274.702 74.32V74.94H276.772V76.61H274.702V77.24H277.442V74.32H274.702ZM274.342 74.32V77.7H275.012V74.32H274.342ZM289.132 70.18L288.302 70.16C288.202 71.2 287.992 72.33 287.702 73.28C287.192 74.97 286.652 75.65 286.182 75.65C285.732 75.65 285.162 75.09 285.162 73.83C285.162 72.36 286.532 70.55 288.732 70.55C290.652 70.55 291.762 71.87 291.762 73.47C291.762 75.2 290.502 76.16 289.222 76.45C288.982 76.5 288.682 76.54 288.362 76.57L288.822 77.31C291.202 77 292.582 75.6 292.582 73.51C292.582 71.48 291.092 69.83 288.752 69.83C286.302 69.83 284.372 71.72 284.372 73.89C284.372 75.55 285.262 76.57 286.162 76.57C287.082 76.57 287.882 75.51 288.492 73.46C288.802 72.39 289.002 71.22 289.132 70.18ZM297.922 69.14L296.972 69.06C296.992 69.27 296.972 69.61 296.932 69.89C296.862 70.41 296.602 71.67 296.362 72.59C295.982 74 295.282 76.03 294.682 77.07L295.552 77.36C296.082 76.27 296.752 74.2 297.112 72.78C297.392 71.78 297.602 70.65 297.752 69.93C297.792 69.74 297.862 69.36 297.922 69.14ZM295.712 70.81C295.342 70.81 294.982 70.79 294.512 70.73L294.532 71.51C294.902 71.54 295.252 71.55 295.692 71.55C296.772 71.55 298.282 71.38 299.522 71.1V70.32C298.282 70.63 296.812 70.81 295.712 70.81ZM298.872 72.18V72.93C299.482 72.86 300.102 72.82 300.722 72.82C301.312 72.82 301.892 72.88 302.412 72.94L302.432 72.18C301.892 72.12 301.282 72.1 300.702 72.1C300.062 72.1 299.392 72.13 298.872 72.18ZM299.072 74.61L298.332 74.54C298.242 74.96 298.182 75.34 298.182 75.72C298.182 76.71 299.042 77.19 300.612 77.19C301.342 77.19 302.012 77.13 302.552 77.05L302.582 76.25C301.962 76.37 301.282 76.44 300.622 76.44C299.202 76.44 298.932 75.98 298.932 75.51C298.932 75.25 298.992 74.94 299.072 74.61ZM310.192 69.26L309.322 69.18C309.332 69.41 309.302 69.74 309.262 69.94C309.012 71.4 308.342 73.23 307.682 74.25C307.172 75.06 306.472 75.91 305.822 75.91C305.372 75.91 305.082 75.51 305.082 74.85C305.082 73.95 305.622 72.88 306.472 72.27C307.252 71.69 308.122 71.36 309.092 71.36C310.702 71.36 311.762 72.44 311.762 73.91C311.762 75.46 310.612 76.55 308.522 76.74L308.982 77.45C311.132 77.15 312.562 75.94 312.562 73.94C312.562 71.99 311.142 70.67 309.182 70.67C308.152 70.67 307.172 70.93 306.182 71.6C305.122 72.31 304.352 73.64 304.352 74.9C304.352 76.07 304.992 76.7 305.752 76.7C306.662 76.7 307.392 75.95 308.152 74.89C308.952 73.79 309.652 71.7 310.012 70.05C310.062 69.86 310.122 69.51 310.192 69.26ZM306.092 69.72L305.262 69.98C305.392 70.24 305.502 70.57 305.602 70.89C305.982 72.14 306.562 73.67 307.052 74.45C307.432 75.1 307.802 75.59 308.202 76.03L308.832 75.52C308.352 75.06 307.882 74.4 307.542 73.82C307.122 73.12 306.562 71.58 306.302 70.6C306.222 70.32 306.142 69.99 306.092 69.72Z" fill="black"/>
<path d="M20.18 22.18V23.6H31.76V22.18H20.18ZM20.18 26.92V28.34H31.76V26.92H20.18ZM20.18 31.68V33.14H31.76V31.68H20.18ZM19.14 17.44V34.5H20.64V18.92H31.16V34.5H32.72V17.44H19.14ZM38.62 19.42V20.76H43.3V31.14H38.62V32.5H44.7V19.42H38.62ZM37.72 19.42V34.1H39.12V19.42H37.72ZM38.52 24.98V26.32H44.04V24.98H38.52ZM40.78 16.16C40.62 17.2 40.24 18.72 39.9 19.68L41.1 19.98C41.5 19.08 42 17.7 42.4 16.46L40.78 16.16ZM47.54 19.36V20.76H53.68V19.36H47.54ZM53.16 19.36V19.68C52.88 28.5 52.56 31.82 51.9 32.54C51.68 32.8 51.44 32.86 51.04 32.86C50.58 32.86 49.38 32.84 48.08 32.74C48.36 33.14 48.54 33.76 48.58 34.2C49.7 34.26 50.88 34.3 51.56 34.22C52.26 34.16 52.72 33.98 53.16 33.4C53.96 32.42 54.24 29.32 54.56 20.14C54.56 19.92 54.56 19.36 54.56 19.36H53.16ZM47.96 16.12C47.32 18.9 46.22 21.66 44.86 23.42C45.22 23.62 45.84 24.04 46.1 24.28C47.48 22.38 48.66 19.44 49.4 16.46L47.96 16.12ZM47.04 24.56C48.14 26.02 49.48 28 50.08 29.22L51.36 28.42C50.72 27.24 49.34 25.3 48.2 23.88L47.04 24.56Z" fill="black"/>
<path d="M134.816 117V118.136H139.936V117H134.816ZM137.088 113.56V128.264H138.192V113.56H137.088ZM137.056 117.704C136.608 119.992 135.536 122.776 134.48 124.216C134.672 124.488 134.96 124.936 135.104 125.256C136.24 123.656 137.312 120.504 137.808 117.96L137.056 117.704ZM138.112 119.24L137.6 119.752C138.016 120.376 139.12 122.264 139.488 123.048L140.16 122.104C139.856 121.64 138.496 119.672 138.112 119.24ZM141.52 117.352V118.376H147.616V117.352H141.52ZM144.528 114.648C145.552 116.072 147.376 117.56 149.008 118.408C149.168 118.088 149.424 117.64 149.648 117.368C147.968 116.632 146.176 115.192 145.04 113.592H143.936C143.072 115.048 141.36 116.616 139.568 117.464C139.776 117.72 140.048 118.152 140.176 118.456C141.92 117.512 143.616 116.008 144.528 114.648ZM141.536 120.808H147.552V123H141.536V120.808ZM140.48 119.848V123.992H148.656V119.848H140.48ZM143.952 117.96V122.168C143.952 124.168 143.44 126.168 139.376 127.464C139.584 127.656 139.936 128.104 140.032 128.36C144.32 126.952 145.056 124.504 145.056 122.2V117.96H143.952ZM145.216 123.368L144.192 123.592C145.168 126.376 146.624 127.512 148.848 128.36C148.976 128.008 149.28 127.608 149.552 127.352C147.504 126.664 146.144 125.768 145.216 123.368ZM156.96 114.536V115.688H165.152V114.536H156.96ZM156.432 126.6V127.736H165.408V126.6H156.432ZM161.36 120.104V121.256H165.056V120.104H161.36ZM160.688 114.984V127.24H161.872V114.984H160.688ZM157.632 118.552V127.112H158.768V118.552H157.632ZM151.36 118.504V119.448H155.872V118.504H151.36ZM151.456 114.136V115.096H155.856V114.136H151.456ZM151.36 120.68V121.64H155.872V120.68H151.36ZM150.608 116.28V117.272H156.432V116.28H150.608ZM151.936 122.872V123.88H154.88V126.552H151.936V127.544H155.936V122.872H151.936ZM151.344 122.872V128.28H152.384V122.872H151.344ZM172.64 119.672L171.76 120.568C173.744 121.8 176.48 123.768 177.952 125.112L178.896 123.992C177.312 122.712 174.688 120.872 172.64 119.672ZM179.952 116.76L178.896 116.12C178.64 116.216 178.288 116.264 177.856 116.264H172.768L172.256 117.416H178.176C177.808 118.904 176.8 120.936 175.568 122.408C174.128 124.12 171.952 125.816 168.976 126.712L170.112 127.72C173.152 126.6 175.232 124.888 176.688 123.096C178.096 121.368 179.104 119.24 179.584 117.608C179.664 117.352 179.824 116.984 179.952 116.76ZM174.56 114.44L173.104 113.976C173.008 114.392 172.752 114.968 172.592 115.24C171.856 116.712 170.208 119.112 167.472 120.824L168.528 121.64C171.088 119.88 172.896 117.464 173.84 115.704C174 115.4 174.288 114.856 174.56 114.44ZM194.784 116.312L193.984 115.688C193.728 115.768 193.296 115.816 192.784 115.816C192.176 115.816 187.232 115.816 186.608 115.816C186.112 115.816 185.2 115.752 184.992 115.72V117.16C185.168 117.144 186.032 117.08 186.608 117.08C187.152 117.08 192.272 117.08 192.848 117.08C192.432 118.408 191.264 120.312 190.176 121.544C188.528 123.368 186.176 125.288 183.584 126.28L184.608 127.352C187.136 126.2 189.424 124.296 191.216 122.296C192.544 120.824 193.76 118.584 194.4 117C194.48 116.792 194.688 116.44 194.784 116.312ZM191.424 121.464L190.512 122.36C192.24 123.88 194.112 125.928 195.264 127.448L196.368 126.472C195.28 125.144 193.152 122.904 191.424 121.464ZM211.936 117L210.88 116.36C210.624 116.456 210.256 116.504 209.824 116.504C209.328 116.504 205.376 116.504 204.736 116.504L204.224 117.656H210.144C209.824 119.112 208.832 121.192 207.6 122.648C206.128 124.36 204.144 125.8 201.2 126.664L202.368 127.72C205.36 126.6 207.28 125.144 208.736 123.368C210.16 121.624 211.136 119.464 211.568 117.848C211.648 117.592 211.808 117.224 211.936 117ZM206.576 114.584L205.104 114.088C205.008 114.504 204.768 115.08 204.608 115.368C203.904 116.792 202.336 119.128 199.568 120.776L200.688 121.592C203.264 119.896 204.928 117.608 205.872 115.832C206.032 115.544 206.32 115 206.576 114.584ZM221.216 120.056C222.848 121.528 224.896 123.576 225.856 124.84L226.848 124.072C225.824 122.824 223.744 120.824 222.112 119.416L221.216 120.056ZM221.392 113.56V116.696C221.392 118.904 221.184 121.992 217.184 124.152C217.456 124.36 217.872 124.792 218.032 125.048C222.16 122.632 222.624 119.256 222.624 116.696V113.56H221.392ZM215.568 116.296V128.312H216.768V117.48H227.808V116.296H215.568ZM227.264 116.296V126.696C227.264 126.968 227.168 127.064 226.864 127.08C226.544 127.096 225.456 127.096 224.32 127.048C224.48 127.384 224.672 127.944 224.72 128.28C226.16 128.28 227.152 128.264 227.712 128.072C228.256 127.864 228.448 127.48 228.448 126.696V116.296H227.264ZM235.296 116.904C234.384 118.072 232.88 119.192 231.44 119.912C231.696 120.136 232.128 120.616 232.304 120.856C233.76 120.008 235.392 118.68 236.448 117.272L235.296 116.904ZM239.376 117.576C240.864 118.504 242.656 119.864 243.52 120.792L244.416 119.976C243.504 119.064 241.664 117.736 240.192 116.888L239.376 117.576ZM238.016 119.784C239.504 121.592 242.32 123.592 244.704 124.712C244.896 124.376 245.184 123.928 245.456 123.64C242.992 122.632 240.256 120.728 238.544 118.68H237.344C236.08 120.504 233.424 122.632 230.72 123.864C230.96 124.12 231.264 124.568 231.408 124.856C234.08 123.56 236.704 121.512 238.016 119.784ZM233.584 122.92V128.296H234.752V123.992H241.232V128.232H242.448V122.92H233.584ZM234.144 126.68V127.752H241.872V126.68H234.144ZM237.344 113.56V115.656H238.576V113.56H237.344ZM231.312 115.048V117.96H232.496V116.136H243.456V117.96H244.672V115.048H231.312Z" fill="black"/>
<rect x="134" y="139" width="210" height="84" rx="9" fill="white"/>
<path d="M154.924 165.2C154.334 165.2 153.854 165.68 153.854 166.26C153.854 166.85 154.334 167.33 154.924 167.33C155.504 167.33 155.984 166.85 155.984 166.26C155.984 165.68 155.504 165.2 154.924 165.2ZM167.124 165.47V163.1C167.124 162.71 167.164 162.39 167.174 162.29H166.264C166.284 162.38 166.314 162.71 166.314 163.1V165.53C166.314 168.34 165.414 169.2 163.594 169.89L164.264 170.53C166.544 169.5 167.124 168.13 167.124 165.47ZM163.514 162.35H162.624C162.654 162.58 162.674 162.86 162.674 163.07V166.74C162.674 167.12 162.634 167.55 162.624 167.64H163.514C163.504 167.55 163.474 167.11 163.474 166.74V163.07C163.474 162.73 163.504 162.44 163.514 162.35ZM160.594 164.29V165.15C160.704 165.15 161.154 165.12 161.594 165.12H168.224C168.664 165.12 169.024 165.14 169.134 165.15V164.3C168.994 164.32 168.664 164.36 168.214 164.36H161.594C161.174 164.36 160.684 164.3 160.594 164.29ZM177.474 161.75L176.924 161.98C177.174 162.34 177.514 162.91 177.714 163.32L178.274 163.07C178.074 162.69 177.714 162.1 177.474 161.75ZM178.764 161.5L178.214 161.73C178.484 162.07 178.804 162.65 179.024 163.06L179.584 162.82C179.374 162.43 179.004 161.84 178.764 161.5ZM178.374 163.55L177.764 163.16C177.584 163.21 177.384 163.22 177.234 163.22C176.774 163.22 172.784 163.22 172.214 163.22C171.884 163.22 171.494 163.18 171.214 163.15V164.04C171.474 164.02 171.814 164 172.214 164C172.784 164 176.754 164 177.324 164C177.194 164.96 176.724 166.36 176.014 167.26C175.184 168.33 174.054 169.18 172.124 169.67L172.804 170.42C174.634 169.84 175.824 168.92 176.734 167.74C177.524 166.72 178.014 165.1 178.224 164.05C178.264 163.86 178.314 163.69 178.374 163.55ZM187.914 163.38L187.414 162.99C187.254 163.04 186.984 163.07 186.664 163.07C186.284 163.07 183.194 163.07 182.804 163.07C182.494 163.07 181.924 163.03 181.794 163.01V163.91C181.904 163.9 182.444 163.86 182.804 163.86C183.144 163.86 186.344 163.86 186.704 163.86C186.444 164.69 185.714 165.88 185.034 166.65C184.004 167.79 182.534 168.99 180.914 169.61L181.554 170.28C183.134 169.56 184.564 168.37 185.684 167.12C186.514 166.2 187.274 164.8 187.674 163.81C187.724 163.68 187.854 163.46 187.914 163.38ZM185.814 166.6L185.244 167.16C186.324 168.11 187.494 169.39 188.214 170.34L188.904 169.73C188.224 168.9 186.894 167.5 185.814 166.6ZM198.634 163.81L197.974 163.41C197.814 163.47 197.584 163.5 197.314 163.5C197.004 163.5 194.534 163.5 194.134 163.5L193.814 164.22H197.514C197.314 165.13 196.694 166.43 195.924 167.34C195.004 168.41 193.764 169.31 191.924 169.85L192.654 170.51C194.524 169.81 195.724 168.9 196.634 167.79C197.524 166.7 198.134 165.35 198.404 164.34C198.454 164.18 198.554 163.95 198.634 163.81ZM195.284 162.3L194.364 161.99C194.304 162.25 194.154 162.61 194.054 162.79C193.614 163.68 192.634 165.14 190.904 166.17L191.604 166.68C193.214 165.62 194.254 164.19 194.844 163.08C194.944 162.9 195.124 162.56 195.284 162.3ZM205.554 163.24L204.724 163.22C204.624 164.26 204.414 165.39 204.124 166.34C203.614 168.03 203.074 168.71 202.604 168.71C202.154 168.71 201.584 168.15 201.584 166.89C201.584 165.42 202.954 163.61 205.154 163.61C207.074 163.61 208.184 164.93 208.184 166.53C208.184 168.26 206.924 169.22 205.644 169.51C205.404 169.56 205.104 169.6 204.784 169.63L205.244 170.37C207.624 170.06 209.004 168.66 209.004 166.57C209.004 164.54 207.514 162.89 205.174 162.89C202.724 162.89 200.794 164.78 200.794 166.95C200.794 168.61 201.684 169.63 202.584 169.63C203.504 169.63 204.304 168.57 204.914 166.52C205.224 165.45 205.424 164.28 205.554 163.24ZM212.534 165.61H210.404V166.31H211.804V169.15H212.534V165.61ZM212.534 168.82H211.854C211.344 169.25 210.754 169.69 210.274 170.01L210.674 170.78C211.214 170.34 211.724 169.91 212.204 169.48C212.844 170.27 213.744 170.62 215.044 170.67C216.154 170.71 218.224 170.69 219.324 170.65C219.354 170.42 219.484 170.06 219.564 169.88C218.384 169.96 216.134 169.99 215.044 169.95C213.894 169.9 213.004 169.56 212.534 168.82ZM210.514 162.36C211.164 162.8 211.914 163.48 212.234 163.96L212.824 163.47C212.474 162.98 211.724 162.33 211.064 161.91L210.514 162.36ZM214.014 162.71V163.34H217.724V164.69H214.014V165.33H218.454V162.71H214.014ZM215.644 161.63C215.564 162.02 215.384 162.58 215.234 162.96L215.924 163.11C216.094 162.77 216.314 162.26 216.504 161.77L215.644 161.63ZM213.654 162.71V169.13H214.384V162.71H213.654ZM214.054 166.28V166.92H218.114V168.48H214.054V169.13H218.854V166.28H214.054ZM225.974 169.25V169.98H228.694V169.25H225.974ZM220.454 163.56V164.29H224.294V163.56H220.454ZM225.634 162.91V170.71H226.364V163.63H228.294V170.64H229.054V162.91H225.634ZM224.094 163.56V163.74C224.024 168.02 223.934 169.5 223.704 169.81C223.614 169.94 223.524 169.97 223.374 169.96C223.184 169.96 222.754 169.96 222.284 169.92C222.414 170.13 222.494 170.46 222.504 170.68C222.954 170.71 223.414 170.71 223.694 170.67C223.994 170.64 224.174 170.55 224.354 170.29C224.674 169.85 224.744 168.39 224.824 163.94C224.824 163.84 224.824 163.56 224.824 163.56H224.094ZM221.874 161.8C221.864 165.3 221.874 168.6 220.204 170.36C220.394 170.47 220.654 170.7 220.784 170.87C222.544 168.96 222.594 165.49 222.604 161.8H221.874ZM154.924 177.2C154.334 177.2 153.854 177.68 153.854 178.26C153.854 178.85 154.334 179.33 154.924 179.33C155.504 179.33 155.984 178.85 155.984 178.26C155.984 177.68 155.504 177.2 154.924 177.2ZM164.994 174.2H164.064C164.104 174.43 164.124 174.8 164.124 175.03C164.104 178.19 163.284 179.88 162.034 181.01C161.734 181.29 161.334 181.57 161.014 181.74L161.744 182.33C163.714 180.96 164.814 179.09 164.944 175.01C164.954 174.77 164.974 174.43 164.994 174.2ZM168.474 176.28L167.904 175.99C167.734 176.02 167.544 176.04 167.274 176.04H162.334C161.944 176.04 161.534 176.02 161.184 175.99V176.83C161.544 176.8 161.944 176.79 162.344 176.79H167.614C167.614 177.86 167.484 180.32 167.104 181.09C166.994 181.33 166.804 181.42 166.524 181.42C166.094 181.42 165.574 181.37 165.034 181.3L165.134 182.13C165.654 182.17 166.234 182.2 166.734 182.2C167.284 182.2 167.604 182.02 167.804 181.59C168.254 180.63 168.384 177.73 168.414 176.76C168.424 176.63 168.444 176.45 168.474 176.28ZM172.064 174.67V175.5C172.324 175.48 172.654 175.46 172.984 175.46C173.554 175.46 176.464 175.46 177.024 175.46C177.304 175.46 177.654 175.48 177.954 175.5V174.67C177.664 174.7 177.304 174.72 177.024 174.72C176.464 174.72 173.554 174.72 172.974 174.72C172.644 174.72 172.354 174.7 172.064 174.67ZM170.874 177.18V178.01C171.144 177.99 171.444 177.98 171.744 177.98C172.324 177.98 177.754 177.98 178.284 177.98C178.534 177.98 178.844 177.99 179.074 178V177.18C178.824 177.21 178.494 177.22 178.284 177.22C177.754 177.22 172.324 177.22 171.744 177.22C171.434 177.22 171.144 177.21 170.874 177.18ZM175.584 177.58L174.744 177.59C174.734 178.69 174.654 179.67 174.154 180.46C173.764 181.1 173.044 181.67 172.274 182L173.014 182.54C173.854 182.1 174.614 181.39 174.974 180.72C175.424 179.88 175.584 178.84 175.584 177.58ZM187.264 173.81L186.714 174.04C186.964 174.39 187.314 174.98 187.514 175.39L188.074 175.15C187.874 174.77 187.504 174.15 187.264 173.81ZM188.534 173.53L187.974 173.76C188.244 174.1 188.574 174.68 188.794 175.09L189.354 174.85C189.144 174.46 188.774 173.87 188.534 173.53ZM181.444 175.51V176.4C181.684 176.38 182.174 176.36 182.544 176.36H187.334V181.57C187.334 181.93 187.324 182.3 187.314 182.45H188.214C188.204 182.3 188.184 181.84 188.184 181.49V176.32C188.184 176.09 188.194 175.77 188.204 175.55C188.004 175.56 187.704 175.57 187.464 175.57H182.534C182.214 175.57 181.774 175.54 181.444 175.51ZM181.314 181.03V181.94C181.584 181.91 182.044 181.9 182.454 181.9H187.784V181.08H182.424C182.014 181.08 181.574 181.05 181.314 181.03ZM197.674 174.48H196.734C196.764 174.72 196.794 175.01 196.794 175.35C196.794 175.7 196.794 176.54 196.794 176.93C196.794 178.81 196.664 179.63 195.954 180.45C195.334 181.16 194.484 181.55 193.564 181.79L194.224 182.48C194.954 182.23 195.954 181.79 196.594 181.01C197.324 180.16 197.644 179.37 197.644 176.96C197.644 176.59 197.644 175.74 197.644 175.35C197.644 175.01 197.654 174.72 197.674 174.48ZM193.034 174.56H192.124C192.154 174.75 192.164 175.1 192.164 175.27C192.164 175.57 192.164 178.18 192.164 178.61C192.164 178.9 192.144 179.22 192.124 179.38H193.034C193.014 179.2 193.004 178.87 193.004 178.61C193.004 178.19 193.004 175.57 193.004 175.27C193.004 175.04 193.014 174.75 193.034 174.56ZM200.934 177.73V178.71C201.254 178.69 201.784 178.67 202.334 178.67C203.074 178.67 207.064 178.67 207.824 178.67C208.264 178.67 208.684 178.7 208.894 178.71V177.73C208.664 177.75 208.314 177.79 207.814 177.79C207.074 177.79 203.064 177.79 202.334 177.79C201.764 177.79 201.244 177.76 200.934 177.73ZM214.074 177.48L213.524 178.04C214.764 178.81 216.474 180.04 217.394 180.88L217.984 180.18C216.994 179.38 215.354 178.23 214.074 177.48ZM218.644 175.66L217.984 175.26C217.824 175.32 217.604 175.35 217.334 175.35H214.154L213.834 176.07H217.534C217.304 177 216.674 178.27 215.904 179.19C215.004 180.26 213.644 181.32 211.784 181.88L212.494 182.51C214.394 181.81 215.694 180.74 216.604 179.62C217.484 178.54 218.114 177.21 218.414 176.19C218.464 176.03 218.564 175.8 218.644 175.66ZM215.274 174.21L214.364 173.92C214.304 174.18 214.144 174.54 214.044 174.71C213.584 175.63 212.554 177.13 210.844 178.2L211.504 178.71C213.104 177.61 214.234 176.1 214.824 175C214.924 174.81 215.104 174.47 215.274 174.21ZM227.574 174.06L227.034 174.29C227.304 174.67 227.644 175.27 227.844 175.68L228.384 175.43C228.184 175.03 227.824 174.42 227.574 174.06ZM228.664 173.66L228.144 173.89C228.424 174.26 228.744 174.83 228.964 175.26L229.504 175.02C229.314 174.65 228.934 174.03 228.664 173.66ZM228.234 176.05L227.574 175.65C227.404 175.72 227.184 175.75 226.914 175.75C226.604 175.75 224.134 175.75 223.724 175.75L223.404 176.47H227.114C226.904 177.38 226.294 178.67 225.514 179.59C224.604 180.65 223.364 181.56 221.524 182.1L222.244 182.75C224.124 182.06 225.324 181.14 226.234 180.03C227.114 178.95 227.734 177.59 228.004 176.59C228.054 176.43 228.154 176.2 228.234 176.05ZM224.884 174.54L223.964 174.24C223.904 174.49 223.754 174.86 223.654 175.03C223.214 175.93 222.234 177.38 220.504 178.41L221.204 178.93C222.804 177.86 223.854 176.43 224.444 175.33C224.544 175.14 224.724 174.8 224.884 174.54ZM235.554 175.24L234.724 175.22C234.624 176.26 234.414 177.39 234.124 178.34C233.614 180.03 233.074 180.71 232.604 180.71C232.154 180.71 231.584 180.15 231.584 178.89C231.584 177.42 232.954 175.61 235.154 175.61C237.074 175.61 238.184 176.93 238.184 178.53C238.184 180.26 236.924 181.22 235.644 181.51C235.404 181.56 235.104 181.6 234.784 181.63L235.244 182.37C237.624 182.06 239.004 180.66 239.004 178.57C239.004 176.54 237.514 174.89 235.174 174.89C232.724 174.89 230.794 176.78 230.794 178.95C230.794 180.61 231.684 181.63 232.584 181.63C233.504 181.63 234.304 180.57 234.914 178.52C235.224 177.45 235.424 176.28 235.554 175.24ZM243.924 174.54V175.26H248.874V174.54H243.924ZM248.554 174.54V174.74C248.444 179.68 248.304 181.48 247.984 181.86C247.874 182 247.774 182.04 247.584 182.03C247.364 182.03 246.834 182.03 246.254 181.98C246.384 182.2 246.474 182.53 246.494 182.75C247.024 182.79 247.574 182.8 247.904 182.76C248.244 182.71 248.464 182.62 248.694 182.31C249.074 181.8 249.194 180.1 249.314 174.97C249.314 174.86 249.324 174.54 249.324 174.54H248.554ZM240.204 176.88L240.344 177.57L244.564 176.66L244.434 175.99L240.204 176.88ZM241.424 173.95V179.82C241.424 180.71 241.614 180.96 242.364 180.96C242.514 180.96 243.264 180.96 243.434 180.96C244.114 180.96 244.294 180.53 244.374 179.14C244.164 179.08 243.864 178.95 243.704 178.81C243.664 179.99 243.624 180.24 243.374 180.24C243.204 180.24 242.594 180.24 242.474 180.24C242.204 180.24 242.164 180.19 242.164 179.83V173.95H241.424ZM245.704 174.86C245.644 177.91 245.594 180.87 243.004 182.31C243.194 182.45 243.434 182.71 243.544 182.9C246.264 181.29 246.384 178.15 246.444 174.86H245.704ZM253.304 174.17L252.434 174.14C252.414 174.42 252.394 174.7 252.354 175C252.234 175.82 252.044 177.29 252.044 178.24C252.044 178.89 252.094 179.45 252.144 179.83L252.924 179.77C252.854 179.27 252.854 178.92 252.904 178.54C253.024 177.23 254.184 175.41 255.434 175.41C256.484 175.41 257.014 176.55 257.014 178.13C257.014 180.64 255.324 181.52 253.144 181.85L253.624 182.57C256.094 182.12 257.844 180.89 257.844 178.12C257.844 176.02 256.884 174.68 255.564 174.68C254.294 174.68 253.254 175.93 252.844 176.96C252.904 176.26 253.094 174.91 253.304 174.17ZM261.784 178.63V182.86H262.514V179.28H267.294V182.82H268.054V178.63H261.784ZM262.234 180.24V180.82H267.604V180.24H262.234ZM260.824 174.55V175.15H264.414V174.55H260.824ZM265.174 174.55V175.15H269.004V174.55H265.174ZM260.524 176.03V176.65H264.584V176.03H260.524ZM264.974 176.03V176.65H269.324V176.03H264.974ZM262.224 181.84V182.49H267.584V181.84H262.224ZM262.364 173.66V175.14C262.364 176.11 262.214 177.52 260.354 178.45C260.514 178.57 260.744 178.81 260.854 178.96C262.814 177.88 263.074 176.31 263.074 175.14V173.66H262.364ZM266.664 173.66V175.25C266.664 176.12 266.494 177.34 264.694 178.09C264.854 178.22 265.074 178.45 265.174 178.62C267.094 177.72 267.384 176.34 267.384 175.26V173.66H266.664ZM267.424 176.17L266.834 176.34C267.234 177.46 268.034 178.41 269.094 178.87C269.194 178.69 269.404 178.43 269.574 178.3C268.564 177.94 267.794 177.12 267.424 176.17ZM262.274 177.03C262.854 177.45 263.614 178.03 263.994 178.38L264.484 177.87C264.084 177.53 263.314 176.98 262.734 176.59L262.274 177.03ZM273.044 174.18L272.914 174.91C274.134 175.13 275.884 175.35 276.884 175.44L276.994 174.7C276.034 174.65 274.124 174.42 273.044 174.18ZM277.194 177.04L276.714 176.49C276.614 176.53 276.404 176.58 276.234 176.6C275.474 176.7 273.154 176.85 272.574 176.87C272.254 176.87 271.964 176.87 271.734 176.85L271.804 177.72C272.014 177.69 272.274 177.65 272.604 177.63C273.214 177.58 274.894 177.43 275.684 177.39C274.704 178.37 271.984 181.1 271.574 181.5C271.384 181.69 271.204 181.85 271.074 181.95L271.834 182.48C272.404 181.76 273.494 180.61 273.864 180.26C274.094 180.03 274.334 179.89 274.604 179.89C274.884 179.89 275.104 180.08 275.214 180.43C275.314 180.71 275.454 181.3 275.554 181.6C275.774 182.26 276.264 182.45 277.074 182.45C277.604 182.45 278.524 182.38 278.944 182.3L279.004 181.46C278.524 181.58 277.764 181.67 277.114 181.67C276.594 181.67 276.364 181.5 276.244 181.12C276.144 180.8 276.004 180.29 275.904 180C275.764 179.59 275.534 179.33 275.154 179.29C275.044 179.26 274.864 179.26 274.754 179.27C275.134 178.88 276.254 177.83 276.634 177.48C276.754 177.38 277.004 177.17 277.194 177.04ZM154.924 189.2C154.334 189.2 153.854 189.68 153.854 190.26C153.854 190.85 154.334 191.33 154.924 191.33C155.504 191.33 155.984 190.85 155.984 190.26C155.984 189.68 155.504 189.2 154.924 189.2ZM161.794 189.45V190.18H167.514V189.45H161.794ZM167.264 189.45V189.59C167.134 192.56 166.984 193.7 166.714 193.97C166.614 194.08 166.494 194.1 166.294 194.1C166.054 194.1 165.434 194.09 164.774 194.03C164.914 194.25 165.014 194.56 165.024 194.79C165.654 194.82 166.284 194.83 166.614 194.8C166.964 194.77 167.184 194.7 167.384 194.45C167.744 194.07 167.884 192.91 168.024 189.81C168.034 189.71 168.044 189.45 168.044 189.45H167.264ZM163.164 185.87C162.534 187.41 161.424 188.79 160.144 189.65C160.334 189.79 160.654 190.08 160.794 190.24C162.054 189.28 163.234 187.79 163.954 186.1L163.164 185.87ZM166.654 185.85L165.934 186.14C166.684 187.63 167.944 189.25 169.054 190.15C169.204 189.94 169.484 189.64 169.684 189.48C168.594 188.71 167.304 187.19 166.654 185.85ZM163.904 189.65C163.704 191.54 163.304 193.39 160.684 194.26C160.854 194.42 161.074 194.72 161.164 194.91C163.954 193.91 164.474 191.84 164.704 189.65H163.904ZM175.154 189.09V189.8H179.544V189.09H175.154ZM174.764 186.48V189.3C174.764 190.81 174.644 192.83 173.524 194.33C173.714 194.43 173.984 194.67 174.094 194.83C175.334 193.19 175.504 190.9 175.504 189.31V186.89C175.634 186.87 175.694 186.83 175.704 186.76L174.764 186.48ZM178.454 185.78C177.634 186.15 176.184 186.52 174.924 186.77C175.014 186.92 175.134 187.2 175.174 187.38C176.494 187.15 178.034 186.8 179.094 186.36L178.454 185.78ZM177.314 189.32V194.86H178.054V189.32H177.314ZM170.434 187.81V188.53H174.074V187.81H170.434ZM171.994 185.66V194.85H172.714V185.66H171.994ZM171.954 188.25C171.644 189.69 170.914 191.42 170.194 192.32C170.324 192.49 170.514 192.79 170.594 192.99C171.364 191.99 172.094 190.03 172.434 188.42L171.954 188.25ZM172.644 189.35L172.264 189.71C172.594 190.11 173.384 191.24 173.644 191.74L174.104 191.13C173.884 190.84 172.904 189.63 172.644 189.35ZM181.954 186.76V187.59C182.214 187.57 182.534 187.55 182.874 187.55C183.434 187.55 185.764 187.55 186.324 187.55C186.604 187.55 186.954 187.57 187.254 187.59V186.76C186.964 186.79 186.604 186.81 186.324 186.81C185.764 186.81 183.434 186.81 182.854 186.81C182.534 186.81 182.234 186.79 181.954 186.76ZM180.764 189.27V190.1C181.034 190.08 181.334 190.07 181.634 190.07C182.214 190.07 187.644 190.07 188.174 190.07C188.424 190.07 188.744 190.08 188.964 190.1V189.27C188.714 189.3 188.384 189.32 188.174 189.32C187.644 189.32 182.214 189.32 181.634 189.32C181.324 189.32 181.034 189.3 180.764 189.27ZM185.474 189.67L184.634 189.68C184.624 190.78 184.554 191.76 184.054 192.55C183.654 193.19 182.934 193.76 182.164 194.09L182.904 194.63C183.754 194.2 184.504 193.48 184.874 192.81C185.314 191.97 185.474 190.93 185.474 189.67ZM187.774 185.94L187.244 186.17C187.514 186.55 187.854 187.15 188.044 187.55L188.584 187.31C188.384 186.91 188.024 186.3 187.774 185.94ZM188.864 185.54L188.344 185.77C188.624 186.14 188.954 186.71 189.174 187.14L189.704 186.9C189.514 186.53 189.134 185.91 188.864 185.54ZM190.934 189.73V190.71C191.254 190.69 191.784 190.67 192.334 190.67C193.074 190.67 197.064 190.67 197.824 190.67C198.264 190.67 198.684 190.7 198.894 190.71V189.73C198.664 189.75 198.314 189.79 197.814 189.79C197.074 189.79 193.064 189.79 192.334 189.79C191.764 189.79 191.244 189.76 190.934 189.73ZM204.074 189.48L203.524 190.04C204.764 190.81 206.474 192.04 207.394 192.88L207.984 192.18C206.994 191.38 205.354 190.23 204.074 189.48ZM208.644 187.66L207.984 187.26C207.824 187.32 207.604 187.35 207.334 187.35H204.154L203.834 188.07H207.534C207.304 189 206.674 190.27 205.904 191.19C205.004 192.26 203.644 193.32 201.784 193.88L202.494 194.51C204.394 193.81 205.694 192.74 206.604 191.62C207.484 190.54 208.114 189.21 208.414 188.19C208.464 188.03 208.564 187.8 208.644 187.66ZM205.274 186.21L204.364 185.92C204.304 186.18 204.144 186.54 204.044 186.71C203.584 187.63 202.554 189.13 200.844 190.2L201.504 190.71C203.104 189.61 204.234 188.1 204.824 187C204.924 186.81 205.104 186.47 205.274 186.21ZM215.554 187.24L214.724 187.22C214.624 188.26 214.414 189.39 214.124 190.34C213.614 192.03 213.074 192.71 212.604 192.71C212.154 192.71 211.584 192.15 211.584 190.89C211.584 189.42 212.954 187.61 215.154 187.61C217.074 187.61 218.184 188.93 218.184 190.53C218.184 192.26 216.924 193.22 215.644 193.51C215.404 193.56 215.104 193.6 214.784 193.63L215.244 194.37C217.624 194.06 219.004 192.66 219.004 190.57C219.004 188.54 217.514 186.89 215.174 186.89C212.724 186.89 210.794 188.78 210.794 190.95C210.794 192.61 211.684 193.63 212.584 193.63C213.504 193.63 214.304 192.57 214.914 190.52C215.224 189.45 215.424 188.28 215.554 187.24ZM223.924 186.54V187.26H228.874V186.54H223.924ZM228.554 186.54V186.74C228.444 191.68 228.304 193.48 227.984 193.86C227.874 194 227.774 194.04 227.584 194.03C227.364 194.03 226.834 194.03 226.254 193.98C226.384 194.2 226.474 194.53 226.494 194.75C227.024 194.79 227.574 194.8 227.904 194.76C228.244 194.71 228.464 194.62 228.694 194.31C229.074 193.8 229.194 192.1 229.314 186.97C229.314 186.86 229.324 186.54 229.324 186.54H228.554ZM220.204 188.88L220.344 189.57L224.564 188.66L224.434 187.99L220.204 188.88ZM221.424 185.95V191.82C221.424 192.71 221.614 192.96 222.364 192.96C222.514 192.96 223.264 192.96 223.434 192.96C224.114 192.96 224.294 192.53 224.374 191.14C224.164 191.08 223.864 190.95 223.704 190.81C223.664 191.99 223.624 192.24 223.374 192.24C223.204 192.24 222.594 192.24 222.474 192.24C222.204 192.24 222.164 192.19 222.164 191.83V185.95H221.424ZM225.704 186.86C225.644 189.91 225.594 192.87 223.004 194.31C223.194 194.45 223.434 194.71 223.544 194.9C226.264 193.29 226.384 190.15 226.444 186.86H225.704ZM233.304 186.17L232.434 186.14C232.414 186.42 232.394 186.7 232.354 187C232.234 187.82 232.044 189.29 232.044 190.24C232.044 190.89 232.094 191.45 232.144 191.83L232.924 191.77C232.854 191.27 232.854 190.92 232.904 190.54C233.024 189.23 234.184 187.41 235.434 187.41C236.484 187.41 237.014 188.55 237.014 190.13C237.014 192.64 235.324 193.52 233.144 193.85L233.624 194.57C236.094 194.12 237.844 192.89 237.844 190.12C237.844 188.02 236.884 186.68 235.564 186.68C234.294 186.68 233.254 187.93 232.844 188.96C232.904 188.26 233.094 186.91 233.304 186.17ZM241.784 190.63V194.86H242.514V191.28H247.294V194.82H248.054V190.63H241.784ZM242.234 192.24V192.82H247.604V192.24H242.234ZM240.824 186.55V187.15H244.414V186.55H240.824ZM245.174 186.55V187.15H249.004V186.55H245.174ZM240.524 188.03V188.65H244.584V188.03H240.524ZM244.974 188.03V188.65H249.324V188.03H244.974ZM242.224 193.84V194.49H247.584V193.84H242.224ZM242.364 185.66V187.14C242.364 188.11 242.214 189.52 240.354 190.45C240.514 190.57 240.744 190.81 240.854 190.96C242.814 189.88 243.074 188.31 243.074 187.14V185.66H242.364ZM246.664 185.66V187.25C246.664 188.12 246.494 189.34 244.694 190.09C244.854 190.22 245.074 190.45 245.174 190.62C247.094 189.72 247.384 188.34 247.384 187.26V185.66H246.664ZM247.424 188.17L246.834 188.34C247.234 189.46 248.034 190.41 249.094 190.87C249.194 190.69 249.404 190.43 249.574 190.3C248.564 189.94 247.794 189.12 247.424 188.17ZM242.274 189.03C242.854 189.45 243.614 190.03 243.994 190.38L244.484 189.87C244.084 189.53 243.314 188.98 242.734 188.59L242.274 189.03ZM253.044 186.18L252.914 186.91C254.134 187.13 255.884 187.35 256.884 187.44L256.994 186.7C256.034 186.65 254.124 186.42 253.044 186.18ZM257.194 189.04L256.714 188.49C256.614 188.53 256.404 188.58 256.234 188.6C255.474 188.7 253.154 188.85 252.574 188.87C252.254 188.87 251.964 188.87 251.734 188.85L251.804 189.72C252.014 189.69 252.274 189.65 252.604 189.63C253.214 189.58 254.894 189.43 255.684 189.39C254.704 190.37 251.984 193.1 251.574 193.5C251.384 193.69 251.204 193.85 251.074 193.95L251.834 194.48C252.404 193.76 253.494 192.61 253.864 192.26C254.094 192.03 254.334 191.89 254.604 191.89C254.884 191.89 255.104 192.08 255.214 192.43C255.314 192.71 255.454 193.3 255.554 193.6C255.774 194.26 256.264 194.45 257.074 194.45C257.604 194.45 258.524 194.38 258.944 194.3L259.004 193.46C258.524 193.58 257.764 193.67 257.114 193.67C256.594 193.67 256.364 193.5 256.244 193.12C256.144 192.8 256.004 192.29 255.904 192C255.764 191.59 255.534 191.33 255.154 191.29C255.044 191.26 254.864 191.26 254.754 191.27C255.134 190.88 256.254 189.83 256.634 189.48C256.754 189.38 257.004 189.17 257.194 189.04ZM260.99 190.991C260.99 190.097 261.106 189.274 261.338 188.523C261.572 187.771 261.906 187.078 262.339 186.446H263.078C262.907 186.68 262.747 186.969 262.598 187.312C262.452 187.653 262.323 188.029 262.211 188.438C262.1 188.845 262.012 189.267 261.948 189.702C261.887 190.138 261.856 190.568 261.856 190.991C261.856 191.555 261.911 192.127 262.019 192.707C262.128 193.287 262.275 193.825 262.46 194.322C262.644 194.82 262.85 195.224 263.078 195.537H262.339C261.906 194.905 261.572 194.213 261.338 193.463C261.106 192.71 260.99 191.886 260.99 190.991ZM266.077 186.19V186.92H271.297V186.19H266.077ZM266.077 188.6V189.32H271.337V188.6H266.077ZM265.997 191.02V191.74H271.287V191.02H265.997ZM265.617 186.19V189.28C265.617 190.89 265.447 192.92 263.837 194.33C263.997 194.44 264.297 194.71 264.407 194.87C266.127 193.37 266.377 191.01 266.377 189.28V186.19H265.617ZM270.967 186.19V193.75C270.967 193.97 270.887 194.04 270.657 194.05C270.427 194.05 269.607 194.06 268.777 194.03C268.907 194.24 269.047 194.6 269.097 194.82C270.177 194.82 270.837 194.81 271.227 194.68C271.607 194.55 271.747 194.29 271.747 193.76V186.19H270.967ZM275.327 188.18V188.73H277.297V188.18H275.327ZM275.807 185.68V187.05H276.517V185.68H275.807ZM275.027 191.58V192.18H276.987V193.61H275.027V194.22H277.637V191.58H275.027ZM274.107 186.57V188.02H274.727V187.18H277.577V188.02H278.227V186.57H274.107ZM274.657 191.58V194.69H275.307V191.58H274.657ZM277.167 188.18V188.3C276.627 189.84 275.207 191.06 273.777 191.6C273.917 191.73 274.097 191.98 274.187 192.14C275.707 191.48 277.187 190.21 277.837 188.35L277.407 188.15L277.287 188.18H277.167ZM275.657 187.43C275.277 188.32 274.597 189.14 273.827 189.67C273.977 189.77 274.227 190.01 274.337 190.12C275.107 189.52 275.857 188.6 276.297 187.59L275.657 187.43ZM274.737 189.39C275.817 190.13 277.217 191.21 277.897 191.88L278.347 191.36C277.647 190.69 276.227 189.66 275.157 188.94L274.737 189.39ZM278.347 186.13V186.79H283.007V186.13H278.347ZM279.407 189.86H282.027V190.82H279.407V189.86ZM279.407 191.39H282.027V192.37H279.407V191.39ZM279.407 188.34H282.027V189.3H279.407V188.34ZM278.727 187.75V192.96H282.747V187.75H278.727ZM280.317 186.45C280.247 186.92 280.097 187.61 279.967 188.06L280.607 188.19C280.767 187.77 280.967 187.13 281.127 186.55L280.317 186.45ZM279.567 193.16C279.187 193.58 278.357 194.08 277.627 194.35C277.787 194.49 278.007 194.71 278.127 194.85C278.857 194.56 279.707 194.04 280.217 193.53L279.567 193.16ZM281.037 193.56C281.627 193.94 282.357 194.52 282.717 194.89L283.307 194.49C282.927 194.11 282.177 193.56 281.587 193.2L281.037 193.56ZM288.924 194.06L288.377 193.52L290.628 191.268H284.797V190.487H290.628L288.377 188.243L288.924 187.696L292.106 190.878L288.924 194.06ZM295.858 185.63C295.368 186.98 294.538 188.28 293.588 189.11C293.778 189.21 294.088 189.46 294.238 189.59C295.168 188.69 296.058 187.3 296.608 185.82L295.858 185.63ZM295.698 186.87L295.338 187.6H302.148V186.87H295.698ZM295.208 189.14V192.21H295.958V189.84H301.928V189.14H295.208ZM293.558 191.83V192.56H302.618V191.83H293.558ZM298.208 187.25V194.87H298.978V187.25H298.208ZM304.868 188.18V188.73H306.838V188.18H304.868ZM305.348 185.68V187.05H306.058V185.68H305.348ZM304.568 191.58V192.18H306.528V193.61H304.568V194.22H307.178V191.58H304.568ZM303.648 186.57V188.02H304.268V187.18H307.118V188.02H307.768V186.57H303.648ZM304.198 191.58V194.69H304.848V191.58H304.198ZM306.708 188.18V188.3C306.168 189.84 304.748 191.06 303.318 191.6C303.458 191.73 303.638 191.98 303.728 192.14C305.248 191.48 306.728 190.21 307.378 188.35L306.948 188.15L306.828 188.18H306.708ZM305.198 187.43C304.818 188.32 304.138 189.14 303.368 189.67C303.518 189.77 303.768 190.01 303.878 190.12C304.648 189.52 305.398 188.6 305.838 187.59L305.198 187.43ZM304.278 189.39C305.358 190.13 306.758 191.21 307.438 191.88L307.888 191.36C307.188 190.69 305.768 189.66 304.698 188.94L304.278 189.39ZM307.888 186.13V186.79H312.548V186.13H307.888ZM308.948 189.86H311.568V190.82H308.948V189.86ZM308.948 191.39H311.568V192.37H308.948V191.39ZM308.948 188.34H311.568V189.3H308.948V188.34ZM308.268 187.75V192.96H312.288V187.75H308.268ZM309.858 186.45C309.788 186.92 309.638 187.61 309.508 188.06L310.148 188.19C310.308 187.77 310.508 187.13 310.668 186.55L309.858 186.45ZM309.108 193.16C308.728 193.58 307.898 194.08 307.168 194.35C307.328 194.49 307.548 194.71 307.668 194.85C308.398 194.56 309.248 194.04 309.758 193.53L309.108 193.16ZM310.578 193.56C311.168 193.94 311.898 194.52 312.258 194.89L312.848 194.49C312.468 194.11 311.718 193.56 311.128 193.2L310.578 193.56ZM315.645 190.991C315.645 191.886 315.528 192.71 315.294 193.463C315.062 194.213 314.729 194.905 314.296 195.537H313.557C313.728 195.302 313.886 195.014 314.033 194.67C314.182 194.329 314.312 193.955 314.424 193.548C314.535 193.139 314.621 192.716 314.683 192.28C314.747 191.842 314.779 191.413 314.779 190.991C314.779 190.428 314.724 189.856 314.615 189.276C314.506 188.696 314.36 188.158 314.175 187.66C313.99 187.163 313.784 186.758 313.557 186.446H314.296C314.729 187.078 315.062 187.771 315.294 188.523C315.528 189.274 315.645 190.097 315.645 190.991Z" fill="black"/>
<path d="M40 121C40 116.029 44.0294 112 49 112H111C115.971 112 120 116.029 120 121V215C120 219.971 115.971 224 111 224H49C44.0294 224 40 219.971 40 215V121Z" fill="white"/>
<path d="M56.612 129.5V130.352H60.452V129.5H56.612ZM58.316 126.92V137.948H59.144V126.92H58.316ZM58.292 130.028C57.956 131.744 57.152 133.832 56.36 134.912C56.504 135.116 56.72 135.452 56.828 135.692C57.68 134.492 58.484 132.128 58.856 130.22L58.292 130.028ZM59.084 131.18L58.7 131.564C59.012 132.032 59.84 133.448 60.116 134.036L60.62 133.328C60.392 132.98 59.372 131.504 59.084 131.18ZM61.64 129.764V130.532H66.212V129.764H61.64ZM63.896 127.736C64.664 128.804 66.032 129.92 67.256 130.556C67.376 130.316 67.568 129.98 67.736 129.776C66.476 129.224 65.132 128.144 64.28 126.944H63.452C62.804 128.036 61.52 129.212 60.176 129.848C60.332 130.04 60.536 130.364 60.632 130.592C61.94 129.884 63.212 128.756 63.896 127.736ZM61.652 132.356H66.164V134H61.652V132.356ZM60.86 131.636V134.744H66.992V131.636H60.86ZM63.464 130.22V133.376C63.464 134.876 63.08 136.376 60.032 137.348C60.188 137.492 60.452 137.828 60.524 138.02C63.74 136.964 64.292 135.128 64.292 133.4V130.22H63.464ZM64.412 134.276L63.644 134.444C64.376 136.532 65.468 137.384 67.136 138.02C67.232 137.756 67.46 137.456 67.664 137.264C66.128 136.748 65.108 136.076 64.412 134.276ZM73.22 127.652V128.516H79.364V127.652H73.22ZM72.824 136.7V137.552H79.556V136.7H72.824ZM76.52 131.828V132.692H79.292V131.828H76.52ZM76.016 127.988V137.18H76.904V127.988H76.016ZM73.724 130.664V137.084H74.576V130.664H73.724ZM69.02 130.628V131.336H72.404V130.628H69.02ZM69.092 127.352V128.072H72.392V127.352H69.092ZM69.02 132.26V132.98H72.404V132.26H69.02ZM68.456 128.96V129.704H72.824V128.96H68.456ZM69.452 133.904V134.66H71.66V136.664H69.452V137.408H72.452V133.904H69.452ZM69.008 133.904V137.96H69.788V133.904H69.008ZM85.376 127.292C85.292 128.888 85.292 134.66 80.396 137.156C80.672 137.36 80.972 137.636 81.128 137.864C86.096 135.164 86.276 129.176 86.372 127.292H85.376ZM86.336 127.532L85.472 127.616C85.556 128.72 85.892 135.428 90.98 137.864C91.124 137.612 91.4 137.312 91.664 137.108C86.72 134.84 86.372 128.468 86.336 127.532ZM92.468 133.328V134.084H98.36V133.328H92.468ZM92.54 129.14V129.872H98.324V129.14H92.54ZM94.7 132.296C94.196 133.4 93.44 134.876 92.9 135.788L93.692 136.064C94.244 135.116 95 133.652 95.54 132.476L94.7 132.296ZM96.5 133.772C96.128 135.812 95 136.796 92.492 137.216C92.66 137.396 92.84 137.72 92.9 137.96C95.672 137.372 96.932 136.22 97.34 133.88L96.5 133.772ZM97.256 127.16C97.04 127.628 96.644 128.324 96.344 128.756L96.944 129.056C97.28 128.648 97.676 128.048 98.024 127.496L97.256 127.16ZM95.024 126.92V132.44H95.852V126.92H95.024ZM92.984 127.496C93.32 127.988 93.632 128.648 93.74 129.08L94.448 128.756C94.328 128.324 94.004 127.688 93.668 127.208L92.984 127.496ZM95.036 129.464C94.508 130.388 93.404 131.348 92.408 131.78C92.576 131.96 92.792 132.26 92.9 132.464C93.932 131.9 95.06 130.832 95.648 129.824L95.036 129.464ZM95.756 129.884L95.324 130.268C95.828 130.604 97.076 131.54 97.508 131.948L98 131.288C97.652 131.036 96.188 130.112 95.756 129.884ZM99.236 129.14V129.98H103.508V129.14H99.236ZM99.536 126.92C99.2 129.044 98.576 131.072 97.556 132.344C97.772 132.488 98.144 132.788 98.288 132.956C99.344 131.552 100.052 129.404 100.448 127.052L99.536 126.92ZM101.9 129.62C101.408 133.424 100.256 135.848 97.4 137.192C97.58 137.384 97.844 137.78 97.94 137.996C100.964 136.436 102.236 133.856 102.812 129.716L101.9 129.62ZM99.716 129.884L98.9 130.016C99.5 133.652 100.64 136.58 102.992 137.96C103.124 137.72 103.412 137.372 103.628 137.192C101.396 136.016 100.244 133.184 99.716 129.884ZM93.62 135.62C95.012 136.184 96.44 136.988 97.268 137.66L97.892 137.012C97.028 136.352 95.54 135.56 94.1 135.008L93.62 135.62Z" fill="black"/>
<path d="M70.9034 154V153.233L73.7841 150.08C74.1222 149.71 74.4006 149.389 74.6193 149.116C74.8381 148.841 75 148.582 75.1051 148.341C75.2131 148.097 75.267 147.841 75.267 147.574C75.267 147.267 75.1932 147.001 75.0455 146.777C74.9006 146.553 74.7017 146.379 74.4489 146.257C74.196 146.135 73.9119 146.074 73.5966 146.074C73.2614 146.074 72.9688 146.143 72.7188 146.283C72.4716 146.419 72.2798 146.611 72.1435 146.858C72.0099 147.105 71.9432 147.395 71.9432 147.727H70.9375C70.9375 147.216 71.0554 146.767 71.2912 146.381C71.527 145.994 71.848 145.693 72.2543 145.477C72.6634 145.261 73.1222 145.153 73.6307 145.153C74.142 145.153 74.5952 145.261 74.9901 145.477C75.3849 145.693 75.6946 145.984 75.919 146.351C76.1435 146.717 76.2557 147.125 76.2557 147.574C76.2557 147.895 76.1974 148.209 76.081 148.516C75.9673 148.82 75.7685 149.159 75.4844 149.534C75.2031 149.906 74.8125 150.361 74.3125 150.898L72.3523 152.994V153.062H76.4091V154H70.9034ZM81.6336 153.652V154.48H87.4296V153.652H81.6336ZM81.2256 145.132V145.936H85.6296V145.132H81.2256ZM81.7656 143.884C81.0696 145.192 79.6896 146.74 77.7096 147.82C77.9136 147.976 78.2136 148.288 78.3456 148.516C80.4336 147.28 81.8736 145.648 82.7736 144.088L81.7656 143.884ZM85.3296 145.132V145.288C84.0816 148.444 80.7576 150.796 77.6496 151.696C77.8416 151.888 78.0696 152.26 78.1776 152.5C81.4416 151.444 84.8256 149.032 86.2656 145.408L85.6656 145.084L85.4976 145.132H85.3296ZM79.7256 147.268C80.6736 147.94 81.8136 148.948 82.3176 149.632L83.0496 148.984C82.4976 148.3 81.3456 147.34 80.3976 146.692L79.7256 147.268ZM86.9856 149.86V154.984H87.9096V149.86H86.9856ZM82.0416 149.86H81.8616L81.1416 150.568V154.96H82.0416V150.688H87.4416V149.86H82.0416Z" fill="black"/>
<ellipse cx="71" cy="167.231" rx="7" ry="7.2313" fill="#758BFD"/>
<rect x="66.2104" y="180.553" width="9.57895" height="30.4476" fill="#758BFD"/>
<ellipse cx="90" cy="167.231" rx="7" ry="7.23134" fill="#758BFD"/>
<rect x="85.2104" y="180.553" width="9.57895" height="30.4478" fill="#758BFD"/>
</svg>
